#VRML V2.0 utf8
# 3D model generated by easyeda2kicad.py (https://github.com/uPesy/easyeda2kicad.py)

Shape{
    appearance Appearance {
        material  Material 	{
            diffuseColor 0.20784313725490197 0.20784313725490197 0.20784313725490197
            specularColor 0.01568627450980392 0.01568627450980392 0.01568627450980392
            ambientIntensity 0.298
            transparency 0.0
            shininess 0.5
        }
    }
    geometry IndexedFaceSet {
        ccw TRUE
        solid FALSE
        coord DEF co Coordinate {
            point [
                -0.4528 0.0516 0.0472, -0.4528 0.4615 0.0472, -0.0163 0.4615 0.0472, 0.0674 0.0434 0.0472, 0.0752 0.0426 0.0472, 0.0504 -0.0157 0.0472, 0.0336 0.0511 0.0472, 0.0605 0.0516 0.0472, 0.0581 0.0514 0.0472, 0.049 0.0489 0.0472, 0.049 0.0384 0.0472, 0.0336 -0.0276 0.0472, 0.0578 0.0422 0.0472, 0.049 -0.0149 0.0472, 0.0943 -0.0209 0.0472, 0.1143 -0.019 0.0472, 0.088 -0.025 0.0472, 0.0803 -0.0276 0.0472, -0.0163 -0.4615 0.0472, 0.1143 -0.0276 0.0472, 0.4528 -0.4615 0.0472, 0.1546 -0.0276 0.0472, 0.4528 0.0516 0.0472, 0.1002 -0.0147 0.0472, 0.1044 -0.0072 0.0472, 0.144 -0.019 0.0472, 0.1034 0.0304 0.0472, 0.0988 0.0377 0.0472, 0.144 0.0511 0.0472, 0.0917 0.0446 0.0472, 0.0842 0.0489 0.0472, 0.0754 0.0514 0.0472, 0.0734 0.0516 0.0472, 0.1546 0.0511 0.0472, 0.0811 0.0404 0.0472, 0.0865 0.0368 0.0472, 0.0913 0.0315 0.0472, 0.097 0.0109 0.0472, 0.0962 0.0024 0.0472, 0.094 -0.0044 0.0472, 0.0765 -0.0191 0.0472, 0.0692 -0.02 0.0472, 0.0823 -0.017 0.0472, 0.0871 -0.0138 0.0472, 0.0908 -0.0099 0.0472, 0.0587 -0.0188 0.0472, -0.0163 0.0516 0.0472, -0.0067 0.0511 0.0472, -0.0067 0.0425 0.0472, -0.0086 -0.019 0.0472, -0.0086 -0.0276 0.0472, 0.023 0.0079 0.0472, 0.023 -0.019 0.0472, -0.0048 0.0079 0.0472, -0.0048 0.0165 0.0472, 0.023 0.0165 0.0472, 0.023 0.0425 0.0472, 0.0945 0.0255 0.0472, 0.0966 0.017 0.0472, 0.1068 0.0011 0.0472, 0.1075 0.0103 0.0472, 0.1064 0.0214 0.0472, 0.049 -0.0236 0.0472, 0.0574 -0.027 0.0472, 0.0685 -0.0286 0.0472, 0.0706 -0.0286 0.0472, 0.0675 0.0521 0.0472, 0.4528 0.4615 0.0472, -0.1447 -0.0055 0.0472, -0.1122 -0.0055 0.0472, -0.1527 -0.0276 0.0472, -0.1047 -0.0276 0.0472, -0.0931 -0.0276 0.0472, -0.4528 -0.4615 0.0472, -0.1335 0.0511 0.0472, -0.1229 0.0511 0.0472, -0.0462 0.0511 0.0472, -0.0576 0.0499 0.0472, -0.0668 0.0467 0.0472, -0.0754 0.0409 0.0472, -0.0835 -0.0061 0.0472, -0.0789 -0.0131 0.0472, -0.0725 -0.0193 0.0472, -0.0642 -0.0241 0.0472, -0.0755 0.0408 0.0472, -0.081 0.0347 0.0472, -0.0847 0.0279 0.0472, -0.0552 -0.0268 0.0472, -0.0454 -0.0276 0.0472, -0.024 -0.0276 0.0472, -0.024 0.0511 0.0472, -0.0868 0.0201 0.0472, -0.0874 0.0127 0.0472, -0.0863 0.0022 0.0472, -0.1642 -0.0276 0.0472, -0.6977 -0.4615 0.874, -0.6977 0.4615 0.874, -0.806 -0.4615 0.874, -0.806 0.4615 0.874, 0.806 -0.4615 0.874, 0.806 0.4615 0.874, -0.6325 -0.4615 0.874, -0.6325 0.4615 0.874, 0.8602 -0.2717 0.4606, 0.8602 -0.4961 0.4606, 0.8533 -0.2717 0.3819, 0.8308 -0.4667 0.1243, 0.8533 0.2717 0.3819, 0.8308 0.4667 0.1243, 0.8602 0.2717 0.4606, 0.8602 0.4961 0.4606, -0.8602 0.2717 0.4606, -0.8602 0.4961 0.4606, -0.8533 0.2717 0.3819, -0.8308 0.4667 0.1243, -0.8533 -0.2717 0.3819, -0.8308 -0.4667 0.1243, -0.8602 -0.2717 0.4606, -0.8602 -0.4961 0.4606, -0.8112 -0.4667 0.1063, -0.8112 0.4667 0.1063, -0.4921 -0.4667 0.1063, -0.4921 0.4667 0.1063, -0.8406 -0.5157 0.4606, -0.8112 -0.4863 0.1243, -0.4921 -0.4863 0.1243, 0.4725 -0.4859 0.119, 0.482 -0.4862 0.1229, 0.8406 -0.5157 0.4606, 0.4921 -0.4863 0.1243, 0.8112 -0.4863 0.1243, -0.482 -0.4862 0.1229, 0.4541 -0.4838 0.0951, 0.4581 -0.4846 0.1046, 0.4643 -0.4853 0.1128, -0.4725 -0.4859 0.119, -0.4643 -0.4853 0.1128, 0.4528 -0.4812 0.0652, -0.4581 -0.4846 0.1046, -0.4541 -0.4838 0.0951, -0.4528 -0.4829 0.0849, -0.4528 -0.4812 0.0652, 0.4528 -0.4829 0.0849, 0.8406 0.5157 0.4606, 0.8112 0.4863 0.1243, 0.4921 0.4863 0.1243, -0.4725 0.4859 0.119, -0.482 0.4862 0.1229, -0.8406 0.5157 0.4606, -0.4921 0.4863 0.1243, -0.8112 0.4863 0.1243, 0.482 0.4862 0.1229, -0.4541 0.4838 0.0951, -0.4581 0.4846 0.1046, -0.4643 0.4853 0.1128, 0.4725 0.4859 0.119, 0.4643 0.4853 0.1128, -0.4528 0.4812 0.0652, 0.4581 0.4846 0.1046, 0.4541 0.4838 0.0951, 0.4528 0.4829 0.0849, 0.4528 0.4812 0.0652, -0.4528 0.4829 0.0849, 0.4921 -0.4667 0.1063, 0.4921 0.4667 0.1063, 0.8112 -0.4667 0.1063, 0.8112 0.4667 0.1063, 0.8256 0.4615 0.856, 0.8256 -0.4615 0.856, 0.806 0.4812 0.856, -0.6325 0.4812 0.856, -0.6977 0.4812 0.856, -0.806 0.4812 0.856, -0.8256 -0.4615 0.856, -0.8256 0.4615 0.856, -0.6977 -0.4812 0.856, -0.806 -0.4812 0.856, -0.6325 -0.4812 0.856, 0.806 -0.4812 0.856
            ]
        }
        coordIndex [
            0,1,2,-1,3,4,5,-1,6,7,8,-1,8,9,6,-1,6,9,10,-1,6,10,11,-1,3,5,12,-1,12,5,13,-1,12,13,10,-1,14,15,16,-1,16,15,17,-1,18,19,20,-1,20,19,21,-1,20,21,22,-1,14,23,15,-1,15,23,24,-1,15,24,25,-1,26,27,28,-1,28,27,29,-1,28,29,30,-1,30,31,28,-1,28,31,32,-1,28,32,33,-1,4,34,5,-1,5,34,35,-1,5,35,36,-1,37,38,5,-1,5,38,39,-1,40,41,42,-1,42,41,43,-1,39,44,5,-1,5,44,43,-1,5,43,45,-1,45,43,41,-1,7,6,46,-1,46,6,47,-1,46,47,48,-1,48,49,46,-1,46,49,50,-1,46,50,18,-1,18,50,11,-1,51,52,53,-1,53,52,49,-1,53,49,54,-1,54,49,48,-1,54,48,55,-1,55,48,56,-1,36,57,5,-1,5,57,58,-1,5,58,37,-1,24,59,25,-1,25,59,60,-1,25,60,28,-1,28,60,61,-1,28,61,26,-1,10,13,11,-1,11,13,62,-1,11,62,18,-1,18,62,63,-1,18,63,64,-1,15,19,17,-1,17,19,18,-1,17,18,65,-1,65,18,64,-1,32,66,2,-1,21,33,22,-1,22,33,32,-1,22,32,67,-1,67,32,2,-1,68,69,70,-1,70,69,71,-1,72,18,71,-1,71,18,73,-1,71,73,70,-1,74,46,75,-1,75,46,76,-1,76,77,75,-1,75,77,78,-1,75,78,79,-1,80,81,72,-1,72,81,82,-1,72,82,83,-1,79,84,75,-1,75,84,85,-1,75,85,86,-1,83,87,72,-1,72,87,88,-1,72,88,18,-1,18,88,89,-1,18,89,46,-1,46,89,90,-1,46,90,76,-1,86,91,75,-1,75,91,92,-1,75,92,72,-1,72,92,93,-1,72,93,80,-1,66,7,2,-1,2,7,46,-1,2,46,0,-1,0,46,74,-1,0,74,73,-1,73,74,94,-1,73,94,70,-1,95,96,97,-1,97,96,98,-1,99,100,101,-1,101,100,102,-1,103,104,105,-1,105,104,106,-1,105,106,107,-1,107,106,108,-1,107,108,109,-1,109,108,110,-1,111,112,113,-1,113,112,114,-1,113,114,115,-1,115,114,116,-1,115,116,117,-1,117,116,118,-1,119,120,121,-1,121,120,122,-1,123,124,125,-1,126,127,128,-1,128,127,129,-1,128,129,130,-1,123,125,128,-1,128,125,131,-1,128,131,126,-1,132,133,131,-1,131,133,134,-1,131,134,126,-1,135,136,137,-1,137,136,138,-1,138,139,137,-1,137,139,140,-1,137,140,141,-1,135,137,131,-1,131,137,142,-1,131,142,132,-1,143,144,145,-1,146,147,148,-1,148,147,149,-1,148,149,150,-1,143,145,148,-1,148,145,151,-1,148,151,146,-1,152,153,151,-1,151,153,154,-1,151,154,146,-1,155,156,157,-1,157,156,158,-1,158,159,157,-1,157,159,160,-1,157,160,161,-1,155,157,151,-1,151,157,162,-1,151,162,152,-1,163,164,165,-1,165,164,166,-1,110,167,109,-1,109,167,168,-1,109,168,103,-1,103,168,104,-1,169,143,170,-1,170,143,148,-1,170,148,171,-1,171,148,172,-1,118,173,117,-1,117,173,174,-1,117,174,111,-1,111,174,112,-1,175,176,123,-1,175,123,177,-1,177,123,128,-1,177,128,178,-1,
        ]
    }
}
Shape{
    appearance Appearance {
        material  Material 	{
            diffuseColor 0.34901960784313724 0.34901960784313724 0.34901960784313724
            specularColor 0.023529411764705882 0.023529411764705882 0.023529411764705882
            ambientIntensity 0.498
            transparency 0.0
            shininess 0.5
        }
    }
    geometry IndexedFaceSet {
        ccw TRUE
        solid FALSE
        coord DEF co Coordinate {
            point [
                -0.6325 -0.4615 0.874, -0.6325 0.4615 0.874, -0.6977 -0.4615 0.874, -0.6977 0.4615 0.874
            ]
        }
        coordIndex [
            0,1,2,-1,2,1,3,-1,
        ]
    }
}
Shape{
    appearance Appearance {
        material  Material 	{
            diffuseColor 0.20784313725490197 0.20784313725490197 0.20784313725490197
            specularColor 0.01568627450980392 0.01568627450980392 0.01568627450980392
            ambientIntensity 0.298
            transparency 0.0
            shininess 0.5
        }
    }
    geometry IndexedFaceSet {
        ccw TRUE
        solid FALSE
        coord DEF co Coordinate {
            point [
                0.4724 -0.4615 0.0669, 0.4724 0.4615 0.0669, 0.4724 -0.4633 0.0866, 0.4724 0.4633 0.0866, -0.4724 -0.4633 0.0866, -0.4724 0.4633 0.0866, -0.4724 -0.4615 0.0669, -0.4724 0.4615 0.0669
            ]
        }
        coordIndex [
            0,1,2,-1,2,1,3,-1,4,5,6,-1,6,5,7,-1,
        ]
    }
}
Shape{
    appearance Appearance {
        material  Material 	{
            diffuseColor 0.6666666666666666 0.6666666666666666 0.6666666666666666
            specularColor 0.4666666666666667 0.4666666666666667 0.4666666666666667
            ambientIntensity 0.6667
            transparency 0.0
            shininess 0.5
        }
    }
    geometry IndexedFaceSet {
        ccw TRUE
        solid FALSE
        coord DEF co Coordinate {
            point [
                -0.8622 0.2717 0.4606, -0.8622 -0.2717 0.4606, -0.8602 0.2717 0.4606, -0.8602 -0.2717 0.4606, -0.5433 0.2717 0.0787, -0.8622 0.2717 0.0787, -0.5433 -0.2717 0.0787, -0.8622 -0.2717 0.0787, -0.5433 0.2717 0.0, -0.5433 -0.2717 0.0, -0.8622 0.2717 0.0, -0.8622 -0.2717 0.0, -0.8958 -0.2717 0.0044, -0.8958 0.2717 0.0044, -0.9272 -0.2717 0.0174, -0.9272 0.2717 0.0174, -0.9541 -0.2717 0.0381, -0.9541 0.2717 0.0381, -0.9747 -0.2717 0.065, -0.9747 0.2717 0.065, -0.9877 -0.2717 0.0963, -0.9877 0.2717 0.0963, -0.9921 -0.2717 0.1299, -0.9921 0.2717 0.1299, -0.9921 0.2717 0.3307, -0.9921 -0.2717 0.3307, -0.9877 -0.2717 0.3643, -0.9877 0.2717 0.3643, -0.9747 -0.2717 0.3957, -0.9747 0.2717 0.3957, -0.9541 -0.2717 0.4226, -0.9541 0.2717 0.4226, -0.9272 -0.2717 0.4432, -0.9272 0.2717 0.4432, -0.8958 -0.2717 0.4562, -0.8958 0.2717 0.4562, -0.8622 -0.2717 0.3819, -0.8622 0.2717 0.3819, -0.8533 -0.2717 0.3819, -0.8533 0.2717 0.3819, -0.8755 0.2717 0.3801, -0.8755 -0.2717 0.3801, -0.8878 0.2717 0.375, -0.8878 -0.2717 0.375, -0.8984 0.2717 0.3669, -0.8984 -0.2717 0.3669, -0.9065 0.2717 0.3563, -0.9065 -0.2717 0.3563, -0.9116 0.2717 0.344, -0.9116 -0.2717 0.344, -0.9134 0.2717 0.3307, -0.9134 -0.2717 0.3307, -0.9134 0.2717 0.1299, -0.9134 -0.2717 0.1299, -0.9116 0.2717 0.1167, -0.9116 -0.2717 0.1167, -0.9065 0.2717 0.1043, -0.9065 -0.2717 0.1043, -0.8984 0.2717 0.0937, -0.8984 -0.2717 0.0937, -0.8878 0.2717 0.0856, -0.8878 -0.2717 0.0856, -0.8755 0.2717 0.0805, -0.8755 -0.2717 0.0805, 0.8602 -0.2717 0.4606, 0.8622 -0.2717 0.4606, 0.8602 0.2717 0.4606, 0.8622 0.2717 0.4606, 0.8622 0.2717 0.0787, 0.5433 0.2717 0.0787, 0.8622 -0.2717 0.0787, 0.5433 -0.2717 0.0787, 0.8755 0.2717 0.0805, 0.8755 -0.2717 0.0805, 0.8878 0.2717 0.0856, 0.8878 -0.2717 0.0856, 0.8984 0.2717 0.0937, 0.8984 -0.2717 0.0937, 0.9065 0.2717 0.1043, 0.9065 -0.2717 0.1043, 0.9116 0.2717 0.1167, 0.9116 -0.2717 0.1167, 0.9134 0.2717 0.1299, 0.9134 -0.2717 0.1299, 0.9134 0.2717 0.3307, 0.9134 -0.2717 0.3307, 0.9116 0.2717 0.344, 0.9116 -0.2717 0.344, 0.9065 0.2717 0.3563, 0.9065 -0.2717 0.3563, 0.8984 0.2717 0.3669, 0.8984 -0.2717 0.3669, 0.8878 0.2717 0.375, 0.8878 -0.2717 0.375, 0.8755 0.2717 0.3801, 0.8755 -0.2717 0.3801, 0.8622 0.2717 0.3819, 0.8622 -0.2717 0.3819, 0.8533 0.2717 0.3819, 0.8533 -0.2717 0.3819, 0.8958 -0.2717 0.4562, 0.8958 0.2717 0.4562, 0.9272 -0.2717 0.4432, 0.9272 0.2717 0.4432, 0.9541 -0.2717 0.4226, 0.9541 0.2717 0.4226, 0.9747 -0.2717 0.3957, 0.9747 0.2717 0.3957, 0.9877 -0.2717 0.3643, 0.9877 0.2717 0.3643, 0.9921 -0.2717 0.3307, 0.9921 0.2717 0.3307, 0.9921 0.2717 0.1299, 0.9921 -0.2717 0.1299, 0.9877 -0.2717 0.0963, 0.9877 0.2717 0.0963, 0.9747 -0.2717 0.065, 0.9747 0.2717 0.065, 0.9541 -0.2717 0.0381, 0.9541 0.2717 0.0381, 0.9272 -0.2717 0.0174, 0.9272 0.2717 0.0174, 0.8958 -0.2717 0.0044, 0.8958 0.2717 0.0044, 0.8622 -0.2717 0.0, 0.8622 0.2717 0.0, 0.5433 0.2717 0.0, 0.5433 -0.2717 0.0
            ]
        }
        coordIndex [
            0,1,2,-1,2,1,3,-1,4,5,6,-1,6,5,7,-1,8,4,9,-1,9,4,6,-1,10,8,11,-1,11,8,9,-1,10,11,12,-1,10,12,13,-1,13,12,14,-1,13,14,15,-1,15,14,16,-1,15,16,17,-1,17,16,18,-1,17,18,19,-1,19,18,20,-1,19,20,21,-1,21,20,22,-1,21,22,23,-1,24,23,25,-1,25,23,22,-1,24,25,26,-1,24,26,27,-1,27,26,28,-1,27,28,29,-1,29,28,30,-1,29,30,31,-1,31,30,32,-1,31,32,33,-1,33,32,34,-1,33,34,35,-1,35,34,1,-1,35,1,0,-1,36,37,38,-1,38,37,39,-1,37,36,40,-1,40,36,41,-1,40,41,42,-1,42,41,43,-1,42,43,44,-1,44,43,45,-1,44,45,46,-1,46,45,47,-1,46,47,48,-1,48,47,49,-1,48,49,50,-1,50,49,51,-1,52,50,53,-1,53,50,51,-1,52,53,54,-1,54,53,55,-1,54,55,56,-1,56,55,57,-1,56,57,58,-1,58,57,59,-1,58,59,60,-1,60,59,61,-1,60,61,62,-1,62,61,63,-1,62,63,5,-1,5,63,7,-1,4,8,5,-1,5,8,10,-1,5,10,62,-1,62,10,13,-1,62,13,60,-1,60,13,15,-1,60,15,58,-1,58,15,17,-1,58,17,56,-1,56,17,19,-1,56,19,54,-1,54,19,21,-1,54,21,52,-1,52,21,23,-1,52,23,50,-1,50,23,24,-1,50,24,48,-1,48,24,27,-1,48,27,46,-1,46,27,29,-1,46,29,44,-1,44,29,31,-1,44,31,42,-1,42,31,33,-1,42,33,40,-1,40,33,35,-1,40,35,37,-1,37,35,0,-1,37,0,39,-1,39,0,2,-1,38,3,36,-1,36,3,1,-1,36,1,41,-1,41,1,34,-1,41,34,43,-1,43,34,32,-1,43,32,45,-1,45,32,30,-1,45,30,47,-1,47,30,28,-1,47,28,49,-1,49,28,26,-1,49,26,51,-1,51,26,25,-1,51,25,53,-1,53,25,22,-1,53,22,55,-1,55,22,20,-1,55,20,57,-1,57,20,18,-1,57,18,59,-1,59,18,16,-1,59,16,61,-1,61,16,14,-1,61,14,63,-1,63,14,12,-1,63,12,7,-1,7,12,11,-1,7,11,6,-1,6,11,9,-1,64,65,66,-1,66,65,67,-1,68,69,70,-1,70,69,71,-1,68,70,72,-1,72,70,73,-1,72,73,74,-1,74,73,75,-1,74,75,76,-1,76,75,77,-1,76,77,78,-1,78,77,79,-1,78,79,80,-1,80,79,81,-1,80,81,82,-1,82,81,83,-1,84,82,85,-1,85,82,83,-1,84,85,86,-1,86,85,87,-1,86,87,88,-1,88,87,89,-1,88,89,90,-1,90,89,91,-1,90,91,92,-1,92,91,93,-1,92,93,94,-1,94,93,95,-1,94,95,96,-1,96,95,97,-1,98,96,99,-1,99,96,97,-1,67,65,100,-1,67,100,101,-1,101,100,102,-1,101,102,103,-1,103,102,104,-1,103,104,105,-1,105,104,106,-1,105,106,107,-1,107,106,108,-1,107,108,109,-1,109,108,110,-1,109,110,111,-1,112,111,113,-1,113,111,110,-1,112,113,114,-1,112,114,115,-1,115,114,116,-1,115,116,117,-1,117,116,118,-1,117,118,119,-1,119,118,120,-1,119,120,121,-1,121,120,122,-1,121,122,123,-1,123,122,124,-1,123,124,125,-1,126,125,127,-1,127,125,124,-1,69,126,71,-1,71,126,127,-1,98,66,96,-1,96,66,67,-1,96,67,94,-1,94,67,101,-1,94,101,92,-1,92,101,103,-1,92,103,90,-1,90,103,105,-1,90,105,88,-1,88,105,107,-1,88,107,86,-1,86,107,109,-1,86,109,84,-1,84,109,111,-1,84,111,82,-1,82,111,112,-1,82,112,80,-1,80,112,115,-1,80,115,78,-1,78,115,117,-1,78,117,76,-1,76,117,119,-1,76,119,74,-1,74,119,121,-1,74,121,72,-1,72,121,123,-1,72,123,68,-1,68,123,125,-1,68,125,69,-1,69,125,126,-1,71,127,70,-1,70,127,124,-1,70,124,73,-1,73,124,122,-1,73,122,75,-1,75,122,120,-1,75,120,77,-1,77,120,118,-1,77,118,79,-1,79,118,116,-1,79,116,81,-1,81,116,114,-1,81,114,83,-1,83,114,113,-1,83,113,85,-1,85,113,110,-1,85,110,87,-1,87,110,108,-1,87,108,89,-1,89,108,106,-1,89,106,91,-1,91,106,104,-1,91,104,93,-1,93,104,102,-1,93,102,95,-1,95,102,100,-1,95,100,97,-1,97,100,65,-1,97,65,99,-1,99,65,64,-1,
        ]
    }
}
Shape{
    appearance Appearance {
        material  Material 	{
            diffuseColor 1.0 1.0 1.0
            specularColor 0.8784313725490196 0.8784313725490196 0.8784313725490196
            ambientIntensity 1.0
            transparency 0.0
            shininess 0.5
        }
    }
    geometry IndexedFaceSet {
        ccw TRUE
        solid FALSE
        coord DEF co Coordinate {
            point [
                -0.1335 0.0511 0.0551, -0.1642 -0.0276 0.0551, -0.1335 0.0511 0.0472, -0.1642 -0.0276 0.0472, -0.1527 -0.0276 0.0551, -0.1527 -0.0276 0.0472, -0.1447 -0.0055 0.0551, -0.1447 -0.0055 0.0472, -0.1122 -0.0055 0.0551, -0.1122 -0.0055 0.0472, -0.1047 -0.0276 0.0551, -0.1047 -0.0276 0.0472, -0.0931 -0.0276 0.0551, -0.0931 -0.0276 0.0472, -0.1229 0.0511 0.0551, -0.1229 0.0511 0.0472, -0.1148 0.0031 0.0551, -0.1412 0.0031 0.0551, -0.1266 0.036 0.0551, -0.1273 0.0387 0.0551, -0.1278 0.0415 0.0551, -0.1281 0.0415 0.0551, -0.1286 0.0387 0.0551, -0.1293 0.036 0.0551, -0.1148 0.0031 0.0472, -0.1412 0.0031 0.0472, -0.1266 0.036 0.0472, -0.1273 0.0387 0.0472, -0.1278 0.0415 0.0472, -0.1281 0.0415 0.0472, -0.1286 0.0387 0.0472, -0.1293 0.036 0.0472, -0.0454 -0.0276 0.0551, -0.024 -0.0276 0.0551, -0.0454 -0.0276 0.0472, -0.024 -0.0276 0.0472, -0.024 0.0511 0.0551, -0.024 0.0511 0.0472, -0.0462 0.0511 0.0551, -0.0462 0.0511 0.0472, -0.0874 0.0127 0.0551, -0.0874 0.0127 0.0472, -0.0868 0.0201 0.0472, -0.0868 0.0201 0.0551, -0.0847 0.0279 0.0472, -0.0847 0.0279 0.0551, -0.081 0.0347 0.0472, -0.081 0.0347 0.0551, -0.0755 0.0408 0.0472, -0.0755 0.0408 0.0551, -0.0754 0.0409 0.0472, -0.0754 0.0409 0.0551, -0.0668 0.0467 0.0472, -0.0668 0.0467 0.0551, -0.0576 0.0499 0.0472, -0.0576 0.0499 0.0551, -0.0552 -0.0268 0.0472, -0.0552 -0.0268 0.0551, -0.0642 -0.0241 0.0472, -0.0642 -0.0241 0.0551, -0.0725 -0.0193 0.0472, -0.0725 -0.0193 0.0551, -0.0789 -0.0131 0.0472, -0.0789 -0.0131 0.0551, -0.0835 -0.0061 0.0472, -0.0835 -0.0061 0.0551, -0.0863 0.0022 0.0472, -0.0863 0.0022 0.0551, -0.0716 0.0314 0.0551, -0.0678 0.0355 0.0551, -0.062 0.0392 0.0551, -0.0555 0.0415 0.0551, -0.0462 0.0425 0.0551, -0.0346 0.0425 0.0551, -0.0346 -0.019 0.0551, -0.0457 -0.019 0.0551, -0.0541 -0.0182 0.0551, -0.0607 -0.0162 0.0551, -0.066 -0.013 0.0551, -0.0705 -0.0086 0.0551, -0.0738 -0.0032 0.0551, -0.0761 0.0042 0.0551, -0.0768 0.0125 0.0551, -0.0762 0.0203 0.0551, -0.0743 0.0266 0.0551, -0.0462 0.0425 0.0472, -0.0346 0.0425 0.0472, -0.0555 0.0415 0.0472, -0.062 0.0392 0.0472, -0.0678 0.0355 0.0472, -0.0716 0.0314 0.0472, -0.0743 0.0266 0.0472, -0.0762 0.0203 0.0472, -0.0768 0.0125 0.0472, -0.0761 0.0042 0.0472, -0.0738 -0.0032 0.0472, -0.0705 -0.0086 0.0472, -0.066 -0.013 0.0472, -0.0607 -0.0162 0.0472, -0.0541 -0.0182 0.0472, -0.0457 -0.019 0.0472, -0.0346 -0.019 0.0472, -0.0086 -0.019 0.0551, -0.0086 -0.0276 0.0551, -0.0086 -0.019 0.0472, -0.0086 -0.0276 0.0472, 0.0336 -0.0276 0.0551, 0.0336 -0.0276 0.0472, 0.0336 0.0511 0.0551, 0.0336 0.0511 0.0472, -0.0067 0.0511 0.0551, -0.0067 0.0511 0.0472, -0.0067 0.0425 0.0551, -0.0067 0.0425 0.0472, 0.023 0.0425 0.0551, 0.023 0.0425 0.0472, 0.023 0.0165 0.0551, 0.023 0.0165 0.0472, -0.0048 0.0165 0.0551, -0.0048 0.0165 0.0472, -0.0048 0.0079 0.0551, -0.0048 0.0079 0.0472, 0.023 0.0079 0.0551, 0.023 0.0079 0.0472, 0.023 -0.019 0.0551, 0.023 -0.019 0.0472, 0.049 -0.0149 0.0551, 0.049 -0.0236 0.0551, 0.049 -0.0149 0.0472, 0.049 -0.0236 0.0472, 0.0706 -0.0286 0.0551, 0.0706 -0.0286 0.0472, 0.0685 -0.0286 0.0472, 0.0685 -0.0286 0.0551, 0.0574 -0.027 0.0472, 0.0574 -0.027 0.0551, 0.1075 0.0103 0.0551, 0.1075 0.0103 0.0472, 0.1068 0.0011 0.0472, 0.1068 0.0011 0.0551, 0.1044 -0.0072 0.0472, 0.1044 -0.0072 0.0551, 0.1002 -0.0147 0.0472, 0.1002 -0.0147 0.0551, 0.0943 -0.0209 0.0472, 0.0943 -0.0209 0.0551, 0.088 -0.025 0.0472, 0.088 -0.025 0.0551, 0.0803 -0.0276 0.0472, 0.0803 -0.0276 0.0551, 0.0675 0.0521 0.0472, 0.0734 0.0516 0.0472, 0.0675 0.0521 0.0551, 0.0754 0.0514 0.0551, 0.0754 0.0514 0.0472, 0.0842 0.0489 0.0472, 0.0842 0.0489 0.0551, 0.0917 0.0446 0.0472, 0.0917 0.0446 0.0551, 0.0988 0.0377 0.0472, 0.0988 0.0377 0.0551, 0.1034 0.0304 0.0472, 0.1034 0.0304 0.0551, 0.1064 0.0214 0.0472, 0.1064 0.0214 0.0551, 0.0605 0.0516 0.0472, 0.0581 0.0514 0.0551, 0.0581 0.0514 0.0472, 0.049 0.0489 0.0551, 0.049 0.0489 0.0472, 0.049 0.0384 0.0551, 0.049 0.0384 0.0472, 0.0674 0.0434 0.0551, 0.0674 0.0434 0.0472, 0.0578 0.0422 0.0472, 0.0578 0.0422 0.0551, 0.097 0.0109 0.0551, 0.097 0.0109 0.0472, 0.0966 0.017 0.0472, 0.0966 0.017 0.0551, 0.0945 0.0255 0.0472, 0.0945 0.0255 0.0551, 0.0913 0.0315 0.0472, 0.0913 0.0315 0.0551, 0.0865 0.0368 0.0472, 0.0865 0.0368 0.0551, 0.0811 0.0404 0.0472, 0.0811 0.0404 0.0551, 0.0752 0.0426 0.0472, 0.0752 0.0426 0.0551, 0.0692 -0.02 0.0551, 0.0692 -0.02 0.0472, 0.0765 -0.0191 0.0472, 0.0765 -0.0191 0.0551, 0.0823 -0.017 0.0472, 0.0823 -0.017 0.0551, 0.0871 -0.0138 0.0472, 0.0871 -0.0138 0.0551, 0.0908 -0.0099 0.0472, 0.0908 -0.0099 0.0551, 0.094 -0.0044 0.0472, 0.094 -0.0044 0.0551, 0.0962 0.0024 0.0472, 0.0962 0.0024 0.0551, 0.0504 -0.0157 0.0472, 0.0504 -0.0157 0.0551, 0.0587 -0.0188 0.0472, 0.0587 -0.0188 0.0551, 0.1143 -0.019 0.0551, 0.1143 -0.0276 0.0551, 0.1143 -0.019 0.0472, 0.1143 -0.0276 0.0472, 0.1546 -0.0276 0.0551, 0.1546 -0.0276 0.0472, 0.1546 0.0511 0.0551, 0.1546 0.0511 0.0472, 0.144 0.0511 0.0551, 0.144 0.0511 0.0472, 0.144 -0.019 0.0551, 0.144 -0.019 0.0472
            ]
        }
        coordIndex [
            0,1,2,-1,2,1,3,-1,1,4,3,-1,3,4,5,-1,4,6,5,-1,5,6,7,-1,6,8,7,-1,7,8,9,-1,8,10,9,-1,9,10,11,-1,10,12,11,-1,11,12,13,-1,12,14,13,-1,13,14,15,-1,14,0,15,-1,15,0,2,-1,16,8,17,-1,17,8,6,-1,18,14,16,-1,16,14,12,-1,16,12,8,-1,8,12,10,-1,18,19,14,-1,14,19,20,-1,14,20,0,-1,0,20,21,-1,0,21,22,-1,22,23,0,-1,0,23,17,-1,0,17,1,-1,1,17,6,-1,1,6,4,-1,16,17,24,-1,24,17,25,-1,18,16,26,-1,26,16,24,-1,18,26,27,-1,18,27,19,-1,19,27,28,-1,19,28,20,-1,21,20,29,-1,29,20,28,-1,21,29,30,-1,21,30,22,-1,22,30,31,-1,22,31,23,-1,17,23,25,-1,25,23,31,-1,32,33,34,-1,34,33,35,-1,33,36,35,-1,35,36,37,-1,36,38,37,-1,37,38,39,-1,40,41,42,-1,40,42,43,-1,43,42,44,-1,43,44,45,-1,45,44,46,-1,45,46,47,-1,47,46,48,-1,47,48,49,-1,49,48,50,-1,49,50,51,-1,51,50,52,-1,51,52,53,-1,53,52,54,-1,53,54,55,-1,55,54,39,-1,55,39,38,-1,32,34,56,-1,32,56,57,-1,57,56,58,-1,57,58,59,-1,59,58,60,-1,59,60,61,-1,61,60,62,-1,61,62,63,-1,63,62,64,-1,63,64,65,-1,65,64,66,-1,65,66,67,-1,67,66,41,-1,67,41,40,-1,45,47,68,-1,68,47,49,-1,68,49,69,-1,69,49,51,-1,69,51,70,-1,70,51,53,-1,70,53,71,-1,71,53,55,-1,71,55,72,-1,72,55,38,-1,72,38,73,-1,73,38,36,-1,73,36,74,-1,74,36,33,-1,74,33,75,-1,75,33,32,-1,75,32,76,-1,76,32,57,-1,76,57,77,-1,77,57,59,-1,77,59,78,-1,78,59,61,-1,78,61,79,-1,79,61,63,-1,79,63,80,-1,80,63,65,-1,80,65,81,-1,81,65,67,-1,81,67,82,-1,82,67,40,-1,82,40,83,-1,83,40,43,-1,83,43,84,-1,84,43,45,-1,84,45,68,-1,72,73,85,-1,85,73,86,-1,72,85,87,-1,72,87,71,-1,71,87,88,-1,71,88,70,-1,70,88,89,-1,70,89,69,-1,69,89,90,-1,69,90,68,-1,68,90,91,-1,68,91,84,-1,84,91,92,-1,84,92,83,-1,83,92,93,-1,83,93,82,-1,82,93,94,-1,82,94,81,-1,81,94,95,-1,81,95,80,-1,80,95,96,-1,80,96,79,-1,79,96,97,-1,79,97,78,-1,78,97,98,-1,78,98,77,-1,77,98,99,-1,77,99,76,-1,76,99,100,-1,76,100,75,-1,74,75,101,-1,101,75,100,-1,73,74,86,-1,86,74,101,-1,102,103,104,-1,104,103,105,-1,103,106,105,-1,105,106,107,-1,106,108,107,-1,107,108,109,-1,108,110,109,-1,109,110,111,-1,110,112,111,-1,111,112,113,-1,112,114,113,-1,113,114,115,-1,114,116,115,-1,115,116,117,-1,116,118,117,-1,117,118,119,-1,118,120,119,-1,119,120,121,-1,120,122,121,-1,121,122,123,-1,122,124,123,-1,123,124,125,-1,124,102,125,-1,125,102,104,-1,106,103,102,-1,102,124,106,-1,106,124,122,-1,106,122,108,-1,112,110,114,-1,114,110,108,-1,114,108,116,-1,116,108,122,-1,116,122,118,-1,118,122,120,-1,126,127,128,-1,128,127,129,-1,130,131,132,-1,130,132,133,-1,133,132,134,-1,133,134,135,-1,135,134,129,-1,135,129,127,-1,136,137,138,-1,136,138,139,-1,139,138,140,-1,139,140,141,-1,141,140,142,-1,141,142,143,-1,143,142,144,-1,143,144,145,-1,145,144,146,-1,145,146,147,-1,147,146,148,-1,147,148,149,-1,149,148,131,-1,149,131,130,-1,150,151,152,-1,152,151,153,-1,151,154,153,-1,153,154,155,-1,153,155,156,-1,156,155,157,-1,156,157,158,-1,158,157,159,-1,158,159,160,-1,160,159,161,-1,160,161,162,-1,162,161,163,-1,162,163,164,-1,164,163,137,-1,164,137,136,-1,150,152,165,-1,165,152,166,-1,165,166,167,-1,167,166,168,-1,167,168,169,-1,168,170,169,-1,169,170,171,-1,172,173,174,-1,172,174,175,-1,175,174,171,-1,175,171,170,-1,176,177,178,-1,176,178,179,-1,179,178,180,-1,179,180,181,-1,181,180,182,-1,181,182,183,-1,183,182,184,-1,183,184,185,-1,185,184,186,-1,185,186,187,-1,187,186,188,-1,187,188,189,-1,189,188,173,-1,189,173,172,-1,190,191,192,-1,190,192,193,-1,193,192,194,-1,193,194,195,-1,195,194,196,-1,195,196,197,-1,197,196,198,-1,197,198,199,-1,199,198,200,-1,199,200,201,-1,201,200,202,-1,201,202,203,-1,203,202,177,-1,203,177,176,-1,126,128,204,-1,126,204,205,-1,205,204,206,-1,205,206,207,-1,207,206,191,-1,207,191,190,-1,193,130,190,-1,190,130,133,-1,190,133,207,-1,207,133,135,-1,207,135,205,-1,205,135,127,-1,205,127,126,-1,170,168,175,-1,175,168,166,-1,175,166,172,-1,172,166,152,-1,172,152,189,-1,189,152,153,-1,189,153,187,-1,187,153,156,-1,187,156,185,-1,185,156,158,-1,185,158,183,-1,183,158,160,-1,183,160,181,-1,181,160,162,-1,181,162,179,-1,179,162,164,-1,179,164,176,-1,176,164,136,-1,176,136,203,-1,203,136,139,-1,203,139,201,-1,201,139,141,-1,201,141,199,-1,199,141,143,-1,199,143,197,-1,197,143,145,-1,197,145,195,-1,195,145,147,-1,195,147,193,-1,193,147,149,-1,193,149,130,-1,208,209,210,-1,210,209,211,-1,209,212,211,-1,211,212,213,-1,212,214,213,-1,213,214,215,-1,214,216,215,-1,215,216,217,-1,216,218,217,-1,217,218,219,-1,218,208,219,-1,219,208,210,-1,216,214,218,-1,218,214,212,-1,218,212,208,-1,208,212,209,-1,
        ]
    }
}
Shape{
    appearance Appearance {
        material  Material 	{
            diffuseColor 0.20784313725490197 0.20784313725490197 0.20784313725490197
            specularColor 0.01568627450980392 0.01568627450980392 0.01568627450980392
            ambientIntensity 0.298
            transparency 0.0
            shininess 0.5
        }
    }
    geometry IndexedFaceSet {
        ccw TRUE
        solid FALSE
        coord DEF co Coordinate {
            point [
                -0.1148 0.0031 0.0472, -0.1412 0.0031 0.0472, -0.1266 0.036 0.0472, -0.1293 0.036 0.0472, -0.1273 0.0387 0.0472, -0.1286 0.0387 0.0472, -0.1278 0.0415 0.0472, -0.1281 0.0415 0.0472, -0.0346 0.0425 0.0472, -0.0346 -0.019 0.0472, -0.0462 0.0425 0.0472, -0.0457 -0.019 0.0472, -0.0541 -0.0182 0.0472, -0.0768 0.0125 0.0472, -0.0762 0.0203 0.0472, -0.0743 0.0266 0.0472, -0.0555 0.0415 0.0472, -0.0607 -0.0162 0.0472, -0.066 -0.013 0.0472, -0.0705 -0.0086 0.0472, -0.0738 -0.0032 0.0472, -0.0761 0.0042 0.0472, -0.0716 0.0314 0.0472, -0.0678 0.0355 0.0472, -0.062 0.0392 0.0472, -0.8406 0.5157 0.4606, -0.8112 0.4863 0.1243, -0.8155 0.4857 0.1239, -0.8457 0.5151 0.4606, -0.8163 0.4856 0.1239, -0.8481 0.5143 0.4606, -0.8196 0.4842 0.1237, -0.8504 0.5131 0.4606, -0.821 0.4836 0.1236, -0.8526 0.5117 0.4606, -0.8233 0.4819 0.1236, -0.8545 0.51 0.4606, -0.825 0.4805 0.1236, -0.8562 0.5081 0.4606, -0.8263 0.4788 0.1236, -0.8576 0.506 0.4606, -0.8281 0.4765 0.1236, -0.8587 0.5037 0.4606, -0.8287 0.4751 0.1237, -0.8596 0.5012 0.4606, -0.8301 0.4718 0.1239, -0.8602 0.4961 0.4606, -0.8302 0.4711 0.1239, -0.8308 0.4667 0.1243, -0.8256 0.4615 0.856, -0.825 0.4659 0.8564, -0.8249 0.4666 0.8564, -0.8235 0.47 0.8566, -0.823 0.4713 0.8567, -0.8212 0.4736 0.8567, -0.8198 0.4754 0.8567, -0.8181 0.4767 0.8567, -0.8158 0.4785 0.8567, -0.8145 0.479 0.8566, -0.8111 0.4805 0.8564, -0.8104 0.4806 0.8564, -0.806 0.4812 0.856, 0.8602 0.4961 0.4606, 0.8308 0.4667 0.1243, 0.8302 0.4711 0.1239, 0.8596 0.5012 0.4606, 0.8301 0.4718 0.1239, 0.8587 0.5037 0.4606, 0.8287 0.4751 0.1237, 0.8576 0.506 0.4606, 0.8281 0.4765 0.1236, 0.8562 0.5081 0.4606, 0.8263 0.4788 0.1236, 0.8545 0.51 0.4606, 0.825 0.4805 0.1236, 0.8526 0.5117 0.4606, 0.8233 0.4819 0.1236, 0.8504 0.5131 0.4606, 0.821 0.4836 0.1236, 0.8481 0.5143 0.4606, 0.8196 0.4842 0.1237, 0.8457 0.5151 0.4606, 0.8163 0.4856 0.1239, 0.8406 0.5157 0.4606, 0.8155 0.4857 0.1239, 0.8112 0.4863 0.1243, 0.806 0.4812 0.856, 0.8111 0.4805 0.8564, 0.8111 0.4804 0.8564, 0.8158 0.4785 0.8567, 0.8158 0.4785 0.8567, 0.8198 0.4754 0.8567, 0.823 0.4713 0.8567, 0.823 0.4713 0.8567, 0.8249 0.4666 0.8564, 0.8249 0.4666 0.8564, 0.8256 0.4615 0.856, 0.8256 -0.4615 0.856, 0.8249 -0.4666 0.8564, 0.8602 -0.4961 0.4606, 0.8596 -0.5012 0.4606, 0.8587 -0.5037 0.4606, 0.8249 -0.4666 0.8564, 0.8576 -0.506 0.4606, 0.823 -0.4713 0.8567, 0.8562 -0.5081 0.4606, 0.823 -0.4713 0.8567, 0.8545 -0.51 0.4606, 0.8198 -0.4754 0.8567, 0.8526 -0.5117 0.4606, 0.8158 -0.4785 0.8567, 0.8504 -0.5131 0.4606, 0.8158 -0.4785 0.8567, 0.8481 -0.5143 0.4606, 0.8111 -0.4804 0.8564, 0.8457 -0.5151 0.4606, 0.8111 -0.4805 0.8564, 0.806 -0.4812 0.856, 0.8406 -0.5157 0.4606, 0.8112 -0.4863 0.1243, 0.8163 -0.4856 0.1239, 0.8163 -0.4856 0.1239, 0.821 -0.4836 0.1236, 0.821 -0.4836 0.1236, 0.825 -0.4805 0.1236, 0.8281 -0.4765 0.1236, 0.8281 -0.4765 0.1236, 0.8301 -0.4718 0.1239, 0.8301 -0.4718 0.1239, 0.8308 -0.4667 0.1243, -0.8406 -0.5157 0.4606, -0.806 -0.4812 0.856, -0.8104 -0.4806 0.8564, -0.8457 -0.5151 0.4606, -0.8111 -0.4805 0.8564, -0.8481 -0.5143 0.4606, -0.8145 -0.479 0.8566, -0.8504 -0.5131 0.4606, -0.8158 -0.4785 0.8567, -0.8526 -0.5117 0.4606, -0.8181 -0.4767 0.8567, -0.8545 -0.51 0.4606, -0.8198 -0.4754 0.8567, -0.8562 -0.5081 0.4606, -0.8212 -0.4736 0.8567, -0.8576 -0.506 0.4606, -0.823 -0.4713 0.8567, -0.8587 -0.5037 0.4606, -0.8235 -0.47 0.8566, -0.8596 -0.5012 0.4606, -0.8249 -0.4666 0.8564, -0.8602 -0.4961 0.4606, -0.825 -0.4659 0.8564, -0.8256 -0.4615 0.856, -0.8308 -0.4667 0.1243, -0.8301 -0.4718 0.1239, -0.8301 -0.4718 0.1239, -0.8281 -0.4765 0.1236, -0.8281 -0.4765 0.1236, -0.825 -0.4805 0.1236, -0.821 -0.4836 0.1236, -0.821 -0.4836 0.1236, -0.8163 -0.4856 0.1239, -0.8163 -0.4856 0.1239, -0.8112 -0.4863 0.1243, -0.4724 -0.4633 0.0866, -0.4731 -0.4642 0.0917, -0.4724 0.4633 0.0866, -0.4731 0.4642 0.0917, -0.4731 0.4642 0.0917, -0.4731 -0.4642 0.0917, -0.4751 0.465 0.0965, -0.4751 -0.465 0.0965, -0.4751 0.465 0.0965, -0.4751 -0.465 0.0965, -0.4782 0.4657 0.1005, -0.4823 -0.4662 0.1037, -0.4782 0.4657 0.1006, -0.4782 -0.4657 0.1006, -0.4782 -0.4657 0.1005, -0.4921 -0.4667 0.1063, -0.4921 0.4667 0.1063, -0.487 -0.4666 0.1056, -0.487 0.4666 0.1056, -0.487 -0.4666 0.1056, -0.487 0.4666 0.1056, -0.4823 -0.4663 0.1037, -0.4823 0.4663 0.1037, -0.4823 0.4662 0.1037, -0.4724 0.4615 0.0669, -0.4718 0.4615 0.0618, -0.4724 -0.4615 0.0669, -0.4718 -0.4615 0.0618, -0.4718 -0.4615 0.0618, -0.4718 0.4615 0.0618, -0.4698 -0.4615 0.0571, -0.4698 0.4615 0.0571, -0.4667 0.4615 0.053, -0.4667 -0.4615 0.053, -0.4666 -0.4615 0.053, -0.4666 0.4615 0.053, -0.4626 -0.4615 0.0499, -0.4626 0.4615 0.0499, -0.4579 0.4615 0.0479, -0.4579 -0.4615 0.0479, -0.4528 0.4615 0.0472, -0.4528 0.0516 0.0472, -0.4578 0.4615 0.0479, -0.4578 -0.4615 0.0479, -0.4528 -0.4615 0.0472, 0.4719 0.4615 0.0625, 0.4719 0.4615 0.0625, 0.4719 -0.4615 0.0625, 0.4724 0.4615 0.0669, 0.4724 -0.4615 0.0669, 0.4705 0.4615 0.0584, 0.4717 -0.4615 0.0618, 0.4705 -0.4615 0.0584, 0.4697 -0.4615 0.0571, 0.4681 0.4615 0.0547, 0.4705 0.4615 0.0584, 0.4681 -0.4615 0.0547, 0.4666 -0.4615 0.0531, 0.465 0.4615 0.0515, 0.465 -0.4615 0.0515, 0.465 0.4615 0.0515, 0.4625 -0.4615 0.05, 0.4613 0.4615 0.0492, 0.4613 -0.4615 0.0492, 0.4578 -0.4615 0.048, 0.4571 0.4615 0.0477, 0.4571 -0.4615 0.0477, 0.4528 -0.4615 0.0472, 0.4528 0.0516 0.0472, 0.4571 0.4615 0.0477, 0.4528 0.4615 0.0472, 0.4921 0.4667 0.1063, 0.4921 -0.4667 0.1063, 0.487 0.4666 0.1056, 0.487 -0.4666 0.1056, 0.487 0.4666 0.1056, 0.487 -0.4666 0.1056, 0.4823 0.4663 0.1037, 0.4823 -0.4663 0.1037, 0.4823 0.4662 0.1037, 0.4823 -0.4662 0.1037, 0.4782 -0.4657 0.1006, 0.4782 0.4657 0.1006, 0.4782 -0.4657 0.1005, 0.4782 0.4657 0.1005, 0.4751 0.465 0.0965, 0.4751 -0.465 0.0965, 0.4751 0.465 0.0965, 0.4751 -0.465 0.0965, 0.4731 0.4642 0.0917, 0.4731 -0.4642 0.0917, 0.4731 0.4642 0.0917, 0.4731 -0.4642 0.0917, 0.4724 -0.4633 0.0866, 0.4724 0.4633 0.0866, -0.8276 -0.4667 0.1152, -0.8246 -0.4667 0.1115, -0.8241 -0.4702 0.1115, -0.8203 -0.4691 0.1087, -0.8159 -0.468 0.1069, -0.8154 -0.4691 0.1069, -0.8112 -0.4667 0.1063, -0.8136 -0.4709 0.1069, -0.8146 -0.4701 0.1069, -0.8125 -0.4714 0.1069, -0.816 -0.4667 0.1069, -0.8292 -0.4715 0.1197, -0.8273 -0.476 0.1197, -0.8244 -0.4799 0.1197, -0.8205 -0.4829 0.1197, -0.816 -0.4847 0.1197, -0.8112 -0.4854 0.1197, -0.8112 -0.4715 0.1069, -0.8245 -0.4667 0.1115, -0.8206 -0.4667 0.1087, -0.8205 -0.4667 0.1087, -0.816 -0.4667 0.1069, -0.8193 -0.4714 0.1087, -0.8178 -0.4734 0.1087, -0.8159 -0.4748 0.1087, -0.8136 -0.4758 0.1087, -0.8112 -0.4716 0.1069, -0.8112 -0.4761 0.1087, -0.8112 -0.4761 0.1087, -0.8112 -0.48 0.1115, -0.8228 -0.4734 0.1115, -0.8206 -0.4762 0.1115, -0.8179 -0.4783 0.1115, -0.8147 -0.4796 0.1115, -0.8298 -0.4667 0.1195, -0.8277 -0.4667 0.1153, -0.8271 -0.471 0.1153, -0.8255 -0.475 0.1153, -0.8229 -0.4784 0.1153, -0.8195 -0.481 0.1153, -0.8155 -0.4827 0.1153, -0.8298 -0.4667 0.1197, -0.8112 -0.4801 0.1115, -0.8112 -0.4831 0.1152, -0.8112 -0.4832 0.1153, -0.8112 -0.4853 0.1195, -0.8112 0.4667 0.1063, -0.8298 0.4667 0.1197, -0.8298 0.4667 0.1195, -0.8277 0.4667 0.1153, -0.8276 0.4667 0.1152, -0.8246 0.4667 0.1115, -0.8245 0.4667 0.1115, -0.8206 0.4667 0.1087, -0.8205 0.4667 0.1087, -0.816 0.4667 0.1069, -0.816 0.4667 0.1069, -0.4921 -0.4715 0.1069, -0.4921 -0.4761 0.1087, -0.4921 -0.48 0.1115, -0.4921 -0.4832 0.1152, -0.4921 -0.4853 0.1195, -0.4921 -0.4863 0.1243, -0.8112 0.4853 0.1195, -0.8112 0.4832 0.1153, -0.8149 0.4828 0.1153, -0.8112 0.4831 0.1152, -0.8112 0.4801 0.1115, -0.8142 0.4797 0.1115, -0.8133 0.4759 0.1087, -0.8123 0.4714 0.1069, -0.8133 0.4711 0.1069, -0.8156 0.4688 0.1069, -0.815 0.4697 0.1069, -0.8159 0.4678 0.1069, -0.8112 0.4715 0.1069, -0.8153 0.4849 0.1197, -0.8193 0.4835 0.1197, -0.8228 0.4813 0.1197, -0.8258 0.4783 0.1197, -0.828 0.4748 0.1197, -0.8294 0.4709 0.1197, -0.8112 0.48 0.1115, -0.8112 0.4761 0.1087, -0.8112 0.4761 0.1087, -0.8112 0.4716 0.1069, -0.8171 0.4741 0.1087, -0.8185 0.4726 0.1087, -0.8197 0.4708 0.1087, -0.8204 0.4688 0.1087, -0.8153 0.4752 0.1087, -0.8142 0.4705 0.1069, -0.817 0.4787 0.1115, -0.8195 0.4772 0.1115, -0.8216 0.475 0.1115, -0.8232 0.4725 0.1115, -0.8242 0.4697 0.1115, -0.8184 0.4816 0.1153, -0.8215 0.4796 0.1153, -0.8241 0.477 0.1153, -0.8261 0.4739 0.1153, -0.8273 0.4704 0.1153, -0.8112 0.4854 0.1197, -0.4862 -0.476 0.1079, -0.4844 -0.4831 0.1141, -0.4832 -0.4852 0.1183, -0.4818 -0.4711 0.1041, -0.4868 -0.4714 0.1062, -0.4776 -0.4706 0.1008, -0.4744 -0.4699 0.0965, -0.4724 -0.4692 0.0915, -0.4854 -0.4799 0.1106, -0.4808 -0.4757 0.1055, -0.4792 -0.4796 0.1079, -0.4761 -0.4752 0.1019, -0.4739 -0.4792 0.1038, -0.4726 -0.4746 0.0971, -0.4699 -0.4786 0.0983, -0.4704 -0.4738 0.0916, -0.4674 -0.4779 0.0921, -0.4772 -0.4828 0.1111, -0.4749 -0.4849 0.1149, -0.4711 -0.4823 0.1063, -0.4678 -0.4844 0.1094, -0.4664 -0.4817 0.1001, -0.4624 -0.4838 0.1022, -0.4635 -0.481 0.0928, -0.459 -0.483 0.0939, -0.4719 -0.4676 0.0862, -0.4718 -0.4683 0.0862, -0.4704 -0.4717 0.0859, -0.4698 -0.4731 0.0858, -0.468 -0.4754 0.0856, -0.4667 -0.4771 0.0854, -0.4649 -0.4785 0.0853, -0.4626 -0.4802 0.0851, -0.4612 -0.4808 0.0851, -0.4579 -0.4822 0.085, -0.4571 -0.4823 0.0849, -0.482 -0.4862 0.1229, -0.4725 -0.4859 0.119, -0.4643 -0.4853 0.1128, -0.4581 -0.4846 0.1046, -0.4541 -0.4838 0.0951, -0.4528 -0.4829 0.0849, -0.4921 0.4761 0.1087, -0.4921 0.4715 0.1069, -0.4921 0.48 0.1115, -0.4921 0.4832 0.1152, -0.4921 0.4853 0.1195, -0.4921 0.4863 0.1243, -0.4528 -0.4812 0.0652, -0.4571 -0.4807 0.0653, -0.4572 -0.4807 0.0653, -0.4613 -0.4792 0.0654, -0.4613 -0.4792 0.0654, -0.465 -0.4769 0.0656, -0.4651 -0.4768 0.0656, -0.4681 -0.4738 0.0659, -0.4682 -0.4737 0.0659, -0.4705 -0.47 0.0662, -0.4705 -0.4699 0.0662, -0.4719 -0.4659 0.0665, -0.472 -0.4658 0.0666, -0.4868 0.4714 0.1062, -0.4818 0.4711 0.1041, -0.4776 0.4706 0.1008, -0.4744 0.4699 0.0965, -0.4724 0.4692 0.0915, -0.4541 0.4838 0.0951, -0.4528 0.4829 0.0849, -0.459 0.483 0.0939, -0.4579 0.4822 0.085, -0.4635 0.481 0.0928, -0.4626 0.4802 0.0851, -0.4674 0.4779 0.0921, -0.4667 0.4771 0.0854, -0.4704 0.4738 0.0916, -0.4698 0.4731 0.0858, -0.4718 0.4683 0.0862, -0.4581 0.4846 0.1046, -0.4624 0.4838 0.1022, -0.4664 0.4817 0.1001, -0.4699 0.4786 0.0983, -0.4726 0.4746 0.0971, -0.4643 0.4853 0.1128, -0.4678 0.4844 0.1094, -0.4711 0.4823 0.1063, -0.4739 0.4792 0.1038, -0.4761 0.4752 0.1019, -0.4725 0.4859 0.119, -0.4749 0.4849 0.1149, -0.4772 0.4828 0.1111, -0.4792 0.4796 0.1079, -0.4808 0.4757 0.1055, -0.482 0.4862 0.1229, -0.4832 0.4852 0.1183, -0.4844 0.4831 0.1141, -0.4854 0.4799 0.1106, -0.4862 0.476 0.1079, -0.455 -0.4785 0.0571, -0.4539 -0.4803 0.061, -0.455 -0.4803 0.0615, -0.457 -0.4806 0.0641, -0.4566 -0.4805 0.0631, -0.4577 -0.4641 0.0481, -0.4624 -0.4643 0.05, -0.4664 -0.4646 0.053, -0.4694 -0.4649 0.057, -0.4713 -0.4653 0.0616, -0.4528 -0.4779 0.0562, -0.4528 -0.4784 0.0568, -0.4528 -0.4801 0.0605, -0.4528 -0.4803 0.0609, -0.4571 -0.4785 0.058, -0.4559 -0.4804 0.0622, -0.4588 -0.4787 0.0593, -0.4602 -0.4788 0.0611, -0.4611 -0.479 0.0632, -0.4559 -0.4758 0.0537, -0.4589 -0.4759 0.0549, -0.4615 -0.4761 0.0569, -0.4634 -0.4763 0.0594, -0.4647 -0.4765 0.0624, -0.4528 -0.4708 0.0497, -0.4528 -0.4723 0.0505, -0.4568 -0.4724 0.051, -0.4528 -0.4748 0.0525, -0.4677 -0.4733 0.0619, -0.4661 -0.473 0.0582, -0.4637 -0.4727 0.055, -0.4605 -0.4725 0.0525, -0.4528 -0.4758 0.0533, -0.4528 -0.4663 0.048, -0.4528 -0.4684 0.0485, -0.4574 -0.4684 0.0491, -0.4617 -0.4686 0.0508, -0.4653 -0.4688 0.0537, -0.4682 -0.4692 0.0573, -0.4699 -0.4695 0.0616, -0.4528 -0.4641 0.0474, -0.4528 0.4812 0.0652, -0.4572 0.4807 0.0653, -0.4578 0.4804 0.0653, -0.4613 0.4792 0.0654, -0.4625 0.4784 0.0655, -0.4651 0.4768 0.0656, -0.4666 0.4753 0.0657, -0.4682 0.4737 0.0659, -0.4697 0.4713 0.0661, -0.4705 0.4699 0.0662, -0.472 0.4658 0.0666, -0.4717 0.4666 0.0665, -0.0163 -0.4615 0.0472, 0.4528 -0.4641 0.0474, 0.4528 -0.4812 0.0652, 0.4528 -0.4803 0.0609, 0.4528 -0.4801 0.0605, 0.4528 -0.4784 0.0568, 0.4528 -0.4779 0.0562, 0.4528 -0.4758 0.0533, 0.4528 -0.4748 0.0525, 0.4528 -0.4723 0.0505, 0.4528 -0.4708 0.0497, 0.4528 -0.4684 0.0485, 0.4528 -0.4663 0.048, -0.4611 0.479 0.0632, -0.457 0.4806 0.0641, -0.4566 0.4805 0.0631, -0.4713 0.4653 0.0616, -0.4694 0.4649 0.057, -0.4664 0.4646 0.053, -0.4624 0.4643 0.05, -0.4577 0.4641 0.0481, -0.4528 0.4641 0.0474, -0.4528 0.4803 0.0609, -0.4539 0.4803 0.061, -0.4528 0.4801 0.0605, -0.455 0.4803 0.0615, -0.4602 0.4788 0.0611, -0.4559 0.4804 0.0622, -0.4588 0.4787 0.0593, -0.4571 0.4785 0.058, -0.455 0.4785 0.0571, -0.4647 0.4765 0.0624, -0.4634 0.4763 0.0594, -0.4615 0.4761 0.0569, -0.4589 0.4759 0.0549, -0.4559 0.4758 0.0537, -0.4677 0.4733 0.0619, -0.4528 0.4784 0.0568, -0.4528 0.4779 0.0562, -0.4528 0.4758 0.0533, -0.4528 0.4748 0.0525, -0.4661 0.473 0.0582, -0.4637 0.4727 0.055, -0.4605 0.4725 0.0525, -0.4568 0.4724 0.051, -0.4699 0.4695 0.0616, -0.4682 0.4692 0.0573, -0.4653 0.4688 0.0537, -0.4617 0.4686 0.0508, -0.4574 0.4684 0.0491, -0.4528 0.4723 0.0505, -0.4528 0.4708 0.0497, -0.4528 0.4684 0.0485, -0.4528 0.4663 0.048, 0.4611 -0.479 0.0632, 0.457 -0.4806 0.0641, 0.4566 -0.4805 0.0631, 0.4572 -0.4807 0.0653, 0.4664 -0.4646 0.053, 0.4713 -0.4653 0.0616, 0.4694 -0.4649 0.057, 0.4624 -0.4643 0.05, 0.4577 -0.4641 0.0481, 0.4539 -0.4803 0.061, 0.455 -0.4803 0.0615, 0.4602 -0.4788 0.0611, 0.4559 -0.4804 0.0622, 0.4588 -0.4787 0.0593, 0.4571 -0.4785 0.058, 0.455 -0.4785 0.0571, 0.4651 -0.4768 0.0656, 0.4625 -0.4784 0.0655, 0.4613 -0.4792 0.0654, 0.4578 -0.4804 0.0653, 0.4647 -0.4765 0.0624, 0.4634 -0.4763 0.0594, 0.4615 -0.4761 0.0569, 0.4589 -0.4759 0.0549, 0.4559 -0.4758 0.0537, 0.4697 -0.4713 0.0661, 0.4682 -0.4737 0.0659, 0.4677 -0.4733 0.0619, 0.4666 -0.4753 0.0657, 0.4661 -0.473 0.0582, 0.4637 -0.4727 0.055, 0.4605 -0.4725 0.0525, 0.4568 -0.4724 0.051, 0.4717 -0.4666 0.0665, 0.4705 -0.4699 0.0662, 0.4699 -0.4695 0.0616, 0.4682 -0.4692 0.0573, 0.4653 -0.4688 0.0537, 0.4617 -0.4686 0.0508, 0.4574 -0.4684 0.0491, 0.472 -0.4658 0.0666, -0.0163 0.4615 0.0472, 0.4528 0.4812 0.0652, 0.4528 0.4803 0.0609, 0.4528 0.4801 0.0605, 0.4528 0.4784 0.0568, 0.4528 0.4779 0.0562, 0.4528 0.4758 0.0533, 0.4528 0.4748 0.0525, 0.4528 0.4723 0.0505, 0.4528 0.4708 0.0497, 0.4528 0.4684 0.0485, 0.4528 0.4663 0.048, 0.4528 0.4641 0.0474, 0.4528 -0.4829 0.0849, 0.4579 -0.4822 0.085, 0.4626 -0.4802 0.0851, 0.4667 -0.4771 0.0854, 0.4698 -0.4731 0.0858, 0.4718 -0.4683 0.0862, 0.4562 0.4724 0.0509, 0.4555 0.4758 0.0536, 0.4547 0.4785 0.057, 0.4537 0.4803 0.061, 0.4547 0.4803 0.0613, 0.4567 0.4805 0.0634, 0.4562 0.4804 0.0625, 0.4571 0.4806 0.0643, 0.457 0.4641 0.0479, 0.4611 0.4642 0.0493, 0.4647 0.4644 0.0516, 0.4678 0.4647 0.0546, 0.4701 0.465 0.0583, 0.4715 0.4654 0.0623, 0.472 0.4658 0.0666, 0.4581 0.4786 0.0587, 0.4595 0.4787 0.0601, 0.4605 0.4789 0.0617, 0.4611 0.479 0.0635, 0.4565 0.4785 0.0577, 0.4555 0.4804 0.0618, 0.4572 0.4807 0.0653, 0.4578 0.4804 0.0653, 0.4613 0.4792 0.0654, 0.4625 0.4784 0.0655, 0.4581 0.4759 0.0545, 0.4604 0.476 0.056, 0.4624 0.4762 0.0579, 0.4639 0.4764 0.0603, 0.4648 0.4766 0.0629, 0.4651 0.4768 0.0656, 0.4595 0.4725 0.052, 0.4624 0.4726 0.0538, 0.4648 0.4728 0.0563, 0.4667 0.4731 0.0592, 0.4678 0.4734 0.0624, 0.4666 0.4753 0.0657, 0.4567 0.4684 0.0489, 0.4605 0.4685 0.0502, 0.4638 0.4687 0.0523, 0.4667 0.469 0.0551, 0.4688 0.4693 0.0585, 0.4701 0.4696 0.0623, 0.4682 0.4737 0.0659, 0.4697 0.4713 0.0661, 0.4705 0.4699 0.0662, 0.4717 0.4666 0.0665, 0.4868 -0.4714 0.1062, 0.4818 -0.4711 0.1041, 0.4776 -0.4706 0.1008, 0.4744 -0.4699 0.0965, 0.4724 -0.4692 0.0915, 0.4541 -0.4838 0.0951, 0.459 -0.483 0.0939, 0.4635 -0.481 0.0928, 0.4674 -0.4779 0.0921, 0.4704 -0.4738 0.0916, 0.4581 -0.4846 0.1046, 0.4624 -0.4838 0.1022, 0.4664 -0.4817 0.1001, 0.4699 -0.4786 0.0983, 0.4726 -0.4746 0.0971, 0.4643 -0.4853 0.1128, 0.4678 -0.4844 0.1094, 0.4711 -0.4823 0.1063, 0.4739 -0.4792 0.1038, 0.4761 -0.4752 0.1019, 0.4725 -0.4859 0.119, 0.4749 -0.4849 0.1149, 0.4772 -0.4828 0.1111, 0.4792 -0.4796 0.1079, 0.4808 -0.4757 0.1055, 0.482 -0.4862 0.1229, 0.4832 -0.4852 0.1183, 0.4844 -0.4831 0.1141, 0.4854 -0.4799 0.1106, 0.4862 -0.476 0.1079, 0.4921 -0.4863 0.1243, 0.4921 -0.4853 0.1195, 0.4921 -0.4832 0.1152, 0.4921 -0.48 0.1115, 0.4921 -0.4761 0.1087, 0.4921 -0.4715 0.1069, 0.4528 0.4829 0.0849, 0.4579 0.4822 0.085, 0.4626 0.4802 0.0851, 0.4667 0.4771 0.0854, 0.4698 0.4731 0.0858, 0.4718 0.4683 0.0862, 0.8112 -0.4715 0.1069, 0.8112 -0.4667 0.1063, 0.8112 -0.4716 0.1069, 0.8112 -0.4761 0.1087, 0.8112 -0.4761 0.1087, 0.8112 -0.48 0.1115, 0.8112 -0.4801 0.1115, 0.8112 -0.4831 0.1152, 0.8112 -0.4832 0.1153, 0.8112 -0.4853 0.1195, 0.8112 -0.4854 0.1197, 0.4744 0.4699 0.0965, 0.4776 0.4706 0.1008, 0.482 0.4862 0.1229, 0.4921 0.4863 0.1243, 0.4832 0.4852 0.1183, 0.4921 0.4853 0.1195, 0.4844 0.4831 0.1141, 0.4921 0.4832 0.1152, 0.4854 0.4799 0.1106, 0.4921 0.48 0.1115, 0.4862 0.476 0.1079, 0.4921 0.4761 0.1087, 0.4868 0.4714 0.1062, 0.4921 0.4715 0.1069, 0.4818 0.4711 0.1041, 0.4725 0.4859 0.119, 0.4749 0.4849 0.1149, 0.4772 0.4828 0.1111, 0.4792 0.4796 0.1079, 0.4808 0.4757 0.1055, 0.4643 0.4853 0.1128, 0.4678 0.4844 0.1094, 0.4711 0.4823 0.1063, 0.4739 0.4792 0.1038, 0.4761 0.4752 0.1019, 0.4581 0.4846 0.1046, 0.4624 0.4838 0.1022, 0.4664 0.4817 0.1001, 0.4699 0.4786 0.0983, 0.4726 0.4746 0.0971, 0.4541 0.4838 0.0951, 0.459 0.483 0.0939, 0.4635 0.481 0.0928, 0.4674 0.4779 0.0921, 0.4704 0.4738 0.0916, 0.4724 0.4692 0.0915, 0.8147 -0.4796 0.1115, 0.8136 -0.4758 0.1087, 0.8125 -0.4714 0.1069, 0.8136 -0.4709 0.1069, 0.8154 -0.4691 0.1069, 0.8146 -0.4701 0.1069, 0.8159 -0.468 0.1069, 0.816 -0.4847 0.1197, 0.8205 -0.4829 0.1197, 0.8244 -0.4799 0.1197, 0.8273 -0.476 0.1197, 0.8292 -0.4715 0.1197, 0.8298 -0.4667 0.1197, 0.816 -0.4667 0.1069, 0.8159 -0.4748 0.1087, 0.8178 -0.4734 0.1087, 0.8193 -0.4714 0.1087, 0.8203 -0.4691 0.1087, 0.816 -0.4667 0.1069, 0.8205 -0.4667 0.1087, 0.8206 -0.4667 0.1087, 0.8245 -0.4667 0.1115, 0.8179 -0.4783 0.1115, 0.8206 -0.4762 0.1115, 0.8228 -0.4734 0.1115, 0.8241 -0.4702 0.1115, 0.8155 -0.4827 0.1153, 0.8195 -0.481 0.1153, 0.8229 -0.4784 0.1153, 0.8255 -0.475 0.1153, 0.8271 -0.471 0.1153, 0.8246 -0.4667 0.1115, 0.8276 -0.4667 0.1152, 0.8277 -0.4667 0.1153, 0.8298 -0.4667 0.1195, 0.8112 0.4667 0.1063, 0.8112 0.4715 0.1069, 0.8112 0.4716 0.1069, 0.8112 0.4761 0.1087, 0.8112 0.4761 0.1087, 0.8112 0.48 0.1115, 0.8112 0.4801 0.1115, 0.8112 0.4831 0.1152, 0.8112 0.4832 0.1153, 0.8112 0.4853 0.1195, 0.8112 0.4854 0.1197, 0.816 0.4667 0.1069, 0.8298 0.4667 0.1197, 0.8298 0.4667 0.1195, 0.8277 0.4667 0.1153, 0.8276 0.4667 0.1152, 0.8246 0.4667 0.1115, 0.8245 0.4667 0.1115, 0.8206 0.4667 0.1087, 0.8205 0.4667 0.1087, 0.816 0.4667 0.1069, 0.8273 0.4704 0.1153, 0.8242 0.4697 0.1115, 0.8204 0.4688 0.1087, 0.8159 0.4678 0.1069, 0.8156 0.4688 0.1069, 0.8133 0.4711 0.1069, 0.8142 0.4705 0.1069, 0.8123 0.4714 0.1069, 0.8294 0.4709 0.1197, 0.828 0.4748 0.1197, 0.8258 0.4783 0.1197, 0.8228 0.4813 0.1197, 0.8193 0.4835 0.1197, 0.8153 0.4849 0.1197, 0.8185 0.4726 0.1087, 0.8171 0.4741 0.1087, 0.8153 0.4752 0.1087, 0.8133 0.4759 0.1087, 0.8197 0.4708 0.1087, 0.815 0.4697 0.1069, 0.8232 0.4725 0.1115, 0.8216 0.475 0.1115, 0.8195 0.4772 0.1115, 0.817 0.4787 0.1115, 0.8142 0.4797 0.1115, 0.8261 0.4739 0.1153, 0.8241 0.477 0.1153, 0.8215 0.4796 0.1153, 0.8184 0.4816 0.1153, 0.8149 0.4828 0.1153, -0.806 -0.4664 0.8734, -0.806 -0.4615 0.874, -0.8071 -0.4663 0.8734, -0.8098 -0.4646 0.8734, -0.8091 -0.4653 0.8734, -0.8154 -0.4615 0.8717, -0.8154 -0.4615 0.8716, -0.8152 -0.4636 0.8716, -0.8193 -0.4615 0.8688, -0.8194 -0.4615 0.8688, -0.8191 -0.4645 0.8688, -0.8221 -0.4652 0.865, -0.8242 -0.4657 0.8607, -0.8228 -0.4696 0.8607, -0.8141 -0.4783 0.8607, -0.8102 -0.4797 0.8607, -0.8206 -0.4732 0.8607, -0.8247 -0.4615 0.8607, -0.8246 -0.4615 0.8608, -0.8225 -0.4615 0.865, -0.8225 -0.4615 0.8651, -0.806 -0.4802 0.8607, -0.806 -0.4801 0.8608, -0.8097 -0.4776 0.865, -0.8209 -0.4687 0.865, -0.806 -0.4781 0.865, -0.806 -0.478 0.8651, -0.809 -0.4746 0.8688, -0.8181 -0.4673 0.8688, -0.8189 -0.4718 0.865, -0.8177 -0.4761 0.8607, -0.806 -0.4749 0.8688, -0.806 -0.4748 0.8688, -0.8081 -0.4707 0.8716, -0.8163 -0.4745 0.865, -0.8165 -0.4699 0.8688, -0.8145 -0.4656 0.8716, -0.8108 -0.4626 0.8734, -0.8119 -0.4689 0.8716, -0.8132 -0.4764 0.865, -0.8118 -0.4736 0.8688, -0.8101 -0.47 0.8716, -0.8081 -0.4659 0.8734, -0.8108 -0.4615 0.8734, -0.8109 -0.4615 0.8734, -0.8144 -0.472 0.8688, -0.8134 -0.4674 0.8716, -0.8104 -0.4636 0.8734, -0.806 -0.4709 0.8716, -0.806 -0.4709 0.8717, -0.806 -0.4664 0.8734, -0.6977 -0.4709 0.8717, -0.6977 -0.4664 0.8734, -0.6977 -0.4615 0.874, -0.6977 -0.4748 0.8688, -0.6977 -0.478 0.8651, -0.6977 -0.4801 0.8608, -0.6977 -0.4812 0.856, -0.806 0.4615 0.874, -0.8108 0.4615 0.8734, -0.8247 0.4615 0.8607, -0.8246 0.4615 0.8608, -0.8225 0.4615 0.865, -0.8225 0.4615 0.8651, -0.8194 0.4615 0.8688, -0.8193 0.4615 0.8688, -0.8154 0.4615 0.8716, -0.8154 0.4615 0.8717, -0.8109 0.4615 0.8734
            ]
        }
        coordIndex [
            0,1,2,-1,2,1,3,-1,2,3,4,-1,4,3,5,-1,4,5,6,-1,6,5,7,-1,8,9,10,-1,10,9,11,-1,10,11,12,-1,13,14,10,-1,10,14,15,-1,10,15,16,-1,12,17,10,-1,10,17,18,-1,10,18,19,-1,19,20,10,-1,10,20,21,-1,10,21,13,-1,22,23,15,-1,15,23,24,-1,15,24,16,-1,25,26,27,-1,25,27,28,-1,28,27,29,-1,28,29,30,-1,30,29,31,-1,30,31,32,-1,32,31,33,-1,32,33,34,-1,34,33,35,-1,34,35,36,-1,36,35,37,-1,36,37,38,-1,38,37,39,-1,38,39,40,-1,40,39,41,-1,40,41,42,-1,42,41,43,-1,42,43,44,-1,44,43,45,-1,44,45,46,-1,46,45,47,-1,46,47,48,-1,46,49,50,-1,46,50,44,-1,44,50,51,-1,44,51,42,-1,42,51,52,-1,42,52,40,-1,40,52,53,-1,40,53,38,-1,38,53,54,-1,38,54,36,-1,36,54,55,-1,36,55,34,-1,34,55,56,-1,34,56,32,-1,32,56,57,-1,32,57,30,-1,30,57,58,-1,30,58,28,-1,28,58,59,-1,28,59,25,-1,25,59,60,-1,25,60,61,-1,62,63,64,-1,62,64,65,-1,65,64,66,-1,65,66,67,-1,67,66,68,-1,67,68,69,-1,69,68,70,-1,69,70,71,-1,71,70,72,-1,71,72,73,-1,73,72,74,-1,73,74,75,-1,75,74,76,-1,75,76,77,-1,77,76,78,-1,77,78,79,-1,79,78,80,-1,79,80,81,-1,81,80,82,-1,81,82,83,-1,83,82,84,-1,83,84,85,-1,86,87,83,-1,83,87,81,-1,81,87,79,-1,79,87,88,-1,79,88,77,-1,77,88,89,-1,77,89,75,-1,75,89,90,-1,75,90,73,-1,73,90,91,-1,73,91,71,-1,71,91,92,-1,71,92,69,-1,69,92,93,-1,69,93,67,-1,67,93,94,-1,67,94,65,-1,94,95,65,-1,65,95,96,-1,65,96,62,-1,97,98,99,-1,99,98,100,-1,100,98,101,-1,101,98,102,-1,101,102,103,-1,103,102,104,-1,103,104,105,-1,105,104,106,-1,105,106,107,-1,107,106,108,-1,107,108,109,-1,109,108,110,-1,109,110,111,-1,111,110,112,-1,111,112,113,-1,113,112,114,-1,113,114,115,-1,114,116,115,-1,115,116,117,-1,115,117,118,-1,119,120,118,-1,118,120,115,-1,115,120,113,-1,113,120,121,-1,113,121,111,-1,111,121,122,-1,111,122,109,-1,109,122,123,-1,109,123,107,-1,107,123,124,-1,107,124,105,-1,105,124,125,-1,105,125,103,-1,103,125,126,-1,103,126,101,-1,101,126,127,-1,101,127,100,-1,127,128,100,-1,100,128,129,-1,100,129,99,-1,130,131,132,-1,130,132,133,-1,133,132,134,-1,133,134,135,-1,135,134,136,-1,135,136,137,-1,137,136,138,-1,137,138,139,-1,139,138,140,-1,139,140,141,-1,141,140,142,-1,141,142,143,-1,143,142,144,-1,143,144,145,-1,145,144,146,-1,145,146,147,-1,147,146,148,-1,147,148,149,-1,149,148,150,-1,149,150,151,-1,151,150,152,-1,151,152,153,-1,154,155,151,-1,151,155,149,-1,149,155,147,-1,147,155,156,-1,147,156,145,-1,145,156,157,-1,145,157,143,-1,143,157,158,-1,143,158,141,-1,141,158,159,-1,141,159,139,-1,139,159,160,-1,139,160,137,-1,137,160,161,-1,137,161,135,-1,135,161,162,-1,135,162,133,-1,162,163,133,-1,133,163,164,-1,133,164,130,-1,165,166,167,-1,167,166,168,-1,168,166,169,-1,169,166,170,-1,169,170,171,-1,171,170,172,-1,171,172,173,-1,173,172,174,-1,173,174,175,-1,176,177,178,-1,178,177,175,-1,178,175,179,-1,179,175,174,-1,180,181,182,-1,182,181,183,-1,182,183,184,-1,184,183,185,-1,184,185,186,-1,186,185,187,-1,186,187,176,-1,176,187,188,-1,176,188,177,-1,189,190,191,-1,191,190,192,-1,192,190,193,-1,193,190,194,-1,193,194,195,-1,194,196,195,-1,195,196,197,-1,195,197,198,-1,198,197,199,-1,199,197,200,-1,199,200,201,-1,200,202,201,-1,201,202,203,-1,201,203,204,-1,205,206,207,-1,207,206,203,-1,204,203,208,-1,208,203,206,-1,208,206,209,-1,210,211,212,-1,212,211,213,-1,212,213,214,-1,210,212,215,-1,215,212,216,-1,215,216,217,-1,218,219,217,-1,217,219,220,-1,217,220,215,-1,218,221,219,-1,219,221,222,-1,219,222,223,-1,223,222,224,-1,223,224,225,-1,225,224,226,-1,225,226,227,-1,226,228,227,-1,227,228,229,-1,227,229,230,-1,231,232,233,-1,229,231,230,-1,230,231,233,-1,230,233,234,-1,234,233,235,-1,236,237,238,-1,238,237,239,-1,238,239,240,-1,240,239,241,-1,240,241,242,-1,242,241,243,-1,242,243,244,-1,243,245,244,-1,244,245,246,-1,244,246,247,-1,247,246,248,-1,247,248,249,-1,249,248,250,-1,250,248,251,-1,250,251,252,-1,252,251,253,-1,252,253,254,-1,254,253,255,-1,254,255,256,-1,255,257,256,-1,256,257,258,-1,256,258,259,-1,260,261,262,-1,263,264,265,-1,266,267,268,-1,269,267,266,-1,265,264,266,-1,270,266,264,-1,271,156,155,-1,156,271,157,-1,157,271,272,-1,157,272,158,-1,158,272,273,-1,158,273,159,-1,159,273,274,-1,159,274,160,-1,160,274,161,-1,161,274,275,-1,161,275,162,-1,162,275,163,-1,163,275,276,-1,163,276,164,-1,277,269,266,-1,278,279,263,-1,263,279,280,-1,263,280,264,-1,264,280,281,-1,264,281,270,-1,282,268,283,-1,283,268,267,-1,283,267,284,-1,284,267,269,-1,284,269,285,-1,277,286,269,-1,269,286,287,-1,269,287,285,-1,285,287,288,-1,285,288,289,-1,262,282,290,-1,290,282,283,-1,290,283,291,-1,291,283,284,-1,291,284,292,-1,292,284,285,-1,292,285,293,-1,293,285,289,-1,294,295,296,-1,296,295,260,-1,260,262,296,-1,296,262,290,-1,296,290,297,-1,297,290,291,-1,297,291,298,-1,298,291,292,-1,298,292,299,-1,299,292,293,-1,299,293,300,-1,261,278,262,-1,262,278,263,-1,262,263,282,-1,282,263,265,-1,282,265,268,-1,268,265,266,-1,294,271,301,-1,301,271,155,-1,301,155,154,-1,289,302,293,-1,293,302,303,-1,293,303,300,-1,300,303,304,-1,300,304,305,-1,294,296,271,-1,271,296,297,-1,271,297,272,-1,272,297,298,-1,272,298,273,-1,273,298,299,-1,273,299,274,-1,274,299,300,-1,274,300,275,-1,275,300,305,-1,275,305,276,-1,306,266,270,-1,154,48,301,-1,301,48,307,-1,301,307,294,-1,294,307,308,-1,294,308,295,-1,295,308,309,-1,295,309,260,-1,260,309,310,-1,260,310,261,-1,261,310,311,-1,261,311,278,-1,278,311,312,-1,278,312,279,-1,279,312,313,-1,279,313,280,-1,280,313,314,-1,280,314,281,-1,281,314,315,-1,281,315,270,-1,270,315,316,-1,270,316,306,-1,180,317,266,-1,266,317,277,-1,277,317,286,-1,286,317,318,-1,286,318,287,-1,287,318,288,-1,288,318,319,-1,288,319,289,-1,289,319,302,-1,302,319,320,-1,302,320,303,-1,303,320,304,-1,304,320,321,-1,304,321,305,-1,305,321,276,-1,276,321,322,-1,276,322,164,-1,323,324,325,-1,326,327,328,-1,329,330,331,-1,306,332,333,-1,334,332,306,-1,331,330,306,-1,335,306,330,-1,27,336,29,-1,29,336,337,-1,29,337,31,-1,31,337,33,-1,33,337,338,-1,33,338,35,-1,35,338,37,-1,37,338,339,-1,37,339,39,-1,39,339,41,-1,41,339,340,-1,41,340,43,-1,43,340,45,-1,45,340,341,-1,45,341,47,-1,47,341,307,-1,47,307,48,-1,316,334,306,-1,342,343,329,-1,329,343,344,-1,329,344,330,-1,330,344,345,-1,330,345,335,-1,346,333,347,-1,347,333,332,-1,347,332,348,-1,348,332,334,-1,348,334,349,-1,327,342,328,-1,328,342,329,-1,328,329,350,-1,350,329,331,-1,350,331,351,-1,351,331,306,-1,316,315,334,-1,334,315,314,-1,334,314,349,-1,349,314,313,-1,349,313,312,-1,352,346,353,-1,353,346,347,-1,353,347,354,-1,354,347,348,-1,354,348,355,-1,355,348,349,-1,355,349,356,-1,356,349,312,-1,325,352,357,-1,357,352,353,-1,357,353,358,-1,358,353,354,-1,358,354,359,-1,359,354,355,-1,359,355,360,-1,360,355,356,-1,360,356,361,-1,324,326,325,-1,325,326,328,-1,325,328,352,-1,352,328,350,-1,352,350,346,-1,346,350,351,-1,346,351,333,-1,333,351,306,-1,27,26,336,-1,336,26,362,-1,336,362,323,-1,312,311,356,-1,356,311,310,-1,356,310,361,-1,361,310,309,-1,361,309,308,-1,323,325,336,-1,336,325,357,-1,336,357,337,-1,337,357,358,-1,337,358,338,-1,338,358,359,-1,338,359,339,-1,339,359,360,-1,339,360,340,-1,340,360,361,-1,340,361,341,-1,341,361,308,-1,341,308,307,-1,317,180,182,-1,319,318,363,-1,321,320,364,-1,322,321,365,-1,184,366,182,-1,182,366,367,-1,182,367,317,-1,184,186,366,-1,366,186,176,-1,366,176,368,-1,176,178,368,-1,368,178,179,-1,368,179,369,-1,170,370,172,-1,172,370,369,-1,172,369,174,-1,174,369,179,-1,319,363,371,-1,371,363,372,-1,371,372,373,-1,373,372,374,-1,373,374,375,-1,375,374,376,-1,375,376,377,-1,377,376,378,-1,377,378,379,-1,321,364,365,-1,365,364,380,-1,365,380,381,-1,381,380,382,-1,381,382,383,-1,383,382,384,-1,383,384,385,-1,385,384,386,-1,385,386,387,-1,166,165,388,-1,166,388,170,-1,170,388,370,-1,370,388,389,-1,370,389,390,-1,390,378,370,-1,370,378,376,-1,370,376,369,-1,369,376,374,-1,369,374,368,-1,368,374,372,-1,368,372,366,-1,366,372,363,-1,366,363,367,-1,367,363,318,-1,367,318,317,-1,390,391,378,-1,378,391,392,-1,378,392,379,-1,379,392,393,-1,379,393,394,-1,394,386,379,-1,379,386,384,-1,379,384,377,-1,377,384,382,-1,377,382,375,-1,375,382,380,-1,375,380,373,-1,373,380,364,-1,373,364,371,-1,371,364,320,-1,371,320,319,-1,394,395,386,-1,386,395,396,-1,386,396,387,-1,387,396,397,-1,387,397,398,-1,322,365,399,-1,399,365,381,-1,399,381,400,-1,400,381,383,-1,400,383,401,-1,401,383,385,-1,401,385,402,-1,402,385,387,-1,402,387,403,-1,403,387,398,-1,403,398,404,-1,405,406,335,-1,335,406,181,-1,335,181,306,-1,335,345,405,-1,405,345,344,-1,405,344,407,-1,344,343,407,-1,407,343,342,-1,407,342,408,-1,342,327,408,-1,408,327,326,-1,408,326,409,-1,326,324,409,-1,409,324,323,-1,409,323,410,-1,410,323,362,-1,410,362,26,-1,404,398,411,-1,411,398,412,-1,412,398,413,-1,413,398,397,-1,413,397,414,-1,414,397,396,-1,414,396,415,-1,415,396,395,-1,415,395,416,-1,416,395,394,-1,416,394,417,-1,417,394,393,-1,417,393,418,-1,418,393,392,-1,418,392,419,-1,419,392,391,-1,419,391,420,-1,420,391,390,-1,420,390,421,-1,421,390,389,-1,421,389,422,-1,422,389,388,-1,422,388,423,-1,423,388,165,-1,423,165,191,-1,185,183,424,-1,188,187,425,-1,175,177,426,-1,171,173,427,-1,168,169,428,-1,429,430,431,-1,431,430,432,-1,431,432,433,-1,433,432,434,-1,433,434,435,-1,435,434,436,-1,435,436,437,-1,437,436,438,-1,437,438,428,-1,428,438,439,-1,428,439,168,-1,168,439,167,-1,440,429,441,-1,441,429,431,-1,441,431,442,-1,442,431,433,-1,442,433,443,-1,443,433,435,-1,443,435,444,-1,444,435,437,-1,444,437,427,-1,427,437,428,-1,427,428,171,-1,171,428,169,-1,445,440,446,-1,446,440,441,-1,446,441,447,-1,447,441,442,-1,447,442,448,-1,448,442,443,-1,448,443,449,-1,449,443,444,-1,449,444,426,-1,426,444,427,-1,426,427,175,-1,175,427,173,-1,450,445,451,-1,451,445,446,-1,451,446,452,-1,452,446,447,-1,452,447,453,-1,453,447,448,-1,453,448,454,-1,454,448,449,-1,454,449,425,-1,425,449,426,-1,425,426,188,-1,188,426,177,-1,455,450,456,-1,456,450,451,-1,456,451,457,-1,457,451,452,-1,457,452,458,-1,458,452,453,-1,458,453,459,-1,459,453,454,-1,459,454,424,-1,424,454,425,-1,424,425,185,-1,185,425,187,-1,410,455,409,-1,409,455,456,-1,409,456,408,-1,408,456,457,-1,408,457,407,-1,407,457,458,-1,407,458,405,-1,405,458,459,-1,405,459,406,-1,406,459,424,-1,406,424,181,-1,181,424,183,-1,460,461,462,-1,411,463,464,-1,462,461,411,-1,208,465,204,-1,204,465,466,-1,204,466,201,-1,201,466,467,-1,201,467,199,-1,199,467,198,-1,198,467,468,-1,198,468,195,-1,195,468,469,-1,195,469,193,-1,193,469,192,-1,192,469,423,-1,192,423,191,-1,470,471,460,-1,460,471,472,-1,460,472,461,-1,461,472,473,-1,461,473,411,-1,411,412,463,-1,463,412,413,-1,463,413,414,-1,474,475,476,-1,476,475,464,-1,476,464,477,-1,477,464,463,-1,477,463,478,-1,478,463,414,-1,479,474,480,-1,480,474,476,-1,480,476,481,-1,481,476,477,-1,481,477,482,-1,482,477,478,-1,482,478,483,-1,484,485,486,-1,486,485,487,-1,414,415,478,-1,478,415,416,-1,478,416,483,-1,483,416,417,-1,483,417,418,-1,418,488,483,-1,483,488,489,-1,483,489,482,-1,482,489,490,-1,482,490,481,-1,481,490,491,-1,481,491,480,-1,480,491,486,-1,480,486,479,-1,479,486,487,-1,479,487,492,-1,493,494,495,-1,495,494,484,-1,484,486,495,-1,495,486,491,-1,495,491,496,-1,496,491,490,-1,496,490,497,-1,497,490,489,-1,497,489,498,-1,498,489,488,-1,498,488,499,-1,475,411,464,-1,492,470,479,-1,479,470,460,-1,479,460,474,-1,474,460,462,-1,474,462,475,-1,475,462,411,-1,208,209,465,-1,465,209,500,-1,465,500,493,-1,418,419,488,-1,488,419,420,-1,488,420,499,-1,499,420,421,-1,499,421,422,-1,493,495,465,-1,465,495,496,-1,465,496,466,-1,466,496,497,-1,466,497,467,-1,467,497,498,-1,467,498,468,-1,468,498,499,-1,468,499,469,-1,469,499,422,-1,469,422,423,-1,501,502,430,-1,430,502,432,-1,502,503,432,-1,432,503,504,-1,432,504,434,-1,504,505,434,-1,434,505,506,-1,434,506,436,-1,506,507,436,-1,436,507,508,-1,436,508,438,-1,508,509,438,-1,438,509,510,-1,438,510,439,-1,189,167,511,-1,511,167,439,-1,511,439,512,-1,512,439,510,-1,513,232,514,-1,515,411,516,-1,516,411,473,-1,516,473,517,-1,517,473,472,-1,517,472,518,-1,518,472,471,-1,518,471,519,-1,519,471,470,-1,519,470,520,-1,520,470,492,-1,520,492,521,-1,521,492,487,-1,521,487,522,-1,522,487,485,-1,522,485,523,-1,523,485,484,-1,523,484,524,-1,524,484,494,-1,524,494,525,-1,525,494,493,-1,525,493,514,-1,514,493,500,-1,514,500,513,-1,513,500,209,-1,526,527,528,-1,528,527,501,-1,502,501,527,-1,190,529,194,-1,194,529,530,-1,194,530,196,-1,196,530,197,-1,197,530,531,-1,197,531,200,-1,200,531,532,-1,200,532,202,-1,202,532,203,-1,203,532,533,-1,203,533,207,-1,207,533,534,-1,207,534,205,-1,501,535,536,-1,536,535,537,-1,538,501,536,-1,539,540,541,-1,541,540,538,-1,541,538,542,-1,542,538,536,-1,542,536,543,-1,543,536,537,-1,506,505,526,-1,526,505,504,-1,526,504,527,-1,527,504,503,-1,527,503,502,-1,544,539,545,-1,545,539,541,-1,545,541,546,-1,546,541,542,-1,546,542,547,-1,547,542,543,-1,547,543,548,-1,509,508,549,-1,549,508,507,-1,537,550,543,-1,543,550,551,-1,543,551,548,-1,548,551,552,-1,548,552,553,-1,507,544,549,-1,549,544,545,-1,549,545,554,-1,554,545,546,-1,554,546,555,-1,555,546,547,-1,555,547,556,-1,556,547,548,-1,556,548,557,-1,557,548,553,-1,512,510,558,-1,558,510,509,-1,509,549,558,-1,558,549,554,-1,558,554,559,-1,559,554,555,-1,559,555,560,-1,560,555,556,-1,560,556,561,-1,561,556,557,-1,561,557,562,-1,540,501,538,-1,507,506,544,-1,544,506,526,-1,544,526,539,-1,539,526,528,-1,539,528,540,-1,540,528,501,-1,512,529,511,-1,511,529,190,-1,511,190,189,-1,553,563,557,-1,557,563,564,-1,557,564,562,-1,562,564,565,-1,562,565,566,-1,512,558,529,-1,529,558,559,-1,529,559,530,-1,530,559,560,-1,530,560,531,-1,531,560,561,-1,531,561,532,-1,532,561,562,-1,532,562,533,-1,533,562,566,-1,533,566,534,-1,567,568,569,-1,569,568,515,-1,570,515,568,-1,224,222,571,-1,572,216,212,-1,216,572,217,-1,217,572,573,-1,217,573,218,-1,571,222,573,-1,573,222,221,-1,573,221,218,-1,224,571,226,-1,226,571,574,-1,226,574,228,-1,228,574,575,-1,228,575,229,-1,229,575,231,-1,231,575,514,-1,231,514,232,-1,515,516,576,-1,576,516,517,-1,577,515,576,-1,578,579,580,-1,580,579,577,-1,580,577,581,-1,581,577,576,-1,581,576,582,-1,582,576,517,-1,583,584,567,-1,567,584,585,-1,567,585,568,-1,568,585,586,-1,568,586,570,-1,587,578,588,-1,588,578,580,-1,588,580,589,-1,589,580,581,-1,589,581,590,-1,590,581,582,-1,590,582,591,-1,592,593,594,-1,594,593,595,-1,517,518,582,-1,582,518,519,-1,582,519,591,-1,591,519,520,-1,591,520,521,-1,595,587,594,-1,594,587,588,-1,594,588,596,-1,596,588,589,-1,596,589,597,-1,597,589,590,-1,597,590,598,-1,598,590,591,-1,598,591,599,-1,599,591,521,-1,600,601,602,-1,602,601,592,-1,592,594,602,-1,602,594,596,-1,602,596,603,-1,603,596,597,-1,603,597,604,-1,604,597,598,-1,604,598,605,-1,605,598,599,-1,605,599,606,-1,579,515,577,-1,595,583,587,-1,587,583,567,-1,587,567,578,-1,578,567,569,-1,578,569,579,-1,579,569,515,-1,600,572,607,-1,607,572,212,-1,607,212,214,-1,521,522,599,-1,599,522,523,-1,599,523,606,-1,606,523,524,-1,606,524,525,-1,600,602,572,-1,572,602,603,-1,572,603,573,-1,573,603,604,-1,573,604,571,-1,571,604,605,-1,571,605,574,-1,574,605,606,-1,574,606,575,-1,575,606,525,-1,575,525,514,-1,608,205,534,-1,501,609,535,-1,535,609,610,-1,535,610,537,-1,537,610,611,-1,537,611,550,-1,550,611,612,-1,550,612,551,-1,551,612,613,-1,551,613,552,-1,552,613,614,-1,552,614,553,-1,553,614,615,-1,553,615,563,-1,563,615,616,-1,563,616,564,-1,564,616,617,-1,564,617,565,-1,565,617,618,-1,565,618,566,-1,566,618,619,-1,566,619,534,-1,534,619,620,-1,534,620,608,-1,608,620,235,-1,515,570,621,-1,621,570,622,-1,570,586,622,-1,622,586,585,-1,622,585,623,-1,585,584,623,-1,623,584,583,-1,623,583,624,-1,583,595,624,-1,624,595,593,-1,624,593,625,-1,593,592,625,-1,625,592,601,-1,625,601,626,-1,214,258,607,-1,607,258,626,-1,607,626,600,-1,600,626,601,-1,617,616,627,-1,615,614,628,-1,629,630,631,-1,609,632,633,-1,634,632,609,-1,631,630,609,-1,234,635,230,-1,230,635,636,-1,230,636,227,-1,227,636,637,-1,227,637,225,-1,225,637,223,-1,223,637,638,-1,223,638,219,-1,219,638,639,-1,219,639,220,-1,220,639,215,-1,215,639,640,-1,215,640,210,-1,210,640,211,-1,211,640,641,-1,211,641,213,-1,613,612,629,-1,629,612,611,-1,629,611,630,-1,630,611,610,-1,630,610,609,-1,642,633,643,-1,643,633,632,-1,643,632,644,-1,644,632,634,-1,644,634,645,-1,614,613,628,-1,628,613,629,-1,628,629,646,-1,646,629,631,-1,646,631,647,-1,647,631,609,-1,609,648,634,-1,634,648,649,-1,634,649,645,-1,645,649,650,-1,645,650,651,-1,652,642,653,-1,653,642,643,-1,653,643,654,-1,654,643,644,-1,654,644,655,-1,655,644,645,-1,655,645,656,-1,656,645,651,-1,656,651,657,-1,627,652,658,-1,658,652,653,-1,658,653,659,-1,659,653,654,-1,659,654,660,-1,660,654,655,-1,660,655,661,-1,661,655,656,-1,661,656,662,-1,662,656,657,-1,662,657,663,-1,619,618,664,-1,664,618,617,-1,617,627,664,-1,664,627,658,-1,664,658,665,-1,665,658,659,-1,665,659,666,-1,666,659,660,-1,666,660,667,-1,667,660,661,-1,667,661,668,-1,668,661,662,-1,668,662,669,-1,616,615,627,-1,627,615,628,-1,627,628,652,-1,652,628,646,-1,652,646,642,-1,642,646,647,-1,642,647,633,-1,633,647,609,-1,234,235,635,-1,635,235,620,-1,635,620,619,-1,663,670,662,-1,662,670,671,-1,662,671,669,-1,669,671,672,-1,669,672,673,-1,619,664,635,-1,635,664,665,-1,635,665,636,-1,636,665,666,-1,636,666,637,-1,637,666,667,-1,637,667,638,-1,638,667,668,-1,638,668,639,-1,639,668,669,-1,639,669,640,-1,640,669,673,-1,640,673,641,-1,241,239,674,-1,245,243,675,-1,248,246,676,-1,253,251,677,-1,257,255,678,-1,679,621,680,-1,680,621,622,-1,680,622,681,-1,681,622,623,-1,681,623,682,-1,682,623,624,-1,682,624,683,-1,683,624,625,-1,683,625,678,-1,678,625,626,-1,678,626,257,-1,257,626,258,-1,684,679,685,-1,685,679,680,-1,685,680,686,-1,686,680,681,-1,686,681,687,-1,687,681,682,-1,687,682,688,-1,688,682,683,-1,688,683,677,-1,677,683,678,-1,677,678,253,-1,253,678,255,-1,689,684,690,-1,690,684,685,-1,690,685,691,-1,691,685,686,-1,691,686,692,-1,692,686,687,-1,692,687,693,-1,693,687,688,-1,693,688,676,-1,676,688,677,-1,676,677,248,-1,248,677,251,-1,694,689,695,-1,695,689,690,-1,695,690,696,-1,696,690,691,-1,696,691,697,-1,697,691,692,-1,697,692,698,-1,698,692,693,-1,698,693,675,-1,675,693,676,-1,675,676,245,-1,245,676,246,-1,699,694,700,-1,700,694,695,-1,700,695,701,-1,701,695,696,-1,701,696,702,-1,702,696,697,-1,702,697,703,-1,703,697,698,-1,703,698,674,-1,674,698,675,-1,674,675,241,-1,241,675,243,-1,704,699,705,-1,705,699,700,-1,705,700,706,-1,706,700,701,-1,706,701,707,-1,707,701,702,-1,707,702,708,-1,708,702,703,-1,708,703,709,-1,709,703,674,-1,709,674,237,-1,237,674,239,-1,609,710,648,-1,648,710,711,-1,648,711,649,-1,649,711,650,-1,650,711,712,-1,650,712,651,-1,651,712,657,-1,657,712,713,-1,657,713,663,-1,663,713,670,-1,670,713,714,-1,670,714,671,-1,671,714,672,-1,672,714,715,-1,672,715,673,-1,673,715,641,-1,641,715,259,-1,641,259,213,-1,708,709,716,-1,716,709,237,-1,716,237,717,-1,716,718,708,-1,708,718,719,-1,708,719,707,-1,719,720,707,-1,707,720,721,-1,707,721,706,-1,721,722,706,-1,706,722,723,-1,706,723,705,-1,723,724,705,-1,705,724,725,-1,705,725,704,-1,704,725,726,-1,704,726,119,-1,249,250,727,-1,244,247,728,-1,729,730,731,-1,731,730,732,-1,731,732,733,-1,733,732,734,-1,733,734,735,-1,735,734,736,-1,735,736,737,-1,737,736,738,-1,737,738,739,-1,739,738,740,-1,240,242,741,-1,240,741,238,-1,742,729,743,-1,743,729,731,-1,743,731,744,-1,744,731,733,-1,744,733,745,-1,745,733,735,-1,745,735,746,-1,746,735,737,-1,746,737,741,-1,741,737,739,-1,741,739,238,-1,238,739,740,-1,238,740,236,-1,747,742,748,-1,748,742,743,-1,748,743,749,-1,749,743,744,-1,749,744,750,-1,750,744,745,-1,750,745,751,-1,751,745,746,-1,751,746,728,-1,728,746,741,-1,728,741,244,-1,244,741,242,-1,752,747,753,-1,753,747,748,-1,753,748,754,-1,754,748,749,-1,754,749,755,-1,755,749,750,-1,755,750,756,-1,756,750,751,-1,756,751,727,-1,727,751,728,-1,727,728,249,-1,249,728,247,-1,757,752,758,-1,758,752,753,-1,758,753,759,-1,759,753,754,-1,759,754,760,-1,760,754,755,-1,760,755,761,-1,761,755,756,-1,761,756,762,-1,762,756,727,-1,762,727,252,-1,252,727,250,-1,256,259,715,-1,256,715,254,-1,710,757,711,-1,711,757,758,-1,711,758,712,-1,712,758,759,-1,712,759,713,-1,713,759,760,-1,713,760,714,-1,714,760,761,-1,714,761,715,-1,715,761,762,-1,715,762,254,-1,254,762,252,-1,723,722,763,-1,764,765,766,-1,717,767,768,-1,769,767,717,-1,766,765,717,-1,716,717,765,-1,770,121,120,-1,121,770,122,-1,122,770,771,-1,122,771,123,-1,123,771,772,-1,123,772,124,-1,124,772,773,-1,124,773,125,-1,125,773,126,-1,126,773,774,-1,126,774,127,-1,127,774,128,-1,128,774,775,-1,128,775,129,-1,776,769,717,-1,721,720,764,-1,764,720,719,-1,764,719,765,-1,765,719,718,-1,765,718,716,-1,777,768,778,-1,778,768,767,-1,778,767,779,-1,779,767,769,-1,779,769,780,-1,776,781,769,-1,769,781,782,-1,769,782,780,-1,780,782,783,-1,780,783,784,-1,763,777,785,-1,785,777,778,-1,785,778,786,-1,786,778,779,-1,786,779,787,-1,787,779,780,-1,787,780,788,-1,788,780,784,-1,725,724,789,-1,789,724,723,-1,723,763,789,-1,789,763,785,-1,789,785,790,-1,790,785,786,-1,790,786,791,-1,791,786,787,-1,791,787,792,-1,792,787,788,-1,792,788,793,-1,722,721,763,-1,763,721,764,-1,763,764,777,-1,777,764,766,-1,777,766,768,-1,768,766,717,-1,725,770,726,-1,726,770,120,-1,726,120,119,-1,784,794,788,-1,788,794,795,-1,788,795,793,-1,793,795,796,-1,793,796,797,-1,725,789,770,-1,770,789,790,-1,770,790,771,-1,771,790,791,-1,771,791,772,-1,772,791,792,-1,772,792,773,-1,773,792,793,-1,773,793,774,-1,774,793,797,-1,774,797,775,-1,236,740,798,-1,798,740,799,-1,799,740,800,-1,800,740,738,-1,800,738,801,-1,801,738,802,-1,802,738,736,-1,802,736,803,-1,803,736,804,-1,804,736,734,-1,804,734,805,-1,805,734,806,-1,806,734,732,-1,806,732,807,-1,807,732,808,-1,808,732,730,-1,808,730,85,-1,717,798,809,-1,63,129,810,-1,810,129,775,-1,810,775,811,-1,811,775,797,-1,811,797,812,-1,812,797,796,-1,812,796,813,-1,813,796,795,-1,813,795,814,-1,814,795,794,-1,814,794,815,-1,815,794,784,-1,815,784,816,-1,816,784,783,-1,816,783,817,-1,817,783,782,-1,817,782,818,-1,818,782,781,-1,818,781,809,-1,809,781,776,-1,809,776,717,-1,811,812,819,-1,813,814,820,-1,821,822,823,-1,798,824,825,-1,826,824,798,-1,823,822,798,-1,809,798,822,-1,64,827,66,-1,66,827,828,-1,66,828,68,-1,68,828,70,-1,70,828,829,-1,70,829,72,-1,72,829,74,-1,74,829,830,-1,74,830,76,-1,76,830,78,-1,78,830,831,-1,78,831,80,-1,80,831,82,-1,82,831,832,-1,82,832,84,-1,84,832,808,-1,84,808,85,-1,799,826,798,-1,815,816,821,-1,821,816,817,-1,821,817,822,-1,822,817,818,-1,822,818,809,-1,833,825,834,-1,834,825,824,-1,834,824,835,-1,835,824,826,-1,835,826,836,-1,814,815,820,-1,820,815,821,-1,820,821,837,-1,837,821,823,-1,837,823,838,-1,838,823,798,-1,799,800,826,-1,826,800,801,-1,826,801,836,-1,836,801,802,-1,836,802,803,-1,839,833,840,-1,840,833,834,-1,840,834,841,-1,841,834,835,-1,841,835,842,-1,842,835,836,-1,842,836,843,-1,843,836,803,-1,819,839,844,-1,844,839,840,-1,844,840,845,-1,845,840,841,-1,845,841,846,-1,846,841,842,-1,846,842,847,-1,847,842,843,-1,847,843,848,-1,812,813,819,-1,819,813,820,-1,819,820,839,-1,839,820,837,-1,839,837,833,-1,833,837,838,-1,833,838,825,-1,825,838,798,-1,64,63,827,-1,827,63,810,-1,827,810,811,-1,803,804,843,-1,843,804,805,-1,843,805,848,-1,848,805,806,-1,848,806,807,-1,811,819,827,-1,827,819,844,-1,827,844,828,-1,828,844,845,-1,828,845,829,-1,829,845,846,-1,829,846,830,-1,830,846,847,-1,830,847,831,-1,831,847,848,-1,831,848,832,-1,832,848,807,-1,832,807,808,-1,849,850,851,-1,852,853,850,-1,854,855,856,-1,857,858,859,-1,860,861,862,-1,138,136,863,-1,134,132,864,-1,864,132,131,-1,865,144,142,-1,862,148,146,-1,148,862,150,-1,150,862,861,-1,150,861,152,-1,153,152,866,-1,866,152,861,-1,866,861,867,-1,867,861,860,-1,867,860,868,-1,868,860,869,-1,131,870,864,-1,864,870,871,-1,864,871,872,-1,858,869,859,-1,859,869,860,-1,859,860,873,-1,873,860,862,-1,873,862,865,-1,865,862,146,-1,865,146,144,-1,871,874,872,-1,872,874,875,-1,872,875,876,-1,855,857,856,-1,856,857,859,-1,856,859,877,-1,877,859,873,-1,877,873,878,-1,878,873,865,-1,878,865,879,-1,879,865,142,-1,879,142,140,-1,875,880,876,-1,876,880,881,-1,876,881,882,-1,879,883,878,-1,878,883,884,-1,878,884,877,-1,877,884,885,-1,877,885,856,-1,856,885,886,-1,856,886,854,-1,853,852,887,-1,136,134,863,-1,863,134,864,-1,863,864,888,-1,888,864,872,-1,888,872,889,-1,889,872,876,-1,889,876,890,-1,890,876,882,-1,890,882,891,-1,891,882,851,-1,891,851,850,-1,850,892,886,-1,886,892,893,-1,886,893,854,-1,883,894,884,-1,884,894,895,-1,884,895,885,-1,885,895,896,-1,885,896,886,-1,886,896,850,-1,894,887,895,-1,895,887,852,-1,895,852,896,-1,896,852,850,-1,881,897,882,-1,882,897,898,-1,882,898,851,-1,851,898,899,-1,851,899,849,-1,140,138,879,-1,879,138,863,-1,879,863,883,-1,883,863,888,-1,883,888,894,-1,894,888,889,-1,894,889,887,-1,887,889,890,-1,887,890,853,-1,853,890,891,-1,853,891,850,-1,900,901,849,-1,849,901,902,-1,849,902,850,-1,849,899,900,-1,900,899,898,-1,900,898,903,-1,898,897,903,-1,903,897,881,-1,903,881,904,-1,881,880,904,-1,904,880,875,-1,904,875,905,-1,875,874,905,-1,905,874,871,-1,905,871,906,-1,906,871,870,-1,906,870,131,-1,850,907,908,-1,49,153,909,-1,909,153,866,-1,909,866,910,-1,910,866,867,-1,910,867,911,-1,911,867,868,-1,911,868,912,-1,912,868,869,-1,912,869,913,-1,913,869,858,-1,913,858,914,-1,914,858,857,-1,914,857,915,-1,915,857,855,-1,915,855,916,-1,916,855,854,-1,916,854,917,-1,917,854,893,-1,917,893,908,-1,908,893,892,-1,908,892,850,-1,
        ]
    }
}
Shape{
    appearance Appearance {
        material  Material 	{
            diffuseColor 0.34901960784313724 0.34901960784313724 0.34901960784313724
            specularColor 0.023529411764705882 0.023529411764705882 0.023529411764705882
            ambientIntensity 0.498
            transparency 0.0
            shininess 0.5
        }
    }
    geometry IndexedFaceSet {
        ccw TRUE
        solid FALSE
        coord DEF co Coordinate {
            point [
                -0.6325 -0.4615 0.874, -0.6977 -0.4615 0.874, -0.6977 -0.4664 0.8734, -0.6325 -0.4664 0.8734, -0.6977 -0.4709 0.8717, -0.6325 -0.4709 0.8717, -0.6977 -0.4748 0.8688, -0.6325 -0.4748 0.8688, -0.6977 -0.478 0.8651, -0.6325 -0.478 0.8651, -0.6977 -0.4801 0.8608, -0.6325 -0.4801 0.8608, -0.6977 -0.4812 0.856, -0.6325 -0.4812 0.856
            ]
        }
        coordIndex [
            0,1,2,-1,0,2,3,-1,3,2,4,-1,3,4,5,-1,5,4,6,-1,5,6,7,-1,7,6,8,-1,7,8,9,-1,9,8,10,-1,9,10,11,-1,11,10,12,-1,11,12,13,-1,
        ]
    }
}
Shape{
    appearance Appearance {
        material  Material 	{
            diffuseColor 0.20784313725490197 0.20784313725490197 0.20784313725490197
            specularColor 0.01568627450980392 0.01568627450980392 0.01568627450980392
            ambientIntensity 0.298
            transparency 0.0
            shininess 0.5
        }
    }
    geometry IndexedFaceSet {
        ccw TRUE
        solid FALSE
        coord DEF co Coordinate {
            point [
                -0.8108 0.4615 0.8734, -0.806 0.4615 0.874, -0.8108 0.4626 0.8734, -0.8091 0.4653 0.8734, -0.8098 0.4646 0.8734, -0.806 0.4709 0.8717, -0.806 0.4709 0.8716, -0.8081 0.4707 0.8716, -0.806 0.4748 0.8688, -0.806 0.4749 0.8688, -0.809 0.4746 0.8688, -0.8097 0.4776 0.865, -0.8102 0.4797 0.8607, -0.8141 0.4783 0.8607, -0.823 0.4713 0.8567, -0.8235 0.47 0.8566, -0.8228 0.4696 0.8607, -0.8249 0.4666 0.8564, -0.825 0.4659 0.8564, -0.8242 0.4657 0.8607, -0.8256 0.4615 0.856, -0.8177 0.4761 0.8607, -0.8181 0.4767 0.8567, -0.8198 0.4754 0.8567, -0.8145 0.479 0.8566, -0.8158 0.4785 0.8567, -0.8111 0.4805 0.8564, -0.8104 0.4806 0.8564, -0.806 0.4812 0.856, -0.806 0.4802 0.8607, -0.806 0.4801 0.8608, -0.806 0.4781 0.865, -0.806 0.478 0.8651, -0.8247 0.4615 0.8607, -0.8246 0.4615 0.8608, -0.8221 0.4652 0.865, -0.8132 0.4764 0.865, -0.8225 0.4615 0.865, -0.8225 0.4615 0.8651, -0.8191 0.4645 0.8688, -0.8118 0.4736 0.8688, -0.8163 0.4745 0.865, -0.8206 0.4732 0.8607, -0.8212 0.4736 0.8567, -0.8194 0.4615 0.8688, -0.8193 0.4615 0.8688, -0.8152 0.4636 0.8716, -0.8189 0.4718 0.865, -0.8144 0.472 0.8688, -0.8101 0.47 0.8716, -0.8071 0.4663 0.8734, -0.8134 0.4674 0.8716, -0.8209 0.4687 0.865, -0.8181 0.4673 0.8688, -0.8145 0.4656 0.8716, -0.8104 0.4636 0.8734, -0.806 0.4664 0.8734, -0.806 0.4664 0.8734, -0.8165 0.4699 0.8688, -0.8119 0.4689 0.8716, -0.8081 0.4659 0.8734, -0.8154 0.4615 0.8716, -0.8154 0.4615 0.8717, -0.8109 0.4615 0.8734, -0.6325 -0.4615 0.874, -0.6325 -0.4664 0.8734, 0.806 -0.4615 0.874, 0.806 -0.4664 0.8734, 0.806 -0.4664 0.8734, -0.6325 -0.4709 0.8717, 0.806 -0.4709 0.8717, 0.806 -0.4709 0.8716, -0.6325 -0.4748 0.8688, 0.806 -0.4748 0.8688, 0.806 -0.4749 0.8688, -0.6325 -0.478 0.8651, 0.806 -0.478 0.8651, 0.806 -0.4781 0.865, -0.6325 -0.4801 0.8608, 0.806 -0.4801 0.8608, 0.806 -0.4802 0.8607, -0.6325 -0.4812 0.856, 0.806 -0.4812 0.856, -0.6977 0.4615 0.874, -0.6977 0.4664 0.8734, -0.6977 0.4709 0.8717, -0.6977 0.4748 0.8688, -0.6977 0.478 0.8651, -0.6977 0.4801 0.8608, -0.6977 0.4812 0.856, 0.8108 -0.4615 0.8734, 0.8107 -0.4628 0.8734, 0.8085 -0.4706 0.8716, 0.8095 -0.4745 0.8688, 0.8103 -0.4775 0.865, 0.8109 -0.4795 0.8607, 0.8154 -0.4777 0.8607, 0.8249 -0.4666 0.8564, 0.8256 -0.4615 0.856, 0.8247 -0.4615 0.8607, 0.823 -0.4713 0.8567, 0.8249 -0.4666 0.8564, 0.824 -0.4664 0.8607, 0.8111 -0.4805 0.8564, 0.8111 -0.4804 0.8564, 0.8158 -0.4785 0.8567, 0.8158 -0.4785 0.8567, 0.8198 -0.4754 0.8567, 0.8246 -0.4615 0.8608, 0.822 -0.4658 0.865, 0.8143 -0.4758 0.865, 0.8192 -0.4747 0.8607, 0.8225 -0.4615 0.865, 0.8225 -0.4615 0.8651, 0.8189 -0.465 0.8688, 0.8127 -0.4731 0.8688, 0.8177 -0.4732 0.865, 0.8194 -0.4615 0.8688, 0.8193 -0.4615 0.8688, 0.8151 -0.464 0.8716, 0.8155 -0.471 0.8688, 0.8107 -0.4697 0.8716, 0.8073 -0.4662 0.8734, 0.823 -0.4713 0.8567, 0.8222 -0.4709 0.8607, 0.8203 -0.4698 0.865, 0.8176 -0.4682 0.8688, 0.8142 -0.4662 0.8716, 0.8102 -0.464 0.8734, 0.8127 -0.4682 0.8716, 0.8085 -0.4657 0.8734, 0.8095 -0.465 0.8734, 0.8154 -0.4615 0.8716, 0.8154 -0.4615 0.8717, 0.8109 -0.4615 0.8734
            ]
        }
        coordIndex [
            0,1,2,-1,3,4,1,-1,5,6,7,-1,8,9,10,-1,11,12,13,-1,14,15,16,-1,17,18,19,-1,19,18,20,-1,21,22,23,-1,13,24,25,-1,24,13,26,-1,26,13,12,-1,26,12,27,-1,28,27,29,-1,29,27,12,-1,29,12,30,-1,30,12,11,-1,30,11,31,-1,31,11,32,-1,20,33,19,-1,19,33,34,-1,19,34,35,-1,9,32,10,-1,10,32,11,-1,10,11,36,-1,36,11,13,-1,36,13,21,-1,21,13,25,-1,21,25,22,-1,34,37,35,-1,35,37,38,-1,35,38,39,-1,6,8,7,-1,7,8,10,-1,7,10,40,-1,40,10,36,-1,40,36,41,-1,41,36,21,-1,41,21,42,-1,42,21,23,-1,42,23,43,-1,38,44,39,-1,39,44,45,-1,39,45,46,-1,42,47,41,-1,41,47,48,-1,41,48,40,-1,40,48,49,-1,40,49,7,-1,7,49,50,-1,7,50,5,-1,4,3,51,-1,15,17,16,-1,16,17,19,-1,16,19,52,-1,52,19,35,-1,52,35,53,-1,53,35,39,-1,53,39,54,-1,54,39,46,-1,54,46,55,-1,55,46,2,-1,55,2,1,-1,1,56,50,-1,50,56,57,-1,50,57,5,-1,47,58,48,-1,48,58,59,-1,48,59,49,-1,49,59,60,-1,49,60,50,-1,50,60,1,-1,58,51,59,-1,59,51,3,-1,59,3,60,-1,60,3,1,-1,45,61,46,-1,46,61,62,-1,46,62,2,-1,2,62,63,-1,2,63,0,-1,43,14,42,-1,42,14,16,-1,42,16,47,-1,47,16,52,-1,47,52,58,-1,58,52,53,-1,58,53,51,-1,51,53,54,-1,51,54,4,-1,4,54,55,-1,4,55,1,-1,64,65,66,-1,66,65,67,-1,67,65,68,-1,68,65,69,-1,68,69,70,-1,70,69,71,-1,71,69,72,-1,71,72,73,-1,73,72,74,-1,74,72,75,-1,74,75,76,-1,76,75,77,-1,77,75,78,-1,77,78,79,-1,79,78,80,-1,80,78,81,-1,80,81,82,-1,83,84,1,-1,1,84,56,-1,56,84,57,-1,57,84,85,-1,57,85,5,-1,5,85,6,-1,6,85,86,-1,6,86,8,-1,8,86,9,-1,9,86,87,-1,9,87,32,-1,32,87,31,-1,31,87,88,-1,31,88,30,-1,30,88,29,-1,29,88,89,-1,29,89,28,-1,90,66,91,-1,70,71,92,-1,73,74,93,-1,94,95,96,-1,97,98,99,-1,100,101,102,-1,102,101,97,-1,103,104,95,-1,95,104,105,-1,95,105,96,-1,96,105,106,-1,96,106,107,-1,82,103,80,-1,80,103,95,-1,80,95,79,-1,79,95,94,-1,79,94,77,-1,77,94,76,-1,97,99,102,-1,102,99,108,-1,102,108,109,-1,74,76,93,-1,93,76,94,-1,93,94,110,-1,110,94,96,-1,110,96,111,-1,111,96,107,-1,108,112,109,-1,109,112,113,-1,109,113,114,-1,71,73,92,-1,92,73,93,-1,92,93,115,-1,115,93,110,-1,115,110,116,-1,116,110,111,-1,113,117,114,-1,114,117,118,-1,114,118,119,-1,116,120,115,-1,115,120,121,-1,115,121,92,-1,92,121,122,-1,92,122,70,-1,123,100,124,-1,124,100,102,-1,124,102,125,-1,125,102,109,-1,125,109,126,-1,126,109,114,-1,126,114,127,-1,127,114,119,-1,127,119,128,-1,128,119,91,-1,128,91,66,-1,66,67,122,-1,122,67,68,-1,122,68,70,-1,120,129,121,-1,121,129,130,-1,121,130,122,-1,122,130,66,-1,129,131,130,-1,130,131,66,-1,118,132,119,-1,119,132,133,-1,119,133,91,-1,91,133,134,-1,91,134,90,-1,107,123,111,-1,111,123,124,-1,111,124,116,-1,116,124,125,-1,116,125,120,-1,120,125,126,-1,120,126,129,-1,129,126,127,-1,129,127,131,-1,131,127,128,-1,131,128,66,-1,
        ]
    }
}
Shape{
    appearance Appearance {
        material  Material 	{
            diffuseColor 0.34901960784313724 0.34901960784313724 0.34901960784313724
            specularColor 0.023529411764705882 0.023529411764705882 0.023529411764705882
            ambientIntensity 0.498
            transparency 0.0
            shininess 0.5
        }
    }
    geometry IndexedFaceSet {
        ccw TRUE
        solid FALSE
        coord DEF co Coordinate {
            point [
                -0.6977 0.4615 0.874, -0.6325 0.4615 0.874, -0.6325 0.4664 0.8734, -0.6977 0.4664 0.8734, -0.6325 0.4709 0.8717, -0.6977 0.4709 0.8717, -0.6325 0.4748 0.8688, -0.6977 0.4748 0.8688, -0.6325 0.478 0.8651, -0.6977 0.478 0.8651, -0.6325 0.4801 0.8608, -0.6977 0.4801 0.8608, -0.6325 0.4812 0.856, -0.6977 0.4812 0.856
            ]
        }
        coordIndex [
            0,1,2,-1,0,2,3,-1,3,2,4,-1,3,4,5,-1,5,4,6,-1,5,6,7,-1,7,6,8,-1,7,8,9,-1,9,8,10,-1,9,10,11,-1,11,10,12,-1,11,12,13,-1,
        ]
    }
}
Shape{
    appearance Appearance {
        material  Material 	{
            diffuseColor 0.20784313725490197 0.20784313725490197 0.20784313725490197
            specularColor 0.01568627450980392 0.01568627450980392 0.01568627450980392
            ambientIntensity 0.298
            transparency 0.0
            shininess 0.5
        }
    }
    geometry IndexedFaceSet {
        ccw TRUE
        solid FALSE
        coord DEF co Coordinate {
            point [
                0.806 0.4615 0.874, 0.806 -0.4615 0.874, 0.8108 -0.4615 0.8734, 0.8256 -0.4615 0.856, 0.8256 0.4615 0.856, 0.8247 -0.4615 0.8607, 0.8247 0.4615 0.8607, 0.8246 -0.4615 0.8608, 0.8246 0.4615 0.8608, 0.8225 -0.4615 0.865, 0.8225 0.4615 0.865, 0.8225 -0.4615 0.8651, 0.8225 0.4615 0.8651, 0.8194 -0.4615 0.8688, 0.8194 0.4615 0.8688, 0.8193 -0.4615 0.8688, 0.8193 0.4615 0.8688, 0.8154 -0.4615 0.8716, 0.8154 0.4615 0.8716, 0.8154 -0.4615 0.8717, 0.8154 0.4615 0.8717, 0.8109 -0.4615 0.8734, 0.8109 0.4615 0.8734, 0.8108 0.4615 0.8734, -0.6325 0.4709 0.8717, -0.6325 0.4664 0.8734, 0.806 0.4664 0.8734, -0.6325 0.4615 0.874, 0.806 0.4664 0.8734, 0.806 0.4709 0.8717, -0.6325 0.4748 0.8688, 0.806 0.4709 0.8716, 0.806 0.4748 0.8688, -0.6325 0.478 0.8651, 0.806 0.4749 0.8688, 0.806 0.478 0.8651, -0.6325 0.4801 0.8608, 0.806 0.4781 0.865, 0.806 0.4801 0.8608, -0.6325 0.4812 0.856, 0.806 0.4802 0.8607, 0.806 0.4812 0.856, 0.8073 0.4662 0.8734, 0.8151 0.464 0.8716, 0.8189 0.465 0.8688, 0.822 0.4658 0.865, 0.824 0.4664 0.8607, 0.8222 0.4709 0.8607, 0.8111 0.4805 0.8564, 0.8158 0.4785 0.8567, 0.8111 0.4804 0.8564, 0.8109 0.4795 0.8607, 0.8249 0.4666 0.8564, 0.8249 0.4666 0.8564, 0.823 0.4713 0.8567, 0.823 0.4713 0.8567, 0.8198 0.4754 0.8567, 0.8103 0.4775 0.865, 0.8203 0.4698 0.865, 0.8192 0.4747 0.8607, 0.8095 0.4745 0.8688, 0.8176 0.4682 0.8688, 0.8177 0.4732 0.865, 0.8085 0.4706 0.8716, 0.8155 0.471 0.8688, 0.8142 0.4662 0.8716, 0.8107 0.4628 0.8734, 0.8158 0.4785 0.8567, 0.8154 0.4777 0.8607, 0.8143 0.4758 0.865, 0.8127 0.4731 0.8688, 0.8107 0.4697 0.8716, 0.8085 0.4657 0.8734, 0.8127 0.4682 0.8716, 0.8102 0.464 0.8734, 0.8095 0.465 0.8734
            ]
        }
        coordIndex [
            0,1,2,-1,3,4,5,-1,5,4,6,-1,5,6,7,-1,7,6,8,-1,7,8,9,-1,9,8,10,-1,9,10,11,-1,11,10,12,-1,11,12,13,-1,13,12,14,-1,13,14,15,-1,15,14,16,-1,15,16,17,-1,17,16,18,-1,17,18,19,-1,19,18,20,-1,19,20,21,-1,21,20,22,-1,21,22,2,-1,2,22,23,-1,2,23,0,-1,24,25,26,-1,26,25,27,-1,26,27,0,-1,26,28,24,-1,24,28,29,-1,24,29,30,-1,29,31,30,-1,30,31,32,-1,30,32,33,-1,32,34,33,-1,33,34,35,-1,33,35,36,-1,35,37,36,-1,36,37,38,-1,36,38,39,-1,39,38,40,-1,39,40,41,-1,26,0,42,-1,20,18,43,-1,16,14,44,-1,45,46,47,-1,48,41,40,-1,49,50,51,-1,51,50,48,-1,52,53,46,-1,46,53,54,-1,46,54,47,-1,47,54,55,-1,47,55,56,-1,4,52,6,-1,6,52,46,-1,6,46,8,-1,8,46,45,-1,8,45,10,-1,10,45,12,-1,48,40,51,-1,51,40,38,-1,51,38,57,-1,14,12,44,-1,44,12,45,-1,44,45,58,-1,58,45,47,-1,58,47,59,-1,59,47,56,-1,38,37,57,-1,57,37,35,-1,57,35,60,-1,18,16,43,-1,43,16,44,-1,43,44,61,-1,61,44,58,-1,61,58,62,-1,62,58,59,-1,35,34,60,-1,60,34,32,-1,60,32,63,-1,62,64,61,-1,61,64,65,-1,61,65,43,-1,43,65,66,-1,43,66,20,-1,67,49,68,-1,68,49,51,-1,68,51,69,-1,69,51,57,-1,69,57,70,-1,70,57,60,-1,70,60,71,-1,71,60,63,-1,71,63,72,-1,72,63,42,-1,72,42,0,-1,0,23,66,-1,66,23,22,-1,66,22,20,-1,64,73,65,-1,65,73,74,-1,65,74,66,-1,66,74,0,-1,73,75,74,-1,74,75,0,-1,32,31,63,-1,63,31,29,-1,63,29,42,-1,42,29,28,-1,42,28,26,-1,56,67,59,-1,59,67,68,-1,59,68,62,-1,62,68,69,-1,62,69,64,-1,64,69,70,-1,64,70,73,-1,73,70,71,-1,73,71,75,-1,75,71,72,-1,75,72,0,-1,
        ]
    }
}