%TF.GenerationSoftware,KiCad,Pcbnew,10.0.3-10.0.3~ubuntu24.04.1*%
%TF.CreationDate,2026-06-05T22:04:01+00:00*%
%TF.ProjectId,hub-standard,6875622d-7374-4616-9e64-6172642e6b69,rev?*%
%TF.SameCoordinates,Original*%
%TF.FileFunction,Legend,Top*%
%TF.FilePolarity,Positive*%
%FSLAX46Y46*%
G04 Gerber Fmt 4.6, Leading zero omitted, Abs format (unit mm)*
G04 Created by KiCad (PCBNEW 10.0.3-10.0.3~ubuntu24.04.1) date 2026-06-05 22:04:01*
%MOMM*%
%LPD*%
G01*
G04 APERTURE LIST*
%ADD10C,0.250000*%
%ADD11C,0.150000*%
%ADD12C,0.200000*%
%ADD13C,0.120000*%
%ADD14C,0.060000*%
%ADD15C,0.400000*%
G04 APERTURE END LIST*
D10*
X136723996Y-161519380D02*
X136676377Y-161567000D01*
X136676377Y-161567000D02*
X136533520Y-161614619D01*
X136533520Y-161614619D02*
X136438282Y-161614619D01*
X136438282Y-161614619D02*
X136295425Y-161567000D01*
X136295425Y-161567000D02*
X136200187Y-161471761D01*
X136200187Y-161471761D02*
X136152568Y-161376523D01*
X136152568Y-161376523D02*
X136104949Y-161186047D01*
X136104949Y-161186047D02*
X136104949Y-161043190D01*
X136104949Y-161043190D02*
X136152568Y-160852714D01*
X136152568Y-160852714D02*
X136200187Y-160757476D01*
X136200187Y-160757476D02*
X136295425Y-160662238D01*
X136295425Y-160662238D02*
X136438282Y-160614619D01*
X136438282Y-160614619D02*
X136533520Y-160614619D01*
X136533520Y-160614619D02*
X136676377Y-160662238D01*
X136676377Y-160662238D02*
X136723996Y-160709857D01*
X137152568Y-161090809D02*
X137485901Y-161090809D01*
X137628758Y-161614619D02*
X137152568Y-161614619D01*
X137152568Y-161614619D02*
X137152568Y-160614619D01*
X137152568Y-160614619D02*
X137628758Y-160614619D01*
X138628758Y-161519380D02*
X138581139Y-161567000D01*
X138581139Y-161567000D02*
X138438282Y-161614619D01*
X138438282Y-161614619D02*
X138343044Y-161614619D01*
X138343044Y-161614619D02*
X138200187Y-161567000D01*
X138200187Y-161567000D02*
X138104949Y-161471761D01*
X138104949Y-161471761D02*
X138057330Y-161376523D01*
X138057330Y-161376523D02*
X138009711Y-161186047D01*
X138009711Y-161186047D02*
X138009711Y-161043190D01*
X138009711Y-161043190D02*
X138057330Y-160852714D01*
X138057330Y-160852714D02*
X138104949Y-160757476D01*
X138104949Y-160757476D02*
X138200187Y-160662238D01*
X138200187Y-160662238D02*
X138343044Y-160614619D01*
X138343044Y-160614619D02*
X138438282Y-160614619D01*
X138438282Y-160614619D02*
X138581139Y-160662238D01*
X138581139Y-160662238D02*
X138628758Y-160709857D01*
X139819235Y-161614619D02*
X139819235Y-160614619D01*
X139819235Y-161090809D02*
X140390663Y-161090809D01*
X140390663Y-161614619D02*
X140390663Y-160614619D01*
X140866854Y-160614619D02*
X140866854Y-161424142D01*
X140866854Y-161424142D02*
X140914473Y-161519380D01*
X140914473Y-161519380D02*
X140962092Y-161567000D01*
X140962092Y-161567000D02*
X141057330Y-161614619D01*
X141057330Y-161614619D02*
X141247806Y-161614619D01*
X141247806Y-161614619D02*
X141343044Y-161567000D01*
X141343044Y-161567000D02*
X141390663Y-161519380D01*
X141390663Y-161519380D02*
X141438282Y-161424142D01*
X141438282Y-161424142D02*
X141438282Y-160614619D01*
X142247806Y-161090809D02*
X142390663Y-161138428D01*
X142390663Y-161138428D02*
X142438282Y-161186047D01*
X142438282Y-161186047D02*
X142485901Y-161281285D01*
X142485901Y-161281285D02*
X142485901Y-161424142D01*
X142485901Y-161424142D02*
X142438282Y-161519380D01*
X142438282Y-161519380D02*
X142390663Y-161567000D01*
X142390663Y-161567000D02*
X142295425Y-161614619D01*
X142295425Y-161614619D02*
X141914473Y-161614619D01*
X141914473Y-161614619D02*
X141914473Y-160614619D01*
X141914473Y-160614619D02*
X142247806Y-160614619D01*
X142247806Y-160614619D02*
X142343044Y-160662238D01*
X142343044Y-160662238D02*
X142390663Y-160709857D01*
X142390663Y-160709857D02*
X142438282Y-160805095D01*
X142438282Y-160805095D02*
X142438282Y-160900333D01*
X142438282Y-160900333D02*
X142390663Y-160995571D01*
X142390663Y-160995571D02*
X142343044Y-161043190D01*
X142343044Y-161043190D02*
X142247806Y-161090809D01*
X142247806Y-161090809D02*
X141914473Y-161090809D01*
X143676378Y-161614619D02*
X143676378Y-160614619D01*
X143676378Y-160614619D02*
X144057330Y-160614619D01*
X144057330Y-160614619D02*
X144152568Y-160662238D01*
X144152568Y-160662238D02*
X144200187Y-160709857D01*
X144200187Y-160709857D02*
X144247806Y-160805095D01*
X144247806Y-160805095D02*
X144247806Y-160947952D01*
X144247806Y-160947952D02*
X144200187Y-161043190D01*
X144200187Y-161043190D02*
X144152568Y-161090809D01*
X144152568Y-161090809D02*
X144057330Y-161138428D01*
X144057330Y-161138428D02*
X143676378Y-161138428D01*
X145247806Y-161614619D02*
X144914473Y-161138428D01*
X144676378Y-161614619D02*
X144676378Y-160614619D01*
X144676378Y-160614619D02*
X145057330Y-160614619D01*
X145057330Y-160614619D02*
X145152568Y-160662238D01*
X145152568Y-160662238D02*
X145200187Y-160709857D01*
X145200187Y-160709857D02*
X145247806Y-160805095D01*
X145247806Y-160805095D02*
X145247806Y-160947952D01*
X145247806Y-160947952D02*
X145200187Y-161043190D01*
X145200187Y-161043190D02*
X145152568Y-161090809D01*
X145152568Y-161090809D02*
X145057330Y-161138428D01*
X145057330Y-161138428D02*
X144676378Y-161138428D01*
X145866854Y-160614619D02*
X146057330Y-160614619D01*
X146057330Y-160614619D02*
X146152568Y-160662238D01*
X146152568Y-160662238D02*
X146247806Y-160757476D01*
X146247806Y-160757476D02*
X146295425Y-160947952D01*
X146295425Y-160947952D02*
X146295425Y-161281285D01*
X146295425Y-161281285D02*
X146247806Y-161471761D01*
X146247806Y-161471761D02*
X146152568Y-161567000D01*
X146152568Y-161567000D02*
X146057330Y-161614619D01*
X146057330Y-161614619D02*
X145866854Y-161614619D01*
X145866854Y-161614619D02*
X145771616Y-161567000D01*
X145771616Y-161567000D02*
X145676378Y-161471761D01*
X145676378Y-161471761D02*
X145628759Y-161281285D01*
X145628759Y-161281285D02*
X145628759Y-160947952D01*
X145628759Y-160947952D02*
X145676378Y-160757476D01*
X145676378Y-160757476D02*
X145771616Y-160662238D01*
X145771616Y-160662238D02*
X145866854Y-160614619D01*
X146581140Y-160614619D02*
X147152568Y-160614619D01*
X146866854Y-161614619D02*
X146866854Y-160614619D01*
X147676378Y-160614619D02*
X147866854Y-160614619D01*
X147866854Y-160614619D02*
X147962092Y-160662238D01*
X147962092Y-160662238D02*
X148057330Y-160757476D01*
X148057330Y-160757476D02*
X148104949Y-160947952D01*
X148104949Y-160947952D02*
X148104949Y-161281285D01*
X148104949Y-161281285D02*
X148057330Y-161471761D01*
X148057330Y-161471761D02*
X147962092Y-161567000D01*
X147962092Y-161567000D02*
X147866854Y-161614619D01*
X147866854Y-161614619D02*
X147676378Y-161614619D01*
X147676378Y-161614619D02*
X147581140Y-161567000D01*
X147581140Y-161567000D02*
X147485902Y-161471761D01*
X147485902Y-161471761D02*
X147438283Y-161281285D01*
X147438283Y-161281285D02*
X147438283Y-160947952D01*
X147438283Y-160947952D02*
X147485902Y-160757476D01*
X147485902Y-160757476D02*
X147581140Y-160662238D01*
X147581140Y-160662238D02*
X147676378Y-160614619D01*
X148390664Y-160614619D02*
X148962092Y-160614619D01*
X148676378Y-161614619D02*
X148676378Y-160614619D01*
X149485902Y-161138428D02*
X149485902Y-161614619D01*
X149152569Y-160614619D02*
X149485902Y-161138428D01*
X149485902Y-161138428D02*
X149819235Y-160614619D01*
X150152569Y-161614619D02*
X150152569Y-160614619D01*
X150152569Y-160614619D02*
X150533521Y-160614619D01*
X150533521Y-160614619D02*
X150628759Y-160662238D01*
X150628759Y-160662238D02*
X150676378Y-160709857D01*
X150676378Y-160709857D02*
X150723997Y-160805095D01*
X150723997Y-160805095D02*
X150723997Y-160947952D01*
X150723997Y-160947952D02*
X150676378Y-161043190D01*
X150676378Y-161043190D02*
X150628759Y-161090809D01*
X150628759Y-161090809D02*
X150533521Y-161138428D01*
X150533521Y-161138428D02*
X150152569Y-161138428D01*
X151152569Y-161090809D02*
X151485902Y-161090809D01*
X151628759Y-161614619D02*
X151152569Y-161614619D01*
X151152569Y-161614619D02*
X151152569Y-160614619D01*
X151152569Y-160614619D02*
X151628759Y-160614619D01*
X152676379Y-160614619D02*
X153009712Y-161614619D01*
X153009712Y-161614619D02*
X153343045Y-160614619D01*
X154200188Y-161614619D02*
X153628760Y-161614619D01*
X153914474Y-161614619D02*
X153914474Y-160614619D01*
X153914474Y-160614619D02*
X153819236Y-160757476D01*
X153819236Y-160757476D02*
X153723998Y-160852714D01*
X153723998Y-160852714D02*
X153628760Y-160900333D01*
X155343046Y-161567000D02*
X155485903Y-161614619D01*
X155485903Y-161614619D02*
X155723998Y-161614619D01*
X155723998Y-161614619D02*
X155819236Y-161567000D01*
X155819236Y-161567000D02*
X155866855Y-161519380D01*
X155866855Y-161519380D02*
X155914474Y-161424142D01*
X155914474Y-161424142D02*
X155914474Y-161328904D01*
X155914474Y-161328904D02*
X155866855Y-161233666D01*
X155866855Y-161233666D02*
X155819236Y-161186047D01*
X155819236Y-161186047D02*
X155723998Y-161138428D01*
X155723998Y-161138428D02*
X155533522Y-161090809D01*
X155533522Y-161090809D02*
X155438284Y-161043190D01*
X155438284Y-161043190D02*
X155390665Y-160995571D01*
X155390665Y-160995571D02*
X155343046Y-160900333D01*
X155343046Y-160900333D02*
X155343046Y-160805095D01*
X155343046Y-160805095D02*
X155390665Y-160709857D01*
X155390665Y-160709857D02*
X155438284Y-160662238D01*
X155438284Y-160662238D02*
X155533522Y-160614619D01*
X155533522Y-160614619D02*
X155771617Y-160614619D01*
X155771617Y-160614619D02*
X155914474Y-160662238D01*
X156200189Y-160614619D02*
X156771617Y-160614619D01*
X156485903Y-161614619D02*
X156485903Y-160614619D01*
X157104951Y-161090809D02*
X157438284Y-161090809D01*
X157581141Y-161614619D02*
X157104951Y-161614619D01*
X157104951Y-161614619D02*
X157104951Y-160614619D01*
X157104951Y-160614619D02*
X157581141Y-160614619D01*
X158009713Y-161614619D02*
X158009713Y-160614619D01*
X158009713Y-160614619D02*
X158390665Y-160614619D01*
X158390665Y-160614619D02*
X158485903Y-160662238D01*
X158485903Y-160662238D02*
X158533522Y-160709857D01*
X158533522Y-160709857D02*
X158581141Y-160805095D01*
X158581141Y-160805095D02*
X158581141Y-160947952D01*
X158581141Y-160947952D02*
X158533522Y-161043190D01*
X158533522Y-161043190D02*
X158485903Y-161090809D01*
X158485903Y-161090809D02*
X158390665Y-161138428D01*
X158390665Y-161138428D02*
X158009713Y-161138428D01*
D11*
X144488095Y-118054821D02*
X144488095Y-118864344D01*
X144488095Y-118864344D02*
X144535714Y-118959582D01*
X144535714Y-118959582D02*
X144583333Y-119007202D01*
X144583333Y-119007202D02*
X144678571Y-119054821D01*
X144678571Y-119054821D02*
X144869047Y-119054821D01*
X144869047Y-119054821D02*
X144964285Y-119007202D01*
X144964285Y-119007202D02*
X145011904Y-118959582D01*
X145011904Y-118959582D02*
X145059523Y-118864344D01*
X145059523Y-118864344D02*
X145059523Y-118054821D01*
X145440476Y-118054821D02*
X146107142Y-118054821D01*
X146107142Y-118054821D02*
X145678571Y-119054821D01*
X105857142Y-123284819D02*
X105523809Y-122808628D01*
X105285714Y-123284819D02*
X105285714Y-122284819D01*
X105285714Y-122284819D02*
X105666666Y-122284819D01*
X105666666Y-122284819D02*
X105761904Y-122332438D01*
X105761904Y-122332438D02*
X105809523Y-122380057D01*
X105809523Y-122380057D02*
X105857142Y-122475295D01*
X105857142Y-122475295D02*
X105857142Y-122618152D01*
X105857142Y-122618152D02*
X105809523Y-122713390D01*
X105809523Y-122713390D02*
X105761904Y-122761009D01*
X105761904Y-122761009D02*
X105666666Y-122808628D01*
X105666666Y-122808628D02*
X105285714Y-122808628D01*
X106809523Y-123284819D02*
X106238095Y-123284819D01*
X106523809Y-123284819D02*
X106523809Y-122284819D01*
X106523809Y-122284819D02*
X106428571Y-122427676D01*
X106428571Y-122427676D02*
X106333333Y-122522914D01*
X106333333Y-122522914D02*
X106238095Y-122570533D01*
X107666666Y-122618152D02*
X107666666Y-123284819D01*
X107428571Y-122237200D02*
X107190476Y-122951485D01*
X107190476Y-122951485D02*
X107809523Y-122951485D01*
X78928571Y-107931009D02*
X78595238Y-107931009D01*
X78595238Y-108454819D02*
X78595238Y-107454819D01*
X78595238Y-107454819D02*
X79071428Y-107454819D01*
X79452381Y-108454819D02*
X79452381Y-107454819D01*
X79928571Y-108454819D02*
X79928571Y-107454819D01*
X79928571Y-107454819D02*
X80166666Y-107454819D01*
X80166666Y-107454819D02*
X80309523Y-107502438D01*
X80309523Y-107502438D02*
X80404761Y-107597676D01*
X80404761Y-107597676D02*
X80452380Y-107692914D01*
X80452380Y-107692914D02*
X80499999Y-107883390D01*
X80499999Y-107883390D02*
X80499999Y-108026247D01*
X80499999Y-108026247D02*
X80452380Y-108216723D01*
X80452380Y-108216723D02*
X80404761Y-108311961D01*
X80404761Y-108311961D02*
X80309523Y-108407200D01*
X80309523Y-108407200D02*
X80166666Y-108454819D01*
X80166666Y-108454819D02*
X79928571Y-108454819D01*
X81452380Y-108454819D02*
X80880952Y-108454819D01*
X81166666Y-108454819D02*
X81166666Y-107454819D01*
X81166666Y-107454819D02*
X81071428Y-107597676D01*
X81071428Y-107597676D02*
X80976190Y-107692914D01*
X80976190Y-107692914D02*
X80880952Y-107740533D01*
X161880952Y-108454819D02*
X161880952Y-109169104D01*
X161880952Y-109169104D02*
X161833333Y-109311961D01*
X161833333Y-109311961D02*
X161738095Y-109407200D01*
X161738095Y-109407200D02*
X161595238Y-109454819D01*
X161595238Y-109454819D02*
X161500000Y-109454819D01*
X162119048Y-109550057D02*
X162880952Y-109550057D01*
X163595238Y-108454819D02*
X163119048Y-108454819D01*
X163119048Y-108454819D02*
X163071429Y-108931009D01*
X163071429Y-108931009D02*
X163119048Y-108883390D01*
X163119048Y-108883390D02*
X163214286Y-108835771D01*
X163214286Y-108835771D02*
X163452381Y-108835771D01*
X163452381Y-108835771D02*
X163547619Y-108883390D01*
X163547619Y-108883390D02*
X163595238Y-108931009D01*
X163595238Y-108931009D02*
X163642857Y-109026247D01*
X163642857Y-109026247D02*
X163642857Y-109264342D01*
X163642857Y-109264342D02*
X163595238Y-109359580D01*
X163595238Y-109359580D02*
X163547619Y-109407200D01*
X163547619Y-109407200D02*
X163452381Y-109454819D01*
X163452381Y-109454819D02*
X163214286Y-109454819D01*
X163214286Y-109454819D02*
X163119048Y-109407200D01*
X163119048Y-109407200D02*
X163071429Y-109359580D01*
X163928572Y-108454819D02*
X164261905Y-109454819D01*
X164261905Y-109454819D02*
X164595238Y-108454819D01*
X164880953Y-109407200D02*
X165023810Y-109454819D01*
X165023810Y-109454819D02*
X165261905Y-109454819D01*
X165261905Y-109454819D02*
X165357143Y-109407200D01*
X165357143Y-109407200D02*
X165404762Y-109359580D01*
X165404762Y-109359580D02*
X165452381Y-109264342D01*
X165452381Y-109264342D02*
X165452381Y-109169104D01*
X165452381Y-109169104D02*
X165404762Y-109073866D01*
X165404762Y-109073866D02*
X165357143Y-109026247D01*
X165357143Y-109026247D02*
X165261905Y-108978628D01*
X165261905Y-108978628D02*
X165071429Y-108931009D01*
X165071429Y-108931009D02*
X164976191Y-108883390D01*
X164976191Y-108883390D02*
X164928572Y-108835771D01*
X164928572Y-108835771D02*
X164880953Y-108740533D01*
X164880953Y-108740533D02*
X164880953Y-108645295D01*
X164880953Y-108645295D02*
X164928572Y-108550057D01*
X164928572Y-108550057D02*
X164976191Y-108502438D01*
X164976191Y-108502438D02*
X165071429Y-108454819D01*
X165071429Y-108454819D02*
X165309524Y-108454819D01*
X165309524Y-108454819D02*
X165452381Y-108502438D01*
X166214286Y-108931009D02*
X166357143Y-108978628D01*
X166357143Y-108978628D02*
X166404762Y-109026247D01*
X166404762Y-109026247D02*
X166452381Y-109121485D01*
X166452381Y-109121485D02*
X166452381Y-109264342D01*
X166452381Y-109264342D02*
X166404762Y-109359580D01*
X166404762Y-109359580D02*
X166357143Y-109407200D01*
X166357143Y-109407200D02*
X166261905Y-109454819D01*
X166261905Y-109454819D02*
X165880953Y-109454819D01*
X165880953Y-109454819D02*
X165880953Y-108454819D01*
X165880953Y-108454819D02*
X166214286Y-108454819D01*
X166214286Y-108454819D02*
X166309524Y-108502438D01*
X166309524Y-108502438D02*
X166357143Y-108550057D01*
X166357143Y-108550057D02*
X166404762Y-108645295D01*
X166404762Y-108645295D02*
X166404762Y-108740533D01*
X166404762Y-108740533D02*
X166357143Y-108835771D01*
X166357143Y-108835771D02*
X166309524Y-108883390D01*
X166309524Y-108883390D02*
X166214286Y-108931009D01*
X166214286Y-108931009D02*
X165880953Y-108931009D01*
X158954819Y-110999999D02*
X158478628Y-111333332D01*
X158954819Y-111571427D02*
X157954819Y-111571427D01*
X157954819Y-111571427D02*
X157954819Y-111190475D01*
X157954819Y-111190475D02*
X158002438Y-111095237D01*
X158002438Y-111095237D02*
X158050057Y-111047618D01*
X158050057Y-111047618D02*
X158145295Y-110999999D01*
X158145295Y-110999999D02*
X158288152Y-110999999D01*
X158288152Y-110999999D02*
X158383390Y-111047618D01*
X158383390Y-111047618D02*
X158431009Y-111095237D01*
X158431009Y-111095237D02*
X158478628Y-111190475D01*
X158478628Y-111190475D02*
X158478628Y-111571427D01*
X159050057Y-110809523D02*
X159050057Y-110047618D01*
X158954819Y-109809522D02*
X157954819Y-109809522D01*
X158954819Y-108857142D02*
X158954819Y-109333332D01*
X158954819Y-109333332D02*
X157954819Y-109333332D01*
X158954819Y-108523808D02*
X157954819Y-108523808D01*
X158954819Y-108047618D02*
X157954819Y-108047618D01*
X157954819Y-108047618D02*
X158669104Y-107714285D01*
X158669104Y-107714285D02*
X157954819Y-107380952D01*
X157954819Y-107380952D02*
X158954819Y-107380952D01*
X158954819Y-106380952D02*
X158954819Y-106952380D01*
X158954819Y-106666666D02*
X157954819Y-106666666D01*
X157954819Y-106666666D02*
X158097676Y-106761904D01*
X158097676Y-106761904D02*
X158192914Y-106857142D01*
X158192914Y-106857142D02*
X158240533Y-106952380D01*
X127857143Y-133204819D02*
X127857143Y-132204819D01*
X127857143Y-132204819D02*
X128095238Y-132204819D01*
X128095238Y-132204819D02*
X128238095Y-132252438D01*
X128238095Y-132252438D02*
X128333333Y-132347676D01*
X128333333Y-132347676D02*
X128380952Y-132442914D01*
X128380952Y-132442914D02*
X128428571Y-132633390D01*
X128428571Y-132633390D02*
X128428571Y-132776247D01*
X128428571Y-132776247D02*
X128380952Y-132966723D01*
X128380952Y-132966723D02*
X128333333Y-133061961D01*
X128333333Y-133061961D02*
X128238095Y-133157200D01*
X128238095Y-133157200D02*
X128095238Y-133204819D01*
X128095238Y-133204819D02*
X127857143Y-133204819D01*
X129333333Y-133204819D02*
X128857143Y-133204819D01*
X128857143Y-133204819D02*
X128857143Y-132204819D01*
X129571429Y-132204819D02*
X130190476Y-132204819D01*
X130190476Y-132204819D02*
X129857143Y-132585771D01*
X129857143Y-132585771D02*
X130000000Y-132585771D01*
X130000000Y-132585771D02*
X130095238Y-132633390D01*
X130095238Y-132633390D02*
X130142857Y-132681009D01*
X130142857Y-132681009D02*
X130190476Y-132776247D01*
X130190476Y-132776247D02*
X130190476Y-133014342D01*
X130190476Y-133014342D02*
X130142857Y-133109580D01*
X130142857Y-133109580D02*
X130095238Y-133157200D01*
X130095238Y-133157200D02*
X130000000Y-133204819D01*
X130000000Y-133204819D02*
X129714286Y-133204819D01*
X129714286Y-133204819D02*
X129619048Y-133157200D01*
X129619048Y-133157200D02*
X129571429Y-133109580D01*
X126028571Y-134987295D02*
X125571428Y-134987295D01*
X125800000Y-134987295D02*
X125800000Y-134187295D01*
X125800000Y-134187295D02*
X125723809Y-134301580D01*
X125723809Y-134301580D02*
X125647619Y-134377771D01*
X125647619Y-134377771D02*
X125571428Y-134415866D01*
X139261905Y-112954819D02*
X139261905Y-111954819D01*
X139261905Y-111954819D02*
X139500000Y-111954819D01*
X139500000Y-111954819D02*
X139642857Y-112002438D01*
X139642857Y-112002438D02*
X139738095Y-112097676D01*
X139738095Y-112097676D02*
X139785714Y-112192914D01*
X139785714Y-112192914D02*
X139833333Y-112383390D01*
X139833333Y-112383390D02*
X139833333Y-112526247D01*
X139833333Y-112526247D02*
X139785714Y-112716723D01*
X139785714Y-112716723D02*
X139738095Y-112811961D01*
X139738095Y-112811961D02*
X139642857Y-112907200D01*
X139642857Y-112907200D02*
X139500000Y-112954819D01*
X139500000Y-112954819D02*
X139261905Y-112954819D01*
X140738095Y-111954819D02*
X140261905Y-111954819D01*
X140261905Y-111954819D02*
X140214286Y-112431009D01*
X140214286Y-112431009D02*
X140261905Y-112383390D01*
X140261905Y-112383390D02*
X140357143Y-112335771D01*
X140357143Y-112335771D02*
X140595238Y-112335771D01*
X140595238Y-112335771D02*
X140690476Y-112383390D01*
X140690476Y-112383390D02*
X140738095Y-112431009D01*
X140738095Y-112431009D02*
X140785714Y-112526247D01*
X140785714Y-112526247D02*
X140785714Y-112764342D01*
X140785714Y-112764342D02*
X140738095Y-112859580D01*
X140738095Y-112859580D02*
X140690476Y-112907200D01*
X140690476Y-112907200D02*
X140595238Y-112954819D01*
X140595238Y-112954819D02*
X140357143Y-112954819D01*
X140357143Y-112954819D02*
X140261905Y-112907200D01*
X140261905Y-112907200D02*
X140214286Y-112859580D01*
X101054819Y-114261904D02*
X101864342Y-114261904D01*
X101864342Y-114261904D02*
X101959580Y-114214285D01*
X101959580Y-114214285D02*
X102007200Y-114166666D01*
X102007200Y-114166666D02*
X102054819Y-114071428D01*
X102054819Y-114071428D02*
X102054819Y-113880952D01*
X102054819Y-113880952D02*
X102007200Y-113785714D01*
X102007200Y-113785714D02*
X101959580Y-113738095D01*
X101959580Y-113738095D02*
X101864342Y-113690476D01*
X101864342Y-113690476D02*
X101054819Y-113690476D01*
X101150057Y-113261904D02*
X101102438Y-113214285D01*
X101102438Y-113214285D02*
X101054819Y-113119047D01*
X101054819Y-113119047D02*
X101054819Y-112880952D01*
X101054819Y-112880952D02*
X101102438Y-112785714D01*
X101102438Y-112785714D02*
X101150057Y-112738095D01*
X101150057Y-112738095D02*
X101245295Y-112690476D01*
X101245295Y-112690476D02*
X101340533Y-112690476D01*
X101340533Y-112690476D02*
X101483390Y-112738095D01*
X101483390Y-112738095D02*
X102054819Y-113309523D01*
X102054819Y-113309523D02*
X102054819Y-112690476D01*
X109504166Y-106054819D02*
X109504166Y-106769104D01*
X109504166Y-106769104D02*
X109456547Y-106911961D01*
X109456547Y-106911961D02*
X109361309Y-107007200D01*
X109361309Y-107007200D02*
X109218452Y-107054819D01*
X109218452Y-107054819D02*
X109123214Y-107054819D01*
X109885119Y-106054819D02*
X110504166Y-106054819D01*
X110504166Y-106054819D02*
X110170833Y-106435771D01*
X110170833Y-106435771D02*
X110313690Y-106435771D01*
X110313690Y-106435771D02*
X110408928Y-106483390D01*
X110408928Y-106483390D02*
X110456547Y-106531009D01*
X110456547Y-106531009D02*
X110504166Y-106626247D01*
X110504166Y-106626247D02*
X110504166Y-106864342D01*
X110504166Y-106864342D02*
X110456547Y-106959580D01*
X110456547Y-106959580D02*
X110408928Y-107007200D01*
X110408928Y-107007200D02*
X110313690Y-107054819D01*
X110313690Y-107054819D02*
X110027976Y-107054819D01*
X110027976Y-107054819D02*
X109932738Y-107007200D01*
X109932738Y-107007200D02*
X109885119Y-106959580D01*
X106833333Y-107954819D02*
X106500000Y-107478628D01*
X106261905Y-107954819D02*
X106261905Y-106954819D01*
X106261905Y-106954819D02*
X106642857Y-106954819D01*
X106642857Y-106954819D02*
X106738095Y-107002438D01*
X106738095Y-107002438D02*
X106785714Y-107050057D01*
X106785714Y-107050057D02*
X106833333Y-107145295D01*
X106833333Y-107145295D02*
X106833333Y-107288152D01*
X106833333Y-107288152D02*
X106785714Y-107383390D01*
X106785714Y-107383390D02*
X106738095Y-107431009D01*
X106738095Y-107431009D02*
X106642857Y-107478628D01*
X106642857Y-107478628D02*
X106261905Y-107478628D01*
X107690476Y-107288152D02*
X107690476Y-107954819D01*
X107452381Y-106907200D02*
X107214286Y-107621485D01*
X107214286Y-107621485D02*
X107833333Y-107621485D01*
X159954819Y-116892857D02*
X159478628Y-117226190D01*
X159954819Y-117464285D02*
X158954819Y-117464285D01*
X158954819Y-117464285D02*
X158954819Y-117083333D01*
X158954819Y-117083333D02*
X159002438Y-116988095D01*
X159002438Y-116988095D02*
X159050057Y-116940476D01*
X159050057Y-116940476D02*
X159145295Y-116892857D01*
X159145295Y-116892857D02*
X159288152Y-116892857D01*
X159288152Y-116892857D02*
X159383390Y-116940476D01*
X159383390Y-116940476D02*
X159431009Y-116988095D01*
X159431009Y-116988095D02*
X159478628Y-117083333D01*
X159478628Y-117083333D02*
X159478628Y-117464285D01*
X159954819Y-115940476D02*
X159954819Y-116511904D01*
X159954819Y-116226190D02*
X158954819Y-116226190D01*
X158954819Y-116226190D02*
X159097676Y-116321428D01*
X159097676Y-116321428D02*
X159192914Y-116416666D01*
X159192914Y-116416666D02*
X159240533Y-116511904D01*
X159383390Y-115369047D02*
X159335771Y-115464285D01*
X159335771Y-115464285D02*
X159288152Y-115511904D01*
X159288152Y-115511904D02*
X159192914Y-115559523D01*
X159192914Y-115559523D02*
X159145295Y-115559523D01*
X159145295Y-115559523D02*
X159050057Y-115511904D01*
X159050057Y-115511904D02*
X159002438Y-115464285D01*
X159002438Y-115464285D02*
X158954819Y-115369047D01*
X158954819Y-115369047D02*
X158954819Y-115178571D01*
X158954819Y-115178571D02*
X159002438Y-115083333D01*
X159002438Y-115083333D02*
X159050057Y-115035714D01*
X159050057Y-115035714D02*
X159145295Y-114988095D01*
X159145295Y-114988095D02*
X159192914Y-114988095D01*
X159192914Y-114988095D02*
X159288152Y-115035714D01*
X159288152Y-115035714D02*
X159335771Y-115083333D01*
X159335771Y-115083333D02*
X159383390Y-115178571D01*
X159383390Y-115178571D02*
X159383390Y-115369047D01*
X159383390Y-115369047D02*
X159431009Y-115464285D01*
X159431009Y-115464285D02*
X159478628Y-115511904D01*
X159478628Y-115511904D02*
X159573866Y-115559523D01*
X159573866Y-115559523D02*
X159764342Y-115559523D01*
X159764342Y-115559523D02*
X159859580Y-115511904D01*
X159859580Y-115511904D02*
X159907200Y-115464285D01*
X159907200Y-115464285D02*
X159954819Y-115369047D01*
X159954819Y-115369047D02*
X159954819Y-115178571D01*
X159954819Y-115178571D02*
X159907200Y-115083333D01*
X159907200Y-115083333D02*
X159859580Y-115035714D01*
X159859580Y-115035714D02*
X159764342Y-114988095D01*
X159764342Y-114988095D02*
X159573866Y-114988095D01*
X159573866Y-114988095D02*
X159478628Y-115035714D01*
X159478628Y-115035714D02*
X159431009Y-115083333D01*
X159431009Y-115083333D02*
X159383390Y-115178571D01*
X70690476Y-163454819D02*
X70690476Y-162454819D01*
X70690476Y-162454819D02*
X71023809Y-163169104D01*
X71023809Y-163169104D02*
X71357142Y-162454819D01*
X71357142Y-162454819D02*
X71357142Y-163454819D01*
X71738095Y-162454819D02*
X72357142Y-162454819D01*
X72357142Y-162454819D02*
X72023809Y-162835771D01*
X72023809Y-162835771D02*
X72166666Y-162835771D01*
X72166666Y-162835771D02*
X72261904Y-162883390D01*
X72261904Y-162883390D02*
X72309523Y-162931009D01*
X72309523Y-162931009D02*
X72357142Y-163026247D01*
X72357142Y-163026247D02*
X72357142Y-163264342D01*
X72357142Y-163264342D02*
X72309523Y-163359580D01*
X72309523Y-163359580D02*
X72261904Y-163407200D01*
X72261904Y-163407200D02*
X72166666Y-163454819D01*
X72166666Y-163454819D02*
X71880952Y-163454819D01*
X71880952Y-163454819D02*
X71785714Y-163407200D01*
X71785714Y-163407200D02*
X71738095Y-163359580D01*
X165190476Y-92204819D02*
X165190476Y-91204819D01*
X165190476Y-91204819D02*
X165523809Y-91919104D01*
X165523809Y-91919104D02*
X165857142Y-91204819D01*
X165857142Y-91204819D02*
X165857142Y-92204819D01*
X166285714Y-91300057D02*
X166333333Y-91252438D01*
X166333333Y-91252438D02*
X166428571Y-91204819D01*
X166428571Y-91204819D02*
X166666666Y-91204819D01*
X166666666Y-91204819D02*
X166761904Y-91252438D01*
X166761904Y-91252438D02*
X166809523Y-91300057D01*
X166809523Y-91300057D02*
X166857142Y-91395295D01*
X166857142Y-91395295D02*
X166857142Y-91490533D01*
X166857142Y-91490533D02*
X166809523Y-91633390D01*
X166809523Y-91633390D02*
X166238095Y-92204819D01*
X166238095Y-92204819D02*
X166857142Y-92204819D01*
X151738095Y-113454819D02*
X151738095Y-114264342D01*
X151738095Y-114264342D02*
X151785714Y-114359580D01*
X151785714Y-114359580D02*
X151833333Y-114407200D01*
X151833333Y-114407200D02*
X151928571Y-114454819D01*
X151928571Y-114454819D02*
X152119047Y-114454819D01*
X152119047Y-114454819D02*
X152214285Y-114407200D01*
X152214285Y-114407200D02*
X152261904Y-114359580D01*
X152261904Y-114359580D02*
X152309523Y-114264342D01*
X152309523Y-114264342D02*
X152309523Y-113454819D01*
X153261904Y-113454819D02*
X152785714Y-113454819D01*
X152785714Y-113454819D02*
X152738095Y-113931009D01*
X152738095Y-113931009D02*
X152785714Y-113883390D01*
X152785714Y-113883390D02*
X152880952Y-113835771D01*
X152880952Y-113835771D02*
X153119047Y-113835771D01*
X153119047Y-113835771D02*
X153214285Y-113883390D01*
X153214285Y-113883390D02*
X153261904Y-113931009D01*
X153261904Y-113931009D02*
X153309523Y-114026247D01*
X153309523Y-114026247D02*
X153309523Y-114264342D01*
X153309523Y-114264342D02*
X153261904Y-114359580D01*
X153261904Y-114359580D02*
X153214285Y-114407200D01*
X153214285Y-114407200D02*
X153119047Y-114454819D01*
X153119047Y-114454819D02*
X152880952Y-114454819D01*
X152880952Y-114454819D02*
X152785714Y-114407200D01*
X152785714Y-114407200D02*
X152738095Y-114359580D01*
X83833333Y-108284819D02*
X83500000Y-107808628D01*
X83261905Y-108284819D02*
X83261905Y-107284819D01*
X83261905Y-107284819D02*
X83642857Y-107284819D01*
X83642857Y-107284819D02*
X83738095Y-107332438D01*
X83738095Y-107332438D02*
X83785714Y-107380057D01*
X83785714Y-107380057D02*
X83833333Y-107475295D01*
X83833333Y-107475295D02*
X83833333Y-107618152D01*
X83833333Y-107618152D02*
X83785714Y-107713390D01*
X83785714Y-107713390D02*
X83738095Y-107761009D01*
X83738095Y-107761009D02*
X83642857Y-107808628D01*
X83642857Y-107808628D02*
X83261905Y-107808628D01*
X84738095Y-107284819D02*
X84261905Y-107284819D01*
X84261905Y-107284819D02*
X84214286Y-107761009D01*
X84214286Y-107761009D02*
X84261905Y-107713390D01*
X84261905Y-107713390D02*
X84357143Y-107665771D01*
X84357143Y-107665771D02*
X84595238Y-107665771D01*
X84595238Y-107665771D02*
X84690476Y-107713390D01*
X84690476Y-107713390D02*
X84738095Y-107761009D01*
X84738095Y-107761009D02*
X84785714Y-107856247D01*
X84785714Y-107856247D02*
X84785714Y-108094342D01*
X84785714Y-108094342D02*
X84738095Y-108189580D01*
X84738095Y-108189580D02*
X84690476Y-108237200D01*
X84690476Y-108237200D02*
X84595238Y-108284819D01*
X84595238Y-108284819D02*
X84357143Y-108284819D01*
X84357143Y-108284819D02*
X84261905Y-108237200D01*
X84261905Y-108237200D02*
X84214286Y-108189580D01*
X151357142Y-115859580D02*
X151309523Y-115907200D01*
X151309523Y-115907200D02*
X151166666Y-115954819D01*
X151166666Y-115954819D02*
X151071428Y-115954819D01*
X151071428Y-115954819D02*
X150928571Y-115907200D01*
X150928571Y-115907200D02*
X150833333Y-115811961D01*
X150833333Y-115811961D02*
X150785714Y-115716723D01*
X150785714Y-115716723D02*
X150738095Y-115526247D01*
X150738095Y-115526247D02*
X150738095Y-115383390D01*
X150738095Y-115383390D02*
X150785714Y-115192914D01*
X150785714Y-115192914D02*
X150833333Y-115097676D01*
X150833333Y-115097676D02*
X150928571Y-115002438D01*
X150928571Y-115002438D02*
X151071428Y-114954819D01*
X151071428Y-114954819D02*
X151166666Y-114954819D01*
X151166666Y-114954819D02*
X151309523Y-115002438D01*
X151309523Y-115002438D02*
X151357142Y-115050057D01*
X152309523Y-115954819D02*
X151738095Y-115954819D01*
X152023809Y-115954819D02*
X152023809Y-114954819D01*
X152023809Y-114954819D02*
X151928571Y-115097676D01*
X151928571Y-115097676D02*
X151833333Y-115192914D01*
X151833333Y-115192914D02*
X151738095Y-115240533D01*
X152928571Y-114954819D02*
X153023809Y-114954819D01*
X153023809Y-114954819D02*
X153119047Y-115002438D01*
X153119047Y-115002438D02*
X153166666Y-115050057D01*
X153166666Y-115050057D02*
X153214285Y-115145295D01*
X153214285Y-115145295D02*
X153261904Y-115335771D01*
X153261904Y-115335771D02*
X153261904Y-115573866D01*
X153261904Y-115573866D02*
X153214285Y-115764342D01*
X153214285Y-115764342D02*
X153166666Y-115859580D01*
X153166666Y-115859580D02*
X153119047Y-115907200D01*
X153119047Y-115907200D02*
X153023809Y-115954819D01*
X153023809Y-115954819D02*
X152928571Y-115954819D01*
X152928571Y-115954819D02*
X152833333Y-115907200D01*
X152833333Y-115907200D02*
X152785714Y-115859580D01*
X152785714Y-115859580D02*
X152738095Y-115764342D01*
X152738095Y-115764342D02*
X152690476Y-115573866D01*
X152690476Y-115573866D02*
X152690476Y-115335771D01*
X152690476Y-115335771D02*
X152738095Y-115145295D01*
X152738095Y-115145295D02*
X152785714Y-115050057D01*
X152785714Y-115050057D02*
X152833333Y-115002438D01*
X152833333Y-115002438D02*
X152928571Y-114954819D01*
X132261905Y-153454819D02*
X132261905Y-152454819D01*
X132261905Y-152454819D02*
X132500000Y-152454819D01*
X132500000Y-152454819D02*
X132642857Y-152502438D01*
X132642857Y-152502438D02*
X132738095Y-152597676D01*
X132738095Y-152597676D02*
X132785714Y-152692914D01*
X132785714Y-152692914D02*
X132833333Y-152883390D01*
X132833333Y-152883390D02*
X132833333Y-153026247D01*
X132833333Y-153026247D02*
X132785714Y-153216723D01*
X132785714Y-153216723D02*
X132738095Y-153311961D01*
X132738095Y-153311961D02*
X132642857Y-153407200D01*
X132642857Y-153407200D02*
X132500000Y-153454819D01*
X132500000Y-153454819D02*
X132261905Y-153454819D01*
X133166667Y-152454819D02*
X133833333Y-152454819D01*
X133833333Y-152454819D02*
X133404762Y-153454819D01*
X72859580Y-140166666D02*
X72907200Y-140214285D01*
X72907200Y-140214285D02*
X72954819Y-140357142D01*
X72954819Y-140357142D02*
X72954819Y-140452380D01*
X72954819Y-140452380D02*
X72907200Y-140595237D01*
X72907200Y-140595237D02*
X72811961Y-140690475D01*
X72811961Y-140690475D02*
X72716723Y-140738094D01*
X72716723Y-140738094D02*
X72526247Y-140785713D01*
X72526247Y-140785713D02*
X72383390Y-140785713D01*
X72383390Y-140785713D02*
X72192914Y-140738094D01*
X72192914Y-140738094D02*
X72097676Y-140690475D01*
X72097676Y-140690475D02*
X72002438Y-140595237D01*
X72002438Y-140595237D02*
X71954819Y-140452380D01*
X71954819Y-140452380D02*
X71954819Y-140357142D01*
X71954819Y-140357142D02*
X72002438Y-140214285D01*
X72002438Y-140214285D02*
X72050057Y-140166666D01*
X72288152Y-139309523D02*
X72954819Y-139309523D01*
X71907200Y-139547618D02*
X72621485Y-139785713D01*
X72621485Y-139785713D02*
X72621485Y-139166666D01*
X136833333Y-108284819D02*
X136500000Y-107808628D01*
X136261905Y-108284819D02*
X136261905Y-107284819D01*
X136261905Y-107284819D02*
X136642857Y-107284819D01*
X136642857Y-107284819D02*
X136738095Y-107332438D01*
X136738095Y-107332438D02*
X136785714Y-107380057D01*
X136785714Y-107380057D02*
X136833333Y-107475295D01*
X136833333Y-107475295D02*
X136833333Y-107618152D01*
X136833333Y-107618152D02*
X136785714Y-107713390D01*
X136785714Y-107713390D02*
X136738095Y-107761009D01*
X136738095Y-107761009D02*
X136642857Y-107808628D01*
X136642857Y-107808628D02*
X136261905Y-107808628D01*
X137404762Y-107713390D02*
X137309524Y-107665771D01*
X137309524Y-107665771D02*
X137261905Y-107618152D01*
X137261905Y-107618152D02*
X137214286Y-107522914D01*
X137214286Y-107522914D02*
X137214286Y-107475295D01*
X137214286Y-107475295D02*
X137261905Y-107380057D01*
X137261905Y-107380057D02*
X137309524Y-107332438D01*
X137309524Y-107332438D02*
X137404762Y-107284819D01*
X137404762Y-107284819D02*
X137595238Y-107284819D01*
X137595238Y-107284819D02*
X137690476Y-107332438D01*
X137690476Y-107332438D02*
X137738095Y-107380057D01*
X137738095Y-107380057D02*
X137785714Y-107475295D01*
X137785714Y-107475295D02*
X137785714Y-107522914D01*
X137785714Y-107522914D02*
X137738095Y-107618152D01*
X137738095Y-107618152D02*
X137690476Y-107665771D01*
X137690476Y-107665771D02*
X137595238Y-107713390D01*
X137595238Y-107713390D02*
X137404762Y-107713390D01*
X137404762Y-107713390D02*
X137309524Y-107761009D01*
X137309524Y-107761009D02*
X137261905Y-107808628D01*
X137261905Y-107808628D02*
X137214286Y-107903866D01*
X137214286Y-107903866D02*
X137214286Y-108094342D01*
X137214286Y-108094342D02*
X137261905Y-108189580D01*
X137261905Y-108189580D02*
X137309524Y-108237200D01*
X137309524Y-108237200D02*
X137404762Y-108284819D01*
X137404762Y-108284819D02*
X137595238Y-108284819D01*
X137595238Y-108284819D02*
X137690476Y-108237200D01*
X137690476Y-108237200D02*
X137738095Y-108189580D01*
X137738095Y-108189580D02*
X137785714Y-108094342D01*
X137785714Y-108094342D02*
X137785714Y-107903866D01*
X137785714Y-107903866D02*
X137738095Y-107808628D01*
X137738095Y-107808628D02*
X137690476Y-107761009D01*
X137690476Y-107761009D02*
X137595238Y-107713390D01*
X141357142Y-120359580D02*
X141309523Y-120407200D01*
X141309523Y-120407200D02*
X141166666Y-120454819D01*
X141166666Y-120454819D02*
X141071428Y-120454819D01*
X141071428Y-120454819D02*
X140928571Y-120407200D01*
X140928571Y-120407200D02*
X140833333Y-120311961D01*
X140833333Y-120311961D02*
X140785714Y-120216723D01*
X140785714Y-120216723D02*
X140738095Y-120026247D01*
X140738095Y-120026247D02*
X140738095Y-119883390D01*
X140738095Y-119883390D02*
X140785714Y-119692914D01*
X140785714Y-119692914D02*
X140833333Y-119597676D01*
X140833333Y-119597676D02*
X140928571Y-119502438D01*
X140928571Y-119502438D02*
X141071428Y-119454819D01*
X141071428Y-119454819D02*
X141166666Y-119454819D01*
X141166666Y-119454819D02*
X141309523Y-119502438D01*
X141309523Y-119502438D02*
X141357142Y-119550057D01*
X142309523Y-120454819D02*
X141738095Y-120454819D01*
X142023809Y-120454819D02*
X142023809Y-119454819D01*
X142023809Y-119454819D02*
X141928571Y-119597676D01*
X141928571Y-119597676D02*
X141833333Y-119692914D01*
X141833333Y-119692914D02*
X141738095Y-119740533D01*
X143214285Y-119454819D02*
X142738095Y-119454819D01*
X142738095Y-119454819D02*
X142690476Y-119931009D01*
X142690476Y-119931009D02*
X142738095Y-119883390D01*
X142738095Y-119883390D02*
X142833333Y-119835771D01*
X142833333Y-119835771D02*
X143071428Y-119835771D01*
X143071428Y-119835771D02*
X143166666Y-119883390D01*
X143166666Y-119883390D02*
X143214285Y-119931009D01*
X143214285Y-119931009D02*
X143261904Y-120026247D01*
X143261904Y-120026247D02*
X143261904Y-120264342D01*
X143261904Y-120264342D02*
X143214285Y-120359580D01*
X143214285Y-120359580D02*
X143166666Y-120407200D01*
X143166666Y-120407200D02*
X143071428Y-120454819D01*
X143071428Y-120454819D02*
X142833333Y-120454819D01*
X142833333Y-120454819D02*
X142738095Y-120407200D01*
X142738095Y-120407200D02*
X142690476Y-120359580D01*
X130954819Y-152142857D02*
X130478628Y-152476190D01*
X130954819Y-152714285D02*
X129954819Y-152714285D01*
X129954819Y-152714285D02*
X129954819Y-152333333D01*
X129954819Y-152333333D02*
X130002438Y-152238095D01*
X130002438Y-152238095D02*
X130050057Y-152190476D01*
X130050057Y-152190476D02*
X130145295Y-152142857D01*
X130145295Y-152142857D02*
X130288152Y-152142857D01*
X130288152Y-152142857D02*
X130383390Y-152190476D01*
X130383390Y-152190476D02*
X130431009Y-152238095D01*
X130431009Y-152238095D02*
X130478628Y-152333333D01*
X130478628Y-152333333D02*
X130478628Y-152714285D01*
X130050057Y-151761904D02*
X130002438Y-151714285D01*
X130002438Y-151714285D02*
X129954819Y-151619047D01*
X129954819Y-151619047D02*
X129954819Y-151380952D01*
X129954819Y-151380952D02*
X130002438Y-151285714D01*
X130002438Y-151285714D02*
X130050057Y-151238095D01*
X130050057Y-151238095D02*
X130145295Y-151190476D01*
X130145295Y-151190476D02*
X130240533Y-151190476D01*
X130240533Y-151190476D02*
X130383390Y-151238095D01*
X130383390Y-151238095D02*
X130954819Y-151809523D01*
X130954819Y-151809523D02*
X130954819Y-151190476D01*
X130954819Y-150238095D02*
X130954819Y-150809523D01*
X130954819Y-150523809D02*
X129954819Y-150523809D01*
X129954819Y-150523809D02*
X130097676Y-150619047D01*
X130097676Y-150619047D02*
X130192914Y-150714285D01*
X130192914Y-150714285D02*
X130240533Y-150809523D01*
X135454819Y-149047618D02*
X135454819Y-148476190D01*
X136454819Y-148761904D02*
X135454819Y-148761904D01*
X136454819Y-148142856D02*
X135454819Y-148142856D01*
X135454819Y-148142856D02*
X135454819Y-147761904D01*
X135454819Y-147761904D02*
X135502438Y-147666666D01*
X135502438Y-147666666D02*
X135550057Y-147619047D01*
X135550057Y-147619047D02*
X135645295Y-147571428D01*
X135645295Y-147571428D02*
X135788152Y-147571428D01*
X135788152Y-147571428D02*
X135883390Y-147619047D01*
X135883390Y-147619047D02*
X135931009Y-147666666D01*
X135931009Y-147666666D02*
X135978628Y-147761904D01*
X135978628Y-147761904D02*
X135978628Y-148142856D01*
X136550057Y-147380952D02*
X136550057Y-146619047D01*
X135454819Y-145904761D02*
X135454819Y-146380951D01*
X135454819Y-146380951D02*
X135931009Y-146428570D01*
X135931009Y-146428570D02*
X135883390Y-146380951D01*
X135883390Y-146380951D02*
X135835771Y-146285713D01*
X135835771Y-146285713D02*
X135835771Y-146047618D01*
X135835771Y-146047618D02*
X135883390Y-145952380D01*
X135883390Y-145952380D02*
X135931009Y-145904761D01*
X135931009Y-145904761D02*
X136026247Y-145857142D01*
X136026247Y-145857142D02*
X136264342Y-145857142D01*
X136264342Y-145857142D02*
X136359580Y-145904761D01*
X136359580Y-145904761D02*
X136407200Y-145952380D01*
X136407200Y-145952380D02*
X136454819Y-146047618D01*
X136454819Y-146047618D02*
X136454819Y-146285713D01*
X136454819Y-146285713D02*
X136407200Y-146380951D01*
X136407200Y-146380951D02*
X136359580Y-146428570D01*
X135454819Y-145571427D02*
X136454819Y-145238094D01*
X136454819Y-145238094D02*
X135454819Y-144904761D01*
X136407200Y-144619046D02*
X136454819Y-144476189D01*
X136454819Y-144476189D02*
X136454819Y-144238094D01*
X136454819Y-144238094D02*
X136407200Y-144142856D01*
X136407200Y-144142856D02*
X136359580Y-144095237D01*
X136359580Y-144095237D02*
X136264342Y-144047618D01*
X136264342Y-144047618D02*
X136169104Y-144047618D01*
X136169104Y-144047618D02*
X136073866Y-144095237D01*
X136073866Y-144095237D02*
X136026247Y-144142856D01*
X136026247Y-144142856D02*
X135978628Y-144238094D01*
X135978628Y-144238094D02*
X135931009Y-144428570D01*
X135931009Y-144428570D02*
X135883390Y-144523808D01*
X135883390Y-144523808D02*
X135835771Y-144571427D01*
X135835771Y-144571427D02*
X135740533Y-144619046D01*
X135740533Y-144619046D02*
X135645295Y-144619046D01*
X135645295Y-144619046D02*
X135550057Y-144571427D01*
X135550057Y-144571427D02*
X135502438Y-144523808D01*
X135502438Y-144523808D02*
X135454819Y-144428570D01*
X135454819Y-144428570D02*
X135454819Y-144190475D01*
X135454819Y-144190475D02*
X135502438Y-144047618D01*
X135931009Y-143285713D02*
X135978628Y-143142856D01*
X135978628Y-143142856D02*
X136026247Y-143095237D01*
X136026247Y-143095237D02*
X136121485Y-143047618D01*
X136121485Y-143047618D02*
X136264342Y-143047618D01*
X136264342Y-143047618D02*
X136359580Y-143095237D01*
X136359580Y-143095237D02*
X136407200Y-143142856D01*
X136407200Y-143142856D02*
X136454819Y-143238094D01*
X136454819Y-143238094D02*
X136454819Y-143619046D01*
X136454819Y-143619046D02*
X135454819Y-143619046D01*
X135454819Y-143619046D02*
X135454819Y-143285713D01*
X135454819Y-143285713D02*
X135502438Y-143190475D01*
X135502438Y-143190475D02*
X135550057Y-143142856D01*
X135550057Y-143142856D02*
X135645295Y-143095237D01*
X135645295Y-143095237D02*
X135740533Y-143095237D01*
X135740533Y-143095237D02*
X135835771Y-143142856D01*
X135835771Y-143142856D02*
X135883390Y-143190475D01*
X135883390Y-143190475D02*
X135931009Y-143285713D01*
X135931009Y-143285713D02*
X135931009Y-143619046D01*
X111357143Y-156204819D02*
X111357143Y-155204819D01*
X111357143Y-155204819D02*
X111595238Y-155204819D01*
X111595238Y-155204819D02*
X111738095Y-155252438D01*
X111738095Y-155252438D02*
X111833333Y-155347676D01*
X111833333Y-155347676D02*
X111880952Y-155442914D01*
X111880952Y-155442914D02*
X111928571Y-155633390D01*
X111928571Y-155633390D02*
X111928571Y-155776247D01*
X111928571Y-155776247D02*
X111880952Y-155966723D01*
X111880952Y-155966723D02*
X111833333Y-156061961D01*
X111833333Y-156061961D02*
X111738095Y-156157200D01*
X111738095Y-156157200D02*
X111595238Y-156204819D01*
X111595238Y-156204819D02*
X111357143Y-156204819D01*
X112833333Y-156204819D02*
X112357143Y-156204819D01*
X112357143Y-156204819D02*
X112357143Y-155204819D01*
X113595238Y-155204819D02*
X113404762Y-155204819D01*
X113404762Y-155204819D02*
X113309524Y-155252438D01*
X113309524Y-155252438D02*
X113261905Y-155300057D01*
X113261905Y-155300057D02*
X113166667Y-155442914D01*
X113166667Y-155442914D02*
X113119048Y-155633390D01*
X113119048Y-155633390D02*
X113119048Y-156014342D01*
X113119048Y-156014342D02*
X113166667Y-156109580D01*
X113166667Y-156109580D02*
X113214286Y-156157200D01*
X113214286Y-156157200D02*
X113309524Y-156204819D01*
X113309524Y-156204819D02*
X113500000Y-156204819D01*
X113500000Y-156204819D02*
X113595238Y-156157200D01*
X113595238Y-156157200D02*
X113642857Y-156109580D01*
X113642857Y-156109580D02*
X113690476Y-156014342D01*
X113690476Y-156014342D02*
X113690476Y-155776247D01*
X113690476Y-155776247D02*
X113642857Y-155681009D01*
X113642857Y-155681009D02*
X113595238Y-155633390D01*
X113595238Y-155633390D02*
X113500000Y-155585771D01*
X113500000Y-155585771D02*
X113309524Y-155585771D01*
X113309524Y-155585771D02*
X113214286Y-155633390D01*
X113214286Y-155633390D02*
X113166667Y-155681009D01*
X113166667Y-155681009D02*
X113119048Y-155776247D01*
X109528571Y-157987295D02*
X109071428Y-157987295D01*
X109300000Y-157987295D02*
X109300000Y-157187295D01*
X109300000Y-157187295D02*
X109223809Y-157301580D01*
X109223809Y-157301580D02*
X109147619Y-157377771D01*
X109147619Y-157377771D02*
X109071428Y-157415866D01*
X117083333Y-148757200D02*
X117226190Y-148804819D01*
X117226190Y-148804819D02*
X117464285Y-148804819D01*
X117464285Y-148804819D02*
X117559523Y-148757200D01*
X117559523Y-148757200D02*
X117607142Y-148709580D01*
X117607142Y-148709580D02*
X117654761Y-148614342D01*
X117654761Y-148614342D02*
X117654761Y-148519104D01*
X117654761Y-148519104D02*
X117607142Y-148423866D01*
X117607142Y-148423866D02*
X117559523Y-148376247D01*
X117559523Y-148376247D02*
X117464285Y-148328628D01*
X117464285Y-148328628D02*
X117273809Y-148281009D01*
X117273809Y-148281009D02*
X117178571Y-148233390D01*
X117178571Y-148233390D02*
X117130952Y-148185771D01*
X117130952Y-148185771D02*
X117083333Y-148090533D01*
X117083333Y-148090533D02*
X117083333Y-147995295D01*
X117083333Y-147995295D02*
X117130952Y-147900057D01*
X117130952Y-147900057D02*
X117178571Y-147852438D01*
X117178571Y-147852438D02*
X117273809Y-147804819D01*
X117273809Y-147804819D02*
X117511904Y-147804819D01*
X117511904Y-147804819D02*
X117654761Y-147852438D01*
X117988095Y-147804819D02*
X118226190Y-148804819D01*
X118226190Y-148804819D02*
X118416666Y-148090533D01*
X118416666Y-148090533D02*
X118607142Y-148804819D01*
X118607142Y-148804819D02*
X118845238Y-147804819D01*
X118988095Y-148900057D02*
X119749999Y-148900057D01*
X120321428Y-148281009D02*
X120464285Y-148328628D01*
X120464285Y-148328628D02*
X120511904Y-148376247D01*
X120511904Y-148376247D02*
X120559523Y-148471485D01*
X120559523Y-148471485D02*
X120559523Y-148614342D01*
X120559523Y-148614342D02*
X120511904Y-148709580D01*
X120511904Y-148709580D02*
X120464285Y-148757200D01*
X120464285Y-148757200D02*
X120369047Y-148804819D01*
X120369047Y-148804819D02*
X119988095Y-148804819D01*
X119988095Y-148804819D02*
X119988095Y-147804819D01*
X119988095Y-147804819D02*
X120321428Y-147804819D01*
X120321428Y-147804819D02*
X120416666Y-147852438D01*
X120416666Y-147852438D02*
X120464285Y-147900057D01*
X120464285Y-147900057D02*
X120511904Y-147995295D01*
X120511904Y-147995295D02*
X120511904Y-148090533D01*
X120511904Y-148090533D02*
X120464285Y-148185771D01*
X120464285Y-148185771D02*
X120416666Y-148233390D01*
X120416666Y-148233390D02*
X120321428Y-148281009D01*
X120321428Y-148281009D02*
X119988095Y-148281009D01*
X121178571Y-147804819D02*
X121369047Y-147804819D01*
X121369047Y-147804819D02*
X121464285Y-147852438D01*
X121464285Y-147852438D02*
X121559523Y-147947676D01*
X121559523Y-147947676D02*
X121607142Y-148138152D01*
X121607142Y-148138152D02*
X121607142Y-148471485D01*
X121607142Y-148471485D02*
X121559523Y-148661961D01*
X121559523Y-148661961D02*
X121464285Y-148757200D01*
X121464285Y-148757200D02*
X121369047Y-148804819D01*
X121369047Y-148804819D02*
X121178571Y-148804819D01*
X121178571Y-148804819D02*
X121083333Y-148757200D01*
X121083333Y-148757200D02*
X120988095Y-148661961D01*
X120988095Y-148661961D02*
X120940476Y-148471485D01*
X120940476Y-148471485D02*
X120940476Y-148138152D01*
X120940476Y-148138152D02*
X120988095Y-147947676D01*
X120988095Y-147947676D02*
X121083333Y-147852438D01*
X121083333Y-147852438D02*
X121178571Y-147804819D01*
X122226190Y-147804819D02*
X122416666Y-147804819D01*
X122416666Y-147804819D02*
X122511904Y-147852438D01*
X122511904Y-147852438D02*
X122607142Y-147947676D01*
X122607142Y-147947676D02*
X122654761Y-148138152D01*
X122654761Y-148138152D02*
X122654761Y-148471485D01*
X122654761Y-148471485D02*
X122607142Y-148661961D01*
X122607142Y-148661961D02*
X122511904Y-148757200D01*
X122511904Y-148757200D02*
X122416666Y-148804819D01*
X122416666Y-148804819D02*
X122226190Y-148804819D01*
X122226190Y-148804819D02*
X122130952Y-148757200D01*
X122130952Y-148757200D02*
X122035714Y-148661961D01*
X122035714Y-148661961D02*
X121988095Y-148471485D01*
X121988095Y-148471485D02*
X121988095Y-148138152D01*
X121988095Y-148138152D02*
X122035714Y-147947676D01*
X122035714Y-147947676D02*
X122130952Y-147852438D01*
X122130952Y-147852438D02*
X122226190Y-147804819D01*
X122940476Y-147804819D02*
X123511904Y-147804819D01*
X123226190Y-148804819D02*
X123226190Y-147804819D01*
X128954819Y-152142857D02*
X128478628Y-152476190D01*
X128954819Y-152714285D02*
X127954819Y-152714285D01*
X127954819Y-152714285D02*
X127954819Y-152333333D01*
X127954819Y-152333333D02*
X128002438Y-152238095D01*
X128002438Y-152238095D02*
X128050057Y-152190476D01*
X128050057Y-152190476D02*
X128145295Y-152142857D01*
X128145295Y-152142857D02*
X128288152Y-152142857D01*
X128288152Y-152142857D02*
X128383390Y-152190476D01*
X128383390Y-152190476D02*
X128431009Y-152238095D01*
X128431009Y-152238095D02*
X128478628Y-152333333D01*
X128478628Y-152333333D02*
X128478628Y-152714285D01*
X128050057Y-151761904D02*
X128002438Y-151714285D01*
X128002438Y-151714285D02*
X127954819Y-151619047D01*
X127954819Y-151619047D02*
X127954819Y-151380952D01*
X127954819Y-151380952D02*
X128002438Y-151285714D01*
X128002438Y-151285714D02*
X128050057Y-151238095D01*
X128050057Y-151238095D02*
X128145295Y-151190476D01*
X128145295Y-151190476D02*
X128240533Y-151190476D01*
X128240533Y-151190476D02*
X128383390Y-151238095D01*
X128383390Y-151238095D02*
X128954819Y-151809523D01*
X128954819Y-151809523D02*
X128954819Y-151190476D01*
X128050057Y-150809523D02*
X128002438Y-150761904D01*
X128002438Y-150761904D02*
X127954819Y-150666666D01*
X127954819Y-150666666D02*
X127954819Y-150428571D01*
X127954819Y-150428571D02*
X128002438Y-150333333D01*
X128002438Y-150333333D02*
X128050057Y-150285714D01*
X128050057Y-150285714D02*
X128145295Y-150238095D01*
X128145295Y-150238095D02*
X128240533Y-150238095D01*
X128240533Y-150238095D02*
X128383390Y-150285714D01*
X128383390Y-150285714D02*
X128954819Y-150857142D01*
X128954819Y-150857142D02*
X128954819Y-150238095D01*
X88857142Y-140454819D02*
X88523809Y-139978628D01*
X88285714Y-140454819D02*
X88285714Y-139454819D01*
X88285714Y-139454819D02*
X88666666Y-139454819D01*
X88666666Y-139454819D02*
X88761904Y-139502438D01*
X88761904Y-139502438D02*
X88809523Y-139550057D01*
X88809523Y-139550057D02*
X88857142Y-139645295D01*
X88857142Y-139645295D02*
X88857142Y-139788152D01*
X88857142Y-139788152D02*
X88809523Y-139883390D01*
X88809523Y-139883390D02*
X88761904Y-139931009D01*
X88761904Y-139931009D02*
X88666666Y-139978628D01*
X88666666Y-139978628D02*
X88285714Y-139978628D01*
X89809523Y-140454819D02*
X89238095Y-140454819D01*
X89523809Y-140454819D02*
X89523809Y-139454819D01*
X89523809Y-139454819D02*
X89428571Y-139597676D01*
X89428571Y-139597676D02*
X89333333Y-139692914D01*
X89333333Y-139692914D02*
X89238095Y-139740533D01*
X90142857Y-139454819D02*
X90761904Y-139454819D01*
X90761904Y-139454819D02*
X90428571Y-139835771D01*
X90428571Y-139835771D02*
X90571428Y-139835771D01*
X90571428Y-139835771D02*
X90666666Y-139883390D01*
X90666666Y-139883390D02*
X90714285Y-139931009D01*
X90714285Y-139931009D02*
X90761904Y-140026247D01*
X90761904Y-140026247D02*
X90761904Y-140264342D01*
X90761904Y-140264342D02*
X90714285Y-140359580D01*
X90714285Y-140359580D02*
X90666666Y-140407200D01*
X90666666Y-140407200D02*
X90571428Y-140454819D01*
X90571428Y-140454819D02*
X90285714Y-140454819D01*
X90285714Y-140454819D02*
X90190476Y-140407200D01*
X90190476Y-140407200D02*
X90142857Y-140359580D01*
X109250000Y-148657200D02*
X109392857Y-148704819D01*
X109392857Y-148704819D02*
X109630952Y-148704819D01*
X109630952Y-148704819D02*
X109726190Y-148657200D01*
X109726190Y-148657200D02*
X109773809Y-148609580D01*
X109773809Y-148609580D02*
X109821428Y-148514342D01*
X109821428Y-148514342D02*
X109821428Y-148419104D01*
X109821428Y-148419104D02*
X109773809Y-148323866D01*
X109773809Y-148323866D02*
X109726190Y-148276247D01*
X109726190Y-148276247D02*
X109630952Y-148228628D01*
X109630952Y-148228628D02*
X109440476Y-148181009D01*
X109440476Y-148181009D02*
X109345238Y-148133390D01*
X109345238Y-148133390D02*
X109297619Y-148085771D01*
X109297619Y-148085771D02*
X109250000Y-147990533D01*
X109250000Y-147990533D02*
X109250000Y-147895295D01*
X109250000Y-147895295D02*
X109297619Y-147800057D01*
X109297619Y-147800057D02*
X109345238Y-147752438D01*
X109345238Y-147752438D02*
X109440476Y-147704819D01*
X109440476Y-147704819D02*
X109678571Y-147704819D01*
X109678571Y-147704819D02*
X109821428Y-147752438D01*
X110154762Y-147704819D02*
X110392857Y-148704819D01*
X110392857Y-148704819D02*
X110583333Y-147990533D01*
X110583333Y-147990533D02*
X110773809Y-148704819D01*
X110773809Y-148704819D02*
X111011905Y-147704819D01*
X111154762Y-148800057D02*
X111916666Y-148800057D01*
X112726190Y-148704819D02*
X112392857Y-148228628D01*
X112154762Y-148704819D02*
X112154762Y-147704819D01*
X112154762Y-147704819D02*
X112535714Y-147704819D01*
X112535714Y-147704819D02*
X112630952Y-147752438D01*
X112630952Y-147752438D02*
X112678571Y-147800057D01*
X112678571Y-147800057D02*
X112726190Y-147895295D01*
X112726190Y-147895295D02*
X112726190Y-148038152D01*
X112726190Y-148038152D02*
X112678571Y-148133390D01*
X112678571Y-148133390D02*
X112630952Y-148181009D01*
X112630952Y-148181009D02*
X112535714Y-148228628D01*
X112535714Y-148228628D02*
X112154762Y-148228628D01*
X113154762Y-148181009D02*
X113488095Y-148181009D01*
X113630952Y-148704819D02*
X113154762Y-148704819D01*
X113154762Y-148704819D02*
X113154762Y-147704819D01*
X113154762Y-147704819D02*
X113630952Y-147704819D01*
X114011905Y-148657200D02*
X114154762Y-148704819D01*
X114154762Y-148704819D02*
X114392857Y-148704819D01*
X114392857Y-148704819D02*
X114488095Y-148657200D01*
X114488095Y-148657200D02*
X114535714Y-148609580D01*
X114535714Y-148609580D02*
X114583333Y-148514342D01*
X114583333Y-148514342D02*
X114583333Y-148419104D01*
X114583333Y-148419104D02*
X114535714Y-148323866D01*
X114535714Y-148323866D02*
X114488095Y-148276247D01*
X114488095Y-148276247D02*
X114392857Y-148228628D01*
X114392857Y-148228628D02*
X114202381Y-148181009D01*
X114202381Y-148181009D02*
X114107143Y-148133390D01*
X114107143Y-148133390D02*
X114059524Y-148085771D01*
X114059524Y-148085771D02*
X114011905Y-147990533D01*
X114011905Y-147990533D02*
X114011905Y-147895295D01*
X114011905Y-147895295D02*
X114059524Y-147800057D01*
X114059524Y-147800057D02*
X114107143Y-147752438D01*
X114107143Y-147752438D02*
X114202381Y-147704819D01*
X114202381Y-147704819D02*
X114440476Y-147704819D01*
X114440476Y-147704819D02*
X114583333Y-147752438D01*
X115011905Y-148181009D02*
X115345238Y-148181009D01*
X115488095Y-148704819D02*
X115011905Y-148704819D01*
X115011905Y-148704819D02*
X115011905Y-147704819D01*
X115011905Y-147704819D02*
X115488095Y-147704819D01*
X115773810Y-147704819D02*
X116345238Y-147704819D01*
X116059524Y-148704819D02*
X116059524Y-147704819D01*
X96107142Y-129204819D02*
X95773809Y-128728628D01*
X95535714Y-129204819D02*
X95535714Y-128204819D01*
X95535714Y-128204819D02*
X95916666Y-128204819D01*
X95916666Y-128204819D02*
X96011904Y-128252438D01*
X96011904Y-128252438D02*
X96059523Y-128300057D01*
X96059523Y-128300057D02*
X96107142Y-128395295D01*
X96107142Y-128395295D02*
X96107142Y-128538152D01*
X96107142Y-128538152D02*
X96059523Y-128633390D01*
X96059523Y-128633390D02*
X96011904Y-128681009D01*
X96011904Y-128681009D02*
X95916666Y-128728628D01*
X95916666Y-128728628D02*
X95535714Y-128728628D01*
X96488095Y-128300057D02*
X96535714Y-128252438D01*
X96535714Y-128252438D02*
X96630952Y-128204819D01*
X96630952Y-128204819D02*
X96869047Y-128204819D01*
X96869047Y-128204819D02*
X96964285Y-128252438D01*
X96964285Y-128252438D02*
X97011904Y-128300057D01*
X97011904Y-128300057D02*
X97059523Y-128395295D01*
X97059523Y-128395295D02*
X97059523Y-128490533D01*
X97059523Y-128490533D02*
X97011904Y-128633390D01*
X97011904Y-128633390D02*
X96440476Y-129204819D01*
X96440476Y-129204819D02*
X97059523Y-129204819D01*
X97678571Y-128204819D02*
X97773809Y-128204819D01*
X97773809Y-128204819D02*
X97869047Y-128252438D01*
X97869047Y-128252438D02*
X97916666Y-128300057D01*
X97916666Y-128300057D02*
X97964285Y-128395295D01*
X97964285Y-128395295D02*
X98011904Y-128585771D01*
X98011904Y-128585771D02*
X98011904Y-128823866D01*
X98011904Y-128823866D02*
X97964285Y-129014342D01*
X97964285Y-129014342D02*
X97916666Y-129109580D01*
X97916666Y-129109580D02*
X97869047Y-129157200D01*
X97869047Y-129157200D02*
X97773809Y-129204819D01*
X97773809Y-129204819D02*
X97678571Y-129204819D01*
X97678571Y-129204819D02*
X97583333Y-129157200D01*
X97583333Y-129157200D02*
X97535714Y-129109580D01*
X97535714Y-129109580D02*
X97488095Y-129014342D01*
X97488095Y-129014342D02*
X97440476Y-128823866D01*
X97440476Y-128823866D02*
X97440476Y-128585771D01*
X97440476Y-128585771D02*
X97488095Y-128395295D01*
X97488095Y-128395295D02*
X97535714Y-128300057D01*
X97535714Y-128300057D02*
X97583333Y-128252438D01*
X97583333Y-128252438D02*
X97678571Y-128204819D01*
X117857143Y-117104819D02*
X117857143Y-116104819D01*
X117857143Y-116104819D02*
X118095238Y-116104819D01*
X118095238Y-116104819D02*
X118238095Y-116152438D01*
X118238095Y-116152438D02*
X118333333Y-116247676D01*
X118333333Y-116247676D02*
X118380952Y-116342914D01*
X118380952Y-116342914D02*
X118428571Y-116533390D01*
X118428571Y-116533390D02*
X118428571Y-116676247D01*
X118428571Y-116676247D02*
X118380952Y-116866723D01*
X118380952Y-116866723D02*
X118333333Y-116961961D01*
X118333333Y-116961961D02*
X118238095Y-117057200D01*
X118238095Y-117057200D02*
X118095238Y-117104819D01*
X118095238Y-117104819D02*
X117857143Y-117104819D01*
X119333333Y-117104819D02*
X118857143Y-117104819D01*
X118857143Y-117104819D02*
X118857143Y-116104819D01*
X120190476Y-117104819D02*
X119619048Y-117104819D01*
X119904762Y-117104819D02*
X119904762Y-116104819D01*
X119904762Y-116104819D02*
X119809524Y-116247676D01*
X119809524Y-116247676D02*
X119714286Y-116342914D01*
X119714286Y-116342914D02*
X119619048Y-116390533D01*
X116028571Y-118887295D02*
X115571428Y-118887295D01*
X115800000Y-118887295D02*
X115800000Y-118087295D01*
X115800000Y-118087295D02*
X115723809Y-118201580D01*
X115723809Y-118201580D02*
X115647619Y-118277771D01*
X115647619Y-118277771D02*
X115571428Y-118315866D01*
X91004166Y-106054819D02*
X91004166Y-106769104D01*
X91004166Y-106769104D02*
X90956547Y-106911961D01*
X90956547Y-106911961D02*
X90861309Y-107007200D01*
X90861309Y-107007200D02*
X90718452Y-107054819D01*
X90718452Y-107054819D02*
X90623214Y-107054819D01*
X91432738Y-106150057D02*
X91480357Y-106102438D01*
X91480357Y-106102438D02*
X91575595Y-106054819D01*
X91575595Y-106054819D02*
X91813690Y-106054819D01*
X91813690Y-106054819D02*
X91908928Y-106102438D01*
X91908928Y-106102438D02*
X91956547Y-106150057D01*
X91956547Y-106150057D02*
X92004166Y-106245295D01*
X92004166Y-106245295D02*
X92004166Y-106340533D01*
X92004166Y-106340533D02*
X91956547Y-106483390D01*
X91956547Y-106483390D02*
X91385119Y-107054819D01*
X91385119Y-107054819D02*
X92004166Y-107054819D01*
X117857143Y-135204819D02*
X117857143Y-134204819D01*
X117857143Y-134204819D02*
X118095238Y-134204819D01*
X118095238Y-134204819D02*
X118238095Y-134252438D01*
X118238095Y-134252438D02*
X118333333Y-134347676D01*
X118333333Y-134347676D02*
X118380952Y-134442914D01*
X118380952Y-134442914D02*
X118428571Y-134633390D01*
X118428571Y-134633390D02*
X118428571Y-134776247D01*
X118428571Y-134776247D02*
X118380952Y-134966723D01*
X118380952Y-134966723D02*
X118333333Y-135061961D01*
X118333333Y-135061961D02*
X118238095Y-135157200D01*
X118238095Y-135157200D02*
X118095238Y-135204819D01*
X118095238Y-135204819D02*
X117857143Y-135204819D01*
X119333333Y-135204819D02*
X118857143Y-135204819D01*
X118857143Y-135204819D02*
X118857143Y-134204819D01*
X120095238Y-134538152D02*
X120095238Y-135204819D01*
X119857143Y-134157200D02*
X119619048Y-134871485D01*
X119619048Y-134871485D02*
X120238095Y-134871485D01*
X116028571Y-136987295D02*
X115571428Y-136987295D01*
X115800000Y-136987295D02*
X115800000Y-136187295D01*
X115800000Y-136187295D02*
X115723809Y-136301580D01*
X115723809Y-136301580D02*
X115647619Y-136377771D01*
X115647619Y-136377771D02*
X115571428Y-136415866D01*
X119833333Y-109454819D02*
X119500000Y-108978628D01*
X119261905Y-109454819D02*
X119261905Y-108454819D01*
X119261905Y-108454819D02*
X119642857Y-108454819D01*
X119642857Y-108454819D02*
X119738095Y-108502438D01*
X119738095Y-108502438D02*
X119785714Y-108550057D01*
X119785714Y-108550057D02*
X119833333Y-108645295D01*
X119833333Y-108645295D02*
X119833333Y-108788152D01*
X119833333Y-108788152D02*
X119785714Y-108883390D01*
X119785714Y-108883390D02*
X119738095Y-108931009D01*
X119738095Y-108931009D02*
X119642857Y-108978628D01*
X119642857Y-108978628D02*
X119261905Y-108978628D01*
X120166667Y-108454819D02*
X120833333Y-108454819D01*
X120833333Y-108454819D02*
X120404762Y-109454819D01*
X77833333Y-140454819D02*
X77500000Y-139978628D01*
X77261905Y-140454819D02*
X77261905Y-139454819D01*
X77261905Y-139454819D02*
X77642857Y-139454819D01*
X77642857Y-139454819D02*
X77738095Y-139502438D01*
X77738095Y-139502438D02*
X77785714Y-139550057D01*
X77785714Y-139550057D02*
X77833333Y-139645295D01*
X77833333Y-139645295D02*
X77833333Y-139788152D01*
X77833333Y-139788152D02*
X77785714Y-139883390D01*
X77785714Y-139883390D02*
X77738095Y-139931009D01*
X77738095Y-139931009D02*
X77642857Y-139978628D01*
X77642857Y-139978628D02*
X77261905Y-139978628D01*
X78214286Y-139550057D02*
X78261905Y-139502438D01*
X78261905Y-139502438D02*
X78357143Y-139454819D01*
X78357143Y-139454819D02*
X78595238Y-139454819D01*
X78595238Y-139454819D02*
X78690476Y-139502438D01*
X78690476Y-139502438D02*
X78738095Y-139550057D01*
X78738095Y-139550057D02*
X78785714Y-139645295D01*
X78785714Y-139645295D02*
X78785714Y-139740533D01*
X78785714Y-139740533D02*
X78738095Y-139883390D01*
X78738095Y-139883390D02*
X78166667Y-140454819D01*
X78166667Y-140454819D02*
X78785714Y-140454819D01*
X71190476Y-92204819D02*
X71190476Y-91204819D01*
X71190476Y-91204819D02*
X71523809Y-91919104D01*
X71523809Y-91919104D02*
X71857142Y-91204819D01*
X71857142Y-91204819D02*
X71857142Y-92204819D01*
X72857142Y-92204819D02*
X72285714Y-92204819D01*
X72571428Y-92204819D02*
X72571428Y-91204819D01*
X72571428Y-91204819D02*
X72476190Y-91347676D01*
X72476190Y-91347676D02*
X72380952Y-91442914D01*
X72380952Y-91442914D02*
X72285714Y-91490533D01*
X92857142Y-140454819D02*
X92523809Y-139978628D01*
X92285714Y-140454819D02*
X92285714Y-139454819D01*
X92285714Y-139454819D02*
X92666666Y-139454819D01*
X92666666Y-139454819D02*
X92761904Y-139502438D01*
X92761904Y-139502438D02*
X92809523Y-139550057D01*
X92809523Y-139550057D02*
X92857142Y-139645295D01*
X92857142Y-139645295D02*
X92857142Y-139788152D01*
X92857142Y-139788152D02*
X92809523Y-139883390D01*
X92809523Y-139883390D02*
X92761904Y-139931009D01*
X92761904Y-139931009D02*
X92666666Y-139978628D01*
X92666666Y-139978628D02*
X92285714Y-139978628D01*
X93809523Y-140454819D02*
X93238095Y-140454819D01*
X93523809Y-140454819D02*
X93523809Y-139454819D01*
X93523809Y-139454819D02*
X93428571Y-139597676D01*
X93428571Y-139597676D02*
X93333333Y-139692914D01*
X93333333Y-139692914D02*
X93238095Y-139740533D01*
X94190476Y-139550057D02*
X94238095Y-139502438D01*
X94238095Y-139502438D02*
X94333333Y-139454819D01*
X94333333Y-139454819D02*
X94571428Y-139454819D01*
X94571428Y-139454819D02*
X94666666Y-139502438D01*
X94666666Y-139502438D02*
X94714285Y-139550057D01*
X94714285Y-139550057D02*
X94761904Y-139645295D01*
X94761904Y-139645295D02*
X94761904Y-139740533D01*
X94761904Y-139740533D02*
X94714285Y-139883390D01*
X94714285Y-139883390D02*
X94142857Y-140454819D01*
X94142857Y-140454819D02*
X94761904Y-140454819D01*
X156857142Y-115954819D02*
X156523809Y-115478628D01*
X156285714Y-115954819D02*
X156285714Y-114954819D01*
X156285714Y-114954819D02*
X156666666Y-114954819D01*
X156666666Y-114954819D02*
X156761904Y-115002438D01*
X156761904Y-115002438D02*
X156809523Y-115050057D01*
X156809523Y-115050057D02*
X156857142Y-115145295D01*
X156857142Y-115145295D02*
X156857142Y-115288152D01*
X156857142Y-115288152D02*
X156809523Y-115383390D01*
X156809523Y-115383390D02*
X156761904Y-115431009D01*
X156761904Y-115431009D02*
X156666666Y-115478628D01*
X156666666Y-115478628D02*
X156285714Y-115478628D01*
X157809523Y-115954819D02*
X157238095Y-115954819D01*
X157523809Y-115954819D02*
X157523809Y-114954819D01*
X157523809Y-114954819D02*
X157428571Y-115097676D01*
X157428571Y-115097676D02*
X157333333Y-115192914D01*
X157333333Y-115192914D02*
X157238095Y-115240533D01*
X158142857Y-114954819D02*
X158809523Y-114954819D01*
X158809523Y-114954819D02*
X158380952Y-115954819D01*
X125357143Y-123204819D02*
X125357143Y-122204819D01*
X125357143Y-122204819D02*
X125595238Y-122204819D01*
X125595238Y-122204819D02*
X125738095Y-122252438D01*
X125738095Y-122252438D02*
X125833333Y-122347676D01*
X125833333Y-122347676D02*
X125880952Y-122442914D01*
X125880952Y-122442914D02*
X125928571Y-122633390D01*
X125928571Y-122633390D02*
X125928571Y-122776247D01*
X125928571Y-122776247D02*
X125880952Y-122966723D01*
X125880952Y-122966723D02*
X125833333Y-123061961D01*
X125833333Y-123061961D02*
X125738095Y-123157200D01*
X125738095Y-123157200D02*
X125595238Y-123204819D01*
X125595238Y-123204819D02*
X125357143Y-123204819D01*
X126833333Y-123204819D02*
X126357143Y-123204819D01*
X126357143Y-123204819D02*
X126357143Y-122204819D01*
X127119048Y-122300057D02*
X127166667Y-122252438D01*
X127166667Y-122252438D02*
X127261905Y-122204819D01*
X127261905Y-122204819D02*
X127500000Y-122204819D01*
X127500000Y-122204819D02*
X127595238Y-122252438D01*
X127595238Y-122252438D02*
X127642857Y-122300057D01*
X127642857Y-122300057D02*
X127690476Y-122395295D01*
X127690476Y-122395295D02*
X127690476Y-122490533D01*
X127690476Y-122490533D02*
X127642857Y-122633390D01*
X127642857Y-122633390D02*
X127071429Y-123204819D01*
X127071429Y-123204819D02*
X127690476Y-123204819D01*
X123528571Y-124987295D02*
X123071428Y-124987295D01*
X123300000Y-124987295D02*
X123300000Y-124187295D01*
X123300000Y-124187295D02*
X123223809Y-124301580D01*
X123223809Y-124301580D02*
X123147619Y-124377771D01*
X123147619Y-124377771D02*
X123071428Y-124415866D01*
X154428571Y-155431009D02*
X154095238Y-155431009D01*
X154095238Y-155954819D02*
X154095238Y-154954819D01*
X154095238Y-154954819D02*
X154571428Y-154954819D01*
X154952381Y-155954819D02*
X154952381Y-154954819D01*
X155428571Y-155954819D02*
X155428571Y-154954819D01*
X155428571Y-154954819D02*
X155666666Y-154954819D01*
X155666666Y-154954819D02*
X155809523Y-155002438D01*
X155809523Y-155002438D02*
X155904761Y-155097676D01*
X155904761Y-155097676D02*
X155952380Y-155192914D01*
X155952380Y-155192914D02*
X155999999Y-155383390D01*
X155999999Y-155383390D02*
X155999999Y-155526247D01*
X155999999Y-155526247D02*
X155952380Y-155716723D01*
X155952380Y-155716723D02*
X155904761Y-155811961D01*
X155904761Y-155811961D02*
X155809523Y-155907200D01*
X155809523Y-155907200D02*
X155666666Y-155954819D01*
X155666666Y-155954819D02*
X155428571Y-155954819D01*
X156333333Y-154954819D02*
X156952380Y-154954819D01*
X156952380Y-154954819D02*
X156619047Y-155335771D01*
X156619047Y-155335771D02*
X156761904Y-155335771D01*
X156761904Y-155335771D02*
X156857142Y-155383390D01*
X156857142Y-155383390D02*
X156904761Y-155431009D01*
X156904761Y-155431009D02*
X156952380Y-155526247D01*
X156952380Y-155526247D02*
X156952380Y-155764342D01*
X156952380Y-155764342D02*
X156904761Y-155859580D01*
X156904761Y-155859580D02*
X156857142Y-155907200D01*
X156857142Y-155907200D02*
X156761904Y-155954819D01*
X156761904Y-155954819D02*
X156476190Y-155954819D01*
X156476190Y-155954819D02*
X156380952Y-155907200D01*
X156380952Y-155907200D02*
X156333333Y-155859580D01*
X165690476Y-163454819D02*
X165690476Y-162454819D01*
X165690476Y-162454819D02*
X166023809Y-163169104D01*
X166023809Y-163169104D02*
X166357142Y-162454819D01*
X166357142Y-162454819D02*
X166357142Y-163454819D01*
X167261904Y-162788152D02*
X167261904Y-163454819D01*
X167023809Y-162407200D02*
X166785714Y-163121485D01*
X166785714Y-163121485D02*
X167404761Y-163121485D01*
X84857142Y-116454819D02*
X84523809Y-115978628D01*
X84285714Y-116454819D02*
X84285714Y-115454819D01*
X84285714Y-115454819D02*
X84666666Y-115454819D01*
X84666666Y-115454819D02*
X84761904Y-115502438D01*
X84761904Y-115502438D02*
X84809523Y-115550057D01*
X84809523Y-115550057D02*
X84857142Y-115645295D01*
X84857142Y-115645295D02*
X84857142Y-115788152D01*
X84857142Y-115788152D02*
X84809523Y-115883390D01*
X84809523Y-115883390D02*
X84761904Y-115931009D01*
X84761904Y-115931009D02*
X84666666Y-115978628D01*
X84666666Y-115978628D02*
X84285714Y-115978628D01*
X85809523Y-116454819D02*
X85238095Y-116454819D01*
X85523809Y-116454819D02*
X85523809Y-115454819D01*
X85523809Y-115454819D02*
X85428571Y-115597676D01*
X85428571Y-115597676D02*
X85333333Y-115692914D01*
X85333333Y-115692914D02*
X85238095Y-115740533D01*
X86761904Y-116454819D02*
X86190476Y-116454819D01*
X86476190Y-116454819D02*
X86476190Y-115454819D01*
X86476190Y-115454819D02*
X86380952Y-115597676D01*
X86380952Y-115597676D02*
X86285714Y-115692914D01*
X86285714Y-115692914D02*
X86190476Y-115740533D01*
X88638095Y-137954819D02*
X88638095Y-138764342D01*
X88638095Y-138764342D02*
X88685714Y-138859580D01*
X88685714Y-138859580D02*
X88733333Y-138907200D01*
X88733333Y-138907200D02*
X88828571Y-138954819D01*
X88828571Y-138954819D02*
X89019047Y-138954819D01*
X89019047Y-138954819D02*
X89114285Y-138907200D01*
X89114285Y-138907200D02*
X89161904Y-138859580D01*
X89161904Y-138859580D02*
X89209523Y-138764342D01*
X89209523Y-138764342D02*
X89209523Y-137954819D01*
X90209523Y-138954819D02*
X89638095Y-138954819D01*
X89923809Y-138954819D02*
X89923809Y-137954819D01*
X89923809Y-137954819D02*
X89828571Y-138097676D01*
X89828571Y-138097676D02*
X89733333Y-138192914D01*
X89733333Y-138192914D02*
X89638095Y-138240533D01*
X75357142Y-138929580D02*
X75309523Y-138977200D01*
X75309523Y-138977200D02*
X75166666Y-139024819D01*
X75166666Y-139024819D02*
X75071428Y-139024819D01*
X75071428Y-139024819D02*
X74928571Y-138977200D01*
X74928571Y-138977200D02*
X74833333Y-138881961D01*
X74833333Y-138881961D02*
X74785714Y-138786723D01*
X74785714Y-138786723D02*
X74738095Y-138596247D01*
X74738095Y-138596247D02*
X74738095Y-138453390D01*
X74738095Y-138453390D02*
X74785714Y-138262914D01*
X74785714Y-138262914D02*
X74833333Y-138167676D01*
X74833333Y-138167676D02*
X74928571Y-138072438D01*
X74928571Y-138072438D02*
X75071428Y-138024819D01*
X75071428Y-138024819D02*
X75166666Y-138024819D01*
X75166666Y-138024819D02*
X75309523Y-138072438D01*
X75309523Y-138072438D02*
X75357142Y-138120057D01*
X76309523Y-139024819D02*
X75738095Y-139024819D01*
X76023809Y-139024819D02*
X76023809Y-138024819D01*
X76023809Y-138024819D02*
X75928571Y-138167676D01*
X75928571Y-138167676D02*
X75833333Y-138262914D01*
X75833333Y-138262914D02*
X75738095Y-138310533D01*
X77261904Y-139024819D02*
X76690476Y-139024819D01*
X76976190Y-139024819D02*
X76976190Y-138024819D01*
X76976190Y-138024819D02*
X76880952Y-138167676D01*
X76880952Y-138167676D02*
X76785714Y-138262914D01*
X76785714Y-138262914D02*
X76690476Y-138310533D01*
X103404819Y-149875594D02*
X102404819Y-149875594D01*
X102404819Y-149875594D02*
X102404819Y-149637499D01*
X102404819Y-149637499D02*
X102452438Y-149494642D01*
X102452438Y-149494642D02*
X102547676Y-149399404D01*
X102547676Y-149399404D02*
X102642914Y-149351785D01*
X102642914Y-149351785D02*
X102833390Y-149304166D01*
X102833390Y-149304166D02*
X102976247Y-149304166D01*
X102976247Y-149304166D02*
X103166723Y-149351785D01*
X103166723Y-149351785D02*
X103261961Y-149399404D01*
X103261961Y-149399404D02*
X103357200Y-149494642D01*
X103357200Y-149494642D02*
X103404819Y-149637499D01*
X103404819Y-149637499D02*
X103404819Y-149875594D01*
X102404819Y-148447023D02*
X102404819Y-148637499D01*
X102404819Y-148637499D02*
X102452438Y-148732737D01*
X102452438Y-148732737D02*
X102500057Y-148780356D01*
X102500057Y-148780356D02*
X102642914Y-148875594D01*
X102642914Y-148875594D02*
X102833390Y-148923213D01*
X102833390Y-148923213D02*
X103214342Y-148923213D01*
X103214342Y-148923213D02*
X103309580Y-148875594D01*
X103309580Y-148875594D02*
X103357200Y-148827975D01*
X103357200Y-148827975D02*
X103404819Y-148732737D01*
X103404819Y-148732737D02*
X103404819Y-148542261D01*
X103404819Y-148542261D02*
X103357200Y-148447023D01*
X103357200Y-148447023D02*
X103309580Y-148399404D01*
X103309580Y-148399404D02*
X103214342Y-148351785D01*
X103214342Y-148351785D02*
X102976247Y-148351785D01*
X102976247Y-148351785D02*
X102881009Y-148399404D01*
X102881009Y-148399404D02*
X102833390Y-148447023D01*
X102833390Y-148447023D02*
X102785771Y-148542261D01*
X102785771Y-148542261D02*
X102785771Y-148732737D01*
X102785771Y-148732737D02*
X102833390Y-148827975D01*
X102833390Y-148827975D02*
X102881009Y-148875594D01*
X102881009Y-148875594D02*
X102976247Y-148923213D01*
X102833333Y-108954819D02*
X102500000Y-108478628D01*
X102261905Y-108954819D02*
X102261905Y-107954819D01*
X102261905Y-107954819D02*
X102642857Y-107954819D01*
X102642857Y-107954819D02*
X102738095Y-108002438D01*
X102738095Y-108002438D02*
X102785714Y-108050057D01*
X102785714Y-108050057D02*
X102833333Y-108145295D01*
X102833333Y-108145295D02*
X102833333Y-108288152D01*
X102833333Y-108288152D02*
X102785714Y-108383390D01*
X102785714Y-108383390D02*
X102738095Y-108431009D01*
X102738095Y-108431009D02*
X102642857Y-108478628D01*
X102642857Y-108478628D02*
X102261905Y-108478628D01*
X103166667Y-107954819D02*
X103785714Y-107954819D01*
X103785714Y-107954819D02*
X103452381Y-108335771D01*
X103452381Y-108335771D02*
X103595238Y-108335771D01*
X103595238Y-108335771D02*
X103690476Y-108383390D01*
X103690476Y-108383390D02*
X103738095Y-108431009D01*
X103738095Y-108431009D02*
X103785714Y-108526247D01*
X103785714Y-108526247D02*
X103785714Y-108764342D01*
X103785714Y-108764342D02*
X103738095Y-108859580D01*
X103738095Y-108859580D02*
X103690476Y-108907200D01*
X103690476Y-108907200D02*
X103595238Y-108954819D01*
X103595238Y-108954819D02*
X103309524Y-108954819D01*
X103309524Y-108954819D02*
X103214286Y-108907200D01*
X103214286Y-108907200D02*
X103166667Y-108859580D01*
X102857142Y-152954819D02*
X102523809Y-152478628D01*
X102285714Y-152954819D02*
X102285714Y-151954819D01*
X102285714Y-151954819D02*
X102666666Y-151954819D01*
X102666666Y-151954819D02*
X102761904Y-152002438D01*
X102761904Y-152002438D02*
X102809523Y-152050057D01*
X102809523Y-152050057D02*
X102857142Y-152145295D01*
X102857142Y-152145295D02*
X102857142Y-152288152D01*
X102857142Y-152288152D02*
X102809523Y-152383390D01*
X102809523Y-152383390D02*
X102761904Y-152431009D01*
X102761904Y-152431009D02*
X102666666Y-152478628D01*
X102666666Y-152478628D02*
X102285714Y-152478628D01*
X103809523Y-152954819D02*
X103238095Y-152954819D01*
X103523809Y-152954819D02*
X103523809Y-151954819D01*
X103523809Y-151954819D02*
X103428571Y-152097676D01*
X103428571Y-152097676D02*
X103333333Y-152192914D01*
X103333333Y-152192914D02*
X103238095Y-152240533D01*
X104428571Y-151954819D02*
X104523809Y-151954819D01*
X104523809Y-151954819D02*
X104619047Y-152002438D01*
X104619047Y-152002438D02*
X104666666Y-152050057D01*
X104666666Y-152050057D02*
X104714285Y-152145295D01*
X104714285Y-152145295D02*
X104761904Y-152335771D01*
X104761904Y-152335771D02*
X104761904Y-152573866D01*
X104761904Y-152573866D02*
X104714285Y-152764342D01*
X104714285Y-152764342D02*
X104666666Y-152859580D01*
X104666666Y-152859580D02*
X104619047Y-152907200D01*
X104619047Y-152907200D02*
X104523809Y-152954819D01*
X104523809Y-152954819D02*
X104428571Y-152954819D01*
X104428571Y-152954819D02*
X104333333Y-152907200D01*
X104333333Y-152907200D02*
X104285714Y-152859580D01*
X104285714Y-152859580D02*
X104238095Y-152764342D01*
X104238095Y-152764342D02*
X104190476Y-152573866D01*
X104190476Y-152573866D02*
X104190476Y-152335771D01*
X104190476Y-152335771D02*
X104238095Y-152145295D01*
X104238095Y-152145295D02*
X104285714Y-152050057D01*
X104285714Y-152050057D02*
X104333333Y-152002438D01*
X104333333Y-152002438D02*
X104428571Y-151954819D01*
X161857142Y-143454819D02*
X161523809Y-142978628D01*
X161285714Y-143454819D02*
X161285714Y-142454819D01*
X161285714Y-142454819D02*
X161666666Y-142454819D01*
X161666666Y-142454819D02*
X161761904Y-142502438D01*
X161761904Y-142502438D02*
X161809523Y-142550057D01*
X161809523Y-142550057D02*
X161857142Y-142645295D01*
X161857142Y-142645295D02*
X161857142Y-142788152D01*
X161857142Y-142788152D02*
X161809523Y-142883390D01*
X161809523Y-142883390D02*
X161761904Y-142931009D01*
X161761904Y-142931009D02*
X161666666Y-142978628D01*
X161666666Y-142978628D02*
X161285714Y-142978628D01*
X162809523Y-143454819D02*
X162238095Y-143454819D01*
X162523809Y-143454819D02*
X162523809Y-142454819D01*
X162523809Y-142454819D02*
X162428571Y-142597676D01*
X162428571Y-142597676D02*
X162333333Y-142692914D01*
X162333333Y-142692914D02*
X162238095Y-142740533D01*
X163666666Y-142454819D02*
X163476190Y-142454819D01*
X163476190Y-142454819D02*
X163380952Y-142502438D01*
X163380952Y-142502438D02*
X163333333Y-142550057D01*
X163333333Y-142550057D02*
X163238095Y-142692914D01*
X163238095Y-142692914D02*
X163190476Y-142883390D01*
X163190476Y-142883390D02*
X163190476Y-143264342D01*
X163190476Y-143264342D02*
X163238095Y-143359580D01*
X163238095Y-143359580D02*
X163285714Y-143407200D01*
X163285714Y-143407200D02*
X163380952Y-143454819D01*
X163380952Y-143454819D02*
X163571428Y-143454819D01*
X163571428Y-143454819D02*
X163666666Y-143407200D01*
X163666666Y-143407200D02*
X163714285Y-143359580D01*
X163714285Y-143359580D02*
X163761904Y-143264342D01*
X163761904Y-143264342D02*
X163761904Y-143026247D01*
X163761904Y-143026247D02*
X163714285Y-142931009D01*
X163714285Y-142931009D02*
X163666666Y-142883390D01*
X163666666Y-142883390D02*
X163571428Y-142835771D01*
X163571428Y-142835771D02*
X163380952Y-142835771D01*
X163380952Y-142835771D02*
X163285714Y-142883390D01*
X163285714Y-142883390D02*
X163238095Y-142931009D01*
X163238095Y-142931009D02*
X163190476Y-143026247D01*
X108357142Y-121859580D02*
X108309523Y-121907200D01*
X108309523Y-121907200D02*
X108166666Y-121954819D01*
X108166666Y-121954819D02*
X108071428Y-121954819D01*
X108071428Y-121954819D02*
X107928571Y-121907200D01*
X107928571Y-121907200D02*
X107833333Y-121811961D01*
X107833333Y-121811961D02*
X107785714Y-121716723D01*
X107785714Y-121716723D02*
X107738095Y-121526247D01*
X107738095Y-121526247D02*
X107738095Y-121383390D01*
X107738095Y-121383390D02*
X107785714Y-121192914D01*
X107785714Y-121192914D02*
X107833333Y-121097676D01*
X107833333Y-121097676D02*
X107928571Y-121002438D01*
X107928571Y-121002438D02*
X108071428Y-120954819D01*
X108071428Y-120954819D02*
X108166666Y-120954819D01*
X108166666Y-120954819D02*
X108309523Y-121002438D01*
X108309523Y-121002438D02*
X108357142Y-121050057D01*
X109309523Y-121954819D02*
X108738095Y-121954819D01*
X109023809Y-121954819D02*
X109023809Y-120954819D01*
X109023809Y-120954819D02*
X108928571Y-121097676D01*
X108928571Y-121097676D02*
X108833333Y-121192914D01*
X108833333Y-121192914D02*
X108738095Y-121240533D01*
X110166666Y-121288152D02*
X110166666Y-121954819D01*
X109928571Y-120907200D02*
X109690476Y-121621485D01*
X109690476Y-121621485D02*
X110309523Y-121621485D01*
X144859580Y-134666666D02*
X144907200Y-134714285D01*
X144907200Y-134714285D02*
X144954819Y-134857142D01*
X144954819Y-134857142D02*
X144954819Y-134952380D01*
X144954819Y-134952380D02*
X144907200Y-135095237D01*
X144907200Y-135095237D02*
X144811961Y-135190475D01*
X144811961Y-135190475D02*
X144716723Y-135238094D01*
X144716723Y-135238094D02*
X144526247Y-135285713D01*
X144526247Y-135285713D02*
X144383390Y-135285713D01*
X144383390Y-135285713D02*
X144192914Y-135238094D01*
X144192914Y-135238094D02*
X144097676Y-135190475D01*
X144097676Y-135190475D02*
X144002438Y-135095237D01*
X144002438Y-135095237D02*
X143954819Y-134952380D01*
X143954819Y-134952380D02*
X143954819Y-134857142D01*
X143954819Y-134857142D02*
X144002438Y-134714285D01*
X144002438Y-134714285D02*
X144050057Y-134666666D01*
X143954819Y-134333332D02*
X143954819Y-133714285D01*
X143954819Y-133714285D02*
X144335771Y-134047618D01*
X144335771Y-134047618D02*
X144335771Y-133904761D01*
X144335771Y-133904761D02*
X144383390Y-133809523D01*
X144383390Y-133809523D02*
X144431009Y-133761904D01*
X144431009Y-133761904D02*
X144526247Y-133714285D01*
X144526247Y-133714285D02*
X144764342Y-133714285D01*
X144764342Y-133714285D02*
X144859580Y-133761904D01*
X144859580Y-133761904D02*
X144907200Y-133809523D01*
X144907200Y-133809523D02*
X144954819Y-133904761D01*
X144954819Y-133904761D02*
X144954819Y-134190475D01*
X144954819Y-134190475D02*
X144907200Y-134285713D01*
X144907200Y-134285713D02*
X144859580Y-134333332D01*
X127261904Y-155454819D02*
X127261904Y-156169104D01*
X127261904Y-156169104D02*
X127214285Y-156311961D01*
X127214285Y-156311961D02*
X127119047Y-156407200D01*
X127119047Y-156407200D02*
X126976190Y-156454819D01*
X126976190Y-156454819D02*
X126880952Y-156454819D01*
X127500000Y-156550057D02*
X128261904Y-156550057D01*
X128500000Y-156454819D02*
X128500000Y-155454819D01*
X129071428Y-156454819D02*
X128642857Y-155883390D01*
X129071428Y-155454819D02*
X128500000Y-156026247D01*
X129357143Y-155454819D02*
X129690476Y-156454819D01*
X129690476Y-156454819D02*
X130023809Y-155454819D01*
X130357143Y-156454819D02*
X130357143Y-155454819D01*
X130357143Y-155454819D02*
X130690476Y-156169104D01*
X130690476Y-156169104D02*
X131023809Y-155454819D01*
X131023809Y-155454819D02*
X131023809Y-156454819D01*
X124857142Y-152784819D02*
X124523809Y-152308628D01*
X124285714Y-152784819D02*
X124285714Y-151784819D01*
X124285714Y-151784819D02*
X124666666Y-151784819D01*
X124666666Y-151784819D02*
X124761904Y-151832438D01*
X124761904Y-151832438D02*
X124809523Y-151880057D01*
X124809523Y-151880057D02*
X124857142Y-151975295D01*
X124857142Y-151975295D02*
X124857142Y-152118152D01*
X124857142Y-152118152D02*
X124809523Y-152213390D01*
X124809523Y-152213390D02*
X124761904Y-152261009D01*
X124761904Y-152261009D02*
X124666666Y-152308628D01*
X124666666Y-152308628D02*
X124285714Y-152308628D01*
X125238095Y-151880057D02*
X125285714Y-151832438D01*
X125285714Y-151832438D02*
X125380952Y-151784819D01*
X125380952Y-151784819D02*
X125619047Y-151784819D01*
X125619047Y-151784819D02*
X125714285Y-151832438D01*
X125714285Y-151832438D02*
X125761904Y-151880057D01*
X125761904Y-151880057D02*
X125809523Y-151975295D01*
X125809523Y-151975295D02*
X125809523Y-152070533D01*
X125809523Y-152070533D02*
X125761904Y-152213390D01*
X125761904Y-152213390D02*
X125190476Y-152784819D01*
X125190476Y-152784819D02*
X125809523Y-152784819D01*
X126666666Y-152118152D02*
X126666666Y-152784819D01*
X126428571Y-151737200D02*
X126190476Y-152451485D01*
X126190476Y-152451485D02*
X126809523Y-152451485D01*
X157083333Y-118109580D02*
X157035714Y-118157200D01*
X157035714Y-118157200D02*
X156892857Y-118204819D01*
X156892857Y-118204819D02*
X156797619Y-118204819D01*
X156797619Y-118204819D02*
X156654762Y-118157200D01*
X156654762Y-118157200D02*
X156559524Y-118061961D01*
X156559524Y-118061961D02*
X156511905Y-117966723D01*
X156511905Y-117966723D02*
X156464286Y-117776247D01*
X156464286Y-117776247D02*
X156464286Y-117633390D01*
X156464286Y-117633390D02*
X156511905Y-117442914D01*
X156511905Y-117442914D02*
X156559524Y-117347676D01*
X156559524Y-117347676D02*
X156654762Y-117252438D01*
X156654762Y-117252438D02*
X156797619Y-117204819D01*
X156797619Y-117204819D02*
X156892857Y-117204819D01*
X156892857Y-117204819D02*
X157035714Y-117252438D01*
X157035714Y-117252438D02*
X157083333Y-117300057D01*
X157559524Y-118204819D02*
X157750000Y-118204819D01*
X157750000Y-118204819D02*
X157845238Y-118157200D01*
X157845238Y-118157200D02*
X157892857Y-118109580D01*
X157892857Y-118109580D02*
X157988095Y-117966723D01*
X157988095Y-117966723D02*
X158035714Y-117776247D01*
X158035714Y-117776247D02*
X158035714Y-117395295D01*
X158035714Y-117395295D02*
X157988095Y-117300057D01*
X157988095Y-117300057D02*
X157940476Y-117252438D01*
X157940476Y-117252438D02*
X157845238Y-117204819D01*
X157845238Y-117204819D02*
X157654762Y-117204819D01*
X157654762Y-117204819D02*
X157559524Y-117252438D01*
X157559524Y-117252438D02*
X157511905Y-117300057D01*
X157511905Y-117300057D02*
X157464286Y-117395295D01*
X157464286Y-117395295D02*
X157464286Y-117633390D01*
X157464286Y-117633390D02*
X157511905Y-117728628D01*
X157511905Y-117728628D02*
X157559524Y-117776247D01*
X157559524Y-117776247D02*
X157654762Y-117823866D01*
X157654762Y-117823866D02*
X157845238Y-117823866D01*
X157845238Y-117823866D02*
X157940476Y-117776247D01*
X157940476Y-117776247D02*
X157988095Y-117728628D01*
X157988095Y-117728628D02*
X158035714Y-117633390D01*
X110857143Y-123204819D02*
X110857143Y-122204819D01*
X110857143Y-122204819D02*
X111095238Y-122204819D01*
X111095238Y-122204819D02*
X111238095Y-122252438D01*
X111238095Y-122252438D02*
X111333333Y-122347676D01*
X111333333Y-122347676D02*
X111380952Y-122442914D01*
X111380952Y-122442914D02*
X111428571Y-122633390D01*
X111428571Y-122633390D02*
X111428571Y-122776247D01*
X111428571Y-122776247D02*
X111380952Y-122966723D01*
X111380952Y-122966723D02*
X111333333Y-123061961D01*
X111333333Y-123061961D02*
X111238095Y-123157200D01*
X111238095Y-123157200D02*
X111095238Y-123204819D01*
X111095238Y-123204819D02*
X110857143Y-123204819D01*
X112333333Y-123204819D02*
X111857143Y-123204819D01*
X111857143Y-123204819D02*
X111857143Y-122204819D01*
X112571429Y-122204819D02*
X113238095Y-122204819D01*
X113238095Y-122204819D02*
X112809524Y-123204819D01*
X109028571Y-124987295D02*
X108571428Y-124987295D01*
X108800000Y-124987295D02*
X108800000Y-124187295D01*
X108800000Y-124187295D02*
X108723809Y-124301580D01*
X108723809Y-124301580D02*
X108647619Y-124377771D01*
X108647619Y-124377771D02*
X108571428Y-124415866D01*
X102238095Y-120054819D02*
X102238095Y-120864342D01*
X102238095Y-120864342D02*
X102285714Y-120959580D01*
X102285714Y-120959580D02*
X102333333Y-121007200D01*
X102333333Y-121007200D02*
X102428571Y-121054819D01*
X102428571Y-121054819D02*
X102619047Y-121054819D01*
X102619047Y-121054819D02*
X102714285Y-121007200D01*
X102714285Y-121007200D02*
X102761904Y-120959580D01*
X102761904Y-120959580D02*
X102809523Y-120864342D01*
X102809523Y-120864342D02*
X102809523Y-120054819D01*
X103714285Y-120054819D02*
X103523809Y-120054819D01*
X103523809Y-120054819D02*
X103428571Y-120102438D01*
X103428571Y-120102438D02*
X103380952Y-120150057D01*
X103380952Y-120150057D02*
X103285714Y-120292914D01*
X103285714Y-120292914D02*
X103238095Y-120483390D01*
X103238095Y-120483390D02*
X103238095Y-120864342D01*
X103238095Y-120864342D02*
X103285714Y-120959580D01*
X103285714Y-120959580D02*
X103333333Y-121007200D01*
X103333333Y-121007200D02*
X103428571Y-121054819D01*
X103428571Y-121054819D02*
X103619047Y-121054819D01*
X103619047Y-121054819D02*
X103714285Y-121007200D01*
X103714285Y-121007200D02*
X103761904Y-120959580D01*
X103761904Y-120959580D02*
X103809523Y-120864342D01*
X103809523Y-120864342D02*
X103809523Y-120626247D01*
X103809523Y-120626247D02*
X103761904Y-120531009D01*
X103761904Y-120531009D02*
X103714285Y-120483390D01*
X103714285Y-120483390D02*
X103619047Y-120435771D01*
X103619047Y-120435771D02*
X103428571Y-120435771D01*
X103428571Y-120435771D02*
X103333333Y-120483390D01*
X103333333Y-120483390D02*
X103285714Y-120531009D01*
X103285714Y-120531009D02*
X103238095Y-120626247D01*
X159499819Y-150142857D02*
X160214104Y-150142857D01*
X160214104Y-150142857D02*
X160356961Y-150190476D01*
X160356961Y-150190476D02*
X160452200Y-150285714D01*
X160452200Y-150285714D02*
X160499819Y-150428571D01*
X160499819Y-150428571D02*
X160499819Y-150523809D01*
X160595057Y-149904762D02*
X160595057Y-149142857D01*
X159499819Y-148428571D02*
X159499819Y-148904761D01*
X159499819Y-148904761D02*
X159976009Y-148952380D01*
X159976009Y-148952380D02*
X159928390Y-148904761D01*
X159928390Y-148904761D02*
X159880771Y-148809523D01*
X159880771Y-148809523D02*
X159880771Y-148571428D01*
X159880771Y-148571428D02*
X159928390Y-148476190D01*
X159928390Y-148476190D02*
X159976009Y-148428571D01*
X159976009Y-148428571D02*
X160071247Y-148380952D01*
X160071247Y-148380952D02*
X160309342Y-148380952D01*
X160309342Y-148380952D02*
X160404580Y-148428571D01*
X160404580Y-148428571D02*
X160452200Y-148476190D01*
X160452200Y-148476190D02*
X160499819Y-148571428D01*
X160499819Y-148571428D02*
X160499819Y-148809523D01*
X160499819Y-148809523D02*
X160452200Y-148904761D01*
X160452200Y-148904761D02*
X160404580Y-148952380D01*
X159499819Y-148095237D02*
X160499819Y-147761904D01*
X160499819Y-147761904D02*
X159499819Y-147428571D01*
X90738095Y-143454819D02*
X91309523Y-143454819D01*
X91023809Y-144454819D02*
X91023809Y-143454819D01*
X91642857Y-144454819D02*
X91642857Y-143454819D01*
X91642857Y-143454819D02*
X92023809Y-143454819D01*
X92023809Y-143454819D02*
X92119047Y-143502438D01*
X92119047Y-143502438D02*
X92166666Y-143550057D01*
X92166666Y-143550057D02*
X92214285Y-143645295D01*
X92214285Y-143645295D02*
X92214285Y-143788152D01*
X92214285Y-143788152D02*
X92166666Y-143883390D01*
X92166666Y-143883390D02*
X92119047Y-143931009D01*
X92119047Y-143931009D02*
X92023809Y-143978628D01*
X92023809Y-143978628D02*
X91642857Y-143978628D01*
X93119047Y-143454819D02*
X92642857Y-143454819D01*
X92642857Y-143454819D02*
X92595238Y-143931009D01*
X92595238Y-143931009D02*
X92642857Y-143883390D01*
X92642857Y-143883390D02*
X92738095Y-143835771D01*
X92738095Y-143835771D02*
X92976190Y-143835771D01*
X92976190Y-143835771D02*
X93071428Y-143883390D01*
X93071428Y-143883390D02*
X93119047Y-143931009D01*
X93119047Y-143931009D02*
X93166666Y-144026247D01*
X93166666Y-144026247D02*
X93166666Y-144264342D01*
X93166666Y-144264342D02*
X93119047Y-144359580D01*
X93119047Y-144359580D02*
X93071428Y-144407200D01*
X93071428Y-144407200D02*
X92976190Y-144454819D01*
X92976190Y-144454819D02*
X92738095Y-144454819D01*
X92738095Y-144454819D02*
X92642857Y-144407200D01*
X92642857Y-144407200D02*
X92595238Y-144359580D01*
X96107142Y-130454819D02*
X95773809Y-129978628D01*
X95535714Y-130454819D02*
X95535714Y-129454819D01*
X95535714Y-129454819D02*
X95916666Y-129454819D01*
X95916666Y-129454819D02*
X96011904Y-129502438D01*
X96011904Y-129502438D02*
X96059523Y-129550057D01*
X96059523Y-129550057D02*
X96107142Y-129645295D01*
X96107142Y-129645295D02*
X96107142Y-129788152D01*
X96107142Y-129788152D02*
X96059523Y-129883390D01*
X96059523Y-129883390D02*
X96011904Y-129931009D01*
X96011904Y-129931009D02*
X95916666Y-129978628D01*
X95916666Y-129978628D02*
X95535714Y-129978628D01*
X97059523Y-130454819D02*
X96488095Y-130454819D01*
X96773809Y-130454819D02*
X96773809Y-129454819D01*
X96773809Y-129454819D02*
X96678571Y-129597676D01*
X96678571Y-129597676D02*
X96583333Y-129692914D01*
X96583333Y-129692914D02*
X96488095Y-129740533D01*
X97535714Y-130454819D02*
X97726190Y-130454819D01*
X97726190Y-130454819D02*
X97821428Y-130407200D01*
X97821428Y-130407200D02*
X97869047Y-130359580D01*
X97869047Y-130359580D02*
X97964285Y-130216723D01*
X97964285Y-130216723D02*
X98011904Y-130026247D01*
X98011904Y-130026247D02*
X98011904Y-129645295D01*
X98011904Y-129645295D02*
X97964285Y-129550057D01*
X97964285Y-129550057D02*
X97916666Y-129502438D01*
X97916666Y-129502438D02*
X97821428Y-129454819D01*
X97821428Y-129454819D02*
X97630952Y-129454819D01*
X97630952Y-129454819D02*
X97535714Y-129502438D01*
X97535714Y-129502438D02*
X97488095Y-129550057D01*
X97488095Y-129550057D02*
X97440476Y-129645295D01*
X97440476Y-129645295D02*
X97440476Y-129883390D01*
X97440476Y-129883390D02*
X97488095Y-129978628D01*
X97488095Y-129978628D02*
X97535714Y-130026247D01*
X97535714Y-130026247D02*
X97630952Y-130073866D01*
X97630952Y-130073866D02*
X97821428Y-130073866D01*
X97821428Y-130073866D02*
X97916666Y-130026247D01*
X97916666Y-130026247D02*
X97964285Y-129978628D01*
X97964285Y-129978628D02*
X98011904Y-129883390D01*
X114833333Y-108954819D02*
X114500000Y-108478628D01*
X114261905Y-108954819D02*
X114261905Y-107954819D01*
X114261905Y-107954819D02*
X114642857Y-107954819D01*
X114642857Y-107954819D02*
X114738095Y-108002438D01*
X114738095Y-108002438D02*
X114785714Y-108050057D01*
X114785714Y-108050057D02*
X114833333Y-108145295D01*
X114833333Y-108145295D02*
X114833333Y-108288152D01*
X114833333Y-108288152D02*
X114785714Y-108383390D01*
X114785714Y-108383390D02*
X114738095Y-108431009D01*
X114738095Y-108431009D02*
X114642857Y-108478628D01*
X114642857Y-108478628D02*
X114261905Y-108478628D01*
X115690476Y-107954819D02*
X115500000Y-107954819D01*
X115500000Y-107954819D02*
X115404762Y-108002438D01*
X115404762Y-108002438D02*
X115357143Y-108050057D01*
X115357143Y-108050057D02*
X115261905Y-108192914D01*
X115261905Y-108192914D02*
X115214286Y-108383390D01*
X115214286Y-108383390D02*
X115214286Y-108764342D01*
X115214286Y-108764342D02*
X115261905Y-108859580D01*
X115261905Y-108859580D02*
X115309524Y-108907200D01*
X115309524Y-108907200D02*
X115404762Y-108954819D01*
X115404762Y-108954819D02*
X115595238Y-108954819D01*
X115595238Y-108954819D02*
X115690476Y-108907200D01*
X115690476Y-108907200D02*
X115738095Y-108859580D01*
X115738095Y-108859580D02*
X115785714Y-108764342D01*
X115785714Y-108764342D02*
X115785714Y-108526247D01*
X115785714Y-108526247D02*
X115738095Y-108431009D01*
X115738095Y-108431009D02*
X115690476Y-108383390D01*
X115690476Y-108383390D02*
X115595238Y-108335771D01*
X115595238Y-108335771D02*
X115404762Y-108335771D01*
X115404762Y-108335771D02*
X115309524Y-108383390D01*
X115309524Y-108383390D02*
X115261905Y-108431009D01*
X115261905Y-108431009D02*
X115214286Y-108526247D01*
X146859580Y-140166666D02*
X146907200Y-140214285D01*
X146907200Y-140214285D02*
X146954819Y-140357142D01*
X146954819Y-140357142D02*
X146954819Y-140452380D01*
X146954819Y-140452380D02*
X146907200Y-140595237D01*
X146907200Y-140595237D02*
X146811961Y-140690475D01*
X146811961Y-140690475D02*
X146716723Y-140738094D01*
X146716723Y-140738094D02*
X146526247Y-140785713D01*
X146526247Y-140785713D02*
X146383390Y-140785713D01*
X146383390Y-140785713D02*
X146192914Y-140738094D01*
X146192914Y-140738094D02*
X146097676Y-140690475D01*
X146097676Y-140690475D02*
X146002438Y-140595237D01*
X146002438Y-140595237D02*
X145954819Y-140452380D01*
X145954819Y-140452380D02*
X145954819Y-140357142D01*
X145954819Y-140357142D02*
X146002438Y-140214285D01*
X146002438Y-140214285D02*
X146050057Y-140166666D01*
X146954819Y-139214285D02*
X146954819Y-139785713D01*
X146954819Y-139499999D02*
X145954819Y-139499999D01*
X145954819Y-139499999D02*
X146097676Y-139595237D01*
X146097676Y-139595237D02*
X146192914Y-139690475D01*
X146192914Y-139690475D02*
X146240533Y-139785713D01*
X76238095Y-146454819D02*
X76238095Y-147264342D01*
X76238095Y-147264342D02*
X76285714Y-147359580D01*
X76285714Y-147359580D02*
X76333333Y-147407200D01*
X76333333Y-147407200D02*
X76428571Y-147454819D01*
X76428571Y-147454819D02*
X76619047Y-147454819D01*
X76619047Y-147454819D02*
X76714285Y-147407200D01*
X76714285Y-147407200D02*
X76761904Y-147359580D01*
X76761904Y-147359580D02*
X76809523Y-147264342D01*
X76809523Y-147264342D02*
X76809523Y-146454819D01*
X77714285Y-146788152D02*
X77714285Y-147454819D01*
X77476190Y-146407200D02*
X77238095Y-147121485D01*
X77238095Y-147121485D02*
X77857142Y-147121485D01*
X117333333Y-144459580D02*
X117285714Y-144507200D01*
X117285714Y-144507200D02*
X117142857Y-144554819D01*
X117142857Y-144554819D02*
X117047619Y-144554819D01*
X117047619Y-144554819D02*
X116904762Y-144507200D01*
X116904762Y-144507200D02*
X116809524Y-144411961D01*
X116809524Y-144411961D02*
X116761905Y-144316723D01*
X116761905Y-144316723D02*
X116714286Y-144126247D01*
X116714286Y-144126247D02*
X116714286Y-143983390D01*
X116714286Y-143983390D02*
X116761905Y-143792914D01*
X116761905Y-143792914D02*
X116809524Y-143697676D01*
X116809524Y-143697676D02*
X116904762Y-143602438D01*
X116904762Y-143602438D02*
X117047619Y-143554819D01*
X117047619Y-143554819D02*
X117142857Y-143554819D01*
X117142857Y-143554819D02*
X117285714Y-143602438D01*
X117285714Y-143602438D02*
X117333333Y-143650057D01*
X117904762Y-143983390D02*
X117809524Y-143935771D01*
X117809524Y-143935771D02*
X117761905Y-143888152D01*
X117761905Y-143888152D02*
X117714286Y-143792914D01*
X117714286Y-143792914D02*
X117714286Y-143745295D01*
X117714286Y-143745295D02*
X117761905Y-143650057D01*
X117761905Y-143650057D02*
X117809524Y-143602438D01*
X117809524Y-143602438D02*
X117904762Y-143554819D01*
X117904762Y-143554819D02*
X118095238Y-143554819D01*
X118095238Y-143554819D02*
X118190476Y-143602438D01*
X118190476Y-143602438D02*
X118238095Y-143650057D01*
X118238095Y-143650057D02*
X118285714Y-143745295D01*
X118285714Y-143745295D02*
X118285714Y-143792914D01*
X118285714Y-143792914D02*
X118238095Y-143888152D01*
X118238095Y-143888152D02*
X118190476Y-143935771D01*
X118190476Y-143935771D02*
X118095238Y-143983390D01*
X118095238Y-143983390D02*
X117904762Y-143983390D01*
X117904762Y-143983390D02*
X117809524Y-144031009D01*
X117809524Y-144031009D02*
X117761905Y-144078628D01*
X117761905Y-144078628D02*
X117714286Y-144173866D01*
X117714286Y-144173866D02*
X117714286Y-144364342D01*
X117714286Y-144364342D02*
X117761905Y-144459580D01*
X117761905Y-144459580D02*
X117809524Y-144507200D01*
X117809524Y-144507200D02*
X117904762Y-144554819D01*
X117904762Y-144554819D02*
X118095238Y-144554819D01*
X118095238Y-144554819D02*
X118190476Y-144507200D01*
X118190476Y-144507200D02*
X118238095Y-144459580D01*
X118238095Y-144459580D02*
X118285714Y-144364342D01*
X118285714Y-144364342D02*
X118285714Y-144173866D01*
X118285714Y-144173866D02*
X118238095Y-144078628D01*
X118238095Y-144078628D02*
X118190476Y-144031009D01*
X118190476Y-144031009D02*
X118095238Y-143983390D01*
X125261905Y-111454819D02*
X125261905Y-110454819D01*
X125261905Y-110454819D02*
X125500000Y-110454819D01*
X125500000Y-110454819D02*
X125642857Y-110502438D01*
X125642857Y-110502438D02*
X125738095Y-110597676D01*
X125738095Y-110597676D02*
X125785714Y-110692914D01*
X125785714Y-110692914D02*
X125833333Y-110883390D01*
X125833333Y-110883390D02*
X125833333Y-111026247D01*
X125833333Y-111026247D02*
X125785714Y-111216723D01*
X125785714Y-111216723D02*
X125738095Y-111311961D01*
X125738095Y-111311961D02*
X125642857Y-111407200D01*
X125642857Y-111407200D02*
X125500000Y-111454819D01*
X125500000Y-111454819D02*
X125261905Y-111454819D01*
X126690476Y-110788152D02*
X126690476Y-111454819D01*
X126452381Y-110407200D02*
X126214286Y-111121485D01*
X126214286Y-111121485D02*
X126833333Y-111121485D01*
X132774819Y-121535713D02*
X132774819Y-120964285D01*
X133774819Y-121249999D02*
X132774819Y-121249999D01*
X133774819Y-120630951D02*
X132774819Y-120630951D01*
X133251009Y-120630951D02*
X133251009Y-120059523D01*
X133774819Y-120059523D02*
X132774819Y-120059523D01*
X133774819Y-119059523D02*
X133774819Y-119630951D01*
X133774819Y-119345237D02*
X132774819Y-119345237D01*
X132774819Y-119345237D02*
X132917676Y-119440475D01*
X132917676Y-119440475D02*
X133012914Y-119535713D01*
X133012914Y-119535713D02*
X133060533Y-119630951D01*
X112261905Y-111504819D02*
X112261905Y-110504819D01*
X112261905Y-110504819D02*
X112500000Y-110504819D01*
X112500000Y-110504819D02*
X112642857Y-110552438D01*
X112642857Y-110552438D02*
X112738095Y-110647676D01*
X112738095Y-110647676D02*
X112785714Y-110742914D01*
X112785714Y-110742914D02*
X112833333Y-110933390D01*
X112833333Y-110933390D02*
X112833333Y-111076247D01*
X112833333Y-111076247D02*
X112785714Y-111266723D01*
X112785714Y-111266723D02*
X112738095Y-111361961D01*
X112738095Y-111361961D02*
X112642857Y-111457200D01*
X112642857Y-111457200D02*
X112500000Y-111504819D01*
X112500000Y-111504819D02*
X112261905Y-111504819D01*
X113166667Y-110504819D02*
X113785714Y-110504819D01*
X113785714Y-110504819D02*
X113452381Y-110885771D01*
X113452381Y-110885771D02*
X113595238Y-110885771D01*
X113595238Y-110885771D02*
X113690476Y-110933390D01*
X113690476Y-110933390D02*
X113738095Y-110981009D01*
X113738095Y-110981009D02*
X113785714Y-111076247D01*
X113785714Y-111076247D02*
X113785714Y-111314342D01*
X113785714Y-111314342D02*
X113738095Y-111409580D01*
X113738095Y-111409580D02*
X113690476Y-111457200D01*
X113690476Y-111457200D02*
X113595238Y-111504819D01*
X113595238Y-111504819D02*
X113309524Y-111504819D01*
X113309524Y-111504819D02*
X113214286Y-111457200D01*
X113214286Y-111457200D02*
X113166667Y-111409580D01*
X97333333Y-152954819D02*
X97000000Y-152478628D01*
X96761905Y-152954819D02*
X96761905Y-151954819D01*
X96761905Y-151954819D02*
X97142857Y-151954819D01*
X97142857Y-151954819D02*
X97238095Y-152002438D01*
X97238095Y-152002438D02*
X97285714Y-152050057D01*
X97285714Y-152050057D02*
X97333333Y-152145295D01*
X97333333Y-152145295D02*
X97333333Y-152288152D01*
X97333333Y-152288152D02*
X97285714Y-152383390D01*
X97285714Y-152383390D02*
X97238095Y-152431009D01*
X97238095Y-152431009D02*
X97142857Y-152478628D01*
X97142857Y-152478628D02*
X96761905Y-152478628D01*
X97809524Y-152954819D02*
X98000000Y-152954819D01*
X98000000Y-152954819D02*
X98095238Y-152907200D01*
X98095238Y-152907200D02*
X98142857Y-152859580D01*
X98142857Y-152859580D02*
X98238095Y-152716723D01*
X98238095Y-152716723D02*
X98285714Y-152526247D01*
X98285714Y-152526247D02*
X98285714Y-152145295D01*
X98285714Y-152145295D02*
X98238095Y-152050057D01*
X98238095Y-152050057D02*
X98190476Y-152002438D01*
X98190476Y-152002438D02*
X98095238Y-151954819D01*
X98095238Y-151954819D02*
X97904762Y-151954819D01*
X97904762Y-151954819D02*
X97809524Y-152002438D01*
X97809524Y-152002438D02*
X97761905Y-152050057D01*
X97761905Y-152050057D02*
X97714286Y-152145295D01*
X97714286Y-152145295D02*
X97714286Y-152383390D01*
X97714286Y-152383390D02*
X97761905Y-152478628D01*
X97761905Y-152478628D02*
X97809524Y-152526247D01*
X97809524Y-152526247D02*
X97904762Y-152573866D01*
X97904762Y-152573866D02*
X98095238Y-152573866D01*
X98095238Y-152573866D02*
X98190476Y-152526247D01*
X98190476Y-152526247D02*
X98238095Y-152478628D01*
X98238095Y-152478628D02*
X98285714Y-152383390D01*
X141500000Y-122954819D02*
X141166667Y-122478628D01*
X140928572Y-122954819D02*
X140928572Y-121954819D01*
X140928572Y-121954819D02*
X141309524Y-121954819D01*
X141309524Y-121954819D02*
X141404762Y-122002438D01*
X141404762Y-122002438D02*
X141452381Y-122050057D01*
X141452381Y-122050057D02*
X141500000Y-122145295D01*
X141500000Y-122145295D02*
X141500000Y-122288152D01*
X141500000Y-122288152D02*
X141452381Y-122383390D01*
X141452381Y-122383390D02*
X141404762Y-122431009D01*
X141404762Y-122431009D02*
X141309524Y-122478628D01*
X141309524Y-122478628D02*
X140928572Y-122478628D01*
X141690477Y-123050057D02*
X142452381Y-123050057D01*
X142690477Y-122954819D02*
X142690477Y-121954819D01*
X143642857Y-122954819D02*
X143166667Y-122954819D01*
X143166667Y-122954819D02*
X143166667Y-121954819D01*
X143976191Y-122954819D02*
X143976191Y-121954819D01*
X144452381Y-122954819D02*
X144452381Y-121954819D01*
X144452381Y-121954819D02*
X144785714Y-122669104D01*
X144785714Y-122669104D02*
X145119047Y-121954819D01*
X145119047Y-121954819D02*
X145119047Y-122954819D01*
X145547619Y-122050057D02*
X145595238Y-122002438D01*
X145595238Y-122002438D02*
X145690476Y-121954819D01*
X145690476Y-121954819D02*
X145928571Y-121954819D01*
X145928571Y-121954819D02*
X146023809Y-122002438D01*
X146023809Y-122002438D02*
X146071428Y-122050057D01*
X146071428Y-122050057D02*
X146119047Y-122145295D01*
X146119047Y-122145295D02*
X146119047Y-122240533D01*
X146119047Y-122240533D02*
X146071428Y-122383390D01*
X146071428Y-122383390D02*
X145500000Y-122954819D01*
X145500000Y-122954819D02*
X146119047Y-122954819D01*
X151249999Y-122359580D02*
X151202380Y-122407200D01*
X151202380Y-122407200D02*
X151059523Y-122454819D01*
X151059523Y-122454819D02*
X150964285Y-122454819D01*
X150964285Y-122454819D02*
X150821428Y-122407200D01*
X150821428Y-122407200D02*
X150726190Y-122311961D01*
X150726190Y-122311961D02*
X150678571Y-122216723D01*
X150678571Y-122216723D02*
X150630952Y-122026247D01*
X150630952Y-122026247D02*
X150630952Y-121883390D01*
X150630952Y-121883390D02*
X150678571Y-121692914D01*
X150678571Y-121692914D02*
X150726190Y-121597676D01*
X150726190Y-121597676D02*
X150821428Y-121502438D01*
X150821428Y-121502438D02*
X150964285Y-121454819D01*
X150964285Y-121454819D02*
X151059523Y-121454819D01*
X151059523Y-121454819D02*
X151202380Y-121502438D01*
X151202380Y-121502438D02*
X151249999Y-121550057D01*
X151440476Y-122550057D02*
X152202380Y-122550057D01*
X152392857Y-122407200D02*
X152535714Y-122454819D01*
X152535714Y-122454819D02*
X152773809Y-122454819D01*
X152773809Y-122454819D02*
X152869047Y-122407200D01*
X152869047Y-122407200D02*
X152916666Y-122359580D01*
X152916666Y-122359580D02*
X152964285Y-122264342D01*
X152964285Y-122264342D02*
X152964285Y-122169104D01*
X152964285Y-122169104D02*
X152916666Y-122073866D01*
X152916666Y-122073866D02*
X152869047Y-122026247D01*
X152869047Y-122026247D02*
X152773809Y-121978628D01*
X152773809Y-121978628D02*
X152583333Y-121931009D01*
X152583333Y-121931009D02*
X152488095Y-121883390D01*
X152488095Y-121883390D02*
X152440476Y-121835771D01*
X152440476Y-121835771D02*
X152392857Y-121740533D01*
X152392857Y-121740533D02*
X152392857Y-121645295D01*
X152392857Y-121645295D02*
X152440476Y-121550057D01*
X152440476Y-121550057D02*
X152488095Y-121502438D01*
X152488095Y-121502438D02*
X152583333Y-121454819D01*
X152583333Y-121454819D02*
X152821428Y-121454819D01*
X152821428Y-121454819D02*
X152964285Y-121502438D01*
X153345238Y-122407200D02*
X153488095Y-122454819D01*
X153488095Y-122454819D02*
X153726190Y-122454819D01*
X153726190Y-122454819D02*
X153821428Y-122407200D01*
X153821428Y-122407200D02*
X153869047Y-122359580D01*
X153869047Y-122359580D02*
X153916666Y-122264342D01*
X153916666Y-122264342D02*
X153916666Y-122169104D01*
X153916666Y-122169104D02*
X153869047Y-122073866D01*
X153869047Y-122073866D02*
X153821428Y-122026247D01*
X153821428Y-122026247D02*
X153726190Y-121978628D01*
X153726190Y-121978628D02*
X153535714Y-121931009D01*
X153535714Y-121931009D02*
X153440476Y-121883390D01*
X153440476Y-121883390D02*
X153392857Y-121835771D01*
X153392857Y-121835771D02*
X153345238Y-121740533D01*
X153345238Y-121740533D02*
X153345238Y-121645295D01*
X153345238Y-121645295D02*
X153392857Y-121550057D01*
X153392857Y-121550057D02*
X153440476Y-121502438D01*
X153440476Y-121502438D02*
X153535714Y-121454819D01*
X153535714Y-121454819D02*
X153773809Y-121454819D01*
X153773809Y-121454819D02*
X153916666Y-121502438D01*
X154297619Y-121550057D02*
X154345238Y-121502438D01*
X154345238Y-121502438D02*
X154440476Y-121454819D01*
X154440476Y-121454819D02*
X154678571Y-121454819D01*
X154678571Y-121454819D02*
X154773809Y-121502438D01*
X154773809Y-121502438D02*
X154821428Y-121550057D01*
X154821428Y-121550057D02*
X154869047Y-121645295D01*
X154869047Y-121645295D02*
X154869047Y-121740533D01*
X154869047Y-121740533D02*
X154821428Y-121883390D01*
X154821428Y-121883390D02*
X154250000Y-122454819D01*
X154250000Y-122454819D02*
X154869047Y-122454819D01*
X142454819Y-149047618D02*
X142454819Y-148476190D01*
X143454819Y-148761904D02*
X142454819Y-148761904D01*
X143454819Y-148142856D02*
X142454819Y-148142856D01*
X142454819Y-148142856D02*
X142454819Y-147761904D01*
X142454819Y-147761904D02*
X142502438Y-147666666D01*
X142502438Y-147666666D02*
X142550057Y-147619047D01*
X142550057Y-147619047D02*
X142645295Y-147571428D01*
X142645295Y-147571428D02*
X142788152Y-147571428D01*
X142788152Y-147571428D02*
X142883390Y-147619047D01*
X142883390Y-147619047D02*
X142931009Y-147666666D01*
X142931009Y-147666666D02*
X142978628Y-147761904D01*
X142978628Y-147761904D02*
X142978628Y-148142856D01*
X143550057Y-147380952D02*
X143550057Y-146619047D01*
X142454819Y-146476189D02*
X142454819Y-145857142D01*
X142454819Y-145857142D02*
X142835771Y-146190475D01*
X142835771Y-146190475D02*
X142835771Y-146047618D01*
X142835771Y-146047618D02*
X142883390Y-145952380D01*
X142883390Y-145952380D02*
X142931009Y-145904761D01*
X142931009Y-145904761D02*
X143026247Y-145857142D01*
X143026247Y-145857142D02*
X143264342Y-145857142D01*
X143264342Y-145857142D02*
X143359580Y-145904761D01*
X143359580Y-145904761D02*
X143407200Y-145952380D01*
X143407200Y-145952380D02*
X143454819Y-146047618D01*
X143454819Y-146047618D02*
X143454819Y-146333332D01*
X143454819Y-146333332D02*
X143407200Y-146428570D01*
X143407200Y-146428570D02*
X143359580Y-146476189D01*
X142454819Y-145571427D02*
X143454819Y-145238094D01*
X143454819Y-145238094D02*
X142454819Y-144904761D01*
X142454819Y-144666665D02*
X142454819Y-144047618D01*
X142454819Y-144047618D02*
X142835771Y-144380951D01*
X142835771Y-144380951D02*
X142835771Y-144238094D01*
X142835771Y-144238094D02*
X142883390Y-144142856D01*
X142883390Y-144142856D02*
X142931009Y-144095237D01*
X142931009Y-144095237D02*
X143026247Y-144047618D01*
X143026247Y-144047618D02*
X143264342Y-144047618D01*
X143264342Y-144047618D02*
X143359580Y-144095237D01*
X143359580Y-144095237D02*
X143407200Y-144142856D01*
X143407200Y-144142856D02*
X143454819Y-144238094D01*
X143454819Y-144238094D02*
X143454819Y-144523808D01*
X143454819Y-144523808D02*
X143407200Y-144619046D01*
X143407200Y-144619046D02*
X143359580Y-144666665D01*
X145954819Y-149047618D02*
X145954819Y-148476190D01*
X146954819Y-148761904D02*
X145954819Y-148761904D01*
X146954819Y-148142856D02*
X145954819Y-148142856D01*
X145954819Y-148142856D02*
X145954819Y-147761904D01*
X145954819Y-147761904D02*
X146002438Y-147666666D01*
X146002438Y-147666666D02*
X146050057Y-147619047D01*
X146050057Y-147619047D02*
X146145295Y-147571428D01*
X146145295Y-147571428D02*
X146288152Y-147571428D01*
X146288152Y-147571428D02*
X146383390Y-147619047D01*
X146383390Y-147619047D02*
X146431009Y-147666666D01*
X146431009Y-147666666D02*
X146478628Y-147761904D01*
X146478628Y-147761904D02*
X146478628Y-148142856D01*
X147050057Y-147380952D02*
X147050057Y-146619047D01*
X145954819Y-146523808D02*
X146954819Y-146190475D01*
X146954819Y-146190475D02*
X145954819Y-145857142D01*
X146954819Y-145523808D02*
X145954819Y-145523808D01*
X146431009Y-145523808D02*
X146431009Y-144952380D01*
X146954819Y-144952380D02*
X145954819Y-144952380D01*
X145954819Y-144285713D02*
X145954819Y-144095237D01*
X145954819Y-144095237D02*
X146002438Y-143999999D01*
X146002438Y-143999999D02*
X146097676Y-143904761D01*
X146097676Y-143904761D02*
X146288152Y-143857142D01*
X146288152Y-143857142D02*
X146621485Y-143857142D01*
X146621485Y-143857142D02*
X146811961Y-143904761D01*
X146811961Y-143904761D02*
X146907200Y-143999999D01*
X146907200Y-143999999D02*
X146954819Y-144095237D01*
X146954819Y-144095237D02*
X146954819Y-144285713D01*
X146954819Y-144285713D02*
X146907200Y-144380951D01*
X146907200Y-144380951D02*
X146811961Y-144476189D01*
X146811961Y-144476189D02*
X146621485Y-144523808D01*
X146621485Y-144523808D02*
X146288152Y-144523808D01*
X146288152Y-144523808D02*
X146097676Y-144476189D01*
X146097676Y-144476189D02*
X146002438Y-144380951D01*
X146002438Y-144380951D02*
X145954819Y-144285713D01*
X146954819Y-142952380D02*
X146954819Y-143428570D01*
X146954819Y-143428570D02*
X145954819Y-143428570D01*
X146954819Y-142619046D02*
X145954819Y-142619046D01*
X145954819Y-142619046D02*
X145954819Y-142380951D01*
X145954819Y-142380951D02*
X146002438Y-142238094D01*
X146002438Y-142238094D02*
X146097676Y-142142856D01*
X146097676Y-142142856D02*
X146192914Y-142095237D01*
X146192914Y-142095237D02*
X146383390Y-142047618D01*
X146383390Y-142047618D02*
X146526247Y-142047618D01*
X146526247Y-142047618D02*
X146716723Y-142095237D01*
X146716723Y-142095237D02*
X146811961Y-142142856D01*
X146811961Y-142142856D02*
X146907200Y-142238094D01*
X146907200Y-142238094D02*
X146954819Y-142380951D01*
X146954819Y-142380951D02*
X146954819Y-142619046D01*
X128004166Y-106054819D02*
X128004166Y-106769104D01*
X128004166Y-106769104D02*
X127956547Y-106911961D01*
X127956547Y-106911961D02*
X127861309Y-107007200D01*
X127861309Y-107007200D02*
X127718452Y-107054819D01*
X127718452Y-107054819D02*
X127623214Y-107054819D01*
X128908928Y-106388152D02*
X128908928Y-107054819D01*
X128670833Y-106007200D02*
X128432738Y-106721485D01*
X128432738Y-106721485D02*
X129051785Y-106721485D01*
X165704819Y-142642857D02*
X165228628Y-142976190D01*
X165704819Y-143214285D02*
X164704819Y-143214285D01*
X164704819Y-143214285D02*
X164704819Y-142833333D01*
X164704819Y-142833333D02*
X164752438Y-142738095D01*
X164752438Y-142738095D02*
X164800057Y-142690476D01*
X164800057Y-142690476D02*
X164895295Y-142642857D01*
X164895295Y-142642857D02*
X165038152Y-142642857D01*
X165038152Y-142642857D02*
X165133390Y-142690476D01*
X165133390Y-142690476D02*
X165181009Y-142738095D01*
X165181009Y-142738095D02*
X165228628Y-142833333D01*
X165228628Y-142833333D02*
X165228628Y-143214285D01*
X165704819Y-141690476D02*
X165704819Y-142261904D01*
X165704819Y-141976190D02*
X164704819Y-141976190D01*
X164704819Y-141976190D02*
X164847676Y-142071428D01*
X164847676Y-142071428D02*
X164942914Y-142166666D01*
X164942914Y-142166666D02*
X164990533Y-142261904D01*
X164704819Y-140785714D02*
X164704819Y-141261904D01*
X164704819Y-141261904D02*
X165181009Y-141309523D01*
X165181009Y-141309523D02*
X165133390Y-141261904D01*
X165133390Y-141261904D02*
X165085771Y-141166666D01*
X165085771Y-141166666D02*
X165085771Y-140928571D01*
X165085771Y-140928571D02*
X165133390Y-140833333D01*
X165133390Y-140833333D02*
X165181009Y-140785714D01*
X165181009Y-140785714D02*
X165276247Y-140738095D01*
X165276247Y-140738095D02*
X165514342Y-140738095D01*
X165514342Y-140738095D02*
X165609580Y-140785714D01*
X165609580Y-140785714D02*
X165657200Y-140833333D01*
X165657200Y-140833333D02*
X165704819Y-140928571D01*
X165704819Y-140928571D02*
X165704819Y-141166666D01*
X165704819Y-141166666D02*
X165657200Y-141261904D01*
X165657200Y-141261904D02*
X165609580Y-141309523D01*
X120357142Y-153954819D02*
X120023809Y-153478628D01*
X119785714Y-153954819D02*
X119785714Y-152954819D01*
X119785714Y-152954819D02*
X120166666Y-152954819D01*
X120166666Y-152954819D02*
X120261904Y-153002438D01*
X120261904Y-153002438D02*
X120309523Y-153050057D01*
X120309523Y-153050057D02*
X120357142Y-153145295D01*
X120357142Y-153145295D02*
X120357142Y-153288152D01*
X120357142Y-153288152D02*
X120309523Y-153383390D01*
X120309523Y-153383390D02*
X120261904Y-153431009D01*
X120261904Y-153431009D02*
X120166666Y-153478628D01*
X120166666Y-153478628D02*
X119785714Y-153478628D01*
X120738095Y-153050057D02*
X120785714Y-153002438D01*
X120785714Y-153002438D02*
X120880952Y-152954819D01*
X120880952Y-152954819D02*
X121119047Y-152954819D01*
X121119047Y-152954819D02*
X121214285Y-153002438D01*
X121214285Y-153002438D02*
X121261904Y-153050057D01*
X121261904Y-153050057D02*
X121309523Y-153145295D01*
X121309523Y-153145295D02*
X121309523Y-153240533D01*
X121309523Y-153240533D02*
X121261904Y-153383390D01*
X121261904Y-153383390D02*
X120690476Y-153954819D01*
X120690476Y-153954819D02*
X121309523Y-153954819D01*
X121642857Y-152954819D02*
X122261904Y-152954819D01*
X122261904Y-152954819D02*
X121928571Y-153335771D01*
X121928571Y-153335771D02*
X122071428Y-153335771D01*
X122071428Y-153335771D02*
X122166666Y-153383390D01*
X122166666Y-153383390D02*
X122214285Y-153431009D01*
X122214285Y-153431009D02*
X122261904Y-153526247D01*
X122261904Y-153526247D02*
X122261904Y-153764342D01*
X122261904Y-153764342D02*
X122214285Y-153859580D01*
X122214285Y-153859580D02*
X122166666Y-153907200D01*
X122166666Y-153907200D02*
X122071428Y-153954819D01*
X122071428Y-153954819D02*
X121785714Y-153954819D01*
X121785714Y-153954819D02*
X121690476Y-153907200D01*
X121690476Y-153907200D02*
X121642857Y-153859580D01*
X114857142Y-112859580D02*
X114809523Y-112907200D01*
X114809523Y-112907200D02*
X114666666Y-112954819D01*
X114666666Y-112954819D02*
X114571428Y-112954819D01*
X114571428Y-112954819D02*
X114428571Y-112907200D01*
X114428571Y-112907200D02*
X114333333Y-112811961D01*
X114333333Y-112811961D02*
X114285714Y-112716723D01*
X114285714Y-112716723D02*
X114238095Y-112526247D01*
X114238095Y-112526247D02*
X114238095Y-112383390D01*
X114238095Y-112383390D02*
X114285714Y-112192914D01*
X114285714Y-112192914D02*
X114333333Y-112097676D01*
X114333333Y-112097676D02*
X114428571Y-112002438D01*
X114428571Y-112002438D02*
X114571428Y-111954819D01*
X114571428Y-111954819D02*
X114666666Y-111954819D01*
X114666666Y-111954819D02*
X114809523Y-112002438D01*
X114809523Y-112002438D02*
X114857142Y-112050057D01*
X115809523Y-112954819D02*
X115238095Y-112954819D01*
X115523809Y-112954819D02*
X115523809Y-111954819D01*
X115523809Y-111954819D02*
X115428571Y-112097676D01*
X115428571Y-112097676D02*
X115333333Y-112192914D01*
X115333333Y-112192914D02*
X115238095Y-112240533D01*
X116142857Y-111954819D02*
X116761904Y-111954819D01*
X116761904Y-111954819D02*
X116428571Y-112335771D01*
X116428571Y-112335771D02*
X116571428Y-112335771D01*
X116571428Y-112335771D02*
X116666666Y-112383390D01*
X116666666Y-112383390D02*
X116714285Y-112431009D01*
X116714285Y-112431009D02*
X116761904Y-112526247D01*
X116761904Y-112526247D02*
X116761904Y-112764342D01*
X116761904Y-112764342D02*
X116714285Y-112859580D01*
X116714285Y-112859580D02*
X116666666Y-112907200D01*
X116666666Y-112907200D02*
X116571428Y-112954819D01*
X116571428Y-112954819D02*
X116285714Y-112954819D01*
X116285714Y-112954819D02*
X116190476Y-112907200D01*
X116190476Y-112907200D02*
X116142857Y-112859580D01*
X84857142Y-141359580D02*
X84809523Y-141407200D01*
X84809523Y-141407200D02*
X84666666Y-141454819D01*
X84666666Y-141454819D02*
X84571428Y-141454819D01*
X84571428Y-141454819D02*
X84428571Y-141407200D01*
X84428571Y-141407200D02*
X84333333Y-141311961D01*
X84333333Y-141311961D02*
X84285714Y-141216723D01*
X84285714Y-141216723D02*
X84238095Y-141026247D01*
X84238095Y-141026247D02*
X84238095Y-140883390D01*
X84238095Y-140883390D02*
X84285714Y-140692914D01*
X84285714Y-140692914D02*
X84333333Y-140597676D01*
X84333333Y-140597676D02*
X84428571Y-140502438D01*
X84428571Y-140502438D02*
X84571428Y-140454819D01*
X84571428Y-140454819D02*
X84666666Y-140454819D01*
X84666666Y-140454819D02*
X84809523Y-140502438D01*
X84809523Y-140502438D02*
X84857142Y-140550057D01*
X85809523Y-141454819D02*
X85238095Y-141454819D01*
X85523809Y-141454819D02*
X85523809Y-140454819D01*
X85523809Y-140454819D02*
X85428571Y-140597676D01*
X85428571Y-140597676D02*
X85333333Y-140692914D01*
X85333333Y-140692914D02*
X85238095Y-140740533D01*
X86190476Y-140550057D02*
X86238095Y-140502438D01*
X86238095Y-140502438D02*
X86333333Y-140454819D01*
X86333333Y-140454819D02*
X86571428Y-140454819D01*
X86571428Y-140454819D02*
X86666666Y-140502438D01*
X86666666Y-140502438D02*
X86714285Y-140550057D01*
X86714285Y-140550057D02*
X86761904Y-140645295D01*
X86761904Y-140645295D02*
X86761904Y-140740533D01*
X86761904Y-140740533D02*
X86714285Y-140883390D01*
X86714285Y-140883390D02*
X86142857Y-141454819D01*
X86142857Y-141454819D02*
X86761904Y-141454819D01*
X106833333Y-118859580D02*
X106785714Y-118907200D01*
X106785714Y-118907200D02*
X106642857Y-118954819D01*
X106642857Y-118954819D02*
X106547619Y-118954819D01*
X106547619Y-118954819D02*
X106404762Y-118907200D01*
X106404762Y-118907200D02*
X106309524Y-118811961D01*
X106309524Y-118811961D02*
X106261905Y-118716723D01*
X106261905Y-118716723D02*
X106214286Y-118526247D01*
X106214286Y-118526247D02*
X106214286Y-118383390D01*
X106214286Y-118383390D02*
X106261905Y-118192914D01*
X106261905Y-118192914D02*
X106309524Y-118097676D01*
X106309524Y-118097676D02*
X106404762Y-118002438D01*
X106404762Y-118002438D02*
X106547619Y-117954819D01*
X106547619Y-117954819D02*
X106642857Y-117954819D01*
X106642857Y-117954819D02*
X106785714Y-118002438D01*
X106785714Y-118002438D02*
X106833333Y-118050057D01*
X107738095Y-117954819D02*
X107261905Y-117954819D01*
X107261905Y-117954819D02*
X107214286Y-118431009D01*
X107214286Y-118431009D02*
X107261905Y-118383390D01*
X107261905Y-118383390D02*
X107357143Y-118335771D01*
X107357143Y-118335771D02*
X107595238Y-118335771D01*
X107595238Y-118335771D02*
X107690476Y-118383390D01*
X107690476Y-118383390D02*
X107738095Y-118431009D01*
X107738095Y-118431009D02*
X107785714Y-118526247D01*
X107785714Y-118526247D02*
X107785714Y-118764342D01*
X107785714Y-118764342D02*
X107738095Y-118859580D01*
X107738095Y-118859580D02*
X107690476Y-118907200D01*
X107690476Y-118907200D02*
X107595238Y-118954819D01*
X107595238Y-118954819D02*
X107357143Y-118954819D01*
X107357143Y-118954819D02*
X107261905Y-118907200D01*
X107261905Y-118907200D02*
X107214286Y-118859580D01*
X100333333Y-105359580D02*
X100285714Y-105407200D01*
X100285714Y-105407200D02*
X100142857Y-105454819D01*
X100142857Y-105454819D02*
X100047619Y-105454819D01*
X100047619Y-105454819D02*
X99904762Y-105407200D01*
X99904762Y-105407200D02*
X99809524Y-105311961D01*
X99809524Y-105311961D02*
X99761905Y-105216723D01*
X99761905Y-105216723D02*
X99714286Y-105026247D01*
X99714286Y-105026247D02*
X99714286Y-104883390D01*
X99714286Y-104883390D02*
X99761905Y-104692914D01*
X99761905Y-104692914D02*
X99809524Y-104597676D01*
X99809524Y-104597676D02*
X99904762Y-104502438D01*
X99904762Y-104502438D02*
X100047619Y-104454819D01*
X100047619Y-104454819D02*
X100142857Y-104454819D01*
X100142857Y-104454819D02*
X100285714Y-104502438D01*
X100285714Y-104502438D02*
X100333333Y-104550057D01*
X100666667Y-104454819D02*
X101333333Y-104454819D01*
X101333333Y-104454819D02*
X100904762Y-105454819D01*
X88261905Y-111454819D02*
X88261905Y-110454819D01*
X88261905Y-110454819D02*
X88500000Y-110454819D01*
X88500000Y-110454819D02*
X88642857Y-110502438D01*
X88642857Y-110502438D02*
X88738095Y-110597676D01*
X88738095Y-110597676D02*
X88785714Y-110692914D01*
X88785714Y-110692914D02*
X88833333Y-110883390D01*
X88833333Y-110883390D02*
X88833333Y-111026247D01*
X88833333Y-111026247D02*
X88785714Y-111216723D01*
X88785714Y-111216723D02*
X88738095Y-111311961D01*
X88738095Y-111311961D02*
X88642857Y-111407200D01*
X88642857Y-111407200D02*
X88500000Y-111454819D01*
X88500000Y-111454819D02*
X88261905Y-111454819D01*
X89214286Y-110550057D02*
X89261905Y-110502438D01*
X89261905Y-110502438D02*
X89357143Y-110454819D01*
X89357143Y-110454819D02*
X89595238Y-110454819D01*
X89595238Y-110454819D02*
X89690476Y-110502438D01*
X89690476Y-110502438D02*
X89738095Y-110550057D01*
X89738095Y-110550057D02*
X89785714Y-110645295D01*
X89785714Y-110645295D02*
X89785714Y-110740533D01*
X89785714Y-110740533D02*
X89738095Y-110883390D01*
X89738095Y-110883390D02*
X89166667Y-111454819D01*
X89166667Y-111454819D02*
X89785714Y-111454819D01*
X107857143Y-133204819D02*
X107857143Y-132204819D01*
X107857143Y-132204819D02*
X108095238Y-132204819D01*
X108095238Y-132204819D02*
X108238095Y-132252438D01*
X108238095Y-132252438D02*
X108333333Y-132347676D01*
X108333333Y-132347676D02*
X108380952Y-132442914D01*
X108380952Y-132442914D02*
X108428571Y-132633390D01*
X108428571Y-132633390D02*
X108428571Y-132776247D01*
X108428571Y-132776247D02*
X108380952Y-132966723D01*
X108380952Y-132966723D02*
X108333333Y-133061961D01*
X108333333Y-133061961D02*
X108238095Y-133157200D01*
X108238095Y-133157200D02*
X108095238Y-133204819D01*
X108095238Y-133204819D02*
X107857143Y-133204819D01*
X109333333Y-133204819D02*
X108857143Y-133204819D01*
X108857143Y-133204819D02*
X108857143Y-132204819D01*
X110142857Y-132204819D02*
X109666667Y-132204819D01*
X109666667Y-132204819D02*
X109619048Y-132681009D01*
X109619048Y-132681009D02*
X109666667Y-132633390D01*
X109666667Y-132633390D02*
X109761905Y-132585771D01*
X109761905Y-132585771D02*
X110000000Y-132585771D01*
X110000000Y-132585771D02*
X110095238Y-132633390D01*
X110095238Y-132633390D02*
X110142857Y-132681009D01*
X110142857Y-132681009D02*
X110190476Y-132776247D01*
X110190476Y-132776247D02*
X110190476Y-133014342D01*
X110190476Y-133014342D02*
X110142857Y-133109580D01*
X110142857Y-133109580D02*
X110095238Y-133157200D01*
X110095238Y-133157200D02*
X110000000Y-133204819D01*
X110000000Y-133204819D02*
X109761905Y-133204819D01*
X109761905Y-133204819D02*
X109666667Y-133157200D01*
X109666667Y-133157200D02*
X109619048Y-133109580D01*
X106028571Y-134987295D02*
X105571428Y-134987295D01*
X105800000Y-134987295D02*
X105800000Y-134187295D01*
X105800000Y-134187295D02*
X105723809Y-134301580D01*
X105723809Y-134301580D02*
X105647619Y-134377771D01*
X105647619Y-134377771D02*
X105571428Y-134415866D01*
X98511904Y-154954819D02*
X98511904Y-155669104D01*
X98511904Y-155669104D02*
X98464285Y-155811961D01*
X98464285Y-155811961D02*
X98369047Y-155907200D01*
X98369047Y-155907200D02*
X98226190Y-155954819D01*
X98226190Y-155954819D02*
X98130952Y-155954819D01*
X98750000Y-156050057D02*
X99511904Y-156050057D01*
X99750000Y-154954819D02*
X99750000Y-155764342D01*
X99750000Y-155764342D02*
X99797619Y-155859580D01*
X99797619Y-155859580D02*
X99845238Y-155907200D01*
X99845238Y-155907200D02*
X99940476Y-155954819D01*
X99940476Y-155954819D02*
X100130952Y-155954819D01*
X100130952Y-155954819D02*
X100226190Y-155907200D01*
X100226190Y-155907200D02*
X100273809Y-155859580D01*
X100273809Y-155859580D02*
X100321428Y-155764342D01*
X100321428Y-155764342D02*
X100321428Y-154954819D01*
X100750000Y-155907200D02*
X100892857Y-155954819D01*
X100892857Y-155954819D02*
X101130952Y-155954819D01*
X101130952Y-155954819D02*
X101226190Y-155907200D01*
X101226190Y-155907200D02*
X101273809Y-155859580D01*
X101273809Y-155859580D02*
X101321428Y-155764342D01*
X101321428Y-155764342D02*
X101321428Y-155669104D01*
X101321428Y-155669104D02*
X101273809Y-155573866D01*
X101273809Y-155573866D02*
X101226190Y-155526247D01*
X101226190Y-155526247D02*
X101130952Y-155478628D01*
X101130952Y-155478628D02*
X100940476Y-155431009D01*
X100940476Y-155431009D02*
X100845238Y-155383390D01*
X100845238Y-155383390D02*
X100797619Y-155335771D01*
X100797619Y-155335771D02*
X100750000Y-155240533D01*
X100750000Y-155240533D02*
X100750000Y-155145295D01*
X100750000Y-155145295D02*
X100797619Y-155050057D01*
X100797619Y-155050057D02*
X100845238Y-155002438D01*
X100845238Y-155002438D02*
X100940476Y-154954819D01*
X100940476Y-154954819D02*
X101178571Y-154954819D01*
X101178571Y-154954819D02*
X101321428Y-155002438D01*
X102083333Y-155431009D02*
X102226190Y-155478628D01*
X102226190Y-155478628D02*
X102273809Y-155526247D01*
X102273809Y-155526247D02*
X102321428Y-155621485D01*
X102321428Y-155621485D02*
X102321428Y-155764342D01*
X102321428Y-155764342D02*
X102273809Y-155859580D01*
X102273809Y-155859580D02*
X102226190Y-155907200D01*
X102226190Y-155907200D02*
X102130952Y-155954819D01*
X102130952Y-155954819D02*
X101750000Y-155954819D01*
X101750000Y-155954819D02*
X101750000Y-154954819D01*
X101750000Y-154954819D02*
X102083333Y-154954819D01*
X102083333Y-154954819D02*
X102178571Y-155002438D01*
X102178571Y-155002438D02*
X102226190Y-155050057D01*
X102226190Y-155050057D02*
X102273809Y-155145295D01*
X102273809Y-155145295D02*
X102273809Y-155240533D01*
X102273809Y-155240533D02*
X102226190Y-155335771D01*
X102226190Y-155335771D02*
X102178571Y-155383390D01*
X102178571Y-155383390D02*
X102083333Y-155431009D01*
X102083333Y-155431009D02*
X101750000Y-155431009D01*
X138954819Y-148940475D02*
X138954819Y-148369047D01*
X139954819Y-148654761D02*
X138954819Y-148654761D01*
X139954819Y-148035713D02*
X138954819Y-148035713D01*
X138954819Y-148035713D02*
X138954819Y-147654761D01*
X138954819Y-147654761D02*
X139002438Y-147559523D01*
X139002438Y-147559523D02*
X139050057Y-147511904D01*
X139050057Y-147511904D02*
X139145295Y-147464285D01*
X139145295Y-147464285D02*
X139288152Y-147464285D01*
X139288152Y-147464285D02*
X139383390Y-147511904D01*
X139383390Y-147511904D02*
X139431009Y-147559523D01*
X139431009Y-147559523D02*
X139478628Y-147654761D01*
X139478628Y-147654761D02*
X139478628Y-148035713D01*
X140050057Y-147273809D02*
X140050057Y-146511904D01*
X139002438Y-145749999D02*
X138954819Y-145845237D01*
X138954819Y-145845237D02*
X138954819Y-145988094D01*
X138954819Y-145988094D02*
X139002438Y-146130951D01*
X139002438Y-146130951D02*
X139097676Y-146226189D01*
X139097676Y-146226189D02*
X139192914Y-146273808D01*
X139192914Y-146273808D02*
X139383390Y-146321427D01*
X139383390Y-146321427D02*
X139526247Y-146321427D01*
X139526247Y-146321427D02*
X139716723Y-146273808D01*
X139716723Y-146273808D02*
X139811961Y-146226189D01*
X139811961Y-146226189D02*
X139907200Y-146130951D01*
X139907200Y-146130951D02*
X139954819Y-145988094D01*
X139954819Y-145988094D02*
X139954819Y-145892856D01*
X139954819Y-145892856D02*
X139907200Y-145749999D01*
X139907200Y-145749999D02*
X139859580Y-145702380D01*
X139859580Y-145702380D02*
X139526247Y-145702380D01*
X139526247Y-145702380D02*
X139526247Y-145892856D01*
X139954819Y-145273808D02*
X138954819Y-145273808D01*
X138954819Y-145273808D02*
X139954819Y-144702380D01*
X139954819Y-144702380D02*
X138954819Y-144702380D01*
X139954819Y-144226189D02*
X138954819Y-144226189D01*
X138954819Y-144226189D02*
X138954819Y-143988094D01*
X138954819Y-143988094D02*
X139002438Y-143845237D01*
X139002438Y-143845237D02*
X139097676Y-143749999D01*
X139097676Y-143749999D02*
X139192914Y-143702380D01*
X139192914Y-143702380D02*
X139383390Y-143654761D01*
X139383390Y-143654761D02*
X139526247Y-143654761D01*
X139526247Y-143654761D02*
X139716723Y-143702380D01*
X139716723Y-143702380D02*
X139811961Y-143749999D01*
X139811961Y-143749999D02*
X139907200Y-143845237D01*
X139907200Y-143845237D02*
X139954819Y-143988094D01*
X139954819Y-143988094D02*
X139954819Y-144226189D01*
X138738095Y-133554819D02*
X138738095Y-134364342D01*
X138738095Y-134364342D02*
X138785714Y-134459580D01*
X138785714Y-134459580D02*
X138833333Y-134507200D01*
X138833333Y-134507200D02*
X138928571Y-134554819D01*
X138928571Y-134554819D02*
X139119047Y-134554819D01*
X139119047Y-134554819D02*
X139214285Y-134507200D01*
X139214285Y-134507200D02*
X139261904Y-134459580D01*
X139261904Y-134459580D02*
X139309523Y-134364342D01*
X139309523Y-134364342D02*
X139309523Y-133554819D01*
X139690476Y-133554819D02*
X140309523Y-133554819D01*
X140309523Y-133554819D02*
X139976190Y-133935771D01*
X139976190Y-133935771D02*
X140119047Y-133935771D01*
X140119047Y-133935771D02*
X140214285Y-133983390D01*
X140214285Y-133983390D02*
X140261904Y-134031009D01*
X140261904Y-134031009D02*
X140309523Y-134126247D01*
X140309523Y-134126247D02*
X140309523Y-134364342D01*
X140309523Y-134364342D02*
X140261904Y-134459580D01*
X140261904Y-134459580D02*
X140214285Y-134507200D01*
X140214285Y-134507200D02*
X140119047Y-134554819D01*
X140119047Y-134554819D02*
X139833333Y-134554819D01*
X139833333Y-134554819D02*
X139738095Y-134507200D01*
X139738095Y-134507200D02*
X139690476Y-134459580D01*
X83833333Y-148019580D02*
X83785714Y-148067200D01*
X83785714Y-148067200D02*
X83642857Y-148114819D01*
X83642857Y-148114819D02*
X83547619Y-148114819D01*
X83547619Y-148114819D02*
X83404762Y-148067200D01*
X83404762Y-148067200D02*
X83309524Y-147971961D01*
X83309524Y-147971961D02*
X83261905Y-147876723D01*
X83261905Y-147876723D02*
X83214286Y-147686247D01*
X83214286Y-147686247D02*
X83214286Y-147543390D01*
X83214286Y-147543390D02*
X83261905Y-147352914D01*
X83261905Y-147352914D02*
X83309524Y-147257676D01*
X83309524Y-147257676D02*
X83404762Y-147162438D01*
X83404762Y-147162438D02*
X83547619Y-147114819D01*
X83547619Y-147114819D02*
X83642857Y-147114819D01*
X83642857Y-147114819D02*
X83785714Y-147162438D01*
X83785714Y-147162438D02*
X83833333Y-147210057D01*
X84690476Y-147114819D02*
X84500000Y-147114819D01*
X84500000Y-147114819D02*
X84404762Y-147162438D01*
X84404762Y-147162438D02*
X84357143Y-147210057D01*
X84357143Y-147210057D02*
X84261905Y-147352914D01*
X84261905Y-147352914D02*
X84214286Y-147543390D01*
X84214286Y-147543390D02*
X84214286Y-147924342D01*
X84214286Y-147924342D02*
X84261905Y-148019580D01*
X84261905Y-148019580D02*
X84309524Y-148067200D01*
X84309524Y-148067200D02*
X84404762Y-148114819D01*
X84404762Y-148114819D02*
X84595238Y-148114819D01*
X84595238Y-148114819D02*
X84690476Y-148067200D01*
X84690476Y-148067200D02*
X84738095Y-148019580D01*
X84738095Y-148019580D02*
X84785714Y-147924342D01*
X84785714Y-147924342D02*
X84785714Y-147686247D01*
X84785714Y-147686247D02*
X84738095Y-147591009D01*
X84738095Y-147591009D02*
X84690476Y-147543390D01*
X84690476Y-147543390D02*
X84595238Y-147495771D01*
X84595238Y-147495771D02*
X84404762Y-147495771D01*
X84404762Y-147495771D02*
X84309524Y-147543390D01*
X84309524Y-147543390D02*
X84261905Y-147591009D01*
X84261905Y-147591009D02*
X84214286Y-147686247D01*
X135204819Y-126892857D02*
X134728628Y-127226190D01*
X135204819Y-127464285D02*
X134204819Y-127464285D01*
X134204819Y-127464285D02*
X134204819Y-127083333D01*
X134204819Y-127083333D02*
X134252438Y-126988095D01*
X134252438Y-126988095D02*
X134300057Y-126940476D01*
X134300057Y-126940476D02*
X134395295Y-126892857D01*
X134395295Y-126892857D02*
X134538152Y-126892857D01*
X134538152Y-126892857D02*
X134633390Y-126940476D01*
X134633390Y-126940476D02*
X134681009Y-126988095D01*
X134681009Y-126988095D02*
X134728628Y-127083333D01*
X134728628Y-127083333D02*
X134728628Y-127464285D01*
X134300057Y-126511904D02*
X134252438Y-126464285D01*
X134252438Y-126464285D02*
X134204819Y-126369047D01*
X134204819Y-126369047D02*
X134204819Y-126130952D01*
X134204819Y-126130952D02*
X134252438Y-126035714D01*
X134252438Y-126035714D02*
X134300057Y-125988095D01*
X134300057Y-125988095D02*
X134395295Y-125940476D01*
X134395295Y-125940476D02*
X134490533Y-125940476D01*
X134490533Y-125940476D02*
X134633390Y-125988095D01*
X134633390Y-125988095D02*
X135204819Y-126559523D01*
X135204819Y-126559523D02*
X135204819Y-125940476D01*
X134204819Y-125035714D02*
X134204819Y-125511904D01*
X134204819Y-125511904D02*
X134681009Y-125559523D01*
X134681009Y-125559523D02*
X134633390Y-125511904D01*
X134633390Y-125511904D02*
X134585771Y-125416666D01*
X134585771Y-125416666D02*
X134585771Y-125178571D01*
X134585771Y-125178571D02*
X134633390Y-125083333D01*
X134633390Y-125083333D02*
X134681009Y-125035714D01*
X134681009Y-125035714D02*
X134776247Y-124988095D01*
X134776247Y-124988095D02*
X135014342Y-124988095D01*
X135014342Y-124988095D02*
X135109580Y-125035714D01*
X135109580Y-125035714D02*
X135157200Y-125083333D01*
X135157200Y-125083333D02*
X135204819Y-125178571D01*
X135204819Y-125178571D02*
X135204819Y-125416666D01*
X135204819Y-125416666D02*
X135157200Y-125511904D01*
X135157200Y-125511904D02*
X135109580Y-125559523D01*
X149454819Y-149095237D02*
X149454819Y-148523809D01*
X150454819Y-148809523D02*
X149454819Y-148809523D01*
X150454819Y-148190475D02*
X149454819Y-148190475D01*
X149454819Y-148190475D02*
X149454819Y-147809523D01*
X149454819Y-147809523D02*
X149502438Y-147714285D01*
X149502438Y-147714285D02*
X149550057Y-147666666D01*
X149550057Y-147666666D02*
X149645295Y-147619047D01*
X149645295Y-147619047D02*
X149788152Y-147619047D01*
X149788152Y-147619047D02*
X149883390Y-147666666D01*
X149883390Y-147666666D02*
X149931009Y-147714285D01*
X149931009Y-147714285D02*
X149978628Y-147809523D01*
X149978628Y-147809523D02*
X149978628Y-148190475D01*
X150550057Y-147428571D02*
X150550057Y-146666666D01*
X149454819Y-146571427D02*
X150454819Y-146238094D01*
X150454819Y-146238094D02*
X149454819Y-145904761D01*
X149931009Y-145238094D02*
X149978628Y-145095237D01*
X149978628Y-145095237D02*
X150026247Y-145047618D01*
X150026247Y-145047618D02*
X150121485Y-144999999D01*
X150121485Y-144999999D02*
X150264342Y-144999999D01*
X150264342Y-144999999D02*
X150359580Y-145047618D01*
X150359580Y-145047618D02*
X150407200Y-145095237D01*
X150407200Y-145095237D02*
X150454819Y-145190475D01*
X150454819Y-145190475D02*
X150454819Y-145571427D01*
X150454819Y-145571427D02*
X149454819Y-145571427D01*
X149454819Y-145571427D02*
X149454819Y-145238094D01*
X149454819Y-145238094D02*
X149502438Y-145142856D01*
X149502438Y-145142856D02*
X149550057Y-145095237D01*
X149550057Y-145095237D02*
X149645295Y-145047618D01*
X149645295Y-145047618D02*
X149740533Y-145047618D01*
X149740533Y-145047618D02*
X149835771Y-145095237D01*
X149835771Y-145095237D02*
X149883390Y-145142856D01*
X149883390Y-145142856D02*
X149931009Y-145238094D01*
X149931009Y-145238094D02*
X149931009Y-145571427D01*
X149454819Y-144571427D02*
X150264342Y-144571427D01*
X150264342Y-144571427D02*
X150359580Y-144523808D01*
X150359580Y-144523808D02*
X150407200Y-144476189D01*
X150407200Y-144476189D02*
X150454819Y-144380951D01*
X150454819Y-144380951D02*
X150454819Y-144190475D01*
X150454819Y-144190475D02*
X150407200Y-144095237D01*
X150407200Y-144095237D02*
X150359580Y-144047618D01*
X150359580Y-144047618D02*
X150264342Y-143999999D01*
X150264342Y-143999999D02*
X149454819Y-143999999D01*
X150407200Y-143571427D02*
X150454819Y-143428570D01*
X150454819Y-143428570D02*
X150454819Y-143190475D01*
X150454819Y-143190475D02*
X150407200Y-143095237D01*
X150407200Y-143095237D02*
X150359580Y-143047618D01*
X150359580Y-143047618D02*
X150264342Y-142999999D01*
X150264342Y-142999999D02*
X150169104Y-142999999D01*
X150169104Y-142999999D02*
X150073866Y-143047618D01*
X150073866Y-143047618D02*
X150026247Y-143095237D01*
X150026247Y-143095237D02*
X149978628Y-143190475D01*
X149978628Y-143190475D02*
X149931009Y-143380951D01*
X149931009Y-143380951D02*
X149883390Y-143476189D01*
X149883390Y-143476189D02*
X149835771Y-143523808D01*
X149835771Y-143523808D02*
X149740533Y-143571427D01*
X149740533Y-143571427D02*
X149645295Y-143571427D01*
X149645295Y-143571427D02*
X149550057Y-143523808D01*
X149550057Y-143523808D02*
X149502438Y-143476189D01*
X149502438Y-143476189D02*
X149454819Y-143380951D01*
X149454819Y-143380951D02*
X149454819Y-143142856D01*
X149454819Y-143142856D02*
X149502438Y-142999999D01*
X79428571Y-155431009D02*
X79095238Y-155431009D01*
X79095238Y-155954819D02*
X79095238Y-154954819D01*
X79095238Y-154954819D02*
X79571428Y-154954819D01*
X79952381Y-155954819D02*
X79952381Y-154954819D01*
X80428571Y-155954819D02*
X80428571Y-154954819D01*
X80428571Y-154954819D02*
X80666666Y-154954819D01*
X80666666Y-154954819D02*
X80809523Y-155002438D01*
X80809523Y-155002438D02*
X80904761Y-155097676D01*
X80904761Y-155097676D02*
X80952380Y-155192914D01*
X80952380Y-155192914D02*
X80999999Y-155383390D01*
X80999999Y-155383390D02*
X80999999Y-155526247D01*
X80999999Y-155526247D02*
X80952380Y-155716723D01*
X80952380Y-155716723D02*
X80904761Y-155811961D01*
X80904761Y-155811961D02*
X80809523Y-155907200D01*
X80809523Y-155907200D02*
X80666666Y-155954819D01*
X80666666Y-155954819D02*
X80428571Y-155954819D01*
X81380952Y-155050057D02*
X81428571Y-155002438D01*
X81428571Y-155002438D02*
X81523809Y-154954819D01*
X81523809Y-154954819D02*
X81761904Y-154954819D01*
X81761904Y-154954819D02*
X81857142Y-155002438D01*
X81857142Y-155002438D02*
X81904761Y-155050057D01*
X81904761Y-155050057D02*
X81952380Y-155145295D01*
X81952380Y-155145295D02*
X81952380Y-155240533D01*
X81952380Y-155240533D02*
X81904761Y-155383390D01*
X81904761Y-155383390D02*
X81333333Y-155954819D01*
X81333333Y-155954819D02*
X81952380Y-155954819D01*
X134333333Y-132859580D02*
X134285714Y-132907200D01*
X134285714Y-132907200D02*
X134142857Y-132954819D01*
X134142857Y-132954819D02*
X134047619Y-132954819D01*
X134047619Y-132954819D02*
X133904762Y-132907200D01*
X133904762Y-132907200D02*
X133809524Y-132811961D01*
X133809524Y-132811961D02*
X133761905Y-132716723D01*
X133761905Y-132716723D02*
X133714286Y-132526247D01*
X133714286Y-132526247D02*
X133714286Y-132383390D01*
X133714286Y-132383390D02*
X133761905Y-132192914D01*
X133761905Y-132192914D02*
X133809524Y-132097676D01*
X133809524Y-132097676D02*
X133904762Y-132002438D01*
X133904762Y-132002438D02*
X134047619Y-131954819D01*
X134047619Y-131954819D02*
X134142857Y-131954819D01*
X134142857Y-131954819D02*
X134285714Y-132002438D01*
X134285714Y-132002438D02*
X134333333Y-132050057D01*
X134714286Y-132050057D02*
X134761905Y-132002438D01*
X134761905Y-132002438D02*
X134857143Y-131954819D01*
X134857143Y-131954819D02*
X135095238Y-131954819D01*
X135095238Y-131954819D02*
X135190476Y-132002438D01*
X135190476Y-132002438D02*
X135238095Y-132050057D01*
X135238095Y-132050057D02*
X135285714Y-132145295D01*
X135285714Y-132145295D02*
X135285714Y-132240533D01*
X135285714Y-132240533D02*
X135238095Y-132383390D01*
X135238095Y-132383390D02*
X134666667Y-132954819D01*
X134666667Y-132954819D02*
X135285714Y-132954819D01*
X146004166Y-106054819D02*
X146004166Y-106769104D01*
X146004166Y-106769104D02*
X145956547Y-106911961D01*
X145956547Y-106911961D02*
X145861309Y-107007200D01*
X145861309Y-107007200D02*
X145718452Y-107054819D01*
X145718452Y-107054819D02*
X145623214Y-107054819D01*
X146956547Y-106054819D02*
X146480357Y-106054819D01*
X146480357Y-106054819D02*
X146432738Y-106531009D01*
X146432738Y-106531009D02*
X146480357Y-106483390D01*
X146480357Y-106483390D02*
X146575595Y-106435771D01*
X146575595Y-106435771D02*
X146813690Y-106435771D01*
X146813690Y-106435771D02*
X146908928Y-106483390D01*
X146908928Y-106483390D02*
X146956547Y-106531009D01*
X146956547Y-106531009D02*
X147004166Y-106626247D01*
X147004166Y-106626247D02*
X147004166Y-106864342D01*
X147004166Y-106864342D02*
X146956547Y-106959580D01*
X146956547Y-106959580D02*
X146908928Y-107007200D01*
X146908928Y-107007200D02*
X146813690Y-107054819D01*
X146813690Y-107054819D02*
X146575595Y-107054819D01*
X146575595Y-107054819D02*
X146480357Y-107007200D01*
X146480357Y-107007200D02*
X146432738Y-106959580D01*
X144380951Y-109509580D02*
X144333332Y-109557200D01*
X144333332Y-109557200D02*
X144190475Y-109604819D01*
X144190475Y-109604819D02*
X144095237Y-109604819D01*
X144095237Y-109604819D02*
X143952380Y-109557200D01*
X143952380Y-109557200D02*
X143857142Y-109461961D01*
X143857142Y-109461961D02*
X143809523Y-109366723D01*
X143809523Y-109366723D02*
X143761904Y-109176247D01*
X143761904Y-109176247D02*
X143761904Y-109033390D01*
X143761904Y-109033390D02*
X143809523Y-108842914D01*
X143809523Y-108842914D02*
X143857142Y-108747676D01*
X143857142Y-108747676D02*
X143952380Y-108652438D01*
X143952380Y-108652438D02*
X144095237Y-108604819D01*
X144095237Y-108604819D02*
X144190475Y-108604819D01*
X144190475Y-108604819D02*
X144333332Y-108652438D01*
X144333332Y-108652438D02*
X144380951Y-108700057D01*
X144571428Y-109700057D02*
X145333332Y-109700057D01*
X145571428Y-109604819D02*
X145571428Y-108604819D01*
X145571428Y-108985771D02*
X145666666Y-108938152D01*
X145666666Y-108938152D02*
X145857142Y-108938152D01*
X145857142Y-108938152D02*
X145952380Y-108985771D01*
X145952380Y-108985771D02*
X145999999Y-109033390D01*
X145999999Y-109033390D02*
X146047618Y-109128628D01*
X146047618Y-109128628D02*
X146047618Y-109414342D01*
X146047618Y-109414342D02*
X145999999Y-109509580D01*
X145999999Y-109509580D02*
X145952380Y-109557200D01*
X145952380Y-109557200D02*
X145857142Y-109604819D01*
X145857142Y-109604819D02*
X145666666Y-109604819D01*
X145666666Y-109604819D02*
X145571428Y-109557200D01*
X146904761Y-108938152D02*
X146904761Y-109604819D01*
X146476190Y-108938152D02*
X146476190Y-109461961D01*
X146476190Y-109461961D02*
X146523809Y-109557200D01*
X146523809Y-109557200D02*
X146619047Y-109604819D01*
X146619047Y-109604819D02*
X146761904Y-109604819D01*
X146761904Y-109604819D02*
X146857142Y-109557200D01*
X146857142Y-109557200D02*
X146904761Y-109509580D01*
X147523809Y-109604819D02*
X147428571Y-109557200D01*
X147428571Y-109557200D02*
X147380952Y-109461961D01*
X147380952Y-109461961D02*
X147380952Y-108604819D01*
X147904762Y-109604819D02*
X147904762Y-108604819D01*
X148000000Y-109223866D02*
X148285714Y-109604819D01*
X148285714Y-108938152D02*
X147904762Y-109319104D01*
X149238095Y-109604819D02*
X148666667Y-109604819D01*
X148952381Y-109604819D02*
X148952381Y-108604819D01*
X148952381Y-108604819D02*
X148857143Y-108747676D01*
X148857143Y-108747676D02*
X148761905Y-108842914D01*
X148761905Y-108842914D02*
X148666667Y-108890533D01*
X136704819Y-126988094D02*
X135704819Y-126988094D01*
X135704819Y-126988094D02*
X135704819Y-126749999D01*
X135704819Y-126749999D02*
X135752438Y-126607142D01*
X135752438Y-126607142D02*
X135847676Y-126511904D01*
X135847676Y-126511904D02*
X135942914Y-126464285D01*
X135942914Y-126464285D02*
X136133390Y-126416666D01*
X136133390Y-126416666D02*
X136276247Y-126416666D01*
X136276247Y-126416666D02*
X136466723Y-126464285D01*
X136466723Y-126464285D02*
X136561961Y-126511904D01*
X136561961Y-126511904D02*
X136657200Y-126607142D01*
X136657200Y-126607142D02*
X136704819Y-126749999D01*
X136704819Y-126749999D02*
X136704819Y-126988094D01*
X136704819Y-125464285D02*
X136704819Y-126035713D01*
X136704819Y-125749999D02*
X135704819Y-125749999D01*
X135704819Y-125749999D02*
X135847676Y-125845237D01*
X135847676Y-125845237D02*
X135942914Y-125940475D01*
X135942914Y-125940475D02*
X135990533Y-126035713D01*
X135859580Y-120892857D02*
X135907200Y-120940476D01*
X135907200Y-120940476D02*
X135954819Y-121083333D01*
X135954819Y-121083333D02*
X135954819Y-121178571D01*
X135954819Y-121178571D02*
X135907200Y-121321428D01*
X135907200Y-121321428D02*
X135811961Y-121416666D01*
X135811961Y-121416666D02*
X135716723Y-121464285D01*
X135716723Y-121464285D02*
X135526247Y-121511904D01*
X135526247Y-121511904D02*
X135383390Y-121511904D01*
X135383390Y-121511904D02*
X135192914Y-121464285D01*
X135192914Y-121464285D02*
X135097676Y-121416666D01*
X135097676Y-121416666D02*
X135002438Y-121321428D01*
X135002438Y-121321428D02*
X134954819Y-121178571D01*
X134954819Y-121178571D02*
X134954819Y-121083333D01*
X134954819Y-121083333D02*
X135002438Y-120940476D01*
X135002438Y-120940476D02*
X135050057Y-120892857D01*
X135954819Y-119940476D02*
X135954819Y-120511904D01*
X135954819Y-120226190D02*
X134954819Y-120226190D01*
X134954819Y-120226190D02*
X135097676Y-120321428D01*
X135097676Y-120321428D02*
X135192914Y-120416666D01*
X135192914Y-120416666D02*
X135240533Y-120511904D01*
X134954819Y-119083333D02*
X134954819Y-119273809D01*
X134954819Y-119273809D02*
X135002438Y-119369047D01*
X135002438Y-119369047D02*
X135050057Y-119416666D01*
X135050057Y-119416666D02*
X135192914Y-119511904D01*
X135192914Y-119511904D02*
X135383390Y-119559523D01*
X135383390Y-119559523D02*
X135764342Y-119559523D01*
X135764342Y-119559523D02*
X135859580Y-119511904D01*
X135859580Y-119511904D02*
X135907200Y-119464285D01*
X135907200Y-119464285D02*
X135954819Y-119369047D01*
X135954819Y-119369047D02*
X135954819Y-119178571D01*
X135954819Y-119178571D02*
X135907200Y-119083333D01*
X135907200Y-119083333D02*
X135859580Y-119035714D01*
X135859580Y-119035714D02*
X135764342Y-118988095D01*
X135764342Y-118988095D02*
X135526247Y-118988095D01*
X135526247Y-118988095D02*
X135431009Y-119035714D01*
X135431009Y-119035714D02*
X135383390Y-119083333D01*
X135383390Y-119083333D02*
X135335771Y-119178571D01*
X135335771Y-119178571D02*
X135335771Y-119369047D01*
X135335771Y-119369047D02*
X135383390Y-119464285D01*
X135383390Y-119464285D02*
X135431009Y-119511904D01*
X135431009Y-119511904D02*
X135526247Y-119559523D01*
X152499999Y-106859580D02*
X152452380Y-106907200D01*
X152452380Y-106907200D02*
X152309523Y-106954819D01*
X152309523Y-106954819D02*
X152214285Y-106954819D01*
X152214285Y-106954819D02*
X152071428Y-106907200D01*
X152071428Y-106907200D02*
X151976190Y-106811961D01*
X151976190Y-106811961D02*
X151928571Y-106716723D01*
X151928571Y-106716723D02*
X151880952Y-106526247D01*
X151880952Y-106526247D02*
X151880952Y-106383390D01*
X151880952Y-106383390D02*
X151928571Y-106192914D01*
X151928571Y-106192914D02*
X151976190Y-106097676D01*
X151976190Y-106097676D02*
X152071428Y-106002438D01*
X152071428Y-106002438D02*
X152214285Y-105954819D01*
X152214285Y-105954819D02*
X152309523Y-105954819D01*
X152309523Y-105954819D02*
X152452380Y-106002438D01*
X152452380Y-106002438D02*
X152499999Y-106050057D01*
X152690476Y-107050057D02*
X153452380Y-107050057D01*
X153642857Y-106907200D02*
X153785714Y-106954819D01*
X153785714Y-106954819D02*
X154023809Y-106954819D01*
X154023809Y-106954819D02*
X154119047Y-106907200D01*
X154119047Y-106907200D02*
X154166666Y-106859580D01*
X154166666Y-106859580D02*
X154214285Y-106764342D01*
X154214285Y-106764342D02*
X154214285Y-106669104D01*
X154214285Y-106669104D02*
X154166666Y-106573866D01*
X154166666Y-106573866D02*
X154119047Y-106526247D01*
X154119047Y-106526247D02*
X154023809Y-106478628D01*
X154023809Y-106478628D02*
X153833333Y-106431009D01*
X153833333Y-106431009D02*
X153738095Y-106383390D01*
X153738095Y-106383390D02*
X153690476Y-106335771D01*
X153690476Y-106335771D02*
X153642857Y-106240533D01*
X153642857Y-106240533D02*
X153642857Y-106145295D01*
X153642857Y-106145295D02*
X153690476Y-106050057D01*
X153690476Y-106050057D02*
X153738095Y-106002438D01*
X153738095Y-106002438D02*
X153833333Y-105954819D01*
X153833333Y-105954819D02*
X154071428Y-105954819D01*
X154071428Y-105954819D02*
X154214285Y-106002438D01*
X154595238Y-106907200D02*
X154738095Y-106954819D01*
X154738095Y-106954819D02*
X154976190Y-106954819D01*
X154976190Y-106954819D02*
X155071428Y-106907200D01*
X155071428Y-106907200D02*
X155119047Y-106859580D01*
X155119047Y-106859580D02*
X155166666Y-106764342D01*
X155166666Y-106764342D02*
X155166666Y-106669104D01*
X155166666Y-106669104D02*
X155119047Y-106573866D01*
X155119047Y-106573866D02*
X155071428Y-106526247D01*
X155071428Y-106526247D02*
X154976190Y-106478628D01*
X154976190Y-106478628D02*
X154785714Y-106431009D01*
X154785714Y-106431009D02*
X154690476Y-106383390D01*
X154690476Y-106383390D02*
X154642857Y-106335771D01*
X154642857Y-106335771D02*
X154595238Y-106240533D01*
X154595238Y-106240533D02*
X154595238Y-106145295D01*
X154595238Y-106145295D02*
X154642857Y-106050057D01*
X154642857Y-106050057D02*
X154690476Y-106002438D01*
X154690476Y-106002438D02*
X154785714Y-105954819D01*
X154785714Y-105954819D02*
X155023809Y-105954819D01*
X155023809Y-105954819D02*
X155166666Y-106002438D01*
X156119047Y-106954819D02*
X155547619Y-106954819D01*
X155833333Y-106954819D02*
X155833333Y-105954819D01*
X155833333Y-105954819D02*
X155738095Y-106097676D01*
X155738095Y-106097676D02*
X155642857Y-106192914D01*
X155642857Y-106192914D02*
X155547619Y-106240533D01*
%TO.C,U7*%
D12*
X146600000Y-118099998D02*
X146600000Y-118324999D01*
X146600000Y-120624999D02*
X146600000Y-120850000D01*
X148900000Y-118099998D02*
X148900000Y-118324999D01*
X148900000Y-120350001D02*
X148900000Y-120850000D01*
%TO.C,R14*%
D13*
X106346359Y-123620000D02*
X106653641Y-123620000D01*
X106346359Y-124380000D02*
X106653641Y-124380000D01*
%TO.C,J_5VSB*%
X161145000Y-110190000D02*
X161145000Y-111610000D01*
X161145000Y-111610000D02*
X165645000Y-111610000D01*
X161145000Y-116390000D02*
X165645000Y-116390000D01*
X161145000Y-117810000D02*
X161145000Y-116390000D01*
X161455000Y-114950000D02*
X162055000Y-115250000D01*
X161455000Y-115550000D02*
X161455000Y-114950000D01*
X162055000Y-115250000D02*
X161455000Y-115550000D01*
X165645000Y-111610000D02*
X165645000Y-114000000D01*
X165645000Y-116390000D02*
X165645000Y-114000000D01*
X172865000Y-110190000D02*
X161145000Y-110190000D01*
X172865000Y-114000000D02*
X172865000Y-110190000D01*
X172865000Y-114000000D02*
X172865000Y-117810000D01*
X172865000Y-117810000D02*
X161145000Y-117810000D01*
X166755000Y-112500000D02*
X172255000Y-112500000D01*
X172255000Y-113000000D01*
X166755000Y-113000000D01*
X166755000Y-112500000D01*
X166755000Y-115000000D02*
X172255000Y-115000000D01*
X172255000Y-115500000D01*
X166755000Y-115500000D01*
X166755000Y-115000000D01*
%TO.C,R_ILIM1*%
X157346359Y-112120000D02*
X157653641Y-112120000D01*
X157346359Y-112880000D02*
X157653641Y-112880000D01*
%TO.C,DL3*%
X126200000Y-133500000D02*
X126200000Y-137500000D01*
X126200000Y-133500000D02*
X131800000Y-133500000D01*
X126200000Y-137500000D02*
X131200000Y-137500000D01*
X131800000Y-136900000D02*
X131200000Y-137500000D01*
X131800000Y-136900000D02*
X131800000Y-133500000D01*
%TO.C,D5*%
X139150000Y-108390000D02*
X139150000Y-111050000D01*
X140850000Y-108390000D02*
X139150000Y-108390000D01*
X140850000Y-108390000D02*
X140850000Y-111050000D01*
%TO.C,U2*%
X102440000Y-111440000D02*
X102535000Y-111440000D01*
X102440000Y-115560000D02*
X102440000Y-111440000D01*
X102535000Y-115560000D02*
X102440000Y-115560000D01*
X107465000Y-111440000D02*
X107560000Y-111440000D01*
X107560000Y-111440000D02*
X107560000Y-115560000D01*
X107560000Y-115560000D02*
X107465000Y-115560000D01*
X102530000Y-116100000D02*
X102200000Y-116340000D01*
X102200000Y-115860000D01*
X102530000Y-116100000D01*
G36*
X102530000Y-116100000D02*
G01*
X102200000Y-116340000D01*
X102200000Y-115860000D01*
X102530000Y-116100000D01*
G37*
%TO.C,J3*%
D10*
X101822500Y-87250000D02*
X117822500Y-87250000D01*
X101822500Y-90830000D02*
X101822500Y-87250000D01*
X101872500Y-105750000D02*
X101872500Y-93780000D01*
X101872500Y-105750000D02*
X117872500Y-105750000D01*
X117872500Y-87300000D02*
X117872500Y-90820000D01*
X117872500Y-105750000D02*
X117872500Y-93780000D01*
D14*
X101902500Y-105800000D02*
G75*
G02*
X101842500Y-105800000I-30000J0D01*
G01*
X101842500Y-105800000D02*
G75*
G02*
X101902500Y-105800000I30000J0D01*
G01*
D15*
X115792500Y-101650000D02*
G75*
G02*
X115392500Y-101650000I-200000J0D01*
G01*
X115392500Y-101650000D02*
G75*
G02*
X115792500Y-101650000I200000J0D01*
G01*
%TO.C,R4*%
D13*
X105120000Y-108346359D02*
X105120000Y-108653641D01*
X105880000Y-108346359D02*
X105880000Y-108653641D01*
%TO.C,R18*%
X159346359Y-113870000D02*
X159653641Y-113870000D01*
X159346359Y-114630000D02*
X159653641Y-114630000D01*
%TO.C,U5*%
D12*
X153600000Y-113799997D02*
X153600000Y-113299998D01*
X153600000Y-116050000D02*
X153600000Y-115824999D01*
X155900000Y-113524999D02*
X155900000Y-113299998D01*
X155900000Y-116050000D02*
X155900000Y-115824999D01*
%TO.C,R5*%
D13*
X84846359Y-108620000D02*
X85153641Y-108620000D01*
X84846359Y-109380000D02*
X85153641Y-109380000D01*
%TO.C,C10*%
X152490000Y-117859420D02*
X152490000Y-118140580D01*
X153510000Y-117859420D02*
X153510000Y-118140580D01*
%TO.C,D7*%
X132150000Y-156860000D02*
X132150000Y-154200000D01*
X132150000Y-156860000D02*
X133850000Y-156860000D01*
X133850000Y-156860000D02*
X133850000Y-154200000D01*
%TO.C,C4*%
X73607836Y-138140000D02*
X73392164Y-138140000D01*
X73607836Y-138860000D02*
X73392164Y-138860000D01*
%TO.C,R8*%
X137846359Y-108620000D02*
X138153641Y-108620000D01*
X137846359Y-109380000D02*
X138153641Y-109380000D01*
%TO.C,C15*%
X144357836Y-119640000D02*
X144142164Y-119640000D01*
X144357836Y-120360000D02*
X144142164Y-120360000D01*
%TO.C,R21*%
X130663641Y-153120000D02*
X130356359Y-153120000D01*
X130663641Y-153880000D02*
X130356359Y-153880000D01*
%TO.C,TP_5VSB*%
X136950000Y-150500000D02*
G75*
G02*
X135050000Y-150500000I-950000J0D01*
G01*
X135050000Y-150500000D02*
G75*
G02*
X136950000Y-150500000I950000J0D01*
G01*
%TO.C,DL6*%
X109700000Y-156500000D02*
X109700000Y-160500000D01*
X109700000Y-156500000D02*
X115300000Y-156500000D01*
X109700000Y-160500000D02*
X114700000Y-160500000D01*
X115300000Y-159900000D02*
X114700000Y-160500000D01*
X115300000Y-159900000D02*
X115300000Y-156500000D01*
%TO.C,SW_BOOT*%
D11*
X118470000Y-149060000D02*
X122530000Y-149060000D01*
X118470000Y-149490000D02*
X118470000Y-149060000D01*
X118470000Y-152140000D02*
X118470000Y-151710000D01*
X118470000Y-152140000D02*
X122530000Y-152140000D01*
X122530000Y-149060000D02*
X122530000Y-149490000D01*
X122530000Y-152140000D02*
X122530000Y-151710000D01*
D14*
X118030000Y-152070000D02*
G75*
G02*
X117970000Y-152070000I-30000J0D01*
G01*
X117970000Y-152070000D02*
G75*
G02*
X118030000Y-152070000I30000J0D01*
G01*
D10*
X121400000Y-150600000D02*
G75*
G02*
X119600000Y-150600000I-900000J0D01*
G01*
X119600000Y-150600000D02*
G75*
G02*
X121400000Y-150600000I900000J0D01*
G01*
%TO.C,R22*%
D13*
X128653641Y-153120000D02*
X128346359Y-153120000D01*
X128653641Y-153880000D02*
X128346359Y-153880000D01*
%TO.C,R13*%
X90653641Y-140620000D02*
X90346359Y-140620000D01*
X90653641Y-141380000D02*
X90346359Y-141380000D01*
%TO.C,SW_RESET*%
D11*
X110720000Y-148960000D02*
X114780000Y-148960000D01*
X110720000Y-149390000D02*
X110720000Y-148960000D01*
X110720000Y-152040000D02*
X110720000Y-151610000D01*
X110720000Y-152040000D02*
X114780000Y-152040000D01*
X114780000Y-148960000D02*
X114780000Y-149390000D01*
X114780000Y-152040000D02*
X114780000Y-151610000D01*
D14*
X110280000Y-151970000D02*
G75*
G02*
X110220000Y-151970000I-30000J0D01*
G01*
X110220000Y-151970000D02*
G75*
G02*
X110280000Y-151970000I30000J0D01*
G01*
D10*
X113650000Y-150500000D02*
G75*
G02*
X111850000Y-150500000I-900000J0D01*
G01*
X111850000Y-150500000D02*
G75*
G02*
X113650000Y-150500000I900000J0D01*
G01*
%TO.C,R20*%
D13*
X93846359Y-128370000D02*
X94153641Y-128370000D01*
X93846359Y-129130000D02*
X94153641Y-129130000D01*
%TO.C,DL1*%
X116200000Y-117400000D02*
X116200000Y-121400000D01*
X116200000Y-117400000D02*
X121800000Y-117400000D01*
X116200000Y-121400000D02*
X121200000Y-121400000D01*
X121800000Y-120800000D02*
X121200000Y-121400000D01*
X121800000Y-120800000D02*
X121800000Y-117400000D01*
%TO.C,J2*%
D10*
X83322500Y-87250000D02*
X99322500Y-87250000D01*
X83322500Y-90830000D02*
X83322500Y-87250000D01*
X83372500Y-105750000D02*
X83372500Y-93780000D01*
X83372500Y-105750000D02*
X99372500Y-105750000D01*
X99372500Y-87300000D02*
X99372500Y-90820000D01*
X99372500Y-105750000D02*
X99372500Y-93780000D01*
D14*
X83402500Y-105800000D02*
G75*
G02*
X83342500Y-105800000I-30000J0D01*
G01*
X83342500Y-105800000D02*
G75*
G02*
X83402500Y-105800000I30000J0D01*
G01*
D15*
X97292500Y-101650000D02*
G75*
G02*
X96892500Y-101650000I-200000J0D01*
G01*
X96892500Y-101650000D02*
G75*
G02*
X97292500Y-101650000I200000J0D01*
G01*
%TO.C,DL4*%
D13*
X116200000Y-135500000D02*
X116200000Y-139500000D01*
X116200000Y-135500000D02*
X121800000Y-135500000D01*
X116200000Y-139500000D02*
X121200000Y-139500000D01*
X121800000Y-138900000D02*
X121200000Y-139500000D01*
X121800000Y-138900000D02*
X121800000Y-135500000D01*
%TO.C,R7*%
X121846359Y-108620000D02*
X122153641Y-108620000D01*
X121846359Y-109380000D02*
X122153641Y-109380000D01*
%TO.C,R2*%
X76153641Y-141120000D02*
X75846359Y-141120000D01*
X76153641Y-141880000D02*
X75846359Y-141880000D01*
%TO.C,R12*%
X93153641Y-140620000D02*
X92846359Y-140620000D01*
X93153641Y-141380000D02*
X92846359Y-141380000D01*
%TO.C,R17*%
X157346359Y-113870000D02*
X157653641Y-113870000D01*
X157346359Y-114630000D02*
X157653641Y-114630000D01*
%TO.C,DL2*%
X123700000Y-123500000D02*
X123700000Y-127500000D01*
X123700000Y-123500000D02*
X129300000Y-123500000D01*
X123700000Y-127500000D02*
X128700000Y-127500000D01*
X129300000Y-126900000D02*
X128700000Y-127500000D01*
X129300000Y-126900000D02*
X129300000Y-123500000D01*
%TO.C,R11*%
X87846359Y-116120000D02*
X88153641Y-116120000D01*
X87846359Y-116880000D02*
X88153641Y-116880000D01*
%TO.C,U1*%
X65100000Y-118800000D02*
X71300000Y-118800000D01*
X65100000Y-137200000D02*
X65100000Y-118800000D01*
X65100000Y-137200000D02*
X71300000Y-137200000D01*
X89950000Y-137200000D02*
X90950000Y-137200000D01*
X90950000Y-118800000D02*
X89950000Y-118800000D01*
X90950000Y-118800000D02*
X90950000Y-120300000D01*
X90950000Y-137200000D02*
X90950000Y-135700000D01*
X71975000Y-137200000D02*
X71975000Y-137700000D01*
X71475000Y-137200000D01*
X71975000Y-137200000D01*
G36*
X71975000Y-137700000D02*
G01*
X71475000Y-137200000D01*
X71975000Y-137200000D01*
X71975000Y-137700000D01*
G37*
%TO.C,C11*%
X74859420Y-139490000D02*
X75140580Y-139490000D01*
X74859420Y-140510000D02*
X75140580Y-140510000D01*
%TO.C,D6*%
X98990000Y-148227500D02*
X99040000Y-148227500D01*
X98990000Y-150047500D02*
X98990000Y-148227500D01*
X99040000Y-150047500D02*
X98990000Y-150047500D01*
X102060000Y-148227500D02*
X102110000Y-148227500D01*
X102110000Y-148227500D02*
X102110000Y-150047500D01*
X102110000Y-150047500D02*
X102060000Y-150047500D01*
X102060000Y-147687500D02*
X102390000Y-147447500D01*
X102390000Y-147927500D01*
X102060000Y-147687500D01*
G36*
X102390000Y-147927500D02*
G01*
X102060000Y-147687500D01*
X102390000Y-147447500D01*
X102390000Y-147927500D01*
G37*
%TO.C,R3*%
X104120000Y-108653641D02*
X104120000Y-108346359D01*
X104880000Y-108653641D02*
X104880000Y-108346359D01*
%TO.C,R10*%
X101120000Y-153653641D02*
X101120000Y-153346359D01*
X101880000Y-153653641D02*
X101880000Y-153346359D01*
%TO.C,R16*%
X162653641Y-143620000D02*
X162346359Y-143620000D01*
X162653641Y-144380000D02*
X162346359Y-144380000D01*
%TO.C,C14*%
X106392164Y-121140000D02*
X106607836Y-121140000D01*
X106392164Y-121860000D02*
X106607836Y-121860000D01*
%TO.C,C3*%
X142490000Y-134415580D02*
X142490000Y-134134420D01*
X143510000Y-134415580D02*
X143510000Y-134134420D01*
%TO.C,J_KVM*%
D10*
X123000000Y-157200000D02*
X123900000Y-157200000D01*
X123000000Y-158800000D02*
X123000000Y-157200000D01*
X123000000Y-158800000D02*
X124100000Y-158800000D01*
X123000000Y-164800000D02*
X123000000Y-158800000D01*
X123300000Y-158300000D02*
X123450000Y-157600000D01*
X123450000Y-157600000D02*
X123600000Y-158300000D01*
X123600000Y-158300000D02*
X123300000Y-158300000D01*
X123900000Y-157200000D02*
X123900000Y-158800000D01*
X123920000Y-163100000D02*
X123920000Y-158800000D01*
X124870000Y-158800000D02*
X124870000Y-163100000D01*
X124870000Y-161200000D02*
X123920000Y-161200000D01*
X124870000Y-163100000D02*
X123920000Y-163100000D01*
X125700000Y-160550000D02*
X125700000Y-164800000D01*
X125900000Y-158800000D02*
X126100000Y-158800000D01*
X127900000Y-158800000D02*
X128100000Y-158800000D01*
X129900000Y-158800000D02*
X130100000Y-158800000D01*
X131900000Y-158800000D02*
X132100000Y-158800000D01*
X132200000Y-160550000D02*
X125700000Y-160550000D01*
X132200000Y-164800000D02*
X132200000Y-160550000D01*
X133150000Y-163100000D02*
X133150000Y-158800000D01*
X133900000Y-158800000D02*
X135000000Y-158800000D01*
X134100000Y-157200000D02*
X134100000Y-158800000D01*
X134100000Y-158800000D02*
X134100000Y-163100000D01*
X134100000Y-161200000D02*
X133150000Y-161200000D01*
X134100000Y-163100000D02*
X133150000Y-163100000D01*
X135000000Y-157200000D02*
X134100000Y-157200000D01*
X135000000Y-158800000D02*
X135000000Y-157200000D01*
X135000000Y-158800000D02*
X135000000Y-164800000D01*
X135000000Y-164800000D02*
X123000000Y-164800000D01*
D14*
X123080000Y-164810000D02*
G75*
G02*
X123020000Y-164810000I-30000J0D01*
G01*
X123020000Y-164810000D02*
G75*
G02*
X123080000Y-164810000I30000J0D01*
G01*
%TO.C,R24*%
D13*
X125346359Y-153120000D02*
X125653641Y-153120000D01*
X125346359Y-153880000D02*
X125653641Y-153880000D01*
%TO.C,C9*%
X154990000Y-117859420D02*
X154990000Y-118140580D01*
X156010000Y-117859420D02*
X156010000Y-118140580D01*
%TO.C,DL7*%
X109200000Y-123500000D02*
X109200000Y-127500000D01*
X109200000Y-123500000D02*
X114800000Y-123500000D01*
X109200000Y-127500000D02*
X114200000Y-127500000D01*
X114800000Y-126900000D02*
X114200000Y-127500000D01*
X114800000Y-126900000D02*
X114800000Y-123500000D01*
%TO.C,U6*%
X102090000Y-121440000D02*
X103910000Y-121440000D01*
X102090000Y-121490000D02*
X102090000Y-121440000D01*
X102090000Y-124560000D02*
X102090000Y-124510000D01*
X103910000Y-121440000D02*
X103910000Y-121490000D01*
X103910000Y-122610000D02*
X103910000Y-123390000D01*
X103910000Y-124510000D02*
X103910000Y-124560000D01*
X103910000Y-124560000D02*
X102090000Y-124560000D01*
X101550000Y-121490000D02*
X101310000Y-121160000D01*
X101790000Y-121160000D01*
X101550000Y-121490000D01*
G36*
X101550000Y-121490000D02*
G01*
X101310000Y-121160000D01*
X101790000Y-121160000D01*
X101550000Y-121490000D01*
G37*
%TO.C,J_5V*%
X161145000Y-145190000D02*
X161145000Y-146610000D01*
X161145000Y-146610000D02*
X165645000Y-146610000D01*
X161145000Y-151390000D02*
X165645000Y-151390000D01*
X161145000Y-152810000D02*
X161145000Y-151390000D01*
X161455000Y-149950000D02*
X162055000Y-150250000D01*
X161455000Y-150550000D02*
X161455000Y-149950000D01*
X162055000Y-150250000D02*
X161455000Y-150550000D01*
X165645000Y-146610000D02*
X165645000Y-149000000D01*
X165645000Y-151390000D02*
X165645000Y-149000000D01*
X172865000Y-145190000D02*
X161145000Y-145190000D01*
X172865000Y-149000000D02*
X172865000Y-145190000D01*
X172865000Y-149000000D02*
X172865000Y-152810000D01*
X172865000Y-152810000D02*
X161145000Y-152810000D01*
X166755000Y-147500000D02*
X172255000Y-147500000D01*
X172255000Y-148000000D01*
X166755000Y-148000000D01*
X166755000Y-147500000D01*
X166755000Y-150000000D02*
X172255000Y-150000000D01*
X172255000Y-150500000D01*
X166755000Y-150500000D01*
X166755000Y-150000000D01*
%TO.C,TP5*%
X92950000Y-146000000D02*
G75*
G02*
X91050000Y-146000000I-950000J0D01*
G01*
X91050000Y-146000000D02*
G75*
G02*
X92950000Y-146000000I950000J0D01*
G01*
%TO.C,R19*%
X93836359Y-129620000D02*
X94143641Y-129620000D01*
X93836359Y-130380000D02*
X94143641Y-130380000D01*
%TO.C,R6*%
X113153641Y-108620000D02*
X112846359Y-108620000D01*
X113153641Y-109380000D02*
X112846359Y-109380000D01*
%TO.C,C1*%
X147590000Y-125340000D02*
X150940000Y-125340000D01*
X147590000Y-141095563D02*
X147590000Y-125340000D01*
X147940000Y-143400000D02*
X149940000Y-143400000D01*
X148654437Y-142160000D02*
X147590000Y-141095563D01*
X148654437Y-142160000D02*
X150940000Y-142160000D01*
X148940000Y-144400000D02*
X148940000Y-142400000D01*
X163345563Y-142160000D02*
X161060000Y-142160000D01*
X163345563Y-142160000D02*
X164410000Y-141095563D01*
X164410000Y-125340000D02*
X161060000Y-125340000D01*
X164410000Y-141095563D02*
X164410000Y-125340000D01*
%TO.C,U4*%
X73990000Y-144677500D02*
X74040000Y-144677500D01*
X73990000Y-146197500D02*
X73990000Y-144677500D01*
X74990000Y-146197500D02*
X73990000Y-146197500D01*
X75160000Y-144677500D02*
X75940000Y-144677500D01*
X77060000Y-144677500D02*
X77110000Y-144677500D01*
X77110000Y-144677500D02*
X77110000Y-146197500D01*
X77110000Y-146197500D02*
X76110000Y-146197500D01*
X75930000Y-144137500D02*
X75600000Y-144377500D01*
X75600000Y-143897500D01*
X75930000Y-144137500D01*
G36*
X75930000Y-144137500D02*
G01*
X75600000Y-144377500D01*
X75600000Y-143897500D01*
X75930000Y-144137500D01*
G37*
%TO.C,C8*%
X116140000Y-147187836D02*
X116140000Y-146972164D01*
X116860000Y-147187836D02*
X116860000Y-146972164D01*
%TO.C,D4*%
X123150000Y-108390000D02*
X123150000Y-111050000D01*
X124850000Y-108390000D02*
X123150000Y-108390000D01*
X124850000Y-108390000D02*
X124850000Y-111050000D01*
%TO.C,TH1*%
D11*
X132380000Y-121750000D02*
X133090000Y-121750000D01*
X132380000Y-122750000D02*
X132380000Y-121750000D01*
X133090000Y-122750000D02*
X132380000Y-122750000D01*
X133550000Y-122750000D02*
X134260000Y-122750000D01*
X134260000Y-121750000D02*
X133550000Y-121750000D01*
X134260000Y-122750000D02*
X134260000Y-121750000D01*
D14*
X132850000Y-122500000D02*
G75*
G02*
X132790000Y-122500000I-30000J0D01*
G01*
X132790000Y-122500000D02*
G75*
G02*
X132850000Y-122500000I30000J0D01*
G01*
%TO.C,D3*%
D13*
X110150000Y-108390000D02*
X110150000Y-111050000D01*
X111850000Y-108390000D02*
X110150000Y-108390000D01*
X111850000Y-108390000D02*
X111850000Y-111050000D01*
%TO.C,R9*%
X98620000Y-153653641D02*
X98620000Y-153346359D01*
X99380000Y-153653641D02*
X99380000Y-153346359D01*
%TO.C,R_ILIM2*%
X146370000Y-122346359D02*
X146370000Y-122653641D01*
X147130000Y-122346359D02*
X147130000Y-122653641D01*
%TO.C,C_SS2*%
X148859420Y-121490000D02*
X149140580Y-121490000D01*
X148859420Y-122510000D02*
X149140580Y-122510000D01*
%TO.C,TP_3V3*%
X143950000Y-150500000D02*
G75*
G02*
X142050000Y-150500000I-950000J0D01*
G01*
X142050000Y-150500000D02*
G75*
G02*
X143950000Y-150500000I950000J0D01*
G01*
%TO.C,TP_VHOLD*%
X147450000Y-150500000D02*
G75*
G02*
X145550000Y-150500000I-950000J0D01*
G01*
X145550000Y-150500000D02*
G75*
G02*
X147450000Y-150500000I950000J0D01*
G01*
%TO.C,J4*%
D10*
X120322500Y-87250000D02*
X136322500Y-87250000D01*
X120322500Y-90830000D02*
X120322500Y-87250000D01*
X120372500Y-105750000D02*
X120372500Y-93780000D01*
X120372500Y-105750000D02*
X136372500Y-105750000D01*
X136372500Y-87300000D02*
X136372500Y-90820000D01*
X136372500Y-105750000D02*
X136372500Y-93780000D01*
D14*
X120402500Y-105800000D02*
G75*
G02*
X120342500Y-105800000I-30000J0D01*
G01*
X120342500Y-105800000D02*
G75*
G02*
X120402500Y-105800000I30000J0D01*
G01*
D15*
X134292500Y-101650000D02*
G75*
G02*
X133892500Y-101650000I-200000J0D01*
G01*
X133892500Y-101650000D02*
G75*
G02*
X134292500Y-101650000I200000J0D01*
G01*
%TO.C,R15*%
D13*
X164653641Y-143620000D02*
X164346359Y-143620000D01*
X164653641Y-144380000D02*
X164346359Y-144380000D01*
%TO.C,R23*%
X123346359Y-153120000D02*
X123653641Y-153120000D01*
X123346359Y-153880000D02*
X123653641Y-153880000D01*
%TO.C,C13*%
X110859420Y-112990000D02*
X111140580Y-112990000D01*
X110859420Y-114010000D02*
X111140580Y-114010000D01*
%TO.C,C12*%
X85640000Y-139412164D02*
X85640000Y-139627836D01*
X86360000Y-139412164D02*
X86360000Y-139627836D01*
%TO.C,C5*%
X105140000Y-118892164D02*
X105140000Y-119107836D01*
X105860000Y-118892164D02*
X105860000Y-119107836D01*
%TO.C,C7*%
X104107836Y-106640000D02*
X103892164Y-106640000D01*
X104107836Y-107360000D02*
X103892164Y-107360000D01*
%TO.C,D2*%
X86150000Y-108390000D02*
X86150000Y-111050000D01*
X87850000Y-108390000D02*
X86150000Y-108390000D01*
X87850000Y-108390000D02*
X87850000Y-111050000D01*
%TO.C,DL5*%
X106200000Y-133500000D02*
X106200000Y-137500000D01*
X106200000Y-133500000D02*
X111800000Y-133500000D01*
X106200000Y-137500000D02*
X111200000Y-137500000D01*
X111800000Y-136900000D02*
X111200000Y-137500000D01*
X111800000Y-136900000D02*
X111800000Y-133500000D01*
%TO.C,J_USB*%
X95420000Y-159150000D02*
X95420000Y-161070000D01*
X95420000Y-164785000D02*
X95420000Y-163080000D01*
X104580000Y-161070000D02*
X104580000Y-159150000D01*
X104580000Y-163080000D02*
X104580000Y-164785000D01*
X104580000Y-164785000D02*
X95420000Y-164785000D01*
%TO.C,TP_GND*%
X140450000Y-150500000D02*
G75*
G02*
X138550000Y-150500000I-950000J0D01*
G01*
X138550000Y-150500000D02*
G75*
G02*
X140450000Y-150500000I950000J0D01*
G01*
%TO.C,U3*%
X138590000Y-134940000D02*
X140410000Y-134940000D01*
X138590000Y-134990000D02*
X138590000Y-134940000D01*
X138590000Y-138060000D02*
X138590000Y-138010000D01*
X140410000Y-134940000D02*
X140410000Y-134990000D01*
X140410000Y-136110000D02*
X140410000Y-136890000D01*
X140410000Y-138010000D02*
X140410000Y-138060000D01*
X140410000Y-138060000D02*
X138590000Y-138060000D01*
X138050000Y-134990000D02*
X137810000Y-134660000D01*
X138290000Y-134660000D01*
X138050000Y-134990000D01*
G36*
X138050000Y-134990000D02*
G01*
X137810000Y-134660000D01*
X138290000Y-134660000D01*
X138050000Y-134990000D01*
G37*
%TO.C,C6*%
X83107836Y-146140000D02*
X82892164Y-146140000D01*
X83107836Y-146860000D02*
X82892164Y-146860000D01*
%TO.C,R25*%
X134620000Y-123596359D02*
X134620000Y-123903641D01*
X135380000Y-123596359D02*
X135380000Y-123903641D01*
%TO.C,TP_VBUS*%
X150950000Y-150500000D02*
G75*
G02*
X149050000Y-150500000I-950000J0D01*
G01*
X149050000Y-150500000D02*
G75*
G02*
X150950000Y-150500000I950000J0D01*
G01*
%TO.C,C2*%
X135990000Y-134140580D02*
X135990000Y-133859420D01*
X137010000Y-134140580D02*
X137010000Y-133859420D01*
%TO.C,J5*%
D10*
X138322500Y-87250000D02*
X154322500Y-87250000D01*
X138322500Y-90830000D02*
X138322500Y-87250000D01*
X138372500Y-105750000D02*
X138372500Y-93780000D01*
X138372500Y-105750000D02*
X154372500Y-105750000D01*
X154372500Y-87300000D02*
X154372500Y-90820000D01*
X154372500Y-105750000D02*
X154372500Y-93780000D01*
D14*
X138402500Y-105800000D02*
G75*
G02*
X138342500Y-105800000I-30000J0D01*
G01*
X138342500Y-105800000D02*
G75*
G02*
X138402500Y-105800000I30000J0D01*
G01*
D15*
X152292500Y-101650000D02*
G75*
G02*
X151892500Y-101650000I-200000J0D01*
G01*
X151892500Y-101650000D02*
G75*
G02*
X152292500Y-101650000I200000J0D01*
G01*
%TO.C,C_bulk1*%
D13*
X142062500Y-111652500D02*
X142850000Y-111652500D01*
X142456250Y-111258750D02*
X142456250Y-112046250D01*
X143090000Y-111154437D02*
X143090000Y-112440000D01*
X143090000Y-111154437D02*
X144154437Y-110090000D01*
X143090000Y-115845563D02*
X143090000Y-114560000D01*
X143090000Y-115845563D02*
X144154437Y-116910000D01*
X144154437Y-110090000D02*
X149910000Y-110090000D01*
X144154437Y-116910000D02*
X149910000Y-116910000D01*
X149910000Y-110090000D02*
X149910000Y-112440000D01*
X149910000Y-116910000D02*
X149910000Y-114560000D01*
%TO.C,D1*%
X137100000Y-129760000D02*
X137100000Y-124250000D01*
X137100000Y-129760000D02*
X140400000Y-129760000D01*
X140400000Y-129760000D02*
X140400000Y-124250000D01*
%TO.C,C16*%
X135392164Y-121890000D02*
X135607836Y-121890000D01*
X135392164Y-122610000D02*
X135607836Y-122610000D01*
%TO.C,C_SS1*%
X153990000Y-110359420D02*
X153990000Y-110640580D01*
X155010000Y-110359420D02*
X155010000Y-110640580D01*
%TD*%
M02*
