%TF.GenerationSoftware,KiCad,Pcbnew,10.0.3-10.0.3~ubuntu24.04.1*%
%TF.CreationDate,2026-06-05T21:31:07+00:00*%
%TF.ProjectId,hub-standard,6875622d-7374-4616-9e64-6172642e6b69,rev?*%
%TF.SameCoordinates,Original*%
%TF.FileFunction,Other,Comment*%
%FSLAX46Y46*%
G04 Gerber Fmt 4.6, Leading zero omitted, Abs format (unit mm)*
G04 Created by KiCad (PCBNEW 10.0.3-10.0.3~ubuntu24.04.1) date 2026-06-05 21:31:07*
%MOMM*%
%LPD*%
G01*
G04 APERTURE LIST*
%ADD10C,0.150000*%
%ADD11C,1.500000*%
%ADD12C,0.400000*%
G04 APERTURE END LIST*
D10*
X59997438Y-140142857D02*
X57997438Y-140142857D01*
X59997438Y-139000000D02*
X58854580Y-139857143D01*
X57997438Y-139000000D02*
X59140295Y-140142857D01*
X58949819Y-138142857D02*
X58949819Y-137476190D01*
X59997438Y-137190476D02*
X59997438Y-138142857D01*
X59997438Y-138142857D02*
X57997438Y-138142857D01*
X57997438Y-138142857D02*
X57997438Y-137190476D01*
X58949819Y-136333333D02*
X58949819Y-135666666D01*
X59997438Y-135380952D02*
X59997438Y-136333333D01*
X59997438Y-136333333D02*
X57997438Y-136333333D01*
X57997438Y-136333333D02*
X57997438Y-135380952D01*
X59997438Y-134523809D02*
X57997438Y-134523809D01*
X57997438Y-134523809D02*
X57997438Y-133761904D01*
X57997438Y-133761904D02*
X58092676Y-133571428D01*
X58092676Y-133571428D02*
X58187914Y-133476190D01*
X58187914Y-133476190D02*
X58378390Y-133380952D01*
X58378390Y-133380952D02*
X58664104Y-133380952D01*
X58664104Y-133380952D02*
X58854580Y-133476190D01*
X58854580Y-133476190D02*
X58949819Y-133571428D01*
X58949819Y-133571428D02*
X59045057Y-133761904D01*
X59045057Y-133761904D02*
X59045057Y-134523809D01*
X59235533Y-132523809D02*
X59235533Y-131000000D01*
X57997438Y-129666667D02*
X57997438Y-129285714D01*
X57997438Y-129285714D02*
X58092676Y-129095238D01*
X58092676Y-129095238D02*
X58283152Y-128904762D01*
X58283152Y-128904762D02*
X58664104Y-128809524D01*
X58664104Y-128809524D02*
X59330771Y-128809524D01*
X59330771Y-128809524D02*
X59711723Y-128904762D01*
X59711723Y-128904762D02*
X59902200Y-129095238D01*
X59902200Y-129095238D02*
X59997438Y-129285714D01*
X59997438Y-129285714D02*
X59997438Y-129666667D01*
X59997438Y-129666667D02*
X59902200Y-129857143D01*
X59902200Y-129857143D02*
X59711723Y-130047619D01*
X59711723Y-130047619D02*
X59330771Y-130142857D01*
X59330771Y-130142857D02*
X58664104Y-130142857D01*
X58664104Y-130142857D02*
X58283152Y-130047619D01*
X58283152Y-130047619D02*
X58092676Y-129857143D01*
X58092676Y-129857143D02*
X57997438Y-129666667D01*
X57997438Y-127952381D02*
X59616485Y-127952381D01*
X59616485Y-127952381D02*
X59806961Y-127857143D01*
X59806961Y-127857143D02*
X59902200Y-127761905D01*
X59902200Y-127761905D02*
X59997438Y-127571429D01*
X59997438Y-127571429D02*
X59997438Y-127190476D01*
X59997438Y-127190476D02*
X59902200Y-127000000D01*
X59902200Y-127000000D02*
X59806961Y-126904762D01*
X59806961Y-126904762D02*
X59616485Y-126809524D01*
X59616485Y-126809524D02*
X57997438Y-126809524D01*
X57997438Y-126142857D02*
X57997438Y-125000000D01*
X59997438Y-125571429D02*
X57997438Y-125571429D01*
X57997438Y-122999999D02*
X57997438Y-121666666D01*
X57997438Y-121666666D02*
X59997438Y-122999999D01*
X59997438Y-122999999D02*
X59997438Y-121666666D01*
X57997438Y-120523809D02*
X57997438Y-120142856D01*
X57997438Y-120142856D02*
X58092676Y-119952380D01*
X58092676Y-119952380D02*
X58283152Y-119761904D01*
X58283152Y-119761904D02*
X58664104Y-119666666D01*
X58664104Y-119666666D02*
X59330771Y-119666666D01*
X59330771Y-119666666D02*
X59711723Y-119761904D01*
X59711723Y-119761904D02*
X59902200Y-119952380D01*
X59902200Y-119952380D02*
X59997438Y-120142856D01*
X59997438Y-120142856D02*
X59997438Y-120523809D01*
X59997438Y-120523809D02*
X59902200Y-120714285D01*
X59902200Y-120714285D02*
X59711723Y-120904761D01*
X59711723Y-120904761D02*
X59330771Y-120999999D01*
X59330771Y-120999999D02*
X58664104Y-120999999D01*
X58664104Y-120999999D02*
X58283152Y-120904761D01*
X58283152Y-120904761D02*
X58092676Y-120714285D01*
X58092676Y-120714285D02*
X57997438Y-120523809D01*
X59997438Y-118809523D02*
X57997438Y-118809523D01*
X57997438Y-118809523D02*
X59997438Y-117666666D01*
X59997438Y-117666666D02*
X57997438Y-117666666D01*
X58949819Y-116714285D02*
X58949819Y-116047618D01*
X59997438Y-115761904D02*
X59997438Y-116714285D01*
X59997438Y-116714285D02*
X57997438Y-116714285D01*
X57997438Y-116714285D02*
X57997438Y-115761904D01*
X68729104Y-130811904D02*
X68729104Y-130335714D01*
X69014819Y-130907142D02*
X68014819Y-130573809D01*
X68014819Y-130573809D02*
X69014819Y-130240476D01*
X68348152Y-129907142D02*
X69014819Y-129907142D01*
X68443390Y-129907142D02*
X68395771Y-129859523D01*
X68395771Y-129859523D02*
X68348152Y-129764285D01*
X68348152Y-129764285D02*
X68348152Y-129621428D01*
X68348152Y-129621428D02*
X68395771Y-129526190D01*
X68395771Y-129526190D02*
X68491009Y-129478571D01*
X68491009Y-129478571D02*
X69014819Y-129478571D01*
X68348152Y-129145237D02*
X68348152Y-128764285D01*
X68014819Y-129002380D02*
X68871961Y-129002380D01*
X68871961Y-129002380D02*
X68967200Y-128954761D01*
X68967200Y-128954761D02*
X69014819Y-128859523D01*
X69014819Y-128859523D02*
X69014819Y-128764285D01*
X68967200Y-128049999D02*
X69014819Y-128145237D01*
X69014819Y-128145237D02*
X69014819Y-128335713D01*
X69014819Y-128335713D02*
X68967200Y-128430951D01*
X68967200Y-128430951D02*
X68871961Y-128478570D01*
X68871961Y-128478570D02*
X68491009Y-128478570D01*
X68491009Y-128478570D02*
X68395771Y-128430951D01*
X68395771Y-128430951D02*
X68348152Y-128335713D01*
X68348152Y-128335713D02*
X68348152Y-128145237D01*
X68348152Y-128145237D02*
X68395771Y-128049999D01*
X68395771Y-128049999D02*
X68491009Y-128002380D01*
X68491009Y-128002380D02*
X68586247Y-128002380D01*
X68586247Y-128002380D02*
X68681485Y-128478570D01*
X68348152Y-127573808D02*
X69014819Y-127573808D01*
X68443390Y-127573808D02*
X68395771Y-127526189D01*
X68395771Y-127526189D02*
X68348152Y-127430951D01*
X68348152Y-127430951D02*
X68348152Y-127288094D01*
X68348152Y-127288094D02*
X68395771Y-127192856D01*
X68395771Y-127192856D02*
X68491009Y-127145237D01*
X68491009Y-127145237D02*
X69014819Y-127145237D01*
X68348152Y-126669046D02*
X69014819Y-126669046D01*
X68443390Y-126669046D02*
X68395771Y-126621427D01*
X68395771Y-126621427D02*
X68348152Y-126526189D01*
X68348152Y-126526189D02*
X68348152Y-126383332D01*
X68348152Y-126383332D02*
X68395771Y-126288094D01*
X68395771Y-126288094D02*
X68491009Y-126240475D01*
X68491009Y-126240475D02*
X69014819Y-126240475D01*
X69014819Y-125335713D02*
X68491009Y-125335713D01*
X68491009Y-125335713D02*
X68395771Y-125383332D01*
X68395771Y-125383332D02*
X68348152Y-125478570D01*
X68348152Y-125478570D02*
X68348152Y-125669046D01*
X68348152Y-125669046D02*
X68395771Y-125764284D01*
X68967200Y-125335713D02*
X69014819Y-125430951D01*
X69014819Y-125430951D02*
X69014819Y-125669046D01*
X69014819Y-125669046D02*
X68967200Y-125764284D01*
X68967200Y-125764284D02*
X68871961Y-125811903D01*
X68871961Y-125811903D02*
X68776723Y-125811903D01*
X68776723Y-125811903D02*
X68681485Y-125764284D01*
X68681485Y-125764284D02*
X68633866Y-125669046D01*
X68633866Y-125669046D02*
X68633866Y-125430951D01*
X68633866Y-125430951D02*
X68586247Y-125335713D01*
%TO.C,J3*%
D11*
X104972500Y-95250000D02*
G75*
G02*
X103472500Y-95250000I-750000J0D01*
G01*
X103472500Y-95250000D02*
G75*
G02*
X104972500Y-95250000I750000J0D01*
G01*
X116272500Y-95250000D02*
G75*
G02*
X114772500Y-95250000I-750000J0D01*
G01*
X114772500Y-95250000D02*
G75*
G02*
X116272500Y-95250000I750000J0D01*
G01*
D12*
X115792500Y-101650000D02*
G75*
G02*
X115392500Y-101650000I-200000J0D01*
G01*
X115392500Y-101650000D02*
G75*
G02*
X115792500Y-101650000I200000J0D01*
G01*
%TO.C,M3*%
D10*
X79200000Y-158000000D02*
G75*
G02*
X72800000Y-158000000I-3200000J0D01*
G01*
X72800000Y-158000000D02*
G75*
G02*
X79200000Y-158000000I3200000J0D01*
G01*
%TO.C,M2*%
X165200000Y-96250000D02*
G75*
G02*
X158800000Y-96250000I-3200000J0D01*
G01*
X158800000Y-96250000D02*
G75*
G02*
X165200000Y-96250000I3200000J0D01*
G01*
%TO.C,J2*%
D11*
X86472500Y-95250000D02*
G75*
G02*
X84972500Y-95250000I-750000J0D01*
G01*
X84972500Y-95250000D02*
G75*
G02*
X86472500Y-95250000I750000J0D01*
G01*
X97772500Y-95250000D02*
G75*
G02*
X96272500Y-95250000I-750000J0D01*
G01*
X96272500Y-95250000D02*
G75*
G02*
X97772500Y-95250000I750000J0D01*
G01*
D12*
X97292500Y-101650000D02*
G75*
G02*
X96892500Y-101650000I-200000J0D01*
G01*
X96892500Y-101650000D02*
G75*
G02*
X97292500Y-101650000I200000J0D01*
G01*
%TO.C,M1*%
D10*
X79200000Y-96250000D02*
G75*
G02*
X72800000Y-96250000I-3200000J0D01*
G01*
X72800000Y-96250000D02*
G75*
G02*
X79200000Y-96250000I3200000J0D01*
G01*
%TO.C,M4*%
X165200000Y-158000000D02*
G75*
G02*
X158800000Y-158000000I-3200000J0D01*
G01*
X158800000Y-158000000D02*
G75*
G02*
X165200000Y-158000000I3200000J0D01*
G01*
%TO.C,J4*%
D11*
X123472500Y-95250000D02*
G75*
G02*
X121972500Y-95250000I-750000J0D01*
G01*
X121972500Y-95250000D02*
G75*
G02*
X123472500Y-95250000I750000J0D01*
G01*
X134772500Y-95250000D02*
G75*
G02*
X133272500Y-95250000I-750000J0D01*
G01*
X133272500Y-95250000D02*
G75*
G02*
X134772500Y-95250000I750000J0D01*
G01*
D12*
X134292500Y-101650000D02*
G75*
G02*
X133892500Y-101650000I-200000J0D01*
G01*
X133892500Y-101650000D02*
G75*
G02*
X134292500Y-101650000I200000J0D01*
G01*
%TO.C,J5*%
D11*
X141472500Y-95250000D02*
G75*
G02*
X139972500Y-95250000I-750000J0D01*
G01*
X139972500Y-95250000D02*
G75*
G02*
X141472500Y-95250000I750000J0D01*
G01*
X152772500Y-95250000D02*
G75*
G02*
X151272500Y-95250000I-750000J0D01*
G01*
X151272500Y-95250000D02*
G75*
G02*
X152772500Y-95250000I750000J0D01*
G01*
D12*
X152292500Y-101650000D02*
G75*
G02*
X151892500Y-101650000I-200000J0D01*
G01*
X151892500Y-101650000D02*
G75*
G02*
X152292500Y-101650000I200000J0D01*
G01*
%TD*%
M02*
