%TF.GenerationSoftware,KiCad,Pcbnew,10.0.3-10.0.3~ubuntu24.04.1*%
%TF.CreationDate,2026-06-05T21:31:07+00:00*%
%TF.ProjectId,hub-standard,6875622d-7374-4616-9e64-6172642e6b69,rev?*%
%TF.SameCoordinates,Original*%
%TF.FileFunction,Paste,Top*%
%TF.FilePolarity,Positive*%
%FSLAX46Y46*%
G04 Gerber Fmt 4.6, Leading zero omitted, Abs format (unit mm)*
G04 Created by KiCad (PCBNEW 10.0.3-10.0.3~ubuntu24.04.1) date 2026-06-05 21:31:07*
%MOMM*%
%LPD*%
G01*
G04 APERTURE LIST*
G04 Aperture macros list*
%AMRoundRect*
0 Rectangle with rounded corners*
0 $1 Rounding radius*
0 $2 $3 $4 $5 $6 $7 $8 $9 X,Y pos of 4 corners*
0 Add a 4 corners polygon primitive as box body*
4,1,4,$2,$3,$4,$5,$6,$7,$8,$9,$2,$3,0*
0 Add four circle primitives for the rounded corners*
1,1,$1+$1,$2,$3*
1,1,$1+$1,$4,$5*
1,1,$1+$1,$6,$7*
1,1,$1+$1,$8,$9*
0 Add four rect primitives between the rounded corners*
20,1,$1+$1,$2,$3,$4,$5,0*
20,1,$1+$1,$4,$5,$6,$7,0*
20,1,$1+$1,$6,$7,$8,$9,0*
20,1,$1+$1,$8,$9,$2,$3,0*%
G04 Aperture macros list end*
%ADD10R,1.050000X0.399999*%
%ADD11R,0.200000X0.599999*%
%ADD12RoundRect,0.135000X-0.135000X-0.185000X0.135000X-0.185000X0.135000X0.185000X-0.135000X0.185000X0*%
%ADD13R,1.600000X0.850000*%
%ADD14RoundRect,0.112500X-0.112500X0.187500X-0.112500X-0.187500X0.112500X-0.187500X0.112500X0.187500X0*%
%ADD15RoundRect,0.150000X0.150000X-0.825000X0.150000X0.825000X-0.150000X0.825000X-0.150000X-0.825000X0*%
%ADD16RoundRect,0.135000X-0.185000X0.135000X-0.185000X-0.135000X0.185000X-0.135000X0.185000X0.135000X0*%
%ADD17RoundRect,0.225000X-0.250000X0.225000X-0.250000X-0.225000X0.250000X-0.225000X0.250000X0.225000X0*%
%ADD18RoundRect,0.112500X0.112500X-0.187500X0.112500X0.187500X-0.112500X0.187500X-0.112500X-0.187500X0*%
%ADD19RoundRect,0.140000X0.140000X0.170000X-0.140000X0.170000X-0.140000X-0.170000X0.140000X-0.170000X0*%
%ADD20RoundRect,0.135000X0.135000X0.185000X-0.135000X0.185000X-0.135000X-0.185000X0.135000X-0.185000X0*%
%ADD21R,1.230000X1.860000*%
%ADD22R,0.900000X0.900000*%
%ADD23R,0.900000X1.500000*%
%ADD24R,1.500000X0.900000*%
%ADD25RoundRect,0.225000X-0.225000X-0.250000X0.225000X-0.250000X0.225000X0.250000X-0.225000X0.250000X0*%
%ADD26RoundRect,0.150000X-0.150000X0.512500X-0.150000X-0.512500X0.150000X-0.512500X0.150000X0.512500X0*%
%ADD27RoundRect,0.135000X0.185000X-0.135000X0.185000X0.135000X-0.185000X0.135000X-0.185000X-0.135000X0*%
%ADD28RoundRect,0.140000X-0.140000X-0.170000X0.140000X-0.170000X0.140000X0.170000X-0.140000X0.170000X0*%
%ADD29RoundRect,0.225000X0.250000X-0.225000X0.250000X0.225000X-0.250000X0.225000X-0.250000X-0.225000X0*%
%ADD30RoundRect,0.150000X-0.512500X-0.150000X0.512500X-0.150000X0.512500X0.150000X-0.512500X0.150000X0*%
%ADD31RoundRect,0.249998X4.550002X-3.650002X4.550002X3.650002X-4.550002X3.650002X-4.550002X-3.650002X0*%
%ADD32RoundRect,0.150000X-0.150000X0.587500X-0.150000X-0.587500X0.150000X-0.587500X0.150000X0.587500X0*%
%ADD33RoundRect,0.140000X0.170000X-0.140000X0.170000X0.140000X-0.170000X0.140000X-0.170000X-0.140000X0*%
%ADD34R,0.566000X0.540000*%
%ADD35RoundRect,0.140000X-0.170000X0.140000X-0.170000X-0.140000X0.170000X-0.140000X0.170000X0.140000X0*%
%ADD36R,0.300000X1.150000*%
%ADD37RoundRect,0.250000X-1.500000X-0.550000X1.500000X-0.550000X1.500000X0.550000X-1.500000X0.550000X0*%
%ADD38RoundRect,0.250000X0.650000X-1.000000X0.650000X1.000000X-0.650000X1.000000X-0.650000X-1.000000X0*%
G04 APERTURE END LIST*
D10*
%TO.C,U7*%
X148425000Y-119824998D03*
X148425000Y-119124999D03*
D11*
X148500001Y-118350000D03*
X148000000Y-118350000D03*
X147500000Y-118350000D03*
X146999999Y-118350000D03*
D10*
X147075000Y-119124999D03*
X147075000Y-119824998D03*
D11*
X146999999Y-120649998D03*
X147500000Y-120649998D03*
X148000000Y-120649998D03*
X148500001Y-120649998D03*
%TD*%
D12*
%TO.C,R14*%
X105990000Y-124000000D03*
X107010000Y-124000000D03*
%TD*%
%TO.C,R_ILIM1*%
X156990000Y-112500000D03*
X158010000Y-112500000D03*
%TD*%
D13*
%TO.C,DL3*%
X127250000Y-134625000D03*
X127250000Y-136375000D03*
X130750000Y-136375000D03*
X130750000Y-134625000D03*
%TD*%
D14*
%TO.C,D5*%
X140000000Y-108950000D03*
X140000000Y-111050000D03*
%TD*%
D15*
%TO.C,U2*%
X103095000Y-115975000D03*
X104365000Y-115975000D03*
X105635000Y-115975000D03*
X106905000Y-115975000D03*
X106905000Y-111025000D03*
X105635000Y-111025000D03*
X104365000Y-111025000D03*
X103095000Y-111025000D03*
%TD*%
D16*
%TO.C,R4*%
X105500000Y-107990000D03*
X105500000Y-109010000D03*
%TD*%
D12*
%TO.C,R18*%
X158990000Y-114250000D03*
X160010000Y-114250000D03*
%TD*%
D10*
%TO.C,U5*%
X154075000Y-114325000D03*
X154075000Y-115024999D03*
D11*
X153999999Y-115799998D03*
X154500000Y-115799998D03*
X155000000Y-115799998D03*
X155500001Y-115799998D03*
D10*
X155425000Y-115024999D03*
X155425000Y-114325000D03*
D11*
X155500001Y-113500000D03*
X155000000Y-113500000D03*
X154500000Y-113500000D03*
X153999999Y-113500000D03*
%TD*%
D12*
%TO.C,R5*%
X84490000Y-109000000D03*
X85510000Y-109000000D03*
%TD*%
D17*
%TO.C,C10*%
X153000000Y-117225000D03*
X153000000Y-118775000D03*
%TD*%
D18*
%TO.C,D7*%
X133000000Y-156300000D03*
X133000000Y-154200000D03*
%TD*%
D19*
%TO.C,C4*%
X73980000Y-138500000D03*
X73020000Y-138500000D03*
%TD*%
D12*
%TO.C,R8*%
X137490000Y-109000000D03*
X138510000Y-109000000D03*
%TD*%
D19*
%TO.C,C15*%
X144730000Y-120000000D03*
X143770000Y-120000000D03*
%TD*%
D20*
%TO.C,R21*%
X131020000Y-153500000D03*
X130000000Y-153500000D03*
%TD*%
D13*
%TO.C,DL6*%
X110750000Y-157625000D03*
X110750000Y-159375000D03*
X114250000Y-159375000D03*
X114250000Y-157625000D03*
%TD*%
D21*
%TO.C,SW_BOOT*%
X122680000Y-150600000D03*
X118320000Y-150600000D03*
%TD*%
D20*
%TO.C,R22*%
X129010000Y-153500000D03*
X127990000Y-153500000D03*
%TD*%
%TO.C,R13*%
X91010000Y-141000000D03*
X89990000Y-141000000D03*
%TD*%
D21*
%TO.C,SW_RESET*%
X114930000Y-150500000D03*
X110570000Y-150500000D03*
%TD*%
D12*
%TO.C,R20*%
X93490000Y-128750000D03*
X94510000Y-128750000D03*
%TD*%
D13*
%TO.C,DL1*%
X117250000Y-118525000D03*
X117250000Y-120275000D03*
X120750000Y-120275000D03*
X120750000Y-118525000D03*
%TD*%
%TO.C,DL4*%
X117250000Y-136625000D03*
X117250000Y-138375000D03*
X120750000Y-138375000D03*
X120750000Y-136625000D03*
%TD*%
D12*
%TO.C,R7*%
X121490000Y-109000000D03*
X122510000Y-109000000D03*
%TD*%
D20*
%TO.C,R2*%
X76510000Y-141500000D03*
X75490000Y-141500000D03*
%TD*%
%TO.C,R12*%
X93510000Y-141000000D03*
X92490000Y-141000000D03*
%TD*%
D12*
%TO.C,R17*%
X156990000Y-114250000D03*
X158010000Y-114250000D03*
%TD*%
D13*
%TO.C,DL2*%
X124750000Y-124625000D03*
X124750000Y-126375000D03*
X128250000Y-126375000D03*
X128250000Y-124625000D03*
%TD*%
D12*
%TO.C,R11*%
X87490000Y-116500000D03*
X88510000Y-116500000D03*
%TD*%
D22*
%TO.C,U1*%
X79060000Y-130900000D03*
X80460000Y-130900000D03*
X81860000Y-130900000D03*
X79060000Y-129500000D03*
X80460000Y-129500000D03*
X81860000Y-129500000D03*
X79060000Y-128100000D03*
X80460000Y-128100000D03*
X81860000Y-128100000D03*
D23*
X72740000Y-136750000D03*
X74010000Y-136750000D03*
X75280000Y-136750000D03*
X76550000Y-136750000D03*
X77820000Y-136750000D03*
X79090000Y-136750000D03*
X80360000Y-136750000D03*
X81630000Y-136750000D03*
X82900000Y-136750000D03*
X84170000Y-136750000D03*
X85440000Y-136750000D03*
X86710000Y-136750000D03*
X87980000Y-136750000D03*
X89250000Y-136750000D03*
D24*
X90500000Y-134985000D03*
X90500000Y-133715000D03*
X90500000Y-132445000D03*
X90500000Y-131175000D03*
X90500000Y-129905000D03*
X90500000Y-128635000D03*
X90500000Y-127365000D03*
X90500000Y-126095000D03*
X90500000Y-124825000D03*
X90500000Y-123555000D03*
X90500000Y-122285000D03*
X90500000Y-121015000D03*
D23*
X89250000Y-119250000D03*
X87980000Y-119250000D03*
X86710000Y-119250000D03*
X85440000Y-119250000D03*
X84170000Y-119250000D03*
X82900000Y-119250000D03*
X81630000Y-119250000D03*
X80360000Y-119250000D03*
X79090000Y-119250000D03*
X77820000Y-119250000D03*
X76550000Y-119250000D03*
X75280000Y-119250000D03*
X74010000Y-119250000D03*
X72740000Y-119250000D03*
%TD*%
D25*
%TO.C,C11*%
X74225000Y-140000000D03*
X75775000Y-140000000D03*
%TD*%
D26*
%TO.C,D6*%
X101500000Y-148000000D03*
X100550000Y-148000000D03*
X99600000Y-148000000D03*
X99600000Y-150275000D03*
X100550000Y-150275000D03*
X101500000Y-150275000D03*
%TD*%
D27*
%TO.C,R3*%
X104500000Y-109010000D03*
X104500000Y-107990000D03*
%TD*%
%TO.C,R10*%
X101500000Y-154010000D03*
X101500000Y-152990000D03*
%TD*%
D20*
%TO.C,R16*%
X163010000Y-144000000D03*
X161990000Y-144000000D03*
%TD*%
D28*
%TO.C,C14*%
X106020000Y-121500000D03*
X106980000Y-121500000D03*
%TD*%
D29*
%TO.C,C3*%
X143000000Y-135050000D03*
X143000000Y-133500000D03*
%TD*%
D12*
%TO.C,R24*%
X124990000Y-153500000D03*
X126010000Y-153500000D03*
%TD*%
D17*
%TO.C,C9*%
X155500000Y-117225000D03*
X155500000Y-118775000D03*
%TD*%
D13*
%TO.C,DL7*%
X110250000Y-124625000D03*
X110250000Y-126375000D03*
X113750000Y-126375000D03*
X113750000Y-124625000D03*
%TD*%
D30*
%TO.C,U6*%
X101862500Y-122050000D03*
X101862500Y-123000000D03*
X101862500Y-123950000D03*
X104137500Y-123950000D03*
X104137500Y-122050000D03*
%TD*%
D12*
%TO.C,R19*%
X93480000Y-130000000D03*
X94500000Y-130000000D03*
%TD*%
D20*
%TO.C,R6*%
X113510000Y-109000000D03*
X112490000Y-109000000D03*
%TD*%
D31*
%TO.C,C1*%
X156000000Y-140000000D03*
X156000000Y-127500000D03*
%TD*%
D32*
%TO.C,U4*%
X76500000Y-144500000D03*
X74600000Y-144500000D03*
X75550000Y-146375000D03*
%TD*%
D33*
%TO.C,C8*%
X116500000Y-147560000D03*
X116500000Y-146600000D03*
%TD*%
D14*
%TO.C,D4*%
X124000000Y-108950000D03*
X124000000Y-111050000D03*
%TD*%
D34*
%TO.C,TH1*%
X132890000Y-122250000D03*
X133750000Y-122250000D03*
%TD*%
D14*
%TO.C,D3*%
X111000000Y-108950000D03*
X111000000Y-111050000D03*
%TD*%
D27*
%TO.C,R9*%
X99000000Y-154010000D03*
X99000000Y-152990000D03*
%TD*%
D16*
%TO.C,R_ILIM2*%
X146750000Y-121990000D03*
X146750000Y-123010000D03*
%TD*%
D25*
%TO.C,C_SS2*%
X148225000Y-122000000D03*
X149775000Y-122000000D03*
%TD*%
D20*
%TO.C,R15*%
X165010000Y-144000000D03*
X163990000Y-144000000D03*
%TD*%
D12*
%TO.C,R23*%
X122990000Y-153500000D03*
X124010000Y-153500000D03*
%TD*%
D25*
%TO.C,C13*%
X110225000Y-113500000D03*
X111775000Y-113500000D03*
%TD*%
D35*
%TO.C,C12*%
X86000000Y-139040000D03*
X86000000Y-140000000D03*
%TD*%
%TO.C,C5*%
X105500000Y-118520000D03*
X105500000Y-119480000D03*
%TD*%
D19*
%TO.C,C7*%
X104480000Y-107000000D03*
X103520000Y-107000000D03*
%TD*%
D14*
%TO.C,D2*%
X87000000Y-108950000D03*
X87000000Y-111050000D03*
%TD*%
D13*
%TO.C,DL5*%
X107250000Y-134625000D03*
X107250000Y-136375000D03*
X110750000Y-136375000D03*
X110750000Y-134625000D03*
%TD*%
D36*
%TO.C,J_USB*%
X96650000Y-157330000D03*
X97450000Y-157330000D03*
X98750000Y-157330000D03*
X99750000Y-157330000D03*
X100250000Y-157330000D03*
X101250000Y-157330000D03*
X102550000Y-157330000D03*
X103350000Y-157330000D03*
X103050000Y-157330000D03*
X102250000Y-157330000D03*
X101750000Y-157330000D03*
X100750000Y-157330000D03*
X99250000Y-157330000D03*
X98250000Y-157330000D03*
X97750000Y-157330000D03*
X96950000Y-157330000D03*
%TD*%
D30*
%TO.C,U3*%
X138362500Y-135550000D03*
X138362500Y-136500000D03*
X138362500Y-137450000D03*
X140637500Y-137450000D03*
X140637500Y-135550000D03*
%TD*%
D19*
%TO.C,C6*%
X83480000Y-146500000D03*
X82520000Y-146500000D03*
%TD*%
D16*
%TO.C,R25*%
X135000000Y-123240000D03*
X135000000Y-124260000D03*
%TD*%
D29*
%TO.C,C2*%
X136500000Y-134775000D03*
X136500000Y-133225000D03*
%TD*%
D37*
%TO.C,C_bulk1*%
X143800000Y-113500000D03*
X149200000Y-113500000D03*
%TD*%
D38*
%TO.C,D1*%
X138750000Y-128250000D03*
X138750000Y-124250000D03*
%TD*%
D28*
%TO.C,C16*%
X135020000Y-122250000D03*
X135980000Y-122250000D03*
%TD*%
D17*
%TO.C,C_SS1*%
X154500000Y-109725000D03*
X154500000Y-111275000D03*
%TD*%
M02*
