%TF.GenerationSoftware,KiCad,Pcbnew,10.0.3-10.0.3~ubuntu24.04.1*%
%TF.CreationDate,2026-06-05T21:31:07+00:00*%
%TF.ProjectId,hub-standard,6875622d-7374-4616-9e64-6172642e6b69,rev?*%
%TF.SameCoordinates,Original*%
%TF.FileFunction,Copper,L2,Inr*%
%TF.FilePolarity,Positive*%
%FSLAX46Y46*%
G04 Gerber Fmt 4.6, Leading zero omitted, Abs format (unit mm)*
G04 Created by KiCad (PCBNEW 10.0.3-10.0.3~ubuntu24.04.1) date 2026-06-05 21:31:07*
%MOMM*%
%LPD*%
G01*
G04 APERTURE LIST*
G04 Aperture macros list*
%AMRoundRect*
0 Rectangle with rounded corners*
0 $1 Rounding radius*
0 $2 $3 $4 $5 $6 $7 $8 $9 X,Y pos of 4 corners*
0 Add a 4 corners polygon primitive as box body*
4,1,4,$2,$3,$4,$5,$6,$7,$8,$9,$2,$3,0*
0 Add four circle primitives for the rounded corners*
1,1,$1+$1,$2,$3*
1,1,$1+$1,$4,$5*
1,1,$1+$1,$6,$7*
1,1,$1+$1,$8,$9*
0 Add four rect primitives between the rounded corners*
20,1,$1+$1,$2,$3,$4,$5,0*
20,1,$1+$1,$4,$5,$6,$7,0*
20,1,$1+$1,$6,$7,$8,$9,0*
20,1,$1+$1,$8,$9,$2,$3,0*%
G04 Aperture macros list end*
%TA.AperFunction,ComponentPad*%
%ADD10RoundRect,0.250000X0.750000X-0.600000X0.750000X0.600000X-0.750000X0.600000X-0.750000X-0.600000X0*%
%TD*%
%TA.AperFunction,ComponentPad*%
%ADD11O,2.000000X1.700000*%
%TD*%
%TA.AperFunction,ComponentPad*%
%ADD12C,1.524000*%
%TD*%
%TA.AperFunction,ComponentPad*%
%ADD13R,1.524000X1.524000*%
%TD*%
%TA.AperFunction,ComponentPad*%
%ADD14O,1.200000X2.500000*%
%TD*%
%TA.AperFunction,ComponentPad*%
%ADD15C,0.800000*%
%TD*%
%TA.AperFunction,ComponentPad*%
%ADD16C,6.400000*%
%TD*%
%TA.AperFunction,HeatsinkPad*%
%ADD17C,0.600000*%
%TD*%
%TA.AperFunction,ComponentPad*%
%ADD18R,1.400000X1.400000*%
%TD*%
%TA.AperFunction,ComponentPad*%
%ADD19C,1.400000*%
%TD*%
%TA.AperFunction,HeatsinkPad*%
%ADD20O,1.000000X2.100000*%
%TD*%
%TA.AperFunction,HeatsinkPad*%
%ADD21O,1.000000X1.600000*%
%TD*%
%TA.AperFunction,ViaPad*%
%ADD22C,0.600000*%
%TD*%
G04 APERTURE END LIST*
D10*
%TO.N,/5VSB_RAW*%
%TO.C,J_5VSB*%
X163555000Y-115250000D03*
D11*
%TO.N,GND*%
X163555000Y-112750000D03*
%TD*%
D12*
%TO.N,+5VSB*%
%TO.C,J3*%
X114282500Y-101600000D03*
%TO.N,GND*%
X113012500Y-104140000D03*
%TO.N,/CAN_H*%
X111742500Y-101600000D03*
%TO.N,unconnected-(J3-STREAM_P-Pad4)*%
X110472500Y-104140000D03*
%TO.N,unconnected-(J3-STREAM_N-Pad5)*%
X109202500Y-101600000D03*
%TO.N,/CAN_L*%
X107932500Y-104140000D03*
%TO.N,unconnected-(J3-RSVD-Pad7)*%
X106662500Y-101600000D03*
D13*
%TO.N,/DETECT2*%
X105392500Y-104140000D03*
D14*
%TO.N,GND*%
X117772500Y-92300000D03*
X101972500Y-92300000D03*
%TD*%
D15*
%TO.N,GND*%
%TO.C,M3*%
X73600000Y-158000000D03*
X74302944Y-156302944D03*
X74302944Y-159697056D03*
X76000000Y-155600000D03*
D16*
X76000000Y-158000000D03*
D15*
X76000000Y-160400000D03*
X77697056Y-156302944D03*
X77697056Y-159697056D03*
X78400000Y-158000000D03*
%TD*%
%TO.N,GND*%
%TO.C,M2*%
X159600000Y-96250000D03*
X160302944Y-94552944D03*
X160302944Y-97947056D03*
X162000000Y-93850000D03*
D16*
X162000000Y-96250000D03*
D15*
X162000000Y-98650000D03*
X163697056Y-94552944D03*
X163697056Y-97947056D03*
X164400000Y-96250000D03*
%TD*%
D12*
%TO.N,+5VSB*%
%TO.C,J2*%
X95782500Y-101600000D03*
%TO.N,GND*%
X94512500Y-104140000D03*
%TO.N,/CAN_H*%
X93242500Y-101600000D03*
%TO.N,unconnected-(J2-STREAM_P-Pad4)*%
X91972500Y-104140000D03*
%TO.N,unconnected-(J2-STREAM_N-Pad5)*%
X90702500Y-101600000D03*
%TO.N,/CAN_L*%
X89432500Y-104140000D03*
%TO.N,unconnected-(J2-RSVD-Pad7)*%
X88162500Y-101600000D03*
D13*
%TO.N,/DETECT1*%
X86892500Y-104140000D03*
D14*
%TO.N,GND*%
X99272500Y-92300000D03*
X83472500Y-92300000D03*
%TD*%
D15*
%TO.N,GND*%
%TO.C,M1*%
X73600000Y-96250000D03*
X74302944Y-94552944D03*
X74302944Y-97947056D03*
X76000000Y-93850000D03*
D16*
X76000000Y-96250000D03*
D15*
X76000000Y-98650000D03*
X77697056Y-94552944D03*
X77697056Y-97947056D03*
X78400000Y-96250000D03*
%TD*%
%TO.N,GND*%
%TO.C,M4*%
X159600000Y-158000000D03*
X160302944Y-156302944D03*
X160302944Y-159697056D03*
X162000000Y-155600000D03*
D16*
X162000000Y-158000000D03*
D15*
X162000000Y-160400000D03*
X163697056Y-156302944D03*
X163697056Y-159697056D03*
X164400000Y-158000000D03*
%TD*%
D17*
%TO.N,GND*%
%TO.C,U1*%
X79760000Y-130900000D03*
X81160000Y-130900000D03*
X79060000Y-130200000D03*
X80460000Y-130200000D03*
X81860000Y-130200000D03*
X79760000Y-129500000D03*
X81160000Y-129500000D03*
X79060000Y-128800000D03*
X80460000Y-128800000D03*
X81860000Y-128800000D03*
X79760000Y-128100000D03*
X81160000Y-128100000D03*
%TD*%
D18*
%TO.N,+5VSB*%
%TO.C,J_KVM*%
X125000000Y-158550000D03*
D19*
%TO.N,GND*%
X127000000Y-158550000D03*
%TO.N,/AUX_TXC*%
X129000000Y-158550000D03*
%TO.N,/AUX_RXC*%
X131000000Y-158550000D03*
%TO.N,/KVM_3V3_REF*%
X133000000Y-158550000D03*
%TD*%
D10*
%TO.N,/MAIN_5V_RAW*%
%TO.C,J_5V*%
X163555000Y-150250000D03*
D11*
%TO.N,GND*%
X163555000Y-147750000D03*
%TD*%
D12*
%TO.N,+5VSB*%
%TO.C,J4*%
X132782500Y-101600000D03*
%TO.N,GND*%
X131512500Y-104140000D03*
%TO.N,/CAN_H*%
X130242500Y-101600000D03*
%TO.N,unconnected-(J4-STREAM_P-Pad4)*%
X128972500Y-104140000D03*
%TO.N,unconnected-(J4-STREAM_N-Pad5)*%
X127702500Y-101600000D03*
%TO.N,/CAN_L*%
X126432500Y-104140000D03*
%TO.N,unconnected-(J4-RSVD-Pad7)*%
X125162500Y-101600000D03*
D13*
%TO.N,/DETECT3*%
X123892500Y-104140000D03*
D14*
%TO.N,GND*%
X136272500Y-92300000D03*
X120472500Y-92300000D03*
%TD*%
D20*
%TO.N,GND*%
%TO.C,J_USB*%
X95680000Y-157895000D03*
D21*
X95680000Y-162075000D03*
D20*
X104320000Y-157895000D03*
D21*
X104320000Y-162075000D03*
%TD*%
D12*
%TO.N,+5VSB*%
%TO.C,J5*%
X150782500Y-101600000D03*
%TO.N,GND*%
X149512500Y-104140000D03*
%TO.N,/CAN_H*%
X148242500Y-101600000D03*
%TO.N,unconnected-(J5-STREAM_P-Pad4)*%
X146972500Y-104140000D03*
%TO.N,unconnected-(J5-STREAM_N-Pad5)*%
X145702500Y-101600000D03*
%TO.N,/CAN_L*%
X144432500Y-104140000D03*
%TO.N,unconnected-(J5-RSVD-Pad7)*%
X143162500Y-101600000D03*
D13*
%TO.N,/DETECT4*%
X141892500Y-104140000D03*
D14*
%TO.N,GND*%
X154272500Y-92300000D03*
X138472500Y-92300000D03*
%TD*%
D22*
%TO.N,+5VSB*%
X123000000Y-119000000D03*
X142000000Y-117920000D03*
X142000000Y-115300000D03*
X123000000Y-137000000D03*
X130500000Y-125000000D03*
X109500000Y-118000000D03*
X114000000Y-122500000D03*
X117000000Y-157000000D03*
X123000000Y-146000000D03*
X96000000Y-140500000D03*
X142000000Y-116500000D03*
X112500000Y-135000000D03*
X132500000Y-135000000D03*
%TO.N,GND*%
X85500000Y-111500000D03*
X133250000Y-153000000D03*
X104000000Y-118000000D03*
X72000000Y-138500000D03*
X136500000Y-125000000D03*
X154000000Y-108500000D03*
X124500000Y-112000000D03*
X102500000Y-107000000D03*
X105000000Y-120000000D03*
X111000000Y-112000000D03*
X143250000Y-120750000D03*
X102350000Y-152000000D03*
X77500000Y-144000000D03*
X73000000Y-117500000D03*
X113500000Y-114000000D03*
X161500000Y-143250000D03*
X125500000Y-136500000D03*
X116000000Y-145600000D03*
X115500000Y-120500000D03*
X147750000Y-123250000D03*
X127250000Y-153000000D03*
X100000000Y-124500000D03*
X96000000Y-156000000D03*
X86980000Y-139980000D03*
X115500000Y-138500000D03*
X138500000Y-112000000D03*
X99000000Y-152000000D03*
X105500000Y-136500000D03*
X109000000Y-160000000D03*
X124250000Y-150600000D03*
X84500000Y-146500000D03*
X159000000Y-113000000D03*
X149500000Y-121000000D03*
X156000000Y-123000000D03*
X103000000Y-156000000D03*
X102500000Y-109000000D03*
X100550000Y-146550000D03*
X156000000Y-120000000D03*
X89000000Y-141000000D03*
X138500000Y-146500000D03*
X143000000Y-132000000D03*
X73000000Y-135500000D03*
X136500000Y-132000000D03*
X154500000Y-117000000D03*
X123000000Y-126500000D03*
X108500000Y-122500000D03*
X108500000Y-126500000D03*
X116750000Y-150500000D03*
X153000000Y-112000000D03*
X152500000Y-120000000D03*
X77000000Y-139500000D03*
X147750000Y-117500000D03*
X136500000Y-121500000D03*
X137000000Y-136500000D03*
%TO.N,/MAIN_5V_RAW*%
X158250000Y-119250000D03*
X146000000Y-118000000D03*
%TO.N,Net-(DL3-DOUT)*%
X121000000Y-140500000D03*
X128500000Y-138500000D03*
%TO.N,Net-(DL2-DOUT)*%
X123000000Y-125500000D03*
X132500000Y-136500000D03*
%TO.N,/DETECT4*%
X140000000Y-108000000D03*
X137000000Y-112000000D03*
X80500000Y-135500000D03*
%TO.N,+3V3*%
X83500000Y-109000000D03*
X122495000Y-153995000D03*
X113510000Y-108010000D03*
X139000000Y-140500000D03*
X74500000Y-142500000D03*
X136500000Y-109000000D03*
X86500000Y-116500000D03*
X121000000Y-108000000D03*
X109000000Y-110000000D03*
X141000000Y-133000000D03*
X144500000Y-141500000D03*
X74000000Y-147500000D03*
%TO.N,/DETECT2*%
X113500000Y-112000000D03*
X111000000Y-108000000D03*
X77500000Y-135500000D03*
%TO.N,/5VSB_SENSE*%
X95750000Y-131250000D03*
X156500000Y-113250000D03*
%TO.N,/USB_VBUS*%
X124500000Y-143500000D03*
X149500000Y-146000000D03*
X121500000Y-143500000D03*
X97000000Y-155500000D03*
X151000000Y-120000000D03*
X140500000Y-145500000D03*
X100500000Y-151500000D03*
X138500000Y-143500000D03*
X103000000Y-155000000D03*
%TO.N,/DETECT1*%
X76500000Y-135500000D03*
X84500000Y-113000000D03*
X87000000Y-108000000D03*
%TO.N,/KVM_3V3_SENSE*%
X98000000Y-123600000D03*
X98000000Y-122250000D03*
%TO.N,Net-(DL6-DOUT)*%
X115500000Y-142000000D03*
X110000000Y-155500000D03*
X116500000Y-126500000D03*
X114500000Y-145000000D03*
%TO.N,Net-(DL5-DOUT)*%
X103500000Y-141500000D03*
X103500000Y-139500000D03*
X116000000Y-159000000D03*
X105000000Y-135500000D03*
%TO.N,/GPIO0*%
X91000000Y-116500000D03*
X119500000Y-147000000D03*
%TO.N,/EN*%
X109000000Y-151250000D03*
X82500000Y-149000000D03*
%TO.N,Net-(DL1-DOUT)*%
X130000000Y-126500000D03*
X115000000Y-119500000D03*
%TO.N,Net-(DL4-DOUT)*%
X115500000Y-135500000D03*
X111000000Y-138000000D03*
%TO.N,/DETECT3*%
X122000000Y-112000000D03*
X79000000Y-135500000D03*
X124000000Y-108000000D03*
%TO.N,/TEMP_HUB*%
X97500000Y-133000000D03*
X100000000Y-130500000D03*
X104250000Y-126250000D03*
X108750000Y-120500000D03*
%TO.N,/MAIN_5V_SENSE*%
X92000000Y-132500000D03*
X160500000Y-144750000D03*
%TO.N,/HUB_3V3_SENSE*%
X92000000Y-120000000D03*
X97000000Y-122250000D03*
X97199997Y-123600000D03*
X88750000Y-120750000D03*
%TD*%
%TA.AperFunction,Conductor*%
%TO.N,GND*%
G36*
X167436441Y-90766693D02*
G01*
X167482199Y-90819495D01*
X167493408Y-90871002D01*
X167499500Y-157990913D01*
X167499500Y-163375500D01*
X167479815Y-163442539D01*
X167427011Y-163488294D01*
X167375500Y-163499500D01*
X70624500Y-163499500D01*
X70557461Y-163479815D01*
X70511706Y-163427011D01*
X70500500Y-163375500D01*
X70500500Y-158319234D01*
X96534500Y-158319234D01*
X96534500Y-158470765D01*
X96573719Y-158617136D01*
X96589507Y-158644481D01*
X96649485Y-158748365D01*
X96756635Y-158855515D01*
X96887865Y-158931281D01*
X97034234Y-158970500D01*
X97034236Y-158970500D01*
X97185764Y-158970500D01*
X97185766Y-158970500D01*
X97332135Y-158931281D01*
X97463365Y-158855515D01*
X97570515Y-158748365D01*
X97646281Y-158617135D01*
X97685500Y-158470766D01*
X97685500Y-158319234D01*
X102314500Y-158319234D01*
X102314500Y-158470765D01*
X102353719Y-158617136D01*
X102369507Y-158644481D01*
X102429485Y-158748365D01*
X102536635Y-158855515D01*
X102667865Y-158931281D01*
X102814234Y-158970500D01*
X102814236Y-158970500D01*
X102965764Y-158970500D01*
X102965766Y-158970500D01*
X103112135Y-158931281D01*
X103129677Y-158921153D01*
X115199500Y-158921153D01*
X115199500Y-159078846D01*
X115230261Y-159233489D01*
X115230264Y-159233501D01*
X115290602Y-159379172D01*
X115290609Y-159379185D01*
X115378210Y-159510288D01*
X115378213Y-159510292D01*
X115489707Y-159621786D01*
X115489711Y-159621789D01*
X115620814Y-159709390D01*
X115620827Y-159709397D01*
X115720060Y-159750500D01*
X115766503Y-159769737D01*
X115921153Y-159800499D01*
X115921156Y-159800500D01*
X115921158Y-159800500D01*
X116078844Y-159800500D01*
X116078845Y-159800499D01*
X116233497Y-159769737D01*
X116379179Y-159709394D01*
X116510289Y-159621789D01*
X116621789Y-159510289D01*
X116709394Y-159379179D01*
X116769737Y-159233497D01*
X116800500Y-159078842D01*
X116800500Y-158921158D01*
X116800500Y-158921155D01*
X116800499Y-158921153D01*
X116787443Y-158855515D01*
X116769737Y-158766503D01*
X116762224Y-158748364D01*
X116709397Y-158620827D01*
X116709390Y-158620814D01*
X116621789Y-158489711D01*
X116621786Y-158489707D01*
X116510292Y-158378213D01*
X116510288Y-158378210D01*
X116379185Y-158290609D01*
X116379172Y-158290602D01*
X116233501Y-158230264D01*
X116233489Y-158230261D01*
X116078845Y-158199500D01*
X116078842Y-158199500D01*
X115921158Y-158199500D01*
X115921155Y-158199500D01*
X115766510Y-158230261D01*
X115766498Y-158230264D01*
X115620827Y-158290602D01*
X115620814Y-158290609D01*
X115489711Y-158378210D01*
X115489707Y-158378213D01*
X115378213Y-158489707D01*
X115378210Y-158489711D01*
X115290609Y-158620814D01*
X115290602Y-158620827D01*
X115230264Y-158766498D01*
X115230261Y-158766510D01*
X115199500Y-158921153D01*
X103129677Y-158921153D01*
X103243365Y-158855515D01*
X103350515Y-158748365D01*
X103426281Y-158617135D01*
X103465500Y-158470766D01*
X103465500Y-158319234D01*
X103426281Y-158172865D01*
X103350515Y-158041635D01*
X103243365Y-157934485D01*
X103155869Y-157883969D01*
X103112136Y-157858719D01*
X103038950Y-157839109D01*
X102965766Y-157819500D01*
X102814234Y-157819500D01*
X102667863Y-157858719D01*
X102536635Y-157934485D01*
X102536632Y-157934487D01*
X102429487Y-158041632D01*
X102429485Y-158041635D01*
X102353719Y-158172863D01*
X102314500Y-158319234D01*
X97685500Y-158319234D01*
X97646281Y-158172865D01*
X97570515Y-158041635D01*
X97463365Y-157934485D01*
X97375869Y-157883969D01*
X97332136Y-157858719D01*
X97258950Y-157839109D01*
X97185766Y-157819500D01*
X97034234Y-157819500D01*
X96887863Y-157858719D01*
X96756635Y-157934485D01*
X96756632Y-157934487D01*
X96649487Y-158041632D01*
X96649485Y-158041635D01*
X96573719Y-158172863D01*
X96534500Y-158319234D01*
X70500500Y-158319234D01*
X70500500Y-157802135D01*
X123799500Y-157802135D01*
X123799500Y-159297870D01*
X123799501Y-159297876D01*
X123805908Y-159357483D01*
X123856202Y-159492328D01*
X123856206Y-159492335D01*
X123942452Y-159607544D01*
X123942455Y-159607547D01*
X124057664Y-159693793D01*
X124057671Y-159693797D01*
X124192517Y-159744091D01*
X124192516Y-159744091D01*
X124199444Y-159744835D01*
X124252127Y-159750500D01*
X125747872Y-159750499D01*
X125807483Y-159744091D01*
X125942331Y-159693796D01*
X126057546Y-159607546D01*
X126143796Y-159492331D01*
X126194091Y-159357483D01*
X126200500Y-159297873D01*
X126200499Y-158455513D01*
X127799500Y-158455513D01*
X127799500Y-158644486D01*
X127829059Y-158831118D01*
X127887454Y-159010836D01*
X127973240Y-159179199D01*
X128084310Y-159332073D01*
X128217927Y-159465690D01*
X128370801Y-159576760D01*
X128431218Y-159607544D01*
X128539163Y-159662545D01*
X128539165Y-159662545D01*
X128539168Y-159662547D01*
X128635333Y-159693793D01*
X128718881Y-159720940D01*
X128905514Y-159750500D01*
X128905519Y-159750500D01*
X129094486Y-159750500D01*
X129281118Y-159720940D01*
X129316643Y-159709397D01*
X129460832Y-159662547D01*
X129629199Y-159576760D01*
X129782073Y-159465690D01*
X129912319Y-159335444D01*
X129973642Y-159301959D01*
X130043334Y-159306943D01*
X130087681Y-159335444D01*
X130217927Y-159465690D01*
X130370801Y-159576760D01*
X130431218Y-159607544D01*
X130539163Y-159662545D01*
X130539165Y-159662545D01*
X130539168Y-159662547D01*
X130635333Y-159693793D01*
X130718881Y-159720940D01*
X130905514Y-159750500D01*
X130905519Y-159750500D01*
X131094486Y-159750500D01*
X131281118Y-159720940D01*
X131316643Y-159709397D01*
X131460832Y-159662547D01*
X131629199Y-159576760D01*
X131782073Y-159465690D01*
X131912319Y-159335444D01*
X131973642Y-159301959D01*
X132043334Y-159306943D01*
X132087681Y-159335444D01*
X132217927Y-159465690D01*
X132370801Y-159576760D01*
X132431218Y-159607544D01*
X132539163Y-159662545D01*
X132539165Y-159662545D01*
X132539168Y-159662547D01*
X132635333Y-159693793D01*
X132718881Y-159720940D01*
X132905514Y-159750500D01*
X132905519Y-159750500D01*
X133094486Y-159750500D01*
X133281118Y-159720940D01*
X133316643Y-159709397D01*
X133460832Y-159662547D01*
X133629199Y-159576760D01*
X133782073Y-159465690D01*
X133915690Y-159332073D01*
X134026760Y-159179199D01*
X134112547Y-159010832D01*
X134170940Y-158831118D01*
X134181175Y-158766498D01*
X134200500Y-158644486D01*
X134200500Y-158455513D01*
X134170940Y-158268881D01*
X134112545Y-158089163D01*
X134026759Y-157920800D01*
X133915690Y-157767927D01*
X133782073Y-157634310D01*
X133629199Y-157523240D01*
X133603779Y-157510288D01*
X133460836Y-157437454D01*
X133281118Y-157379059D01*
X133094486Y-157349500D01*
X133094481Y-157349500D01*
X132905519Y-157349500D01*
X132905514Y-157349500D01*
X132718881Y-157379059D01*
X132539163Y-157437454D01*
X132370800Y-157523240D01*
X132283579Y-157586610D01*
X132217927Y-157634310D01*
X132217925Y-157634312D01*
X132217924Y-157634312D01*
X132087681Y-157764556D01*
X132026358Y-157798041D01*
X131956666Y-157793057D01*
X131912319Y-157764556D01*
X131782075Y-157634312D01*
X131782073Y-157634310D01*
X131629199Y-157523240D01*
X131603779Y-157510288D01*
X131460836Y-157437454D01*
X131281118Y-157379059D01*
X131094486Y-157349500D01*
X131094481Y-157349500D01*
X130905519Y-157349500D01*
X130905514Y-157349500D01*
X130718881Y-157379059D01*
X130539163Y-157437454D01*
X130370800Y-157523240D01*
X130283579Y-157586610D01*
X130217927Y-157634310D01*
X130217925Y-157634312D01*
X130217924Y-157634312D01*
X130087681Y-157764556D01*
X130026358Y-157798041D01*
X129956666Y-157793057D01*
X129912319Y-157764556D01*
X129782075Y-157634312D01*
X129782073Y-157634310D01*
X129629199Y-157523240D01*
X129603779Y-157510288D01*
X129460836Y-157437454D01*
X129281118Y-157379059D01*
X129094486Y-157349500D01*
X129094481Y-157349500D01*
X128905519Y-157349500D01*
X128905514Y-157349500D01*
X128718881Y-157379059D01*
X128539163Y-157437454D01*
X128370800Y-157523240D01*
X128283579Y-157586610D01*
X128217927Y-157634310D01*
X128217925Y-157634312D01*
X128217924Y-157634312D01*
X128084312Y-157767924D01*
X128084312Y-157767925D01*
X128084310Y-157767927D01*
X128046840Y-157819500D01*
X127973240Y-157920800D01*
X127887454Y-158089163D01*
X127829059Y-158268881D01*
X127799500Y-158455513D01*
X126200499Y-158455513D01*
X126200499Y-157802128D01*
X126194091Y-157742517D01*
X126181735Y-157709390D01*
X126143797Y-157607671D01*
X126143793Y-157607664D01*
X126057547Y-157492455D01*
X126057544Y-157492452D01*
X125942335Y-157406206D01*
X125942328Y-157406202D01*
X125807482Y-157355908D01*
X125807483Y-157355908D01*
X125747883Y-157349501D01*
X125747881Y-157349500D01*
X125747873Y-157349500D01*
X125747864Y-157349500D01*
X124252129Y-157349500D01*
X124252123Y-157349501D01*
X124192516Y-157355908D01*
X124057671Y-157406202D01*
X124057664Y-157406206D01*
X123942455Y-157492452D01*
X123942452Y-157492455D01*
X123856206Y-157607664D01*
X123856202Y-157607671D01*
X123805908Y-157742517D01*
X123802982Y-157769737D01*
X123799501Y-157802123D01*
X123799500Y-157802135D01*
X70500500Y-157802135D01*
X70500500Y-156921153D01*
X116199500Y-156921153D01*
X116199500Y-157078846D01*
X116230261Y-157233489D01*
X116230264Y-157233501D01*
X116290602Y-157379172D01*
X116290609Y-157379185D01*
X116378210Y-157510288D01*
X116378213Y-157510292D01*
X116489707Y-157621786D01*
X116489711Y-157621789D01*
X116620814Y-157709390D01*
X116620827Y-157709397D01*
X116753995Y-157764556D01*
X116766503Y-157769737D01*
X116883740Y-157793057D01*
X116921153Y-157800499D01*
X116921156Y-157800500D01*
X116921158Y-157800500D01*
X117078844Y-157800500D01*
X117078845Y-157800499D01*
X117233497Y-157769737D01*
X117379179Y-157709394D01*
X117510289Y-157621789D01*
X117621789Y-157510289D01*
X117709394Y-157379179D01*
X117769737Y-157233497D01*
X117800500Y-157078842D01*
X117800500Y-156921158D01*
X117800500Y-156921155D01*
X117800499Y-156921153D01*
X117769738Y-156766510D01*
X117769737Y-156766503D01*
X117769735Y-156766498D01*
X117709397Y-156620827D01*
X117709390Y-156620814D01*
X117621789Y-156489711D01*
X117621786Y-156489707D01*
X117510292Y-156378213D01*
X117510288Y-156378210D01*
X117379185Y-156290609D01*
X117379172Y-156290602D01*
X117233501Y-156230264D01*
X117233489Y-156230261D01*
X117078845Y-156199500D01*
X117078842Y-156199500D01*
X116921158Y-156199500D01*
X116921155Y-156199500D01*
X116766510Y-156230261D01*
X116766498Y-156230264D01*
X116620827Y-156290602D01*
X116620814Y-156290609D01*
X116489711Y-156378210D01*
X116489707Y-156378213D01*
X116378213Y-156489707D01*
X116378210Y-156489711D01*
X116290609Y-156620814D01*
X116290602Y-156620827D01*
X116230264Y-156766498D01*
X116230261Y-156766510D01*
X116199500Y-156921153D01*
X70500500Y-156921153D01*
X70500500Y-155421153D01*
X96199500Y-155421153D01*
X96199500Y-155578846D01*
X96230261Y-155733489D01*
X96230264Y-155733501D01*
X96290602Y-155879172D01*
X96290609Y-155879185D01*
X96378210Y-156010288D01*
X96378213Y-156010292D01*
X96489707Y-156121786D01*
X96489711Y-156121789D01*
X96620814Y-156209390D01*
X96620827Y-156209397D01*
X96766498Y-156269735D01*
X96766503Y-156269737D01*
X96921153Y-156300499D01*
X96921156Y-156300500D01*
X96921158Y-156300500D01*
X97078844Y-156300500D01*
X97078845Y-156300499D01*
X97233497Y-156269737D01*
X97379179Y-156209394D01*
X97510289Y-156121789D01*
X97621789Y-156010289D01*
X97709394Y-155879179D01*
X97769737Y-155733497D01*
X97800500Y-155578842D01*
X97800500Y-155421158D01*
X97800500Y-155421155D01*
X97800499Y-155421153D01*
X97769738Y-155266510D01*
X97769737Y-155266503D01*
X97756062Y-155233489D01*
X97709397Y-155120827D01*
X97709390Y-155120814D01*
X97621790Y-154989712D01*
X97621784Y-154989705D01*
X97553232Y-154921153D01*
X102199500Y-154921153D01*
X102199500Y-155078846D01*
X102230261Y-155233489D01*
X102230264Y-155233501D01*
X102290602Y-155379172D01*
X102290609Y-155379185D01*
X102378210Y-155510288D01*
X102378213Y-155510292D01*
X102489707Y-155621786D01*
X102489711Y-155621789D01*
X102620814Y-155709390D01*
X102620827Y-155709397D01*
X102766498Y-155769735D01*
X102766503Y-155769737D01*
X102921153Y-155800499D01*
X102921156Y-155800500D01*
X102921158Y-155800500D01*
X103078844Y-155800500D01*
X103078845Y-155800499D01*
X103233497Y-155769737D01*
X103379179Y-155709394D01*
X103510289Y-155621789D01*
X103621789Y-155510289D01*
X103681348Y-155421153D01*
X109199500Y-155421153D01*
X109199500Y-155578846D01*
X109230261Y-155733489D01*
X109230264Y-155733501D01*
X109290602Y-155879172D01*
X109290609Y-155879185D01*
X109378210Y-156010288D01*
X109378213Y-156010292D01*
X109489707Y-156121786D01*
X109489711Y-156121789D01*
X109620814Y-156209390D01*
X109620827Y-156209397D01*
X109766498Y-156269735D01*
X109766503Y-156269737D01*
X109921153Y-156300499D01*
X109921156Y-156300500D01*
X109921158Y-156300500D01*
X110078844Y-156300500D01*
X110078845Y-156300499D01*
X110233497Y-156269737D01*
X110379179Y-156209394D01*
X110510289Y-156121789D01*
X110621789Y-156010289D01*
X110709394Y-155879179D01*
X110769737Y-155733497D01*
X110800500Y-155578842D01*
X110800500Y-155421158D01*
X110800500Y-155421155D01*
X110800499Y-155421153D01*
X110769738Y-155266510D01*
X110769737Y-155266503D01*
X110756062Y-155233489D01*
X110709397Y-155120827D01*
X110709390Y-155120814D01*
X110621789Y-154989711D01*
X110621786Y-154989707D01*
X110510292Y-154878213D01*
X110510288Y-154878210D01*
X110379185Y-154790609D01*
X110379172Y-154790602D01*
X110233501Y-154730264D01*
X110233489Y-154730261D01*
X110078845Y-154699500D01*
X110078842Y-154699500D01*
X109921158Y-154699500D01*
X109921155Y-154699500D01*
X109766510Y-154730261D01*
X109766498Y-154730264D01*
X109620827Y-154790602D01*
X109620814Y-154790609D01*
X109489711Y-154878210D01*
X109489707Y-154878213D01*
X109378213Y-154989707D01*
X109378210Y-154989711D01*
X109290609Y-155120814D01*
X109290602Y-155120827D01*
X109230264Y-155266498D01*
X109230261Y-155266510D01*
X109199500Y-155421153D01*
X103681348Y-155421153D01*
X103709394Y-155379179D01*
X103769737Y-155233497D01*
X103800500Y-155078842D01*
X103800500Y-154921158D01*
X103800500Y-154921155D01*
X103800499Y-154921153D01*
X103769738Y-154766506D01*
X103769735Y-154766498D01*
X103709397Y-154620827D01*
X103709390Y-154620814D01*
X103621789Y-154489711D01*
X103621786Y-154489707D01*
X103510292Y-154378213D01*
X103510288Y-154378210D01*
X103379185Y-154290609D01*
X103379172Y-154290602D01*
X103233501Y-154230264D01*
X103233489Y-154230261D01*
X103078845Y-154199500D01*
X103078842Y-154199500D01*
X102921158Y-154199500D01*
X102921155Y-154199500D01*
X102766510Y-154230261D01*
X102766498Y-154230264D01*
X102620827Y-154290602D01*
X102620814Y-154290609D01*
X102489711Y-154378210D01*
X102489707Y-154378213D01*
X102378213Y-154489707D01*
X102378210Y-154489711D01*
X102290609Y-154620814D01*
X102290602Y-154620827D01*
X102230264Y-154766498D01*
X102230262Y-154766506D01*
X102199500Y-154921153D01*
X97553232Y-154921153D01*
X97510292Y-154878213D01*
X97510288Y-154878210D01*
X97379185Y-154790609D01*
X97379172Y-154790602D01*
X97233501Y-154730264D01*
X97233489Y-154730261D01*
X97078845Y-154699500D01*
X97078842Y-154699500D01*
X96921158Y-154699500D01*
X96921155Y-154699500D01*
X96766510Y-154730261D01*
X96766498Y-154730264D01*
X96620827Y-154790602D01*
X96620814Y-154790609D01*
X96489711Y-154878210D01*
X96489707Y-154878213D01*
X96378213Y-154989707D01*
X96378210Y-154989711D01*
X96290609Y-155120814D01*
X96290602Y-155120827D01*
X96230264Y-155266498D01*
X96230261Y-155266510D01*
X96199500Y-155421153D01*
X70500500Y-155421153D01*
X70500500Y-153916153D01*
X121694500Y-153916153D01*
X121694500Y-154073846D01*
X121719495Y-154199500D01*
X121725263Y-154228497D01*
X121725995Y-154230264D01*
X121785602Y-154374172D01*
X121785609Y-154374185D01*
X121873210Y-154505288D01*
X121873213Y-154505292D01*
X121984707Y-154616786D01*
X121984711Y-154616789D01*
X122115814Y-154704390D01*
X122115827Y-154704397D01*
X122261498Y-154764735D01*
X122261503Y-154764737D01*
X122416153Y-154795499D01*
X122416156Y-154795500D01*
X122416158Y-154795500D01*
X122573844Y-154795500D01*
X122573845Y-154795499D01*
X122728497Y-154764737D01*
X122874179Y-154704394D01*
X123005289Y-154616789D01*
X123116789Y-154505289D01*
X123204394Y-154374179D01*
X123264737Y-154228497D01*
X123295500Y-154073842D01*
X123295500Y-153916158D01*
X123295500Y-153916155D01*
X123295499Y-153916153D01*
X123264738Y-153761510D01*
X123264737Y-153761503D01*
X123264735Y-153761498D01*
X123204397Y-153615827D01*
X123204390Y-153615814D01*
X123116789Y-153484711D01*
X123116786Y-153484707D01*
X123005292Y-153373213D01*
X123005288Y-153373210D01*
X122874185Y-153285609D01*
X122874172Y-153285602D01*
X122728501Y-153225264D01*
X122728489Y-153225261D01*
X122573845Y-153194500D01*
X122573842Y-153194500D01*
X122416158Y-153194500D01*
X122416155Y-153194500D01*
X122261510Y-153225261D01*
X122261498Y-153225264D01*
X122115827Y-153285602D01*
X122115814Y-153285609D01*
X121984711Y-153373210D01*
X121984707Y-153373213D01*
X121873213Y-153484707D01*
X121873210Y-153484711D01*
X121785609Y-153615814D01*
X121785602Y-153615827D01*
X121725264Y-153761498D01*
X121725261Y-153761510D01*
X121694500Y-153916153D01*
X70500500Y-153916153D01*
X70500500Y-152124000D01*
X70520185Y-152056961D01*
X70572989Y-152011206D01*
X70624500Y-152000000D01*
X71250000Y-152000000D01*
X71250000Y-151421153D01*
X99699500Y-151421153D01*
X99699500Y-151578846D01*
X99730261Y-151733489D01*
X99730264Y-151733501D01*
X99790602Y-151879172D01*
X99790609Y-151879185D01*
X99878210Y-152010288D01*
X99878213Y-152010292D01*
X99989707Y-152121786D01*
X99989711Y-152121789D01*
X100120814Y-152209390D01*
X100120827Y-152209397D01*
X100266498Y-152269735D01*
X100266503Y-152269737D01*
X100421153Y-152300499D01*
X100421156Y-152300500D01*
X100421158Y-152300500D01*
X100578844Y-152300500D01*
X100578845Y-152300499D01*
X100733497Y-152269737D01*
X100879179Y-152209394D01*
X101010289Y-152121789D01*
X101121789Y-152010289D01*
X101209394Y-151879179D01*
X101269737Y-151733497D01*
X101300500Y-151578842D01*
X101300500Y-151421158D01*
X101300500Y-151421155D01*
X101300499Y-151421153D01*
X101269738Y-151266510D01*
X101269737Y-151266503D01*
X101230242Y-151171153D01*
X108199500Y-151171153D01*
X108199500Y-151328846D01*
X108230261Y-151483489D01*
X108230264Y-151483501D01*
X108290602Y-151629172D01*
X108290609Y-151629185D01*
X108378210Y-151760288D01*
X108378213Y-151760292D01*
X108489707Y-151871786D01*
X108489711Y-151871789D01*
X108620814Y-151959390D01*
X108620827Y-151959397D01*
X108745907Y-152011206D01*
X108766503Y-152019737D01*
X108921153Y-152050499D01*
X108921156Y-152050500D01*
X108921158Y-152050500D01*
X109078844Y-152050500D01*
X109078845Y-152050499D01*
X109233497Y-152019737D01*
X109379179Y-151959394D01*
X109510289Y-151871789D01*
X109621789Y-151760289D01*
X109709394Y-151629179D01*
X109769737Y-151483497D01*
X109800500Y-151328842D01*
X109800500Y-151171158D01*
X109800500Y-151171155D01*
X109800499Y-151171153D01*
X109769738Y-151016510D01*
X109769737Y-151016503D01*
X109764060Y-151002797D01*
X109709397Y-150870827D01*
X109709390Y-150870814D01*
X109621789Y-150739711D01*
X109621786Y-150739707D01*
X109510292Y-150628213D01*
X109510288Y-150628210D01*
X109379185Y-150540609D01*
X109379172Y-150540602D01*
X109233501Y-150480264D01*
X109233489Y-150480261D01*
X109078845Y-150449500D01*
X109078842Y-150449500D01*
X108921158Y-150449500D01*
X108921155Y-150449500D01*
X108766510Y-150480261D01*
X108766498Y-150480264D01*
X108620827Y-150540602D01*
X108620814Y-150540609D01*
X108489711Y-150628210D01*
X108489707Y-150628213D01*
X108378213Y-150739707D01*
X108378210Y-150739711D01*
X108290609Y-150870814D01*
X108290602Y-150870827D01*
X108230264Y-151016498D01*
X108230261Y-151016510D01*
X108199500Y-151171153D01*
X101230242Y-151171153D01*
X101229487Y-151169331D01*
X101209397Y-151120827D01*
X101209390Y-151120814D01*
X101121789Y-150989711D01*
X101121786Y-150989707D01*
X101010292Y-150878213D01*
X101010288Y-150878210D01*
X100879185Y-150790609D01*
X100879172Y-150790602D01*
X100733501Y-150730264D01*
X100733489Y-150730261D01*
X100578845Y-150699500D01*
X100578842Y-150699500D01*
X100421158Y-150699500D01*
X100421155Y-150699500D01*
X100266510Y-150730261D01*
X100266498Y-150730264D01*
X100120827Y-150790602D01*
X100120814Y-150790609D01*
X99989711Y-150878210D01*
X99989707Y-150878213D01*
X99878213Y-150989707D01*
X99878210Y-150989711D01*
X99790609Y-151120814D01*
X99790602Y-151120827D01*
X99730264Y-151266498D01*
X99730261Y-151266510D01*
X99699500Y-151421153D01*
X71250000Y-151421153D01*
X71250000Y-148921153D01*
X81699500Y-148921153D01*
X81699500Y-149078846D01*
X81730261Y-149233489D01*
X81730264Y-149233501D01*
X81790602Y-149379172D01*
X81790609Y-149379185D01*
X81878210Y-149510288D01*
X81878213Y-149510292D01*
X81989707Y-149621786D01*
X81989711Y-149621789D01*
X82120814Y-149709390D01*
X82120827Y-149709397D01*
X82266498Y-149769735D01*
X82266503Y-149769737D01*
X82421153Y-149800499D01*
X82421156Y-149800500D01*
X82421158Y-149800500D01*
X82578844Y-149800500D01*
X82578845Y-149800499D01*
X82733497Y-149769737D01*
X82879179Y-149709394D01*
X83010289Y-149621789D01*
X83032095Y-149599983D01*
X162054500Y-149599983D01*
X162054500Y-150900001D01*
X162054501Y-150900018D01*
X162065000Y-151002796D01*
X162065001Y-151002799D01*
X162104108Y-151120814D01*
X162120186Y-151169334D01*
X162212288Y-151318656D01*
X162336344Y-151442712D01*
X162485666Y-151534814D01*
X162652203Y-151589999D01*
X162754991Y-151600500D01*
X164355008Y-151600499D01*
X164457797Y-151589999D01*
X164624334Y-151534814D01*
X164773656Y-151442712D01*
X164897712Y-151318656D01*
X164989814Y-151169334D01*
X165044999Y-151002797D01*
X165055500Y-150900009D01*
X165055499Y-149599992D01*
X165044999Y-149497203D01*
X164989814Y-149330666D01*
X164897712Y-149181344D01*
X164773656Y-149057288D01*
X164624334Y-148965186D01*
X164457797Y-148910001D01*
X164457795Y-148910000D01*
X164355010Y-148899500D01*
X162754998Y-148899500D01*
X162754981Y-148899501D01*
X162652203Y-148910000D01*
X162652200Y-148910001D01*
X162485668Y-148965185D01*
X162485663Y-148965187D01*
X162336342Y-149057289D01*
X162212289Y-149181342D01*
X162120187Y-149330663D01*
X162120186Y-149330666D01*
X162065001Y-149497203D01*
X162065001Y-149497204D01*
X162065000Y-149497204D01*
X162054500Y-149599983D01*
X83032095Y-149599983D01*
X83121789Y-149510289D01*
X83209394Y-149379179D01*
X83269737Y-149233497D01*
X83300500Y-149078842D01*
X83300500Y-148921158D01*
X83300500Y-148921155D01*
X83300499Y-148921153D01*
X83298281Y-148910001D01*
X83269737Y-148766503D01*
X83269735Y-148766498D01*
X83209397Y-148620827D01*
X83209390Y-148620814D01*
X83121789Y-148489711D01*
X83121786Y-148489707D01*
X83010292Y-148378213D01*
X83010288Y-148378210D01*
X82879185Y-148290609D01*
X82879172Y-148290602D01*
X82733501Y-148230264D01*
X82733489Y-148230261D01*
X82578845Y-148199500D01*
X82578842Y-148199500D01*
X82421158Y-148199500D01*
X82421155Y-148199500D01*
X82266510Y-148230261D01*
X82266498Y-148230264D01*
X82120827Y-148290602D01*
X82120814Y-148290609D01*
X81989711Y-148378210D01*
X81989707Y-148378213D01*
X81878213Y-148489707D01*
X81878210Y-148489711D01*
X81790609Y-148620814D01*
X81790602Y-148620827D01*
X81730264Y-148766498D01*
X81730261Y-148766510D01*
X81699500Y-148921153D01*
X71250000Y-148921153D01*
X71250000Y-147421153D01*
X73199500Y-147421153D01*
X73199500Y-147578846D01*
X73230261Y-147733489D01*
X73230264Y-147733501D01*
X73290602Y-147879172D01*
X73290609Y-147879185D01*
X73378210Y-148010288D01*
X73378213Y-148010292D01*
X73489707Y-148121786D01*
X73489711Y-148121789D01*
X73620814Y-148209390D01*
X73620827Y-148209397D01*
X73766498Y-148269735D01*
X73766503Y-148269737D01*
X73921153Y-148300499D01*
X73921156Y-148300500D01*
X73921158Y-148300500D01*
X74078844Y-148300500D01*
X74078845Y-148300499D01*
X74233497Y-148269737D01*
X74379179Y-148209394D01*
X74510289Y-148121789D01*
X74621789Y-148010289D01*
X74709394Y-147879179D01*
X74769737Y-147733497D01*
X74800500Y-147578842D01*
X74800500Y-147421158D01*
X74800500Y-147421155D01*
X74800499Y-147421153D01*
X74769738Y-147266510D01*
X74769737Y-147266503D01*
X74756062Y-147233489D01*
X74709397Y-147120827D01*
X74709390Y-147120814D01*
X74621790Y-146989712D01*
X74621784Y-146989705D01*
X74553232Y-146921153D01*
X118699500Y-146921153D01*
X118699500Y-147078846D01*
X118730261Y-147233489D01*
X118730264Y-147233501D01*
X118790602Y-147379172D01*
X118790609Y-147379185D01*
X118878210Y-147510288D01*
X118878213Y-147510292D01*
X118989707Y-147621786D01*
X118989711Y-147621789D01*
X119120814Y-147709390D01*
X119120827Y-147709397D01*
X119266498Y-147769735D01*
X119266503Y-147769737D01*
X119421153Y-147800499D01*
X119421156Y-147800500D01*
X119421158Y-147800500D01*
X119578844Y-147800500D01*
X119578845Y-147800499D01*
X119733497Y-147769737D01*
X119879179Y-147709394D01*
X120010289Y-147621789D01*
X120121789Y-147510289D01*
X120209394Y-147379179D01*
X120269737Y-147233497D01*
X120300500Y-147078842D01*
X120300500Y-146921158D01*
X120300500Y-146921155D01*
X120300499Y-146921153D01*
X120274531Y-146790606D01*
X120269737Y-146766503D01*
X120269735Y-146766498D01*
X120209397Y-146620827D01*
X120209390Y-146620814D01*
X120121789Y-146489711D01*
X120121786Y-146489707D01*
X120010292Y-146378213D01*
X120010288Y-146378210D01*
X119879185Y-146290609D01*
X119879172Y-146290602D01*
X119733501Y-146230264D01*
X119733489Y-146230261D01*
X119578845Y-146199500D01*
X119578842Y-146199500D01*
X119421158Y-146199500D01*
X119421155Y-146199500D01*
X119266510Y-146230261D01*
X119266498Y-146230264D01*
X119120827Y-146290602D01*
X119120814Y-146290609D01*
X118989711Y-146378210D01*
X118989707Y-146378213D01*
X118878213Y-146489707D01*
X118878210Y-146489711D01*
X118790609Y-146620814D01*
X118790602Y-146620827D01*
X118730264Y-146766498D01*
X118730261Y-146766510D01*
X118699500Y-146921153D01*
X74553232Y-146921153D01*
X74510292Y-146878213D01*
X74510288Y-146878210D01*
X74379185Y-146790609D01*
X74379172Y-146790602D01*
X74233501Y-146730264D01*
X74233489Y-146730261D01*
X74078845Y-146699500D01*
X74078842Y-146699500D01*
X73921158Y-146699500D01*
X73921155Y-146699500D01*
X73766510Y-146730261D01*
X73766498Y-146730264D01*
X73620827Y-146790602D01*
X73620814Y-146790609D01*
X73489711Y-146878210D01*
X73489707Y-146878213D01*
X73378213Y-146989707D01*
X73378210Y-146989711D01*
X73290609Y-147120814D01*
X73290602Y-147120827D01*
X73230264Y-147266498D01*
X73230261Y-147266510D01*
X73199500Y-147421153D01*
X71250000Y-147421153D01*
X71250000Y-145921153D01*
X122199500Y-145921153D01*
X122199500Y-146078846D01*
X122230261Y-146233489D01*
X122230264Y-146233501D01*
X122290602Y-146379172D01*
X122290609Y-146379185D01*
X122378210Y-146510288D01*
X122378213Y-146510292D01*
X122489707Y-146621786D01*
X122489711Y-146621789D01*
X122620814Y-146709390D01*
X122620827Y-146709397D01*
X122758683Y-146766498D01*
X122766503Y-146769737D01*
X122921153Y-146800499D01*
X122921156Y-146800500D01*
X122921158Y-146800500D01*
X123078844Y-146800500D01*
X123078845Y-146800499D01*
X123233497Y-146769737D01*
X123379179Y-146709394D01*
X123510289Y-146621789D01*
X123621789Y-146510289D01*
X123709394Y-146379179D01*
X123769737Y-146233497D01*
X123800500Y-146078842D01*
X123800500Y-145921158D01*
X123800500Y-145921155D01*
X123800499Y-145921153D01*
X123769738Y-145766510D01*
X123769737Y-145766503D01*
X123709794Y-145621786D01*
X123709397Y-145620827D01*
X123709390Y-145620814D01*
X123621790Y-145489712D01*
X123621784Y-145489705D01*
X123553232Y-145421153D01*
X139699500Y-145421153D01*
X139699500Y-145578846D01*
X139730261Y-145733489D01*
X139730264Y-145733501D01*
X139790602Y-145879172D01*
X139790609Y-145879185D01*
X139878210Y-146010288D01*
X139878213Y-146010292D01*
X139989707Y-146121786D01*
X139989711Y-146121789D01*
X140120814Y-146209390D01*
X140120827Y-146209397D01*
X140266498Y-146269735D01*
X140266503Y-146269737D01*
X140421153Y-146300499D01*
X140421156Y-146300500D01*
X140421158Y-146300500D01*
X140578844Y-146300500D01*
X140578845Y-146300499D01*
X140733497Y-146269737D01*
X140879179Y-146209394D01*
X141010289Y-146121789D01*
X141121789Y-146010289D01*
X141181348Y-145921153D01*
X148699500Y-145921153D01*
X148699500Y-146078846D01*
X148730261Y-146233489D01*
X148730264Y-146233501D01*
X148790602Y-146379172D01*
X148790609Y-146379185D01*
X148878210Y-146510288D01*
X148878213Y-146510292D01*
X148989707Y-146621786D01*
X148989711Y-146621789D01*
X149120814Y-146709390D01*
X149120827Y-146709397D01*
X149258683Y-146766498D01*
X149266503Y-146769737D01*
X149421153Y-146800499D01*
X149421156Y-146800500D01*
X149421158Y-146800500D01*
X149578844Y-146800500D01*
X149578845Y-146800499D01*
X149733497Y-146769737D01*
X149879179Y-146709394D01*
X150010289Y-146621789D01*
X150121789Y-146510289D01*
X150209394Y-146379179D01*
X150269737Y-146233497D01*
X150300500Y-146078842D01*
X150300500Y-145921158D01*
X150300500Y-145921155D01*
X150300499Y-145921153D01*
X150269738Y-145766510D01*
X150269737Y-145766503D01*
X150209794Y-145621786D01*
X150209397Y-145620827D01*
X150209390Y-145620814D01*
X150121789Y-145489711D01*
X150121786Y-145489707D01*
X150010292Y-145378213D01*
X150010288Y-145378210D01*
X149879185Y-145290609D01*
X149879172Y-145290602D01*
X149733501Y-145230264D01*
X149733489Y-145230261D01*
X149578845Y-145199500D01*
X149578842Y-145199500D01*
X149421158Y-145199500D01*
X149421155Y-145199500D01*
X149266510Y-145230261D01*
X149266498Y-145230264D01*
X149120827Y-145290602D01*
X149120814Y-145290609D01*
X148989711Y-145378210D01*
X148989707Y-145378213D01*
X148878213Y-145489707D01*
X148878210Y-145489711D01*
X148790609Y-145620814D01*
X148790602Y-145620827D01*
X148730264Y-145766498D01*
X148730261Y-145766510D01*
X148699500Y-145921153D01*
X141181348Y-145921153D01*
X141209394Y-145879179D01*
X141269737Y-145733497D01*
X141300500Y-145578842D01*
X141300500Y-145421158D01*
X141300500Y-145421155D01*
X141300499Y-145421153D01*
X141274531Y-145290606D01*
X141269737Y-145266503D01*
X141256062Y-145233489D01*
X141209397Y-145120827D01*
X141209390Y-145120814D01*
X141121789Y-144989711D01*
X141121786Y-144989707D01*
X141010292Y-144878213D01*
X141010288Y-144878210D01*
X140879185Y-144790609D01*
X140879173Y-144790602D01*
X140852674Y-144779627D01*
X140733501Y-144730264D01*
X140733489Y-144730261D01*
X140578845Y-144699500D01*
X140578842Y-144699500D01*
X140421158Y-144699500D01*
X140421155Y-144699500D01*
X140266510Y-144730261D01*
X140266498Y-144730264D01*
X140120827Y-144790602D01*
X140120814Y-144790609D01*
X139989711Y-144878210D01*
X139989707Y-144878213D01*
X139878213Y-144989707D01*
X139878210Y-144989711D01*
X139790609Y-145120814D01*
X139790602Y-145120827D01*
X139730264Y-145266498D01*
X139730261Y-145266510D01*
X139699500Y-145421153D01*
X123553232Y-145421153D01*
X123510292Y-145378213D01*
X123510288Y-145378210D01*
X123379185Y-145290609D01*
X123379172Y-145290602D01*
X123233501Y-145230264D01*
X123233489Y-145230261D01*
X123078845Y-145199500D01*
X123078842Y-145199500D01*
X122921158Y-145199500D01*
X122921155Y-145199500D01*
X122766510Y-145230261D01*
X122766498Y-145230264D01*
X122620827Y-145290602D01*
X122620814Y-145290609D01*
X122489711Y-145378210D01*
X122489707Y-145378213D01*
X122378213Y-145489707D01*
X122378210Y-145489711D01*
X122290609Y-145620814D01*
X122290602Y-145620827D01*
X122230264Y-145766498D01*
X122230261Y-145766510D01*
X122199500Y-145921153D01*
X71250000Y-145921153D01*
X71250000Y-144921153D01*
X113699500Y-144921153D01*
X113699500Y-145078846D01*
X113730261Y-145233489D01*
X113730264Y-145233501D01*
X113790602Y-145379172D01*
X113790609Y-145379185D01*
X113878210Y-145510288D01*
X113878213Y-145510292D01*
X113989707Y-145621786D01*
X113989711Y-145621789D01*
X114120814Y-145709390D01*
X114120827Y-145709397D01*
X114258683Y-145766498D01*
X114266503Y-145769737D01*
X114421153Y-145800499D01*
X114421156Y-145800500D01*
X114421158Y-145800500D01*
X114578844Y-145800500D01*
X114578845Y-145800499D01*
X114589179Y-145798443D01*
X114614287Y-145793450D01*
X114614292Y-145793449D01*
X114699800Y-145776439D01*
X114733497Y-145769737D01*
X114879179Y-145709394D01*
X115010289Y-145621789D01*
X115121789Y-145510289D01*
X115209394Y-145379179D01*
X115269737Y-145233497D01*
X115300500Y-145078842D01*
X115300500Y-144921158D01*
X115300500Y-144921155D01*
X115300499Y-144921153D01*
X115274531Y-144790606D01*
X115269737Y-144766503D01*
X115269735Y-144766498D01*
X115230242Y-144671153D01*
X159699500Y-144671153D01*
X159699500Y-144828846D01*
X159730261Y-144983489D01*
X159730264Y-144983501D01*
X159790602Y-145129172D01*
X159790609Y-145129185D01*
X159878210Y-145260288D01*
X159878213Y-145260292D01*
X159989707Y-145371786D01*
X159989711Y-145371789D01*
X160120814Y-145459390D01*
X160120827Y-145459397D01*
X160266498Y-145519735D01*
X160266503Y-145519737D01*
X160421153Y-145550499D01*
X160421156Y-145550500D01*
X160421158Y-145550500D01*
X160578844Y-145550500D01*
X160578845Y-145550499D01*
X160733497Y-145519737D01*
X160879179Y-145459394D01*
X161010289Y-145371789D01*
X161121789Y-145260289D01*
X161209394Y-145129179D01*
X161212854Y-145120827D01*
X161267163Y-144989711D01*
X161269737Y-144983497D01*
X161300500Y-144828842D01*
X161300500Y-144671158D01*
X161300500Y-144671155D01*
X161300499Y-144671153D01*
X161269738Y-144516510D01*
X161269737Y-144516503D01*
X161269735Y-144516498D01*
X161209397Y-144370827D01*
X161209390Y-144370814D01*
X161121789Y-144239711D01*
X161121786Y-144239707D01*
X161010292Y-144128213D01*
X161010288Y-144128210D01*
X160879185Y-144040609D01*
X160879172Y-144040602D01*
X160733501Y-143980264D01*
X160733489Y-143980261D01*
X160578845Y-143949500D01*
X160578842Y-143949500D01*
X160421158Y-143949500D01*
X160421155Y-143949500D01*
X160266510Y-143980261D01*
X160266498Y-143980264D01*
X160120827Y-144040602D01*
X160120814Y-144040609D01*
X159989711Y-144128210D01*
X159989707Y-144128213D01*
X159878213Y-144239707D01*
X159878210Y-144239711D01*
X159790609Y-144370814D01*
X159790602Y-144370827D01*
X159730264Y-144516498D01*
X159730261Y-144516510D01*
X159699500Y-144671153D01*
X115230242Y-144671153D01*
X115209397Y-144620827D01*
X115209390Y-144620814D01*
X115121789Y-144489711D01*
X115121786Y-144489707D01*
X115010292Y-144378213D01*
X115010288Y-144378210D01*
X114879185Y-144290609D01*
X114879172Y-144290602D01*
X114733501Y-144230264D01*
X114733489Y-144230261D01*
X114578845Y-144199500D01*
X114578842Y-144199500D01*
X114421158Y-144199500D01*
X114421155Y-144199500D01*
X114266510Y-144230261D01*
X114266498Y-144230264D01*
X114120827Y-144290602D01*
X114120814Y-144290609D01*
X113989711Y-144378210D01*
X113989707Y-144378213D01*
X113878213Y-144489707D01*
X113878210Y-144489711D01*
X113790609Y-144620814D01*
X113790602Y-144620827D01*
X113730264Y-144766498D01*
X113730261Y-144766510D01*
X113699500Y-144921153D01*
X71250000Y-144921153D01*
X71250000Y-143421153D01*
X120699500Y-143421153D01*
X120699500Y-143578846D01*
X120730261Y-143733489D01*
X120730264Y-143733501D01*
X120790602Y-143879172D01*
X120790609Y-143879185D01*
X120878210Y-144010288D01*
X120878213Y-144010292D01*
X120989707Y-144121786D01*
X120989711Y-144121789D01*
X121120814Y-144209390D01*
X121120827Y-144209397D01*
X121194013Y-144239711D01*
X121266503Y-144269737D01*
X121421153Y-144300499D01*
X121421156Y-144300500D01*
X121421158Y-144300500D01*
X121578844Y-144300500D01*
X121578845Y-144300499D01*
X121733497Y-144269737D01*
X121879179Y-144209394D01*
X122010289Y-144121789D01*
X122121789Y-144010289D01*
X122209394Y-143879179D01*
X122269737Y-143733497D01*
X122300500Y-143578842D01*
X122300500Y-143421158D01*
X122300500Y-143421155D01*
X122300499Y-143421153D01*
X123699500Y-143421153D01*
X123699500Y-143578846D01*
X123730261Y-143733489D01*
X123730264Y-143733501D01*
X123790602Y-143879172D01*
X123790609Y-143879185D01*
X123878210Y-144010288D01*
X123878213Y-144010292D01*
X123989707Y-144121786D01*
X123989711Y-144121789D01*
X124120814Y-144209390D01*
X124120827Y-144209397D01*
X124194013Y-144239711D01*
X124266503Y-144269737D01*
X124421153Y-144300499D01*
X124421156Y-144300500D01*
X124421158Y-144300500D01*
X124578844Y-144300500D01*
X124578845Y-144300499D01*
X124733497Y-144269737D01*
X124879179Y-144209394D01*
X125010289Y-144121789D01*
X125121789Y-144010289D01*
X125209394Y-143879179D01*
X125269737Y-143733497D01*
X125300500Y-143578842D01*
X125300500Y-143421158D01*
X125300500Y-143421155D01*
X125300499Y-143421153D01*
X137699500Y-143421153D01*
X137699500Y-143578846D01*
X137730261Y-143733489D01*
X137730264Y-143733501D01*
X137790602Y-143879172D01*
X137790609Y-143879185D01*
X137878210Y-144010288D01*
X137878213Y-144010292D01*
X137989707Y-144121786D01*
X137989711Y-144121789D01*
X138120814Y-144209390D01*
X138120827Y-144209397D01*
X138194013Y-144239711D01*
X138266503Y-144269737D01*
X138421153Y-144300499D01*
X138421156Y-144300500D01*
X138421158Y-144300500D01*
X138578844Y-144300500D01*
X138578845Y-144300499D01*
X138733497Y-144269737D01*
X138879179Y-144209394D01*
X139010289Y-144121789D01*
X139121789Y-144010289D01*
X139209394Y-143879179D01*
X139269737Y-143733497D01*
X139300500Y-143578842D01*
X139300500Y-143421158D01*
X139300500Y-143421155D01*
X139300499Y-143421153D01*
X139269738Y-143266510D01*
X139269737Y-143266503D01*
X139209794Y-143121786D01*
X139209397Y-143120827D01*
X139209390Y-143120814D01*
X139121789Y-142989711D01*
X139121786Y-142989707D01*
X139010292Y-142878213D01*
X139010288Y-142878210D01*
X138879185Y-142790609D01*
X138879172Y-142790602D01*
X138733501Y-142730264D01*
X138733489Y-142730261D01*
X138578845Y-142699500D01*
X138578842Y-142699500D01*
X138421158Y-142699500D01*
X138421155Y-142699500D01*
X138266510Y-142730261D01*
X138266498Y-142730264D01*
X138120827Y-142790602D01*
X138120814Y-142790609D01*
X137989711Y-142878210D01*
X137989707Y-142878213D01*
X137878213Y-142989707D01*
X137878210Y-142989711D01*
X137790609Y-143120814D01*
X137790602Y-143120827D01*
X137730264Y-143266498D01*
X137730261Y-143266510D01*
X137699500Y-143421153D01*
X125300499Y-143421153D01*
X125269738Y-143266510D01*
X125269737Y-143266503D01*
X125209794Y-143121786D01*
X125209397Y-143120827D01*
X125209390Y-143120814D01*
X125121789Y-142989711D01*
X125121786Y-142989707D01*
X125010292Y-142878213D01*
X125010288Y-142878210D01*
X124879185Y-142790609D01*
X124879172Y-142790602D01*
X124733501Y-142730264D01*
X124733489Y-142730261D01*
X124578845Y-142699500D01*
X124578842Y-142699500D01*
X124421158Y-142699500D01*
X124421155Y-142699500D01*
X124266510Y-142730261D01*
X124266498Y-142730264D01*
X124120827Y-142790602D01*
X124120814Y-142790609D01*
X123989711Y-142878210D01*
X123989707Y-142878213D01*
X123878213Y-142989707D01*
X123878210Y-142989711D01*
X123790609Y-143120814D01*
X123790602Y-143120827D01*
X123730264Y-143266498D01*
X123730261Y-143266510D01*
X123699500Y-143421153D01*
X122300499Y-143421153D01*
X122269738Y-143266510D01*
X122269737Y-143266503D01*
X122209794Y-143121786D01*
X122209397Y-143120827D01*
X122209390Y-143120814D01*
X122121789Y-142989711D01*
X122121786Y-142989707D01*
X122010292Y-142878213D01*
X122010288Y-142878210D01*
X121879185Y-142790609D01*
X121879172Y-142790602D01*
X121733501Y-142730264D01*
X121733489Y-142730261D01*
X121578845Y-142699500D01*
X121578842Y-142699500D01*
X121421158Y-142699500D01*
X121421155Y-142699500D01*
X121266510Y-142730261D01*
X121266498Y-142730264D01*
X121120827Y-142790602D01*
X121120814Y-142790609D01*
X120989711Y-142878210D01*
X120989707Y-142878213D01*
X120878213Y-142989707D01*
X120878210Y-142989711D01*
X120790609Y-143120814D01*
X120790602Y-143120827D01*
X120730264Y-143266498D01*
X120730261Y-143266510D01*
X120699500Y-143421153D01*
X71250000Y-143421153D01*
X71250000Y-142421153D01*
X73699500Y-142421153D01*
X73699500Y-142578846D01*
X73730261Y-142733489D01*
X73730264Y-142733501D01*
X73790602Y-142879172D01*
X73790609Y-142879185D01*
X73878210Y-143010288D01*
X73878213Y-143010292D01*
X73989707Y-143121786D01*
X73989711Y-143121789D01*
X74120814Y-143209390D01*
X74120827Y-143209397D01*
X74258683Y-143266498D01*
X74266503Y-143269737D01*
X74421153Y-143300499D01*
X74421156Y-143300500D01*
X74421158Y-143300500D01*
X74578844Y-143300500D01*
X74578845Y-143300499D01*
X74589179Y-143298443D01*
X74614287Y-143293450D01*
X74614292Y-143293449D01*
X74699800Y-143276439D01*
X74733497Y-143269737D01*
X74879179Y-143209394D01*
X75010289Y-143121789D01*
X75121789Y-143010289D01*
X75209394Y-142879179D01*
X75269737Y-142733497D01*
X75300500Y-142578842D01*
X75300500Y-142421158D01*
X75300500Y-142421155D01*
X75300499Y-142421153D01*
X75269738Y-142266510D01*
X75269737Y-142266503D01*
X75209794Y-142121786D01*
X75209397Y-142120827D01*
X75209390Y-142120814D01*
X75121789Y-141989711D01*
X75121786Y-141989707D01*
X75010292Y-141878213D01*
X75010288Y-141878210D01*
X74879185Y-141790609D01*
X74879172Y-141790602D01*
X74733501Y-141730264D01*
X74733489Y-141730261D01*
X74578845Y-141699500D01*
X74578842Y-141699500D01*
X74421158Y-141699500D01*
X74421155Y-141699500D01*
X74266510Y-141730261D01*
X74266498Y-141730264D01*
X74120827Y-141790602D01*
X74120814Y-141790609D01*
X73989711Y-141878210D01*
X73989707Y-141878213D01*
X73878213Y-141989707D01*
X73878210Y-141989711D01*
X73790609Y-142120814D01*
X73790602Y-142120827D01*
X73730264Y-142266498D01*
X73730261Y-142266510D01*
X73699500Y-142421153D01*
X71250000Y-142421153D01*
X71250000Y-141421153D01*
X102699500Y-141421153D01*
X102699500Y-141578846D01*
X102730261Y-141733489D01*
X102730264Y-141733501D01*
X102790602Y-141879172D01*
X102790609Y-141879185D01*
X102878210Y-142010288D01*
X102878213Y-142010292D01*
X102989707Y-142121786D01*
X102989711Y-142121789D01*
X103120814Y-142209390D01*
X103120827Y-142209397D01*
X103258683Y-142266498D01*
X103266503Y-142269737D01*
X103421153Y-142300499D01*
X103421156Y-142300500D01*
X103421158Y-142300500D01*
X103578844Y-142300500D01*
X103578845Y-142300499D01*
X103733497Y-142269737D01*
X103879179Y-142209394D01*
X104010289Y-142121789D01*
X104121789Y-142010289D01*
X104181348Y-141921153D01*
X114699500Y-141921153D01*
X114699500Y-142078846D01*
X114730261Y-142233489D01*
X114730264Y-142233501D01*
X114790602Y-142379172D01*
X114790609Y-142379185D01*
X114878210Y-142510288D01*
X114878213Y-142510292D01*
X114989707Y-142621786D01*
X114989711Y-142621789D01*
X115120814Y-142709390D01*
X115120827Y-142709397D01*
X115266498Y-142769735D01*
X115266503Y-142769737D01*
X115421153Y-142800499D01*
X115421156Y-142800500D01*
X115421158Y-142800500D01*
X115578844Y-142800500D01*
X115578845Y-142800499D01*
X115733497Y-142769737D01*
X115879179Y-142709394D01*
X116010289Y-142621789D01*
X116121789Y-142510289D01*
X116209394Y-142379179D01*
X116269737Y-142233497D01*
X116300500Y-142078842D01*
X116300500Y-141921158D01*
X116300500Y-141921155D01*
X116300499Y-141921153D01*
X116274531Y-141790606D01*
X116269737Y-141766503D01*
X116256062Y-141733489D01*
X116209397Y-141620827D01*
X116209390Y-141620814D01*
X116121789Y-141489711D01*
X116121786Y-141489707D01*
X116053232Y-141421153D01*
X143699500Y-141421153D01*
X143699500Y-141578846D01*
X143730261Y-141733489D01*
X143730264Y-141733501D01*
X143790602Y-141879172D01*
X143790609Y-141879185D01*
X143878210Y-142010288D01*
X143878213Y-142010292D01*
X143989707Y-142121786D01*
X143989711Y-142121789D01*
X144120814Y-142209390D01*
X144120827Y-142209397D01*
X144258683Y-142266498D01*
X144266503Y-142269737D01*
X144421153Y-142300499D01*
X144421156Y-142300500D01*
X144421158Y-142300500D01*
X144578844Y-142300500D01*
X144578845Y-142300499D01*
X144733497Y-142269737D01*
X144879179Y-142209394D01*
X145010289Y-142121789D01*
X145121789Y-142010289D01*
X145209394Y-141879179D01*
X145269737Y-141733497D01*
X145300500Y-141578842D01*
X145300500Y-141421158D01*
X145300500Y-141421155D01*
X145300499Y-141421153D01*
X145274531Y-141290606D01*
X145269737Y-141266503D01*
X145269735Y-141266498D01*
X145209397Y-141120827D01*
X145209390Y-141120814D01*
X145121789Y-140989711D01*
X145121786Y-140989707D01*
X145010292Y-140878213D01*
X145010288Y-140878210D01*
X144879185Y-140790609D01*
X144879172Y-140790602D01*
X144733501Y-140730264D01*
X144733489Y-140730261D01*
X144578845Y-140699500D01*
X144578842Y-140699500D01*
X144421158Y-140699500D01*
X144421155Y-140699500D01*
X144266510Y-140730261D01*
X144266498Y-140730264D01*
X144120827Y-140790602D01*
X144120814Y-140790609D01*
X143989711Y-140878210D01*
X143989707Y-140878213D01*
X143878213Y-140989707D01*
X143878210Y-140989711D01*
X143790609Y-141120814D01*
X143790602Y-141120827D01*
X143730264Y-141266498D01*
X143730261Y-141266510D01*
X143699500Y-141421153D01*
X116053232Y-141421153D01*
X116010292Y-141378213D01*
X116010288Y-141378210D01*
X115879185Y-141290609D01*
X115879172Y-141290602D01*
X115733501Y-141230264D01*
X115733489Y-141230261D01*
X115578845Y-141199500D01*
X115578842Y-141199500D01*
X115421158Y-141199500D01*
X115421155Y-141199500D01*
X115266510Y-141230261D01*
X115266498Y-141230264D01*
X115120827Y-141290602D01*
X115120814Y-141290609D01*
X114989711Y-141378210D01*
X114989707Y-141378213D01*
X114878213Y-141489707D01*
X114878210Y-141489711D01*
X114790609Y-141620814D01*
X114790602Y-141620827D01*
X114730264Y-141766498D01*
X114730261Y-141766510D01*
X114699500Y-141921153D01*
X104181348Y-141921153D01*
X104209394Y-141879179D01*
X104269737Y-141733497D01*
X104300500Y-141578842D01*
X104300500Y-141421158D01*
X104300500Y-141421155D01*
X104300499Y-141421153D01*
X104274531Y-141290606D01*
X104269737Y-141266503D01*
X104269735Y-141266498D01*
X104209397Y-141120827D01*
X104209390Y-141120814D01*
X104121789Y-140989711D01*
X104121786Y-140989707D01*
X104010292Y-140878213D01*
X104010288Y-140878210D01*
X103879185Y-140790609D01*
X103879172Y-140790602D01*
X103733501Y-140730264D01*
X103733489Y-140730261D01*
X103578845Y-140699500D01*
X103578842Y-140699500D01*
X103421158Y-140699500D01*
X103421155Y-140699500D01*
X103266510Y-140730261D01*
X103266498Y-140730264D01*
X103120827Y-140790602D01*
X103120814Y-140790609D01*
X102989711Y-140878210D01*
X102989707Y-140878213D01*
X102878213Y-140989707D01*
X102878210Y-140989711D01*
X102790609Y-141120814D01*
X102790602Y-141120827D01*
X102730264Y-141266498D01*
X102730261Y-141266510D01*
X102699500Y-141421153D01*
X71250000Y-141421153D01*
X71250000Y-140421153D01*
X95199500Y-140421153D01*
X95199500Y-140578846D01*
X95230261Y-140733489D01*
X95230264Y-140733501D01*
X95290602Y-140879172D01*
X95290609Y-140879185D01*
X95378210Y-141010288D01*
X95378213Y-141010292D01*
X95489707Y-141121786D01*
X95489711Y-141121789D01*
X95620814Y-141209390D01*
X95620827Y-141209397D01*
X95758683Y-141266498D01*
X95766503Y-141269737D01*
X95921153Y-141300499D01*
X95921156Y-141300500D01*
X95921158Y-141300500D01*
X96078844Y-141300500D01*
X96078845Y-141300499D01*
X96089179Y-141298443D01*
X96114287Y-141293450D01*
X96114292Y-141293449D01*
X96199800Y-141276439D01*
X96233497Y-141269737D01*
X96379179Y-141209394D01*
X96510289Y-141121789D01*
X96621789Y-141010289D01*
X96709394Y-140879179D01*
X96769737Y-140733497D01*
X96800500Y-140578842D01*
X96800500Y-140421158D01*
X96800500Y-140421155D01*
X96800499Y-140421153D01*
X120199500Y-140421153D01*
X120199500Y-140578846D01*
X120230261Y-140733489D01*
X120230264Y-140733501D01*
X120290602Y-140879172D01*
X120290609Y-140879185D01*
X120378210Y-141010288D01*
X120378213Y-141010292D01*
X120489707Y-141121786D01*
X120489711Y-141121789D01*
X120620814Y-141209390D01*
X120620827Y-141209397D01*
X120758683Y-141266498D01*
X120766503Y-141269737D01*
X120921153Y-141300499D01*
X120921156Y-141300500D01*
X120921158Y-141300500D01*
X121078844Y-141300500D01*
X121078845Y-141300499D01*
X121233497Y-141269737D01*
X121379179Y-141209394D01*
X121510289Y-141121789D01*
X121621789Y-141010289D01*
X121709394Y-140879179D01*
X121769737Y-140733497D01*
X121800500Y-140578842D01*
X121800500Y-140421158D01*
X121800500Y-140421155D01*
X121800499Y-140421153D01*
X138199500Y-140421153D01*
X138199500Y-140578846D01*
X138230261Y-140733489D01*
X138230264Y-140733501D01*
X138290602Y-140879172D01*
X138290609Y-140879185D01*
X138378210Y-141010288D01*
X138378213Y-141010292D01*
X138489707Y-141121786D01*
X138489711Y-141121789D01*
X138620814Y-141209390D01*
X138620827Y-141209397D01*
X138758683Y-141266498D01*
X138766503Y-141269737D01*
X138921153Y-141300499D01*
X138921156Y-141300500D01*
X138921158Y-141300500D01*
X139078844Y-141300500D01*
X139078845Y-141300499D01*
X139089179Y-141298443D01*
X139114287Y-141293450D01*
X139114292Y-141293449D01*
X139199800Y-141276439D01*
X139233497Y-141269737D01*
X139379179Y-141209394D01*
X139510289Y-141121789D01*
X139621789Y-141010289D01*
X139709394Y-140879179D01*
X139769737Y-140733497D01*
X139800500Y-140578842D01*
X139800500Y-140421158D01*
X139800500Y-140421155D01*
X139800499Y-140421153D01*
X139769738Y-140266510D01*
X139769737Y-140266503D01*
X139709794Y-140121786D01*
X139709397Y-140120827D01*
X139709390Y-140120814D01*
X139621789Y-139989711D01*
X139621786Y-139989707D01*
X139510292Y-139878213D01*
X139510288Y-139878210D01*
X139379185Y-139790609D01*
X139379172Y-139790602D01*
X139233501Y-139730264D01*
X139233489Y-139730261D01*
X139078845Y-139699500D01*
X139078842Y-139699500D01*
X138921158Y-139699500D01*
X138921155Y-139699500D01*
X138766510Y-139730261D01*
X138766498Y-139730264D01*
X138620827Y-139790602D01*
X138620814Y-139790609D01*
X138489711Y-139878210D01*
X138489707Y-139878213D01*
X138378213Y-139989707D01*
X138378210Y-139989711D01*
X138290609Y-140120814D01*
X138290602Y-140120827D01*
X138230264Y-140266498D01*
X138230261Y-140266510D01*
X138199500Y-140421153D01*
X121800499Y-140421153D01*
X121769738Y-140266510D01*
X121769737Y-140266503D01*
X121709794Y-140121786D01*
X121709397Y-140120827D01*
X121709390Y-140120814D01*
X121621789Y-139989711D01*
X121621786Y-139989707D01*
X121510292Y-139878213D01*
X121510288Y-139878210D01*
X121379185Y-139790609D01*
X121379172Y-139790602D01*
X121233501Y-139730264D01*
X121233489Y-139730261D01*
X121078845Y-139699500D01*
X121078842Y-139699500D01*
X120921158Y-139699500D01*
X120921155Y-139699500D01*
X120766510Y-139730261D01*
X120766498Y-139730264D01*
X120620827Y-139790602D01*
X120620814Y-139790609D01*
X120489711Y-139878210D01*
X120489707Y-139878213D01*
X120378213Y-139989707D01*
X120378210Y-139989711D01*
X120290609Y-140120814D01*
X120290602Y-140120827D01*
X120230264Y-140266498D01*
X120230261Y-140266510D01*
X120199500Y-140421153D01*
X96800499Y-140421153D01*
X96769738Y-140266510D01*
X96769737Y-140266503D01*
X96709794Y-140121786D01*
X96709397Y-140120827D01*
X96709390Y-140120814D01*
X96621789Y-139989711D01*
X96621786Y-139989707D01*
X96510292Y-139878213D01*
X96510288Y-139878210D01*
X96379185Y-139790609D01*
X96379172Y-139790602D01*
X96233501Y-139730264D01*
X96233489Y-139730261D01*
X96078845Y-139699500D01*
X96078842Y-139699500D01*
X95921158Y-139699500D01*
X95921155Y-139699500D01*
X95766510Y-139730261D01*
X95766498Y-139730264D01*
X95620827Y-139790602D01*
X95620814Y-139790609D01*
X95489711Y-139878210D01*
X95489707Y-139878213D01*
X95378213Y-139989707D01*
X95378210Y-139989711D01*
X95290609Y-140120814D01*
X95290602Y-140120827D01*
X95230264Y-140266498D01*
X95230261Y-140266510D01*
X95199500Y-140421153D01*
X71250000Y-140421153D01*
X71250000Y-139421153D01*
X102699500Y-139421153D01*
X102699500Y-139578846D01*
X102730261Y-139733489D01*
X102730264Y-139733501D01*
X102790602Y-139879172D01*
X102790609Y-139879185D01*
X102878210Y-140010288D01*
X102878213Y-140010292D01*
X102989707Y-140121786D01*
X102989711Y-140121789D01*
X103120814Y-140209390D01*
X103120827Y-140209397D01*
X103258683Y-140266498D01*
X103266503Y-140269737D01*
X103421153Y-140300499D01*
X103421156Y-140300500D01*
X103421158Y-140300500D01*
X103578844Y-140300500D01*
X103578845Y-140300499D01*
X103589179Y-140298443D01*
X103614287Y-140293450D01*
X103614292Y-140293449D01*
X103699800Y-140276439D01*
X103733497Y-140269737D01*
X103879179Y-140209394D01*
X104010289Y-140121789D01*
X104121789Y-140010289D01*
X104209394Y-139879179D01*
X104269737Y-139733497D01*
X104300500Y-139578842D01*
X104300500Y-139421158D01*
X104300500Y-139421155D01*
X104300499Y-139421153D01*
X104269738Y-139266510D01*
X104269737Y-139266503D01*
X104209794Y-139121786D01*
X104209397Y-139120827D01*
X104209390Y-139120814D01*
X104121789Y-138989711D01*
X104121786Y-138989707D01*
X104010292Y-138878213D01*
X104010288Y-138878210D01*
X103879185Y-138790609D01*
X103879172Y-138790602D01*
X103733501Y-138730264D01*
X103733489Y-138730261D01*
X103578845Y-138699500D01*
X103578842Y-138699500D01*
X103421158Y-138699500D01*
X103421155Y-138699500D01*
X103266510Y-138730261D01*
X103266498Y-138730264D01*
X103120827Y-138790602D01*
X103120814Y-138790609D01*
X102989711Y-138878210D01*
X102989707Y-138878213D01*
X102878213Y-138989707D01*
X102878210Y-138989711D01*
X102790609Y-139120814D01*
X102790602Y-139120827D01*
X102730264Y-139266498D01*
X102730261Y-139266510D01*
X102699500Y-139421153D01*
X71250000Y-139421153D01*
X71250000Y-137921153D01*
X110199500Y-137921153D01*
X110199500Y-138078846D01*
X110230261Y-138233489D01*
X110230264Y-138233501D01*
X110290602Y-138379172D01*
X110290609Y-138379185D01*
X110378210Y-138510288D01*
X110378213Y-138510292D01*
X110489707Y-138621786D01*
X110489711Y-138621789D01*
X110620814Y-138709390D01*
X110620827Y-138709397D01*
X110766498Y-138769735D01*
X110766503Y-138769737D01*
X110921153Y-138800499D01*
X110921156Y-138800500D01*
X110921158Y-138800500D01*
X111078844Y-138800500D01*
X111078845Y-138800499D01*
X111233497Y-138769737D01*
X111379179Y-138709394D01*
X111510289Y-138621789D01*
X111621789Y-138510289D01*
X111681348Y-138421153D01*
X127699500Y-138421153D01*
X127699500Y-138578846D01*
X127730261Y-138733489D01*
X127730264Y-138733501D01*
X127790602Y-138879172D01*
X127790609Y-138879185D01*
X127878210Y-139010288D01*
X127878213Y-139010292D01*
X127989707Y-139121786D01*
X127989711Y-139121789D01*
X128120814Y-139209390D01*
X128120827Y-139209397D01*
X128258683Y-139266498D01*
X128266503Y-139269737D01*
X128421153Y-139300499D01*
X128421156Y-139300500D01*
X128421158Y-139300500D01*
X128578844Y-139300500D01*
X128578845Y-139300499D01*
X128733497Y-139269737D01*
X128879179Y-139209394D01*
X129010289Y-139121789D01*
X129121789Y-139010289D01*
X129209394Y-138879179D01*
X129269737Y-138733497D01*
X129300500Y-138578842D01*
X129300500Y-138421158D01*
X129300500Y-138421155D01*
X129300499Y-138421153D01*
X129269738Y-138266510D01*
X129269737Y-138266503D01*
X129256062Y-138233489D01*
X129209397Y-138120827D01*
X129209390Y-138120814D01*
X129121789Y-137989711D01*
X129121786Y-137989707D01*
X129010292Y-137878213D01*
X129010288Y-137878210D01*
X128879185Y-137790609D01*
X128879172Y-137790602D01*
X128733501Y-137730264D01*
X128733489Y-137730261D01*
X128578845Y-137699500D01*
X128578842Y-137699500D01*
X128421158Y-137699500D01*
X128421155Y-137699500D01*
X128266510Y-137730261D01*
X128266498Y-137730264D01*
X128120827Y-137790602D01*
X128120814Y-137790609D01*
X127989711Y-137878210D01*
X127989707Y-137878213D01*
X127878213Y-137989707D01*
X127878210Y-137989711D01*
X127790609Y-138120814D01*
X127790602Y-138120827D01*
X127730264Y-138266498D01*
X127730261Y-138266510D01*
X127699500Y-138421153D01*
X111681348Y-138421153D01*
X111709394Y-138379179D01*
X111769737Y-138233497D01*
X111800500Y-138078842D01*
X111800500Y-137921158D01*
X111800500Y-137921155D01*
X111800499Y-137921153D01*
X111774531Y-137790606D01*
X111769737Y-137766503D01*
X111769735Y-137766498D01*
X111709397Y-137620827D01*
X111709390Y-137620814D01*
X111621789Y-137489711D01*
X111621786Y-137489707D01*
X111510292Y-137378213D01*
X111510288Y-137378210D01*
X111379185Y-137290609D01*
X111379172Y-137290602D01*
X111233501Y-137230264D01*
X111233489Y-137230261D01*
X111078845Y-137199500D01*
X111078842Y-137199500D01*
X110921158Y-137199500D01*
X110921155Y-137199500D01*
X110766510Y-137230261D01*
X110766498Y-137230264D01*
X110620827Y-137290602D01*
X110620814Y-137290609D01*
X110489711Y-137378210D01*
X110489707Y-137378213D01*
X110378213Y-137489707D01*
X110378210Y-137489711D01*
X110290609Y-137620814D01*
X110290602Y-137620827D01*
X110230264Y-137766498D01*
X110230261Y-137766510D01*
X110199500Y-137921153D01*
X71250000Y-137921153D01*
X71250000Y-136921153D01*
X122199500Y-136921153D01*
X122199500Y-137078846D01*
X122230261Y-137233489D01*
X122230264Y-137233501D01*
X122290602Y-137379172D01*
X122290609Y-137379185D01*
X122378210Y-137510288D01*
X122378213Y-137510292D01*
X122489707Y-137621786D01*
X122489711Y-137621789D01*
X122620814Y-137709390D01*
X122620827Y-137709397D01*
X122758683Y-137766498D01*
X122766503Y-137769737D01*
X122921153Y-137800499D01*
X122921156Y-137800500D01*
X122921158Y-137800500D01*
X123078844Y-137800500D01*
X123078845Y-137800499D01*
X123233497Y-137769737D01*
X123379179Y-137709394D01*
X123510289Y-137621789D01*
X123621789Y-137510289D01*
X123709394Y-137379179D01*
X123769737Y-137233497D01*
X123800500Y-137078842D01*
X123800500Y-136921158D01*
X123800500Y-136921155D01*
X123800499Y-136921153D01*
X123769738Y-136766510D01*
X123769737Y-136766503D01*
X123756062Y-136733489D01*
X123709397Y-136620827D01*
X123709390Y-136620814D01*
X123621789Y-136489711D01*
X123621786Y-136489707D01*
X123510292Y-136378213D01*
X123510288Y-136378210D01*
X123379185Y-136290609D01*
X123379172Y-136290602D01*
X123233501Y-136230264D01*
X123233489Y-136230261D01*
X123078845Y-136199500D01*
X123078842Y-136199500D01*
X122921158Y-136199500D01*
X122921155Y-136199500D01*
X122766510Y-136230261D01*
X122766498Y-136230264D01*
X122620827Y-136290602D01*
X122620814Y-136290609D01*
X122489711Y-136378210D01*
X122489707Y-136378213D01*
X122378213Y-136489707D01*
X122378210Y-136489711D01*
X122290609Y-136620814D01*
X122290602Y-136620827D01*
X122230264Y-136766498D01*
X122230261Y-136766510D01*
X122199500Y-136921153D01*
X71250000Y-136921153D01*
X71250000Y-135421153D01*
X75699500Y-135421153D01*
X75699500Y-135578846D01*
X75730261Y-135733489D01*
X75730264Y-135733501D01*
X75790602Y-135879172D01*
X75790609Y-135879185D01*
X75878210Y-136010288D01*
X75878213Y-136010292D01*
X75989707Y-136121786D01*
X75989711Y-136121789D01*
X76120814Y-136209390D01*
X76120827Y-136209397D01*
X76258683Y-136266498D01*
X76266503Y-136269737D01*
X76421153Y-136300499D01*
X76421156Y-136300500D01*
X76421158Y-136300500D01*
X76578844Y-136300500D01*
X76578845Y-136300499D01*
X76733497Y-136269737D01*
X76879179Y-136209394D01*
X76931110Y-136174694D01*
X76997785Y-136153816D01*
X77065165Y-136172300D01*
X77068863Y-136174676D01*
X77120821Y-136209394D01*
X77120823Y-136209395D01*
X77120825Y-136209396D01*
X77258683Y-136266498D01*
X77266503Y-136269737D01*
X77421153Y-136300499D01*
X77421156Y-136300500D01*
X77421158Y-136300500D01*
X77578844Y-136300500D01*
X77578845Y-136300499D01*
X77733497Y-136269737D01*
X77879179Y-136209394D01*
X78010289Y-136121789D01*
X78121789Y-136010289D01*
X78135539Y-135989711D01*
X78146898Y-135972712D01*
X78200510Y-135927906D01*
X78269835Y-135919199D01*
X78332862Y-135949353D01*
X78353102Y-135972712D01*
X78378207Y-136010284D01*
X78378213Y-136010292D01*
X78489707Y-136121786D01*
X78489711Y-136121789D01*
X78620814Y-136209390D01*
X78620827Y-136209397D01*
X78758683Y-136266498D01*
X78766503Y-136269737D01*
X78921153Y-136300499D01*
X78921156Y-136300500D01*
X78921158Y-136300500D01*
X79078844Y-136300500D01*
X79078845Y-136300499D01*
X79233497Y-136269737D01*
X79379179Y-136209394D01*
X79510289Y-136121789D01*
X79621789Y-136010289D01*
X79635539Y-135989711D01*
X79646898Y-135972712D01*
X79700510Y-135927906D01*
X79769835Y-135919199D01*
X79832862Y-135949353D01*
X79853102Y-135972712D01*
X79878207Y-136010284D01*
X79878213Y-136010292D01*
X79989707Y-136121786D01*
X79989711Y-136121789D01*
X80120814Y-136209390D01*
X80120827Y-136209397D01*
X80258683Y-136266498D01*
X80266503Y-136269737D01*
X80421153Y-136300499D01*
X80421156Y-136300500D01*
X80421158Y-136300500D01*
X80578844Y-136300500D01*
X80578845Y-136300499D01*
X80733497Y-136269737D01*
X80879179Y-136209394D01*
X81010289Y-136121789D01*
X81121789Y-136010289D01*
X81209394Y-135879179D01*
X81269737Y-135733497D01*
X81300500Y-135578842D01*
X81300500Y-135421158D01*
X81300500Y-135421155D01*
X81300499Y-135421153D01*
X104199500Y-135421153D01*
X104199500Y-135578846D01*
X104230261Y-135733489D01*
X104230264Y-135733501D01*
X104290602Y-135879172D01*
X104290609Y-135879185D01*
X104378210Y-136010288D01*
X104378213Y-136010292D01*
X104489707Y-136121786D01*
X104489711Y-136121789D01*
X104620814Y-136209390D01*
X104620827Y-136209397D01*
X104758683Y-136266498D01*
X104766503Y-136269737D01*
X104921153Y-136300499D01*
X104921156Y-136300500D01*
X104921158Y-136300500D01*
X105078844Y-136300500D01*
X105078845Y-136300499D01*
X105233497Y-136269737D01*
X105379179Y-136209394D01*
X105510289Y-136121789D01*
X105621789Y-136010289D01*
X105709394Y-135879179D01*
X105769737Y-135733497D01*
X105800500Y-135578842D01*
X105800500Y-135421158D01*
X105800500Y-135421155D01*
X105800499Y-135421153D01*
X105769738Y-135266510D01*
X105769737Y-135266503D01*
X105750000Y-135218853D01*
X105709397Y-135120827D01*
X105709390Y-135120814D01*
X105621790Y-134989712D01*
X105621784Y-134989705D01*
X105553232Y-134921153D01*
X111699500Y-134921153D01*
X111699500Y-135078846D01*
X111730261Y-135233489D01*
X111730264Y-135233501D01*
X111790602Y-135379172D01*
X111790609Y-135379185D01*
X111878210Y-135510288D01*
X111878213Y-135510292D01*
X111989707Y-135621786D01*
X111989711Y-135621789D01*
X112120814Y-135709390D01*
X112120827Y-135709397D01*
X112218853Y-135750000D01*
X112266503Y-135769737D01*
X112421153Y-135800499D01*
X112421156Y-135800500D01*
X112421158Y-135800500D01*
X112578844Y-135800500D01*
X112578845Y-135800499D01*
X112733497Y-135769737D01*
X112879179Y-135709394D01*
X113010289Y-135621789D01*
X113121789Y-135510289D01*
X113181348Y-135421153D01*
X114699500Y-135421153D01*
X114699500Y-135578846D01*
X114730261Y-135733489D01*
X114730264Y-135733501D01*
X114790602Y-135879172D01*
X114790609Y-135879185D01*
X114878210Y-136010288D01*
X114878213Y-136010292D01*
X114989707Y-136121786D01*
X114989711Y-136121789D01*
X115120814Y-136209390D01*
X115120827Y-136209397D01*
X115258683Y-136266498D01*
X115266503Y-136269737D01*
X115421153Y-136300499D01*
X115421156Y-136300500D01*
X115421158Y-136300500D01*
X115578844Y-136300500D01*
X115578845Y-136300499D01*
X115733497Y-136269737D01*
X115879179Y-136209394D01*
X116010289Y-136121789D01*
X116121789Y-136010289D01*
X116209394Y-135879179D01*
X116269737Y-135733497D01*
X116300500Y-135578842D01*
X116300500Y-135421158D01*
X116300500Y-135421155D01*
X116300499Y-135421153D01*
X116269738Y-135266510D01*
X116269737Y-135266503D01*
X116250000Y-135218853D01*
X116209397Y-135120827D01*
X116209390Y-135120814D01*
X116121790Y-134989712D01*
X116121784Y-134989705D01*
X116053232Y-134921153D01*
X131699500Y-134921153D01*
X131699500Y-135078846D01*
X131730261Y-135233489D01*
X131730264Y-135233501D01*
X131790602Y-135379172D01*
X131790609Y-135379185D01*
X131878210Y-135510288D01*
X131878213Y-135510292D01*
X131989707Y-135621786D01*
X131989710Y-135621788D01*
X131989711Y-135621789D01*
X132015219Y-135638833D01*
X132027289Y-135646898D01*
X132072093Y-135700511D01*
X132080800Y-135769836D01*
X132050645Y-135832863D01*
X132027289Y-135853102D01*
X131989707Y-135878213D01*
X131878213Y-135989707D01*
X131878210Y-135989711D01*
X131790609Y-136120814D01*
X131790602Y-136120827D01*
X131730264Y-136266498D01*
X131730261Y-136266510D01*
X131699500Y-136421153D01*
X131699500Y-136578846D01*
X131730261Y-136733489D01*
X131730264Y-136733501D01*
X131790602Y-136879172D01*
X131790609Y-136879185D01*
X131878210Y-137010288D01*
X131878213Y-137010292D01*
X131989707Y-137121786D01*
X131989711Y-137121789D01*
X132120814Y-137209390D01*
X132120827Y-137209397D01*
X132266498Y-137269735D01*
X132266503Y-137269737D01*
X132421153Y-137300499D01*
X132421156Y-137300500D01*
X132421158Y-137300500D01*
X132578844Y-137300500D01*
X132578845Y-137300499D01*
X132733497Y-137269737D01*
X132879179Y-137209394D01*
X133010289Y-137121789D01*
X133121789Y-137010289D01*
X133209394Y-136879179D01*
X133269737Y-136733497D01*
X133300500Y-136578842D01*
X133300500Y-136421158D01*
X133300500Y-136421155D01*
X133300499Y-136421153D01*
X133274531Y-136290606D01*
X133269737Y-136266503D01*
X133269735Y-136266498D01*
X133209397Y-136120827D01*
X133209390Y-136120814D01*
X133121789Y-135989711D01*
X133121786Y-135989707D01*
X133010292Y-135878213D01*
X133010284Y-135878207D01*
X132972712Y-135853102D01*
X132927906Y-135799490D01*
X132919199Y-135730165D01*
X132949353Y-135667138D01*
X132972712Y-135646898D01*
X132999279Y-135629145D01*
X133010289Y-135621789D01*
X133121789Y-135510289D01*
X133209394Y-135379179D01*
X133269737Y-135233497D01*
X133300500Y-135078842D01*
X133300500Y-134921158D01*
X133300500Y-134921155D01*
X133300499Y-134921153D01*
X133285586Y-134846182D01*
X133269737Y-134766503D01*
X133269735Y-134766498D01*
X133209397Y-134620827D01*
X133209390Y-134620814D01*
X133121789Y-134489711D01*
X133121786Y-134489707D01*
X133010292Y-134378213D01*
X133010288Y-134378210D01*
X132879185Y-134290609D01*
X132879172Y-134290602D01*
X132733501Y-134230264D01*
X132733489Y-134230261D01*
X132578845Y-134199500D01*
X132578842Y-134199500D01*
X132421158Y-134199500D01*
X132421155Y-134199500D01*
X132266510Y-134230261D01*
X132266498Y-134230264D01*
X132120827Y-134290602D01*
X132120814Y-134290609D01*
X131989711Y-134378210D01*
X131989707Y-134378213D01*
X131878213Y-134489707D01*
X131878210Y-134489711D01*
X131790609Y-134620814D01*
X131790602Y-134620827D01*
X131730264Y-134766498D01*
X131730261Y-134766510D01*
X131699500Y-134921153D01*
X116053232Y-134921153D01*
X116010292Y-134878213D01*
X116010288Y-134878210D01*
X115879185Y-134790609D01*
X115879172Y-134790602D01*
X115733501Y-134730264D01*
X115733489Y-134730261D01*
X115578845Y-134699500D01*
X115578842Y-134699500D01*
X115421158Y-134699500D01*
X115421155Y-134699500D01*
X115266510Y-134730261D01*
X115266498Y-134730264D01*
X115120827Y-134790602D01*
X115120814Y-134790609D01*
X114989711Y-134878210D01*
X114989707Y-134878213D01*
X114878213Y-134989707D01*
X114878210Y-134989711D01*
X114790609Y-135120814D01*
X114790602Y-135120827D01*
X114730264Y-135266498D01*
X114730261Y-135266510D01*
X114699500Y-135421153D01*
X113181348Y-135421153D01*
X113209394Y-135379179D01*
X113269737Y-135233497D01*
X113300500Y-135078842D01*
X113300500Y-134921158D01*
X113300500Y-134921155D01*
X113300499Y-134921153D01*
X113285586Y-134846182D01*
X113269737Y-134766503D01*
X113269735Y-134766498D01*
X113209397Y-134620827D01*
X113209390Y-134620814D01*
X113121789Y-134489711D01*
X113121786Y-134489707D01*
X113010292Y-134378213D01*
X113010288Y-134378210D01*
X112879185Y-134290609D01*
X112879172Y-134290602D01*
X112733501Y-134230264D01*
X112733489Y-134230261D01*
X112578845Y-134199500D01*
X112578842Y-134199500D01*
X112421158Y-134199500D01*
X112421155Y-134199500D01*
X112266510Y-134230261D01*
X112266498Y-134230264D01*
X112120827Y-134290602D01*
X112120814Y-134290609D01*
X111989711Y-134378210D01*
X111989707Y-134378213D01*
X111878213Y-134489707D01*
X111878210Y-134489711D01*
X111790609Y-134620814D01*
X111790602Y-134620827D01*
X111730264Y-134766498D01*
X111730261Y-134766510D01*
X111699500Y-134921153D01*
X105553232Y-134921153D01*
X105510292Y-134878213D01*
X105510288Y-134878210D01*
X105379185Y-134790609D01*
X105379172Y-134790602D01*
X105233501Y-134730264D01*
X105233489Y-134730261D01*
X105078845Y-134699500D01*
X105078842Y-134699500D01*
X104921158Y-134699500D01*
X104921155Y-134699500D01*
X104766510Y-134730261D01*
X104766498Y-134730264D01*
X104620827Y-134790602D01*
X104620814Y-134790609D01*
X104489711Y-134878210D01*
X104489707Y-134878213D01*
X104378213Y-134989707D01*
X104378210Y-134989711D01*
X104290609Y-135120814D01*
X104290602Y-135120827D01*
X104230264Y-135266498D01*
X104230261Y-135266510D01*
X104199500Y-135421153D01*
X81300499Y-135421153D01*
X81269738Y-135266510D01*
X81269737Y-135266503D01*
X81250000Y-135218853D01*
X81209397Y-135120827D01*
X81209390Y-135120814D01*
X81121789Y-134989711D01*
X81121786Y-134989707D01*
X81010292Y-134878213D01*
X81010288Y-134878210D01*
X80879185Y-134790609D01*
X80879172Y-134790602D01*
X80733501Y-134730264D01*
X80733489Y-134730261D01*
X80578845Y-134699500D01*
X80578842Y-134699500D01*
X80421158Y-134699500D01*
X80421155Y-134699500D01*
X80266510Y-134730261D01*
X80266498Y-134730264D01*
X80120827Y-134790602D01*
X80120814Y-134790609D01*
X79989711Y-134878210D01*
X79989707Y-134878213D01*
X79878213Y-134989707D01*
X79853102Y-135027289D01*
X79799489Y-135072093D01*
X79730164Y-135080800D01*
X79667137Y-135050645D01*
X79646898Y-135027289D01*
X79638833Y-135015219D01*
X79621789Y-134989711D01*
X79621788Y-134989710D01*
X79621786Y-134989707D01*
X79510292Y-134878213D01*
X79510288Y-134878210D01*
X79379185Y-134790609D01*
X79379172Y-134790602D01*
X79233501Y-134730264D01*
X79233489Y-134730261D01*
X79078845Y-134699500D01*
X79078842Y-134699500D01*
X78921158Y-134699500D01*
X78921155Y-134699500D01*
X78766510Y-134730261D01*
X78766498Y-134730264D01*
X78620827Y-134790602D01*
X78620814Y-134790609D01*
X78489711Y-134878210D01*
X78489707Y-134878213D01*
X78378213Y-134989707D01*
X78353102Y-135027289D01*
X78299489Y-135072093D01*
X78230164Y-135080800D01*
X78167137Y-135050645D01*
X78146898Y-135027289D01*
X78138833Y-135015219D01*
X78121789Y-134989711D01*
X78121788Y-134989710D01*
X78121786Y-134989707D01*
X78010292Y-134878213D01*
X78010288Y-134878210D01*
X77879185Y-134790609D01*
X77879172Y-134790602D01*
X77733501Y-134730264D01*
X77733489Y-134730261D01*
X77578845Y-134699500D01*
X77578842Y-134699500D01*
X77421158Y-134699500D01*
X77421155Y-134699500D01*
X77266510Y-134730261D01*
X77266498Y-134730264D01*
X77120827Y-134790602D01*
X77120814Y-134790609D01*
X77068891Y-134825304D01*
X77002214Y-134846182D01*
X76934833Y-134827698D01*
X76931109Y-134825304D01*
X76879185Y-134790609D01*
X76879172Y-134790602D01*
X76733501Y-134730264D01*
X76733489Y-134730261D01*
X76578845Y-134699500D01*
X76578842Y-134699500D01*
X76421158Y-134699500D01*
X76421155Y-134699500D01*
X76266510Y-134730261D01*
X76266498Y-134730264D01*
X76120827Y-134790602D01*
X76120814Y-134790609D01*
X75989711Y-134878210D01*
X75989707Y-134878213D01*
X75878213Y-134989707D01*
X75878210Y-134989711D01*
X75790609Y-135120814D01*
X75790602Y-135120827D01*
X75730264Y-135266498D01*
X75730261Y-135266510D01*
X75699500Y-135421153D01*
X71250000Y-135421153D01*
X71250000Y-132421153D01*
X91199500Y-132421153D01*
X91199500Y-132578846D01*
X91230261Y-132733489D01*
X91230264Y-132733501D01*
X91290602Y-132879172D01*
X91290609Y-132879185D01*
X91378210Y-133010288D01*
X91378213Y-133010292D01*
X91489707Y-133121786D01*
X91489711Y-133121789D01*
X91620814Y-133209390D01*
X91620827Y-133209397D01*
X91766498Y-133269735D01*
X91766503Y-133269737D01*
X91921153Y-133300499D01*
X91921156Y-133300500D01*
X91921158Y-133300500D01*
X92078844Y-133300500D01*
X92078845Y-133300499D01*
X92233497Y-133269737D01*
X92379179Y-133209394D01*
X92510289Y-133121789D01*
X92621789Y-133010289D01*
X92681348Y-132921153D01*
X96699500Y-132921153D01*
X96699500Y-133078846D01*
X96730261Y-133233489D01*
X96730264Y-133233501D01*
X96790602Y-133379172D01*
X96790609Y-133379185D01*
X96878210Y-133510288D01*
X96878213Y-133510292D01*
X96989707Y-133621786D01*
X96989711Y-133621789D01*
X97120814Y-133709390D01*
X97120827Y-133709397D01*
X97266498Y-133769735D01*
X97266503Y-133769737D01*
X97421153Y-133800499D01*
X97421156Y-133800500D01*
X97421158Y-133800500D01*
X97578844Y-133800500D01*
X97578845Y-133800499D01*
X97733497Y-133769737D01*
X97879179Y-133709394D01*
X98010289Y-133621789D01*
X98121789Y-133510289D01*
X98209394Y-133379179D01*
X98269737Y-133233497D01*
X98300500Y-133078842D01*
X98300500Y-132921158D01*
X98300500Y-132921155D01*
X98300499Y-132921153D01*
X140199500Y-132921153D01*
X140199500Y-133078846D01*
X140230261Y-133233489D01*
X140230264Y-133233501D01*
X140290602Y-133379172D01*
X140290609Y-133379185D01*
X140378210Y-133510288D01*
X140378213Y-133510292D01*
X140489707Y-133621786D01*
X140489711Y-133621789D01*
X140620814Y-133709390D01*
X140620827Y-133709397D01*
X140766498Y-133769735D01*
X140766503Y-133769737D01*
X140921153Y-133800499D01*
X140921156Y-133800500D01*
X140921158Y-133800500D01*
X141078844Y-133800500D01*
X141078845Y-133800499D01*
X141233497Y-133769737D01*
X141379179Y-133709394D01*
X141510289Y-133621789D01*
X141621789Y-133510289D01*
X141709394Y-133379179D01*
X141769737Y-133233497D01*
X141800500Y-133078842D01*
X141800500Y-132921158D01*
X141800500Y-132921155D01*
X141800499Y-132921153D01*
X141769738Y-132766510D01*
X141769737Y-132766503D01*
X141756062Y-132733489D01*
X141709397Y-132620827D01*
X141709390Y-132620814D01*
X141621789Y-132489711D01*
X141621786Y-132489707D01*
X141510292Y-132378213D01*
X141510288Y-132378210D01*
X141379185Y-132290609D01*
X141379172Y-132290602D01*
X141233501Y-132230264D01*
X141233489Y-132230261D01*
X141078845Y-132199500D01*
X141078842Y-132199500D01*
X140921158Y-132199500D01*
X140921155Y-132199500D01*
X140766510Y-132230261D01*
X140766498Y-132230264D01*
X140620827Y-132290602D01*
X140620814Y-132290609D01*
X140489711Y-132378210D01*
X140489707Y-132378213D01*
X140378213Y-132489707D01*
X140378210Y-132489711D01*
X140290609Y-132620814D01*
X140290602Y-132620827D01*
X140230264Y-132766498D01*
X140230261Y-132766510D01*
X140199500Y-132921153D01*
X98300499Y-132921153D01*
X98269738Y-132766510D01*
X98269737Y-132766503D01*
X98256062Y-132733489D01*
X98209397Y-132620827D01*
X98209390Y-132620814D01*
X98121789Y-132489711D01*
X98121786Y-132489707D01*
X98010292Y-132378213D01*
X98010288Y-132378210D01*
X97879185Y-132290609D01*
X97879172Y-132290602D01*
X97733501Y-132230264D01*
X97733489Y-132230261D01*
X97578845Y-132199500D01*
X97578842Y-132199500D01*
X97421158Y-132199500D01*
X97421155Y-132199500D01*
X97266510Y-132230261D01*
X97266498Y-132230264D01*
X97120827Y-132290602D01*
X97120814Y-132290609D01*
X96989711Y-132378210D01*
X96989707Y-132378213D01*
X96878213Y-132489707D01*
X96878210Y-132489711D01*
X96790609Y-132620814D01*
X96790602Y-132620827D01*
X96730264Y-132766498D01*
X96730261Y-132766510D01*
X96699500Y-132921153D01*
X92681348Y-132921153D01*
X92709394Y-132879179D01*
X92769737Y-132733497D01*
X92800500Y-132578842D01*
X92800500Y-132421158D01*
X92800500Y-132421155D01*
X92800499Y-132421153D01*
X92774531Y-132290606D01*
X92769737Y-132266503D01*
X92769735Y-132266498D01*
X92709397Y-132120827D01*
X92709390Y-132120814D01*
X92621789Y-131989711D01*
X92621786Y-131989707D01*
X92510292Y-131878213D01*
X92510288Y-131878210D01*
X92379185Y-131790609D01*
X92379172Y-131790602D01*
X92233501Y-131730264D01*
X92233489Y-131730261D01*
X92078845Y-131699500D01*
X92078842Y-131699500D01*
X91921158Y-131699500D01*
X91921155Y-131699500D01*
X91766510Y-131730261D01*
X91766498Y-131730264D01*
X91620827Y-131790602D01*
X91620814Y-131790609D01*
X91489711Y-131878210D01*
X91489707Y-131878213D01*
X91378213Y-131989707D01*
X91378210Y-131989711D01*
X91290609Y-132120814D01*
X91290602Y-132120827D01*
X91230264Y-132266498D01*
X91230261Y-132266510D01*
X91199500Y-132421153D01*
X71250000Y-132421153D01*
X71250000Y-131171153D01*
X94949500Y-131171153D01*
X94949500Y-131328846D01*
X94980261Y-131483489D01*
X94980264Y-131483501D01*
X95040602Y-131629172D01*
X95040609Y-131629185D01*
X95128210Y-131760288D01*
X95128213Y-131760292D01*
X95239707Y-131871786D01*
X95239711Y-131871789D01*
X95370814Y-131959390D01*
X95370827Y-131959397D01*
X95444013Y-131989711D01*
X95516503Y-132019737D01*
X95671153Y-132050499D01*
X95671156Y-132050500D01*
X95671158Y-132050500D01*
X95828844Y-132050500D01*
X95828845Y-132050499D01*
X95983497Y-132019737D01*
X96129179Y-131959394D01*
X96260289Y-131871789D01*
X96371789Y-131760289D01*
X96459394Y-131629179D01*
X96519737Y-131483497D01*
X96550500Y-131328842D01*
X96550500Y-131171158D01*
X96550500Y-131171155D01*
X96550499Y-131171153D01*
X96519738Y-131016510D01*
X96519737Y-131016503D01*
X96517163Y-131010288D01*
X96459397Y-130870827D01*
X96459390Y-130870814D01*
X96371789Y-130739711D01*
X96371786Y-130739707D01*
X96260292Y-130628213D01*
X96260288Y-130628210D01*
X96129185Y-130540609D01*
X96129173Y-130540602D01*
X96102674Y-130529627D01*
X95983501Y-130480264D01*
X95983489Y-130480261D01*
X95828845Y-130449500D01*
X95828842Y-130449500D01*
X95671158Y-130449500D01*
X95671155Y-130449500D01*
X95516510Y-130480261D01*
X95516498Y-130480264D01*
X95370827Y-130540602D01*
X95370814Y-130540609D01*
X95239711Y-130628210D01*
X95239707Y-130628213D01*
X95128213Y-130739707D01*
X95128210Y-130739711D01*
X95040609Y-130870814D01*
X95040602Y-130870827D01*
X94980264Y-131016498D01*
X94980261Y-131016510D01*
X94949500Y-131171153D01*
X71250000Y-131171153D01*
X71250000Y-130421153D01*
X99199500Y-130421153D01*
X99199500Y-130578846D01*
X99230261Y-130733489D01*
X99230264Y-130733501D01*
X99290602Y-130879172D01*
X99290609Y-130879185D01*
X99378210Y-131010288D01*
X99378213Y-131010292D01*
X99489707Y-131121786D01*
X99489711Y-131121789D01*
X99620814Y-131209390D01*
X99620827Y-131209397D01*
X99766498Y-131269735D01*
X99766503Y-131269737D01*
X99921153Y-131300499D01*
X99921156Y-131300500D01*
X99921158Y-131300500D01*
X100078844Y-131300500D01*
X100078845Y-131300499D01*
X100233497Y-131269737D01*
X100379179Y-131209394D01*
X100510289Y-131121789D01*
X100621789Y-131010289D01*
X100709394Y-130879179D01*
X100712854Y-130870827D01*
X100767163Y-130739711D01*
X100769737Y-130733497D01*
X100800500Y-130578842D01*
X100800500Y-130421158D01*
X100800500Y-130421155D01*
X100800499Y-130421153D01*
X100769738Y-130266510D01*
X100769737Y-130266503D01*
X100769735Y-130266498D01*
X100709397Y-130120827D01*
X100709390Y-130120814D01*
X100621789Y-129989711D01*
X100621786Y-129989707D01*
X100510292Y-129878213D01*
X100510288Y-129878210D01*
X100379185Y-129790609D01*
X100379172Y-129790602D01*
X100233501Y-129730264D01*
X100233489Y-129730261D01*
X100078845Y-129699500D01*
X100078842Y-129699500D01*
X99921158Y-129699500D01*
X99921155Y-129699500D01*
X99766510Y-129730261D01*
X99766498Y-129730264D01*
X99620827Y-129790602D01*
X99620814Y-129790609D01*
X99489711Y-129878210D01*
X99489707Y-129878213D01*
X99378213Y-129989707D01*
X99378210Y-129989711D01*
X99290609Y-130120814D01*
X99290602Y-130120827D01*
X99230264Y-130266498D01*
X99230261Y-130266510D01*
X99199500Y-130421153D01*
X71250000Y-130421153D01*
X71250000Y-126171153D01*
X103449500Y-126171153D01*
X103449500Y-126328846D01*
X103480261Y-126483489D01*
X103480264Y-126483501D01*
X103540602Y-126629172D01*
X103540609Y-126629185D01*
X103628210Y-126760288D01*
X103628213Y-126760292D01*
X103739707Y-126871786D01*
X103739711Y-126871789D01*
X103870814Y-126959390D01*
X103870827Y-126959397D01*
X104016498Y-127019735D01*
X104016503Y-127019737D01*
X104171153Y-127050499D01*
X104171156Y-127050500D01*
X104171158Y-127050500D01*
X104328844Y-127050500D01*
X104328845Y-127050499D01*
X104483497Y-127019737D01*
X104629179Y-126959394D01*
X104760289Y-126871789D01*
X104871789Y-126760289D01*
X104959394Y-126629179D01*
X105019737Y-126483497D01*
X105032138Y-126421153D01*
X115699500Y-126421153D01*
X115699500Y-126578846D01*
X115730261Y-126733489D01*
X115730264Y-126733501D01*
X115790602Y-126879172D01*
X115790609Y-126879185D01*
X115878210Y-127010288D01*
X115878213Y-127010292D01*
X115989707Y-127121786D01*
X115989711Y-127121789D01*
X116120814Y-127209390D01*
X116120827Y-127209397D01*
X116266498Y-127269735D01*
X116266503Y-127269737D01*
X116421153Y-127300499D01*
X116421156Y-127300500D01*
X116421158Y-127300500D01*
X116578844Y-127300500D01*
X116578845Y-127300499D01*
X116733497Y-127269737D01*
X116879179Y-127209394D01*
X117010289Y-127121789D01*
X117121789Y-127010289D01*
X117209394Y-126879179D01*
X117269737Y-126733497D01*
X117300500Y-126578842D01*
X117300500Y-126421158D01*
X117300500Y-126421155D01*
X117300499Y-126421153D01*
X129199500Y-126421153D01*
X129199500Y-126578846D01*
X129230261Y-126733489D01*
X129230264Y-126733501D01*
X129290602Y-126879172D01*
X129290609Y-126879185D01*
X129378210Y-127010288D01*
X129378213Y-127010292D01*
X129489707Y-127121786D01*
X129489711Y-127121789D01*
X129620814Y-127209390D01*
X129620827Y-127209397D01*
X129766498Y-127269735D01*
X129766503Y-127269737D01*
X129921153Y-127300499D01*
X129921156Y-127300500D01*
X129921158Y-127300500D01*
X130078844Y-127300500D01*
X130078845Y-127300499D01*
X130233497Y-127269737D01*
X130379179Y-127209394D01*
X130510289Y-127121789D01*
X130621789Y-127010289D01*
X130709394Y-126879179D01*
X130769737Y-126733497D01*
X130800500Y-126578842D01*
X130800500Y-126421158D01*
X130800500Y-126421155D01*
X130800499Y-126421153D01*
X130769738Y-126266510D01*
X130769737Y-126266503D01*
X130709794Y-126121786D01*
X130709397Y-126120827D01*
X130709390Y-126120814D01*
X130621789Y-125989711D01*
X130621786Y-125989707D01*
X130620885Y-125988806D01*
X130620563Y-125988217D01*
X130617924Y-125985001D01*
X130618533Y-125984500D01*
X130587400Y-125927483D01*
X130592384Y-125857791D01*
X130634256Y-125801858D01*
X130684372Y-125779508D01*
X130733497Y-125769737D01*
X130879179Y-125709394D01*
X131010289Y-125621789D01*
X131121789Y-125510289D01*
X131209394Y-125379179D01*
X131269737Y-125233497D01*
X131300500Y-125078842D01*
X131300500Y-124921158D01*
X131300500Y-124921155D01*
X131300499Y-124921153D01*
X131274531Y-124790606D01*
X131269737Y-124766503D01*
X131269735Y-124766498D01*
X131209397Y-124620827D01*
X131209390Y-124620814D01*
X131121789Y-124489711D01*
X131121786Y-124489707D01*
X131010292Y-124378213D01*
X131010288Y-124378210D01*
X130879185Y-124290609D01*
X130879172Y-124290602D01*
X130733501Y-124230264D01*
X130733489Y-124230261D01*
X130578845Y-124199500D01*
X130578842Y-124199500D01*
X130421158Y-124199500D01*
X130421155Y-124199500D01*
X130266510Y-124230261D01*
X130266498Y-124230264D01*
X130120827Y-124290602D01*
X130120814Y-124290609D01*
X129989711Y-124378210D01*
X129989707Y-124378213D01*
X129878213Y-124489707D01*
X129878210Y-124489711D01*
X129790609Y-124620814D01*
X129790602Y-124620827D01*
X129730264Y-124766498D01*
X129730261Y-124766510D01*
X129699500Y-124921153D01*
X129699500Y-125078846D01*
X129730261Y-125233489D01*
X129730264Y-125233501D01*
X129790602Y-125379172D01*
X129790609Y-125379185D01*
X129878210Y-125510288D01*
X129878213Y-125510292D01*
X129879114Y-125511193D01*
X129879435Y-125511780D01*
X129882076Y-125514999D01*
X129881465Y-125515499D01*
X129912599Y-125572516D01*
X129907615Y-125642208D01*
X129865743Y-125698141D01*
X129815626Y-125720491D01*
X129766507Y-125730261D01*
X129766498Y-125730264D01*
X129620827Y-125790602D01*
X129620814Y-125790609D01*
X129489711Y-125878210D01*
X129489707Y-125878213D01*
X129378213Y-125989707D01*
X129378210Y-125989711D01*
X129290609Y-126120814D01*
X129290602Y-126120827D01*
X129230264Y-126266498D01*
X129230261Y-126266510D01*
X129199500Y-126421153D01*
X117300499Y-126421153D01*
X117269738Y-126266510D01*
X117269737Y-126266503D01*
X117209794Y-126121786D01*
X117209397Y-126120827D01*
X117209390Y-126120814D01*
X117121789Y-125989711D01*
X117121786Y-125989707D01*
X117010292Y-125878213D01*
X117010288Y-125878210D01*
X116879185Y-125790609D01*
X116879172Y-125790602D01*
X116733501Y-125730264D01*
X116733489Y-125730261D01*
X116578845Y-125699500D01*
X116578842Y-125699500D01*
X116421158Y-125699500D01*
X116421155Y-125699500D01*
X116266510Y-125730261D01*
X116266498Y-125730264D01*
X116120827Y-125790602D01*
X116120814Y-125790609D01*
X115989711Y-125878210D01*
X115989707Y-125878213D01*
X115878213Y-125989707D01*
X115878210Y-125989711D01*
X115790609Y-126120814D01*
X115790602Y-126120827D01*
X115730264Y-126266498D01*
X115730261Y-126266510D01*
X115699500Y-126421153D01*
X105032138Y-126421153D01*
X105038161Y-126390874D01*
X105050500Y-126328844D01*
X105050500Y-126171155D01*
X105050499Y-126171153D01*
X105019738Y-126016510D01*
X105019737Y-126016503D01*
X105017163Y-126010288D01*
X104959397Y-125870827D01*
X104959390Y-125870814D01*
X104871789Y-125739711D01*
X104871786Y-125739707D01*
X104760292Y-125628213D01*
X104760288Y-125628210D01*
X104629185Y-125540609D01*
X104629173Y-125540602D01*
X104602674Y-125529627D01*
X104483501Y-125480264D01*
X104483489Y-125480261D01*
X104328845Y-125449500D01*
X104328842Y-125449500D01*
X104171158Y-125449500D01*
X104171155Y-125449500D01*
X104016510Y-125480261D01*
X104016498Y-125480264D01*
X103870827Y-125540602D01*
X103870814Y-125540609D01*
X103739711Y-125628210D01*
X103739707Y-125628213D01*
X103628213Y-125739707D01*
X103628210Y-125739711D01*
X103540609Y-125870814D01*
X103540602Y-125870827D01*
X103480264Y-126016498D01*
X103480261Y-126016510D01*
X103449500Y-126171153D01*
X71250000Y-126171153D01*
X71250000Y-125421153D01*
X122199500Y-125421153D01*
X122199500Y-125578846D01*
X122230261Y-125733489D01*
X122230264Y-125733501D01*
X122290602Y-125879172D01*
X122290609Y-125879185D01*
X122378210Y-126010288D01*
X122378213Y-126010292D01*
X122489707Y-126121786D01*
X122489711Y-126121789D01*
X122620814Y-126209390D01*
X122620827Y-126209397D01*
X122758683Y-126266498D01*
X122766503Y-126269737D01*
X122921153Y-126300499D01*
X122921156Y-126300500D01*
X122921158Y-126300500D01*
X123078844Y-126300500D01*
X123078845Y-126300499D01*
X123089179Y-126298443D01*
X123114287Y-126293450D01*
X123114292Y-126293449D01*
X123199800Y-126276439D01*
X123233497Y-126269737D01*
X123379179Y-126209394D01*
X123510289Y-126121789D01*
X123621789Y-126010289D01*
X123709394Y-125879179D01*
X123712854Y-125870827D01*
X123745171Y-125792804D01*
X123769737Y-125733497D01*
X123800500Y-125578842D01*
X123800500Y-125421158D01*
X123800500Y-125421155D01*
X123800499Y-125421153D01*
X123769738Y-125266510D01*
X123769737Y-125266503D01*
X123756062Y-125233489D01*
X123709397Y-125120827D01*
X123709390Y-125120814D01*
X123621789Y-124989711D01*
X123621786Y-124989707D01*
X123510292Y-124878213D01*
X123510288Y-124878210D01*
X123379185Y-124790609D01*
X123379172Y-124790602D01*
X123233501Y-124730264D01*
X123233489Y-124730261D01*
X123078845Y-124699500D01*
X123078842Y-124699500D01*
X122921158Y-124699500D01*
X122921155Y-124699500D01*
X122766510Y-124730261D01*
X122766498Y-124730264D01*
X122620827Y-124790602D01*
X122620814Y-124790609D01*
X122489711Y-124878210D01*
X122489707Y-124878213D01*
X122378213Y-124989707D01*
X122378210Y-124989711D01*
X122290609Y-125120814D01*
X122290602Y-125120827D01*
X122230264Y-125266498D01*
X122230261Y-125266510D01*
X122199500Y-125421153D01*
X71250000Y-125421153D01*
X71250000Y-122171153D01*
X96199500Y-122171153D01*
X96199500Y-122328846D01*
X96230261Y-122483489D01*
X96230264Y-122483501D01*
X96290602Y-122629172D01*
X96290609Y-122629185D01*
X96378210Y-122760288D01*
X96378213Y-122760292D01*
X96489707Y-122871786D01*
X96489711Y-122871789D01*
X96548615Y-122911148D01*
X96593420Y-122964760D01*
X96602127Y-123034085D01*
X96579847Y-123083480D01*
X96581592Y-123084646D01*
X96490606Y-123220814D01*
X96490599Y-123220827D01*
X96430261Y-123366498D01*
X96430258Y-123366510D01*
X96399497Y-123521153D01*
X96399497Y-123678846D01*
X96430258Y-123833489D01*
X96430261Y-123833501D01*
X96490599Y-123979172D01*
X96490606Y-123979185D01*
X96578207Y-124110288D01*
X96578210Y-124110292D01*
X96689704Y-124221786D01*
X96689708Y-124221789D01*
X96820811Y-124309390D01*
X96820824Y-124309397D01*
X96966495Y-124369735D01*
X96966500Y-124369737D01*
X97121150Y-124400499D01*
X97121153Y-124400500D01*
X97121155Y-124400500D01*
X97278841Y-124400500D01*
X97278842Y-124400499D01*
X97433494Y-124369737D01*
X97552547Y-124320423D01*
X97622014Y-124312955D01*
X97647447Y-124320422D01*
X97766503Y-124369737D01*
X97921153Y-124400499D01*
X97921156Y-124400500D01*
X97921158Y-124400500D01*
X98078844Y-124400500D01*
X98078845Y-124400499D01*
X98233497Y-124369737D01*
X98379179Y-124309394D01*
X98510289Y-124221789D01*
X98621789Y-124110289D01*
X98709394Y-123979179D01*
X98769737Y-123833497D01*
X98800500Y-123678842D01*
X98800500Y-123521158D01*
X98800500Y-123521155D01*
X98800499Y-123521153D01*
X98769738Y-123366510D01*
X98769737Y-123366503D01*
X98742398Y-123300500D01*
X98709397Y-123220827D01*
X98709390Y-123220814D01*
X98621789Y-123089711D01*
X98621786Y-123089707D01*
X98544760Y-123012681D01*
X98511275Y-122951358D01*
X98516259Y-122881666D01*
X98544760Y-122837319D01*
X98621786Y-122760292D01*
X98621789Y-122760289D01*
X98709394Y-122629179D01*
X98769737Y-122483497D01*
X98782138Y-122421153D01*
X113199500Y-122421153D01*
X113199500Y-122578846D01*
X113230261Y-122733489D01*
X113230264Y-122733501D01*
X113290602Y-122879172D01*
X113290609Y-122879185D01*
X113378210Y-123010288D01*
X113378213Y-123010292D01*
X113489707Y-123121786D01*
X113489711Y-123121789D01*
X113620814Y-123209390D01*
X113620827Y-123209397D01*
X113766498Y-123269735D01*
X113766503Y-123269737D01*
X113921153Y-123300499D01*
X113921156Y-123300500D01*
X113921158Y-123300500D01*
X114078844Y-123300500D01*
X114078845Y-123300499D01*
X114233497Y-123269737D01*
X114351592Y-123220821D01*
X114379172Y-123209397D01*
X114379172Y-123209396D01*
X114379179Y-123209394D01*
X114510289Y-123121789D01*
X114621789Y-123010289D01*
X114709394Y-122879179D01*
X114769737Y-122733497D01*
X114800500Y-122578842D01*
X114800500Y-122421158D01*
X114800500Y-122421155D01*
X114800499Y-122421153D01*
X114769738Y-122266510D01*
X114769737Y-122266503D01*
X114730242Y-122171153D01*
X114709397Y-122120827D01*
X114709390Y-122120814D01*
X114621789Y-121989711D01*
X114621786Y-121989707D01*
X114510292Y-121878213D01*
X114510288Y-121878210D01*
X114379185Y-121790609D01*
X114379172Y-121790602D01*
X114233501Y-121730264D01*
X114233489Y-121730261D01*
X114078845Y-121699500D01*
X114078842Y-121699500D01*
X113921158Y-121699500D01*
X113921155Y-121699500D01*
X113766510Y-121730261D01*
X113766498Y-121730264D01*
X113620827Y-121790602D01*
X113620814Y-121790609D01*
X113489711Y-121878210D01*
X113489707Y-121878213D01*
X113378213Y-121989707D01*
X113378210Y-121989711D01*
X113290609Y-122120814D01*
X113290602Y-122120827D01*
X113230264Y-122266498D01*
X113230261Y-122266510D01*
X113199500Y-122421153D01*
X98782138Y-122421153D01*
X98788161Y-122390874D01*
X98800500Y-122328844D01*
X98800500Y-122171155D01*
X98800499Y-122171153D01*
X98769738Y-122016510D01*
X98769737Y-122016503D01*
X98769735Y-122016498D01*
X98709397Y-121870827D01*
X98709390Y-121870814D01*
X98621789Y-121739711D01*
X98621786Y-121739707D01*
X98510292Y-121628213D01*
X98510288Y-121628210D01*
X98379185Y-121540609D01*
X98379172Y-121540602D01*
X98233501Y-121480264D01*
X98233489Y-121480261D01*
X98078845Y-121449500D01*
X98078842Y-121449500D01*
X97921158Y-121449500D01*
X97921155Y-121449500D01*
X97766510Y-121480261D01*
X97766498Y-121480264D01*
X97620827Y-121540602D01*
X97620814Y-121540609D01*
X97568891Y-121575304D01*
X97502214Y-121596182D01*
X97434833Y-121577698D01*
X97431109Y-121575304D01*
X97379185Y-121540609D01*
X97379172Y-121540602D01*
X97233501Y-121480264D01*
X97233489Y-121480261D01*
X97078845Y-121449500D01*
X97078842Y-121449500D01*
X96921158Y-121449500D01*
X96921155Y-121449500D01*
X96766510Y-121480261D01*
X96766498Y-121480264D01*
X96620827Y-121540602D01*
X96620814Y-121540609D01*
X96489711Y-121628210D01*
X96489707Y-121628213D01*
X96378213Y-121739707D01*
X96378210Y-121739711D01*
X96290609Y-121870814D01*
X96290602Y-121870827D01*
X96230264Y-122016498D01*
X96230261Y-122016510D01*
X96199500Y-122171153D01*
X71250000Y-122171153D01*
X71250000Y-120671153D01*
X87949500Y-120671153D01*
X87949500Y-120828846D01*
X87980261Y-120983489D01*
X87980264Y-120983501D01*
X88040602Y-121129172D01*
X88040609Y-121129185D01*
X88128210Y-121260288D01*
X88128213Y-121260292D01*
X88239707Y-121371786D01*
X88239711Y-121371789D01*
X88370814Y-121459390D01*
X88370827Y-121459397D01*
X88516498Y-121519735D01*
X88516503Y-121519737D01*
X88671153Y-121550499D01*
X88671156Y-121550500D01*
X88671158Y-121550500D01*
X88828844Y-121550500D01*
X88828845Y-121550499D01*
X88983497Y-121519737D01*
X89129179Y-121459394D01*
X89260289Y-121371789D01*
X89371789Y-121260289D01*
X89459394Y-121129179D01*
X89519737Y-120983497D01*
X89550500Y-120828842D01*
X89550500Y-120671158D01*
X89550500Y-120671155D01*
X89550499Y-120671153D01*
X89519738Y-120516510D01*
X89519737Y-120516503D01*
X89480242Y-120421153D01*
X89459397Y-120370827D01*
X89459390Y-120370814D01*
X89371789Y-120239711D01*
X89371786Y-120239707D01*
X89260292Y-120128213D01*
X89260288Y-120128210D01*
X89129185Y-120040609D01*
X89129173Y-120040602D01*
X89102674Y-120029627D01*
X88983501Y-119980264D01*
X88983489Y-119980261D01*
X88828845Y-119949500D01*
X88828842Y-119949500D01*
X88671158Y-119949500D01*
X88671155Y-119949500D01*
X88516510Y-119980261D01*
X88516498Y-119980264D01*
X88370827Y-120040602D01*
X88370814Y-120040609D01*
X88239711Y-120128210D01*
X88239707Y-120128213D01*
X88128213Y-120239707D01*
X88128210Y-120239711D01*
X88040609Y-120370814D01*
X88040602Y-120370827D01*
X87980264Y-120516498D01*
X87980261Y-120516510D01*
X87949500Y-120671153D01*
X71250000Y-120671153D01*
X71250000Y-119921153D01*
X91199500Y-119921153D01*
X91199500Y-120078846D01*
X91230261Y-120233489D01*
X91230264Y-120233501D01*
X91290602Y-120379172D01*
X91290609Y-120379185D01*
X91378210Y-120510288D01*
X91378213Y-120510292D01*
X91489707Y-120621786D01*
X91489711Y-120621789D01*
X91620814Y-120709390D01*
X91620827Y-120709397D01*
X91766498Y-120769735D01*
X91766503Y-120769737D01*
X91921153Y-120800499D01*
X91921156Y-120800500D01*
X91921158Y-120800500D01*
X92078844Y-120800500D01*
X92078845Y-120800499D01*
X92233497Y-120769737D01*
X92379179Y-120709394D01*
X92510289Y-120621789D01*
X92621789Y-120510289D01*
X92681348Y-120421153D01*
X107949500Y-120421153D01*
X107949500Y-120578846D01*
X107980261Y-120733489D01*
X107980264Y-120733501D01*
X108040602Y-120879172D01*
X108040609Y-120879185D01*
X108128210Y-121010288D01*
X108128213Y-121010292D01*
X108239707Y-121121786D01*
X108239711Y-121121789D01*
X108370814Y-121209390D01*
X108370827Y-121209397D01*
X108516498Y-121269735D01*
X108516503Y-121269737D01*
X108671153Y-121300499D01*
X108671156Y-121300500D01*
X108671158Y-121300500D01*
X108828844Y-121300500D01*
X108828845Y-121300499D01*
X108983497Y-121269737D01*
X109129179Y-121209394D01*
X109260289Y-121121789D01*
X109371789Y-121010289D01*
X109459394Y-120879179D01*
X109519737Y-120733497D01*
X109550500Y-120578842D01*
X109550500Y-120421158D01*
X109550500Y-120421155D01*
X109550499Y-120421153D01*
X109519738Y-120266510D01*
X109519737Y-120266503D01*
X109519735Y-120266498D01*
X109459397Y-120120827D01*
X109459390Y-120120814D01*
X109371789Y-119989711D01*
X109371786Y-119989707D01*
X109260292Y-119878213D01*
X109260288Y-119878210D01*
X109129185Y-119790609D01*
X109129172Y-119790602D01*
X108983501Y-119730264D01*
X108983489Y-119730261D01*
X108828845Y-119699500D01*
X108828842Y-119699500D01*
X108671158Y-119699500D01*
X108671155Y-119699500D01*
X108516510Y-119730261D01*
X108516498Y-119730264D01*
X108370827Y-119790602D01*
X108370814Y-119790609D01*
X108239711Y-119878210D01*
X108239707Y-119878213D01*
X108128213Y-119989707D01*
X108128210Y-119989711D01*
X108040609Y-120120814D01*
X108040602Y-120120827D01*
X107980264Y-120266498D01*
X107980261Y-120266510D01*
X107949500Y-120421153D01*
X92681348Y-120421153D01*
X92709394Y-120379179D01*
X92769737Y-120233497D01*
X92800500Y-120078842D01*
X92800500Y-119921158D01*
X92800500Y-119921155D01*
X92800499Y-119921153D01*
X92774531Y-119790606D01*
X92769737Y-119766503D01*
X92756062Y-119733489D01*
X92709397Y-119620827D01*
X92709390Y-119620814D01*
X92621790Y-119489712D01*
X92621784Y-119489705D01*
X92553232Y-119421153D01*
X114199500Y-119421153D01*
X114199500Y-119578846D01*
X114230261Y-119733489D01*
X114230264Y-119733501D01*
X114290602Y-119879172D01*
X114290609Y-119879185D01*
X114378210Y-120010288D01*
X114378213Y-120010292D01*
X114489707Y-120121786D01*
X114489711Y-120121789D01*
X114620814Y-120209390D01*
X114620827Y-120209397D01*
X114694013Y-120239711D01*
X114766503Y-120269737D01*
X114921153Y-120300499D01*
X114921156Y-120300500D01*
X114921158Y-120300500D01*
X115078844Y-120300500D01*
X115078845Y-120300499D01*
X115233497Y-120269737D01*
X115379179Y-120209394D01*
X115510289Y-120121789D01*
X115621789Y-120010289D01*
X115681348Y-119921153D01*
X150199500Y-119921153D01*
X150199500Y-120078846D01*
X150230261Y-120233489D01*
X150230264Y-120233501D01*
X150290602Y-120379172D01*
X150290609Y-120379185D01*
X150378210Y-120510288D01*
X150378213Y-120510292D01*
X150489707Y-120621786D01*
X150489711Y-120621789D01*
X150620814Y-120709390D01*
X150620827Y-120709397D01*
X150766498Y-120769735D01*
X150766503Y-120769737D01*
X150921153Y-120800499D01*
X150921156Y-120800500D01*
X150921158Y-120800500D01*
X151078844Y-120800500D01*
X151078845Y-120800499D01*
X151233497Y-120769737D01*
X151379179Y-120709394D01*
X151510289Y-120621789D01*
X151621789Y-120510289D01*
X151709394Y-120379179D01*
X151712854Y-120370827D01*
X151741984Y-120300499D01*
X151769737Y-120233497D01*
X151800500Y-120078842D01*
X151800500Y-119921158D01*
X151800500Y-119921155D01*
X151800499Y-119921153D01*
X151774531Y-119790606D01*
X151769737Y-119766503D01*
X151756062Y-119733489D01*
X151709397Y-119620827D01*
X151709390Y-119620814D01*
X151621789Y-119489711D01*
X151621786Y-119489707D01*
X151510292Y-119378213D01*
X151510288Y-119378210D01*
X151379185Y-119290609D01*
X151379173Y-119290602D01*
X151352674Y-119279627D01*
X151233501Y-119230264D01*
X151233489Y-119230261D01*
X151078845Y-119199500D01*
X151078842Y-119199500D01*
X150921158Y-119199500D01*
X150921155Y-119199500D01*
X150766510Y-119230261D01*
X150766498Y-119230264D01*
X150620827Y-119290602D01*
X150620814Y-119290609D01*
X150489711Y-119378210D01*
X150489707Y-119378213D01*
X150378213Y-119489707D01*
X150378210Y-119489711D01*
X150290609Y-119620814D01*
X150290602Y-119620827D01*
X150230264Y-119766498D01*
X150230261Y-119766510D01*
X150199500Y-119921153D01*
X115681348Y-119921153D01*
X115709394Y-119879179D01*
X115769737Y-119733497D01*
X115800500Y-119578842D01*
X115800500Y-119421158D01*
X115800500Y-119421155D01*
X115800499Y-119421153D01*
X115774531Y-119290606D01*
X115769737Y-119266503D01*
X115756062Y-119233489D01*
X115709397Y-119120827D01*
X115709390Y-119120814D01*
X115621790Y-118989712D01*
X115621784Y-118989705D01*
X115553232Y-118921153D01*
X122199500Y-118921153D01*
X122199500Y-119078846D01*
X122230261Y-119233489D01*
X122230264Y-119233501D01*
X122290602Y-119379172D01*
X122290609Y-119379185D01*
X122378210Y-119510288D01*
X122378213Y-119510292D01*
X122489707Y-119621786D01*
X122489711Y-119621789D01*
X122620814Y-119709390D01*
X122620827Y-119709397D01*
X122758683Y-119766498D01*
X122766503Y-119769737D01*
X122921153Y-119800499D01*
X122921156Y-119800500D01*
X122921158Y-119800500D01*
X123078844Y-119800500D01*
X123078845Y-119800499D01*
X123089179Y-119798443D01*
X123114287Y-119793450D01*
X123114292Y-119793449D01*
X123199800Y-119776439D01*
X123233497Y-119769737D01*
X123379179Y-119709394D01*
X123510289Y-119621789D01*
X123621789Y-119510289D01*
X123709394Y-119379179D01*
X123769737Y-119233497D01*
X123782138Y-119171153D01*
X157449500Y-119171153D01*
X157449500Y-119328846D01*
X157480261Y-119483489D01*
X157480264Y-119483501D01*
X157540602Y-119629172D01*
X157540609Y-119629185D01*
X157628210Y-119760288D01*
X157628213Y-119760292D01*
X157739707Y-119871786D01*
X157739711Y-119871789D01*
X157870814Y-119959390D01*
X157870827Y-119959397D01*
X158016498Y-120019735D01*
X158016503Y-120019737D01*
X158171153Y-120050499D01*
X158171156Y-120050500D01*
X158171158Y-120050500D01*
X158328844Y-120050500D01*
X158328845Y-120050499D01*
X158483497Y-120019737D01*
X158629179Y-119959394D01*
X158760289Y-119871789D01*
X158871789Y-119760289D01*
X158959394Y-119629179D01*
X158962854Y-119620827D01*
X159008640Y-119510288D01*
X159019737Y-119483497D01*
X159050500Y-119328842D01*
X159050500Y-119171158D01*
X159050500Y-119171155D01*
X159050499Y-119171153D01*
X159019738Y-119016510D01*
X159019737Y-119016503D01*
X159008640Y-118989712D01*
X158959397Y-118870827D01*
X158959390Y-118870814D01*
X158871789Y-118739711D01*
X158871786Y-118739707D01*
X158760292Y-118628213D01*
X158760288Y-118628210D01*
X158629185Y-118540609D01*
X158629172Y-118540602D01*
X158483501Y-118480264D01*
X158483489Y-118480261D01*
X158328845Y-118449500D01*
X158328842Y-118449500D01*
X158171158Y-118449500D01*
X158171155Y-118449500D01*
X158016510Y-118480261D01*
X158016498Y-118480264D01*
X157870827Y-118540602D01*
X157870814Y-118540609D01*
X157739711Y-118628210D01*
X157739707Y-118628213D01*
X157628213Y-118739707D01*
X157628210Y-118739711D01*
X157540609Y-118870814D01*
X157540602Y-118870827D01*
X157480264Y-119016498D01*
X157480261Y-119016510D01*
X157449500Y-119171153D01*
X123782138Y-119171153D01*
X123800500Y-119078842D01*
X123800500Y-118921158D01*
X123800500Y-118921155D01*
X123800499Y-118921153D01*
X123774531Y-118790606D01*
X123769737Y-118766503D01*
X123769735Y-118766498D01*
X123709397Y-118620827D01*
X123709390Y-118620814D01*
X123621789Y-118489711D01*
X123621786Y-118489707D01*
X123510292Y-118378213D01*
X123510288Y-118378210D01*
X123379185Y-118290609D01*
X123379172Y-118290602D01*
X123233501Y-118230264D01*
X123233489Y-118230261D01*
X123078845Y-118199500D01*
X123078842Y-118199500D01*
X122921158Y-118199500D01*
X122921155Y-118199500D01*
X122766510Y-118230261D01*
X122766498Y-118230264D01*
X122620827Y-118290602D01*
X122620814Y-118290609D01*
X122489711Y-118378210D01*
X122489707Y-118378213D01*
X122378213Y-118489707D01*
X122378210Y-118489711D01*
X122290609Y-118620814D01*
X122290602Y-118620827D01*
X122230264Y-118766498D01*
X122230261Y-118766510D01*
X122199500Y-118921153D01*
X115553232Y-118921153D01*
X115510292Y-118878213D01*
X115510288Y-118878210D01*
X115379185Y-118790609D01*
X115379172Y-118790602D01*
X115233501Y-118730264D01*
X115233489Y-118730261D01*
X115078845Y-118699500D01*
X115078842Y-118699500D01*
X114921158Y-118699500D01*
X114921155Y-118699500D01*
X114766510Y-118730261D01*
X114766498Y-118730264D01*
X114620827Y-118790602D01*
X114620814Y-118790609D01*
X114489711Y-118878210D01*
X114489707Y-118878213D01*
X114378213Y-118989707D01*
X114378210Y-118989711D01*
X114290609Y-119120814D01*
X114290602Y-119120827D01*
X114230264Y-119266498D01*
X114230261Y-119266510D01*
X114199500Y-119421153D01*
X92553232Y-119421153D01*
X92510292Y-119378213D01*
X92510288Y-119378210D01*
X92379185Y-119290609D01*
X92379172Y-119290602D01*
X92233501Y-119230264D01*
X92233489Y-119230261D01*
X92078845Y-119199500D01*
X92078842Y-119199500D01*
X91921158Y-119199500D01*
X91921155Y-119199500D01*
X91766510Y-119230261D01*
X91766498Y-119230264D01*
X91620827Y-119290602D01*
X91620814Y-119290609D01*
X91489711Y-119378210D01*
X91489707Y-119378213D01*
X91378213Y-119489707D01*
X91378210Y-119489711D01*
X91290609Y-119620814D01*
X91290602Y-119620827D01*
X91230264Y-119766498D01*
X91230261Y-119766510D01*
X91199500Y-119921153D01*
X71250000Y-119921153D01*
X71250000Y-117921153D01*
X108699500Y-117921153D01*
X108699500Y-118078846D01*
X108730261Y-118233489D01*
X108730264Y-118233501D01*
X108790602Y-118379172D01*
X108790609Y-118379185D01*
X108878210Y-118510288D01*
X108878213Y-118510292D01*
X108989707Y-118621786D01*
X108989711Y-118621789D01*
X109120814Y-118709390D01*
X109120827Y-118709397D01*
X109194013Y-118739711D01*
X109266503Y-118769737D01*
X109421153Y-118800499D01*
X109421156Y-118800500D01*
X109421158Y-118800500D01*
X109578844Y-118800500D01*
X109578845Y-118800499D01*
X109733497Y-118769737D01*
X109879179Y-118709394D01*
X110010289Y-118621789D01*
X110121789Y-118510289D01*
X110209394Y-118379179D01*
X110269737Y-118233497D01*
X110300500Y-118078842D01*
X110300500Y-117921158D01*
X110300500Y-117921155D01*
X110300499Y-117921153D01*
X110269738Y-117766510D01*
X110269737Y-117766503D01*
X110236598Y-117686498D01*
X110209397Y-117620827D01*
X110209390Y-117620814D01*
X110121789Y-117489711D01*
X110121786Y-117489707D01*
X110010292Y-117378213D01*
X110010288Y-117378210D01*
X109879185Y-117290609D01*
X109879172Y-117290602D01*
X109733501Y-117230264D01*
X109733489Y-117230261D01*
X109578845Y-117199500D01*
X109578842Y-117199500D01*
X109421158Y-117199500D01*
X109421155Y-117199500D01*
X109266510Y-117230261D01*
X109266498Y-117230264D01*
X109120827Y-117290602D01*
X109120814Y-117290609D01*
X108989711Y-117378210D01*
X108989707Y-117378213D01*
X108878213Y-117489707D01*
X108878210Y-117489711D01*
X108790609Y-117620814D01*
X108790602Y-117620827D01*
X108730264Y-117766498D01*
X108730261Y-117766510D01*
X108699500Y-117921153D01*
X71250000Y-117921153D01*
X71250000Y-116421153D01*
X85699500Y-116421153D01*
X85699500Y-116578846D01*
X85730261Y-116733489D01*
X85730264Y-116733501D01*
X85790602Y-116879172D01*
X85790609Y-116879185D01*
X85878210Y-117010288D01*
X85878213Y-117010292D01*
X85989707Y-117121786D01*
X85989711Y-117121789D01*
X86120814Y-117209390D01*
X86120827Y-117209397D01*
X86185918Y-117236358D01*
X86266503Y-117269737D01*
X86421153Y-117300499D01*
X86421156Y-117300500D01*
X86421158Y-117300500D01*
X86578844Y-117300500D01*
X86578845Y-117300499D01*
X86733497Y-117269737D01*
X86879179Y-117209394D01*
X87010289Y-117121789D01*
X87121789Y-117010289D01*
X87209394Y-116879179D01*
X87269737Y-116733497D01*
X87300500Y-116578842D01*
X87300500Y-116421158D01*
X87300500Y-116421155D01*
X87300499Y-116421153D01*
X90199500Y-116421153D01*
X90199500Y-116578846D01*
X90230261Y-116733489D01*
X90230264Y-116733501D01*
X90290602Y-116879172D01*
X90290609Y-116879185D01*
X90378210Y-117010288D01*
X90378213Y-117010292D01*
X90489707Y-117121786D01*
X90489711Y-117121789D01*
X90620814Y-117209390D01*
X90620827Y-117209397D01*
X90685918Y-117236358D01*
X90766503Y-117269737D01*
X90921153Y-117300499D01*
X90921156Y-117300500D01*
X90921158Y-117300500D01*
X91078844Y-117300500D01*
X91078845Y-117300499D01*
X91233497Y-117269737D01*
X91379179Y-117209394D01*
X91510289Y-117121789D01*
X91621789Y-117010289D01*
X91709394Y-116879179D01*
X91769737Y-116733497D01*
X91800500Y-116578842D01*
X91800500Y-116421158D01*
X91800500Y-116421155D01*
X91800499Y-116421153D01*
X91769738Y-116266510D01*
X91769737Y-116266503D01*
X91769735Y-116266498D01*
X91709397Y-116120827D01*
X91709390Y-116120814D01*
X91621789Y-115989711D01*
X91621786Y-115989707D01*
X91510292Y-115878213D01*
X91510288Y-115878210D01*
X91379185Y-115790609D01*
X91379172Y-115790602D01*
X91233501Y-115730264D01*
X91233489Y-115730261D01*
X91078845Y-115699500D01*
X91078842Y-115699500D01*
X90921158Y-115699500D01*
X90921155Y-115699500D01*
X90766510Y-115730261D01*
X90766498Y-115730264D01*
X90620827Y-115790602D01*
X90620814Y-115790609D01*
X90489711Y-115878210D01*
X90489707Y-115878213D01*
X90378213Y-115989707D01*
X90378210Y-115989711D01*
X90290609Y-116120814D01*
X90290602Y-116120827D01*
X90230264Y-116266498D01*
X90230261Y-116266510D01*
X90199500Y-116421153D01*
X87300499Y-116421153D01*
X87269738Y-116266510D01*
X87269737Y-116266503D01*
X87269735Y-116266498D01*
X87209397Y-116120827D01*
X87209390Y-116120814D01*
X87121789Y-115989711D01*
X87121786Y-115989707D01*
X87010292Y-115878213D01*
X87010288Y-115878210D01*
X86879185Y-115790609D01*
X86879172Y-115790602D01*
X86733501Y-115730264D01*
X86733489Y-115730261D01*
X86578845Y-115699500D01*
X86578842Y-115699500D01*
X86421158Y-115699500D01*
X86421155Y-115699500D01*
X86266510Y-115730261D01*
X86266498Y-115730264D01*
X86120827Y-115790602D01*
X86120814Y-115790609D01*
X85989711Y-115878210D01*
X85989707Y-115878213D01*
X85878213Y-115989707D01*
X85878210Y-115989711D01*
X85790609Y-116120814D01*
X85790602Y-116120827D01*
X85730264Y-116266498D01*
X85730261Y-116266510D01*
X85699500Y-116421153D01*
X71250000Y-116421153D01*
X71250000Y-115221153D01*
X141199500Y-115221153D01*
X141199500Y-115378846D01*
X141230261Y-115533489D01*
X141230264Y-115533501D01*
X141290602Y-115679172D01*
X141290609Y-115679185D01*
X141378210Y-115810288D01*
X141378213Y-115810292D01*
X141380240Y-115812319D01*
X141380962Y-115813642D01*
X141382076Y-115814999D01*
X141381818Y-115815210D01*
X141413725Y-115873642D01*
X141408741Y-115943334D01*
X141382001Y-115984939D01*
X141382076Y-115985001D01*
X141381552Y-115985639D01*
X141380240Y-115987681D01*
X141378213Y-115989707D01*
X141378210Y-115989711D01*
X141290609Y-116120814D01*
X141290602Y-116120827D01*
X141230264Y-116266498D01*
X141230261Y-116266510D01*
X141199500Y-116421153D01*
X141199500Y-116578846D01*
X141230261Y-116733489D01*
X141230264Y-116733501D01*
X141290602Y-116879172D01*
X141290609Y-116879185D01*
X141378210Y-117010288D01*
X141378213Y-117010292D01*
X141490240Y-117122319D01*
X141523725Y-117183642D01*
X141518741Y-117253334D01*
X141490240Y-117297681D01*
X141378213Y-117409707D01*
X141378210Y-117409711D01*
X141290609Y-117540814D01*
X141290602Y-117540827D01*
X141230264Y-117686498D01*
X141230261Y-117686510D01*
X141199500Y-117841153D01*
X141199500Y-117998846D01*
X141230261Y-118153489D01*
X141230264Y-118153501D01*
X141290602Y-118299172D01*
X141290609Y-118299185D01*
X141378210Y-118430288D01*
X141378213Y-118430292D01*
X141489707Y-118541786D01*
X141489711Y-118541789D01*
X141620814Y-118629390D01*
X141620827Y-118629397D01*
X141766498Y-118689735D01*
X141766503Y-118689737D01*
X141921153Y-118720499D01*
X141921156Y-118720500D01*
X141921158Y-118720500D01*
X142078844Y-118720500D01*
X142078845Y-118720499D01*
X142233497Y-118689737D01*
X142379179Y-118629394D01*
X142510289Y-118541789D01*
X142621789Y-118430289D01*
X142709394Y-118299179D01*
X142769737Y-118153497D01*
X142800500Y-117998842D01*
X142800500Y-117921153D01*
X145199500Y-117921153D01*
X145199500Y-118078846D01*
X145230261Y-118233489D01*
X145230264Y-118233501D01*
X145290602Y-118379172D01*
X145290609Y-118379185D01*
X145378210Y-118510288D01*
X145378213Y-118510292D01*
X145489707Y-118621786D01*
X145489711Y-118621789D01*
X145620814Y-118709390D01*
X145620827Y-118709397D01*
X145694013Y-118739711D01*
X145766503Y-118769737D01*
X145921153Y-118800499D01*
X145921156Y-118800500D01*
X145921158Y-118800500D01*
X146078844Y-118800500D01*
X146078845Y-118800499D01*
X146233497Y-118769737D01*
X146379179Y-118709394D01*
X146510289Y-118621789D01*
X146621789Y-118510289D01*
X146709394Y-118379179D01*
X146769737Y-118233497D01*
X146800500Y-118078842D01*
X146800500Y-117921158D01*
X146800500Y-117921155D01*
X146800499Y-117921153D01*
X146769738Y-117766510D01*
X146769737Y-117766503D01*
X146736598Y-117686498D01*
X146709397Y-117620827D01*
X146709390Y-117620814D01*
X146621789Y-117489711D01*
X146621786Y-117489707D01*
X146510292Y-117378213D01*
X146510288Y-117378210D01*
X146379185Y-117290609D01*
X146379172Y-117290602D01*
X146233501Y-117230264D01*
X146233489Y-117230261D01*
X146078845Y-117199500D01*
X146078842Y-117199500D01*
X145921158Y-117199500D01*
X145921155Y-117199500D01*
X145766510Y-117230261D01*
X145766498Y-117230264D01*
X145620827Y-117290602D01*
X145620814Y-117290609D01*
X145489711Y-117378210D01*
X145489707Y-117378213D01*
X145378213Y-117489707D01*
X145378210Y-117489711D01*
X145290609Y-117620814D01*
X145290602Y-117620827D01*
X145230264Y-117766498D01*
X145230261Y-117766510D01*
X145199500Y-117921153D01*
X142800500Y-117921153D01*
X142800500Y-117841158D01*
X142800500Y-117841155D01*
X142800499Y-117841153D01*
X142769738Y-117686510D01*
X142769737Y-117686503D01*
X142769735Y-117686498D01*
X142709397Y-117540827D01*
X142709390Y-117540814D01*
X142621789Y-117409711D01*
X142621786Y-117409707D01*
X142509760Y-117297681D01*
X142476275Y-117236358D01*
X142481259Y-117166666D01*
X142509760Y-117122319D01*
X142621786Y-117010292D01*
X142621789Y-117010289D01*
X142709394Y-116879179D01*
X142769737Y-116733497D01*
X142800500Y-116578842D01*
X142800500Y-116421158D01*
X142800500Y-116421155D01*
X142800499Y-116421153D01*
X142769738Y-116266510D01*
X142769737Y-116266503D01*
X142769735Y-116266498D01*
X142709397Y-116120827D01*
X142709390Y-116120814D01*
X142621789Y-115989711D01*
X142619766Y-115987688D01*
X142619043Y-115986365D01*
X142617924Y-115985001D01*
X142618182Y-115984788D01*
X142586276Y-115926368D01*
X142591255Y-115856676D01*
X142617999Y-115815060D01*
X142617924Y-115814999D01*
X142618454Y-115814351D01*
X142619766Y-115812312D01*
X142621789Y-115810289D01*
X142709394Y-115679179D01*
X142769737Y-115533497D01*
X142800500Y-115378842D01*
X142800500Y-115221158D01*
X142800500Y-115221155D01*
X142800499Y-115221153D01*
X142769738Y-115066510D01*
X142769737Y-115066503D01*
X142769735Y-115066498D01*
X142709397Y-114920827D01*
X142709390Y-114920814D01*
X142621789Y-114789711D01*
X142621786Y-114789707D01*
X142510292Y-114678213D01*
X142510288Y-114678210D01*
X142393214Y-114599983D01*
X162054500Y-114599983D01*
X162054500Y-115900001D01*
X162054501Y-115900018D01*
X162065000Y-116002796D01*
X162065001Y-116002799D01*
X162104108Y-116120814D01*
X162120186Y-116169334D01*
X162212288Y-116318656D01*
X162336344Y-116442712D01*
X162485666Y-116534814D01*
X162652203Y-116589999D01*
X162754991Y-116600500D01*
X164355008Y-116600499D01*
X164457797Y-116589999D01*
X164624334Y-116534814D01*
X164773656Y-116442712D01*
X164897712Y-116318656D01*
X164989814Y-116169334D01*
X165044999Y-116002797D01*
X165055500Y-115900009D01*
X165055499Y-114599992D01*
X165044999Y-114497203D01*
X164989814Y-114330666D01*
X164897712Y-114181344D01*
X164773656Y-114057288D01*
X164624334Y-113965186D01*
X164457797Y-113910001D01*
X164457795Y-113910000D01*
X164355010Y-113899500D01*
X162754998Y-113899500D01*
X162754981Y-113899501D01*
X162652203Y-113910000D01*
X162652200Y-113910001D01*
X162485668Y-113965185D01*
X162485663Y-113965187D01*
X162336342Y-114057289D01*
X162212289Y-114181342D01*
X162120187Y-114330663D01*
X162120186Y-114330666D01*
X162065001Y-114497203D01*
X162065001Y-114497204D01*
X162065000Y-114497204D01*
X162054500Y-114599983D01*
X142393214Y-114599983D01*
X142379185Y-114590609D01*
X142379172Y-114590602D01*
X142233501Y-114530264D01*
X142233489Y-114530261D01*
X142078845Y-114499500D01*
X142078842Y-114499500D01*
X141921158Y-114499500D01*
X141921155Y-114499500D01*
X141766510Y-114530261D01*
X141766498Y-114530264D01*
X141620827Y-114590602D01*
X141620814Y-114590609D01*
X141489711Y-114678210D01*
X141489707Y-114678213D01*
X141378213Y-114789707D01*
X141378210Y-114789711D01*
X141290609Y-114920814D01*
X141290602Y-114920827D01*
X141230264Y-115066498D01*
X141230261Y-115066510D01*
X141199500Y-115221153D01*
X71250000Y-115221153D01*
X71250000Y-112921153D01*
X83699500Y-112921153D01*
X83699500Y-113078846D01*
X83730261Y-113233489D01*
X83730264Y-113233501D01*
X83790602Y-113379172D01*
X83790609Y-113379185D01*
X83878210Y-113510288D01*
X83878213Y-113510292D01*
X83989707Y-113621786D01*
X83989711Y-113621789D01*
X84120814Y-113709390D01*
X84120827Y-113709397D01*
X84266498Y-113769735D01*
X84266503Y-113769737D01*
X84421153Y-113800499D01*
X84421156Y-113800500D01*
X84421158Y-113800500D01*
X84578844Y-113800500D01*
X84578845Y-113800499D01*
X84733497Y-113769737D01*
X84879179Y-113709394D01*
X85010289Y-113621789D01*
X85121789Y-113510289D01*
X85209394Y-113379179D01*
X85269737Y-113233497D01*
X85282138Y-113171153D01*
X155699500Y-113171153D01*
X155699500Y-113328846D01*
X155730261Y-113483489D01*
X155730264Y-113483501D01*
X155790602Y-113629172D01*
X155790609Y-113629185D01*
X155878210Y-113760288D01*
X155878213Y-113760292D01*
X155989707Y-113871786D01*
X155989711Y-113871789D01*
X156120814Y-113959390D01*
X156120827Y-113959397D01*
X156266498Y-114019735D01*
X156266503Y-114019737D01*
X156421153Y-114050499D01*
X156421156Y-114050500D01*
X156421158Y-114050500D01*
X156578844Y-114050500D01*
X156578845Y-114050499D01*
X156733497Y-114019737D01*
X156879179Y-113959394D01*
X157010289Y-113871789D01*
X157121789Y-113760289D01*
X157209394Y-113629179D01*
X157269737Y-113483497D01*
X157300500Y-113328842D01*
X157300500Y-113171158D01*
X157300500Y-113171155D01*
X157300499Y-113171153D01*
X157269738Y-113016510D01*
X157269737Y-113016503D01*
X157230242Y-112921153D01*
X157209397Y-112870827D01*
X157209390Y-112870814D01*
X157121789Y-112739711D01*
X157121786Y-112739707D01*
X157010292Y-112628213D01*
X157010288Y-112628210D01*
X156879185Y-112540609D01*
X156879172Y-112540602D01*
X156733501Y-112480264D01*
X156733489Y-112480261D01*
X156578845Y-112449500D01*
X156578842Y-112449500D01*
X156421158Y-112449500D01*
X156421155Y-112449500D01*
X156266510Y-112480261D01*
X156266498Y-112480264D01*
X156120827Y-112540602D01*
X156120814Y-112540609D01*
X155989711Y-112628210D01*
X155989707Y-112628213D01*
X155878213Y-112739707D01*
X155878210Y-112739711D01*
X155790609Y-112870814D01*
X155790602Y-112870827D01*
X155730264Y-113016498D01*
X155730261Y-113016510D01*
X155699500Y-113171153D01*
X85282138Y-113171153D01*
X85288161Y-113140874D01*
X85300500Y-113078844D01*
X85300500Y-112921155D01*
X85300499Y-112921153D01*
X85269738Y-112766510D01*
X85269737Y-112766503D01*
X85269735Y-112766498D01*
X85209397Y-112620827D01*
X85209390Y-112620814D01*
X85121789Y-112489711D01*
X85121786Y-112489707D01*
X85010292Y-112378213D01*
X85010288Y-112378210D01*
X84879185Y-112290609D01*
X84879172Y-112290602D01*
X84733501Y-112230264D01*
X84733489Y-112230261D01*
X84578845Y-112199500D01*
X84578842Y-112199500D01*
X84421158Y-112199500D01*
X84421155Y-112199500D01*
X84266510Y-112230261D01*
X84266498Y-112230264D01*
X84120827Y-112290602D01*
X84120814Y-112290609D01*
X83989711Y-112378210D01*
X83989707Y-112378213D01*
X83878213Y-112489707D01*
X83878210Y-112489711D01*
X83790609Y-112620814D01*
X83790602Y-112620827D01*
X83730264Y-112766498D01*
X83730261Y-112766510D01*
X83699500Y-112921153D01*
X71250000Y-112921153D01*
X71250000Y-111921153D01*
X112699500Y-111921153D01*
X112699500Y-112078846D01*
X112730261Y-112233489D01*
X112730264Y-112233501D01*
X112790602Y-112379172D01*
X112790609Y-112379185D01*
X112878210Y-112510288D01*
X112878213Y-112510292D01*
X112989707Y-112621786D01*
X112989711Y-112621789D01*
X113120814Y-112709390D01*
X113120827Y-112709397D01*
X113194013Y-112739711D01*
X113266503Y-112769737D01*
X113421153Y-112800499D01*
X113421156Y-112800500D01*
X113421158Y-112800500D01*
X113578844Y-112800500D01*
X113578845Y-112800499D01*
X113733497Y-112769737D01*
X113879179Y-112709394D01*
X114010289Y-112621789D01*
X114121789Y-112510289D01*
X114209394Y-112379179D01*
X114269737Y-112233497D01*
X114300500Y-112078842D01*
X114300500Y-111921158D01*
X114300500Y-111921155D01*
X114300499Y-111921153D01*
X121199500Y-111921153D01*
X121199500Y-112078846D01*
X121230261Y-112233489D01*
X121230264Y-112233501D01*
X121290602Y-112379172D01*
X121290609Y-112379185D01*
X121378210Y-112510288D01*
X121378213Y-112510292D01*
X121489707Y-112621786D01*
X121489711Y-112621789D01*
X121620814Y-112709390D01*
X121620827Y-112709397D01*
X121694013Y-112739711D01*
X121766503Y-112769737D01*
X121921153Y-112800499D01*
X121921156Y-112800500D01*
X121921158Y-112800500D01*
X122078844Y-112800500D01*
X122078845Y-112800499D01*
X122233497Y-112769737D01*
X122379179Y-112709394D01*
X122510289Y-112621789D01*
X122621789Y-112510289D01*
X122709394Y-112379179D01*
X122769737Y-112233497D01*
X122800500Y-112078842D01*
X122800500Y-111921158D01*
X122800500Y-111921155D01*
X122800499Y-111921153D01*
X136199500Y-111921153D01*
X136199500Y-112078846D01*
X136230261Y-112233489D01*
X136230264Y-112233501D01*
X136290602Y-112379172D01*
X136290609Y-112379185D01*
X136378210Y-112510288D01*
X136378213Y-112510292D01*
X136489707Y-112621786D01*
X136489711Y-112621789D01*
X136620814Y-112709390D01*
X136620827Y-112709397D01*
X136694013Y-112739711D01*
X136766503Y-112769737D01*
X136921153Y-112800499D01*
X136921156Y-112800500D01*
X136921158Y-112800500D01*
X137078844Y-112800500D01*
X137078845Y-112800499D01*
X137233497Y-112769737D01*
X137379179Y-112709394D01*
X137510289Y-112621789D01*
X137621789Y-112510289D01*
X137709394Y-112379179D01*
X137769737Y-112233497D01*
X137800500Y-112078842D01*
X137800500Y-111921158D01*
X137800500Y-111921155D01*
X137800499Y-111921153D01*
X137769738Y-111766510D01*
X137769737Y-111766503D01*
X137769735Y-111766498D01*
X137709397Y-111620827D01*
X137709390Y-111620814D01*
X137621789Y-111489711D01*
X137621786Y-111489707D01*
X137510292Y-111378213D01*
X137510288Y-111378210D01*
X137379185Y-111290609D01*
X137379172Y-111290602D01*
X137233501Y-111230264D01*
X137233489Y-111230261D01*
X137078845Y-111199500D01*
X137078842Y-111199500D01*
X136921158Y-111199500D01*
X136921155Y-111199500D01*
X136766510Y-111230261D01*
X136766498Y-111230264D01*
X136620827Y-111290602D01*
X136620814Y-111290609D01*
X136489711Y-111378210D01*
X136489707Y-111378213D01*
X136378213Y-111489707D01*
X136378210Y-111489711D01*
X136290609Y-111620814D01*
X136290602Y-111620827D01*
X136230264Y-111766498D01*
X136230261Y-111766510D01*
X136199500Y-111921153D01*
X122800499Y-111921153D01*
X122769738Y-111766510D01*
X122769737Y-111766503D01*
X122769735Y-111766498D01*
X122709397Y-111620827D01*
X122709390Y-111620814D01*
X122621789Y-111489711D01*
X122621786Y-111489707D01*
X122510292Y-111378213D01*
X122510288Y-111378210D01*
X122379185Y-111290609D01*
X122379172Y-111290602D01*
X122233501Y-111230264D01*
X122233489Y-111230261D01*
X122078845Y-111199500D01*
X122078842Y-111199500D01*
X121921158Y-111199500D01*
X121921155Y-111199500D01*
X121766510Y-111230261D01*
X121766498Y-111230264D01*
X121620827Y-111290602D01*
X121620814Y-111290609D01*
X121489711Y-111378210D01*
X121489707Y-111378213D01*
X121378213Y-111489707D01*
X121378210Y-111489711D01*
X121290609Y-111620814D01*
X121290602Y-111620827D01*
X121230264Y-111766498D01*
X121230261Y-111766510D01*
X121199500Y-111921153D01*
X114300499Y-111921153D01*
X114269738Y-111766510D01*
X114269737Y-111766503D01*
X114269735Y-111766498D01*
X114209397Y-111620827D01*
X114209390Y-111620814D01*
X114121789Y-111489711D01*
X114121786Y-111489707D01*
X114010292Y-111378213D01*
X114010288Y-111378210D01*
X113879185Y-111290609D01*
X113879172Y-111290602D01*
X113733501Y-111230264D01*
X113733489Y-111230261D01*
X113578845Y-111199500D01*
X113578842Y-111199500D01*
X113421158Y-111199500D01*
X113421155Y-111199500D01*
X113266510Y-111230261D01*
X113266498Y-111230264D01*
X113120827Y-111290602D01*
X113120814Y-111290609D01*
X112989711Y-111378210D01*
X112989707Y-111378213D01*
X112878213Y-111489707D01*
X112878210Y-111489711D01*
X112790609Y-111620814D01*
X112790602Y-111620827D01*
X112730264Y-111766498D01*
X112730261Y-111766510D01*
X112699500Y-111921153D01*
X71250000Y-111921153D01*
X71250000Y-109921153D01*
X108199500Y-109921153D01*
X108199500Y-110078846D01*
X108230261Y-110233489D01*
X108230264Y-110233501D01*
X108290602Y-110379172D01*
X108290609Y-110379185D01*
X108378210Y-110510288D01*
X108378213Y-110510292D01*
X108489707Y-110621786D01*
X108489711Y-110621789D01*
X108620814Y-110709390D01*
X108620827Y-110709397D01*
X108766498Y-110769735D01*
X108766503Y-110769737D01*
X108921153Y-110800499D01*
X108921156Y-110800500D01*
X108921158Y-110800500D01*
X109078844Y-110800500D01*
X109078845Y-110800499D01*
X109233497Y-110769737D01*
X109379179Y-110709394D01*
X109510289Y-110621789D01*
X109621789Y-110510289D01*
X109709394Y-110379179D01*
X109769737Y-110233497D01*
X109800500Y-110078842D01*
X109800500Y-109921158D01*
X109800500Y-109921155D01*
X109800499Y-109921153D01*
X109769738Y-109766510D01*
X109769737Y-109766503D01*
X109709794Y-109621786D01*
X109709397Y-109620827D01*
X109709390Y-109620814D01*
X109621789Y-109489711D01*
X109621786Y-109489707D01*
X109510292Y-109378213D01*
X109510288Y-109378210D01*
X109379185Y-109290609D01*
X109379172Y-109290602D01*
X109233501Y-109230264D01*
X109233489Y-109230261D01*
X109078845Y-109199500D01*
X109078842Y-109199500D01*
X108921158Y-109199500D01*
X108921155Y-109199500D01*
X108766510Y-109230261D01*
X108766498Y-109230264D01*
X108620827Y-109290602D01*
X108620814Y-109290609D01*
X108489711Y-109378210D01*
X108489707Y-109378213D01*
X108378213Y-109489707D01*
X108378210Y-109489711D01*
X108290609Y-109620814D01*
X108290602Y-109620827D01*
X108230264Y-109766498D01*
X108230261Y-109766510D01*
X108199500Y-109921153D01*
X71250000Y-109921153D01*
X71250000Y-108921153D01*
X82699500Y-108921153D01*
X82699500Y-109078846D01*
X82730261Y-109233489D01*
X82730264Y-109233501D01*
X82790602Y-109379172D01*
X82790609Y-109379185D01*
X82878210Y-109510288D01*
X82878213Y-109510292D01*
X82989707Y-109621786D01*
X82989711Y-109621789D01*
X83120814Y-109709390D01*
X83120827Y-109709397D01*
X83258683Y-109766498D01*
X83266503Y-109769737D01*
X83421153Y-109800499D01*
X83421156Y-109800500D01*
X83421158Y-109800500D01*
X83578844Y-109800500D01*
X83578845Y-109800499D01*
X83589179Y-109798443D01*
X83614287Y-109793450D01*
X83614292Y-109793449D01*
X83699800Y-109776439D01*
X83733497Y-109769737D01*
X83879179Y-109709394D01*
X84010289Y-109621789D01*
X84121789Y-109510289D01*
X84209394Y-109379179D01*
X84269737Y-109233497D01*
X84300500Y-109078842D01*
X84300500Y-108921158D01*
X84300500Y-108921155D01*
X84300499Y-108921153D01*
X135699500Y-108921153D01*
X135699500Y-109078846D01*
X135730261Y-109233489D01*
X135730264Y-109233501D01*
X135790602Y-109379172D01*
X135790609Y-109379185D01*
X135878210Y-109510288D01*
X135878213Y-109510292D01*
X135989707Y-109621786D01*
X135989711Y-109621789D01*
X136120814Y-109709390D01*
X136120827Y-109709397D01*
X136258683Y-109766498D01*
X136266503Y-109769737D01*
X136421153Y-109800499D01*
X136421156Y-109800500D01*
X136421158Y-109800500D01*
X136578844Y-109800500D01*
X136578845Y-109800499D01*
X136733497Y-109769737D01*
X136879179Y-109709394D01*
X137010289Y-109621789D01*
X137121789Y-109510289D01*
X137209394Y-109379179D01*
X137269737Y-109233497D01*
X137300500Y-109078842D01*
X137300500Y-108921158D01*
X137300500Y-108921155D01*
X137300499Y-108921153D01*
X137269737Y-108766503D01*
X137250224Y-108719394D01*
X137209397Y-108620827D01*
X137209390Y-108620814D01*
X137121789Y-108489711D01*
X137121786Y-108489707D01*
X137010292Y-108378213D01*
X137010288Y-108378210D01*
X136879185Y-108290609D01*
X136879172Y-108290602D01*
X136733501Y-108230264D01*
X136733489Y-108230261D01*
X136578845Y-108199500D01*
X136578842Y-108199500D01*
X136421158Y-108199500D01*
X136421155Y-108199500D01*
X136266510Y-108230261D01*
X136266498Y-108230264D01*
X136120827Y-108290602D01*
X136120814Y-108290609D01*
X135989711Y-108378210D01*
X135989707Y-108378213D01*
X135878213Y-108489707D01*
X135878210Y-108489711D01*
X135790609Y-108620814D01*
X135790602Y-108620827D01*
X135730264Y-108766498D01*
X135730261Y-108766510D01*
X135699500Y-108921153D01*
X84300499Y-108921153D01*
X84269737Y-108766503D01*
X84250224Y-108719394D01*
X84209397Y-108620827D01*
X84209390Y-108620814D01*
X84121789Y-108489711D01*
X84121786Y-108489707D01*
X84010292Y-108378213D01*
X84010288Y-108378210D01*
X83879185Y-108290609D01*
X83879172Y-108290602D01*
X83733501Y-108230264D01*
X83733489Y-108230261D01*
X83578845Y-108199500D01*
X83578842Y-108199500D01*
X83421158Y-108199500D01*
X83421155Y-108199500D01*
X83266510Y-108230261D01*
X83266498Y-108230264D01*
X83120827Y-108290602D01*
X83120814Y-108290609D01*
X82989711Y-108378210D01*
X82989707Y-108378213D01*
X82878213Y-108489707D01*
X82878210Y-108489711D01*
X82790609Y-108620814D01*
X82790602Y-108620827D01*
X82730264Y-108766498D01*
X82730261Y-108766510D01*
X82699500Y-108921153D01*
X71250000Y-108921153D01*
X71250000Y-107921153D01*
X86199500Y-107921153D01*
X86199500Y-108078846D01*
X86230261Y-108233489D01*
X86230264Y-108233501D01*
X86290602Y-108379172D01*
X86290609Y-108379185D01*
X86378210Y-108510288D01*
X86378213Y-108510292D01*
X86489707Y-108621786D01*
X86489711Y-108621789D01*
X86620814Y-108709390D01*
X86620827Y-108709397D01*
X86758683Y-108766498D01*
X86766503Y-108769737D01*
X86921153Y-108800499D01*
X86921156Y-108800500D01*
X86921158Y-108800500D01*
X87078844Y-108800500D01*
X87078845Y-108800499D01*
X87233497Y-108769737D01*
X87346166Y-108723067D01*
X87379172Y-108709397D01*
X87379172Y-108709396D01*
X87379179Y-108709394D01*
X87510289Y-108621789D01*
X87621789Y-108510289D01*
X87709394Y-108379179D01*
X87769737Y-108233497D01*
X87800500Y-108078842D01*
X87800500Y-107921158D01*
X87800500Y-107921155D01*
X87800499Y-107921153D01*
X110199500Y-107921153D01*
X110199500Y-108078846D01*
X110230261Y-108233489D01*
X110230264Y-108233501D01*
X110290602Y-108379172D01*
X110290609Y-108379185D01*
X110378210Y-108510288D01*
X110378213Y-108510292D01*
X110489707Y-108621786D01*
X110489711Y-108621789D01*
X110620814Y-108709390D01*
X110620827Y-108709397D01*
X110758683Y-108766498D01*
X110766503Y-108769737D01*
X110921153Y-108800499D01*
X110921156Y-108800500D01*
X110921158Y-108800500D01*
X111078844Y-108800500D01*
X111078845Y-108800499D01*
X111233497Y-108769737D01*
X111346166Y-108723067D01*
X111379172Y-108709397D01*
X111379172Y-108709396D01*
X111379179Y-108709394D01*
X111510289Y-108621789D01*
X111621789Y-108510289D01*
X111709394Y-108379179D01*
X111769737Y-108233497D01*
X111800500Y-108078842D01*
X111800500Y-107931153D01*
X112709500Y-107931153D01*
X112709500Y-108088846D01*
X112740261Y-108243489D01*
X112740264Y-108243501D01*
X112800602Y-108389172D01*
X112800609Y-108389185D01*
X112888210Y-108520288D01*
X112888213Y-108520292D01*
X112999707Y-108631786D01*
X112999711Y-108631789D01*
X113130814Y-108719390D01*
X113130827Y-108719397D01*
X113252363Y-108769738D01*
X113276503Y-108779737D01*
X113431153Y-108810499D01*
X113431156Y-108810500D01*
X113431158Y-108810500D01*
X113588844Y-108810500D01*
X113588845Y-108810499D01*
X113743497Y-108779737D01*
X113889179Y-108719394D01*
X114020289Y-108631789D01*
X114131789Y-108520289D01*
X114219394Y-108389179D01*
X114223938Y-108378210D01*
X114260224Y-108290606D01*
X114279737Y-108243497D01*
X114310500Y-108088842D01*
X114310500Y-107931158D01*
X114308510Y-107921153D01*
X120199500Y-107921153D01*
X120199500Y-108078846D01*
X120230261Y-108233489D01*
X120230264Y-108233501D01*
X120290602Y-108379172D01*
X120290609Y-108379185D01*
X120378210Y-108510288D01*
X120378213Y-108510292D01*
X120489707Y-108621786D01*
X120489711Y-108621789D01*
X120620814Y-108709390D01*
X120620827Y-108709397D01*
X120758683Y-108766498D01*
X120766503Y-108769737D01*
X120921153Y-108800499D01*
X120921156Y-108800500D01*
X120921158Y-108800500D01*
X121078844Y-108800500D01*
X121078845Y-108800499D01*
X121233497Y-108769737D01*
X121346166Y-108723067D01*
X121379172Y-108709397D01*
X121379172Y-108709396D01*
X121379179Y-108709394D01*
X121510289Y-108621789D01*
X121621789Y-108510289D01*
X121709394Y-108379179D01*
X121769737Y-108233497D01*
X121800500Y-108078842D01*
X121800500Y-107921158D01*
X121800500Y-107921155D01*
X121800499Y-107921153D01*
X123199500Y-107921153D01*
X123199500Y-108078846D01*
X123230261Y-108233489D01*
X123230264Y-108233501D01*
X123290602Y-108379172D01*
X123290609Y-108379185D01*
X123378210Y-108510288D01*
X123378213Y-108510292D01*
X123489707Y-108621786D01*
X123489711Y-108621789D01*
X123620814Y-108709390D01*
X123620827Y-108709397D01*
X123758683Y-108766498D01*
X123766503Y-108769737D01*
X123921153Y-108800499D01*
X123921156Y-108800500D01*
X123921158Y-108800500D01*
X124078844Y-108800500D01*
X124078845Y-108800499D01*
X124089179Y-108798443D01*
X124114287Y-108793450D01*
X124114292Y-108793449D01*
X124199800Y-108776439D01*
X124233497Y-108769737D01*
X124346166Y-108723067D01*
X124379172Y-108709397D01*
X124379172Y-108709396D01*
X124379179Y-108709394D01*
X124510289Y-108621789D01*
X124621789Y-108510289D01*
X124709394Y-108379179D01*
X124769737Y-108233497D01*
X124800500Y-108078842D01*
X124800500Y-107921158D01*
X124800500Y-107921155D01*
X124800499Y-107921153D01*
X139199500Y-107921153D01*
X139199500Y-108078846D01*
X139230261Y-108233489D01*
X139230264Y-108233501D01*
X139290602Y-108379172D01*
X139290609Y-108379185D01*
X139378210Y-108510288D01*
X139378213Y-108510292D01*
X139489707Y-108621786D01*
X139489711Y-108621789D01*
X139620814Y-108709390D01*
X139620827Y-108709397D01*
X139758683Y-108766498D01*
X139766503Y-108769737D01*
X139921153Y-108800499D01*
X139921156Y-108800500D01*
X139921158Y-108800500D01*
X140078844Y-108800500D01*
X140078845Y-108800499D01*
X140233497Y-108769737D01*
X140346166Y-108723067D01*
X140379172Y-108709397D01*
X140379172Y-108709396D01*
X140379179Y-108709394D01*
X140510289Y-108621789D01*
X140621789Y-108510289D01*
X140709394Y-108379179D01*
X140769737Y-108233497D01*
X140800500Y-108078842D01*
X140800500Y-107921158D01*
X140800500Y-107921155D01*
X140800499Y-107921153D01*
X140769737Y-107766503D01*
X140713539Y-107630827D01*
X140709397Y-107620827D01*
X140709390Y-107620814D01*
X140621789Y-107489711D01*
X140621786Y-107489707D01*
X140510292Y-107378213D01*
X140510288Y-107378210D01*
X140379185Y-107290609D01*
X140379172Y-107290602D01*
X140233501Y-107230264D01*
X140233489Y-107230261D01*
X140078845Y-107199500D01*
X140078842Y-107199500D01*
X139921158Y-107199500D01*
X139921155Y-107199500D01*
X139766510Y-107230261D01*
X139766498Y-107230264D01*
X139620827Y-107290602D01*
X139620814Y-107290609D01*
X139489711Y-107378210D01*
X139489707Y-107378213D01*
X139378213Y-107489707D01*
X139378210Y-107489711D01*
X139290609Y-107620814D01*
X139290602Y-107620827D01*
X139230264Y-107766498D01*
X139230261Y-107766510D01*
X139199500Y-107921153D01*
X124800499Y-107921153D01*
X124769737Y-107766503D01*
X124713539Y-107630827D01*
X124709397Y-107620827D01*
X124709390Y-107620814D01*
X124621789Y-107489711D01*
X124621786Y-107489707D01*
X124510292Y-107378213D01*
X124510288Y-107378210D01*
X124379185Y-107290609D01*
X124379172Y-107290602D01*
X124233501Y-107230264D01*
X124233489Y-107230261D01*
X124078845Y-107199500D01*
X124078842Y-107199500D01*
X123921158Y-107199500D01*
X123921155Y-107199500D01*
X123766510Y-107230261D01*
X123766498Y-107230264D01*
X123620827Y-107290602D01*
X123620814Y-107290609D01*
X123489711Y-107378210D01*
X123489707Y-107378213D01*
X123378213Y-107489707D01*
X123378210Y-107489711D01*
X123290609Y-107620814D01*
X123290602Y-107620827D01*
X123230264Y-107766498D01*
X123230261Y-107766510D01*
X123199500Y-107921153D01*
X121800499Y-107921153D01*
X121769737Y-107766503D01*
X121713539Y-107630827D01*
X121709397Y-107620827D01*
X121709390Y-107620814D01*
X121621789Y-107489711D01*
X121621786Y-107489707D01*
X121510292Y-107378213D01*
X121510288Y-107378210D01*
X121379185Y-107290609D01*
X121379172Y-107290602D01*
X121233501Y-107230264D01*
X121233489Y-107230261D01*
X121078845Y-107199500D01*
X121078842Y-107199500D01*
X120921158Y-107199500D01*
X120921155Y-107199500D01*
X120766510Y-107230261D01*
X120766498Y-107230264D01*
X120620827Y-107290602D01*
X120620814Y-107290609D01*
X120489711Y-107378210D01*
X120489707Y-107378213D01*
X120378213Y-107489707D01*
X120378210Y-107489711D01*
X120290609Y-107620814D01*
X120290602Y-107620827D01*
X120230264Y-107766498D01*
X120230261Y-107766510D01*
X120199500Y-107921153D01*
X114308510Y-107921153D01*
X114279737Y-107776503D01*
X114275593Y-107766498D01*
X114219397Y-107630827D01*
X114219390Y-107630814D01*
X114131789Y-107499711D01*
X114131786Y-107499707D01*
X114020292Y-107388213D01*
X114020288Y-107388210D01*
X113889185Y-107300609D01*
X113889172Y-107300602D01*
X113743501Y-107240264D01*
X113743489Y-107240261D01*
X113588845Y-107209500D01*
X113588842Y-107209500D01*
X113431158Y-107209500D01*
X113431155Y-107209500D01*
X113276510Y-107240261D01*
X113276498Y-107240264D01*
X113130827Y-107300602D01*
X113130814Y-107300609D01*
X112999711Y-107388210D01*
X112999707Y-107388213D01*
X112888213Y-107499707D01*
X112888210Y-107499711D01*
X112800609Y-107630814D01*
X112800602Y-107630827D01*
X112740264Y-107776498D01*
X112740261Y-107776510D01*
X112709500Y-107931153D01*
X111800500Y-107931153D01*
X111800500Y-107921158D01*
X111800500Y-107921155D01*
X111800499Y-107921153D01*
X111769737Y-107766503D01*
X111713539Y-107630827D01*
X111709397Y-107620827D01*
X111709390Y-107620814D01*
X111621789Y-107489711D01*
X111621786Y-107489707D01*
X111510292Y-107378213D01*
X111510288Y-107378210D01*
X111379185Y-107290609D01*
X111379172Y-107290602D01*
X111233501Y-107230264D01*
X111233489Y-107230261D01*
X111078845Y-107199500D01*
X111078842Y-107199500D01*
X110921158Y-107199500D01*
X110921155Y-107199500D01*
X110766510Y-107230261D01*
X110766498Y-107230264D01*
X110620827Y-107290602D01*
X110620814Y-107290609D01*
X110489711Y-107378210D01*
X110489707Y-107378213D01*
X110378213Y-107489707D01*
X110378210Y-107489711D01*
X110290609Y-107620814D01*
X110290602Y-107620827D01*
X110230264Y-107766498D01*
X110230261Y-107766510D01*
X110199500Y-107921153D01*
X87800499Y-107921153D01*
X87769737Y-107766503D01*
X87713539Y-107630827D01*
X87709397Y-107620827D01*
X87709390Y-107620814D01*
X87621789Y-107489711D01*
X87621786Y-107489707D01*
X87510292Y-107378213D01*
X87510288Y-107378210D01*
X87379185Y-107290609D01*
X87379172Y-107290602D01*
X87233501Y-107230264D01*
X87233489Y-107230261D01*
X87078845Y-107199500D01*
X87078842Y-107199500D01*
X86921158Y-107199500D01*
X86921155Y-107199500D01*
X86766510Y-107230261D01*
X86766498Y-107230264D01*
X86620827Y-107290602D01*
X86620814Y-107290609D01*
X86489711Y-107378210D01*
X86489707Y-107378213D01*
X86378213Y-107489707D01*
X86378210Y-107489711D01*
X86290609Y-107620814D01*
X86290602Y-107620827D01*
X86230264Y-107766498D01*
X86230261Y-107766510D01*
X86199500Y-107921153D01*
X71250000Y-107921153D01*
X71250000Y-104000000D01*
X70624500Y-104000000D01*
X70557461Y-103980315D01*
X70511706Y-103927511D01*
X70500500Y-103876000D01*
X70500500Y-103330135D01*
X85630000Y-103330135D01*
X85630000Y-104949870D01*
X85630001Y-104949876D01*
X85636408Y-105009483D01*
X85686702Y-105144328D01*
X85686706Y-105144335D01*
X85772952Y-105259544D01*
X85772955Y-105259547D01*
X85888164Y-105345793D01*
X85888171Y-105345797D01*
X86023017Y-105396091D01*
X86023016Y-105396091D01*
X86029944Y-105396835D01*
X86082627Y-105402500D01*
X87702372Y-105402499D01*
X87761983Y-105396091D01*
X87896831Y-105345796D01*
X88012046Y-105259546D01*
X88098296Y-105144331D01*
X88148591Y-105009483D01*
X88155000Y-104949873D01*
X88154999Y-104911197D01*
X88174682Y-104844161D01*
X88227485Y-104798405D01*
X88296643Y-104788460D01*
X88360199Y-104817483D01*
X88379317Y-104838312D01*
X88469519Y-104962464D01*
X88610036Y-105102981D01*
X88770806Y-105219787D01*
X88848833Y-105259544D01*
X88947867Y-105310005D01*
X88947870Y-105310006D01*
X89042366Y-105340709D01*
X89136864Y-105371413D01*
X89333139Y-105402500D01*
X89333140Y-105402500D01*
X89531860Y-105402500D01*
X89531861Y-105402500D01*
X89728136Y-105371413D01*
X89917132Y-105310005D01*
X90094194Y-105219787D01*
X90254964Y-105102981D01*
X90395481Y-104962464D01*
X90512287Y-104801694D01*
X90592015Y-104645218D01*
X90639990Y-104594423D01*
X90707811Y-104577628D01*
X90773946Y-104600165D01*
X90812984Y-104645218D01*
X90892713Y-104801694D01*
X91009519Y-104962464D01*
X91150036Y-105102981D01*
X91310806Y-105219787D01*
X91388833Y-105259544D01*
X91487867Y-105310005D01*
X91487870Y-105310006D01*
X91582366Y-105340709D01*
X91676864Y-105371413D01*
X91873139Y-105402500D01*
X91873140Y-105402500D01*
X92071860Y-105402500D01*
X92071861Y-105402500D01*
X92268136Y-105371413D01*
X92457132Y-105310005D01*
X92634194Y-105219787D01*
X92794964Y-105102981D01*
X92935481Y-104962464D01*
X93052287Y-104801694D01*
X93142505Y-104624632D01*
X93203913Y-104435636D01*
X93235000Y-104239361D01*
X93235000Y-104040639D01*
X93203913Y-103844364D01*
X93142505Y-103655368D01*
X93142505Y-103655367D01*
X93096535Y-103565149D01*
X93052287Y-103478306D01*
X92944635Y-103330135D01*
X104130000Y-103330135D01*
X104130000Y-104949870D01*
X104130001Y-104949876D01*
X104136408Y-105009483D01*
X104186702Y-105144328D01*
X104186706Y-105144335D01*
X104272952Y-105259544D01*
X104272955Y-105259547D01*
X104388164Y-105345793D01*
X104388171Y-105345797D01*
X104523017Y-105396091D01*
X104523016Y-105396091D01*
X104529944Y-105396835D01*
X104582627Y-105402500D01*
X106202372Y-105402499D01*
X106261983Y-105396091D01*
X106396831Y-105345796D01*
X106512046Y-105259546D01*
X106598296Y-105144331D01*
X106648591Y-105009483D01*
X106655000Y-104949873D01*
X106654999Y-104911197D01*
X106674682Y-104844161D01*
X106727485Y-104798405D01*
X106796643Y-104788460D01*
X106860199Y-104817483D01*
X106879317Y-104838312D01*
X106969519Y-104962464D01*
X107110036Y-105102981D01*
X107270806Y-105219787D01*
X107348833Y-105259544D01*
X107447867Y-105310005D01*
X107447870Y-105310006D01*
X107542366Y-105340709D01*
X107636864Y-105371413D01*
X107833139Y-105402500D01*
X107833140Y-105402500D01*
X108031860Y-105402500D01*
X108031861Y-105402500D01*
X108228136Y-105371413D01*
X108417132Y-105310005D01*
X108594194Y-105219787D01*
X108754964Y-105102981D01*
X108895481Y-104962464D01*
X109012287Y-104801694D01*
X109092015Y-104645218D01*
X109139990Y-104594423D01*
X109207811Y-104577628D01*
X109273946Y-104600165D01*
X109312984Y-104645218D01*
X109392713Y-104801694D01*
X109509519Y-104962464D01*
X109650036Y-105102981D01*
X109810806Y-105219787D01*
X109888833Y-105259544D01*
X109987867Y-105310005D01*
X109987870Y-105310006D01*
X110082366Y-105340709D01*
X110176864Y-105371413D01*
X110373139Y-105402500D01*
X110373140Y-105402500D01*
X110571860Y-105402500D01*
X110571861Y-105402500D01*
X110768136Y-105371413D01*
X110957132Y-105310005D01*
X111134194Y-105219787D01*
X111294964Y-105102981D01*
X111435481Y-104962464D01*
X111552287Y-104801694D01*
X111642505Y-104624632D01*
X111703913Y-104435636D01*
X111735000Y-104239361D01*
X111735000Y-104040639D01*
X111703913Y-103844364D01*
X111642505Y-103655368D01*
X111642505Y-103655367D01*
X111596535Y-103565149D01*
X111552287Y-103478306D01*
X111444635Y-103330135D01*
X122630000Y-103330135D01*
X122630000Y-104949870D01*
X122630001Y-104949876D01*
X122636408Y-105009483D01*
X122686702Y-105144328D01*
X122686706Y-105144335D01*
X122772952Y-105259544D01*
X122772955Y-105259547D01*
X122888164Y-105345793D01*
X122888171Y-105345797D01*
X123023017Y-105396091D01*
X123023016Y-105396091D01*
X123029944Y-105396835D01*
X123082627Y-105402500D01*
X124702372Y-105402499D01*
X124761983Y-105396091D01*
X124896831Y-105345796D01*
X125012046Y-105259546D01*
X125098296Y-105144331D01*
X125148591Y-105009483D01*
X125155000Y-104949873D01*
X125154999Y-104911197D01*
X125174682Y-104844161D01*
X125227485Y-104798405D01*
X125296643Y-104788460D01*
X125360199Y-104817483D01*
X125379317Y-104838312D01*
X125469519Y-104962464D01*
X125610036Y-105102981D01*
X125770806Y-105219787D01*
X125848833Y-105259544D01*
X125947867Y-105310005D01*
X125947870Y-105310006D01*
X126042366Y-105340709D01*
X126136864Y-105371413D01*
X126333139Y-105402500D01*
X126333140Y-105402500D01*
X126531860Y-105402500D01*
X126531861Y-105402500D01*
X126728136Y-105371413D01*
X126917132Y-105310005D01*
X127094194Y-105219787D01*
X127254964Y-105102981D01*
X127395481Y-104962464D01*
X127512287Y-104801694D01*
X127592015Y-104645218D01*
X127639990Y-104594423D01*
X127707811Y-104577628D01*
X127773946Y-104600165D01*
X127812984Y-104645218D01*
X127892713Y-104801694D01*
X128009519Y-104962464D01*
X128150036Y-105102981D01*
X128310806Y-105219787D01*
X128388833Y-105259544D01*
X128487867Y-105310005D01*
X128487870Y-105310006D01*
X128582366Y-105340709D01*
X128676864Y-105371413D01*
X128873139Y-105402500D01*
X128873140Y-105402500D01*
X129071860Y-105402500D01*
X129071861Y-105402500D01*
X129268136Y-105371413D01*
X129457132Y-105310005D01*
X129634194Y-105219787D01*
X129794964Y-105102981D01*
X129935481Y-104962464D01*
X130052287Y-104801694D01*
X130142505Y-104624632D01*
X130203913Y-104435636D01*
X130235000Y-104239361D01*
X130235000Y-104040639D01*
X130203913Y-103844364D01*
X130142505Y-103655368D01*
X130142505Y-103655367D01*
X130096535Y-103565149D01*
X130052287Y-103478306D01*
X129944635Y-103330135D01*
X140630000Y-103330135D01*
X140630000Y-104949870D01*
X140630001Y-104949876D01*
X140636408Y-105009483D01*
X140686702Y-105144328D01*
X140686706Y-105144335D01*
X140772952Y-105259544D01*
X140772955Y-105259547D01*
X140888164Y-105345793D01*
X140888171Y-105345797D01*
X141023017Y-105396091D01*
X141023016Y-105396091D01*
X141029944Y-105396835D01*
X141082627Y-105402500D01*
X142702372Y-105402499D01*
X142761983Y-105396091D01*
X142896831Y-105345796D01*
X143012046Y-105259546D01*
X143098296Y-105144331D01*
X143148591Y-105009483D01*
X143155000Y-104949873D01*
X143154999Y-104911197D01*
X143174682Y-104844161D01*
X143227485Y-104798405D01*
X143296643Y-104788460D01*
X143360199Y-104817483D01*
X143379317Y-104838312D01*
X143469519Y-104962464D01*
X143610036Y-105102981D01*
X143770806Y-105219787D01*
X143848833Y-105259544D01*
X143947867Y-105310005D01*
X143947870Y-105310006D01*
X144042366Y-105340709D01*
X144136864Y-105371413D01*
X144333139Y-105402500D01*
X144333140Y-105402500D01*
X144531860Y-105402500D01*
X144531861Y-105402500D01*
X144728136Y-105371413D01*
X144917132Y-105310005D01*
X145094194Y-105219787D01*
X145254964Y-105102981D01*
X145395481Y-104962464D01*
X145512287Y-104801694D01*
X145592015Y-104645218D01*
X145639990Y-104594423D01*
X145707811Y-104577628D01*
X145773946Y-104600165D01*
X145812984Y-104645218D01*
X145892713Y-104801694D01*
X146009519Y-104962464D01*
X146150036Y-105102981D01*
X146310806Y-105219787D01*
X146388833Y-105259544D01*
X146487867Y-105310005D01*
X146487870Y-105310006D01*
X146582366Y-105340709D01*
X146676864Y-105371413D01*
X146873139Y-105402500D01*
X146873140Y-105402500D01*
X147071860Y-105402500D01*
X147071861Y-105402500D01*
X147268136Y-105371413D01*
X147457132Y-105310005D01*
X147634194Y-105219787D01*
X147794964Y-105102981D01*
X147935481Y-104962464D01*
X148052287Y-104801694D01*
X148142505Y-104624632D01*
X148203913Y-104435636D01*
X148235000Y-104239361D01*
X148235000Y-104040639D01*
X148203913Y-103844364D01*
X148142505Y-103655368D01*
X148142505Y-103655367D01*
X148096535Y-103565149D01*
X148052287Y-103478306D01*
X147935481Y-103317536D01*
X147794964Y-103177019D01*
X147634194Y-103060213D01*
X147457132Y-102969994D01*
X147457129Y-102969993D01*
X147268137Y-102908587D01*
X147169998Y-102893043D01*
X147071861Y-102877500D01*
X146873139Y-102877500D01*
X146807714Y-102887862D01*
X146676862Y-102908587D01*
X146487870Y-102969993D01*
X146487867Y-102969994D01*
X146310805Y-103060213D01*
X146150033Y-103177021D01*
X146009521Y-103317533D01*
X145892713Y-103478305D01*
X145812985Y-103634780D01*
X145765010Y-103685576D01*
X145697189Y-103702371D01*
X145631054Y-103679833D01*
X145592015Y-103634780D01*
X145572679Y-103596832D01*
X145512287Y-103478306D01*
X145395481Y-103317536D01*
X145254964Y-103177019D01*
X145094194Y-103060213D01*
X144917132Y-102969994D01*
X144917129Y-102969993D01*
X144728137Y-102908587D01*
X144629998Y-102893043D01*
X144531861Y-102877500D01*
X144333139Y-102877500D01*
X144267714Y-102887862D01*
X144136862Y-102908587D01*
X143947870Y-102969993D01*
X143947867Y-102969994D01*
X143770805Y-103060213D01*
X143610033Y-103177021D01*
X143469521Y-103317533D01*
X143469521Y-103317534D01*
X143469519Y-103317536D01*
X143432272Y-103368802D01*
X143379317Y-103441688D01*
X143323987Y-103484353D01*
X143254373Y-103490332D01*
X143192578Y-103457726D01*
X143158221Y-103396887D01*
X143154999Y-103368802D01*
X143154999Y-103330129D01*
X143154998Y-103330123D01*
X143154997Y-103330116D01*
X143148591Y-103270517D01*
X143113719Y-103177021D01*
X143098297Y-103135671D01*
X143098296Y-103135669D01*
X143042257Y-103060811D01*
X143017840Y-102995347D01*
X143032691Y-102927074D01*
X143082096Y-102877668D01*
X143141524Y-102862500D01*
X143261860Y-102862500D01*
X143261861Y-102862500D01*
X143458136Y-102831413D01*
X143647132Y-102770005D01*
X143824194Y-102679787D01*
X143984964Y-102562981D01*
X144125481Y-102422464D01*
X144242287Y-102261694D01*
X144322015Y-102105218D01*
X144369990Y-102054423D01*
X144437811Y-102037628D01*
X144503946Y-102060165D01*
X144542984Y-102105218D01*
X144622713Y-102261694D01*
X144739519Y-102422464D01*
X144880036Y-102562981D01*
X145040806Y-102679787D01*
X145097182Y-102708512D01*
X145217867Y-102770005D01*
X145217870Y-102770006D01*
X145312366Y-102800709D01*
X145406864Y-102831413D01*
X145603139Y-102862500D01*
X145603140Y-102862500D01*
X145801860Y-102862500D01*
X145801861Y-102862500D01*
X145998136Y-102831413D01*
X146187132Y-102770005D01*
X146364194Y-102679787D01*
X146524964Y-102562981D01*
X146665481Y-102422464D01*
X146782287Y-102261694D01*
X146862015Y-102105218D01*
X146909990Y-102054423D01*
X146977811Y-102037628D01*
X147043946Y-102060165D01*
X147082984Y-102105218D01*
X147162713Y-102261694D01*
X147279519Y-102422464D01*
X147420036Y-102562981D01*
X147580806Y-102679787D01*
X147637182Y-102708512D01*
X147757867Y-102770005D01*
X147757870Y-102770006D01*
X147852366Y-102800709D01*
X147946864Y-102831413D01*
X148143139Y-102862500D01*
X148143140Y-102862500D01*
X148341860Y-102862500D01*
X148341861Y-102862500D01*
X148538136Y-102831413D01*
X148727132Y-102770005D01*
X148904194Y-102679787D01*
X149064964Y-102562981D01*
X149205481Y-102422464D01*
X149322287Y-102261694D01*
X149402015Y-102105218D01*
X149449990Y-102054423D01*
X149517811Y-102037628D01*
X149583946Y-102060165D01*
X149622984Y-102105218D01*
X149702713Y-102261694D01*
X149819519Y-102422464D01*
X149960036Y-102562981D01*
X150120806Y-102679787D01*
X150177182Y-102708512D01*
X150297867Y-102770005D01*
X150297870Y-102770006D01*
X150392366Y-102800709D01*
X150486864Y-102831413D01*
X150683139Y-102862500D01*
X150683140Y-102862500D01*
X150881860Y-102862500D01*
X150881861Y-102862500D01*
X151078136Y-102831413D01*
X151267132Y-102770005D01*
X151444194Y-102679787D01*
X151604964Y-102562981D01*
X151745481Y-102422464D01*
X151862287Y-102261694D01*
X151952505Y-102084632D01*
X152013913Y-101895636D01*
X152045000Y-101699361D01*
X152045000Y-101500639D01*
X152013913Y-101304364D01*
X151952505Y-101115368D01*
X151952505Y-101115367D01*
X151862286Y-100938305D01*
X151745481Y-100777536D01*
X151604964Y-100637019D01*
X151444194Y-100520213D01*
X151267132Y-100429994D01*
X151267129Y-100429993D01*
X151078137Y-100368587D01*
X150979998Y-100353043D01*
X150881861Y-100337500D01*
X150683139Y-100337500D01*
X150617714Y-100347862D01*
X150486862Y-100368587D01*
X150297870Y-100429993D01*
X150297867Y-100429994D01*
X150120805Y-100520213D01*
X149960033Y-100637021D01*
X149819521Y-100777533D01*
X149702713Y-100938305D01*
X149622985Y-101094780D01*
X149575010Y-101145576D01*
X149507189Y-101162371D01*
X149441054Y-101139833D01*
X149402015Y-101094780D01*
X149322286Y-100938305D01*
X149205481Y-100777536D01*
X149064964Y-100637019D01*
X148904194Y-100520213D01*
X148727132Y-100429994D01*
X148727129Y-100429993D01*
X148538137Y-100368587D01*
X148439998Y-100353043D01*
X148341861Y-100337500D01*
X148143139Y-100337500D01*
X148077714Y-100347862D01*
X147946862Y-100368587D01*
X147757870Y-100429993D01*
X147757867Y-100429994D01*
X147580805Y-100520213D01*
X147420033Y-100637021D01*
X147279521Y-100777533D01*
X147162713Y-100938305D01*
X147082985Y-101094780D01*
X147035010Y-101145576D01*
X146967189Y-101162371D01*
X146901054Y-101139833D01*
X146862015Y-101094780D01*
X146782286Y-100938305D01*
X146665481Y-100777536D01*
X146524964Y-100637019D01*
X146364194Y-100520213D01*
X146187132Y-100429994D01*
X146187129Y-100429993D01*
X145998137Y-100368587D01*
X145899998Y-100353043D01*
X145801861Y-100337500D01*
X145603139Y-100337500D01*
X145537714Y-100347862D01*
X145406862Y-100368587D01*
X145217870Y-100429993D01*
X145217867Y-100429994D01*
X145040805Y-100520213D01*
X144880033Y-100637021D01*
X144739521Y-100777533D01*
X144622713Y-100938305D01*
X144542985Y-101094780D01*
X144495010Y-101145576D01*
X144427189Y-101162371D01*
X144361054Y-101139833D01*
X144322015Y-101094780D01*
X144242286Y-100938305D01*
X144125481Y-100777536D01*
X143984964Y-100637019D01*
X143824194Y-100520213D01*
X143647132Y-100429994D01*
X143647129Y-100429993D01*
X143458137Y-100368587D01*
X143359998Y-100353043D01*
X143261861Y-100337500D01*
X143063139Y-100337500D01*
X142997714Y-100347862D01*
X142866862Y-100368587D01*
X142677870Y-100429993D01*
X142677867Y-100429994D01*
X142500805Y-100520213D01*
X142340033Y-100637021D01*
X142199521Y-100777533D01*
X142082713Y-100938305D01*
X141992494Y-101115367D01*
X141992493Y-101115370D01*
X141931087Y-101304362D01*
X141900000Y-101500639D01*
X141900000Y-101699360D01*
X141931087Y-101895637D01*
X141992493Y-102084629D01*
X141992494Y-102084632D01*
X142082713Y-102261694D01*
X142199519Y-102422464D01*
X142340036Y-102562981D01*
X142439301Y-102635101D01*
X142464187Y-102653182D01*
X142506852Y-102708512D01*
X142512831Y-102778126D01*
X142480225Y-102839921D01*
X142419386Y-102874278D01*
X142391301Y-102877500D01*
X141082629Y-102877500D01*
X141082623Y-102877501D01*
X141023016Y-102883908D01*
X140888171Y-102934202D01*
X140888164Y-102934206D01*
X140772955Y-103020452D01*
X140772952Y-103020455D01*
X140686706Y-103135664D01*
X140686702Y-103135671D01*
X140636408Y-103270517D01*
X140631353Y-103317539D01*
X140630001Y-103330123D01*
X140630000Y-103330135D01*
X129944635Y-103330135D01*
X129935481Y-103317536D01*
X129794964Y-103177019D01*
X129634194Y-103060213D01*
X129457132Y-102969994D01*
X129457129Y-102969993D01*
X129268137Y-102908587D01*
X129169998Y-102893043D01*
X129071861Y-102877500D01*
X128873139Y-102877500D01*
X128807714Y-102887862D01*
X128676862Y-102908587D01*
X128487870Y-102969993D01*
X128487867Y-102969994D01*
X128310805Y-103060213D01*
X128150033Y-103177021D01*
X128009521Y-103317533D01*
X127892713Y-103478305D01*
X127812985Y-103634780D01*
X127765010Y-103685576D01*
X127697189Y-103702371D01*
X127631054Y-103679833D01*
X127592015Y-103634780D01*
X127572679Y-103596832D01*
X127512287Y-103478306D01*
X127395481Y-103317536D01*
X127254964Y-103177019D01*
X127094194Y-103060213D01*
X126917132Y-102969994D01*
X126917129Y-102969993D01*
X126728137Y-102908587D01*
X126629998Y-102893043D01*
X126531861Y-102877500D01*
X126333139Y-102877500D01*
X126267714Y-102887862D01*
X126136862Y-102908587D01*
X125947870Y-102969993D01*
X125947867Y-102969994D01*
X125770805Y-103060213D01*
X125610033Y-103177021D01*
X125469521Y-103317533D01*
X125469521Y-103317534D01*
X125469519Y-103317536D01*
X125432272Y-103368802D01*
X125379317Y-103441688D01*
X125323987Y-103484353D01*
X125254373Y-103490332D01*
X125192578Y-103457726D01*
X125158221Y-103396887D01*
X125154999Y-103368802D01*
X125154999Y-103330129D01*
X125154998Y-103330123D01*
X125154997Y-103330116D01*
X125148591Y-103270517D01*
X125113719Y-103177021D01*
X125098297Y-103135671D01*
X125098296Y-103135669D01*
X125042257Y-103060811D01*
X125017840Y-102995347D01*
X125032691Y-102927074D01*
X125082096Y-102877668D01*
X125141524Y-102862500D01*
X125261860Y-102862500D01*
X125261861Y-102862500D01*
X125458136Y-102831413D01*
X125647132Y-102770005D01*
X125824194Y-102679787D01*
X125984964Y-102562981D01*
X126125481Y-102422464D01*
X126242287Y-102261694D01*
X126322015Y-102105218D01*
X126369990Y-102054423D01*
X126437811Y-102037628D01*
X126503946Y-102060165D01*
X126542984Y-102105218D01*
X126622713Y-102261694D01*
X126739519Y-102422464D01*
X126880036Y-102562981D01*
X127040806Y-102679787D01*
X127097182Y-102708512D01*
X127217867Y-102770005D01*
X127217870Y-102770006D01*
X127312366Y-102800709D01*
X127406864Y-102831413D01*
X127603139Y-102862500D01*
X127603140Y-102862500D01*
X127801860Y-102862500D01*
X127801861Y-102862500D01*
X127998136Y-102831413D01*
X128187132Y-102770005D01*
X128364194Y-102679787D01*
X128524964Y-102562981D01*
X128665481Y-102422464D01*
X128782287Y-102261694D01*
X128862015Y-102105218D01*
X128909990Y-102054423D01*
X128977811Y-102037628D01*
X129043946Y-102060165D01*
X129082984Y-102105218D01*
X129162713Y-102261694D01*
X129279519Y-102422464D01*
X129420036Y-102562981D01*
X129580806Y-102679787D01*
X129637182Y-102708512D01*
X129757867Y-102770005D01*
X129757870Y-102770006D01*
X129852366Y-102800709D01*
X129946864Y-102831413D01*
X130143139Y-102862500D01*
X130143140Y-102862500D01*
X130341860Y-102862500D01*
X130341861Y-102862500D01*
X130538136Y-102831413D01*
X130727132Y-102770005D01*
X130904194Y-102679787D01*
X131064964Y-102562981D01*
X131205481Y-102422464D01*
X131322287Y-102261694D01*
X131402015Y-102105218D01*
X131449990Y-102054423D01*
X131517811Y-102037628D01*
X131583946Y-102060165D01*
X131622984Y-102105218D01*
X131702713Y-102261694D01*
X131819519Y-102422464D01*
X131960036Y-102562981D01*
X132120806Y-102679787D01*
X132177182Y-102708512D01*
X132297867Y-102770005D01*
X132297870Y-102770006D01*
X132392366Y-102800709D01*
X132486864Y-102831413D01*
X132683139Y-102862500D01*
X132683140Y-102862500D01*
X132881860Y-102862500D01*
X132881861Y-102862500D01*
X133078136Y-102831413D01*
X133267132Y-102770005D01*
X133444194Y-102679787D01*
X133604964Y-102562981D01*
X133745481Y-102422464D01*
X133862287Y-102261694D01*
X133952505Y-102084632D01*
X134013913Y-101895636D01*
X134045000Y-101699361D01*
X134045000Y-101500639D01*
X134013913Y-101304364D01*
X133952505Y-101115368D01*
X133952505Y-101115367D01*
X133862286Y-100938305D01*
X133745481Y-100777536D01*
X133604964Y-100637019D01*
X133444194Y-100520213D01*
X133267132Y-100429994D01*
X133267129Y-100429993D01*
X133078137Y-100368587D01*
X132979998Y-100353043D01*
X132881861Y-100337500D01*
X132683139Y-100337500D01*
X132617714Y-100347862D01*
X132486862Y-100368587D01*
X132297870Y-100429993D01*
X132297867Y-100429994D01*
X132120805Y-100520213D01*
X131960033Y-100637021D01*
X131819521Y-100777533D01*
X131702713Y-100938305D01*
X131622985Y-101094780D01*
X131575010Y-101145576D01*
X131507189Y-101162371D01*
X131441054Y-101139833D01*
X131402015Y-101094780D01*
X131322286Y-100938305D01*
X131205481Y-100777536D01*
X131064964Y-100637019D01*
X130904194Y-100520213D01*
X130727132Y-100429994D01*
X130727129Y-100429993D01*
X130538137Y-100368587D01*
X130439998Y-100353043D01*
X130341861Y-100337500D01*
X130143139Y-100337500D01*
X130077714Y-100347862D01*
X129946862Y-100368587D01*
X129757870Y-100429993D01*
X129757867Y-100429994D01*
X129580805Y-100520213D01*
X129420033Y-100637021D01*
X129279521Y-100777533D01*
X129162713Y-100938305D01*
X129082985Y-101094780D01*
X129035010Y-101145576D01*
X128967189Y-101162371D01*
X128901054Y-101139833D01*
X128862015Y-101094780D01*
X128782286Y-100938305D01*
X128665481Y-100777536D01*
X128524964Y-100637019D01*
X128364194Y-100520213D01*
X128187132Y-100429994D01*
X128187129Y-100429993D01*
X127998137Y-100368587D01*
X127899998Y-100353043D01*
X127801861Y-100337500D01*
X127603139Y-100337500D01*
X127537714Y-100347862D01*
X127406862Y-100368587D01*
X127217870Y-100429993D01*
X127217867Y-100429994D01*
X127040805Y-100520213D01*
X126880033Y-100637021D01*
X126739521Y-100777533D01*
X126622713Y-100938305D01*
X126542985Y-101094780D01*
X126495010Y-101145576D01*
X126427189Y-101162371D01*
X126361054Y-101139833D01*
X126322015Y-101094780D01*
X126242286Y-100938305D01*
X126125481Y-100777536D01*
X125984964Y-100637019D01*
X125824194Y-100520213D01*
X125647132Y-100429994D01*
X125647129Y-100429993D01*
X125458137Y-100368587D01*
X125359998Y-100353043D01*
X125261861Y-100337500D01*
X125063139Y-100337500D01*
X124997714Y-100347862D01*
X124866862Y-100368587D01*
X124677870Y-100429993D01*
X124677867Y-100429994D01*
X124500805Y-100520213D01*
X124340033Y-100637021D01*
X124199521Y-100777533D01*
X124082713Y-100938305D01*
X123992494Y-101115367D01*
X123992493Y-101115370D01*
X123931087Y-101304362D01*
X123900000Y-101500639D01*
X123900000Y-101699360D01*
X123931087Y-101895637D01*
X123992493Y-102084629D01*
X123992494Y-102084632D01*
X124082713Y-102261694D01*
X124199519Y-102422464D01*
X124340036Y-102562981D01*
X124439301Y-102635101D01*
X124464187Y-102653182D01*
X124506852Y-102708512D01*
X124512831Y-102778126D01*
X124480225Y-102839921D01*
X124419386Y-102874278D01*
X124391301Y-102877500D01*
X123082629Y-102877500D01*
X123082623Y-102877501D01*
X123023016Y-102883908D01*
X122888171Y-102934202D01*
X122888164Y-102934206D01*
X122772955Y-103020452D01*
X122772952Y-103020455D01*
X122686706Y-103135664D01*
X122686702Y-103135671D01*
X122636408Y-103270517D01*
X122631353Y-103317539D01*
X122630001Y-103330123D01*
X122630000Y-103330135D01*
X111444635Y-103330135D01*
X111435481Y-103317536D01*
X111294964Y-103177019D01*
X111134194Y-103060213D01*
X110957132Y-102969994D01*
X110957129Y-102969993D01*
X110768137Y-102908587D01*
X110669998Y-102893043D01*
X110571861Y-102877500D01*
X110373139Y-102877500D01*
X110307714Y-102887862D01*
X110176862Y-102908587D01*
X109987870Y-102969993D01*
X109987867Y-102969994D01*
X109810805Y-103060213D01*
X109650033Y-103177021D01*
X109509521Y-103317533D01*
X109392713Y-103478305D01*
X109312985Y-103634780D01*
X109265010Y-103685576D01*
X109197189Y-103702371D01*
X109131054Y-103679833D01*
X109092015Y-103634780D01*
X109072679Y-103596832D01*
X109012287Y-103478306D01*
X108895481Y-103317536D01*
X108754964Y-103177019D01*
X108594194Y-103060213D01*
X108417132Y-102969994D01*
X108417129Y-102969993D01*
X108228137Y-102908587D01*
X108129998Y-102893043D01*
X108031861Y-102877500D01*
X107833139Y-102877500D01*
X107767714Y-102887862D01*
X107636862Y-102908587D01*
X107447870Y-102969993D01*
X107447867Y-102969994D01*
X107270805Y-103060213D01*
X107110033Y-103177021D01*
X106969521Y-103317533D01*
X106969521Y-103317534D01*
X106969519Y-103317536D01*
X106932272Y-103368802D01*
X106879317Y-103441688D01*
X106823987Y-103484353D01*
X106754373Y-103490332D01*
X106692578Y-103457726D01*
X106658221Y-103396887D01*
X106654999Y-103368802D01*
X106654999Y-103330129D01*
X106654998Y-103330123D01*
X106654997Y-103330116D01*
X106648591Y-103270517D01*
X106613719Y-103177021D01*
X106598297Y-103135671D01*
X106598296Y-103135669D01*
X106542257Y-103060811D01*
X106517840Y-102995347D01*
X106532691Y-102927074D01*
X106582096Y-102877668D01*
X106641524Y-102862500D01*
X106761860Y-102862500D01*
X106761861Y-102862500D01*
X106958136Y-102831413D01*
X107147132Y-102770005D01*
X107324194Y-102679787D01*
X107484964Y-102562981D01*
X107625481Y-102422464D01*
X107742287Y-102261694D01*
X107822015Y-102105218D01*
X107869990Y-102054423D01*
X107937811Y-102037628D01*
X108003946Y-102060165D01*
X108042984Y-102105218D01*
X108122713Y-102261694D01*
X108239519Y-102422464D01*
X108380036Y-102562981D01*
X108540806Y-102679787D01*
X108597182Y-102708512D01*
X108717867Y-102770005D01*
X108717870Y-102770006D01*
X108812366Y-102800709D01*
X108906864Y-102831413D01*
X109103139Y-102862500D01*
X109103140Y-102862500D01*
X109301860Y-102862500D01*
X109301861Y-102862500D01*
X109498136Y-102831413D01*
X109687132Y-102770005D01*
X109864194Y-102679787D01*
X110024964Y-102562981D01*
X110165481Y-102422464D01*
X110282287Y-102261694D01*
X110362015Y-102105218D01*
X110409990Y-102054423D01*
X110477811Y-102037628D01*
X110543946Y-102060165D01*
X110582984Y-102105218D01*
X110662713Y-102261694D01*
X110779519Y-102422464D01*
X110920036Y-102562981D01*
X111080806Y-102679787D01*
X111137182Y-102708512D01*
X111257867Y-102770005D01*
X111257870Y-102770006D01*
X111352366Y-102800709D01*
X111446864Y-102831413D01*
X111643139Y-102862500D01*
X111643140Y-102862500D01*
X111841860Y-102862500D01*
X111841861Y-102862500D01*
X112038136Y-102831413D01*
X112227132Y-102770005D01*
X112404194Y-102679787D01*
X112564964Y-102562981D01*
X112705481Y-102422464D01*
X112822287Y-102261694D01*
X112902015Y-102105218D01*
X112949990Y-102054423D01*
X113017811Y-102037628D01*
X113083946Y-102060165D01*
X113122984Y-102105218D01*
X113202713Y-102261694D01*
X113319519Y-102422464D01*
X113460036Y-102562981D01*
X113620806Y-102679787D01*
X113677182Y-102708512D01*
X113797867Y-102770005D01*
X113797870Y-102770006D01*
X113892366Y-102800709D01*
X113986864Y-102831413D01*
X114183139Y-102862500D01*
X114183140Y-102862500D01*
X114381860Y-102862500D01*
X114381861Y-102862500D01*
X114578136Y-102831413D01*
X114767132Y-102770005D01*
X114944194Y-102679787D01*
X115104964Y-102562981D01*
X115245481Y-102422464D01*
X115362287Y-102261694D01*
X115452505Y-102084632D01*
X115513913Y-101895636D01*
X115545000Y-101699361D01*
X115545000Y-101500639D01*
X115513913Y-101304364D01*
X115452505Y-101115368D01*
X115452505Y-101115367D01*
X115362286Y-100938305D01*
X115245481Y-100777536D01*
X115104964Y-100637019D01*
X114944194Y-100520213D01*
X114767132Y-100429994D01*
X114767129Y-100429993D01*
X114578137Y-100368587D01*
X114479998Y-100353043D01*
X114381861Y-100337500D01*
X114183139Y-100337500D01*
X114117714Y-100347862D01*
X113986862Y-100368587D01*
X113797870Y-100429993D01*
X113797867Y-100429994D01*
X113620805Y-100520213D01*
X113460033Y-100637021D01*
X113319521Y-100777533D01*
X113202713Y-100938305D01*
X113122985Y-101094780D01*
X113075010Y-101145576D01*
X113007189Y-101162371D01*
X112941054Y-101139833D01*
X112902015Y-101094780D01*
X112822286Y-100938305D01*
X112705481Y-100777536D01*
X112564964Y-100637019D01*
X112404194Y-100520213D01*
X112227132Y-100429994D01*
X112227129Y-100429993D01*
X112038137Y-100368587D01*
X111939998Y-100353043D01*
X111841861Y-100337500D01*
X111643139Y-100337500D01*
X111577714Y-100347862D01*
X111446862Y-100368587D01*
X111257870Y-100429993D01*
X111257867Y-100429994D01*
X111080805Y-100520213D01*
X110920033Y-100637021D01*
X110779521Y-100777533D01*
X110662713Y-100938305D01*
X110582985Y-101094780D01*
X110535010Y-101145576D01*
X110467189Y-101162371D01*
X110401054Y-101139833D01*
X110362015Y-101094780D01*
X110282286Y-100938305D01*
X110165481Y-100777536D01*
X110024964Y-100637019D01*
X109864194Y-100520213D01*
X109687132Y-100429994D01*
X109687129Y-100429993D01*
X109498137Y-100368587D01*
X109399998Y-100353043D01*
X109301861Y-100337500D01*
X109103139Y-100337500D01*
X109037714Y-100347862D01*
X108906862Y-100368587D01*
X108717870Y-100429993D01*
X108717867Y-100429994D01*
X108540805Y-100520213D01*
X108380033Y-100637021D01*
X108239521Y-100777533D01*
X108122713Y-100938305D01*
X108042985Y-101094780D01*
X107995010Y-101145576D01*
X107927189Y-101162371D01*
X107861054Y-101139833D01*
X107822015Y-101094780D01*
X107742286Y-100938305D01*
X107625481Y-100777536D01*
X107484964Y-100637019D01*
X107324194Y-100520213D01*
X107147132Y-100429994D01*
X107147129Y-100429993D01*
X106958137Y-100368587D01*
X106859998Y-100353043D01*
X106761861Y-100337500D01*
X106563139Y-100337500D01*
X106497714Y-100347862D01*
X106366862Y-100368587D01*
X106177870Y-100429993D01*
X106177867Y-100429994D01*
X106000805Y-100520213D01*
X105840033Y-100637021D01*
X105699521Y-100777533D01*
X105582713Y-100938305D01*
X105492494Y-101115367D01*
X105492493Y-101115370D01*
X105431087Y-101304362D01*
X105400000Y-101500639D01*
X105400000Y-101699360D01*
X105431087Y-101895637D01*
X105492493Y-102084629D01*
X105492494Y-102084632D01*
X105582713Y-102261694D01*
X105699519Y-102422464D01*
X105840036Y-102562981D01*
X105939301Y-102635101D01*
X105964187Y-102653182D01*
X106006852Y-102708512D01*
X106012831Y-102778126D01*
X105980225Y-102839921D01*
X105919386Y-102874278D01*
X105891301Y-102877500D01*
X104582629Y-102877500D01*
X104582623Y-102877501D01*
X104523016Y-102883908D01*
X104388171Y-102934202D01*
X104388164Y-102934206D01*
X104272955Y-103020452D01*
X104272952Y-103020455D01*
X104186706Y-103135664D01*
X104186702Y-103135671D01*
X104136408Y-103270517D01*
X104131353Y-103317539D01*
X104130001Y-103330123D01*
X104130000Y-103330135D01*
X92944635Y-103330135D01*
X92935481Y-103317536D01*
X92794964Y-103177019D01*
X92634194Y-103060213D01*
X92457132Y-102969994D01*
X92457129Y-102969993D01*
X92268137Y-102908587D01*
X92169998Y-102893043D01*
X92071861Y-102877500D01*
X91873139Y-102877500D01*
X91807714Y-102887862D01*
X91676862Y-102908587D01*
X91487870Y-102969993D01*
X91487867Y-102969994D01*
X91310805Y-103060213D01*
X91150033Y-103177021D01*
X91009521Y-103317533D01*
X90892713Y-103478305D01*
X90812985Y-103634780D01*
X90765010Y-103685576D01*
X90697189Y-103702371D01*
X90631054Y-103679833D01*
X90592015Y-103634780D01*
X90572679Y-103596832D01*
X90512287Y-103478306D01*
X90395481Y-103317536D01*
X90254964Y-103177019D01*
X90094194Y-103060213D01*
X89917132Y-102969994D01*
X89917129Y-102969993D01*
X89728137Y-102908587D01*
X89629998Y-102893043D01*
X89531861Y-102877500D01*
X89333139Y-102877500D01*
X89267714Y-102887862D01*
X89136862Y-102908587D01*
X88947870Y-102969993D01*
X88947867Y-102969994D01*
X88770805Y-103060213D01*
X88610033Y-103177021D01*
X88469521Y-103317533D01*
X88469521Y-103317534D01*
X88469519Y-103317536D01*
X88432272Y-103368802D01*
X88379317Y-103441688D01*
X88323987Y-103484353D01*
X88254373Y-103490332D01*
X88192578Y-103457726D01*
X88158221Y-103396887D01*
X88154999Y-103368802D01*
X88154999Y-103330129D01*
X88154998Y-103330123D01*
X88154997Y-103330116D01*
X88148591Y-103270517D01*
X88113719Y-103177021D01*
X88098297Y-103135671D01*
X88098296Y-103135669D01*
X88042257Y-103060811D01*
X88017840Y-102995347D01*
X88032691Y-102927074D01*
X88082096Y-102877668D01*
X88141524Y-102862500D01*
X88261860Y-102862500D01*
X88261861Y-102862500D01*
X88458136Y-102831413D01*
X88647132Y-102770005D01*
X88824194Y-102679787D01*
X88984964Y-102562981D01*
X89125481Y-102422464D01*
X89242287Y-102261694D01*
X89322015Y-102105218D01*
X89369990Y-102054423D01*
X89437811Y-102037628D01*
X89503946Y-102060165D01*
X89542984Y-102105218D01*
X89622713Y-102261694D01*
X89739519Y-102422464D01*
X89880036Y-102562981D01*
X90040806Y-102679787D01*
X90097182Y-102708512D01*
X90217867Y-102770005D01*
X90217870Y-102770006D01*
X90312366Y-102800709D01*
X90406864Y-102831413D01*
X90603139Y-102862500D01*
X90603140Y-102862500D01*
X90801860Y-102862500D01*
X90801861Y-102862500D01*
X90998136Y-102831413D01*
X91187132Y-102770005D01*
X91364194Y-102679787D01*
X91524964Y-102562981D01*
X91665481Y-102422464D01*
X91782287Y-102261694D01*
X91862015Y-102105218D01*
X91909990Y-102054423D01*
X91977811Y-102037628D01*
X92043946Y-102060165D01*
X92082984Y-102105218D01*
X92162713Y-102261694D01*
X92279519Y-102422464D01*
X92420036Y-102562981D01*
X92580806Y-102679787D01*
X92637182Y-102708512D01*
X92757867Y-102770005D01*
X92757870Y-102770006D01*
X92852366Y-102800709D01*
X92946864Y-102831413D01*
X93143139Y-102862500D01*
X93143140Y-102862500D01*
X93341860Y-102862500D01*
X93341861Y-102862500D01*
X93538136Y-102831413D01*
X93727132Y-102770005D01*
X93904194Y-102679787D01*
X94064964Y-102562981D01*
X94205481Y-102422464D01*
X94322287Y-102261694D01*
X94402015Y-102105218D01*
X94449990Y-102054423D01*
X94517811Y-102037628D01*
X94583946Y-102060165D01*
X94622984Y-102105218D01*
X94702713Y-102261694D01*
X94819519Y-102422464D01*
X94960036Y-102562981D01*
X95120806Y-102679787D01*
X95177182Y-102708512D01*
X95297867Y-102770005D01*
X95297870Y-102770006D01*
X95392366Y-102800709D01*
X95486864Y-102831413D01*
X95683139Y-102862500D01*
X95683140Y-102862500D01*
X95881860Y-102862500D01*
X95881861Y-102862500D01*
X96078136Y-102831413D01*
X96267132Y-102770005D01*
X96444194Y-102679787D01*
X96604964Y-102562981D01*
X96745481Y-102422464D01*
X96862287Y-102261694D01*
X96952505Y-102084632D01*
X97013913Y-101895636D01*
X97045000Y-101699361D01*
X97045000Y-101500639D01*
X97013913Y-101304364D01*
X96952505Y-101115368D01*
X96952505Y-101115367D01*
X96862286Y-100938305D01*
X96745481Y-100777536D01*
X96604964Y-100637019D01*
X96444194Y-100520213D01*
X96267132Y-100429994D01*
X96267129Y-100429993D01*
X96078137Y-100368587D01*
X95979998Y-100353043D01*
X95881861Y-100337500D01*
X95683139Y-100337500D01*
X95617714Y-100347862D01*
X95486862Y-100368587D01*
X95297870Y-100429993D01*
X95297867Y-100429994D01*
X95120805Y-100520213D01*
X94960033Y-100637021D01*
X94819521Y-100777533D01*
X94702713Y-100938305D01*
X94622985Y-101094780D01*
X94575010Y-101145576D01*
X94507189Y-101162371D01*
X94441054Y-101139833D01*
X94402015Y-101094780D01*
X94322286Y-100938305D01*
X94205481Y-100777536D01*
X94064964Y-100637019D01*
X93904194Y-100520213D01*
X93727132Y-100429994D01*
X93727129Y-100429993D01*
X93538137Y-100368587D01*
X93439998Y-100353043D01*
X93341861Y-100337500D01*
X93143139Y-100337500D01*
X93077714Y-100347862D01*
X92946862Y-100368587D01*
X92757870Y-100429993D01*
X92757867Y-100429994D01*
X92580805Y-100520213D01*
X92420033Y-100637021D01*
X92279521Y-100777533D01*
X92162713Y-100938305D01*
X92082985Y-101094780D01*
X92035010Y-101145576D01*
X91967189Y-101162371D01*
X91901054Y-101139833D01*
X91862015Y-101094780D01*
X91782286Y-100938305D01*
X91665481Y-100777536D01*
X91524964Y-100637019D01*
X91364194Y-100520213D01*
X91187132Y-100429994D01*
X91187129Y-100429993D01*
X90998137Y-100368587D01*
X90899998Y-100353043D01*
X90801861Y-100337500D01*
X90603139Y-100337500D01*
X90537714Y-100347862D01*
X90406862Y-100368587D01*
X90217870Y-100429993D01*
X90217867Y-100429994D01*
X90040805Y-100520213D01*
X89880033Y-100637021D01*
X89739521Y-100777533D01*
X89622713Y-100938305D01*
X89542985Y-101094780D01*
X89495010Y-101145576D01*
X89427189Y-101162371D01*
X89361054Y-101139833D01*
X89322015Y-101094780D01*
X89242286Y-100938305D01*
X89125481Y-100777536D01*
X88984964Y-100637019D01*
X88824194Y-100520213D01*
X88647132Y-100429994D01*
X88647129Y-100429993D01*
X88458137Y-100368587D01*
X88359998Y-100353043D01*
X88261861Y-100337500D01*
X88063139Y-100337500D01*
X87997714Y-100347862D01*
X87866862Y-100368587D01*
X87677870Y-100429993D01*
X87677867Y-100429994D01*
X87500805Y-100520213D01*
X87340033Y-100637021D01*
X87199521Y-100777533D01*
X87082713Y-100938305D01*
X86992494Y-101115367D01*
X86992493Y-101115370D01*
X86931087Y-101304362D01*
X86900000Y-101500639D01*
X86900000Y-101699360D01*
X86931087Y-101895637D01*
X86992493Y-102084629D01*
X86992494Y-102084632D01*
X87082713Y-102261694D01*
X87199519Y-102422464D01*
X87340036Y-102562981D01*
X87439301Y-102635101D01*
X87464187Y-102653182D01*
X87506852Y-102708512D01*
X87512831Y-102778126D01*
X87480225Y-102839921D01*
X87419386Y-102874278D01*
X87391301Y-102877500D01*
X86082629Y-102877500D01*
X86082623Y-102877501D01*
X86023016Y-102883908D01*
X85888171Y-102934202D01*
X85888164Y-102934206D01*
X85772955Y-103020452D01*
X85772952Y-103020455D01*
X85686706Y-103135664D01*
X85686702Y-103135671D01*
X85636408Y-103270517D01*
X85631353Y-103317539D01*
X85630001Y-103330123D01*
X85630000Y-103330135D01*
X70500500Y-103330135D01*
X70500500Y-95128711D01*
X83872000Y-95128711D01*
X83872000Y-95371288D01*
X83903661Y-95611785D01*
X83966447Y-95846104D01*
X84059273Y-96070205D01*
X84059276Y-96070212D01*
X84180564Y-96280289D01*
X84180566Y-96280292D01*
X84180567Y-96280293D01*
X84328233Y-96472736D01*
X84328239Y-96472743D01*
X84499756Y-96644260D01*
X84499762Y-96644265D01*
X84692211Y-96791936D01*
X84902288Y-96913224D01*
X85126400Y-97006054D01*
X85360711Y-97068838D01*
X85541086Y-97092584D01*
X85601211Y-97100500D01*
X85601212Y-97100500D01*
X85843789Y-97100500D01*
X85891888Y-97094167D01*
X86084289Y-97068838D01*
X86318600Y-97006054D01*
X86542712Y-96913224D01*
X86752789Y-96791936D01*
X86945238Y-96644265D01*
X87116765Y-96472738D01*
X87264436Y-96280289D01*
X87385724Y-96070212D01*
X87478554Y-95846100D01*
X87541338Y-95611789D01*
X87573000Y-95371288D01*
X87573000Y-95128712D01*
X87573000Y-95128711D01*
X95172000Y-95128711D01*
X95172000Y-95371288D01*
X95203661Y-95611785D01*
X95266447Y-95846104D01*
X95359273Y-96070205D01*
X95359276Y-96070212D01*
X95480564Y-96280289D01*
X95480566Y-96280292D01*
X95480567Y-96280293D01*
X95628233Y-96472736D01*
X95628239Y-96472743D01*
X95799756Y-96644260D01*
X95799762Y-96644265D01*
X95992211Y-96791936D01*
X96202288Y-96913224D01*
X96426400Y-97006054D01*
X96660711Y-97068838D01*
X96841086Y-97092584D01*
X96901211Y-97100500D01*
X96901212Y-97100500D01*
X97143789Y-97100500D01*
X97191888Y-97094167D01*
X97384289Y-97068838D01*
X97618600Y-97006054D01*
X97842712Y-96913224D01*
X98052789Y-96791936D01*
X98245238Y-96644265D01*
X98416765Y-96472738D01*
X98564436Y-96280289D01*
X98685724Y-96070212D01*
X98778554Y-95846100D01*
X98841338Y-95611789D01*
X98873000Y-95371288D01*
X98873000Y-95128712D01*
X98873000Y-95128711D01*
X102372000Y-95128711D01*
X102372000Y-95371288D01*
X102403661Y-95611785D01*
X102466447Y-95846104D01*
X102559273Y-96070205D01*
X102559276Y-96070212D01*
X102680564Y-96280289D01*
X102680566Y-96280292D01*
X102680567Y-96280293D01*
X102828233Y-96472736D01*
X102828239Y-96472743D01*
X102999756Y-96644260D01*
X102999762Y-96644265D01*
X103192211Y-96791936D01*
X103402288Y-96913224D01*
X103626400Y-97006054D01*
X103860711Y-97068838D01*
X104041086Y-97092584D01*
X104101211Y-97100500D01*
X104101212Y-97100500D01*
X104343789Y-97100500D01*
X104391888Y-97094167D01*
X104584289Y-97068838D01*
X104818600Y-97006054D01*
X105042712Y-96913224D01*
X105252789Y-96791936D01*
X105445238Y-96644265D01*
X105616765Y-96472738D01*
X105764436Y-96280289D01*
X105885724Y-96070212D01*
X105978554Y-95846100D01*
X106041338Y-95611789D01*
X106073000Y-95371288D01*
X106073000Y-95128712D01*
X106073000Y-95128711D01*
X113672000Y-95128711D01*
X113672000Y-95371288D01*
X113703661Y-95611785D01*
X113766447Y-95846104D01*
X113859273Y-96070205D01*
X113859276Y-96070212D01*
X113980564Y-96280289D01*
X113980566Y-96280292D01*
X113980567Y-96280293D01*
X114128233Y-96472736D01*
X114128239Y-96472743D01*
X114299756Y-96644260D01*
X114299762Y-96644265D01*
X114492211Y-96791936D01*
X114702288Y-96913224D01*
X114926400Y-97006054D01*
X115160711Y-97068838D01*
X115341086Y-97092584D01*
X115401211Y-97100500D01*
X115401212Y-97100500D01*
X115643789Y-97100500D01*
X115691888Y-97094167D01*
X115884289Y-97068838D01*
X116118600Y-97006054D01*
X116342712Y-96913224D01*
X116552789Y-96791936D01*
X116745238Y-96644265D01*
X116916765Y-96472738D01*
X117064436Y-96280289D01*
X117185724Y-96070212D01*
X117278554Y-95846100D01*
X117341338Y-95611789D01*
X117373000Y-95371288D01*
X117373000Y-95128712D01*
X117373000Y-95128711D01*
X120872000Y-95128711D01*
X120872000Y-95371288D01*
X120903661Y-95611785D01*
X120966447Y-95846104D01*
X121059273Y-96070205D01*
X121059276Y-96070212D01*
X121180564Y-96280289D01*
X121180566Y-96280292D01*
X121180567Y-96280293D01*
X121328233Y-96472736D01*
X121328239Y-96472743D01*
X121499756Y-96644260D01*
X121499762Y-96644265D01*
X121692211Y-96791936D01*
X121902288Y-96913224D01*
X122126400Y-97006054D01*
X122360711Y-97068838D01*
X122541086Y-97092584D01*
X122601211Y-97100500D01*
X122601212Y-97100500D01*
X122843789Y-97100500D01*
X122891888Y-97094167D01*
X123084289Y-97068838D01*
X123318600Y-97006054D01*
X123542712Y-96913224D01*
X123752789Y-96791936D01*
X123945238Y-96644265D01*
X124116765Y-96472738D01*
X124264436Y-96280289D01*
X124385724Y-96070212D01*
X124478554Y-95846100D01*
X124541338Y-95611789D01*
X124573000Y-95371288D01*
X124573000Y-95128712D01*
X124573000Y-95128711D01*
X132172000Y-95128711D01*
X132172000Y-95371288D01*
X132203661Y-95611785D01*
X132266447Y-95846104D01*
X132359273Y-96070205D01*
X132359276Y-96070212D01*
X132480564Y-96280289D01*
X132480566Y-96280292D01*
X132480567Y-96280293D01*
X132628233Y-96472736D01*
X132628239Y-96472743D01*
X132799756Y-96644260D01*
X132799762Y-96644265D01*
X132992211Y-96791936D01*
X133202288Y-96913224D01*
X133426400Y-97006054D01*
X133660711Y-97068838D01*
X133841086Y-97092584D01*
X133901211Y-97100500D01*
X133901212Y-97100500D01*
X134143789Y-97100500D01*
X134191888Y-97094167D01*
X134384289Y-97068838D01*
X134618600Y-97006054D01*
X134842712Y-96913224D01*
X135052789Y-96791936D01*
X135245238Y-96644265D01*
X135416765Y-96472738D01*
X135564436Y-96280289D01*
X135685724Y-96070212D01*
X135778554Y-95846100D01*
X135841338Y-95611789D01*
X135873000Y-95371288D01*
X135873000Y-95128712D01*
X135873000Y-95128711D01*
X138872000Y-95128711D01*
X138872000Y-95371288D01*
X138903661Y-95611785D01*
X138966447Y-95846104D01*
X139059273Y-96070205D01*
X139059276Y-96070212D01*
X139180564Y-96280289D01*
X139180566Y-96280292D01*
X139180567Y-96280293D01*
X139328233Y-96472736D01*
X139328239Y-96472743D01*
X139499756Y-96644260D01*
X139499762Y-96644265D01*
X139692211Y-96791936D01*
X139902288Y-96913224D01*
X140126400Y-97006054D01*
X140360711Y-97068838D01*
X140541086Y-97092584D01*
X140601211Y-97100500D01*
X140601212Y-97100500D01*
X140843789Y-97100500D01*
X140891888Y-97094167D01*
X141084289Y-97068838D01*
X141318600Y-97006054D01*
X141542712Y-96913224D01*
X141752789Y-96791936D01*
X141945238Y-96644265D01*
X142116765Y-96472738D01*
X142264436Y-96280289D01*
X142385724Y-96070212D01*
X142478554Y-95846100D01*
X142541338Y-95611789D01*
X142573000Y-95371288D01*
X142573000Y-95128712D01*
X142573000Y-95128711D01*
X150172000Y-95128711D01*
X150172000Y-95371288D01*
X150203661Y-95611785D01*
X150266447Y-95846104D01*
X150359273Y-96070205D01*
X150359276Y-96070212D01*
X150480564Y-96280289D01*
X150480566Y-96280292D01*
X150480567Y-96280293D01*
X150628233Y-96472736D01*
X150628239Y-96472743D01*
X150799756Y-96644260D01*
X150799762Y-96644265D01*
X150992211Y-96791936D01*
X151202288Y-96913224D01*
X151426400Y-97006054D01*
X151660711Y-97068838D01*
X151841086Y-97092584D01*
X151901211Y-97100500D01*
X151901212Y-97100500D01*
X152143789Y-97100500D01*
X152191888Y-97094167D01*
X152384289Y-97068838D01*
X152618600Y-97006054D01*
X152842712Y-96913224D01*
X153052789Y-96791936D01*
X153245238Y-96644265D01*
X153416765Y-96472738D01*
X153564436Y-96280289D01*
X153685724Y-96070212D01*
X153778554Y-95846100D01*
X153841338Y-95611789D01*
X153873000Y-95371288D01*
X153873000Y-95128712D01*
X153841338Y-94888211D01*
X153778554Y-94653900D01*
X153685724Y-94429788D01*
X153564436Y-94219711D01*
X153416765Y-94027262D01*
X153416760Y-94027256D01*
X153245243Y-93855739D01*
X153245236Y-93855733D01*
X153052793Y-93708067D01*
X153052792Y-93708066D01*
X153052789Y-93708064D01*
X152842712Y-93586776D01*
X152842705Y-93586773D01*
X152618604Y-93493947D01*
X152384285Y-93431161D01*
X152143789Y-93399500D01*
X152143788Y-93399500D01*
X151901212Y-93399500D01*
X151901211Y-93399500D01*
X151660714Y-93431161D01*
X151426395Y-93493947D01*
X151202294Y-93586773D01*
X151202285Y-93586777D01*
X150992206Y-93708067D01*
X150799763Y-93855733D01*
X150799756Y-93855739D01*
X150628239Y-94027256D01*
X150628233Y-94027263D01*
X150480567Y-94219706D01*
X150359277Y-94429785D01*
X150359273Y-94429794D01*
X150266447Y-94653895D01*
X150203661Y-94888214D01*
X150172000Y-95128711D01*
X142573000Y-95128711D01*
X142541338Y-94888211D01*
X142478554Y-94653900D01*
X142385724Y-94429788D01*
X142264436Y-94219711D01*
X142116765Y-94027262D01*
X142116760Y-94027256D01*
X141945243Y-93855739D01*
X141945236Y-93855733D01*
X141752793Y-93708067D01*
X141752792Y-93708066D01*
X141752789Y-93708064D01*
X141542712Y-93586776D01*
X141542705Y-93586773D01*
X141318604Y-93493947D01*
X141084285Y-93431161D01*
X140843789Y-93399500D01*
X140843788Y-93399500D01*
X140601212Y-93399500D01*
X140601211Y-93399500D01*
X140360714Y-93431161D01*
X140126395Y-93493947D01*
X139902294Y-93586773D01*
X139902285Y-93586777D01*
X139692206Y-93708067D01*
X139499763Y-93855733D01*
X139499756Y-93855739D01*
X139328239Y-94027256D01*
X139328233Y-94027263D01*
X139180567Y-94219706D01*
X139059277Y-94429785D01*
X139059273Y-94429794D01*
X138966447Y-94653895D01*
X138903661Y-94888214D01*
X138872000Y-95128711D01*
X135873000Y-95128711D01*
X135841338Y-94888211D01*
X135778554Y-94653900D01*
X135685724Y-94429788D01*
X135564436Y-94219711D01*
X135416765Y-94027262D01*
X135416760Y-94027256D01*
X135245243Y-93855739D01*
X135245236Y-93855733D01*
X135052793Y-93708067D01*
X135052792Y-93708066D01*
X135052789Y-93708064D01*
X134842712Y-93586776D01*
X134842705Y-93586773D01*
X134618604Y-93493947D01*
X134384285Y-93431161D01*
X134143789Y-93399500D01*
X134143788Y-93399500D01*
X133901212Y-93399500D01*
X133901211Y-93399500D01*
X133660714Y-93431161D01*
X133426395Y-93493947D01*
X133202294Y-93586773D01*
X133202285Y-93586777D01*
X132992206Y-93708067D01*
X132799763Y-93855733D01*
X132799756Y-93855739D01*
X132628239Y-94027256D01*
X132628233Y-94027263D01*
X132480567Y-94219706D01*
X132359277Y-94429785D01*
X132359273Y-94429794D01*
X132266447Y-94653895D01*
X132203661Y-94888214D01*
X132172000Y-95128711D01*
X124573000Y-95128711D01*
X124541338Y-94888211D01*
X124478554Y-94653900D01*
X124385724Y-94429788D01*
X124264436Y-94219711D01*
X124116765Y-94027262D01*
X124116760Y-94027256D01*
X123945243Y-93855739D01*
X123945236Y-93855733D01*
X123752793Y-93708067D01*
X123752792Y-93708066D01*
X123752789Y-93708064D01*
X123542712Y-93586776D01*
X123542705Y-93586773D01*
X123318604Y-93493947D01*
X123084285Y-93431161D01*
X122843789Y-93399500D01*
X122843788Y-93399500D01*
X122601212Y-93399500D01*
X122601211Y-93399500D01*
X122360714Y-93431161D01*
X122126395Y-93493947D01*
X121902294Y-93586773D01*
X121902285Y-93586777D01*
X121692206Y-93708067D01*
X121499763Y-93855733D01*
X121499756Y-93855739D01*
X121328239Y-94027256D01*
X121328233Y-94027263D01*
X121180567Y-94219706D01*
X121059277Y-94429785D01*
X121059273Y-94429794D01*
X120966447Y-94653895D01*
X120903661Y-94888214D01*
X120872000Y-95128711D01*
X117373000Y-95128711D01*
X117341338Y-94888211D01*
X117278554Y-94653900D01*
X117185724Y-94429788D01*
X117064436Y-94219711D01*
X116916765Y-94027262D01*
X116916760Y-94027256D01*
X116745243Y-93855739D01*
X116745236Y-93855733D01*
X116552793Y-93708067D01*
X116552792Y-93708066D01*
X116552789Y-93708064D01*
X116342712Y-93586776D01*
X116342705Y-93586773D01*
X116118604Y-93493947D01*
X115884285Y-93431161D01*
X115643789Y-93399500D01*
X115643788Y-93399500D01*
X115401212Y-93399500D01*
X115401211Y-93399500D01*
X115160714Y-93431161D01*
X114926395Y-93493947D01*
X114702294Y-93586773D01*
X114702285Y-93586777D01*
X114492206Y-93708067D01*
X114299763Y-93855733D01*
X114299756Y-93855739D01*
X114128239Y-94027256D01*
X114128233Y-94027263D01*
X113980567Y-94219706D01*
X113859277Y-94429785D01*
X113859273Y-94429794D01*
X113766447Y-94653895D01*
X113703661Y-94888214D01*
X113672000Y-95128711D01*
X106073000Y-95128711D01*
X106041338Y-94888211D01*
X105978554Y-94653900D01*
X105885724Y-94429788D01*
X105764436Y-94219711D01*
X105616765Y-94027262D01*
X105616760Y-94027256D01*
X105445243Y-93855739D01*
X105445236Y-93855733D01*
X105252793Y-93708067D01*
X105252792Y-93708066D01*
X105252789Y-93708064D01*
X105042712Y-93586776D01*
X105042705Y-93586773D01*
X104818604Y-93493947D01*
X104584285Y-93431161D01*
X104343789Y-93399500D01*
X104343788Y-93399500D01*
X104101212Y-93399500D01*
X104101211Y-93399500D01*
X103860714Y-93431161D01*
X103626395Y-93493947D01*
X103402294Y-93586773D01*
X103402285Y-93586777D01*
X103192206Y-93708067D01*
X102999763Y-93855733D01*
X102999756Y-93855739D01*
X102828239Y-94027256D01*
X102828233Y-94027263D01*
X102680567Y-94219706D01*
X102559277Y-94429785D01*
X102559273Y-94429794D01*
X102466447Y-94653895D01*
X102403661Y-94888214D01*
X102372000Y-95128711D01*
X98873000Y-95128711D01*
X98841338Y-94888211D01*
X98778554Y-94653900D01*
X98685724Y-94429788D01*
X98564436Y-94219711D01*
X98416765Y-94027262D01*
X98416760Y-94027256D01*
X98245243Y-93855739D01*
X98245236Y-93855733D01*
X98052793Y-93708067D01*
X98052792Y-93708066D01*
X98052789Y-93708064D01*
X97842712Y-93586776D01*
X97842705Y-93586773D01*
X97618604Y-93493947D01*
X97384285Y-93431161D01*
X97143789Y-93399500D01*
X97143788Y-93399500D01*
X96901212Y-93399500D01*
X96901211Y-93399500D01*
X96660714Y-93431161D01*
X96426395Y-93493947D01*
X96202294Y-93586773D01*
X96202285Y-93586777D01*
X95992206Y-93708067D01*
X95799763Y-93855733D01*
X95799756Y-93855739D01*
X95628239Y-94027256D01*
X95628233Y-94027263D01*
X95480567Y-94219706D01*
X95359277Y-94429785D01*
X95359273Y-94429794D01*
X95266447Y-94653895D01*
X95203661Y-94888214D01*
X95172000Y-95128711D01*
X87573000Y-95128711D01*
X87541338Y-94888211D01*
X87478554Y-94653900D01*
X87385724Y-94429788D01*
X87264436Y-94219711D01*
X87116765Y-94027262D01*
X87116760Y-94027256D01*
X86945243Y-93855739D01*
X86945236Y-93855733D01*
X86752793Y-93708067D01*
X86752792Y-93708066D01*
X86752789Y-93708064D01*
X86542712Y-93586776D01*
X86542705Y-93586773D01*
X86318604Y-93493947D01*
X86084285Y-93431161D01*
X85843789Y-93399500D01*
X85843788Y-93399500D01*
X85601212Y-93399500D01*
X85601211Y-93399500D01*
X85360714Y-93431161D01*
X85126395Y-93493947D01*
X84902294Y-93586773D01*
X84902285Y-93586777D01*
X84692206Y-93708067D01*
X84499763Y-93855733D01*
X84499756Y-93855739D01*
X84328239Y-94027256D01*
X84328233Y-94027263D01*
X84180567Y-94219706D01*
X84059277Y-94429785D01*
X84059273Y-94429794D01*
X83966447Y-94653895D01*
X83903661Y-94888214D01*
X83872000Y-95128711D01*
X70500500Y-95128711D01*
X70500500Y-90876987D01*
X70520185Y-90809948D01*
X70572989Y-90764193D01*
X70624487Y-90752988D01*
X167369402Y-90747013D01*
X167436441Y-90766693D01*
G37*
%TD.AperFunction*%
%TD*%
M02*
