%TF.GenerationSoftware,KiCad,Pcbnew,10.0.3-10.0.3~ubuntu24.04.1*%
%TF.CreationDate,2026-06-05T22:04:01+00:00*%
%TF.ProjectId,hub-standard,6875622d-7374-4616-9e64-6172642e6b69,rev?*%
%TF.SameCoordinates,Original*%
%TF.FileFunction,Copper,L4,Bot*%
%TF.FilePolarity,Positive*%
%FSLAX46Y46*%
G04 Gerber Fmt 4.6, Leading zero omitted, Abs format (unit mm)*
G04 Created by KiCad (PCBNEW 10.0.3-10.0.3~ubuntu24.04.1) date 2026-06-05 22:04:01*
%MOMM*%
%LPD*%
G01*
G04 APERTURE LIST*
G04 Aperture macros list*
%AMRoundRect*
0 Rectangle with rounded corners*
0 $1 Rounding radius*
0 $2 $3 $4 $5 $6 $7 $8 $9 X,Y pos of 4 corners*
0 Add a 4 corners polygon primitive as box body*
4,1,4,$2,$3,$4,$5,$6,$7,$8,$9,$2,$3,0*
0 Add four circle primitives for the rounded corners*
1,1,$1+$1,$2,$3*
1,1,$1+$1,$4,$5*
1,1,$1+$1,$6,$7*
1,1,$1+$1,$8,$9*
0 Add four rect primitives between the rounded corners*
20,1,$1+$1,$2,$3,$4,$5,0*
20,1,$1+$1,$4,$5,$6,$7,0*
20,1,$1+$1,$6,$7,$8,$9,0*
20,1,$1+$1,$8,$9,$2,$3,0*%
G04 Aperture macros list end*
%TA.AperFunction,ComponentPad*%
%ADD10RoundRect,0.250000X0.750000X-0.600000X0.750000X0.600000X-0.750000X0.600000X-0.750000X-0.600000X0*%
%TD*%
%TA.AperFunction,ComponentPad*%
%ADD11O,2.000000X1.700000*%
%TD*%
%TA.AperFunction,ComponentPad*%
%ADD12C,1.524000*%
%TD*%
%TA.AperFunction,ComponentPad*%
%ADD13R,1.524000X1.524000*%
%TD*%
%TA.AperFunction,ComponentPad*%
%ADD14O,1.200000X2.500000*%
%TD*%
%TA.AperFunction,ComponentPad*%
%ADD15C,0.800000*%
%TD*%
%TA.AperFunction,ComponentPad*%
%ADD16C,6.400000*%
%TD*%
%TA.AperFunction,HeatsinkPad*%
%ADD17C,0.600000*%
%TD*%
%TA.AperFunction,ComponentPad*%
%ADD18R,1.400000X1.400000*%
%TD*%
%TA.AperFunction,ComponentPad*%
%ADD19C,1.400000*%
%TD*%
%TA.AperFunction,HeatsinkPad*%
%ADD20O,1.000000X2.100000*%
%TD*%
%TA.AperFunction,HeatsinkPad*%
%ADD21O,1.000000X1.600000*%
%TD*%
%TA.AperFunction,ViaPad*%
%ADD22C,0.600000*%
%TD*%
%TA.AperFunction,Conductor*%
%ADD23C,1.000000*%
%TD*%
%TA.AperFunction,Conductor*%
%ADD24C,0.200000*%
%TD*%
%TA.AperFunction,Conductor*%
%ADD25C,0.300000*%
%TD*%
%TA.AperFunction,Conductor*%
%ADD26C,0.500000*%
%TD*%
G04 APERTURE END LIST*
D10*
%TO.P,J_5VSB,1,VCC_1*%
%TO.N,/5VSB_RAW*%
X163555000Y-115250000D03*
D11*
%TO.P,J_5VSB,2,GND_2*%
%TO.N,GND*%
X163555000Y-112750000D03*
%TD*%
D12*
%TO.P,J3,1,VCC_1*%
%TO.N,+5VSB*%
X114282500Y-101600000D03*
%TO.P,J3,2,GND_2*%
%TO.N,GND*%
X113012500Y-104140000D03*
%TO.P,J3,3,CAN1_H_3*%
%TO.N,/CAN_H*%
X111742500Y-101600000D03*
%TO.P,J3,4,STREAM_P_4*%
%TO.N,unconnected-(J3-STREAM_P-Pad4)*%
X110472500Y-104140000D03*
%TO.P,J3,5,STREAM_N_5*%
%TO.N,unconnected-(J3-STREAM_N-Pad5)*%
X109202500Y-101600000D03*
%TO.P,J3,6,CAN1_L_6*%
%TO.N,/CAN_L*%
X107932500Y-104140000D03*
%TO.P,J3,7,RSVD_7*%
%TO.N,unconnected-(J3-RSVD-Pad7)*%
X106662500Y-101600000D03*
D13*
%TO.P,J3,8,DETECT_8*%
%TO.N,/DETECT2*%
X105392500Y-104140000D03*
D14*
%TO.P,J3,SH1,SHIELD_SH1*%
%TO.N,GND*%
X117772500Y-92300000D03*
%TO.P,J3,SH2,SHIELD_SH2*%
X101972500Y-92300000D03*
%TD*%
D15*
%TO.P,M3,1*%
%TO.N,GND*%
X73600000Y-158000000D03*
X74302944Y-156302944D03*
X74302944Y-159697056D03*
X76000000Y-155600000D03*
D16*
X76000000Y-158000000D03*
D15*
X76000000Y-160400000D03*
X77697056Y-156302944D03*
X77697056Y-159697056D03*
X78400000Y-158000000D03*
%TD*%
%TO.P,M2,1*%
%TO.N,GND*%
X159600000Y-96250000D03*
X160302944Y-94552944D03*
X160302944Y-97947056D03*
X162000000Y-93850000D03*
D16*
X162000000Y-96250000D03*
D15*
X162000000Y-98650000D03*
X163697056Y-94552944D03*
X163697056Y-97947056D03*
X164400000Y-96250000D03*
%TD*%
D12*
%TO.P,J2,1,VCC_1*%
%TO.N,+5VSB*%
X95782500Y-101600000D03*
%TO.P,J2,2,GND_2*%
%TO.N,GND*%
X94512500Y-104140000D03*
%TO.P,J2,3,CAN1_H_3*%
%TO.N,/CAN_H*%
X93242500Y-101600000D03*
%TO.P,J2,4,STREAM_P_4*%
%TO.N,unconnected-(J2-STREAM_P-Pad4)*%
X91972500Y-104140000D03*
%TO.P,J2,5,STREAM_N_5*%
%TO.N,unconnected-(J2-STREAM_N-Pad5)*%
X90702500Y-101600000D03*
%TO.P,J2,6,CAN1_L_6*%
%TO.N,/CAN_L*%
X89432500Y-104140000D03*
%TO.P,J2,7,RSVD_7*%
%TO.N,unconnected-(J2-RSVD-Pad7)*%
X88162500Y-101600000D03*
D13*
%TO.P,J2,8,DETECT_8*%
%TO.N,/DETECT1*%
X86892500Y-104140000D03*
D14*
%TO.P,J2,SH1,SHIELD_SH1*%
%TO.N,GND*%
X99272500Y-92300000D03*
%TO.P,J2,SH2,SHIELD_SH2*%
X83472500Y-92300000D03*
%TD*%
D15*
%TO.P,M1,1*%
%TO.N,GND*%
X73600000Y-96250000D03*
X74302944Y-94552944D03*
X74302944Y-97947056D03*
X76000000Y-93850000D03*
D16*
X76000000Y-96250000D03*
D15*
X76000000Y-98650000D03*
X77697056Y-94552944D03*
X77697056Y-97947056D03*
X78400000Y-96250000D03*
%TD*%
%TO.P,M4,1*%
%TO.N,GND*%
X159600000Y-158000000D03*
X160302944Y-156302944D03*
X160302944Y-159697056D03*
X162000000Y-155600000D03*
D16*
X162000000Y-158000000D03*
D15*
X162000000Y-160400000D03*
X163697056Y-156302944D03*
X163697056Y-159697056D03*
X164400000Y-158000000D03*
%TD*%
D17*
%TO.P,U1,41,GND_41*%
%TO.N,GND*%
X79760000Y-130900000D03*
X81160000Y-130900000D03*
X79060000Y-130200000D03*
X80460000Y-130200000D03*
X81860000Y-130200000D03*
X79760000Y-129500000D03*
X81160000Y-129500000D03*
X79060000Y-128800000D03*
X80460000Y-128800000D03*
X81860000Y-128800000D03*
X79760000Y-128100000D03*
X81160000Y-128100000D03*
%TD*%
D18*
%TO.P,J_KVM,1,+5VSB_1*%
%TO.N,+5VSB*%
X125000000Y-158550000D03*
D19*
%TO.P,J_KVM,2,GND_2*%
%TO.N,GND*%
X127000000Y-158550000D03*
%TO.P,J_KVM,3,UART_TX_3*%
%TO.N,/AUX_TXC*%
X129000000Y-158550000D03*
%TO.P,J_KVM,4,UART_RX_4*%
%TO.N,/AUX_RXC*%
X131000000Y-158550000D03*
%TO.P,J_KVM,5,KVM_3V3_5*%
%TO.N,/KVM_3V3_REF*%
X133000000Y-158550000D03*
%TD*%
D10*
%TO.P,J_5V,1,VCC_1*%
%TO.N,/MAIN_5V_RAW*%
X163555000Y-150250000D03*
D11*
%TO.P,J_5V,2,GND_2*%
%TO.N,GND*%
X163555000Y-147750000D03*
%TD*%
D12*
%TO.P,J4,1,VCC_1*%
%TO.N,+5VSB*%
X132782500Y-101600000D03*
%TO.P,J4,2,GND_2*%
%TO.N,GND*%
X131512500Y-104140000D03*
%TO.P,J4,3,CAN1_H_3*%
%TO.N,/CAN_H*%
X130242500Y-101600000D03*
%TO.P,J4,4,STREAM_P_4*%
%TO.N,unconnected-(J4-STREAM_P-Pad4)*%
X128972500Y-104140000D03*
%TO.P,J4,5,STREAM_N_5*%
%TO.N,unconnected-(J4-STREAM_N-Pad5)*%
X127702500Y-101600000D03*
%TO.P,J4,6,CAN1_L_6*%
%TO.N,/CAN_L*%
X126432500Y-104140000D03*
%TO.P,J4,7,RSVD_7*%
%TO.N,unconnected-(J4-RSVD-Pad7)*%
X125162500Y-101600000D03*
D13*
%TO.P,J4,8,DETECT_8*%
%TO.N,/DETECT3*%
X123892500Y-104140000D03*
D14*
%TO.P,J4,SH1,SHIELD_SH1*%
%TO.N,GND*%
X136272500Y-92300000D03*
%TO.P,J4,SH2,SHIELD_SH2*%
X120472500Y-92300000D03*
%TD*%
D20*
%TO.P,J_USB,S1,SHIELD_S1*%
%TO.N,GND*%
X95680000Y-157895000D03*
D21*
X95680000Y-162075000D03*
D20*
X104320000Y-157895000D03*
D21*
X104320000Y-162075000D03*
%TD*%
D12*
%TO.P,J5,1,VCC_1*%
%TO.N,+5VSB*%
X150782500Y-101600000D03*
%TO.P,J5,2,GND_2*%
%TO.N,GND*%
X149512500Y-104140000D03*
%TO.P,J5,3,CAN1_H_3*%
%TO.N,/CAN_H*%
X148242500Y-101600000D03*
%TO.P,J5,4,STREAM_P_4*%
%TO.N,unconnected-(J5-STREAM_P-Pad4)*%
X146972500Y-104140000D03*
%TO.P,J5,5,STREAM_N_5*%
%TO.N,unconnected-(J5-STREAM_N-Pad5)*%
X145702500Y-101600000D03*
%TO.P,J5,6,CAN1_L_6*%
%TO.N,/CAN_L*%
X144432500Y-104140000D03*
%TO.P,J5,7,RSVD_7*%
%TO.N,unconnected-(J5-RSVD-Pad7)*%
X143162500Y-101600000D03*
D13*
%TO.P,J5,8,DETECT_8*%
%TO.N,/DETECT4*%
X141892500Y-104140000D03*
D14*
%TO.P,J5,SH1,SHIELD_SH1*%
%TO.N,GND*%
X154272500Y-92300000D03*
%TO.P,J5,SH2,SHIELD_SH2*%
X138472500Y-92300000D03*
%TD*%
D22*
%TO.N,+5VSB*%
X123000000Y-119000000D03*
X142000000Y-117920000D03*
X142000000Y-115300000D03*
X123000000Y-137000000D03*
X130500000Y-125000000D03*
X109500000Y-118000000D03*
X114000000Y-122500000D03*
X117000000Y-157000000D03*
X123000000Y-146000000D03*
X96000000Y-140500000D03*
X142000000Y-116500000D03*
X112500000Y-135000000D03*
X132500000Y-135000000D03*
%TO.N,GND*%
X85500000Y-111500000D03*
X133250000Y-153000000D03*
X104000000Y-118000000D03*
X72000000Y-138500000D03*
X136500000Y-125000000D03*
X154000000Y-108500000D03*
X124500000Y-112000000D03*
X102500000Y-107000000D03*
X105000000Y-120000000D03*
X111000000Y-112000000D03*
X143250000Y-120750000D03*
X102350000Y-152000000D03*
X77500000Y-144000000D03*
X73000000Y-117500000D03*
X113500000Y-114000000D03*
X161500000Y-143250000D03*
X125500000Y-136500000D03*
X116000000Y-145600000D03*
X115500000Y-120500000D03*
X147750000Y-123250000D03*
X127250000Y-153000000D03*
X100000000Y-124500000D03*
X96000000Y-156000000D03*
X86980000Y-139980000D03*
X115500000Y-138500000D03*
X138500000Y-112000000D03*
X99000000Y-152000000D03*
X105500000Y-136500000D03*
X109000000Y-160000000D03*
X124250000Y-150600000D03*
X84500000Y-146500000D03*
X159000000Y-113000000D03*
X149500000Y-121000000D03*
X156000000Y-123000000D03*
X103000000Y-156000000D03*
X102500000Y-109000000D03*
X100550000Y-146550000D03*
X156000000Y-120000000D03*
X89000000Y-141000000D03*
X138500000Y-146500000D03*
X143000000Y-132000000D03*
X73000000Y-135500000D03*
X136500000Y-132000000D03*
X154500000Y-117000000D03*
X123000000Y-126500000D03*
X108500000Y-122500000D03*
X108500000Y-126500000D03*
X116750000Y-150500000D03*
X153000000Y-112000000D03*
X152500000Y-120000000D03*
X77000000Y-139500000D03*
X147750000Y-117500000D03*
X136500000Y-121500000D03*
X137000000Y-136500000D03*
%TO.N,/MAIN_5V_RAW*%
X158250000Y-119250000D03*
X146000000Y-118000000D03*
%TO.N,Net-(DL3-DOUT)*%
X121000000Y-140500000D03*
X128500000Y-138500000D03*
%TO.N,Net-(DL2-DOUT)*%
X123000000Y-125500000D03*
X132500000Y-136500000D03*
%TO.N,/DETECT4*%
X140000000Y-108000000D03*
X137000000Y-112000000D03*
X80500000Y-135500000D03*
%TO.N,+3V3*%
X83500000Y-109000000D03*
X122495000Y-153995000D03*
X113510000Y-108010000D03*
X139000000Y-140500000D03*
X74500000Y-142500000D03*
X136500000Y-109000000D03*
X86500000Y-116500000D03*
X121000000Y-108000000D03*
X109000000Y-110000000D03*
X141000000Y-133000000D03*
X144500000Y-141500000D03*
X74000000Y-147500000D03*
%TO.N,/DETECT2*%
X113500000Y-112000000D03*
X111000000Y-108000000D03*
X77500000Y-135500000D03*
%TO.N,/5VSB_SENSE*%
X95750000Y-131250000D03*
X156500000Y-113250000D03*
%TO.N,/USB_VBUS*%
X124500000Y-143500000D03*
X149500000Y-146000000D03*
X121500000Y-143500000D03*
X97000000Y-155500000D03*
X151000000Y-120000000D03*
X140500000Y-145500000D03*
X100500000Y-151500000D03*
X138500000Y-143500000D03*
X103000000Y-155000000D03*
%TO.N,/DETECT1*%
X76500000Y-135500000D03*
X84500000Y-113000000D03*
X87000000Y-108000000D03*
%TO.N,/KVM_3V3_SENSE*%
X98000000Y-123600000D03*
X98000000Y-122250000D03*
%TO.N,Net-(DL6-DOUT)*%
X115500000Y-142000000D03*
X110000000Y-155500000D03*
X116500000Y-126500000D03*
X114500000Y-145000000D03*
%TO.N,Net-(DL5-DOUT)*%
X103500000Y-141500000D03*
X103500000Y-139500000D03*
X116000000Y-159000000D03*
X105000000Y-135500000D03*
%TO.N,/GPIO0*%
X91000000Y-116500000D03*
X119500000Y-147000000D03*
%TO.N,/EN*%
X109000000Y-151250000D03*
X82500000Y-149000000D03*
%TO.N,Net-(DL1-DOUT)*%
X130000000Y-126500000D03*
X115000000Y-119500000D03*
%TO.N,Net-(DL4-DOUT)*%
X115500000Y-135500000D03*
X111000000Y-138000000D03*
%TO.N,/DETECT3*%
X122000000Y-112000000D03*
X79000000Y-135500000D03*
X124000000Y-108000000D03*
%TO.N,/TEMP_HUB*%
X97500000Y-133000000D03*
X100000000Y-130500000D03*
X104250000Y-126250000D03*
X108750000Y-120500000D03*
%TO.N,/MAIN_5V_SENSE*%
X92000000Y-132500000D03*
X160500000Y-144750000D03*
%TO.N,/HUB_3V3_SENSE*%
X92000000Y-120000000D03*
X97000000Y-122250000D03*
X97199997Y-123600000D03*
X88750000Y-120750000D03*
%TD*%
%TO.N,+5VSB*%
D23*
X114500000Y-137000000D02*
X123000000Y-137000000D01*
X123000000Y-137000000D02*
X123000000Y-151000000D01*
X129000000Y-125000000D02*
X129000000Y-131000000D01*
X151750000Y-105550000D02*
X151750000Y-102567500D01*
X95782500Y-100467500D02*
X96500000Y-99750000D01*
X142000000Y-115300000D02*
X151750000Y-105550000D01*
X112500000Y-135000000D02*
X114500000Y-137000000D01*
X128750000Y-131250000D02*
X132500000Y-135000000D01*
X112500000Y-124000000D02*
X112500000Y-135000000D01*
X129000000Y-122500000D02*
X125500000Y-119000000D01*
X130500000Y-125000000D02*
X129000000Y-125000000D01*
X119500000Y-119000000D02*
X116000000Y-122500000D01*
X116000000Y-122500000D02*
X114000000Y-122500000D01*
X123000000Y-119000000D02*
X119500000Y-119000000D01*
X95782500Y-101600000D02*
X95782500Y-100467500D01*
X123000000Y-151000000D02*
X117000000Y-157000000D01*
X150000000Y-99750000D02*
X150782500Y-100532500D01*
X107000000Y-140500000D02*
X96000000Y-140500000D01*
X96500000Y-99750000D02*
X114282500Y-99750000D01*
X129000000Y-125000000D02*
X129000000Y-122500000D01*
X123000000Y-137000000D02*
X125000000Y-135000000D01*
X134920000Y-125000000D02*
X130500000Y-125000000D01*
X125000000Y-135000000D02*
X128750000Y-131250000D01*
X114000000Y-122500000D02*
X109500000Y-118000000D01*
X132782500Y-99750000D02*
X150000000Y-99750000D01*
X142000000Y-117920000D02*
X134920000Y-125000000D01*
X125500000Y-119000000D02*
X123000000Y-119000000D01*
X151750000Y-102567500D02*
X150782500Y-101600000D01*
X142000000Y-117920000D02*
X142000000Y-115300000D01*
X129000000Y-131000000D02*
X125000000Y-135000000D01*
X114282500Y-99750000D02*
X132782500Y-99750000D01*
X112500000Y-135000000D02*
X107000000Y-140500000D01*
X114000000Y-122500000D02*
X112500000Y-124000000D01*
X150782500Y-100532500D02*
X150782500Y-101600000D01*
X132782500Y-101600000D02*
X132782500Y-99750000D01*
X114282500Y-101600000D02*
X114282500Y-99750000D01*
%TO.N,/MAIN_5V_RAW*%
X146750000Y-118750000D02*
X146000000Y-118000000D01*
X157750000Y-118750000D02*
X146750000Y-118750000D01*
X158250000Y-119250000D02*
X157750000Y-118750000D01*
%TO.N,/DETECT4*%
D24*
X141892500Y-106107500D02*
X141892500Y-104140000D01*
X140000000Y-108000000D02*
X141892500Y-106107500D01*
%TO.N,+3V3*%
D25*
X95500000Y-159500000D02*
X87000000Y-151000000D01*
X74500000Y-141500000D02*
X74225000Y-141225000D01*
X139000000Y-140500000D02*
X141000000Y-138500000D01*
D24*
X121000000Y-108000000D02*
X122000000Y-109000000D01*
X122000000Y-109000000D02*
X136500000Y-109000000D01*
X108500000Y-110500000D02*
X109000000Y-110000000D01*
D25*
X74225000Y-141225000D02*
X74225000Y-118275000D01*
X74225000Y-118275000D02*
X83500000Y-109000000D01*
X108500000Y-162000000D02*
X106000000Y-159500000D01*
X77500000Y-151000000D02*
X74000000Y-147500000D01*
D24*
X83500000Y-113500000D02*
X83500000Y-109000000D01*
X109000000Y-110000000D02*
X109500000Y-109500000D01*
X120990000Y-108010000D02*
X121000000Y-108000000D01*
D25*
X87000000Y-151000000D02*
X77500000Y-151000000D01*
D24*
X83500000Y-109000000D02*
X85000000Y-110500000D01*
D25*
X74500000Y-142500000D02*
X74000000Y-143000000D01*
D24*
X112020000Y-109500000D02*
X113510000Y-108010000D01*
D25*
X122505000Y-153995000D02*
X132000000Y-144500000D01*
X74500000Y-142500000D02*
X74500000Y-141500000D01*
D24*
X85000000Y-110500000D02*
X108500000Y-110500000D01*
D25*
X74000000Y-143000000D02*
X74000000Y-147500000D01*
X122495000Y-153995000D02*
X122495000Y-154005000D01*
D24*
X113510000Y-108010000D02*
X120990000Y-108010000D01*
X109500000Y-109500000D02*
X112020000Y-109500000D01*
D25*
X141500000Y-144500000D02*
X144500000Y-141500000D01*
X122495000Y-154005000D02*
X114500000Y-162000000D01*
X114500000Y-162000000D02*
X108500000Y-162000000D01*
D24*
X86500000Y-116500000D02*
X83500000Y-113500000D01*
D25*
X141000000Y-138500000D02*
X141000000Y-133000000D01*
X122495000Y-153995000D02*
X122505000Y-153995000D01*
X106000000Y-159500000D02*
X95500000Y-159500000D01*
X132000000Y-144500000D02*
X141500000Y-144500000D01*
%TO.N,/DETECT2*%
D24*
X110000000Y-107000000D02*
X106500000Y-107000000D01*
X106500000Y-107000000D02*
X105392500Y-105892500D01*
X111000000Y-108000000D02*
X110000000Y-107000000D01*
X105392500Y-105892500D02*
X105392500Y-104140000D01*
%TO.N,/USB_VBUS*%
D26*
X103000000Y-155000000D02*
X97500000Y-155000000D01*
X97500000Y-155000000D02*
X97000000Y-155500000D01*
X141000000Y-146000000D02*
X149500000Y-146000000D01*
X103000000Y-155000000D02*
X105750000Y-152250000D01*
X146500000Y-136000000D02*
X146500000Y-122500000D01*
X101789339Y-151500000D02*
X100500000Y-151500000D01*
X149500000Y-146000000D02*
X149500000Y-139000000D01*
X114500000Y-143500000D02*
X121500000Y-143500000D01*
D24*
X100500000Y-151500000D02*
X100600000Y-151400000D01*
D26*
X105750000Y-152250000D02*
X104750000Y-151250000D01*
X146500000Y-122500000D02*
X149000000Y-120000000D01*
X102039339Y-151250000D02*
X101789339Y-151500000D01*
X124500000Y-143500000D02*
X138500000Y-143500000D01*
X103000000Y-155000000D02*
X114500000Y-143500000D01*
X104750000Y-151250000D02*
X102039339Y-151250000D01*
X149500000Y-139000000D02*
X146500000Y-136000000D01*
X149000000Y-120000000D02*
X151000000Y-120000000D01*
X140500000Y-145500000D02*
X141000000Y-146000000D01*
%TO.N,/DETECT1*%
D24*
X87000000Y-108000000D02*
X87000000Y-107500000D01*
X87000000Y-107500000D02*
X86892500Y-107392500D01*
X86892500Y-107392500D02*
X86892500Y-104140000D01*
%TO.N,/KVM_3V3_SENSE*%
X98000000Y-123600000D02*
X98000000Y-122250000D01*
%TO.N,Net-(DL6-DOUT)*%
X110000000Y-155500000D02*
X114500000Y-151000000D01*
X114500000Y-151000000D02*
X114500000Y-145000000D01*
%TO.N,/DETECT3*%
X124000000Y-108000000D02*
X124000000Y-107500000D01*
X124000000Y-107500000D02*
X123892500Y-107392500D01*
X123892500Y-107392500D02*
X123892500Y-104140000D01*
%TO.N,/TEMP_HUB*%
X108750000Y-120500000D02*
X104250000Y-125000000D01*
X104250000Y-125000000D02*
X104250000Y-126250000D01*
X100000000Y-130500000D02*
X97500000Y-133000000D01*
%TO.N,/HUB_3V3_SENSE*%
X92000000Y-120000000D02*
X89500000Y-120000000D01*
X97199997Y-122449997D02*
X97000000Y-122250000D01*
X89500000Y-120000000D02*
X88750000Y-120750000D01*
X97199997Y-123600000D02*
X97199997Y-122449997D01*
%TD*%
M02*
