M48
; DRILL file KiCad 10.0.3-10.0.3~ubuntu24.04.1 date 2026-06-05T22:04:01
; FORMAT={-:-/ absolute / metric / decimal}
; #@! TF.CreationDate,2026-06-05T22:04:01+00:00
; #@! TF.GenerationSoftware,Kicad,Pcbnew,10.0.3-10.0.3~ubuntu24.04.1
; #@! TF.FileFunction,Plated,1,4,PTH
FMAT,2
METRIC
; #@! TA.AperFunction,Plated,PTH,ComponentDrill
T1C0.200
; #@! TA.AperFunction,Plated,PTH,ViaDrill
T2C0.300
; #@! TA.AperFunction,Plated,PTH,ComponentDrill
T3C0.500
; #@! TA.AperFunction,Plated,PTH,ComponentDrill
T4C0.600
; #@! TA.AperFunction,Plated,PTH,ComponentDrill
T5C0.600
; #@! TA.AperFunction,Plated,PTH,ComponentDrill
T6C0.900
; #@! TA.AperFunction,Plated,PTH,ComponentDrill
T7C1.000
; #@! TA.AperFunction,Plated,PTH,ComponentDrill
T8C1.000
; #@! TA.AperFunction,Plated,PTH,ComponentDrill
T9C3.200
%
G90
G05
T1
X79.06Y-128.8
X79.06Y-130.2
X79.76Y-128.1
X79.76Y-129.5
X79.76Y-130.9
X80.46Y-128.8
X80.46Y-130.2
X81.16Y-128.1
X81.16Y-129.5
X81.16Y-130.9
X81.86Y-128.8
X81.86Y-130.2
T2
X72.0Y-138.5
X73.0Y-117.5
X73.0Y-135.5
X74.0Y-147.5
X74.5Y-142.5
X76.5Y-135.5
X77.0Y-139.5
X77.5Y-135.5
X77.5Y-144.0
X79.0Y-135.5
X80.5Y-135.5
X82.5Y-149.0
X83.5Y-109.0
X84.5Y-113.0
X84.5Y-146.5
X85.5Y-111.5
X86.5Y-116.5
X86.98Y-139.98
X87.0Y-108.0
X88.75Y-120.75
X89.0Y-141.0
X91.0Y-116.5
X92.0Y-120.0
X92.0Y-132.5
X95.75Y-131.25
X96.0Y-140.5
X96.0Y-156.0
X97.0Y-122.25
X97.0Y-155.5
X97.2Y-123.6
X97.5Y-133.0
X98.0Y-122.25
X98.0Y-123.6
X99.0Y-152.0
X100.0Y-124.5
X100.0Y-130.5
X100.5Y-151.5
X100.55Y-146.55
X102.35Y-152.0
X102.5Y-107.0
X102.5Y-109.0
X103.0Y-155.0
X103.0Y-156.0
X103.5Y-139.5
X103.5Y-141.5
X104.0Y-118.0
X104.25Y-126.25
X105.0Y-120.0
X105.0Y-135.5
X105.5Y-136.5
X108.5Y-122.5
X108.5Y-126.5
X108.75Y-120.5
X109.0Y-110.0
X109.0Y-151.25
X109.0Y-160.0
X109.5Y-118.0
X110.0Y-155.5
X111.0Y-108.0
X111.0Y-112.0
X111.0Y-138.0
X112.5Y-135.0
X113.5Y-112.0
X113.5Y-114.0
X113.51Y-108.01
X114.0Y-122.5
X114.5Y-145.0
X115.0Y-119.5
X115.5Y-120.5
X115.5Y-135.5
X115.5Y-138.5
X115.5Y-142.0
X116.0Y-145.6
X116.0Y-159.0
X116.5Y-126.5
X116.75Y-150.5
X117.0Y-157.0
X119.5Y-147.0
X121.0Y-108.0
X121.0Y-140.5
X121.5Y-143.5
X122.0Y-112.0
X122.495Y-153.995
X123.0Y-119.0
X123.0Y-125.5
X123.0Y-126.5
X123.0Y-137.0
X123.0Y-146.0
X124.0Y-108.0
X124.25Y-150.6
X124.5Y-112.0
X124.5Y-143.5
X125.5Y-136.5
X127.25Y-153.0
X128.5Y-138.5
X130.0Y-126.5
X130.5Y-125.0
X132.5Y-135.0
X132.5Y-136.5
X133.25Y-153.0
X136.5Y-109.0
X136.5Y-121.5
X136.5Y-125.0
X136.5Y-132.0
X137.0Y-112.0
X137.0Y-136.5
X138.5Y-112.0
X138.5Y-143.5
X138.5Y-146.5
X139.0Y-140.5
X140.0Y-108.0
X140.5Y-145.5
X141.0Y-133.0
X142.0Y-115.3
X142.0Y-116.5
X142.0Y-117.92
X143.0Y-132.0
X143.25Y-120.75
X144.5Y-141.5
X146.0Y-118.0
X147.75Y-117.5
X147.75Y-123.25
X149.5Y-121.0
X149.5Y-146.0
X151.0Y-120.0
X152.5Y-120.0
X153.0Y-112.0
X154.0Y-108.5
X154.5Y-117.0
X156.0Y-120.0
X156.0Y-123.0
X156.5Y-113.25
X158.25Y-119.25
X159.0Y-113.0
X160.5Y-144.75
X161.5Y-143.25
T3
X73.6Y-96.25
X73.6Y-158.0
X74.303Y-94.553
X74.303Y-97.947
X74.303Y-156.303
X74.303Y-159.697
X76.0Y-93.85
X76.0Y-98.65
X76.0Y-155.6
X76.0Y-160.4
X77.697Y-94.553
X77.697Y-97.947
X77.697Y-156.303
X77.697Y-159.697
X78.4Y-96.25
X78.4Y-158.0
X159.6Y-96.25
X159.6Y-158.0
X160.303Y-94.553
X160.303Y-97.947
X160.303Y-156.303
X160.303Y-159.697
X162.0Y-93.85
X162.0Y-98.65
X162.0Y-155.6
X162.0Y-160.4
X163.697Y-94.553
X163.697Y-97.947
X163.697Y-156.303
X163.697Y-159.697
X164.4Y-96.25
X164.4Y-158.0
T6
X125.0Y-158.55
X127.0Y-158.55
X129.0Y-158.55
X131.0Y-158.55
X133.0Y-158.55
T7
X86.892Y-104.14
X88.162Y-101.6
X89.432Y-104.14
X90.703Y-101.6
X91.972Y-104.14
X93.242Y-101.6
X94.512Y-104.14
X95.782Y-101.6
X105.392Y-104.14
X106.662Y-101.6
X107.932Y-104.14
X109.203Y-101.6
X110.472Y-104.14
X111.742Y-101.6
X113.012Y-104.14
X114.282Y-101.6
X123.892Y-104.14
X125.162Y-101.6
X126.432Y-104.14
X127.703Y-101.6
X128.972Y-104.14
X130.243Y-101.6
X131.512Y-104.14
X132.782Y-101.6
X141.892Y-104.14
X143.162Y-101.6
X144.433Y-104.14
X145.702Y-101.6
X146.972Y-104.14
X148.243Y-101.6
X149.512Y-104.14
X150.782Y-101.6
T8
X163.555Y-112.75
X163.555Y-115.25
X163.555Y-147.75
X163.555Y-150.25
T9
X76.0Y-96.25
X76.0Y-158.0
X162.0Y-96.25
X162.0Y-158.0
T4
X83.472Y-92.95G85X83.472Y-91.65
G05
X99.272Y-92.95G85X99.272Y-91.65
G05
X101.972Y-92.95G85X101.972Y-91.65
G05
X117.772Y-92.95G85X117.772Y-91.65
G05
X120.472Y-92.95G85X120.472Y-91.65
G05
X136.273Y-92.95G85X136.273Y-91.65
G05
X138.472Y-92.95G85X138.472Y-91.65
G05
X154.272Y-92.95G85X154.272Y-91.65
G05
T5
X95.68Y-157.345G85X95.68Y-158.445
G05
X95.68Y-161.775G85X95.68Y-162.375
G05
X104.32Y-157.345G85X104.32Y-158.445
G05
X104.32Y-161.775G85X104.32Y-162.375
G05
M30
