%TF.GenerationSoftware,KiCad,Pcbnew,10.0.3-10.0.3~ubuntu24.04.1*%
%TF.CreationDate,2026-06-06T03:49:15+00:00*%
%TF.ProjectId,12vhpwr-standard-module,31327668-7077-4722-9d73-74616e646172,rev?*%
%TF.SameCoordinates,Original*%
%TF.FileFunction,Soldermask,Top*%
%TF.FilePolarity,Negative*%
%FSLAX46Y46*%
G04 Gerber Fmt 4.6, Leading zero omitted, Abs format (unit mm)*
G04 Created by KiCad (PCBNEW 10.0.3-10.0.3~ubuntu24.04.1) date 2026-06-06 03:49:15*
%MOMM*%
%LPD*%
G01*
G04 APERTURE LIST*
G04 Aperture macros list*
%AMRoundRect*
0 Rectangle with rounded corners*
0 $1 Rounding radius*
0 $2 $3 $4 $5 $6 $7 $8 $9 X,Y pos of 4 corners*
0 Add a 4 corners polygon primitive as box body*
4,1,4,$2,$3,$4,$5,$6,$7,$8,$9,$2,$3,0*
0 Add four circle primitives for the rounded corners*
1,1,$1+$1,$2,$3*
1,1,$1+$1,$4,$5*
1,1,$1+$1,$6,$7*
1,1,$1+$1,$8,$9*
0 Add four rect primitives between the rounded corners*
20,1,$1+$1,$2,$3,$4,$5,0*
20,1,$1+$1,$4,$5,$6,$7,0*
20,1,$1+$1,$6,$7,$8,$9,0*
20,1,$1+$1,$8,$9,$2,$3,0*%
%AMOutline5P*
0 Free polygon, 5 corners , with rotation*
0 The origin of the aperture is its center*
0 number of corners: always 5*
0 $1 to $10 corner X, Y*
0 $11 Rotation angle, in degrees counterclockwise*
0 create outline with 5 corners*
4,1,5,$1,$2,$3,$4,$5,$6,$7,$8,$9,$10,$1,$2,$11*%
%AMOutline6P*
0 Free polygon, 6 corners , with rotation*
0 The origin of the aperture is its center*
0 number of corners: always 6*
0 $1 to $12 corner X, Y*
0 $13 Rotation angle, in degrees counterclockwise*
0 create outline with 6 corners*
4,1,6,$1,$2,$3,$4,$5,$6,$7,$8,$9,$10,$11,$12,$1,$2,$13*%
%AMOutline7P*
0 Free polygon, 7 corners , with rotation*
0 The origin of the aperture is its center*
0 number of corners: always 7*
0 $1 to $14 corner X, Y*
0 $15 Rotation angle, in degrees counterclockwise*
0 create outline with 7 corners*
4,1,7,$1,$2,$3,$4,$5,$6,$7,$8,$9,$10,$11,$12,$13,$14,$1,$2,$15*%
%AMOutline8P*
0 Free polygon, 8 corners , with rotation*
0 The origin of the aperture is its center*
0 number of corners: always 8*
0 $1 to $16 corner X, Y*
0 $17 Rotation angle, in degrees counterclockwise*
0 create outline with 8 corners*
4,1,8,$1,$2,$3,$4,$5,$6,$7,$8,$9,$10,$11,$12,$13,$14,$15,$16,$1,$2,$17*%
G04 Aperture macros list end*
%ADD10C,0.000000*%
%ADD11RoundRect,0.250000X-1.425000X0.362500X-1.425000X-0.362500X1.425000X-0.362500X1.425000X0.362500X0*%
%ADD12RoundRect,0.135000X-0.185000X0.135000X-0.185000X-0.135000X0.185000X-0.135000X0.185000X0.135000X0*%
%ADD13RoundRect,0.150000X-0.512500X-0.150000X0.512500X-0.150000X0.512500X0.150000X-0.512500X0.150000X0*%
%ADD14RoundRect,0.225000X0.250000X-0.225000X0.250000X0.225000X-0.250000X0.225000X-0.250000X-0.225000X0*%
%ADD15RoundRect,0.140000X0.170000X-0.140000X0.170000X0.140000X-0.170000X0.140000X-0.170000X-0.140000X0*%
%ADD16R,0.566000X0.540000*%
%ADD17RoundRect,0.225000X-0.250000X0.225000X-0.250000X-0.225000X0.250000X-0.225000X0.250000X0.225000X0*%
%ADD18R,1.860000X1.230000*%
%ADD19C,1.524000*%
%ADD20C,1.143000*%
%ADD21R,1.320800X0.558800*%
%ADD22R,1.587500X0.558800*%
%ADD23RoundRect,0.250000X-0.475000X0.250000X-0.475000X-0.250000X0.475000X-0.250000X0.475000X0.250000X0*%
%ADD24C,2.000000*%
%ADD25R,0.800000X0.400000*%
%ADD26R,0.400000X0.800000*%
%ADD27Outline5P,-0.600000X0.204000X-0.204000X0.600000X0.600000X0.600000X0.600000X-0.600000X-0.600000X-0.600000X0.000000*%
%ADD28R,1.200000X1.200000*%
%ADD29R,0.800000X0.800000*%
%ADD30C,0.800000*%
%ADD31C,6.400000*%
%ADD32RoundRect,0.135000X-0.135000X-0.185000X0.135000X-0.185000X0.135000X0.185000X-0.135000X0.185000X0*%
%ADD33RoundRect,0.150000X0.150000X-0.825000X0.150000X0.825000X-0.150000X0.825000X-0.150000X-0.825000X0*%
%ADD34RoundRect,0.135000X0.135000X0.185000X-0.135000X0.185000X-0.135000X-0.185000X0.135000X-0.185000X0*%
%ADD35RoundRect,0.140000X-0.170000X0.140000X-0.170000X-0.140000X0.170000X-0.140000X0.170000X0.140000X0*%
%ADD36RoundRect,0.250000X0.250000X0.475000X-0.250000X0.475000X-0.250000X-0.475000X0.250000X-0.475000X0*%
%ADD37RoundRect,0.135000X0.185000X-0.135000X0.185000X0.135000X-0.185000X0.135000X-0.185000X-0.135000X0*%
%ADD38RoundRect,0.140000X0.140000X0.170000X-0.140000X0.170000X-0.140000X-0.170000X0.140000X-0.170000X0*%
%ADD39C,3.200000*%
%ADD40R,1.524000X1.524000*%
%ADD41O,2.500000X1.200000*%
%ADD42C,0.650000*%
%ADD43R,1.150000X0.300000*%
%ADD44O,2.100000X1.000000*%
%ADD45O,1.600000X1.000000*%
%ADD46RoundRect,0.140000X-0.140000X-0.170000X0.140000X-0.170000X0.140000X0.170000X-0.140000X0.170000X0*%
%ADD47RoundRect,0.250000X0.475000X-0.250000X0.475000X0.250000X-0.475000X0.250000X-0.475000X-0.250000X0*%
%ADD48RoundRect,0.112500X0.187500X0.112500X-0.187500X0.112500X-0.187500X-0.112500X0.187500X-0.112500X0*%
%ADD49RoundRect,0.150000X-0.150000X0.825000X-0.150000X-0.825000X0.150000X-0.825000X0.150000X0.825000X0*%
%ADD50RoundRect,0.250000X-1.000000X-0.650000X1.000000X-0.650000X1.000000X0.650000X-1.000000X0.650000X0*%
G04 APERTURE END LIST*
D10*
%TO.C,LOGO1*%
G36*
X121928000Y-108937000D02*
G01*
X123195000Y-108940000D01*
X123195000Y-110518000D01*
X123195000Y-112096000D01*
X121928000Y-112099000D01*
X120662000Y-112101000D01*
X120662000Y-110518000D01*
X120662000Y-108935000D01*
X121928000Y-108937000D01*
G37*
G36*
X123195000Y-113316000D02*
G01*
X123195000Y-114019000D01*
X121933000Y-114019000D01*
X120671000Y-114019000D01*
X120671000Y-113316000D01*
X120671000Y-112613000D01*
X121933000Y-112613000D01*
X123195000Y-112613000D01*
X123195000Y-113316000D01*
G37*
G36*
X121901000Y-115586000D02*
G01*
X122557000Y-115589000D01*
X122560000Y-115834000D01*
X122562000Y-116078000D01*
X122156000Y-116078000D01*
X121751000Y-116078000D01*
X121751000Y-116119000D01*
X121751000Y-116161000D01*
X121993000Y-116161000D01*
X122233000Y-116161000D01*
X122240000Y-116361000D01*
X122241000Y-116402000D01*
X122242000Y-116439000D01*
X122243000Y-116474000D01*
X122243000Y-116505000D01*
X122243000Y-116531000D01*
X122242000Y-116551000D01*
X122242000Y-116565000D01*
X122240000Y-116570000D01*
X122236000Y-116573000D01*
X122223000Y-116575000D01*
X122203000Y-116577000D01*
X122175000Y-116578000D01*
X122141000Y-116579000D01*
X122099000Y-116579000D01*
X122049000Y-116580000D01*
X121993000Y-116580000D01*
X121751000Y-116580000D01*
X121751000Y-116622000D01*
X121751000Y-116664000D01*
X122094000Y-116666000D01*
X122164000Y-116666000D01*
X122232000Y-116666000D01*
X122295000Y-116666000D01*
X122354000Y-116666000D01*
X122405000Y-116666000D01*
X122447000Y-116666000D01*
X122479000Y-116665000D01*
X122498000Y-116665000D01*
X122515000Y-116664000D01*
X122528000Y-116664000D01*
X122539000Y-116665000D01*
X122548000Y-116666000D01*
X122555000Y-116667000D01*
X122561000Y-116669000D01*
X122563000Y-116672000D01*
X122565000Y-116674000D01*
X122566000Y-116682000D01*
X122567000Y-116699000D01*
X122568000Y-116722000D01*
X122570000Y-116753000D01*
X122571000Y-116789000D01*
X122571000Y-116830000D01*
X122572000Y-116876000D01*
X122573000Y-116923000D01*
X122576000Y-117158000D01*
X121923000Y-117158000D01*
X121269000Y-117158000D01*
X121263000Y-116998000D01*
X121262000Y-116952000D01*
X121261000Y-116885000D01*
X121260000Y-116800000D01*
X121258000Y-116700000D01*
X121256000Y-116587000D01*
X121255000Y-116466000D01*
X121253000Y-116339000D01*
X121252000Y-116210000D01*
X121247000Y-115584000D01*
X121901000Y-115586000D01*
G37*
G36*
X121010000Y-115584000D02*
G01*
X121088000Y-115585000D01*
X121142000Y-115588000D01*
X121165000Y-115590000D01*
X121166000Y-115596000D01*
X121167000Y-115611000D01*
X121167000Y-115634000D01*
X121169000Y-115664000D01*
X121170000Y-115700000D01*
X121171000Y-115742000D01*
X121172000Y-115787000D01*
X121173000Y-115835000D01*
X121176000Y-116077000D01*
X120907000Y-116071000D01*
X120829000Y-116070000D01*
X120766000Y-116069000D01*
X120716000Y-116069000D01*
X120677000Y-116069000D01*
X120646000Y-116071000D01*
X120623000Y-116073000D01*
X120603000Y-116077000D01*
X120586000Y-116080000D01*
X120561000Y-116090000D01*
X120538000Y-116101000D01*
X120516000Y-116115000D01*
X120495000Y-116132000D01*
X120476000Y-116151000D01*
X120458000Y-116172000D01*
X120442000Y-116197000D01*
X120427000Y-116225000D01*
X120418000Y-116243000D01*
X120411000Y-116260000D01*
X120406000Y-116275000D01*
X120402000Y-116289000D01*
X120399000Y-116304000D01*
X120397000Y-116320000D01*
X120396000Y-116339000D01*
X120396000Y-116362000D01*
X120398000Y-116393000D01*
X120402000Y-116423000D01*
X120409000Y-116452000D01*
X120417000Y-116479000D01*
X120428000Y-116505000D01*
X120443000Y-116530000D01*
X120460000Y-116554000D01*
X120479000Y-116579000D01*
X120504000Y-116603000D01*
X120526000Y-116622000D01*
X120551000Y-116636000D01*
X120581000Y-116646000D01*
X120621000Y-116653000D01*
X120672000Y-116657000D01*
X120739000Y-116660000D01*
X120824000Y-116661000D01*
X120870000Y-116661000D01*
X120916000Y-116662000D01*
X120961000Y-116662000D01*
X121003000Y-116663000D01*
X121040000Y-116663000D01*
X121072000Y-116664000D01*
X121098000Y-116664000D01*
X121116000Y-116664000D01*
X121183000Y-116664000D01*
X121183000Y-116910000D01*
X121183000Y-117156000D01*
X120883000Y-117151000D01*
X120808000Y-117150000D01*
X120743000Y-117149000D01*
X120686000Y-117147000D01*
X120638000Y-117145000D01*
X120598000Y-117143000D01*
X120564000Y-117140000D01*
X120537000Y-117137000D01*
X120517000Y-117134000D01*
X120427000Y-117107000D01*
X120341000Y-117065000D01*
X120260000Y-117010000D01*
X120185000Y-116942000D01*
X120118000Y-116863000D01*
X120060000Y-116777000D01*
X120013000Y-116682000D01*
X119977000Y-116580000D01*
X119970000Y-116549000D01*
X119964000Y-116510000D01*
X119960000Y-116465000D01*
X119956000Y-116417000D01*
X119953000Y-116369000D01*
X119953000Y-116321000D01*
X119954000Y-116279000D01*
X119957000Y-116240000D01*
X119976000Y-116136000D01*
X120010000Y-116035000D01*
X120057000Y-115940000D01*
X120115000Y-115852000D01*
X120184000Y-115773000D01*
X120261000Y-115706000D01*
X120347000Y-115651000D01*
X120438000Y-115611000D01*
X120453000Y-115606000D01*
X120471000Y-115603000D01*
X120489000Y-115598000D01*
X120508000Y-115595000D01*
X120530000Y-115591000D01*
X120551000Y-115589000D01*
X120573000Y-115587000D01*
X120597000Y-115585000D01*
X120652000Y-115583000D01*
X120730000Y-115582000D01*
X120822000Y-115582000D01*
X120918000Y-115582000D01*
X121010000Y-115584000D01*
G37*
G36*
X118221000Y-111167000D02*
G01*
X118352000Y-111257000D01*
X118538000Y-111385000D01*
X118749000Y-111532000D01*
X118961000Y-111681000D01*
X119149000Y-111812000D01*
X119285000Y-111909000D01*
X119343000Y-111952000D01*
X119353000Y-111953000D01*
X119353000Y-111966000D01*
X119326000Y-112025000D01*
X119253000Y-112164000D01*
X119115000Y-112421000D01*
X118893000Y-112830000D01*
X118570000Y-113425000D01*
X118126000Y-114243000D01*
X117971000Y-114530000D01*
X117855000Y-114745000D01*
X117773000Y-114901000D01*
X117720000Y-115010000D01*
X117689000Y-115087000D01*
X117675000Y-115143000D01*
X117673000Y-115191000D01*
X117674000Y-115246000D01*
X117675000Y-115272000D01*
X117677000Y-115294000D01*
X117680000Y-115313000D01*
X117684000Y-115330000D01*
X117688000Y-115346000D01*
X117696000Y-115365000D01*
X117705000Y-115386000D01*
X117717000Y-115410000D01*
X117734000Y-115441000D01*
X117753000Y-115470000D01*
X117771000Y-115496000D01*
X117792000Y-115520000D01*
X117812000Y-115538000D01*
X117834000Y-115555000D01*
X117855000Y-115567000D01*
X117877000Y-115576000D01*
X117898000Y-115577000D01*
X117947000Y-115580000D01*
X118022000Y-115582000D01*
X118122000Y-115584000D01*
X118248000Y-115586000D01*
X118397000Y-115588000D01*
X118570000Y-115590000D01*
X118767000Y-115591000D01*
X119623000Y-115598000D01*
X119624000Y-116091000D01*
X119624000Y-116197000D01*
X119624000Y-116307000D01*
X119623000Y-116418000D01*
X119623000Y-116527000D01*
X119623000Y-116633000D01*
X119622000Y-116728000D01*
X119621000Y-116813000D01*
X119620000Y-116883000D01*
X119614000Y-117181000D01*
X117719000Y-117177000D01*
X117186000Y-117176000D01*
X116758000Y-117175000D01*
X116425000Y-117174000D01*
X116176000Y-117173000D01*
X115999000Y-117171000D01*
X115884000Y-117168000D01*
X115818000Y-117165000D01*
X115793000Y-117161000D01*
X115752000Y-117139000D01*
X115712000Y-117107000D01*
X115673000Y-117065000D01*
X115635000Y-117015000D01*
X115601000Y-116958000D01*
X115569000Y-116897000D01*
X115542000Y-116831000D01*
X115520000Y-116762000D01*
X115515000Y-116740000D01*
X115510000Y-116719000D01*
X115507000Y-116697000D01*
X115504000Y-116673000D01*
X115502000Y-116648000D01*
X115501000Y-116619000D01*
X115500000Y-116584000D01*
X115500000Y-116543000D01*
X115501000Y-116477000D01*
X115503000Y-116419000D01*
X115507000Y-116366000D01*
X115513000Y-116317000D01*
X115521000Y-116268000D01*
X115533000Y-116220000D01*
X115547000Y-116170000D01*
X115564000Y-116115000D01*
X115580000Y-116067000D01*
X115599000Y-116019000D01*
X115637000Y-115937000D01*
X115711000Y-115790000D01*
X115837000Y-115547000D01*
X116032000Y-115177000D01*
X116309000Y-114649000D01*
X116687000Y-113931000D01*
X116879000Y-113567000D01*
X117068000Y-113207000D01*
X117251000Y-112860000D01*
X117422000Y-112535000D01*
X117576000Y-112244000D01*
X117707000Y-111992000D01*
X117812000Y-111792000D01*
X117887000Y-111652000D01*
X117942000Y-111548000D01*
X117993000Y-111450000D01*
X118040000Y-111362000D01*
X118081000Y-111285000D01*
X118117000Y-111222000D01*
X118144000Y-111174000D01*
X118161000Y-111143000D01*
X118169000Y-111133000D01*
X118221000Y-111167000D01*
G37*
G36*
X123597000Y-115591000D02*
G01*
X123865000Y-115594000D01*
X123866000Y-115826000D01*
X123867000Y-115874000D01*
X123867000Y-115917000D01*
X123868000Y-115958000D01*
X123868000Y-115994000D01*
X123868000Y-116024000D01*
X123868000Y-116048000D01*
X123869000Y-116064000D01*
X123869000Y-116070000D01*
X123866000Y-116074000D01*
X123856000Y-116077000D01*
X123836000Y-116078000D01*
X123808000Y-116080000D01*
X123769000Y-116082000D01*
X123718000Y-116083000D01*
X123655000Y-116084000D01*
X123577000Y-116085000D01*
X123466000Y-116086000D01*
X123381000Y-116088000D01*
X123319000Y-116091000D01*
X123272000Y-116098000D01*
X123239000Y-116108000D01*
X123213000Y-116122000D01*
X123191000Y-116142000D01*
X123167000Y-116168000D01*
X123148000Y-116192000D01*
X123131000Y-116216000D01*
X123118000Y-116241000D01*
X123108000Y-116268000D01*
X123101000Y-116295000D01*
X123096000Y-116325000D01*
X123094000Y-116356000D01*
X123094000Y-116389000D01*
X123097000Y-116420000D01*
X123102000Y-116449000D01*
X123109000Y-116476000D01*
X123118000Y-116501000D01*
X123131000Y-116525000D01*
X123144000Y-116549000D01*
X123162000Y-116571000D01*
X123182000Y-116592000D01*
X123207000Y-116618000D01*
X123229000Y-116636000D01*
X123254000Y-116649000D01*
X123287000Y-116659000D01*
X123332000Y-116664000D01*
X123392000Y-116668000D01*
X123474000Y-116670000D01*
X123581000Y-116672000D01*
X123639000Y-116673000D01*
X123694000Y-116673000D01*
X123742000Y-116673000D01*
X123786000Y-116674000D01*
X123821000Y-116675000D01*
X123848000Y-116676000D01*
X123866000Y-116677000D01*
X123872000Y-116677000D01*
X123873000Y-116683000D01*
X123873000Y-116697000D01*
X123874000Y-116720000D01*
X123875000Y-116750000D01*
X123875000Y-116786000D01*
X123876000Y-116827000D01*
X123876000Y-116873000D01*
X123876000Y-116921000D01*
X123879000Y-117162000D01*
X123572000Y-117161000D01*
X123456000Y-117161000D01*
X123365000Y-117160000D01*
X123293000Y-117157000D01*
X123237000Y-117151000D01*
X123191000Y-117144000D01*
X123151000Y-117132000D01*
X123113000Y-117117000D01*
X123071000Y-117096000D01*
X122994000Y-117051000D01*
X122922000Y-116995000D01*
X122857000Y-116931000D01*
X122798000Y-116858000D01*
X122749000Y-116779000D01*
X122707000Y-116695000D01*
X122676000Y-116606000D01*
X122656000Y-116514000D01*
X122651000Y-116483000D01*
X122648000Y-116444000D01*
X122646000Y-116403000D01*
X122645000Y-116361000D01*
X122646000Y-116319000D01*
X122648000Y-116278000D01*
X122651000Y-116242000D01*
X122656000Y-116212000D01*
X122669000Y-116150000D01*
X122685000Y-116091000D01*
X122707000Y-116036000D01*
X122733000Y-115982000D01*
X122763000Y-115929000D01*
X122798000Y-115880000D01*
X122837000Y-115832000D01*
X122882000Y-115784000D01*
X122927000Y-115742000D01*
X122971000Y-115706000D01*
X123017000Y-115675000D01*
X123063000Y-115650000D01*
X123110000Y-115629000D01*
X123159000Y-115613000D01*
X123210000Y-115602000D01*
X123263000Y-115594000D01*
X123282000Y-115593000D01*
X123310000Y-115592000D01*
X123347000Y-115591000D01*
X123388000Y-115591000D01*
X123437000Y-115590000D01*
X123488000Y-115590000D01*
X123542000Y-115590000D01*
X123597000Y-115591000D01*
G37*
G36*
X125835000Y-111146000D02*
G01*
X125856000Y-111183000D01*
X125889000Y-111242000D01*
X125932000Y-111320000D01*
X125982000Y-111414000D01*
X126040000Y-111522000D01*
X126103000Y-111640000D01*
X126170000Y-111768000D01*
X126329000Y-112071000D01*
X126565000Y-112518000D01*
X126851000Y-113064000D01*
X127166000Y-113661000D01*
X127483000Y-114265000D01*
X127781000Y-114830000D01*
X128033000Y-115310000D01*
X128219000Y-115661000D01*
X128268000Y-115756000D01*
X128308000Y-115834000D01*
X128340000Y-115897000D01*
X128366000Y-115950000D01*
X128387000Y-115998000D01*
X128406000Y-116044000D01*
X128424000Y-116092000D01*
X128443000Y-116147000D01*
X128453000Y-116178000D01*
X128462000Y-116212000D01*
X128470000Y-116249000D01*
X128478000Y-116289000D01*
X128484000Y-116332000D01*
X128490000Y-116377000D01*
X128494000Y-116425000D01*
X128499000Y-116473000D01*
X128500000Y-116564000D01*
X128493000Y-116653000D01*
X128479000Y-116740000D01*
X128456000Y-116822000D01*
X128426000Y-116901000D01*
X128390000Y-116972000D01*
X128346000Y-117038000D01*
X128297000Y-117095000D01*
X128285000Y-117107000D01*
X128273000Y-117117000D01*
X128261000Y-117128000D01*
X128249000Y-117137000D01*
X128237000Y-117146000D01*
X128226000Y-117153000D01*
X128217000Y-117160000D01*
X128209000Y-117163000D01*
X128186000Y-117167000D01*
X128129000Y-117171000D01*
X128024000Y-117174000D01*
X127857000Y-117175000D01*
X127613000Y-117177000D01*
X127279000Y-117179000D01*
X126840000Y-117181000D01*
X126282000Y-117183000D01*
X125725000Y-117185000D01*
X125287000Y-117186000D01*
X124955000Y-117186000D01*
X124714000Y-117186000D01*
X124549000Y-117184000D01*
X124448000Y-117182000D01*
X124397000Y-117179000D01*
X124382000Y-117175000D01*
X124381000Y-117157000D01*
X124380000Y-117108000D01*
X124379000Y-117034000D01*
X124377000Y-116936000D01*
X124377000Y-116819000D01*
X124377000Y-116685000D01*
X124376000Y-116538000D01*
X124375000Y-116380000D01*
X124373000Y-115598000D01*
X125239000Y-115593000D01*
X125524000Y-115591000D01*
X125739000Y-115590000D01*
X125894000Y-115589000D01*
X126001000Y-115586000D01*
X126068000Y-115583000D01*
X126107000Y-115579000D01*
X126128000Y-115575000D01*
X126143000Y-115568000D01*
X126169000Y-115551000D01*
X126195000Y-115530000D01*
X126219000Y-115505000D01*
X126243000Y-115476000D01*
X126263000Y-115444000D01*
X126282000Y-115411000D01*
X126298000Y-115374000D01*
X126311000Y-115337000D01*
X126316000Y-115309000D01*
X126320000Y-115275000D01*
X126322000Y-115237000D01*
X126322000Y-115197000D01*
X126320000Y-115157000D01*
X126316000Y-115118000D01*
X126311000Y-115085000D01*
X126303000Y-115057000D01*
X126284000Y-115019000D01*
X126233000Y-114923000D01*
X126154000Y-114776000D01*
X126052000Y-114585000D01*
X125928000Y-114356000D01*
X125787000Y-114094000D01*
X125632000Y-113808000D01*
X125466000Y-113503000D01*
X125301000Y-113197000D01*
X125147000Y-112912000D01*
X125007000Y-112653000D01*
X124885000Y-112427000D01*
X124784000Y-112240000D01*
X124708000Y-112097000D01*
X124660000Y-112006000D01*
X124643000Y-111973000D01*
X124655000Y-111961000D01*
X124689000Y-111934000D01*
X124743000Y-111894000D01*
X124815000Y-111842000D01*
X124902000Y-111779000D01*
X125001000Y-111708000D01*
X125111000Y-111630000D01*
X125230000Y-111547000D01*
X125348000Y-111464000D01*
X125458000Y-111386000D01*
X125558000Y-111316000D01*
X125647000Y-111255000D01*
X125720000Y-111204000D01*
X125776000Y-111166000D01*
X125812000Y-111142000D01*
X125826000Y-111134000D01*
X125835000Y-111146000D01*
G37*
G36*
X121923000Y-105316000D02*
G01*
X121939000Y-105319000D01*
X121957000Y-105323000D01*
X122003000Y-105336000D01*
X122052000Y-105356000D01*
X122103000Y-105381000D01*
X122156000Y-105412000D01*
X122206000Y-105446000D01*
X122252000Y-105483000D01*
X122295000Y-105520000D01*
X122331000Y-105558000D01*
X122356000Y-105590000D01*
X122385000Y-105628000D01*
X122416000Y-105674000D01*
X122450000Y-105723000D01*
X122485000Y-105776000D01*
X122521000Y-105832000D01*
X122556000Y-105889000D01*
X122589000Y-105946000D01*
X122657000Y-106058000D01*
X122738000Y-106185000D01*
X122829000Y-106324000D01*
X122928000Y-106471000D01*
X123034000Y-106624000D01*
X123144000Y-106779000D01*
X123256000Y-106935000D01*
X123370000Y-107088000D01*
X123394000Y-107121000D01*
X123417000Y-107153000D01*
X123438000Y-107181000D01*
X123456000Y-107207000D01*
X123471000Y-107228000D01*
X123483000Y-107245000D01*
X123490000Y-107256000D01*
X123493000Y-107261000D01*
X123483000Y-107262000D01*
X123453000Y-107263000D01*
X123406000Y-107264000D01*
X123345000Y-107265000D01*
X123269000Y-107266000D01*
X123184000Y-107266000D01*
X123090000Y-107266000D01*
X122988000Y-107266000D01*
X122483000Y-107263000D01*
X122441000Y-107203000D01*
X122402000Y-107146000D01*
X122361000Y-107089000D01*
X122318000Y-107032000D01*
X122275000Y-106977000D01*
X122231000Y-106921000D01*
X122185000Y-106866000D01*
X122139000Y-106812000D01*
X122092000Y-106759000D01*
X122060000Y-106728000D01*
X122023000Y-106703000D01*
X121985000Y-106684000D01*
X121944000Y-106672000D01*
X121902000Y-106667000D01*
X121859000Y-106669000D01*
X121817000Y-106678000D01*
X121777000Y-106693000D01*
X121763000Y-106701000D01*
X121749000Y-106709000D01*
X121736000Y-106719000D01*
X121722000Y-106730000D01*
X121709000Y-106741000D01*
X121695000Y-106755000D01*
X121682000Y-106770000D01*
X121667000Y-106787000D01*
X121654000Y-106802000D01*
X121641000Y-106816000D01*
X121628000Y-106833000D01*
X121614000Y-106849000D01*
X121601000Y-106864000D01*
X121587000Y-106879000D01*
X121576000Y-106893000D01*
X121566000Y-106904000D01*
X121540000Y-106935000D01*
X121510000Y-106973000D01*
X121477000Y-107017000D01*
X121443000Y-107061000D01*
X121410000Y-107106000D01*
X121380000Y-107148000D01*
X121355000Y-107184000D01*
X121335000Y-107213000D01*
X121302000Y-107268000D01*
X120801000Y-107268000D01*
X120699000Y-107268000D01*
X120605000Y-107268000D01*
X120520000Y-107267000D01*
X120446000Y-107266000D01*
X120384000Y-107266000D01*
X120338000Y-107265000D01*
X120309000Y-107263000D01*
X120299000Y-107262000D01*
X120301000Y-107256000D01*
X120304000Y-107247000D01*
X120313000Y-107233000D01*
X120325000Y-107215000D01*
X120341000Y-107192000D01*
X120362000Y-107163000D01*
X120388000Y-107128000D01*
X120419000Y-107086000D01*
X120440000Y-107059000D01*
X120462000Y-107030000D01*
X120484000Y-107000000D01*
X120505000Y-106971000D01*
X120526000Y-106943000D01*
X120544000Y-106918000D01*
X120560000Y-106896000D01*
X120573000Y-106877000D01*
X120586000Y-106859000D01*
X120601000Y-106838000D01*
X120617000Y-106815000D01*
X120635000Y-106790000D01*
X120653000Y-106765000D01*
X120671000Y-106741000D01*
X120689000Y-106717000D01*
X120706000Y-106694000D01*
X120748000Y-106633000D01*
X120810000Y-106544000D01*
X120882000Y-106436000D01*
X120959000Y-106320000D01*
X121035000Y-106204000D01*
X121104000Y-106096000D01*
X121160000Y-106007000D01*
X121197000Y-105946000D01*
X121225000Y-105899000D01*
X121260000Y-105844000D01*
X121297000Y-105786000D01*
X121337000Y-105727000D01*
X121376000Y-105669000D01*
X121412000Y-105618000D01*
X121443000Y-105575000D01*
X121467000Y-105545000D01*
X121503000Y-105508000D01*
X121544000Y-105473000D01*
X121590000Y-105437000D01*
X121639000Y-105406000D01*
X121689000Y-105377000D01*
X121738000Y-105353000D01*
X121787000Y-105334000D01*
X121831000Y-105322000D01*
X121849000Y-105318000D01*
X121866000Y-105316000D01*
X121880000Y-105314000D01*
X121894000Y-105314000D01*
X121908000Y-105314000D01*
X121923000Y-105316000D01*
G37*
%TD*%
D11*
%TO.C,RS4*%
X134875000Y-77387500D03*
X134875000Y-83312500D03*
%TD*%
D12*
%TO.C,RFH5*%
X139275000Y-87840000D03*
X139275000Y-88860000D03*
%TD*%
D13*
%TO.C,U3*%
X156500000Y-103000000D03*
X156500000Y-103950000D03*
X156500000Y-104900000D03*
X158775000Y-104900000D03*
X158775000Y-103000000D03*
%TD*%
D14*
%TO.C,C2*%
X160500000Y-102775000D03*
X160500000Y-101225000D03*
%TD*%
D15*
%TO.C,C11*%
X123500000Y-92980000D03*
X123500000Y-92020000D03*
%TD*%
D12*
%TO.C,RFH2*%
X121275000Y-87840000D03*
X121275000Y-88860000D03*
%TD*%
D16*
%TO.C,TH1*%
X131570000Y-74500000D03*
X132430000Y-74500000D03*
%TD*%
D17*
%TO.C,CF1*%
X115500000Y-91175000D03*
X115500000Y-92725000D03*
%TD*%
D18*
%TO.C,SW2*%
X168500000Y-109320000D03*
X168500000Y-113680000D03*
%TD*%
%TO.C,SW1*%
X168500000Y-101320000D03*
X168500000Y-105680000D03*
%TD*%
D19*
%TO.C,J3*%
X124660402Y-62669999D03*
X127660401Y-62669999D03*
X130660401Y-62669999D03*
X133660400Y-62669999D03*
X136660399Y-62669999D03*
X139660398Y-62669999D03*
X124660402Y-65670001D03*
X127660401Y-65670001D03*
X130660401Y-65670001D03*
X133660400Y-65670001D03*
X136660399Y-65670001D03*
X139660398Y-65670001D03*
D20*
X129160401Y-61000000D03*
X131160400Y-61000000D03*
X133160401Y-61000000D03*
X135160399Y-61000000D03*
%TD*%
D21*
%TO.C,U4*%
X150398650Y-106700001D03*
X150398650Y-104799999D03*
D22*
X148500000Y-105750000D03*
%TD*%
D23*
%TO.C,C7*%
X151750000Y-87050000D03*
X151750000Y-88950000D03*
%TD*%
D24*
%TO.C,FID2*%
X166000000Y-135500000D03*
%TD*%
D25*
%TO.C,U1*%
X153875000Y-84950000D03*
X153875000Y-85800000D03*
X153875000Y-86650000D03*
X153875000Y-87500000D03*
X153875000Y-88350000D03*
X153875000Y-89200000D03*
X153875000Y-90050000D03*
X153875000Y-90900000D03*
X153875000Y-91750000D03*
X153875000Y-92600000D03*
X153875000Y-93450000D03*
X153875000Y-94300000D03*
X153875000Y-95150000D03*
X153875000Y-96000000D03*
X153875000Y-96850000D03*
D26*
X154925000Y-97900000D03*
X155775000Y-97900000D03*
X156625000Y-97900000D03*
X157475000Y-97900000D03*
X158325000Y-97900000D03*
X159175000Y-97900000D03*
X160025000Y-97900000D03*
X160875000Y-97900000D03*
X161725000Y-97900000D03*
X162575000Y-97900000D03*
X163425000Y-97900000D03*
X164275000Y-97900000D03*
X165125000Y-97900000D03*
X165975000Y-97900000D03*
X166825000Y-97900000D03*
D25*
X167875000Y-96850000D03*
X167875000Y-96000000D03*
X167875000Y-95150000D03*
X167875000Y-94300000D03*
X167875000Y-93450000D03*
X167875000Y-92600000D03*
X167875000Y-91750000D03*
X167875000Y-90900000D03*
X167875000Y-90050000D03*
X167875000Y-89200000D03*
X167875000Y-88350000D03*
X167875000Y-87500000D03*
X167875000Y-86650000D03*
X167875000Y-85800000D03*
X167875000Y-84950000D03*
D26*
X166825000Y-83900000D03*
X165975000Y-83900000D03*
X165125000Y-83900000D03*
X164275000Y-83900000D03*
X163425000Y-83900000D03*
X162575000Y-83900000D03*
X161725000Y-83900000D03*
X160875000Y-83900000D03*
X160025000Y-83900000D03*
X159175000Y-83900000D03*
X158325000Y-83900000D03*
X157475000Y-83900000D03*
X156625000Y-83900000D03*
X155775000Y-83900000D03*
X154925000Y-83900000D03*
D27*
X159225000Y-89250000D03*
D28*
X159225000Y-90900000D03*
X159225000Y-92550000D03*
X160875000Y-89250000D03*
X160875000Y-90900000D03*
X160875000Y-92550000D03*
X162525000Y-89250000D03*
X162525000Y-90900000D03*
X162525000Y-92550000D03*
D29*
X153875000Y-83900000D03*
X153875000Y-97900000D03*
X167875000Y-97900000D03*
X167875000Y-83900000D03*
%TD*%
D30*
%TO.C,H3*%
X114475000Y-134350000D03*
X115177944Y-132652944D03*
X115177944Y-136047056D03*
X116875000Y-131950000D03*
D31*
X116875000Y-134350000D03*
D30*
X116875000Y-136750000D03*
X118572056Y-132652944D03*
X118572056Y-136047056D03*
X119275000Y-134350000D03*
%TD*%
%TO.C,H1*%
X114475000Y-62350000D03*
X115177944Y-60652944D03*
X115177944Y-64047056D03*
X116875000Y-59950000D03*
D31*
X116875000Y-62350000D03*
D30*
X116875000Y-64750000D03*
X118572056Y-60652944D03*
X118572056Y-64047056D03*
X119275000Y-62350000D03*
%TD*%
D32*
%TO.C,R12*%
X150365000Y-77350000D03*
X151385000Y-77350000D03*
%TD*%
D12*
%TO.C,RFL6*%
X148475000Y-87840000D03*
X148475000Y-88860000D03*
%TD*%
D33*
%TO.C,U15*%
X144970000Y-99825000D03*
X146240000Y-99825000D03*
X147510000Y-99825000D03*
X148780000Y-99825000D03*
X148780000Y-94875000D03*
X147510000Y-94875000D03*
X146240000Y-94875000D03*
X144970000Y-94875000D03*
%TD*%
D14*
%TO.C,C1*%
X154750000Y-102775000D03*
X154750000Y-101225000D03*
%TD*%
D34*
%TO.C,R8*%
X162010000Y-73750000D03*
X160990000Y-73750000D03*
%TD*%
D12*
%TO.C,RFH6*%
X145275000Y-87840000D03*
X145275000Y-88860000D03*
%TD*%
D11*
%TO.C,RS1*%
X116875000Y-77387500D03*
X116875000Y-83312500D03*
%TD*%
D32*
%TO.C,R10*%
X150365000Y-71350000D03*
X151385000Y-71350000D03*
%TD*%
D35*
%TO.C,C24*%
X152250000Y-94020000D03*
X152250000Y-94980000D03*
%TD*%
D32*
%TO.C,R11*%
X150365000Y-74350000D03*
X151385000Y-74350000D03*
%TD*%
D33*
%TO.C,U13*%
X132970000Y-99825000D03*
X134240000Y-99825000D03*
X135510000Y-99825000D03*
X136780000Y-99825000D03*
X136780000Y-94875000D03*
X135510000Y-94875000D03*
X134240000Y-94875000D03*
X132970000Y-94875000D03*
%TD*%
D15*
%TO.C,C12*%
X129500000Y-92980000D03*
X129500000Y-92020000D03*
%TD*%
D33*
%TO.C,U12*%
X126970000Y-99825000D03*
X128240000Y-99825000D03*
X129510000Y-99825000D03*
X130780000Y-99825000D03*
X130780000Y-94875000D03*
X129510000Y-94875000D03*
X128240000Y-94875000D03*
X126970000Y-94875000D03*
%TD*%
D12*
%TO.C,RFL5*%
X142475000Y-87840000D03*
X142475000Y-88860000D03*
%TD*%
D36*
%TO.C,C6*%
X154450000Y-128750000D03*
X152550000Y-128750000D03*
%TD*%
D37*
%TO.C,R20*%
X132750000Y-73260000D03*
X132750000Y-72240000D03*
%TD*%
D38*
%TO.C,C8*%
X157480000Y-117000000D03*
X156520000Y-117000000D03*
%TD*%
D12*
%TO.C,RFH1*%
X115275000Y-87840000D03*
X115275000Y-88860000D03*
%TD*%
D39*
%TO.C,J1*%
X166000000Y-131522500D03*
X166000000Y-120222500D03*
D19*
X159650000Y-130282500D03*
X157110000Y-129012500D03*
X159650000Y-127742500D03*
X157110000Y-126472500D03*
X159650000Y-125202500D03*
X157110000Y-123932500D03*
X159650000Y-122662500D03*
D40*
X157110000Y-121392500D03*
D41*
X168950000Y-133772500D03*
X168950000Y-117972500D03*
%TD*%
D15*
%TO.C,C5*%
X169500000Y-84980000D03*
X169500000Y-84020000D03*
%TD*%
D12*
%TO.C,RFL4*%
X136475000Y-87840000D03*
X136475000Y-88860000D03*
%TD*%
D35*
%TO.C,C20*%
X156250000Y-99520000D03*
X156250000Y-100480000D03*
%TD*%
D37*
%TO.C,R21*%
X117250000Y-123510000D03*
X117250000Y-122490000D03*
%TD*%
D24*
%TO.C,FID1*%
X157250000Y-62500000D03*
%TD*%
D35*
%TO.C,C23*%
X152250000Y-106770000D03*
X152250000Y-107730000D03*
%TD*%
D11*
%TO.C,RS6*%
X146875000Y-77387500D03*
X146875000Y-83312500D03*
%TD*%
D33*
%TO.C,U10*%
X114970000Y-99825000D03*
X116240000Y-99825000D03*
X117510000Y-99825000D03*
X118780000Y-99825000D03*
X118780000Y-94875000D03*
X117510000Y-94875000D03*
X116240000Y-94875000D03*
X114970000Y-94875000D03*
%TD*%
D17*
%TO.C,CF2*%
X121000000Y-91225000D03*
X121000000Y-92775000D03*
%TD*%
D15*
%TO.C,C13*%
X135500000Y-92980000D03*
X135500000Y-92020000D03*
%TD*%
D37*
%TO.C,R5*%
X151250000Y-95010000D03*
X151250000Y-93990000D03*
%TD*%
D32*
%TO.C,R13*%
X150365000Y-80350000D03*
X151385000Y-80350000D03*
%TD*%
D15*
%TO.C,C3*%
X151250000Y-85730000D03*
X151250000Y-84770000D03*
%TD*%
D34*
%TO.C,R9*%
X162010000Y-70750000D03*
X160990000Y-70750000D03*
%TD*%
D42*
%TO.C,J5*%
X165820000Y-75240000D03*
X165820000Y-69460000D03*
D43*
X164755000Y-75700000D03*
X164755000Y-74900000D03*
X164755000Y-73600000D03*
X164755000Y-72600000D03*
X164755000Y-72100000D03*
X164755000Y-71100000D03*
X164755000Y-69800000D03*
X164755000Y-69000000D03*
X164755000Y-69300000D03*
X164755000Y-70100000D03*
X164755000Y-70600000D03*
X164755000Y-71600000D03*
X164755000Y-73100000D03*
X164755000Y-74100000D03*
X164755000Y-74600000D03*
X164755000Y-75400000D03*
D44*
X165320000Y-76670000D03*
D45*
X169500000Y-76670000D03*
D44*
X165320000Y-68030000D03*
D45*
X169500000Y-68030000D03*
%TD*%
D46*
%TO.C,C22*%
X152020000Y-104750000D03*
X152980000Y-104750000D03*
%TD*%
D15*
%TO.C,C14*%
X141500000Y-92980000D03*
X141500000Y-92020000D03*
%TD*%
D12*
%TO.C,RFL2*%
X124475000Y-87840000D03*
X124475000Y-88860000D03*
%TD*%
D17*
%TO.C,CF6*%
X145500000Y-91225000D03*
X145500000Y-92775000D03*
%TD*%
%TO.C,CF4*%
X133500000Y-91175000D03*
X133500000Y-92725000D03*
%TD*%
D47*
%TO.C,C9*%
X162250000Y-66700000D03*
X162250000Y-64800000D03*
%TD*%
D37*
%TO.C,R2*%
X169500000Y-87010000D03*
X169500000Y-85990000D03*
%TD*%
D12*
%TO.C,RFH3*%
X127275000Y-87840000D03*
X127275000Y-88860000D03*
%TD*%
D46*
%TO.C,C4*%
X159270000Y-108500000D03*
X160230000Y-108500000D03*
%TD*%
D33*
%TO.C,U14*%
X138970000Y-99825000D03*
X140240000Y-99825000D03*
X141510000Y-99825000D03*
X142780000Y-99825000D03*
X142780000Y-94875000D03*
X141510000Y-94875000D03*
X140240000Y-94875000D03*
X138970000Y-94875000D03*
%TD*%
D12*
%TO.C,RFH4*%
X133275000Y-87840000D03*
X133275000Y-88860000D03*
%TD*%
D16*
%TO.C,TH2*%
X116250000Y-124750000D03*
X117110000Y-124750000D03*
%TD*%
D48*
%TO.C,D1*%
X154550000Y-121250000D03*
X152450000Y-121250000D03*
%TD*%
D12*
%TO.C,RFL1*%
X118475000Y-87840000D03*
X118475000Y-88860000D03*
%TD*%
D11*
%TO.C,RS3*%
X128875000Y-77387500D03*
X128875000Y-83312500D03*
%TD*%
D35*
%TO.C,C21*%
X157250000Y-99540000D03*
X157250000Y-100500000D03*
%TD*%
D49*
%TO.C,U2*%
X161655000Y-110275000D03*
X160385000Y-110275000D03*
X159115000Y-110275000D03*
X157845000Y-110275000D03*
X157845000Y-115225000D03*
X159115000Y-115225000D03*
X160385000Y-115225000D03*
X161655000Y-115225000D03*
%TD*%
D30*
%TO.C,H2*%
X164475000Y-62350000D03*
X165177944Y-60652944D03*
X165177944Y-64047056D03*
X166875000Y-59950000D03*
D31*
X166875000Y-62350000D03*
D30*
X166875000Y-64750000D03*
X168572056Y-60652944D03*
X168572056Y-64047056D03*
X169275000Y-62350000D03*
%TD*%
D11*
%TO.C,RS2*%
X122875000Y-77387500D03*
X122875000Y-83312500D03*
%TD*%
%TO.C,RS5*%
X140875000Y-77387500D03*
X140875000Y-83312500D03*
%TD*%
D24*
%TO.C,FID3*%
X118750000Y-129250000D03*
%TD*%
D12*
%TO.C,RFL3*%
X130475000Y-87840000D03*
X130475000Y-88860000D03*
%TD*%
D37*
%TO.C,R7*%
X152000000Y-100760000D03*
X152000000Y-99740000D03*
%TD*%
D17*
%TO.C,CF5*%
X139500000Y-91175000D03*
X139500000Y-92725000D03*
%TD*%
D19*
%TO.C,J4*%
X139839598Y-131830001D03*
X136839599Y-131830001D03*
X133839599Y-131830001D03*
X130839600Y-131830001D03*
X127839601Y-131830001D03*
X124839602Y-131830001D03*
X139839598Y-128829999D03*
X136839599Y-128829999D03*
X133839599Y-128829999D03*
X130839600Y-128829999D03*
X127839601Y-128829999D03*
X124839602Y-128829999D03*
D20*
X135339599Y-133500000D03*
X133339600Y-133500000D03*
X131339599Y-133500000D03*
X129339601Y-133500000D03*
%TD*%
D50*
%TO.C,D2*%
X155000000Y-66750000D03*
X159000000Y-66750000D03*
%TD*%
D34*
%TO.C,R1*%
X151260000Y-101750000D03*
X150240000Y-101750000D03*
%TD*%
D33*
%TO.C,U11*%
X120970000Y-99825000D03*
X122240000Y-99825000D03*
X123510000Y-99825000D03*
X124780000Y-99825000D03*
X124780000Y-94875000D03*
X123510000Y-94875000D03*
X122240000Y-94875000D03*
X120970000Y-94875000D03*
%TD*%
D15*
%TO.C,C15*%
X147500000Y-92980000D03*
X147500000Y-92020000D03*
%TD*%
D37*
%TO.C,R6*%
X151500000Y-92760000D03*
X151500000Y-91740000D03*
%TD*%
D15*
%TO.C,C10*%
X117500000Y-92980000D03*
X117500000Y-92020000D03*
%TD*%
D17*
%TO.C,CF3*%
X127500000Y-91225000D03*
X127500000Y-92775000D03*
%TD*%
M02*
