%TF.GenerationSoftware,KiCad,Pcbnew,10.0.3-10.0.3~ubuntu24.04.1*%
%TF.CreationDate,2026-06-06T03:49:15+00:00*%
%TF.ProjectId,12vhpwr-standard-module,31327668-7077-4722-9d73-74616e646172,rev?*%
%TF.SameCoordinates,Original*%
%TF.FileFunction,OtherDrawing,Comment*%
%FSLAX46Y46*%
G04 Gerber Fmt 4.6, Leading zero omitted, Abs format (unit mm)*
G04 Created by KiCad (PCBNEW 10.0.3-10.0.3~ubuntu24.04.1) date 2026-06-06 03:49:15*
%MOMM*%
%LPD*%
G01*
G04 APERTURE LIST*
%ADD10C,0.025400*%
G04 APERTURE END LIST*
%TO.C,J3*%
D10*
X122737000Y-53754000D02*
X126013600Y-53754000D01*
X125311801Y-58350000D02*
X125340596Y-58057638D01*
X125340596Y-58057638D02*
X125425875Y-57776511D01*
X125340596Y-58642363D02*
X125311801Y-58350000D01*
X125425875Y-57776511D02*
X125564360Y-57517423D01*
X125425875Y-58923490D02*
X125340596Y-58642363D01*
X125564360Y-59182578D02*
X125425875Y-58923490D01*
X125750730Y-57290330D02*
X125564360Y-57517423D01*
X125750730Y-59409670D02*
X125564360Y-59182578D01*
X125977823Y-57103960D02*
X125750730Y-57290330D01*
X125977823Y-59596041D02*
X125750730Y-59409670D01*
X126013600Y-57084837D02*
X125977823Y-57103960D01*
X126013600Y-57084837D02*
X126013600Y-53754000D01*
X126236911Y-59734526D02*
X125977823Y-59596041D01*
X126518038Y-59819805D02*
X126236911Y-59734526D01*
X126810401Y-59848600D02*
X126518038Y-59819805D01*
X127102763Y-59819805D02*
X126810401Y-59848600D01*
X127383890Y-59734526D02*
X127102763Y-59819805D01*
X127454471Y-59696800D02*
X127383890Y-59734526D01*
X136866329Y-59696800D02*
X127454471Y-59696800D01*
X136936910Y-59734526D02*
X136866329Y-59696800D01*
X137218037Y-59819805D02*
X136936910Y-59734526D01*
X137510400Y-59848600D02*
X137218037Y-59819805D01*
X137802762Y-59819805D02*
X137510400Y-59848600D01*
X138083889Y-59734526D02*
X137802762Y-59819805D01*
X138307200Y-57084837D02*
X138307200Y-53754000D01*
X138307200Y-57084837D02*
X138342977Y-57103960D01*
X138342977Y-57103960D02*
X138570070Y-57290330D01*
X138342977Y-59596041D02*
X138083889Y-59734526D01*
X138570070Y-57290330D02*
X138756440Y-57517423D01*
X138570070Y-59409670D02*
X138342977Y-59596041D01*
X138756440Y-57517423D02*
X138894925Y-57776511D01*
X138756440Y-59182578D02*
X138570070Y-59409670D01*
X138894925Y-57776511D02*
X138980204Y-58057638D01*
X138894925Y-58923490D02*
X138756440Y-59182578D01*
X138980204Y-58057638D02*
X139009000Y-58350000D01*
X138980204Y-58642363D02*
X138894925Y-58923490D01*
X139009000Y-58350000D02*
X138980204Y-58642363D01*
X141583800Y-53754000D02*
X138307200Y-53754000D01*
%TO.C,J4*%
X122916200Y-140746000D02*
X126192800Y-140746000D01*
X125491000Y-136150000D02*
X125519796Y-135857637D01*
X125519796Y-135857637D02*
X125605075Y-135576510D01*
X125519796Y-136442362D02*
X125491000Y-136150000D01*
X125605075Y-135576510D02*
X125743560Y-135317422D01*
X125605075Y-136723489D02*
X125519796Y-136442362D01*
X125743560Y-135317422D02*
X125929930Y-135090330D01*
X125743560Y-136982577D02*
X125605075Y-136723489D01*
X125929930Y-135090330D02*
X126157023Y-134903959D01*
X125929930Y-137209670D02*
X125743560Y-136982577D01*
X126157023Y-134903959D02*
X126416111Y-134765474D01*
X126157023Y-137396040D02*
X125929930Y-137209670D01*
X126192800Y-137415163D02*
X126157023Y-137396040D01*
X126192800Y-137415163D02*
X126192800Y-140746000D01*
X126416111Y-134765474D02*
X126697238Y-134680195D01*
X126697238Y-134680195D02*
X126989600Y-134651400D01*
X126989600Y-134651400D02*
X127281963Y-134680195D01*
X127281963Y-134680195D02*
X127563090Y-134765474D01*
X127563090Y-134765474D02*
X127633671Y-134803200D01*
X127633671Y-134803200D02*
X137045529Y-134803200D01*
X137045529Y-134803200D02*
X137116110Y-134765474D01*
X137116110Y-134765474D02*
X137397237Y-134680195D01*
X137397237Y-134680195D02*
X137689599Y-134651400D01*
X137689599Y-134651400D02*
X137981962Y-134680195D01*
X137981962Y-134680195D02*
X138263089Y-134765474D01*
X138263089Y-134765474D02*
X138522177Y-134903959D01*
X138486400Y-137415163D02*
X138486400Y-140746000D01*
X138486400Y-137415163D02*
X138522177Y-137396040D01*
X138522177Y-134903959D02*
X138749270Y-135090330D01*
X138522177Y-137396040D02*
X138749270Y-137209670D01*
X138749270Y-135090330D02*
X138935640Y-135317422D01*
X138749270Y-137209670D02*
X138935640Y-136982577D01*
X138935640Y-135317422D02*
X139074125Y-135576510D01*
X139074125Y-135576510D02*
X139159404Y-135857637D01*
X139074125Y-136723489D02*
X138935640Y-136982577D01*
X139159404Y-135857637D02*
X139188199Y-136150000D01*
X139159404Y-136442362D02*
X139074125Y-136723489D01*
X139188199Y-136150000D02*
X139159404Y-136442362D01*
X141763000Y-140746000D02*
X138486400Y-140746000D01*
%TD*%
M02*
