%TF.GenerationSoftware,KiCad,Pcbnew,10.0.3-10.0.3~ubuntu24.04.1*%
%TF.CreationDate,2026-06-06T03:49:15+00:00*%
%TF.ProjectId,12vhpwr-standard-module,31327668-7077-4722-9d73-74616e646172,rev?*%
%TF.SameCoordinates,Original*%
%TF.FileFunction,Copper,L1,Top*%
%TF.FilePolarity,Positive*%
%FSLAX46Y46*%
G04 Gerber Fmt 4.6, Leading zero omitted, Abs format (unit mm)*
G04 Created by KiCad (PCBNEW 10.0.3-10.0.3~ubuntu24.04.1) date 2026-06-06 03:49:15*
%MOMM*%
%LPD*%
G01*
G04 APERTURE LIST*
G04 Aperture macros list*
%AMRoundRect*
0 Rectangle with rounded corners*
0 $1 Rounding radius*
0 $2 $3 $4 $5 $6 $7 $8 $9 X,Y pos of 4 corners*
0 Add a 4 corners polygon primitive as box body*
4,1,4,$2,$3,$4,$5,$6,$7,$8,$9,$2,$3,0*
0 Add four circle primitives for the rounded corners*
1,1,$1+$1,$2,$3*
1,1,$1+$1,$4,$5*
1,1,$1+$1,$6,$7*
1,1,$1+$1,$8,$9*
0 Add four rect primitives between the rounded corners*
20,1,$1+$1,$2,$3,$4,$5,0*
20,1,$1+$1,$4,$5,$6,$7,0*
20,1,$1+$1,$6,$7,$8,$9,0*
20,1,$1+$1,$8,$9,$2,$3,0*%
%AMOutline5P*
0 Free polygon, 5 corners , with rotation*
0 The origin of the aperture is its center*
0 number of corners: always 5*
0 $1 to $10 corner X, Y*
0 $11 Rotation angle, in degrees counterclockwise*
0 create outline with 5 corners*
4,1,5,$1,$2,$3,$4,$5,$6,$7,$8,$9,$10,$1,$2,$11*%
%AMOutline6P*
0 Free polygon, 6 corners , with rotation*
0 The origin of the aperture is its center*
0 number of corners: always 6*
0 $1 to $12 corner X, Y*
0 $13 Rotation angle, in degrees counterclockwise*
0 create outline with 6 corners*
4,1,6,$1,$2,$3,$4,$5,$6,$7,$8,$9,$10,$11,$12,$1,$2,$13*%
%AMOutline7P*
0 Free polygon, 7 corners , with rotation*
0 The origin of the aperture is its center*
0 number of corners: always 7*
0 $1 to $14 corner X, Y*
0 $15 Rotation angle, in degrees counterclockwise*
0 create outline with 7 corners*
4,1,7,$1,$2,$3,$4,$5,$6,$7,$8,$9,$10,$11,$12,$13,$14,$1,$2,$15*%
%AMOutline8P*
0 Free polygon, 8 corners , with rotation*
0 The origin of the aperture is its center*
0 number of corners: always 8*
0 $1 to $16 corner X, Y*
0 $17 Rotation angle, in degrees counterclockwise*
0 create outline with 8 corners*
4,1,8,$1,$2,$3,$4,$5,$6,$7,$8,$9,$10,$11,$12,$13,$14,$15,$16,$1,$2,$17*%
G04 Aperture macros list end*
%TA.AperFunction,EtchedComponent*%
%ADD10C,0.000000*%
%TD*%
%TA.AperFunction,SMDPad,CuDef*%
%ADD11RoundRect,0.250000X-1.425000X0.362500X-1.425000X-0.362500X1.425000X-0.362500X1.425000X0.362500X0*%
%TD*%
%TA.AperFunction,SMDPad,CuDef*%
%ADD12RoundRect,0.135000X-0.185000X0.135000X-0.185000X-0.135000X0.185000X-0.135000X0.185000X0.135000X0*%
%TD*%
%TA.AperFunction,SMDPad,CuDef*%
%ADD13RoundRect,0.150000X-0.512500X-0.150000X0.512500X-0.150000X0.512500X0.150000X-0.512500X0.150000X0*%
%TD*%
%TA.AperFunction,SMDPad,CuDef*%
%ADD14RoundRect,0.225000X0.250000X-0.225000X0.250000X0.225000X-0.250000X0.225000X-0.250000X-0.225000X0*%
%TD*%
%TA.AperFunction,SMDPad,CuDef*%
%ADD15RoundRect,0.140000X0.170000X-0.140000X0.170000X0.140000X-0.170000X0.140000X-0.170000X-0.140000X0*%
%TD*%
%TA.AperFunction,SMDPad,CuDef*%
%ADD16R,0.566000X0.540000*%
%TD*%
%TA.AperFunction,SMDPad,CuDef*%
%ADD17RoundRect,0.225000X-0.250000X0.225000X-0.250000X-0.225000X0.250000X-0.225000X0.250000X0.225000X0*%
%TD*%
%TA.AperFunction,SMDPad,CuDef*%
%ADD18R,1.860000X1.230000*%
%TD*%
%TA.AperFunction,ComponentPad*%
%ADD19C,1.524000*%
%TD*%
%TA.AperFunction,ComponentPad*%
%ADD20C,1.143000*%
%TD*%
%TA.AperFunction,SMDPad,CuDef*%
%ADD21R,1.320800X0.558800*%
%TD*%
%TA.AperFunction,SMDPad,CuDef*%
%ADD22R,1.587500X0.558800*%
%TD*%
%TA.AperFunction,SMDPad,CuDef*%
%ADD23RoundRect,0.250000X-0.475000X0.250000X-0.475000X-0.250000X0.475000X-0.250000X0.475000X0.250000X0*%
%TD*%
%TA.AperFunction,FiducialPad,Global*%
%ADD24C,1.000000*%
%TD*%
%TA.AperFunction,SMDPad,CuDef*%
%ADD25R,0.800000X0.400000*%
%TD*%
%TA.AperFunction,SMDPad,CuDef*%
%ADD26R,0.400000X0.800000*%
%TD*%
%TA.AperFunction,HeatsinkPad*%
%ADD27Outline5P,-0.600000X0.204000X-0.204000X0.600000X0.600000X0.600000X0.600000X-0.600000X-0.600000X-0.600000X0.000000*%
%TD*%
%TA.AperFunction,HeatsinkPad*%
%ADD28R,1.200000X1.200000*%
%TD*%
%TA.AperFunction,SMDPad,CuDef*%
%ADD29R,0.800000X0.800000*%
%TD*%
%TA.AperFunction,ComponentPad*%
%ADD30C,0.800000*%
%TD*%
%TA.AperFunction,ComponentPad*%
%ADD31C,6.400000*%
%TD*%
%TA.AperFunction,SMDPad,CuDef*%
%ADD32RoundRect,0.135000X-0.135000X-0.185000X0.135000X-0.185000X0.135000X0.185000X-0.135000X0.185000X0*%
%TD*%
%TA.AperFunction,SMDPad,CuDef*%
%ADD33RoundRect,0.150000X0.150000X-0.825000X0.150000X0.825000X-0.150000X0.825000X-0.150000X-0.825000X0*%
%TD*%
%TA.AperFunction,SMDPad,CuDef*%
%ADD34RoundRect,0.135000X0.135000X0.185000X-0.135000X0.185000X-0.135000X-0.185000X0.135000X-0.185000X0*%
%TD*%
%TA.AperFunction,SMDPad,CuDef*%
%ADD35RoundRect,0.140000X-0.170000X0.140000X-0.170000X-0.140000X0.170000X-0.140000X0.170000X0.140000X0*%
%TD*%
%TA.AperFunction,SMDPad,CuDef*%
%ADD36RoundRect,0.250000X0.250000X0.475000X-0.250000X0.475000X-0.250000X-0.475000X0.250000X-0.475000X0*%
%TD*%
%TA.AperFunction,SMDPad,CuDef*%
%ADD37RoundRect,0.135000X0.185000X-0.135000X0.185000X0.135000X-0.185000X0.135000X-0.185000X-0.135000X0*%
%TD*%
%TA.AperFunction,SMDPad,CuDef*%
%ADD38RoundRect,0.140000X0.140000X0.170000X-0.140000X0.170000X-0.140000X-0.170000X0.140000X-0.170000X0*%
%TD*%
%TA.AperFunction,ComponentPad*%
%ADD39R,1.524000X1.524000*%
%TD*%
%TA.AperFunction,ComponentPad*%
%ADD40O,2.500000X1.200000*%
%TD*%
%TA.AperFunction,SMDPad,CuDef*%
%ADD41R,1.150000X0.300000*%
%TD*%
%TA.AperFunction,HeatsinkPad*%
%ADD42O,2.100000X1.000000*%
%TD*%
%TA.AperFunction,HeatsinkPad*%
%ADD43O,1.600000X1.000000*%
%TD*%
%TA.AperFunction,SMDPad,CuDef*%
%ADD44RoundRect,0.140000X-0.140000X-0.170000X0.140000X-0.170000X0.140000X0.170000X-0.140000X0.170000X0*%
%TD*%
%TA.AperFunction,SMDPad,CuDef*%
%ADD45RoundRect,0.250000X0.475000X-0.250000X0.475000X0.250000X-0.475000X0.250000X-0.475000X-0.250000X0*%
%TD*%
%TA.AperFunction,SMDPad,CuDef*%
%ADD46RoundRect,0.112500X0.187500X0.112500X-0.187500X0.112500X-0.187500X-0.112500X0.187500X-0.112500X0*%
%TD*%
%TA.AperFunction,SMDPad,CuDef*%
%ADD47RoundRect,0.150000X-0.150000X0.825000X-0.150000X-0.825000X0.150000X-0.825000X0.150000X0.825000X0*%
%TD*%
%TA.AperFunction,SMDPad,CuDef*%
%ADD48RoundRect,0.250000X-1.000000X-0.650000X1.000000X-0.650000X1.000000X0.650000X-1.000000X0.650000X0*%
%TD*%
%TA.AperFunction,ViaPad*%
%ADD49C,0.600000*%
%TD*%
%TA.AperFunction,ViaPad*%
%ADD50C,0.800000*%
%TD*%
%TA.AperFunction,ViaPad*%
%ADD51C,0.900000*%
%TD*%
%TA.AperFunction,Conductor*%
%ADD52C,0.250000*%
%TD*%
%TA.AperFunction,Conductor*%
%ADD53C,0.900000*%
%TD*%
%TA.AperFunction,Conductor*%
%ADD54C,2.500000*%
%TD*%
%TA.AperFunction,Conductor*%
%ADD55C,0.500000*%
%TD*%
%TA.AperFunction,Conductor*%
%ADD56C,0.200000*%
%TD*%
%TA.AperFunction,Conductor*%
%ADD57C,0.300000*%
%TD*%
G04 APERTURE END LIST*
D10*
%TA.AperFunction,EtchedComponent*%
%TO.C,LOGO1*%
G36*
X121928000Y-108937000D02*
G01*
X123195000Y-108940000D01*
X123195000Y-110518000D01*
X123195000Y-112096000D01*
X121928000Y-112099000D01*
X120662000Y-112101000D01*
X120662000Y-110518000D01*
X120662000Y-108935000D01*
X121928000Y-108937000D01*
G37*
%TD.AperFunction*%
%TA.AperFunction,EtchedComponent*%
G36*
X123195000Y-113316000D02*
G01*
X123195000Y-114019000D01*
X121933000Y-114019000D01*
X120671000Y-114019000D01*
X120671000Y-113316000D01*
X120671000Y-112613000D01*
X121933000Y-112613000D01*
X123195000Y-112613000D01*
X123195000Y-113316000D01*
G37*
%TD.AperFunction*%
%TA.AperFunction,EtchedComponent*%
G36*
X121901000Y-115586000D02*
G01*
X122557000Y-115589000D01*
X122560000Y-115834000D01*
X122562000Y-116078000D01*
X122156000Y-116078000D01*
X121751000Y-116078000D01*
X121751000Y-116119000D01*
X121751000Y-116161000D01*
X121993000Y-116161000D01*
X122233000Y-116161000D01*
X122240000Y-116361000D01*
X122241000Y-116402000D01*
X122242000Y-116439000D01*
X122243000Y-116474000D01*
X122243000Y-116505000D01*
X122243000Y-116531000D01*
X122242000Y-116551000D01*
X122242000Y-116565000D01*
X122240000Y-116570000D01*
X122236000Y-116573000D01*
X122223000Y-116575000D01*
X122203000Y-116577000D01*
X122175000Y-116578000D01*
X122141000Y-116579000D01*
X122099000Y-116579000D01*
X122049000Y-116580000D01*
X121993000Y-116580000D01*
X121751000Y-116580000D01*
X121751000Y-116622000D01*
X121751000Y-116664000D01*
X122094000Y-116666000D01*
X122164000Y-116666000D01*
X122232000Y-116666000D01*
X122295000Y-116666000D01*
X122354000Y-116666000D01*
X122405000Y-116666000D01*
X122447000Y-116666000D01*
X122479000Y-116665000D01*
X122498000Y-116665000D01*
X122515000Y-116664000D01*
X122528000Y-116664000D01*
X122539000Y-116665000D01*
X122548000Y-116666000D01*
X122555000Y-116667000D01*
X122561000Y-116669000D01*
X122563000Y-116672000D01*
X122565000Y-116674000D01*
X122566000Y-116682000D01*
X122567000Y-116699000D01*
X122568000Y-116722000D01*
X122570000Y-116753000D01*
X122571000Y-116789000D01*
X122571000Y-116830000D01*
X122572000Y-116876000D01*
X122573000Y-116923000D01*
X122576000Y-117158000D01*
X121923000Y-117158000D01*
X121269000Y-117158000D01*
X121263000Y-116998000D01*
X121262000Y-116952000D01*
X121261000Y-116885000D01*
X121260000Y-116800000D01*
X121258000Y-116700000D01*
X121256000Y-116587000D01*
X121255000Y-116466000D01*
X121253000Y-116339000D01*
X121252000Y-116210000D01*
X121247000Y-115584000D01*
X121901000Y-115586000D01*
G37*
%TD.AperFunction*%
%TA.AperFunction,EtchedComponent*%
G36*
X121010000Y-115584000D02*
G01*
X121088000Y-115585000D01*
X121142000Y-115588000D01*
X121165000Y-115590000D01*
X121166000Y-115596000D01*
X121167000Y-115611000D01*
X121167000Y-115634000D01*
X121169000Y-115664000D01*
X121170000Y-115700000D01*
X121171000Y-115742000D01*
X121172000Y-115787000D01*
X121173000Y-115835000D01*
X121176000Y-116077000D01*
X120907000Y-116071000D01*
X120829000Y-116070000D01*
X120766000Y-116069000D01*
X120716000Y-116069000D01*
X120677000Y-116069000D01*
X120646000Y-116071000D01*
X120623000Y-116073000D01*
X120603000Y-116077000D01*
X120586000Y-116080000D01*
X120561000Y-116090000D01*
X120538000Y-116101000D01*
X120516000Y-116115000D01*
X120495000Y-116132000D01*
X120476000Y-116151000D01*
X120458000Y-116172000D01*
X120442000Y-116197000D01*
X120427000Y-116225000D01*
X120418000Y-116243000D01*
X120411000Y-116260000D01*
X120406000Y-116275000D01*
X120402000Y-116289000D01*
X120399000Y-116304000D01*
X120397000Y-116320000D01*
X120396000Y-116339000D01*
X120396000Y-116362000D01*
X120398000Y-116393000D01*
X120402000Y-116423000D01*
X120409000Y-116452000D01*
X120417000Y-116479000D01*
X120428000Y-116505000D01*
X120443000Y-116530000D01*
X120460000Y-116554000D01*
X120479000Y-116579000D01*
X120504000Y-116603000D01*
X120526000Y-116622000D01*
X120551000Y-116636000D01*
X120581000Y-116646000D01*
X120621000Y-116653000D01*
X120672000Y-116657000D01*
X120739000Y-116660000D01*
X120824000Y-116661000D01*
X120870000Y-116661000D01*
X120916000Y-116662000D01*
X120961000Y-116662000D01*
X121003000Y-116663000D01*
X121040000Y-116663000D01*
X121072000Y-116664000D01*
X121098000Y-116664000D01*
X121116000Y-116664000D01*
X121183000Y-116664000D01*
X121183000Y-116910000D01*
X121183000Y-117156000D01*
X120883000Y-117151000D01*
X120808000Y-117150000D01*
X120743000Y-117149000D01*
X120686000Y-117147000D01*
X120638000Y-117145000D01*
X120598000Y-117143000D01*
X120564000Y-117140000D01*
X120537000Y-117137000D01*
X120517000Y-117134000D01*
X120427000Y-117107000D01*
X120341000Y-117065000D01*
X120260000Y-117010000D01*
X120185000Y-116942000D01*
X120118000Y-116863000D01*
X120060000Y-116777000D01*
X120013000Y-116682000D01*
X119977000Y-116580000D01*
X119970000Y-116549000D01*
X119964000Y-116510000D01*
X119960000Y-116465000D01*
X119956000Y-116417000D01*
X119953000Y-116369000D01*
X119953000Y-116321000D01*
X119954000Y-116279000D01*
X119957000Y-116240000D01*
X119976000Y-116136000D01*
X120010000Y-116035000D01*
X120057000Y-115940000D01*
X120115000Y-115852000D01*
X120184000Y-115773000D01*
X120261000Y-115706000D01*
X120347000Y-115651000D01*
X120438000Y-115611000D01*
X120453000Y-115606000D01*
X120471000Y-115603000D01*
X120489000Y-115598000D01*
X120508000Y-115595000D01*
X120530000Y-115591000D01*
X120551000Y-115589000D01*
X120573000Y-115587000D01*
X120597000Y-115585000D01*
X120652000Y-115583000D01*
X120730000Y-115582000D01*
X120822000Y-115582000D01*
X120918000Y-115582000D01*
X121010000Y-115584000D01*
G37*
%TD.AperFunction*%
%TA.AperFunction,EtchedComponent*%
G36*
X118221000Y-111167000D02*
G01*
X118352000Y-111257000D01*
X118538000Y-111385000D01*
X118749000Y-111532000D01*
X118961000Y-111681000D01*
X119149000Y-111812000D01*
X119285000Y-111909000D01*
X119343000Y-111952000D01*
X119353000Y-111953000D01*
X119353000Y-111966000D01*
X119326000Y-112025000D01*
X119253000Y-112164000D01*
X119115000Y-112421000D01*
X118893000Y-112830000D01*
X118570000Y-113425000D01*
X118126000Y-114243000D01*
X117971000Y-114530000D01*
X117855000Y-114745000D01*
X117773000Y-114901000D01*
X117720000Y-115010000D01*
X117689000Y-115087000D01*
X117675000Y-115143000D01*
X117673000Y-115191000D01*
X117674000Y-115246000D01*
X117675000Y-115272000D01*
X117677000Y-115294000D01*
X117680000Y-115313000D01*
X117684000Y-115330000D01*
X117688000Y-115346000D01*
X117696000Y-115365000D01*
X117705000Y-115386000D01*
X117717000Y-115410000D01*
X117734000Y-115441000D01*
X117753000Y-115470000D01*
X117771000Y-115496000D01*
X117792000Y-115520000D01*
X117812000Y-115538000D01*
X117834000Y-115555000D01*
X117855000Y-115567000D01*
X117877000Y-115576000D01*
X117898000Y-115577000D01*
X117947000Y-115580000D01*
X118022000Y-115582000D01*
X118122000Y-115584000D01*
X118248000Y-115586000D01*
X118397000Y-115588000D01*
X118570000Y-115590000D01*
X118767000Y-115591000D01*
X119623000Y-115598000D01*
X119624000Y-116091000D01*
X119624000Y-116197000D01*
X119624000Y-116307000D01*
X119623000Y-116418000D01*
X119623000Y-116527000D01*
X119623000Y-116633000D01*
X119622000Y-116728000D01*
X119621000Y-116813000D01*
X119620000Y-116883000D01*
X119614000Y-117181000D01*
X117719000Y-117177000D01*
X117186000Y-117176000D01*
X116758000Y-117175000D01*
X116425000Y-117174000D01*
X116176000Y-117173000D01*
X115999000Y-117171000D01*
X115884000Y-117168000D01*
X115818000Y-117165000D01*
X115793000Y-117161000D01*
X115752000Y-117139000D01*
X115712000Y-117107000D01*
X115673000Y-117065000D01*
X115635000Y-117015000D01*
X115601000Y-116958000D01*
X115569000Y-116897000D01*
X115542000Y-116831000D01*
X115520000Y-116762000D01*
X115515000Y-116740000D01*
X115510000Y-116719000D01*
X115507000Y-116697000D01*
X115504000Y-116673000D01*
X115502000Y-116648000D01*
X115501000Y-116619000D01*
X115500000Y-116584000D01*
X115500000Y-116543000D01*
X115501000Y-116477000D01*
X115503000Y-116419000D01*
X115507000Y-116366000D01*
X115513000Y-116317000D01*
X115521000Y-116268000D01*
X115533000Y-116220000D01*
X115547000Y-116170000D01*
X115564000Y-116115000D01*
X115580000Y-116067000D01*
X115599000Y-116019000D01*
X115637000Y-115937000D01*
X115711000Y-115790000D01*
X115837000Y-115547000D01*
X116032000Y-115177000D01*
X116309000Y-114649000D01*
X116687000Y-113931000D01*
X116879000Y-113567000D01*
X117068000Y-113207000D01*
X117251000Y-112860000D01*
X117422000Y-112535000D01*
X117576000Y-112244000D01*
X117707000Y-111992000D01*
X117812000Y-111792000D01*
X117887000Y-111652000D01*
X117942000Y-111548000D01*
X117993000Y-111450000D01*
X118040000Y-111362000D01*
X118081000Y-111285000D01*
X118117000Y-111222000D01*
X118144000Y-111174000D01*
X118161000Y-111143000D01*
X118169000Y-111133000D01*
X118221000Y-111167000D01*
G37*
%TD.AperFunction*%
%TA.AperFunction,EtchedComponent*%
G36*
X123597000Y-115591000D02*
G01*
X123865000Y-115594000D01*
X123866000Y-115826000D01*
X123867000Y-115874000D01*
X123867000Y-115917000D01*
X123868000Y-115958000D01*
X123868000Y-115994000D01*
X123868000Y-116024000D01*
X123868000Y-116048000D01*
X123869000Y-116064000D01*
X123869000Y-116070000D01*
X123866000Y-116074000D01*
X123856000Y-116077000D01*
X123836000Y-116078000D01*
X123808000Y-116080000D01*
X123769000Y-116082000D01*
X123718000Y-116083000D01*
X123655000Y-116084000D01*
X123577000Y-116085000D01*
X123466000Y-116086000D01*
X123381000Y-116088000D01*
X123319000Y-116091000D01*
X123272000Y-116098000D01*
X123239000Y-116108000D01*
X123213000Y-116122000D01*
X123191000Y-116142000D01*
X123167000Y-116168000D01*
X123148000Y-116192000D01*
X123131000Y-116216000D01*
X123118000Y-116241000D01*
X123108000Y-116268000D01*
X123101000Y-116295000D01*
X123096000Y-116325000D01*
X123094000Y-116356000D01*
X123094000Y-116389000D01*
X123097000Y-116420000D01*
X123102000Y-116449000D01*
X123109000Y-116476000D01*
X123118000Y-116501000D01*
X123131000Y-116525000D01*
X123144000Y-116549000D01*
X123162000Y-116571000D01*
X123182000Y-116592000D01*
X123207000Y-116618000D01*
X123229000Y-116636000D01*
X123254000Y-116649000D01*
X123287000Y-116659000D01*
X123332000Y-116664000D01*
X123392000Y-116668000D01*
X123474000Y-116670000D01*
X123581000Y-116672000D01*
X123639000Y-116673000D01*
X123694000Y-116673000D01*
X123742000Y-116673000D01*
X123786000Y-116674000D01*
X123821000Y-116675000D01*
X123848000Y-116676000D01*
X123866000Y-116677000D01*
X123872000Y-116677000D01*
X123873000Y-116683000D01*
X123873000Y-116697000D01*
X123874000Y-116720000D01*
X123875000Y-116750000D01*
X123875000Y-116786000D01*
X123876000Y-116827000D01*
X123876000Y-116873000D01*
X123876000Y-116921000D01*
X123879000Y-117162000D01*
X123572000Y-117161000D01*
X123456000Y-117161000D01*
X123365000Y-117160000D01*
X123293000Y-117157000D01*
X123237000Y-117151000D01*
X123191000Y-117144000D01*
X123151000Y-117132000D01*
X123113000Y-117117000D01*
X123071000Y-117096000D01*
X122994000Y-117051000D01*
X122922000Y-116995000D01*
X122857000Y-116931000D01*
X122798000Y-116858000D01*
X122749000Y-116779000D01*
X122707000Y-116695000D01*
X122676000Y-116606000D01*
X122656000Y-116514000D01*
X122651000Y-116483000D01*
X122648000Y-116444000D01*
X122646000Y-116403000D01*
X122645000Y-116361000D01*
X122646000Y-116319000D01*
X122648000Y-116278000D01*
X122651000Y-116242000D01*
X122656000Y-116212000D01*
X122669000Y-116150000D01*
X122685000Y-116091000D01*
X122707000Y-116036000D01*
X122733000Y-115982000D01*
X122763000Y-115929000D01*
X122798000Y-115880000D01*
X122837000Y-115832000D01*
X122882000Y-115784000D01*
X122927000Y-115742000D01*
X122971000Y-115706000D01*
X123017000Y-115675000D01*
X123063000Y-115650000D01*
X123110000Y-115629000D01*
X123159000Y-115613000D01*
X123210000Y-115602000D01*
X123263000Y-115594000D01*
X123282000Y-115593000D01*
X123310000Y-115592000D01*
X123347000Y-115591000D01*
X123388000Y-115591000D01*
X123437000Y-115590000D01*
X123488000Y-115590000D01*
X123542000Y-115590000D01*
X123597000Y-115591000D01*
G37*
%TD.AperFunction*%
%TA.AperFunction,EtchedComponent*%
G36*
X125835000Y-111146000D02*
G01*
X125856000Y-111183000D01*
X125889000Y-111242000D01*
X125932000Y-111320000D01*
X125982000Y-111414000D01*
X126040000Y-111522000D01*
X126103000Y-111640000D01*
X126170000Y-111768000D01*
X126329000Y-112071000D01*
X126565000Y-112518000D01*
X126851000Y-113064000D01*
X127166000Y-113661000D01*
X127483000Y-114265000D01*
X127781000Y-114830000D01*
X128033000Y-115310000D01*
X128219000Y-115661000D01*
X128268000Y-115756000D01*
X128308000Y-115834000D01*
X128340000Y-115897000D01*
X128366000Y-115950000D01*
X128387000Y-115998000D01*
X128406000Y-116044000D01*
X128424000Y-116092000D01*
X128443000Y-116147000D01*
X128453000Y-116178000D01*
X128462000Y-116212000D01*
X128470000Y-116249000D01*
X128478000Y-116289000D01*
X128484000Y-116332000D01*
X128490000Y-116377000D01*
X128494000Y-116425000D01*
X128499000Y-116473000D01*
X128500000Y-116564000D01*
X128493000Y-116653000D01*
X128479000Y-116740000D01*
X128456000Y-116822000D01*
X128426000Y-116901000D01*
X128390000Y-116972000D01*
X128346000Y-117038000D01*
X128297000Y-117095000D01*
X128285000Y-117107000D01*
X128273000Y-117117000D01*
X128261000Y-117128000D01*
X128249000Y-117137000D01*
X128237000Y-117146000D01*
X128226000Y-117153000D01*
X128217000Y-117160000D01*
X128209000Y-117163000D01*
X128186000Y-117167000D01*
X128129000Y-117171000D01*
X128024000Y-117174000D01*
X127857000Y-117175000D01*
X127613000Y-117177000D01*
X127279000Y-117179000D01*
X126840000Y-117181000D01*
X126282000Y-117183000D01*
X125725000Y-117185000D01*
X125287000Y-117186000D01*
X124955000Y-117186000D01*
X124714000Y-117186000D01*
X124549000Y-117184000D01*
X124448000Y-117182000D01*
X124397000Y-117179000D01*
X124382000Y-117175000D01*
X124381000Y-117157000D01*
X124380000Y-117108000D01*
X124379000Y-117034000D01*
X124377000Y-116936000D01*
X124377000Y-116819000D01*
X124377000Y-116685000D01*
X124376000Y-116538000D01*
X124375000Y-116380000D01*
X124373000Y-115598000D01*
X125239000Y-115593000D01*
X125524000Y-115591000D01*
X125739000Y-115590000D01*
X125894000Y-115589000D01*
X126001000Y-115586000D01*
X126068000Y-115583000D01*
X126107000Y-115579000D01*
X126128000Y-115575000D01*
X126143000Y-115568000D01*
X126169000Y-115551000D01*
X126195000Y-115530000D01*
X126219000Y-115505000D01*
X126243000Y-115476000D01*
X126263000Y-115444000D01*
X126282000Y-115411000D01*
X126298000Y-115374000D01*
X126311000Y-115337000D01*
X126316000Y-115309000D01*
X126320000Y-115275000D01*
X126322000Y-115237000D01*
X126322000Y-115197000D01*
X126320000Y-115157000D01*
X126316000Y-115118000D01*
X126311000Y-115085000D01*
X126303000Y-115057000D01*
X126284000Y-115019000D01*
X126233000Y-114923000D01*
X126154000Y-114776000D01*
X126052000Y-114585000D01*
X125928000Y-114356000D01*
X125787000Y-114094000D01*
X125632000Y-113808000D01*
X125466000Y-113503000D01*
X125301000Y-113197000D01*
X125147000Y-112912000D01*
X125007000Y-112653000D01*
X124885000Y-112427000D01*
X124784000Y-112240000D01*
X124708000Y-112097000D01*
X124660000Y-112006000D01*
X124643000Y-111973000D01*
X124655000Y-111961000D01*
X124689000Y-111934000D01*
X124743000Y-111894000D01*
X124815000Y-111842000D01*
X124902000Y-111779000D01*
X125001000Y-111708000D01*
X125111000Y-111630000D01*
X125230000Y-111547000D01*
X125348000Y-111464000D01*
X125458000Y-111386000D01*
X125558000Y-111316000D01*
X125647000Y-111255000D01*
X125720000Y-111204000D01*
X125776000Y-111166000D01*
X125812000Y-111142000D01*
X125826000Y-111134000D01*
X125835000Y-111146000D01*
G37*
%TD.AperFunction*%
%TA.AperFunction,EtchedComponent*%
G36*
X121923000Y-105316000D02*
G01*
X121939000Y-105319000D01*
X121957000Y-105323000D01*
X122003000Y-105336000D01*
X122052000Y-105356000D01*
X122103000Y-105381000D01*
X122156000Y-105412000D01*
X122206000Y-105446000D01*
X122252000Y-105483000D01*
X122295000Y-105520000D01*
X122331000Y-105558000D01*
X122356000Y-105590000D01*
X122385000Y-105628000D01*
X122416000Y-105674000D01*
X122450000Y-105723000D01*
X122485000Y-105776000D01*
X122521000Y-105832000D01*
X122556000Y-105889000D01*
X122589000Y-105946000D01*
X122657000Y-106058000D01*
X122738000Y-106185000D01*
X122829000Y-106324000D01*
X122928000Y-106471000D01*
X123034000Y-106624000D01*
X123144000Y-106779000D01*
X123256000Y-106935000D01*
X123370000Y-107088000D01*
X123394000Y-107121000D01*
X123417000Y-107153000D01*
X123438000Y-107181000D01*
X123456000Y-107207000D01*
X123471000Y-107228000D01*
X123483000Y-107245000D01*
X123490000Y-107256000D01*
X123493000Y-107261000D01*
X123483000Y-107262000D01*
X123453000Y-107263000D01*
X123406000Y-107264000D01*
X123345000Y-107265000D01*
X123269000Y-107266000D01*
X123184000Y-107266000D01*
X123090000Y-107266000D01*
X122988000Y-107266000D01*
X122483000Y-107263000D01*
X122441000Y-107203000D01*
X122402000Y-107146000D01*
X122361000Y-107089000D01*
X122318000Y-107032000D01*
X122275000Y-106977000D01*
X122231000Y-106921000D01*
X122185000Y-106866000D01*
X122139000Y-106812000D01*
X122092000Y-106759000D01*
X122060000Y-106728000D01*
X122023000Y-106703000D01*
X121985000Y-106684000D01*
X121944000Y-106672000D01*
X121902000Y-106667000D01*
X121859000Y-106669000D01*
X121817000Y-106678000D01*
X121777000Y-106693000D01*
X121763000Y-106701000D01*
X121749000Y-106709000D01*
X121736000Y-106719000D01*
X121722000Y-106730000D01*
X121709000Y-106741000D01*
X121695000Y-106755000D01*
X121682000Y-106770000D01*
X121667000Y-106787000D01*
X121654000Y-106802000D01*
X121641000Y-106816000D01*
X121628000Y-106833000D01*
X121614000Y-106849000D01*
X121601000Y-106864000D01*
X121587000Y-106879000D01*
X121576000Y-106893000D01*
X121566000Y-106904000D01*
X121540000Y-106935000D01*
X121510000Y-106973000D01*
X121477000Y-107017000D01*
X121443000Y-107061000D01*
X121410000Y-107106000D01*
X121380000Y-107148000D01*
X121355000Y-107184000D01*
X121335000Y-107213000D01*
X121302000Y-107268000D01*
X120801000Y-107268000D01*
X120699000Y-107268000D01*
X120605000Y-107268000D01*
X120520000Y-107267000D01*
X120446000Y-107266000D01*
X120384000Y-107266000D01*
X120338000Y-107265000D01*
X120309000Y-107263000D01*
X120299000Y-107262000D01*
X120301000Y-107256000D01*
X120304000Y-107247000D01*
X120313000Y-107233000D01*
X120325000Y-107215000D01*
X120341000Y-107192000D01*
X120362000Y-107163000D01*
X120388000Y-107128000D01*
X120419000Y-107086000D01*
X120440000Y-107059000D01*
X120462000Y-107030000D01*
X120484000Y-107000000D01*
X120505000Y-106971000D01*
X120526000Y-106943000D01*
X120544000Y-106918000D01*
X120560000Y-106896000D01*
X120573000Y-106877000D01*
X120586000Y-106859000D01*
X120601000Y-106838000D01*
X120617000Y-106815000D01*
X120635000Y-106790000D01*
X120653000Y-106765000D01*
X120671000Y-106741000D01*
X120689000Y-106717000D01*
X120706000Y-106694000D01*
X120748000Y-106633000D01*
X120810000Y-106544000D01*
X120882000Y-106436000D01*
X120959000Y-106320000D01*
X121035000Y-106204000D01*
X121104000Y-106096000D01*
X121160000Y-106007000D01*
X121197000Y-105946000D01*
X121225000Y-105899000D01*
X121260000Y-105844000D01*
X121297000Y-105786000D01*
X121337000Y-105727000D01*
X121376000Y-105669000D01*
X121412000Y-105618000D01*
X121443000Y-105575000D01*
X121467000Y-105545000D01*
X121503000Y-105508000D01*
X121544000Y-105473000D01*
X121590000Y-105437000D01*
X121639000Y-105406000D01*
X121689000Y-105377000D01*
X121738000Y-105353000D01*
X121787000Y-105334000D01*
X121831000Y-105322000D01*
X121849000Y-105318000D01*
X121866000Y-105316000D01*
X121880000Y-105314000D01*
X121894000Y-105314000D01*
X121908000Y-105314000D01*
X121923000Y-105316000D01*
G37*
%TD.AperFunction*%
%TD*%
D11*
%TO.P,RS4,1,~_1*%
%TO.N,/SENSEP4_HI*%
X134875000Y-77387500D03*
%TO.P,RS4,2,~_2*%
%TO.N,/SENSEP4_LO*%
X134875000Y-83312500D03*
%TD*%
D12*
%TO.P,RFH5,1,~_1*%
%TO.N,/SENSEP5_HI*%
X139275000Y-87840000D03*
%TO.P,RFH5,2,~_2*%
%TO.N,/IN5_P*%
X139275000Y-88860000D03*
%TD*%
D13*
%TO.P,U3,1,IN_1*%
%TO.N,+5VSB*%
X156500000Y-103000000D03*
%TO.P,U3,2,GND_2*%
%TO.N,GND*%
X156500000Y-103950000D03*
%TO.P,U3,3,EN_3*%
%TO.N,+5VSB*%
X156500000Y-104900000D03*
%TO.P,U3,4,NC_4*%
%TO.N,unconnected-(U3-NC-Pad4)*%
X158775000Y-104900000D03*
%TO.P,U3,5,OUT_5*%
%TO.N,+3V3*%
X158775000Y-103000000D03*
%TD*%
D14*
%TO.P,C2,1,~_1*%
%TO.N,+3V3*%
X160500000Y-102775000D03*
%TO.P,C2,2,~_2*%
%TO.N,GND*%
X160500000Y-101225000D03*
%TD*%
D15*
%TO.P,C11,1,~_1*%
%TO.N,+3V3*%
X123500000Y-92980000D03*
%TO.P,C11,2,~_2*%
%TO.N,GND*%
X123500000Y-92020000D03*
%TD*%
D12*
%TO.P,RFH2,1,~_1*%
%TO.N,/SENSEP2_HI*%
X121275000Y-87840000D03*
%TO.P,RFH2,2,~_2*%
%TO.N,/IN2_P*%
X121275000Y-88860000D03*
%TD*%
D16*
%TO.P,TH1,1,~_1*%
%TO.N,+3V3*%
X131570000Y-74500000D03*
%TO.P,TH1,2,~_2*%
%TO.N,/TEMP1*%
X132430000Y-74500000D03*
%TD*%
D17*
%TO.P,CF1,1,~_1*%
%TO.N,/IN1_P*%
X115500000Y-91175000D03*
%TO.P,CF1,2,~_2*%
%TO.N,/IN1_N*%
X115500000Y-92725000D03*
%TD*%
D18*
%TO.P,SW2,1,1_1*%
%TO.N,GND*%
X168500000Y-109320000D03*
%TO.P,SW2,2,2_2*%
%TO.N,/EN*%
X168500000Y-113680000D03*
%TD*%
%TO.P,SW1,1,1_1*%
%TO.N,GND*%
X168500000Y-101320000D03*
%TO.P,SW1,2,2_2*%
%TO.N,/GPIO0*%
X168500000Y-105680000D03*
%TD*%
D19*
%TO.P,J3,1,+12V_1*%
%TO.N,/SENSEP1_HI*%
X124660402Y-62669999D03*
%TO.P,J3,2,+12V_2*%
%TO.N,/SENSEP2_HI*%
X127660401Y-62669999D03*
%TO.P,J3,3,+12V_3*%
%TO.N,/SENSEP3_HI*%
X130660401Y-62669999D03*
%TO.P,J3,4,+12V_4*%
%TO.N,/SENSEP4_HI*%
X133660400Y-62669999D03*
%TO.P,J3,5,+12V_5*%
%TO.N,/SENSEP5_HI*%
X136660399Y-62669999D03*
%TO.P,J3,6,+12V_6*%
%TO.N,/SENSEP6_HI*%
X139660398Y-62669999D03*
%TO.P,J3,7,GND_7*%
%TO.N,GND*%
X124660402Y-65670001D03*
%TO.P,J3,8,GND_8*%
X127660401Y-65670001D03*
%TO.P,J3,9,GND_9*%
X130660401Y-65670001D03*
%TO.P,J3,10,GND_10*%
X133660400Y-65670001D03*
%TO.P,J3,11,GND_11*%
X136660399Y-65670001D03*
%TO.P,J3,12,GND_12*%
X139660398Y-65670001D03*
D20*
%TO.P,J3,13,SENSE_13*%
%TO.N,/SB_SENSE0*%
X129160401Y-61000000D03*
%TO.P,J3,14,SENSE_14*%
%TO.N,/SB_SENSE1*%
X131160400Y-61000000D03*
%TO.P,J3,15,SENSE_15*%
%TO.N,/SB_PWR_STABLE*%
X133160401Y-61000000D03*
%TO.P,J3,16,SENSE_16*%
%TO.N,/SB_CBL_PRES*%
X135160399Y-61000000D03*
%TD*%
D21*
%TO.P,U4,1,IN_1*%
%TO.N,+3V3*%
X150398650Y-106700001D03*
%TO.P,U4,2,OUT_2*%
%TO.N,/VREF*%
X150398650Y-104799999D03*
D22*
%TO.P,U4,3,GND_3*%
%TO.N,GND*%
X148500000Y-105750000D03*
%TD*%
D23*
%TO.P,C7,1,~_1*%
%TO.N,+3V3*%
X151750000Y-87050000D03*
%TO.P,C7,2,~_2*%
%TO.N,GND*%
X151750000Y-88950000D03*
%TD*%
D24*
%TO.P,FID2,*%
%TO.N,*%
X166000000Y-135500000D03*
%TD*%
D25*
%TO.P,U1,1,GND_1*%
%TO.N,GND*%
X153875000Y-84950000D03*
%TO.P,U1,2,GND_2*%
X153875000Y-85800000D03*
%TO.P,U1,3,3V3_3*%
%TO.N,+3V3*%
X153875000Y-86650000D03*
%TO.P,U1,4,IO0_4*%
%TO.N,/GPIO0*%
X153875000Y-87500000D03*
%TO.P,U1,5,IO1_5*%
%TO.N,/ISENSEP1*%
X153875000Y-88350000D03*
%TO.P,U1,6,IO2_6*%
%TO.N,/ISENSEP2*%
X153875000Y-89200000D03*
%TO.P,U1,7,IO3_7*%
%TO.N,/ISENSEP3*%
X153875000Y-90050000D03*
%TO.P,U1,8,IO4_8*%
%TO.N,/ISENSEP4*%
X153875000Y-90900000D03*
%TO.P,U1,9,IO5_9*%
%TO.N,/ISENSEP5*%
X153875000Y-91750000D03*
%TO.P,U1,10,IO6_10*%
%TO.N,/ISENSEP6*%
X153875000Y-92600000D03*
%TO.P,U1,11,IO7_11*%
%TO.N,/VRAIL_DIV*%
X153875000Y-93450000D03*
%TO.P,U1,12,IO8_12*%
%TO.N,/VREF*%
X153875000Y-94300000D03*
%TO.P,U1,13,IO9_13*%
%TO.N,/SB_SENSE1_GPIO*%
X153875000Y-95150000D03*
%TO.P,U1,14,IO10_14*%
%TO.N,/DETECT_SENSE*%
X153875000Y-96000000D03*
%TO.P,U1,15,IO11_15*%
%TO.N,/SB_PWR_STABLE_GPIO*%
X153875000Y-96850000D03*
D26*
%TO.P,U1,16,IO12_16*%
%TO.N,/SB_CBL_PRES_GPIO*%
X154925000Y-97900000D03*
%TO.P,U1,17,IO13_17*%
%TO.N,/TEMP1*%
X155775000Y-97900000D03*
%TO.P,U1,18,IO14_18*%
%TO.N,/TEMP2*%
X156625000Y-97900000D03*
%TO.P,U1,19,IO15_19*%
%TO.N,/SB_SENSE0_GPIO*%
X157475000Y-97900000D03*
%TO.P,U1,20,IO16_20*%
%TO.N,unconnected-(U1-IO16-Pad20)*%
X158325000Y-97900000D03*
%TO.P,U1,21,IO17_21*%
%TO.N,/CAN_TX*%
X159175000Y-97900000D03*
%TO.P,U1,22,IO18_22*%
%TO.N,/CAN_RX*%
X160025000Y-97900000D03*
%TO.P,U1,23,USB_D-_23*%
%TO.N,/USB_DM*%
X160875000Y-97900000D03*
%TO.P,U1,24,USB_D+_24*%
%TO.N,/USB_DP*%
X161725000Y-97900000D03*
%TO.P,U1,25,IO21_25*%
%TO.N,unconnected-(U1-IO21-Pad25)*%
X162575000Y-97900000D03*
%TO.P,U1,26,IO26_26*%
%TO.N,unconnected-(U1-IO26-Pad26)*%
X163425000Y-97900000D03*
%TO.P,U1,27,IO47_27*%
%TO.N,unconnected-(U1-IO47-Pad27)*%
X164275000Y-97900000D03*
%TO.P,U1,28,IO33_28*%
%TO.N,unconnected-(U1-IO33-Pad28)*%
X165125000Y-97900000D03*
%TO.P,U1,29,IO34_29*%
%TO.N,unconnected-(U1-IO34-Pad29)*%
X165975000Y-97900000D03*
%TO.P,U1,30,IO48_30*%
%TO.N,unconnected-(U1-IO48-Pad30)*%
X166825000Y-97900000D03*
D25*
%TO.P,U1,31,IO35_31*%
%TO.N,unconnected-(U1-IO35-Pad31)*%
X167875000Y-96850000D03*
%TO.P,U1,32,IO36_32*%
%TO.N,unconnected-(U1-IO36-Pad32)*%
X167875000Y-96000000D03*
%TO.P,U1,33,IO37_33*%
%TO.N,unconnected-(U1-IO37-Pad33)*%
X167875000Y-95150000D03*
%TO.P,U1,34,IO38_34*%
%TO.N,unconnected-(U1-IO38-Pad34)*%
X167875000Y-94300000D03*
%TO.P,U1,35,IO39_35*%
%TO.N,unconnected-(U1-IO39-Pad35)*%
X167875000Y-93450000D03*
%TO.P,U1,36,IO40_36*%
%TO.N,unconnected-(U1-IO40-Pad36)*%
X167875000Y-92600000D03*
%TO.P,U1,37,IO41_37*%
%TO.N,unconnected-(U1-IO41-Pad37)*%
X167875000Y-91750000D03*
%TO.P,U1,38,IO42_38*%
%TO.N,unconnected-(U1-IO42-Pad38)*%
X167875000Y-90900000D03*
%TO.P,U1,39,TXD0_39*%
%TO.N,unconnected-(U1-TXD0-Pad39)*%
X167875000Y-90050000D03*
%TO.P,U1,40,RXD0_40*%
%TO.N,unconnected-(U1-RXD0-Pad40)*%
X167875000Y-89200000D03*
%TO.P,U1,41,IO45_41*%
%TO.N,unconnected-(U1-IO45-Pad41)*%
X167875000Y-88350000D03*
%TO.P,U1,42,GND_42*%
%TO.N,GND*%
X167875000Y-87500000D03*
%TO.P,U1,43,GND_43*%
X167875000Y-86650000D03*
%TO.P,U1,44,IO46_44*%
%TO.N,unconnected-(U1-IO46-Pad44)*%
X167875000Y-85800000D03*
%TO.P,U1,45,EN_45*%
%TO.N,/EN*%
X167875000Y-84950000D03*
D26*
%TO.P,U1,46,GND_46*%
%TO.N,GND*%
X166825000Y-83900000D03*
%TO.P,U1,47,GND_47*%
X165975000Y-83900000D03*
%TO.P,U1,48,GND_48*%
X165125000Y-83900000D03*
%TO.P,U1,49,GND_49*%
X164275000Y-83900000D03*
%TO.P,U1,50,GND_50*%
X163425000Y-83900000D03*
%TO.P,U1,51,GND_51*%
X162575000Y-83900000D03*
%TO.P,U1,52,GND_52*%
X161725000Y-83900000D03*
%TO.P,U1,53,GND_53*%
X160875000Y-83900000D03*
%TO.P,U1,54,GND_54*%
X160025000Y-83900000D03*
%TO.P,U1,55,GND_55*%
X159175000Y-83900000D03*
%TO.P,U1,56,GND_56*%
X158325000Y-83900000D03*
%TO.P,U1,57,GND_57*%
X157475000Y-83900000D03*
%TO.P,U1,58,GND_58*%
X156625000Y-83900000D03*
%TO.P,U1,59,GND_59*%
X155775000Y-83900000D03*
%TO.P,U1,60,GND_60*%
X154925000Y-83900000D03*
D27*
%TO.P,U1,61,GND_61*%
X159225000Y-89250000D03*
D28*
X159225000Y-90900000D03*
X159225000Y-92550000D03*
X160875000Y-89250000D03*
X160875000Y-90900000D03*
X160875000Y-92550000D03*
X162525000Y-89250000D03*
X162525000Y-90900000D03*
X162525000Y-92550000D03*
D29*
%TO.P,U1,62,GND_62*%
X153875000Y-83900000D03*
%TO.P,U1,63,GND_63*%
X153875000Y-97900000D03*
%TO.P,U1,64,GND_64*%
X167875000Y-97900000D03*
%TO.P,U1,65,GND_65*%
X167875000Y-83900000D03*
%TD*%
D30*
%TO.P,H3,1*%
%TO.N,GND*%
X114475000Y-134350000D03*
X115177944Y-132652944D03*
X115177944Y-136047056D03*
X116875000Y-131950000D03*
D31*
X116875000Y-134350000D03*
D30*
X116875000Y-136750000D03*
X118572056Y-132652944D03*
X118572056Y-136047056D03*
X119275000Y-134350000D03*
%TD*%
%TO.P,H1,1*%
%TO.N,GND*%
X114475000Y-62350000D03*
X115177944Y-60652944D03*
X115177944Y-64047056D03*
X116875000Y-59950000D03*
D31*
X116875000Y-62350000D03*
D30*
X116875000Y-64750000D03*
X118572056Y-60652944D03*
X118572056Y-64047056D03*
X119275000Y-62350000D03*
%TD*%
D32*
%TO.P,R12,1,~_1*%
%TO.N,/SB_PWR_STABLE*%
X150365000Y-77350000D03*
%TO.P,R12,2,~_2*%
%TO.N,/SB_PWR_STABLE_GPIO*%
X151385000Y-77350000D03*
%TD*%
D12*
%TO.P,RFL6,1,~_1*%
%TO.N,/SENSEP6_LO*%
X148475000Y-87840000D03*
%TO.P,RFL6,2,~_2*%
%TO.N,/IN6_N*%
X148475000Y-88860000D03*
%TD*%
D33*
%TO.P,U15,1,-_1*%
%TO.N,/IN6_N*%
X144970000Y-99825000D03*
%TO.P,U15,2,GND_2*%
%TO.N,GND*%
X146240000Y-99825000D03*
%TO.P,U15,3,REF2_3*%
X147510000Y-99825000D03*
%TO.P,U15,4,GND_4*%
X148780000Y-99825000D03*
%TO.P,U15,5,~_5*%
%TO.N,/ISENSEP6*%
X148780000Y-94875000D03*
%TO.P,U15,6,V+_6*%
%TO.N,+3V3*%
X147510000Y-94875000D03*
%TO.P,U15,7,REF1_7*%
%TO.N,GND*%
X146240000Y-94875000D03*
%TO.P,U15,8,+_8*%
%TO.N,/IN6_P*%
X144970000Y-94875000D03*
%TD*%
D14*
%TO.P,C1,1,~_1*%
%TO.N,+5VSB*%
X154750000Y-102775000D03*
%TO.P,C1,2,~_2*%
%TO.N,GND*%
X154750000Y-101225000D03*
%TD*%
D34*
%TO.P,R8,1,~_1*%
%TO.N,/USB_CC1*%
X162010000Y-73750000D03*
%TO.P,R8,2,~_2*%
%TO.N,GND*%
X160990000Y-73750000D03*
%TD*%
D12*
%TO.P,RFH6,1,~_1*%
%TO.N,/SENSEP6_HI*%
X145275000Y-87840000D03*
%TO.P,RFH6,2,~_2*%
%TO.N,/IN6_P*%
X145275000Y-88860000D03*
%TD*%
D11*
%TO.P,RS1,1,~_1*%
%TO.N,/SENSEP1_HI*%
X116875000Y-77387500D03*
%TO.P,RS1,2,~_2*%
%TO.N,/SENSEP1_LO*%
X116875000Y-83312500D03*
%TD*%
D32*
%TO.P,R10,1,~_1*%
%TO.N,/SB_SENSE0*%
X150365000Y-71350000D03*
%TO.P,R10,2,~_2*%
%TO.N,/SB_SENSE0_GPIO*%
X151385000Y-71350000D03*
%TD*%
D35*
%TO.P,C24,1,~_1*%
%TO.N,/VRAIL_DIV*%
X152250000Y-94020000D03*
%TO.P,C24,2,~_2*%
%TO.N,GND*%
X152250000Y-94980000D03*
%TD*%
D32*
%TO.P,R11,1,~_1*%
%TO.N,/SB_SENSE1*%
X150365000Y-74350000D03*
%TO.P,R11,2,~_2*%
%TO.N,/SB_SENSE1_GPIO*%
X151385000Y-74350000D03*
%TD*%
D33*
%TO.P,U13,1,-_1*%
%TO.N,/IN4_N*%
X132970000Y-99825000D03*
%TO.P,U13,2,GND_2*%
%TO.N,GND*%
X134240000Y-99825000D03*
%TO.P,U13,3,REF2_3*%
X135510000Y-99825000D03*
%TO.P,U13,4,GND_4*%
X136780000Y-99825000D03*
%TO.P,U13,5,~_5*%
%TO.N,/ISENSEP4*%
X136780000Y-94875000D03*
%TO.P,U13,6,V+_6*%
%TO.N,+3V3*%
X135510000Y-94875000D03*
%TO.P,U13,7,REF1_7*%
%TO.N,GND*%
X134240000Y-94875000D03*
%TO.P,U13,8,+_8*%
%TO.N,/IN4_P*%
X132970000Y-94875000D03*
%TD*%
D15*
%TO.P,C12,1,~_1*%
%TO.N,+3V3*%
X129500000Y-92980000D03*
%TO.P,C12,2,~_2*%
%TO.N,GND*%
X129500000Y-92020000D03*
%TD*%
D33*
%TO.P,U12,1,-_1*%
%TO.N,/IN3_N*%
X126970000Y-99825000D03*
%TO.P,U12,2,GND_2*%
%TO.N,GND*%
X128240000Y-99825000D03*
%TO.P,U12,3,REF2_3*%
X129510000Y-99825000D03*
%TO.P,U12,4,GND_4*%
X130780000Y-99825000D03*
%TO.P,U12,5,~_5*%
%TO.N,/ISENSEP3*%
X130780000Y-94875000D03*
%TO.P,U12,6,V+_6*%
%TO.N,+3V3*%
X129510000Y-94875000D03*
%TO.P,U12,7,REF1_7*%
%TO.N,GND*%
X128240000Y-94875000D03*
%TO.P,U12,8,+_8*%
%TO.N,/IN3_P*%
X126970000Y-94875000D03*
%TD*%
D12*
%TO.P,RFL5,1,~_1*%
%TO.N,/SENSEP5_LO*%
X142475000Y-87840000D03*
%TO.P,RFL5,2,~_2*%
%TO.N,/IN5_N*%
X142475000Y-88860000D03*
%TD*%
D36*
%TO.P,C6,1,~_1*%
%TO.N,+5VSB*%
X154450000Y-128750000D03*
%TO.P,C6,2,~_2*%
%TO.N,GND*%
X152550000Y-128750000D03*
%TD*%
D37*
%TO.P,R20,1,~_1*%
%TO.N,/TEMP1*%
X132750000Y-73260000D03*
%TO.P,R20,2,~_2*%
%TO.N,GND*%
X132750000Y-72240000D03*
%TD*%
D38*
%TO.P,C8,1,~_1*%
%TO.N,+3V3*%
X157480000Y-117000000D03*
%TO.P,C8,2,~_2*%
%TO.N,GND*%
X156520000Y-117000000D03*
%TD*%
D12*
%TO.P,RFH1,1,~_1*%
%TO.N,/SENSEP1_HI*%
X115275000Y-87840000D03*
%TO.P,RFH1,2,~_2*%
%TO.N,/IN1_P*%
X115275000Y-88860000D03*
%TD*%
D19*
%TO.P,J1,1,VCC_1*%
%TO.N,+5VSB*%
X159650000Y-130282500D03*
%TO.P,J1,2,GND_2*%
%TO.N,GND*%
X157110000Y-129012500D03*
%TO.P,J1,3,CAN1_H_3*%
%TO.N,/CAN_H*%
X159650000Y-127742500D03*
%TO.P,J1,4,STREAM_P_4*%
%TO.N,unconnected-(J1-STREAM_P-Pad4)*%
X157110000Y-126472500D03*
%TO.P,J1,5,STREAM_N_5*%
%TO.N,unconnected-(J1-STREAM_N-Pad5)*%
X159650000Y-125202500D03*
%TO.P,J1,6,CAN1_L_6*%
%TO.N,/CAN_L*%
X157110000Y-123932500D03*
%TO.P,J1,7,RSVD_7*%
%TO.N,unconnected-(J1-RSVD-Pad7)*%
X159650000Y-122662500D03*
D39*
%TO.P,J1,8,DETECT_8*%
%TO.N,/DETECT*%
X157110000Y-121392500D03*
D40*
%TO.P,J1,SH1,SHIELD_SH1*%
%TO.N,GND*%
X168950000Y-133772500D03*
%TO.P,J1,SH2,SHIELD_SH2*%
X168950000Y-117972500D03*
%TD*%
D15*
%TO.P,C5,1,~_1*%
%TO.N,/EN*%
X169500000Y-84980000D03*
%TO.P,C5,2,~_2*%
%TO.N,GND*%
X169500000Y-84020000D03*
%TD*%
D12*
%TO.P,RFL4,1,~_1*%
%TO.N,/SENSEP4_LO*%
X136475000Y-87840000D03*
%TO.P,RFL4,2,~_2*%
%TO.N,/IN4_N*%
X136475000Y-88860000D03*
%TD*%
D35*
%TO.P,C20,1,~_1*%
%TO.N,/TEMP1*%
X156250000Y-99520000D03*
%TO.P,C20,2,~_2*%
%TO.N,GND*%
X156250000Y-100480000D03*
%TD*%
D37*
%TO.P,R21,1,~_1*%
%TO.N,/TEMP2*%
X117250000Y-123510000D03*
%TO.P,R21,2,~_2*%
%TO.N,GND*%
X117250000Y-122490000D03*
%TD*%
D24*
%TO.P,FID1,*%
%TO.N,*%
X157250000Y-62500000D03*
%TD*%
D35*
%TO.P,C23,1,~_1*%
%TO.N,+3V3*%
X152250000Y-106770000D03*
%TO.P,C23,2,~_2*%
%TO.N,GND*%
X152250000Y-107730000D03*
%TD*%
D11*
%TO.P,RS6,1,~_1*%
%TO.N,/SENSEP6_HI*%
X146875000Y-77387500D03*
%TO.P,RS6,2,~_2*%
%TO.N,/SENSEP6_LO*%
X146875000Y-83312500D03*
%TD*%
D33*
%TO.P,U10,1,-_1*%
%TO.N,/IN1_N*%
X114970000Y-99825000D03*
%TO.P,U10,2,GND_2*%
%TO.N,GND*%
X116240000Y-99825000D03*
%TO.P,U10,3,REF2_3*%
X117510000Y-99825000D03*
%TO.P,U10,4,GND_4*%
X118780000Y-99825000D03*
%TO.P,U10,5,~_5*%
%TO.N,/ISENSEP1*%
X118780000Y-94875000D03*
%TO.P,U10,6,V+_6*%
%TO.N,+3V3*%
X117510000Y-94875000D03*
%TO.P,U10,7,REF1_7*%
%TO.N,GND*%
X116240000Y-94875000D03*
%TO.P,U10,8,+_8*%
%TO.N,/IN1_P*%
X114970000Y-94875000D03*
%TD*%
D17*
%TO.P,CF2,1,~_1*%
%TO.N,/IN2_P*%
X121000000Y-91225000D03*
%TO.P,CF2,2,~_2*%
%TO.N,/IN2_N*%
X121000000Y-92775000D03*
%TD*%
D15*
%TO.P,C13,1,~_1*%
%TO.N,+3V3*%
X135500000Y-92980000D03*
%TO.P,C13,2,~_2*%
%TO.N,GND*%
X135500000Y-92020000D03*
%TD*%
D37*
%TO.P,R5,1,~_1*%
%TO.N,/SENSEP6_HI*%
X151250000Y-95010000D03*
%TO.P,R5,2,~_2*%
%TO.N,/VRAIL_DIV*%
X151250000Y-93990000D03*
%TD*%
D32*
%TO.P,R13,1,~_1*%
%TO.N,/SB_CBL_PRES*%
X150365000Y-80350000D03*
%TO.P,R13,2,~_2*%
%TO.N,/SB_CBL_PRES_GPIO*%
X151385000Y-80350000D03*
%TD*%
D15*
%TO.P,C3,1,~_1*%
%TO.N,+3V3*%
X151250000Y-85730000D03*
%TO.P,C3,2,~_2*%
%TO.N,GND*%
X151250000Y-84770000D03*
%TD*%
D34*
%TO.P,R9,1,~_1*%
%TO.N,/USB_CC2*%
X162010000Y-70750000D03*
%TO.P,R9,2,~_2*%
%TO.N,GND*%
X160990000Y-70750000D03*
%TD*%
D41*
%TO.P,J5,A1,GND_A1*%
%TO.N,GND*%
X164755000Y-75700000D03*
%TO.P,J5,A4,VBUS_A4*%
%TO.N,/VBUS*%
X164755000Y-74900000D03*
%TO.P,J5,A5,CC1_A5*%
%TO.N,/USB_CC1*%
X164755000Y-73600000D03*
%TO.P,J5,A6,D+_A6*%
%TO.N,/USB_DP*%
X164755000Y-72600000D03*
%TO.P,J5,A7,D-_A7*%
%TO.N,/USB_DM*%
X164755000Y-72100000D03*
%TO.P,J5,A8,SBU1_A8*%
%TO.N,unconnected-(J5-SBU1-PadA8)*%
X164755000Y-71100000D03*
%TO.P,J5,A9,VBUS_A9*%
%TO.N,/VBUS*%
X164755000Y-69800000D03*
%TO.P,J5,A12,GND_A12*%
%TO.N,GND*%
X164755000Y-69000000D03*
%TO.P,J5,B1,GND_B1*%
X164755000Y-69300000D03*
%TO.P,J5,B4,VBUS_B4*%
%TO.N,/VBUS*%
X164755000Y-70100000D03*
%TO.P,J5,B5,CC2_B5*%
%TO.N,/USB_CC2*%
X164755000Y-70600000D03*
%TO.P,J5,B6,D+_B6*%
%TO.N,/USB_DP*%
X164755000Y-71600000D03*
%TO.P,J5,B7,D-_B7*%
%TO.N,/USB_DM*%
X164755000Y-73100000D03*
%TO.P,J5,B8,SBU2_B8*%
%TO.N,unconnected-(J5-SBU2-PadB8)*%
X164755000Y-74100000D03*
%TO.P,J5,B9,VBUS_B9*%
%TO.N,/VBUS*%
X164755000Y-74600000D03*
%TO.P,J5,B12,GND_B12*%
%TO.N,GND*%
X164755000Y-75400000D03*
D42*
%TO.P,J5,S1,SHIELD_S1*%
X165320000Y-76670000D03*
D43*
X169500000Y-76670000D03*
D42*
X165320000Y-68030000D03*
D43*
X169500000Y-68030000D03*
%TD*%
D44*
%TO.P,C22,1,~_1*%
%TO.N,/VREF*%
X152020000Y-104750000D03*
%TO.P,C22,2,~_2*%
%TO.N,GND*%
X152980000Y-104750000D03*
%TD*%
D15*
%TO.P,C14,1,~_1*%
%TO.N,+3V3*%
X141500000Y-92980000D03*
%TO.P,C14,2,~_2*%
%TO.N,GND*%
X141500000Y-92020000D03*
%TD*%
D12*
%TO.P,RFL2,1,~_1*%
%TO.N,/SENSEP2_LO*%
X124475000Y-87840000D03*
%TO.P,RFL2,2,~_2*%
%TO.N,/IN2_N*%
X124475000Y-88860000D03*
%TD*%
D17*
%TO.P,CF6,1,~_1*%
%TO.N,/IN6_P*%
X145500000Y-91225000D03*
%TO.P,CF6,2,~_2*%
%TO.N,/IN6_N*%
X145500000Y-92775000D03*
%TD*%
%TO.P,CF4,1,~_1*%
%TO.N,/IN4_P*%
X133500000Y-91175000D03*
%TO.P,CF4,2,~_2*%
%TO.N,/IN4_N*%
X133500000Y-92725000D03*
%TD*%
D45*
%TO.P,C9,1,~_1*%
%TO.N,/VBUS*%
X162250000Y-66700000D03*
%TO.P,C9,2,~_2*%
%TO.N,GND*%
X162250000Y-64800000D03*
%TD*%
D37*
%TO.P,R2,1,~_1*%
%TO.N,+3V3*%
X169500000Y-87010000D03*
%TO.P,R2,2,~_2*%
%TO.N,/EN*%
X169500000Y-85990000D03*
%TD*%
D12*
%TO.P,RFH3,1,~_1*%
%TO.N,/SENSEP3_HI*%
X127275000Y-87840000D03*
%TO.P,RFH3,2,~_2*%
%TO.N,/IN3_P*%
X127275000Y-88860000D03*
%TD*%
D44*
%TO.P,C4,1,~_1*%
%TO.N,+5VSB*%
X159270000Y-108500000D03*
%TO.P,C4,2,~_2*%
%TO.N,GND*%
X160230000Y-108500000D03*
%TD*%
D33*
%TO.P,U14,1,-_1*%
%TO.N,/IN5_N*%
X138970000Y-99825000D03*
%TO.P,U14,2,GND_2*%
%TO.N,GND*%
X140240000Y-99825000D03*
%TO.P,U14,3,REF2_3*%
X141510000Y-99825000D03*
%TO.P,U14,4,GND_4*%
X142780000Y-99825000D03*
%TO.P,U14,5,~_5*%
%TO.N,/ISENSEP5*%
X142780000Y-94875000D03*
%TO.P,U14,6,V+_6*%
%TO.N,+3V3*%
X141510000Y-94875000D03*
%TO.P,U14,7,REF1_7*%
%TO.N,GND*%
X140240000Y-94875000D03*
%TO.P,U14,8,+_8*%
%TO.N,/IN5_P*%
X138970000Y-94875000D03*
%TD*%
D12*
%TO.P,RFH4,1,~_1*%
%TO.N,/SENSEP4_HI*%
X133275000Y-87840000D03*
%TO.P,RFH4,2,~_2*%
%TO.N,/IN4_P*%
X133275000Y-88860000D03*
%TD*%
D16*
%TO.P,TH2,1,~_1*%
%TO.N,+3V3*%
X116250000Y-124750000D03*
%TO.P,TH2,2,~_2*%
%TO.N,/TEMP2*%
X117110000Y-124750000D03*
%TD*%
D46*
%TO.P,D1,1,K_1*%
%TO.N,/DETECT*%
X154550000Y-121250000D03*
%TO.P,D1,2,A_2*%
%TO.N,GND*%
X152450000Y-121250000D03*
%TD*%
D12*
%TO.P,RFL1,1,~_1*%
%TO.N,/SENSEP1_LO*%
X118475000Y-87840000D03*
%TO.P,RFL1,2,~_2*%
%TO.N,/IN1_N*%
X118475000Y-88860000D03*
%TD*%
D11*
%TO.P,RS3,1,~_1*%
%TO.N,/SENSEP3_HI*%
X128875000Y-77387500D03*
%TO.P,RS3,2,~_2*%
%TO.N,/SENSEP3_LO*%
X128875000Y-83312500D03*
%TD*%
D35*
%TO.P,C21,1,~_1*%
%TO.N,/TEMP2*%
X157250000Y-99540000D03*
%TO.P,C21,2,~_2*%
%TO.N,GND*%
X157250000Y-100500000D03*
%TD*%
D47*
%TO.P,U2,1,TXD_1*%
%TO.N,/CAN_TX*%
X161655000Y-110275000D03*
%TO.P,U2,2,GND_2*%
%TO.N,GND*%
X160385000Y-110275000D03*
%TO.P,U2,3,VCC_3*%
%TO.N,+5VSB*%
X159115000Y-110275000D03*
%TO.P,U2,4,RXD_4*%
%TO.N,/CAN_RX*%
X157845000Y-110275000D03*
%TO.P,U2,5,VIO_5*%
%TO.N,+3V3*%
X157845000Y-115225000D03*
%TO.P,U2,6,CANL_6*%
%TO.N,/CAN_L*%
X159115000Y-115225000D03*
%TO.P,U2,7,CANH_7*%
%TO.N,/CAN_H*%
X160385000Y-115225000D03*
%TO.P,U2,8,S_8*%
%TO.N,GND*%
X161655000Y-115225000D03*
%TD*%
D30*
%TO.P,H2,1*%
%TO.N,GND*%
X164475000Y-62350000D03*
X165177944Y-60652944D03*
X165177944Y-64047056D03*
X166875000Y-59950000D03*
D31*
X166875000Y-62350000D03*
D30*
X166875000Y-64750000D03*
X168572056Y-60652944D03*
X168572056Y-64047056D03*
X169275000Y-62350000D03*
%TD*%
D11*
%TO.P,RS2,1,~_1*%
%TO.N,/SENSEP2_HI*%
X122875000Y-77387500D03*
%TO.P,RS2,2,~_2*%
%TO.N,/SENSEP2_LO*%
X122875000Y-83312500D03*
%TD*%
%TO.P,RS5,1,~_1*%
%TO.N,/SENSEP5_HI*%
X140875000Y-77387500D03*
%TO.P,RS5,2,~_2*%
%TO.N,/SENSEP5_LO*%
X140875000Y-83312500D03*
%TD*%
D24*
%TO.P,FID3,*%
%TO.N,*%
X118750000Y-129250000D03*
%TD*%
D12*
%TO.P,RFL3,1,~_1*%
%TO.N,/SENSEP3_LO*%
X130475000Y-87840000D03*
%TO.P,RFL3,2,~_2*%
%TO.N,/IN3_N*%
X130475000Y-88860000D03*
%TD*%
D37*
%TO.P,R7,1,~_1*%
%TO.N,/DETECT*%
X152000000Y-100760000D03*
%TO.P,R7,2,~_2*%
%TO.N,/DETECT_SENSE*%
X152000000Y-99740000D03*
%TD*%
D17*
%TO.P,CF5,1,~_1*%
%TO.N,/IN5_P*%
X139500000Y-91175000D03*
%TO.P,CF5,2,~_2*%
%TO.N,/IN5_N*%
X139500000Y-92725000D03*
%TD*%
D19*
%TO.P,J4,1,+12V_1*%
%TO.N,/SENSEP6_LO*%
X139839598Y-131830001D03*
%TO.P,J4,2,+12V_2*%
%TO.N,/SENSEP5_LO*%
X136839599Y-131830001D03*
%TO.P,J4,3,+12V_3*%
%TO.N,/SENSEP4_LO*%
X133839599Y-131830001D03*
%TO.P,J4,4,+12V_4*%
%TO.N,/SENSEP3_LO*%
X130839600Y-131830001D03*
%TO.P,J4,5,+12V_5*%
%TO.N,/SENSEP2_LO*%
X127839601Y-131830001D03*
%TO.P,J4,6,+12V_6*%
%TO.N,/SENSEP1_LO*%
X124839602Y-131830001D03*
%TO.P,J4,7,GND_7*%
%TO.N,GND*%
X139839598Y-128829999D03*
%TO.P,J4,8,GND_8*%
X136839599Y-128829999D03*
%TO.P,J4,9,GND_9*%
X133839599Y-128829999D03*
%TO.P,J4,10,GND_10*%
X130839600Y-128829999D03*
%TO.P,J4,11,GND_11*%
X127839601Y-128829999D03*
%TO.P,J4,12,GND_12*%
X124839602Y-128829999D03*
D20*
%TO.P,J4,13,SENSE_13*%
%TO.N,/SB_SENSE0*%
X135339599Y-133500000D03*
%TO.P,J4,14,SENSE_14*%
%TO.N,/SB_SENSE1*%
X133339600Y-133500000D03*
%TO.P,J4,15,SENSE_15*%
%TO.N,/SB_PWR_STABLE*%
X131339599Y-133500000D03*
%TO.P,J4,16,SENSE_16*%
%TO.N,/SB_CBL_PRES*%
X129339601Y-133500000D03*
%TD*%
D48*
%TO.P,D2,1,K_1*%
%TO.N,+5VSB*%
X155000000Y-66750000D03*
%TO.P,D2,2,A_2*%
%TO.N,/VBUS*%
X159000000Y-66750000D03*
%TD*%
D34*
%TO.P,R1,1,~_1*%
%TO.N,/DETECT*%
X151260000Y-101750000D03*
%TO.P,R1,2,~_2*%
%TO.N,GND*%
X150240000Y-101750000D03*
%TD*%
D33*
%TO.P,U11,1,-_1*%
%TO.N,/IN2_N*%
X120970000Y-99825000D03*
%TO.P,U11,2,GND_2*%
%TO.N,GND*%
X122240000Y-99825000D03*
%TO.P,U11,3,REF2_3*%
X123510000Y-99825000D03*
%TO.P,U11,4,GND_4*%
X124780000Y-99825000D03*
%TO.P,U11,5,~_5*%
%TO.N,/ISENSEP2*%
X124780000Y-94875000D03*
%TO.P,U11,6,V+_6*%
%TO.N,+3V3*%
X123510000Y-94875000D03*
%TO.P,U11,7,REF1_7*%
%TO.N,GND*%
X122240000Y-94875000D03*
%TO.P,U11,8,+_8*%
%TO.N,/IN2_P*%
X120970000Y-94875000D03*
%TD*%
D15*
%TO.P,C15,1,~_1*%
%TO.N,+3V3*%
X147500000Y-92980000D03*
%TO.P,C15,2,~_2*%
%TO.N,GND*%
X147500000Y-92020000D03*
%TD*%
D37*
%TO.P,R6,1,~_1*%
%TO.N,/VRAIL_DIV*%
X151500000Y-92760000D03*
%TO.P,R6,2,~_2*%
%TO.N,GND*%
X151500000Y-91740000D03*
%TD*%
D15*
%TO.P,C10,1,~_1*%
%TO.N,+3V3*%
X117500000Y-92980000D03*
%TO.P,C10,2,~_2*%
%TO.N,GND*%
X117500000Y-92020000D03*
%TD*%
D17*
%TO.P,CF3,1,~_1*%
%TO.N,/IN3_P*%
X127500000Y-91225000D03*
%TO.P,CF3,2,~_2*%
%TO.N,/IN3_N*%
X127500000Y-92775000D03*
%TD*%
D49*
%TO.N,/SENSEP4_HI*%
X135122400Y-66250000D03*
X134875000Y-76500000D03*
X135575000Y-76500000D03*
X134175000Y-76500000D03*
X134600000Y-76000000D03*
X135122400Y-67000000D03*
X135300000Y-76000000D03*
X135122400Y-65500000D03*
X135122400Y-64131999D03*
X136000000Y-76000000D03*
%TO.N,/SENSEP4_LO*%
X135301599Y-128750000D03*
X135301599Y-130368001D03*
X135575000Y-84200000D03*
X136000000Y-84750000D03*
X134875000Y-84200000D03*
X134175000Y-84200000D03*
X135500000Y-127000000D03*
X135300000Y-84750000D03*
X134600000Y-84750000D03*
X135301599Y-127750000D03*
%TO.N,/SENSEP5_HI*%
X138122399Y-66250000D03*
X142000000Y-76000000D03*
X138122399Y-65500000D03*
X138122399Y-64131999D03*
X141300000Y-76000000D03*
X140875000Y-76500000D03*
X140600000Y-76000000D03*
X138122399Y-67000000D03*
X141575000Y-76500000D03*
X140175000Y-76500000D03*
%TO.N,+5VSB*%
X152500000Y-67250000D03*
X156500000Y-107500000D03*
D50*
X157789948Y-108700002D03*
D49*
%TO.N,GND*%
X115750000Y-119750000D03*
X114000000Y-65750000D03*
X147750000Y-126750000D03*
X161750000Y-119250000D03*
X153500000Y-131250000D03*
X165250000Y-116000000D03*
X140000000Y-137250000D03*
X158750000Y-61750000D03*
X132750000Y-71250000D03*
D51*
X162750000Y-85250000D03*
D49*
X118000000Y-106250000D03*
X126000000Y-61750000D03*
X131250000Y-68500000D03*
X121250000Y-137250000D03*
X169500000Y-135000000D03*
X116500000Y-67000000D03*
X127000000Y-136250000D03*
X148000000Y-59750000D03*
X133500000Y-64250000D03*
X142750000Y-63000000D03*
X161750000Y-76750000D03*
X114000000Y-131250000D03*
X145000000Y-136750000D03*
X149500000Y-116500000D03*
X154000000Y-104750000D03*
X169750000Y-66000000D03*
X169750000Y-124250000D03*
X163000000Y-116000000D03*
D51*
X164250000Y-82250000D03*
D49*
X157750000Y-136500000D03*
X131750000Y-136250000D03*
D51*
X168000000Y-82000000D03*
D49*
X154000000Y-61750000D03*
X147250000Y-63750000D03*
X118750000Y-109250000D03*
X145250000Y-124000000D03*
X162750000Y-88000000D03*
X160250000Y-96000000D03*
X155500000Y-59750000D03*
X163500000Y-59750000D03*
X162750000Y-94250000D03*
X164000000Y-68500000D03*
X158000000Y-91000000D03*
X131250000Y-114500000D03*
X114000000Y-69750000D03*
X126500000Y-137250000D03*
X169500000Y-83000000D03*
X114000000Y-117750000D03*
X150500000Y-64250000D03*
X120750000Y-127500000D03*
X124500000Y-137250000D03*
X116250000Y-128000000D03*
X137750000Y-137250000D03*
X127750000Y-64500000D03*
X136250000Y-137250000D03*
X151250000Y-127000000D03*
X146750000Y-68500000D03*
X163750000Y-92750000D03*
X159500000Y-101500000D03*
X136000000Y-136250000D03*
X114000000Y-111250000D03*
X144250000Y-59750000D03*
X136500000Y-64250000D03*
X119500000Y-70750000D03*
X159849999Y-87132233D03*
X131250000Y-108250000D03*
X120250000Y-130750000D03*
X152000000Y-84500000D03*
X143000000Y-70750000D03*
X144250000Y-71750000D03*
X155500000Y-69750000D03*
D51*
X165600000Y-86000000D03*
D49*
X169851018Y-106564715D03*
D51*
X169500000Y-97500000D03*
D49*
X131250000Y-111500000D03*
X131250000Y-122000000D03*
X133500000Y-111500000D03*
X133500000Y-97500000D03*
X155250000Y-137250000D03*
X133500000Y-114500000D03*
X147000000Y-137250000D03*
X151250000Y-59750000D03*
X137750000Y-134250000D03*
X143500000Y-60000000D03*
X165750000Y-107750000D03*
X139750000Y-64500000D03*
X169750000Y-120250000D03*
X157000000Y-60500000D03*
X129250000Y-137250000D03*
X134000000Y-136250000D03*
X149750000Y-62000000D03*
X137750000Y-136250000D03*
X156000000Y-101500000D03*
X121450000Y-97750000D03*
X133500000Y-122000000D03*
X159750000Y-59750000D03*
X133500000Y-125000000D03*
X122000000Y-133750000D03*
X151000000Y-137250000D03*
D51*
X152425000Y-97443807D03*
D49*
X136000000Y-134750000D03*
X151250000Y-121250000D03*
X169500000Y-96000000D03*
X114000000Y-89750000D03*
X166250000Y-123750000D03*
X142750000Y-65500000D03*
X159750000Y-112000000D03*
X169250000Y-100000000D03*
X147250000Y-109500000D03*
X114000000Y-73750000D03*
X148480000Y-92020000D03*
X124750000Y-64250000D03*
X139750000Y-134250000D03*
X114000000Y-121750000D03*
X154250000Y-137250000D03*
X146250000Y-62000000D03*
X118500000Y-92000000D03*
X143500000Y-137250000D03*
X169750000Y-114750000D03*
X169000000Y-136750000D03*
D51*
X117750000Y-98000000D03*
D49*
X119750000Y-118750000D03*
X155300000Y-103950000D03*
X143500000Y-90000000D03*
X120000000Y-125500000D03*
X169500000Y-94250000D03*
X124250000Y-134500000D03*
X163750000Y-90750000D03*
X161000000Y-108500000D03*
X154000000Y-134250000D03*
X124250000Y-136250000D03*
X141000000Y-61000000D03*
X169500000Y-99000000D03*
X127000000Y-134500000D03*
X169750000Y-131250000D03*
X114000000Y-137250000D03*
X164250000Y-136250000D03*
X160250000Y-70500000D03*
X166750000Y-137250000D03*
X131500000Y-90750000D03*
X153000000Y-114250000D03*
X145500000Y-66000000D03*
X169500000Y-92000000D03*
D51*
X153000000Y-108500000D03*
D49*
X131250000Y-125000000D03*
X131250000Y-64250000D03*
X114000000Y-108500000D03*
X117500000Y-69000000D03*
X160125000Y-73875000D03*
X165750000Y-127750000D03*
X169500000Y-78500000D03*
X151750000Y-91000000D03*
X131750000Y-134750000D03*
X133500000Y-108250000D03*
X114000000Y-128250000D03*
X129500000Y-134750000D03*
X119500000Y-68250000D03*
X155750000Y-116750000D03*
X114000000Y-125000000D03*
X114000000Y-102750000D03*
D51*
X163000000Y-82250000D03*
D49*
X131250000Y-119000000D03*
X163750000Y-76250000D03*
X117500000Y-121750000D03*
X144000000Y-108500000D03*
X146240000Y-97500000D03*
X163500000Y-132000000D03*
X134250000Y-137250000D03*
X169750000Y-80750000D03*
X145250000Y-120750000D03*
X133000000Y-68750000D03*
X134000000Y-134750000D03*
X160750000Y-88000000D03*
X133500000Y-118250000D03*
X163250000Y-100500000D03*
X169750000Y-108250000D03*
X115500000Y-70750000D03*
X144250000Y-113000000D03*
X146000000Y-129000000D03*
X163500000Y-80000000D03*
X114000000Y-88250000D03*
X114000000Y-105250000D03*
X121250000Y-59500000D03*
X161000000Y-81500000D03*
X140000000Y-136250000D03*
X145000000Y-134250000D03*
X131500000Y-67000000D03*
X149750000Y-67000000D03*
X121000000Y-121000000D03*
X159000000Y-137250000D03*
X159250000Y-69500000D03*
X167750000Y-116250000D03*
X149400000Y-103750000D03*
X169500000Y-90250000D03*
X162000000Y-63250000D03*
X119500000Y-66500000D03*
X115750000Y-111750000D03*
X117250000Y-72000000D03*
X162000000Y-137250000D03*
X158750000Y-72250000D03*
X169750000Y-128500000D03*
X117000000Y-108000000D03*
X160750000Y-93750000D03*
X147500000Y-122750000D03*
X114000000Y-114750000D03*
X129500000Y-136250000D03*
X159000000Y-93750000D03*
X149250000Y-131500000D03*
X148750000Y-135500000D03*
D50*
%TO.N,+3V3*%
X160750000Y-113250000D03*
D49*
X165750000Y-87750000D03*
X143500000Y-98500000D03*
X131250000Y-102375000D03*
D50*
X153000000Y-106250000D03*
X119500000Y-101750000D03*
D49*
X143750000Y-103875000D03*
D50*
X115000000Y-124500000D03*
D49*
X169500000Y-88250000D03*
X157845000Y-113655000D03*
D50*
X164750000Y-96250000D03*
D49*
X146500000Y-105723150D03*
D50*
X150525000Y-82750000D03*
D49*
X166750000Y-89000000D03*
D50*
X121250000Y-101750000D03*
X162101041Y-111898959D03*
X132000000Y-75750000D03*
D49*
X143300000Y-101875000D03*
X149250000Y-96375000D03*
X131050000Y-97250000D03*
X163250000Y-86750000D03*
X158500000Y-101750000D03*
%TO.N,/SENSEP2_HI*%
X126122402Y-67000000D03*
X126122402Y-66250000D03*
X123575000Y-76500000D03*
X123250000Y-76000000D03*
X121850000Y-76000000D03*
X122875000Y-76500000D03*
X126122402Y-65500000D03*
X122550000Y-76000000D03*
X126122402Y-64207998D03*
X122175000Y-76500000D03*
%TO.N,/TEMP1*%
X157900861Y-96250611D03*
X132000000Y-70500000D03*
%TO.N,/EN*%
X168250000Y-107500000D03*
X166750000Y-85500000D03*
%TO.N,/GPIO0*%
X163875000Y-87500000D03*
X166750000Y-100000000D03*
%TO.N,/SENSEP1_HI*%
X116875000Y-76500000D03*
X117250000Y-76000000D03*
X123000000Y-66250000D03*
X115850000Y-76000000D03*
X123000000Y-64330401D03*
X123000000Y-67000000D03*
X116550000Y-76000000D03*
X116175000Y-76500000D03*
X123000000Y-65500000D03*
X117575000Y-76500000D03*
%TO.N,/SENSEP3_HI*%
X128175000Y-76500000D03*
X129250000Y-76000000D03*
X129198401Y-66250000D03*
X129198401Y-67198401D03*
X129198401Y-65500000D03*
X127850000Y-76000000D03*
X129198401Y-64131999D03*
X129575000Y-76500000D03*
X128550000Y-76000000D03*
X128875000Y-76500000D03*
%TO.N,/SENSEP6_HI*%
X147575000Y-76500000D03*
X146875000Y-76500000D03*
X141500000Y-65500000D03*
X147300000Y-76000000D03*
X148000000Y-76000000D03*
X141245200Y-64254800D03*
X146600000Y-76000000D03*
X146175000Y-76500000D03*
X141500000Y-67000000D03*
X141500000Y-66250000D03*
%TO.N,/SB_SENSE0*%
X146500000Y-74000000D03*
%TO.N,/SB_SENSE1*%
X163250000Y-77250000D03*
X147500000Y-74500000D03*
X155000000Y-77000000D03*
%TO.N,/SB_PWR_STABLE*%
X132250000Y-60250000D03*
X148500000Y-74750000D03*
X116000000Y-123000000D03*
X115500000Y-104000000D03*
X113750000Y-72250000D03*
%TO.N,/SB_CBL_PRES*%
X114000000Y-101500000D03*
X118250000Y-125000000D03*
X118500000Y-68250000D03*
X118750000Y-104250000D03*
X115500000Y-126000000D03*
X117500000Y-66750000D03*
X113747017Y-90508949D03*
X149250000Y-79750000D03*
%TO.N,/VREF*%
X152600000Y-103250000D03*
X159250000Y-97000000D03*
%TO.N,/ISENSEP1*%
X147750000Y-103875000D03*
X155000000Y-88250000D03*
%TO.N,/ISENSEP2*%
X149250000Y-102250000D03*
X155000000Y-89500000D03*
%TO.N,/ISENSEP3*%
X152625000Y-91000000D03*
X148500000Y-93000000D03*
X148375000Y-102224733D03*
X150286598Y-96060997D03*
%TO.N,/ISENSEP4*%
X154750000Y-91000000D03*
X150000000Y-98000000D03*
%TO.N,/ISENSEP5*%
X152500000Y-92500000D03*
X144125000Y-96750000D03*
X147230000Y-97000000D03*
X150500000Y-97000000D03*
%TO.N,/ISENSEP6*%
X149875000Y-95375000D03*
X154750000Y-92500000D03*
%TO.N,/SB_SENSE1_GPIO*%
X152750000Y-74350000D03*
X155812546Y-95844028D03*
%TO.N,/SB_PWR_STABLE_GPIO*%
X155000000Y-96042558D03*
X152500000Y-77350000D03*
%TO.N,/SB_CBL_PRES_GPIO*%
X157752552Y-94752552D03*
X155027129Y-96863959D03*
X152250000Y-80350000D03*
X156750000Y-88750000D03*
%TO.N,/SB_SENSE0_GPIO*%
X159000000Y-95000000D03*
X152267500Y-72232500D03*
%TO.N,/USB_DM*%
X164500000Y-85000000D03*
X165250000Y-82500000D03*
%TO.N,/USB_DP*%
X166250000Y-82500000D03*
X165750000Y-85000000D03*
%TO.N,/SENSEP6_LO*%
X146175000Y-84200000D03*
X141500000Y-128750000D03*
X145850000Y-84750000D03*
X146550000Y-84750000D03*
X141459799Y-130209799D03*
X141500000Y-127000000D03*
X141500000Y-127750000D03*
X147250000Y-84750000D03*
X146875000Y-84200000D03*
X147575000Y-84200000D03*
%TO.N,/SENSEP1_LO*%
X116175000Y-84200000D03*
X123250000Y-128750000D03*
X117575000Y-84200000D03*
X123250000Y-127750000D03*
X117300000Y-84750000D03*
X118000000Y-84750000D03*
X123250000Y-127000000D03*
X123250000Y-130240399D03*
X116600000Y-84750000D03*
X116875000Y-84200000D03*
%TO.N,/SENSEP5_LO*%
X140175000Y-84200000D03*
X141575000Y-84200000D03*
X140875000Y-84200000D03*
X138301599Y-130368001D03*
X138500000Y-127000000D03*
X140550000Y-84750000D03*
X138301599Y-127750000D03*
X138301599Y-128750000D03*
X141250000Y-84750000D03*
X139850000Y-84750000D03*
%TO.N,/DETECT*%
X154550000Y-119750000D03*
X152000000Y-101750000D03*
%TO.N,/VBUS*%
X163000000Y-74500000D03*
X163250000Y-69250000D03*
%TO.N,/SENSEP2_LO*%
X126377601Y-128750000D03*
X126377601Y-127750000D03*
X126250000Y-127000000D03*
X123575000Y-84200000D03*
X122600000Y-84750000D03*
X126377601Y-130368001D03*
X122875000Y-84200000D03*
X122175000Y-84200000D03*
X124000000Y-84750000D03*
X123300000Y-84750000D03*
%TO.N,/SENSEP3_LO*%
X129300000Y-84750000D03*
X128175000Y-84200000D03*
X129575000Y-84200000D03*
X129377600Y-128750000D03*
X129250000Y-127000000D03*
X128600000Y-84750000D03*
X129377600Y-127750000D03*
X129377600Y-130250000D03*
X130000000Y-84750000D03*
X128875000Y-84200000D03*
%TD*%
%TO.N,/SENSEP4_HI*%
D52*
X134500000Y-80000000D02*
X133000000Y-80000000D01*
D53*
X135122400Y-65500000D02*
X135122400Y-64131999D01*
D54*
X134175000Y-76500000D02*
X135000000Y-75675000D01*
D53*
X135122400Y-65500000D02*
X135122400Y-66250000D01*
X133660400Y-62669999D02*
X135122400Y-64131999D01*
D52*
X134875000Y-79625000D02*
X134500000Y-80000000D01*
X132500000Y-87065000D02*
X133275000Y-87840000D01*
X134875000Y-77387500D02*
X134875000Y-79625000D01*
D54*
X135575000Y-76500000D02*
X134175000Y-76500000D01*
D53*
X135122400Y-66250000D02*
X135122400Y-67000000D01*
D52*
X132500000Y-80500000D02*
X132500000Y-87065000D01*
D54*
X135000000Y-75675000D02*
X135000000Y-67529353D01*
D52*
X133000000Y-80000000D02*
X132500000Y-80500000D01*
D54*
X135000000Y-67529353D02*
X135160400Y-67368953D01*
%TO.N,/SENSEP4_LO*%
D52*
X134875000Y-81375000D02*
X135000000Y-81250000D01*
D54*
X135575000Y-84200000D02*
X134175000Y-84200000D01*
D52*
X134875000Y-83312500D02*
X134875000Y-81375000D01*
D53*
X135301599Y-128750000D02*
X135301599Y-127750000D01*
X135301599Y-130368001D02*
X135301599Y-128750000D01*
D52*
X136475000Y-87775000D02*
X136475000Y-87840000D01*
X136500000Y-81250000D02*
X137750000Y-82500000D01*
D53*
X135301599Y-127198401D02*
X135500000Y-127000000D01*
X133839599Y-131830001D02*
X135301599Y-130368001D01*
D52*
X135000000Y-81250000D02*
X136500000Y-81250000D01*
X137750000Y-86500000D02*
X136475000Y-87775000D01*
X137750000Y-82500000D02*
X137750000Y-86500000D01*
D53*
X135301599Y-127750000D02*
X135301599Y-127198401D01*
%TO.N,/SENSEP5_HI*%
X138122399Y-67000000D02*
X138122399Y-67377601D01*
X138122399Y-67000000D02*
X138122399Y-66250000D01*
D52*
X138375000Y-86940000D02*
X139150000Y-87715000D01*
D54*
X138187500Y-74512500D02*
X138187500Y-67687500D01*
D52*
X138375000Y-80375000D02*
X138375000Y-86940000D01*
D54*
X138187500Y-67687500D02*
X138000000Y-67500000D01*
X138187500Y-74512500D02*
X140175000Y-76500000D01*
D52*
X138875000Y-79875000D02*
X138375000Y-80375000D01*
D53*
X138122399Y-66250000D02*
X138122399Y-64131999D01*
D52*
X140750000Y-77262500D02*
X140750000Y-79500000D01*
D54*
X140175000Y-76500000D02*
X141575000Y-76500000D01*
D52*
X140750000Y-79500000D02*
X140375000Y-79875000D01*
D53*
X138122399Y-67377601D02*
X138000000Y-67500000D01*
X138122399Y-64131999D02*
X136660399Y-62669999D01*
D52*
X140375000Y-79875000D02*
X138875000Y-79875000D01*
%TO.N,/IN5_P*%
X138970000Y-94875000D02*
X138970000Y-93454052D01*
X139275000Y-91423603D02*
X139275000Y-88860000D01*
X138700000Y-92265948D02*
X138970000Y-91995948D01*
X139500000Y-89085000D02*
X139275000Y-88860000D01*
X138970000Y-91995948D02*
X138970000Y-91728603D01*
X138970000Y-91728603D02*
X139275000Y-91423603D01*
X138970000Y-93454052D02*
X138700000Y-93184052D01*
X138700000Y-93184052D02*
X138700000Y-92265948D01*
%TO.N,+5VSB*%
D55*
X156500000Y-107500000D02*
X156500000Y-104900000D01*
X156500000Y-103000000D02*
X154975000Y-103000000D01*
X159650000Y-130282500D02*
X158682500Y-131250000D01*
X156950000Y-131250000D02*
X154450000Y-128750000D01*
X157612500Y-106387500D02*
X157612500Y-103450001D01*
X157162499Y-103000000D02*
X156500000Y-103000000D01*
X152500000Y-67250000D02*
X152500000Y-67000000D01*
X152500000Y-67000000D02*
X152750000Y-66750000D01*
X158682500Y-131250000D02*
X156950000Y-131250000D01*
X159115000Y-108655000D02*
X159270000Y-108500000D01*
X159270000Y-108500000D02*
X157989950Y-108500000D01*
X157989950Y-108500000D02*
X157789948Y-108700002D01*
X159115000Y-110275000D02*
X159115000Y-108655000D01*
X152750000Y-66750000D02*
X155000000Y-66750000D01*
X154975000Y-103000000D02*
X154750000Y-102775000D01*
X154750000Y-128450000D02*
X154450000Y-128750000D01*
X156500000Y-107500000D02*
X157612500Y-106387500D01*
X157612500Y-103450001D02*
X157162499Y-103000000D01*
%TO.N,GND*%
X160875000Y-88125000D02*
X160750000Y-88000000D01*
D52*
X131500000Y-90750000D02*
X130750000Y-91500000D01*
D55*
X152425000Y-97443807D02*
X152425000Y-96422182D01*
D52*
X134240000Y-94875000D02*
X134240000Y-97500000D01*
D55*
X148500000Y-105750000D02*
X148500000Y-104650000D01*
D52*
X162575000Y-82675000D02*
X163000000Y-82250000D01*
X129488510Y-92020000D02*
X129500000Y-92020000D01*
X140240000Y-94875000D02*
X140240000Y-99825000D01*
D55*
X159849999Y-87900001D02*
X159225000Y-88525000D01*
X156250000Y-101250000D02*
X156000000Y-101500000D01*
D52*
X160025000Y-83900000D02*
X160875000Y-83900000D01*
D55*
X162250000Y-64800000D02*
X162250000Y-63500000D01*
D52*
X155775000Y-83900000D02*
X156625000Y-83900000D01*
D55*
X151730000Y-84770000D02*
X152000000Y-84500000D01*
D52*
X129000000Y-93734092D02*
X129000000Y-93451490D01*
X169250000Y-100000000D02*
X169350000Y-100100000D01*
X166250000Y-86650000D02*
X165600000Y-86000000D01*
X122240000Y-94875000D02*
X122240000Y-97250000D01*
D55*
X154750000Y-101225000D02*
X155725000Y-101225000D01*
X160875000Y-92550000D02*
X160875000Y-93625000D01*
D52*
X161725000Y-83900000D02*
X161725000Y-83525000D01*
D55*
X152550000Y-128750000D02*
X152550000Y-128300000D01*
X169570000Y-108250000D02*
X168500000Y-109320000D01*
X169500000Y-84020000D02*
X169500000Y-83000000D01*
D52*
X135500000Y-92020000D02*
X135488510Y-92020000D01*
D55*
X162525000Y-88225000D02*
X162750000Y-88000000D01*
X159225000Y-92550000D02*
X159225000Y-93525000D01*
D52*
X164250000Y-82383884D02*
X164250000Y-82250000D01*
X155300000Y-103950000D02*
X156500000Y-103950000D01*
D55*
X161655000Y-115225000D02*
X162430000Y-116000000D01*
D52*
X128885000Y-93849092D02*
X129000000Y-93734092D01*
D55*
X164755000Y-69000000D02*
X164500000Y-69000000D01*
D52*
X118480000Y-92020000D02*
X118500000Y-92000000D01*
D55*
X169750000Y-108250000D02*
X169570000Y-108250000D01*
X160230000Y-108500000D02*
X161000000Y-108500000D01*
X160875000Y-93625000D02*
X160750000Y-93750000D01*
X116740000Y-94375000D02*
X116240000Y-94875000D01*
X160385000Y-110275000D02*
X160385000Y-111365000D01*
D52*
X134240000Y-93268510D02*
X134240000Y-94875000D01*
D55*
X160875000Y-90900000D02*
X160875000Y-89250000D01*
D52*
X160125000Y-73875000D02*
X160250000Y-73750000D01*
X166825000Y-83900000D02*
X166825000Y-83175000D01*
X134240000Y-99825000D02*
X135510000Y-99825000D01*
D55*
X162250000Y-63500000D02*
X162000000Y-63250000D01*
X117250000Y-122490000D02*
X117250000Y-122000000D01*
D52*
X129000000Y-93451490D02*
X128865000Y-93316490D01*
D55*
X158100000Y-90900000D02*
X158000000Y-91000000D01*
X152980000Y-104750000D02*
X154000000Y-104750000D01*
D52*
X156625000Y-83900000D02*
X157475000Y-83900000D01*
X128240000Y-94875000D02*
X128885000Y-94230000D01*
D55*
X122240000Y-92970001D02*
X122240000Y-94875000D01*
D52*
X121450000Y-97750000D02*
X121450000Y-97300000D01*
X167100000Y-87500000D02*
X165600000Y-86000000D01*
D55*
X123190001Y-92020000D02*
X122240000Y-92970001D01*
D52*
X116240000Y-99825000D02*
X117510000Y-99825000D01*
X141500000Y-92000000D02*
X143500000Y-90000000D01*
X140240000Y-99825000D02*
X141510000Y-99825000D01*
D55*
X162525000Y-90900000D02*
X163600000Y-90900000D01*
D52*
X141500000Y-92020000D02*
X141500000Y-92000000D01*
D55*
X148500000Y-104650000D02*
X149400000Y-103750000D01*
D52*
X129510000Y-99825000D02*
X130780000Y-99825000D01*
D55*
X164555000Y-75500000D02*
X164500000Y-75500000D01*
D52*
X128240000Y-99825000D02*
X129510000Y-99825000D01*
X160875000Y-83900000D02*
X161725000Y-83900000D01*
D55*
X152250000Y-107730000D02*
X152250000Y-107750000D01*
D52*
X134240000Y-97500000D02*
X134240000Y-99825000D01*
X167875000Y-86650000D02*
X166250000Y-86650000D01*
X153875000Y-83900000D02*
X153875000Y-85800000D01*
D55*
X163600000Y-90900000D02*
X163750000Y-90750000D01*
X156000000Y-117000000D02*
X155750000Y-116750000D01*
X162525000Y-89250000D02*
X162525000Y-88225000D01*
D52*
X164275000Y-83900000D02*
X164275000Y-82275000D01*
X163425000Y-82675000D02*
X163000000Y-82250000D01*
X152450000Y-84950000D02*
X152000000Y-84500000D01*
X169350000Y-100100000D02*
X169350000Y-100875000D01*
D55*
X117510000Y-99825000D02*
X117510000Y-98240000D01*
D52*
X164275000Y-82275000D02*
X164250000Y-82250000D01*
X117510000Y-99825000D02*
X118780000Y-99825000D01*
D55*
X151500000Y-91250000D02*
X151500000Y-91740000D01*
X117190001Y-92020000D02*
X116740000Y-92470001D01*
D52*
X128240000Y-94875000D02*
X128240000Y-99825000D01*
D55*
X156520000Y-117000000D02*
X156000000Y-117000000D01*
X152550000Y-128300000D02*
X151250000Y-127000000D01*
X132750000Y-72240000D02*
X132750000Y-71250000D01*
D52*
X146240000Y-94875000D02*
X146240000Y-97500000D01*
X158325000Y-83900000D02*
X161400000Y-83900000D01*
X160500000Y-70750000D02*
X160250000Y-70500000D01*
X167875000Y-97900000D02*
X169100000Y-97900000D01*
D55*
X156270000Y-100500000D02*
X156250000Y-100480000D01*
D52*
X130750000Y-91500000D02*
X129750000Y-91500000D01*
X163425000Y-83900000D02*
X163425000Y-82675000D01*
X146240000Y-99825000D02*
X147510000Y-99825000D01*
X135488510Y-92020000D02*
X134240000Y-93268510D01*
D55*
X164755000Y-69000000D02*
X164755000Y-69200000D01*
X159775000Y-101225000D02*
X159500000Y-101500000D01*
D52*
X121500000Y-97250000D02*
X122240000Y-97250000D01*
X140240000Y-93268510D02*
X141488510Y-92020000D01*
X164250000Y-83025000D02*
X164250000Y-82250000D01*
X169100000Y-97900000D02*
X169500000Y-97500000D01*
X161350000Y-83900000D02*
X163000000Y-82250000D01*
D55*
X159849999Y-87132233D02*
X159849999Y-87900001D01*
X164500000Y-69000000D02*
X164000000Y-68500000D01*
D52*
X140240000Y-94875000D02*
X140240000Y-93268510D01*
D55*
X159225000Y-90900000D02*
X158100000Y-90900000D01*
D52*
X167875000Y-82125000D02*
X168000000Y-82000000D01*
X161725000Y-83525000D02*
X163000000Y-82250000D01*
D55*
X164500000Y-75500000D02*
X163750000Y-76250000D01*
D52*
X152450000Y-121250000D02*
X151250000Y-121250000D01*
D55*
X152425000Y-96422182D02*
X152250000Y-96247182D01*
D52*
X135510000Y-99825000D02*
X136780000Y-99825000D01*
X165766116Y-83900000D02*
X164250000Y-82383884D01*
D55*
X117250000Y-122000000D02*
X117500000Y-121750000D01*
X150250000Y-103500000D02*
X150250000Y-101760000D01*
X149400000Y-103750000D02*
X150000000Y-103750000D01*
D52*
X129500000Y-91750000D02*
X129500000Y-92020000D01*
X123510000Y-99825000D02*
X124780000Y-99825000D01*
X161400000Y-83900000D02*
X162750000Y-85250000D01*
D55*
X151750000Y-91000000D02*
X151750000Y-88950000D01*
D52*
X165975000Y-83900000D02*
X165766116Y-83900000D01*
X129750000Y-91500000D02*
X129500000Y-91750000D01*
D55*
X164755000Y-75700000D02*
X164555000Y-75500000D01*
D52*
X162575000Y-83900000D02*
X162575000Y-82675000D01*
X166825000Y-83175000D02*
X168000000Y-82000000D01*
X121450000Y-97300000D02*
X121500000Y-97250000D01*
X148480000Y-92020000D02*
X148500000Y-92000000D01*
D55*
X151250000Y-84770000D02*
X151730000Y-84770000D01*
X152250000Y-107750000D02*
X153000000Y-108500000D01*
D52*
X160990000Y-70750000D02*
X160500000Y-70750000D01*
X133500000Y-97500000D02*
X134240000Y-97500000D01*
D55*
X160875000Y-89250000D02*
X160875000Y-88125000D01*
D52*
X147510000Y-99825000D02*
X148780000Y-99825000D01*
X122240000Y-99825000D02*
X123510000Y-99825000D01*
D55*
X151750000Y-91000000D02*
X151500000Y-91250000D01*
D52*
X160250000Y-73750000D02*
X160990000Y-73750000D01*
D55*
X163550000Y-92550000D02*
X163750000Y-92750000D01*
D52*
X117500000Y-92020000D02*
X118480000Y-92020000D01*
X141510000Y-99825000D02*
X142780000Y-99825000D01*
X153875000Y-97900000D02*
X153875000Y-100350000D01*
D55*
X123500000Y-92020000D02*
X123190001Y-92020000D01*
X156250000Y-100480000D02*
X156250000Y-101250000D01*
D52*
X153875000Y-84950000D02*
X152450000Y-84950000D01*
D55*
X150250000Y-101760000D02*
X150240000Y-101750000D01*
X162525000Y-92550000D02*
X163550000Y-92550000D01*
X117500000Y-92020000D02*
X117190001Y-92020000D01*
D52*
X153875000Y-100350000D02*
X154750000Y-101225000D01*
X153875000Y-83900000D02*
X154925000Y-83900000D01*
D55*
X157250000Y-100500000D02*
X156270000Y-100500000D01*
D52*
X146240000Y-97500000D02*
X146240000Y-99825000D01*
D55*
X150000000Y-103750000D02*
X150250000Y-103500000D01*
D52*
X165125000Y-83900000D02*
X164250000Y-83025000D01*
D55*
X116740000Y-92470001D02*
X116740000Y-94375000D01*
X160385000Y-111365000D02*
X159750000Y-112000000D01*
D52*
X128885000Y-94230000D02*
X128885000Y-93849092D01*
X128865000Y-92643510D02*
X129488510Y-92020000D01*
X147500000Y-92020000D02*
X148480000Y-92020000D01*
X159175000Y-83900000D02*
X161350000Y-83900000D01*
X167875000Y-83900000D02*
X167875000Y-82125000D01*
D55*
X152250000Y-96247182D02*
X152250000Y-94980000D01*
D52*
X122240000Y-97250000D02*
X122240000Y-99825000D01*
D55*
X162430000Y-116000000D02*
X163000000Y-116000000D01*
X155725000Y-101225000D02*
X156000000Y-101500000D01*
D52*
X157475000Y-83900000D02*
X161400000Y-83900000D01*
X128865000Y-93316490D02*
X128865000Y-92643510D01*
D55*
X160500000Y-101225000D02*
X159775000Y-101225000D01*
X159225000Y-88525000D02*
X159225000Y-89250000D01*
X164755000Y-75700000D02*
X164755000Y-75500000D01*
D52*
X167875000Y-87500000D02*
X167100000Y-87500000D01*
X141488510Y-92020000D02*
X141500000Y-92020000D01*
D55*
X117510000Y-98240000D02*
X117750000Y-98000000D01*
X159225000Y-93525000D02*
X159000000Y-93750000D01*
%TO.N,+3V3*%
D52*
X129510000Y-94875000D02*
X129510000Y-92990000D01*
D55*
X158775000Y-103000000D02*
X158775000Y-102025000D01*
D52*
X117510000Y-94875000D02*
X117510000Y-92990000D01*
X150500000Y-82775000D02*
X150500000Y-85500000D01*
X117510000Y-94875000D02*
X117510000Y-95849999D01*
D55*
X152250000Y-86650000D02*
X151350000Y-86650000D01*
D52*
X121250000Y-101750000D02*
X125500000Y-101750000D01*
X143625000Y-103750000D02*
X143750000Y-103875000D01*
X129510000Y-95710000D02*
X129510000Y-94875000D01*
X135510000Y-94875000D02*
X135510000Y-92990000D01*
X131570000Y-74500000D02*
X131570000Y-75320000D01*
D55*
X153000000Y-86650000D02*
X152250000Y-86650000D01*
X146500000Y-105723150D02*
X147476851Y-106700001D01*
D52*
X166750000Y-94250000D02*
X166750000Y-89000000D01*
X148804092Y-96550000D02*
X149183884Y-96550000D01*
D55*
X169500000Y-87010000D02*
X169500000Y-88250000D01*
X162101041Y-111898959D02*
X160750000Y-113250000D01*
X147476851Y-106700001D02*
X150398650Y-106700001D01*
D52*
X141510000Y-94875000D02*
X141510000Y-92990000D01*
X123510000Y-95760000D02*
X125405000Y-97655000D01*
X131250000Y-102375000D02*
X132625000Y-103750000D01*
D55*
X153875000Y-86650000D02*
X153000000Y-86650000D01*
D52*
X147510000Y-94875000D02*
X147510000Y-95255908D01*
D55*
X152549999Y-106700001D02*
X153000000Y-106250000D01*
X151250000Y-86550000D02*
X151250000Y-86250000D01*
X150398650Y-106700001D02*
X152549999Y-106700001D01*
X165750000Y-87750000D02*
X166750000Y-88750000D01*
X162977207Y-86750000D02*
X163250000Y-86750000D01*
D52*
X147510000Y-95255908D02*
X148804092Y-96550000D01*
D55*
X166750000Y-88750000D02*
X166750000Y-89000000D01*
D52*
X126125000Y-102375000D02*
X131250000Y-102375000D01*
X123510000Y-92990000D02*
X123500000Y-92980000D01*
D55*
X153875000Y-86650000D02*
X154525000Y-86650000D01*
D52*
X135510000Y-92990000D02*
X135500000Y-92980000D01*
X132625000Y-103750000D02*
X143625000Y-103750000D01*
X143500000Y-98500000D02*
X141510000Y-96510000D01*
D55*
X156425000Y-84750000D02*
X160977207Y-84750000D01*
D52*
X147510000Y-92990000D02*
X147500000Y-92980000D01*
X164750000Y-96250000D02*
X166750000Y-94250000D01*
X125500000Y-101750000D02*
X126125000Y-102375000D01*
X117510000Y-95849999D02*
X119405000Y-97744999D01*
X125405000Y-97655000D02*
X125405000Y-101655000D01*
D55*
X115250000Y-124750000D02*
X115000000Y-124500000D01*
D52*
X150500000Y-85500000D02*
X151250000Y-86250000D01*
X117510000Y-92990000D02*
X117500000Y-92980000D01*
D55*
X160275000Y-103000000D02*
X160500000Y-102775000D01*
D52*
X137405000Y-97530000D02*
X137405000Y-101655000D01*
X143175000Y-101750000D02*
X143300000Y-101875000D01*
D55*
X157845000Y-116635000D02*
X157480000Y-117000000D01*
D52*
X150525000Y-82750000D02*
X150500000Y-82775000D01*
D55*
X151350000Y-86650000D02*
X151250000Y-86550000D01*
D52*
X137405000Y-101655000D02*
X137500000Y-101750000D01*
X137500000Y-101750000D02*
X143175000Y-101750000D01*
X123510000Y-94875000D02*
X123510000Y-92990000D01*
X119405000Y-97744999D02*
X119405000Y-101655000D01*
D55*
X152150000Y-86650000D02*
X151750000Y-87050000D01*
X116250000Y-124750000D02*
X115250000Y-124750000D01*
X151250000Y-86250000D02*
X151250000Y-85730000D01*
D52*
X147510000Y-95510000D02*
X147510000Y-94875000D01*
D55*
X160977207Y-84750000D02*
X162977207Y-86750000D01*
D52*
X131570000Y-75320000D02*
X132000000Y-75750000D01*
X125405000Y-101655000D02*
X125500000Y-101750000D01*
X141510000Y-96510000D02*
X141510000Y-94875000D01*
D55*
X158775000Y-103000000D02*
X160275000Y-103000000D01*
X154525000Y-86650000D02*
X156425000Y-84750000D01*
D52*
X149183884Y-96441116D02*
X149250000Y-96375000D01*
D55*
X157845000Y-113655000D02*
X157845000Y-115225000D01*
D52*
X135510000Y-95635000D02*
X137405000Y-97530000D01*
X123510000Y-94875000D02*
X123510000Y-95760000D01*
D55*
X157845000Y-115225000D02*
X157845000Y-116635000D01*
D52*
X131050000Y-97250000D02*
X129510000Y-95710000D01*
X129510000Y-92990000D02*
X129500000Y-92980000D01*
X147510000Y-94875000D02*
X147510000Y-92990000D01*
X141510000Y-92990000D02*
X141500000Y-92980000D01*
D55*
X152250000Y-86650000D02*
X152150000Y-86650000D01*
D52*
X119405000Y-101655000D02*
X119500000Y-101750000D01*
X149183884Y-96550000D02*
X149183884Y-96441116D01*
D55*
X158775000Y-102025000D02*
X158500000Y-101750000D01*
%TO.N,/SENSEP2_HI*%
D52*
X122500000Y-79985000D02*
X121000000Y-79985000D01*
X122875000Y-79610000D02*
X122500000Y-79985000D01*
X120500000Y-80485000D02*
X120500000Y-87050000D01*
D53*
X126122402Y-66250000D02*
X126122402Y-64207998D01*
D54*
X126000000Y-74262500D02*
X126000000Y-67500000D01*
D52*
X120500000Y-87050000D02*
X121275000Y-87825000D01*
D54*
X126000000Y-74262500D02*
X123762500Y-76500000D01*
D52*
X122875000Y-77372500D02*
X122875000Y-79610000D01*
X121000000Y-79985000D02*
X120500000Y-80485000D01*
D53*
X126122402Y-67000000D02*
X126122402Y-67377598D01*
X126122402Y-67000000D02*
X126122402Y-66250000D01*
D54*
X123762500Y-76500000D02*
X122175000Y-76500000D01*
D53*
X126122402Y-64207998D02*
X127660401Y-62669999D01*
X126122402Y-67377598D02*
X126000000Y-67500000D01*
%TO.N,/IN2_P*%
D52*
X121092345Y-91423603D02*
X121275000Y-91423603D01*
X120970000Y-94875000D02*
X120970000Y-93550000D01*
X120970000Y-93550000D02*
X120515948Y-93550000D01*
X120515948Y-93550000D02*
X120200000Y-93234052D01*
X120200000Y-92315948D02*
X121092345Y-91423603D01*
X120200000Y-93234052D02*
X120200000Y-92315948D01*
X120970000Y-94875000D02*
X120970000Y-94064052D01*
X121275000Y-91423603D02*
X121275000Y-88860000D01*
%TO.N,/TEMP1*%
X157900861Y-96250611D02*
X156501525Y-96250611D01*
X156501525Y-96250611D02*
X155775000Y-96977136D01*
D56*
X155775000Y-99045000D02*
X156250000Y-99520000D01*
X132500000Y-74500000D02*
X132750000Y-74250000D01*
D52*
X132430000Y-74157000D02*
X132000000Y-73727000D01*
X155775000Y-96977136D02*
X155775000Y-97900000D01*
X132430000Y-74500000D02*
X132430000Y-74157000D01*
X132000000Y-73727000D02*
X132000000Y-70500000D01*
D56*
X132430000Y-74500000D02*
X132500000Y-74500000D01*
X155775000Y-97900000D02*
X155775000Y-99045000D01*
X132750000Y-74250000D02*
X132750000Y-73260000D01*
%TO.N,/IN1_P*%
D52*
X115275000Y-91423603D02*
X115275000Y-88860000D01*
X114970000Y-94875000D02*
X114970000Y-93454052D01*
X114700000Y-93184052D02*
X114700000Y-92265948D01*
X114970000Y-91728603D02*
X115275000Y-91423603D01*
X114970000Y-91995948D02*
X114970000Y-91728603D01*
X114700000Y-92265948D02*
X114970000Y-91995948D01*
X114970000Y-93454052D02*
X114700000Y-93184052D01*
%TO.N,/IN1_N*%
X115595000Y-93849092D02*
X115420000Y-93674092D01*
X115595000Y-95900908D02*
X115595000Y-93849092D01*
X116300000Y-91634052D02*
X116300000Y-91035000D01*
X115984052Y-91950000D02*
X116300000Y-91634052D01*
X116300000Y-91035000D02*
X118475000Y-88860000D01*
X115615000Y-92840000D02*
X115500000Y-92725000D01*
X115420000Y-96075908D02*
X115595000Y-95900908D01*
X115420000Y-99375000D02*
X115420000Y-96075908D01*
X115420000Y-93674092D02*
X115420000Y-91950000D01*
X114970000Y-99825000D02*
X115420000Y-99375000D01*
X115420000Y-91950000D02*
X115984052Y-91950000D01*
X115500000Y-92725000D02*
X115500000Y-92750000D01*
%TO.N,/EN*%
D56*
X168250000Y-107500000D02*
X167270000Y-108480000D01*
X167875000Y-84950000D02*
X168460000Y-84950000D01*
X167875000Y-84950000D02*
X169470000Y-84950000D01*
X167300000Y-84950000D02*
X166750000Y-85500000D01*
X167875000Y-84950000D02*
X167300000Y-84950000D01*
X167270000Y-112450000D02*
X168500000Y-113680000D01*
X168460000Y-84950000D02*
X169500000Y-85990000D01*
X169470000Y-84950000D02*
X169500000Y-84980000D01*
X167270000Y-108480000D02*
X167270000Y-112450000D01*
%TO.N,/GPIO0*%
X162849389Y-87400000D02*
X160749389Y-85300000D01*
X166750000Y-103930000D02*
X168500000Y-105680000D01*
X156652818Y-85300000D02*
X154452818Y-87500000D01*
X166750000Y-100000000D02*
X166750000Y-103930000D01*
X160749389Y-85300000D02*
X156652818Y-85300000D01*
X154452818Y-87500000D02*
X153875000Y-87500000D01*
X166750000Y-100000000D02*
X166775000Y-100000000D01*
X163875000Y-87500000D02*
X163775000Y-87400000D01*
X163775000Y-87400000D02*
X162849389Y-87400000D01*
%TO.N,/SENSEP1_HI*%
D52*
X116875000Y-79610000D02*
X116500000Y-79985000D01*
X115000000Y-79985000D02*
X114500000Y-80485000D01*
X114500000Y-87050000D02*
X115275000Y-87825000D01*
D54*
X123000000Y-67500000D02*
X123000000Y-71262500D01*
D53*
X123000000Y-66250000D02*
X123000000Y-64330401D01*
D54*
X123000000Y-71262500D02*
X117762500Y-76500000D01*
X117575000Y-76500000D02*
X116175000Y-76500000D01*
D52*
X114500000Y-80485000D02*
X114500000Y-87050000D01*
D53*
X123000000Y-67000000D02*
X123000000Y-66250000D01*
D52*
X116875000Y-77372500D02*
X116875000Y-79610000D01*
D53*
X123000000Y-67000000D02*
X123000000Y-67500000D01*
D52*
X116500000Y-79985000D02*
X115000000Y-79985000D01*
D53*
X123000000Y-64330401D02*
X124660402Y-62669999D01*
%TO.N,/SENSEP3_HI*%
D54*
X129250000Y-76175000D02*
X129250000Y-67458552D01*
X128175000Y-76500000D02*
X129575000Y-76500000D01*
D53*
X129198401Y-65500000D02*
X129198401Y-66250000D01*
X129198401Y-66250000D02*
X129198401Y-67198401D01*
D52*
X127000000Y-80250000D02*
X126500000Y-80750000D01*
D53*
X130660401Y-62669999D02*
X129198401Y-64131999D01*
D52*
X126500000Y-80750000D02*
X126500000Y-87065000D01*
X128250000Y-80250000D02*
X127000000Y-80250000D01*
D53*
X129198401Y-64131999D02*
X129198401Y-65500000D01*
D54*
X129250000Y-67458552D02*
X129160401Y-67368953D01*
D52*
X126500000Y-87065000D02*
X127275000Y-87840000D01*
X128875000Y-77387500D02*
X128875000Y-79625000D01*
D54*
X129575000Y-76500000D02*
X129250000Y-76175000D01*
D52*
X128875000Y-79625000D02*
X128250000Y-80250000D01*
%TO.N,/SENSEP6_HI*%
X149750000Y-81500000D02*
X147500000Y-79250000D01*
D53*
X141500000Y-66250000D02*
X141500000Y-64509601D01*
D52*
X146875000Y-79250000D02*
X146875000Y-79610000D01*
X147500000Y-79250000D02*
X146875000Y-79250000D01*
X149750000Y-83071016D02*
X149750000Y-81500000D01*
X150000000Y-87957107D02*
X150000000Y-83321016D01*
X146875000Y-79610000D02*
X146500000Y-79985000D01*
X151273014Y-95010000D02*
X150898014Y-94635000D01*
D54*
X141187500Y-71512500D02*
X141187500Y-67341851D01*
D52*
X150850010Y-94635000D02*
X150500000Y-94284990D01*
X150898014Y-94635000D02*
X150850010Y-94635000D01*
X144500000Y-80485000D02*
X144500000Y-87050000D01*
X150650000Y-89465810D02*
X150650000Y-88607107D01*
D53*
X141500000Y-67000000D02*
X141500000Y-66250000D01*
D54*
X141187500Y-71512500D02*
X146175000Y-76500000D01*
D53*
X141500000Y-67000000D02*
X141000000Y-67500000D01*
D52*
X150650000Y-88607107D02*
X150000000Y-87957107D01*
X144500000Y-87050000D02*
X145275000Y-87825000D01*
X150000000Y-83321016D02*
X149750000Y-83071016D01*
X146875000Y-77372500D02*
X146875000Y-79250000D01*
D53*
X141500000Y-64509601D02*
X139660398Y-62669999D01*
D52*
X150500000Y-89615810D02*
X150650000Y-89465810D01*
X150500000Y-94284990D02*
X150500000Y-89615810D01*
D54*
X146175000Y-76500000D02*
X147575000Y-76500000D01*
D52*
X145000000Y-79985000D02*
X144500000Y-80485000D01*
X146500000Y-79985000D02*
X145000000Y-79985000D01*
D54*
X141187500Y-67341851D02*
X141514676Y-67014675D01*
%TO.N,/SB_SENSE0*%
D52*
X148400000Y-71350000D02*
X150365000Y-71350000D01*
X146500000Y-74000000D02*
X146500000Y-73250000D01*
X146500000Y-73250000D02*
X148400000Y-71350000D01*
%TO.N,/SB_SENSE1*%
X147500000Y-74500000D02*
X148250000Y-73750000D01*
D56*
X156750000Y-77000000D02*
X157100000Y-77350000D01*
D52*
X148250000Y-73750000D02*
X149765000Y-73750000D01*
D56*
X155000000Y-77000000D02*
X156750000Y-77000000D01*
X157100000Y-77350000D02*
X163150000Y-77350000D01*
D52*
X149765000Y-73750000D02*
X150365000Y-74350000D01*
D56*
X163150000Y-77350000D02*
X163250000Y-77250000D01*
%TO.N,/SB_PWR_STABLE*%
X115500000Y-104000000D02*
X115150000Y-104350000D01*
D52*
X150365000Y-76615000D02*
X150365000Y-77350000D01*
D56*
X125022971Y-60128500D02*
X113750000Y-71401471D01*
X115150000Y-104350000D02*
X115150000Y-122150000D01*
D52*
X148500000Y-74750000D02*
X150365000Y-76615000D01*
D56*
X113750000Y-71401471D02*
X113750000Y-72250000D01*
X132128500Y-60128500D02*
X125022971Y-60128500D01*
X115150000Y-122150000D02*
X116000000Y-123000000D01*
X132250000Y-60250000D02*
X132128500Y-60128500D01*
%TO.N,/SB_CBL_PRES*%
X124600000Y-59650000D02*
X133810399Y-59650000D01*
X114089580Y-90508949D02*
X114600000Y-89998529D01*
X117500000Y-66750000D02*
X124600000Y-59650000D01*
X114600000Y-87821752D02*
X114025000Y-87246751D01*
D52*
X150000000Y-80500000D02*
X150215000Y-80500000D01*
D56*
X114025000Y-76073529D02*
X118500000Y-71598529D01*
X116000000Y-101500000D02*
X114000000Y-101500000D01*
X113747017Y-90508949D02*
X114089580Y-90508949D01*
X117250000Y-126000000D02*
X118250000Y-125000000D01*
X114600000Y-89998529D02*
X114600000Y-87821752D01*
D52*
X150215000Y-80500000D02*
X150365000Y-80350000D01*
X149250000Y-79750000D02*
X150000000Y-80500000D01*
D56*
X118500000Y-71598529D02*
X118500000Y-68250000D01*
X115500000Y-126000000D02*
X117250000Y-126000000D01*
X114025000Y-87246751D02*
X114025000Y-76073529D01*
X118750000Y-104250000D02*
X116000000Y-101500000D01*
X133810399Y-59650000D02*
X135160399Y-61000000D01*
%TO.N,/VREF*%
X159600000Y-94751471D02*
X159248529Y-94400000D01*
X151970001Y-104799999D02*
X152020000Y-104750000D01*
X159248529Y-94400000D02*
X158751471Y-94400000D01*
X159600000Y-96650000D02*
X159600000Y-94751471D01*
X159250000Y-97000000D02*
X159600000Y-96650000D01*
X158751471Y-94400000D02*
X158400000Y-94751471D01*
X158400000Y-95248529D02*
X157997918Y-95650611D01*
X156467658Y-95650611D02*
X155117047Y-94300000D01*
X152600000Y-103250000D02*
X152500000Y-103250000D01*
X157997918Y-95650611D02*
X156467658Y-95650611D01*
X152500000Y-103250000D02*
X152020000Y-103730000D01*
X152020000Y-103730000D02*
X152020000Y-104750000D01*
X150398650Y-104799999D02*
X151970001Y-104799999D01*
X158400000Y-94751471D02*
X158400000Y-95248529D01*
X155117047Y-94300000D02*
X153875000Y-94300000D01*
%TO.N,/ISENSEP1*%
D52*
X119895000Y-100395000D02*
X119855000Y-100435000D01*
X119855000Y-101079695D02*
X120225000Y-101449695D01*
X121500000Y-103250000D02*
X130750000Y-103250000D01*
X153975000Y-88250000D02*
X153875000Y-88350000D01*
X118780000Y-94875000D02*
X119855000Y-95950000D01*
X119855000Y-98355000D02*
X119895000Y-98395000D01*
X120225000Y-101449695D02*
X120225000Y-101975000D01*
X119855000Y-100435000D02*
X119855000Y-101079695D01*
X119855000Y-95950000D02*
X119855000Y-98355000D01*
X120225000Y-101975000D02*
X121500000Y-103250000D01*
X119895000Y-98395000D02*
X119895000Y-100395000D01*
X155000000Y-88250000D02*
X153975000Y-88250000D01*
X130750000Y-103250000D02*
X132000000Y-104500000D01*
X147125000Y-104500000D02*
X147750000Y-103875000D01*
X132000000Y-104500000D02*
X147125000Y-104500000D01*
%TO.N,/ISENSEP2*%
X133750000Y-103250000D02*
X148250000Y-103250000D01*
X126136396Y-101750000D02*
X132250000Y-101750000D01*
X155000000Y-89500000D02*
X154175000Y-89500000D01*
X125855000Y-101468604D02*
X126136396Y-101750000D01*
X154175000Y-89500000D02*
X153875000Y-89200000D01*
X148250000Y-103250000D02*
X149250000Y-102250000D01*
X125855000Y-95950000D02*
X125855000Y-101468604D01*
X124780000Y-94875000D02*
X125855000Y-95950000D01*
X132250000Y-101750000D02*
X133750000Y-103250000D01*
%TO.N,/ISENSEP3*%
X133994092Y-102500000D02*
X148250000Y-102500000D01*
X149405000Y-93959990D02*
X149405000Y-93849092D01*
X153440687Y-90184313D02*
X153740687Y-90184313D01*
X131750000Y-95845000D02*
X131750000Y-100255908D01*
X150286598Y-95847286D02*
X150500000Y-95633884D01*
X148250000Y-102349733D02*
X148375000Y-102224733D01*
X150500000Y-95054990D02*
X149405000Y-93959990D01*
X150286598Y-96060997D02*
X150286598Y-95847286D01*
X148555908Y-93000000D02*
X148500000Y-93000000D01*
X131750000Y-100255908D02*
X133994092Y-102500000D01*
X149405000Y-93849092D02*
X148555908Y-93000000D01*
X130780000Y-94875000D02*
X131750000Y-95845000D01*
X152625000Y-91000000D02*
X153440687Y-90184313D01*
X148250000Y-102500000D02*
X148250000Y-102349733D01*
X150500000Y-95633884D02*
X150500000Y-95054990D01*
X153740687Y-90184313D02*
X153875000Y-90050000D01*
%TO.N,/ISENSEP4*%
X149250000Y-101250000D02*
X150000000Y-100500000D01*
X137855000Y-100607954D02*
X138497046Y-101250000D01*
X138497046Y-101250000D02*
X149250000Y-101250000D01*
X154750000Y-91000000D02*
X153975000Y-91000000D01*
X153975000Y-91000000D02*
X153875000Y-90900000D01*
X150000000Y-100500000D02*
X150000000Y-98000000D01*
X137855000Y-95950000D02*
X137855000Y-100607954D01*
X136780000Y-94875000D02*
X137855000Y-95950000D01*
%TO.N,/ISENSEP5*%
X144125000Y-96750000D02*
X144125000Y-96220000D01*
X152750000Y-91750000D02*
X153875000Y-91750000D01*
X150500000Y-97000000D02*
X147230000Y-97000000D01*
X152500000Y-92000000D02*
X152750000Y-91750000D01*
X152500000Y-92500000D02*
X152500000Y-92000000D01*
X144125000Y-96220000D02*
X142780000Y-94875000D01*
%TO.N,/ISENSEP6*%
X149875000Y-95375000D02*
X149375000Y-94875000D01*
X149375000Y-94875000D02*
X148780000Y-94875000D01*
X154750000Y-92500000D02*
X153975000Y-92500000D01*
X153975000Y-92500000D02*
X153875000Y-92600000D01*
%TO.N,/VRAIL_DIV*%
X151500000Y-93500000D02*
X151550000Y-93450000D01*
X151550000Y-93450000D02*
X152250000Y-93450000D01*
X151500000Y-93250000D02*
X151500000Y-92760000D01*
X151500000Y-93500000D02*
X151500000Y-93250000D01*
X151250000Y-93990000D02*
X151500000Y-93740000D01*
X151500000Y-93740000D02*
X151500000Y-93500000D01*
X152250000Y-93450000D02*
X153875000Y-93450000D01*
X152250000Y-93450000D02*
X152250000Y-94020000D01*
%TO.N,/SB_SENSE1_GPIO*%
D56*
X152750000Y-74350000D02*
X151385000Y-74350000D01*
X155812546Y-95844028D02*
X155649997Y-95844028D01*
X154025000Y-95000000D02*
X153875000Y-95150000D01*
X155649997Y-95844028D02*
X154805969Y-95000000D01*
X154805969Y-95000000D02*
X154025000Y-95000000D01*
%TO.N,/DETECT_SENSE*%
X153275000Y-96000000D02*
X153875000Y-96000000D01*
X152000000Y-99740000D02*
X153175000Y-98565000D01*
X153175000Y-96100000D02*
X153275000Y-96000000D01*
X153175000Y-98565000D02*
X153175000Y-96100000D01*
%TO.N,/SB_PWR_STABLE_GPIO*%
X155000000Y-96042558D02*
X154542558Y-96500000D01*
X152500000Y-77350000D02*
X151385000Y-77350000D01*
X154542558Y-96500000D02*
X154225000Y-96500000D01*
X154225000Y-96500000D02*
X153875000Y-96850000D01*
%TO.N,/SB_CBL_PRES_GPIO*%
X155000000Y-97195350D02*
X155000000Y-97511932D01*
X155027129Y-97168221D02*
X155000000Y-97195350D01*
X156750000Y-88750000D02*
X156750000Y-93750000D01*
X155027129Y-96863959D02*
X155027129Y-97168221D01*
X154925000Y-97586932D02*
X154925000Y-97900000D01*
X155000000Y-97511932D02*
X154925000Y-97586932D01*
X152250000Y-80350000D02*
X151385000Y-80350000D01*
X156750000Y-93750000D02*
X157752552Y-94752552D01*
%TO.N,/TEMP2*%
D52*
X124603604Y-123510000D02*
X131863604Y-116250000D01*
D56*
X156625000Y-97900000D02*
X156625000Y-98915000D01*
D52*
X154265948Y-102000000D02*
X155616116Y-102000000D01*
X141250000Y-110750000D02*
X151846016Y-110750000D01*
D56*
X156625000Y-98915000D02*
X157250000Y-99540000D01*
D52*
X135750000Y-116250000D02*
X141250000Y-110750000D01*
X154675000Y-103959052D02*
X153950000Y-103234052D01*
X157261490Y-99540000D02*
X157250000Y-99540000D01*
X157885000Y-100836490D02*
X157885000Y-100163510D01*
X155616116Y-102000000D02*
X155741116Y-102125000D01*
X155000000Y-105500000D02*
X154675000Y-105175000D01*
X117250000Y-123510000D02*
X124603604Y-123510000D01*
X151846016Y-110750000D02*
X155000000Y-107596016D01*
X153950000Y-102315948D02*
X154265948Y-102000000D01*
X155000000Y-107596016D02*
X155000000Y-105500000D01*
X155741116Y-102125000D02*
X156596490Y-102125000D01*
X154675000Y-105175000D02*
X154675000Y-103959052D01*
X131863604Y-116250000D02*
X135750000Y-116250000D01*
X156596490Y-102125000D02*
X157885000Y-100836490D01*
X153950000Y-103234052D02*
X153950000Y-102315948D01*
X157885000Y-100163510D02*
X157261490Y-99540000D01*
D56*
X117110000Y-124750000D02*
X117110000Y-123650000D01*
X117110000Y-123650000D02*
X117250000Y-123510000D01*
%TO.N,/SB_SENSE0_GPIO*%
X159000000Y-95000000D02*
X159000000Y-96000000D01*
X152267500Y-72232500D02*
X151385000Y-71350000D01*
X157475000Y-97525000D02*
X157475000Y-97900000D01*
X159000000Y-96000000D02*
X157475000Y-97525000D01*
%TO.N,/CAN_TX*%
X159350000Y-112600000D02*
X158750000Y-112000000D01*
X156350000Y-108584314D02*
X158834315Y-106100000D01*
X157954448Y-112000000D02*
X156350000Y-110395552D01*
X156350000Y-110395552D02*
X156350000Y-108584314D01*
X159820343Y-98820343D02*
X159175000Y-98175000D01*
X159175000Y-98175000D02*
X159175000Y-97900000D01*
X161655000Y-111249999D02*
X160304999Y-112600000D01*
X161600000Y-100240686D02*
X160179657Y-98820343D01*
X161600000Y-104500000D02*
X161600000Y-100240686D01*
X161655000Y-110275000D02*
X161655000Y-111249999D01*
X160000000Y-106100000D02*
X161600000Y-104500000D01*
X158750000Y-112000000D02*
X157954448Y-112000000D01*
X160179657Y-98820343D02*
X159820343Y-98820343D01*
X158834315Y-106100000D02*
X160000000Y-106100000D01*
X160304999Y-112600000D02*
X159350000Y-112600000D01*
%TO.N,/CAN_RX*%
X160025000Y-97900000D02*
X160025000Y-98100000D01*
X156750000Y-110000000D02*
X156750000Y-108750000D01*
X160165686Y-106500000D02*
X162000000Y-104665685D01*
X157025000Y-110275000D02*
X156750000Y-110000000D01*
X157845000Y-110275000D02*
X157025000Y-110275000D01*
X162000000Y-100075000D02*
X160025000Y-98100000D01*
X156750000Y-108750000D02*
X159000000Y-106500000D01*
X159000000Y-106500000D02*
X160165686Y-106500000D01*
X162000000Y-104665685D02*
X162000000Y-100075000D01*
%TO.N,/USB_DM*%
D52*
X165630000Y-73100000D02*
X166695000Y-74165000D01*
X164500000Y-87241116D02*
X164500000Y-93625000D01*
X164755000Y-73100000D02*
X165630000Y-73100000D01*
X163880000Y-73100000D02*
X163750000Y-72970000D01*
X163880000Y-72100000D02*
X164755000Y-72100000D01*
X164500000Y-93625000D02*
X160875000Y-97250000D01*
X164000000Y-85500000D02*
X164000000Y-86741116D01*
X164755000Y-73100000D02*
X163880000Y-73100000D01*
X163750000Y-72970000D02*
X163750000Y-72230000D01*
X160875000Y-97250000D02*
X160875000Y-97900000D01*
X163750000Y-72230000D02*
X163880000Y-72100000D01*
X164500000Y-85000000D02*
X164000000Y-85500000D01*
X164000000Y-86741116D02*
X164500000Y-87241116D01*
X166695000Y-81055000D02*
X165250000Y-82500000D01*
X166695000Y-74165000D02*
X166695000Y-81055000D01*
%TO.N,/USB_DP*%
X165630000Y-72600000D02*
X164755000Y-72600000D01*
X167145000Y-73978604D02*
X167145000Y-81241396D01*
X161725000Y-97036396D02*
X161725000Y-97900000D01*
X166250000Y-82136396D02*
X166250000Y-82500000D01*
X165750000Y-85000000D02*
X165383884Y-85000000D01*
X164758884Y-85625000D02*
X164511396Y-85625000D01*
X165750000Y-71720000D02*
X165750000Y-72480000D01*
X165750000Y-72583604D02*
X167145000Y-73978604D01*
X164755000Y-71600000D02*
X165630000Y-71600000D01*
X165750000Y-72480000D02*
X165630000Y-72600000D01*
X165630000Y-71600000D02*
X165750000Y-71720000D01*
X165750000Y-72480000D02*
X165750000Y-72583604D01*
X164511396Y-85625000D02*
X164500000Y-85636396D01*
X164950000Y-87054720D02*
X164950000Y-93811396D01*
X167145000Y-81241396D02*
X166250000Y-82136396D01*
X164950000Y-93811396D02*
X161725000Y-97036396D01*
X164500000Y-85636396D02*
X164500000Y-86604720D01*
X165383884Y-85000000D02*
X164758884Y-85625000D01*
X164500000Y-86604720D02*
X164950000Y-87054720D01*
%TO.N,/SENSEP6_LO*%
D53*
X141459799Y-130209799D02*
X141500000Y-130169599D01*
D52*
X149250000Y-87000000D02*
X148475000Y-87775000D01*
D53*
X139839598Y-131830001D02*
X141459799Y-130209799D01*
X141500000Y-127750000D02*
X141500000Y-127000000D01*
D54*
X147575000Y-84200000D02*
X146175000Y-84200000D01*
D53*
X141500000Y-130169599D02*
X141500000Y-128750000D01*
D52*
X146875000Y-81375000D02*
X147000000Y-81250000D01*
X146875000Y-83312500D02*
X146875000Y-81375000D01*
X148500000Y-81250000D02*
X149250000Y-82000000D01*
X149250000Y-82000000D02*
X149250000Y-87000000D01*
X147000000Y-81250000D02*
X148500000Y-81250000D01*
D53*
X141500000Y-128750000D02*
X141500000Y-127750000D01*
%TO.N,/IN6_N*%
D52*
X146300000Y-91684052D02*
X146300000Y-91035000D01*
X145500000Y-92775000D02*
X145475000Y-92775000D01*
X144970000Y-99825000D02*
X145420000Y-99375000D01*
X145595000Y-93849092D02*
X145420000Y-93674092D01*
X145984052Y-92000000D02*
X146300000Y-91684052D01*
X145420000Y-92000000D02*
X145984052Y-92000000D01*
X145420000Y-99375000D02*
X145420000Y-96075908D01*
X145420000Y-96075908D02*
X145595000Y-95900908D01*
X146300000Y-91035000D02*
X148475000Y-88860000D01*
X145595000Y-95900908D02*
X145595000Y-93849092D01*
X145420000Y-93674092D02*
X145420000Y-92000000D01*
%TO.N,/IN6_P*%
X144970000Y-93504052D02*
X144700000Y-93234052D01*
X144970000Y-91728603D02*
X145275000Y-91423603D01*
X144700000Y-93234052D02*
X144700000Y-92315948D01*
X144970000Y-92045948D02*
X144970000Y-91728603D01*
X145275000Y-91423603D02*
X145275000Y-88860000D01*
X144970000Y-94875000D02*
X144970000Y-93504052D01*
X144700000Y-92315948D02*
X144970000Y-92045948D01*
%TO.N,/USB_CC1*%
X162010000Y-73750000D02*
X162160000Y-73600000D01*
X162160000Y-73600000D02*
X164755000Y-73600000D01*
%TO.N,/SENSEP1_LO*%
X118475000Y-87775000D02*
X118475000Y-87840000D01*
D53*
X124839602Y-131830001D02*
X123250000Y-130240399D01*
D52*
X119500000Y-86750000D02*
X118475000Y-87775000D01*
D53*
X123250000Y-128750000D02*
X123250000Y-127750000D01*
X123250000Y-127750000D02*
X123250000Y-127000000D01*
D52*
X119500000Y-82250000D02*
X119500000Y-86750000D01*
X118500000Y-81250000D02*
X119500000Y-82250000D01*
D54*
X117575000Y-84200000D02*
X116175000Y-84200000D01*
D52*
X117000000Y-81250000D02*
X118500000Y-81250000D01*
D53*
X123250000Y-130240399D02*
X123250000Y-128750000D01*
D52*
X116875000Y-83312500D02*
X116875000Y-81375000D01*
X116875000Y-81375000D02*
X117000000Y-81250000D01*
%TO.N,/IN4_N*%
X133595000Y-95900908D02*
X133595000Y-93849092D01*
X132875000Y-96620908D02*
X133595000Y-95900908D01*
X132970000Y-99825000D02*
X133420000Y-99375000D01*
X133420000Y-99375000D02*
X133420000Y-98303884D01*
X133595000Y-93849092D02*
X133420000Y-93674092D01*
X132970000Y-99470000D02*
X132970000Y-99825000D01*
X134300000Y-91634052D02*
X134300000Y-91035000D01*
X133500000Y-92725000D02*
X133500000Y-92750000D01*
X134300000Y-91035000D02*
X136475000Y-88860000D01*
X133420000Y-93674092D02*
X133420000Y-91950000D01*
X133420000Y-98303884D02*
X132875000Y-97758884D01*
X132875000Y-97758884D02*
X132875000Y-96620908D01*
X133420000Y-91950000D02*
X133984052Y-91950000D01*
X133984052Y-91950000D02*
X134300000Y-91634052D01*
%TO.N,/IN4_P*%
X132970000Y-93454052D02*
X132700000Y-93184052D01*
X132970000Y-94875000D02*
X132970000Y-93454052D01*
X132700000Y-93184052D02*
X132700000Y-92265948D01*
X132970000Y-91995948D02*
X132970000Y-91728603D01*
X132970000Y-91728603D02*
X133275000Y-91423603D01*
X132700000Y-92265948D02*
X132970000Y-91995948D01*
X133275000Y-91423603D02*
X133275000Y-88860000D01*
X133500000Y-89085000D02*
X133275000Y-88860000D01*
%TO.N,/IN3_N*%
X126970000Y-99825000D02*
X127420000Y-99375000D01*
X127420000Y-99375000D02*
X127420000Y-96075908D01*
X127595000Y-93849092D02*
X127420000Y-93674092D01*
X127420000Y-92000000D02*
X127984052Y-92000000D01*
X127500000Y-92775000D02*
X127500000Y-93000000D01*
X127420000Y-93674092D02*
X127420000Y-92000000D01*
X128300000Y-91035000D02*
X130475000Y-88860000D01*
X127595000Y-95900908D02*
X127595000Y-93849092D01*
X127984052Y-92000000D02*
X128300000Y-91684052D01*
X128300000Y-91684052D02*
X128300000Y-91035000D01*
X127420000Y-96075908D02*
X127595000Y-95900908D01*
%TO.N,/IN3_P*%
X126970000Y-91728603D02*
X127275000Y-91423603D01*
X127275000Y-91423603D02*
X127275000Y-88860000D01*
X126970000Y-92045948D02*
X126970000Y-91728603D01*
X126970000Y-94875000D02*
X126970000Y-93504052D01*
X127500000Y-89085000D02*
X127275000Y-88860000D01*
X126700000Y-92315948D02*
X126970000Y-92045948D01*
X126700000Y-93234052D02*
X126700000Y-92315948D01*
X126970000Y-93504052D02*
X126700000Y-93234052D01*
%TO.N,/SENSEP5_LO*%
D53*
X136839599Y-131830001D02*
X138301599Y-130368001D01*
X138301599Y-130368001D02*
X138301599Y-128750000D01*
D52*
X142500000Y-81250000D02*
X143750000Y-82500000D01*
D53*
X138301599Y-128750000D02*
X138301599Y-127750000D01*
D52*
X141000000Y-81250000D02*
X142500000Y-81250000D01*
D53*
X138301599Y-127750000D02*
X138301599Y-127198401D01*
D54*
X141575000Y-84200000D02*
X140175000Y-84200000D01*
D53*
X138301599Y-127198401D02*
X138500000Y-127000000D01*
D52*
X140875000Y-81375000D02*
X141000000Y-81250000D01*
X143750000Y-86500000D02*
X142475000Y-87775000D01*
X143750000Y-82500000D02*
X143750000Y-86500000D01*
X140875000Y-83312500D02*
X140875000Y-81375000D01*
%TO.N,/IN5_N*%
X139984052Y-91950000D02*
X140300000Y-91634052D01*
X139420000Y-91950000D02*
X139984052Y-91950000D01*
X138970000Y-99825000D02*
X139420000Y-99375000D01*
X140300000Y-91035000D02*
X142475000Y-88860000D01*
X140300000Y-91634052D02*
X140300000Y-91035000D01*
X139595000Y-93849092D02*
X139420000Y-93674092D01*
X139595000Y-95900908D02*
X139595000Y-93849092D01*
X139500000Y-92725000D02*
X139500000Y-92750000D01*
X139420000Y-93674092D02*
X139420000Y-91950000D01*
X139420000Y-99375000D02*
X139420000Y-96075908D01*
X139420000Y-96075908D02*
X139595000Y-95900908D01*
%TO.N,/CAN_H*%
X160500000Y-121000000D02*
X160737000Y-121237000D01*
X160500000Y-115340000D02*
X160385000Y-115225000D01*
X160737000Y-126655500D02*
X159650000Y-127742500D01*
X160737000Y-121237000D02*
X160737000Y-126655500D01*
X160500000Y-121000000D02*
X160500000Y-115340000D01*
%TO.N,/CAN_L*%
X157110000Y-123665249D02*
X157110000Y-123932500D01*
X160050000Y-120725249D02*
X157110000Y-123665249D01*
X159115000Y-115225000D02*
X159115000Y-116378604D01*
X160050000Y-117313604D02*
X160050000Y-120725249D01*
X159115000Y-116378604D02*
X160050000Y-117313604D01*
%TO.N,unconnected-(J1-RSVD-Pad7)*%
X159875000Y-122917500D02*
X159875000Y-122030824D01*
%TO.N,/DETECT*%
D56*
X157110000Y-121392500D02*
X154692500Y-121392500D01*
X154692500Y-121392500D02*
X154550000Y-121250000D01*
X152000000Y-101750000D02*
X152000000Y-100760000D01*
X152000000Y-101750000D02*
X151260000Y-101750000D01*
X154550000Y-121250000D02*
X154550000Y-119750000D01*
%TO.N,/IN2_N*%
D52*
X121420000Y-98375000D02*
X121191116Y-98375000D01*
X120825000Y-96670908D02*
X121595000Y-95900908D01*
X121595000Y-95900908D02*
X121595000Y-93849092D01*
X120970000Y-99825000D02*
X121420000Y-99375000D01*
X121484052Y-92000000D02*
X121800000Y-91684052D01*
X121595000Y-93849092D02*
X121420000Y-93674092D01*
X121800000Y-91684052D02*
X121800000Y-91535000D01*
X121420000Y-93674092D02*
X121420000Y-92000000D01*
X121420000Y-92000000D02*
X121484052Y-92000000D01*
X121420000Y-99375000D02*
X121420000Y-98375000D01*
X121191116Y-98375000D02*
X120825000Y-98008884D01*
X121800000Y-91535000D02*
X124475000Y-88860000D01*
X120825000Y-98008884D02*
X120825000Y-96670908D01*
%TO.N,/USB_CC2*%
X162160000Y-70600000D02*
X164755000Y-70600000D01*
X162010000Y-70750000D02*
X162160000Y-70600000D01*
%TO.N,/VBUS*%
D55*
X162250000Y-66700000D02*
X159050000Y-66700000D01*
D57*
X164100000Y-70100000D02*
X163250000Y-69250000D01*
D55*
X163250000Y-67700000D02*
X162250000Y-66700000D01*
X159050000Y-66700000D02*
X159000000Y-66750000D01*
X163250000Y-69250000D02*
X163250000Y-67700000D01*
D57*
X163400000Y-74900000D02*
X163000000Y-74500000D01*
X164755000Y-74600000D02*
X164755000Y-74900000D01*
X164755000Y-74900000D02*
X163400000Y-74900000D01*
X164755000Y-69800000D02*
X164755000Y-70100000D01*
X164755000Y-70100000D02*
X164100000Y-70100000D01*
%TO.N,/SENSEP2_LO*%
D53*
X127839601Y-131830001D02*
X126377601Y-130368001D01*
D52*
X125750000Y-82500000D02*
X125500000Y-82250000D01*
X125750000Y-87000000D02*
X125750000Y-82500000D01*
D54*
X123575000Y-84200000D02*
X122175000Y-84200000D01*
D52*
X125500000Y-82250000D02*
X124500000Y-81250000D01*
D53*
X126377601Y-130368001D02*
X126377601Y-128750000D01*
D52*
X124475000Y-87840000D02*
X124450010Y-87840000D01*
X124500000Y-81250000D02*
X123000000Y-81250000D01*
D53*
X126377601Y-128750000D02*
X126377601Y-127750000D01*
D52*
X124475000Y-87840000D02*
X124910000Y-87840000D01*
X124910000Y-87840000D02*
X125750000Y-87000000D01*
D53*
X126377601Y-127127601D02*
X126250000Y-127000000D01*
D52*
X122875000Y-81375000D02*
X122875000Y-83312500D01*
D53*
X126377601Y-127750000D02*
X126377601Y-127127601D01*
D52*
X123000000Y-81250000D02*
X122875000Y-81375000D01*
%TO.N,/SENSEP3_LO*%
D53*
X129377600Y-127127600D02*
X129250000Y-127000000D01*
D52*
X131500000Y-86500000D02*
X131500000Y-82250000D01*
D53*
X129377600Y-128750000D02*
X129377600Y-127750000D01*
X130839600Y-131830001D02*
X129377600Y-130368001D01*
X129377600Y-130368001D02*
X129377600Y-130250000D01*
D54*
X129575000Y-84200000D02*
X128175000Y-84200000D01*
D52*
X129000000Y-81250000D02*
X128875000Y-81375000D01*
X131500000Y-82250000D02*
X130500000Y-81250000D01*
X130475000Y-87840000D02*
X130475000Y-87525000D01*
D53*
X129377600Y-130250000D02*
X129377600Y-128750000D01*
X129377600Y-127750000D02*
X129377600Y-127127600D01*
D52*
X130475000Y-87525000D02*
X131500000Y-86500000D01*
X130500000Y-81250000D02*
X129000000Y-81250000D01*
X128875000Y-81375000D02*
X128875000Y-83312500D01*
%TD*%
M02*
