M48
; DRILL file KiCad 10.0.3-10.0.3~ubuntu24.04.1 date 2026-06-06T03:49:16
; FORMAT={-:-/ absolute / metric / decimal}
; #@! TF.CreationDate,2026-06-06T03:49:16+00:00
; #@! TF.GenerationSoftware,Kicad,Pcbnew,10.0.3-10.0.3~ubuntu24.04.1
; #@! TF.FileFunction,Plated,1,4,PTH
FMAT,2
METRIC
; #@! TA.AperFunction,Plated,PTH,ViaDrill
T1C0.300
; #@! TA.AperFunction,Plated,PTH,ViaDrill
T2C0.400
; #@! TA.AperFunction,Plated,PTH,ViaDrill
T3C0.500
; #@! TA.AperFunction,Plated,PTH,ComponentDrill
T4C0.500
; #@! TA.AperFunction,Plated,PTH,ComponentDrill
T5C0.600
; #@! TA.AperFunction,Plated,PTH,ComponentDrill
T6C0.600
; #@! TA.AperFunction,Plated,PTH,ComponentDrill
T7C0.610
; #@! TA.AperFunction,Plated,PTH,ComponentDrill
T8C1.000
; #@! TA.AperFunction,Plated,PTH,ComponentDrill
T9C1.067
; #@! TA.AperFunction,Plated,PTH,ComponentDrill
T10C3.200
%
G90
G05
T1
X113.747Y-90.509
X113.75Y-72.25
X114.0Y-65.75
X114.0Y-69.75
X114.0Y-73.75
X114.0Y-88.25
X114.0Y-89.75
X114.0Y-101.5
X114.0Y-102.75
X114.0Y-105.25
X114.0Y-108.5
X114.0Y-111.25
X114.0Y-114.75
X114.0Y-117.75
X114.0Y-121.75
X114.0Y-125.0
X114.0Y-128.25
X114.0Y-131.25
X114.0Y-137.25
X115.5Y-70.75
X115.5Y-104.0
X115.5Y-126.0
X115.75Y-111.75
X115.75Y-119.75
X115.85Y-76.0
X116.0Y-123.0
X116.175Y-76.5
X116.175Y-84.2
X116.25Y-128.0
X116.5Y-67.0
X116.55Y-76.0
X116.6Y-84.75
X116.875Y-76.5
X116.875Y-84.2
X117.0Y-108.0
X117.25Y-72.0
X117.25Y-76.0
X117.3Y-84.75
X117.5Y-66.75
X117.5Y-69.0
X117.5Y-121.75
X117.575Y-76.5
X117.575Y-84.2
X118.0Y-84.75
X118.0Y-106.25
X118.25Y-125.0
X118.5Y-68.25
X118.5Y-92.0
X118.75Y-104.25
X118.75Y-109.25
X119.5Y-66.5
X119.5Y-68.25
X119.5Y-70.75
X119.75Y-118.75
X120.0Y-125.5
X120.25Y-130.75
X120.75Y-127.5
X121.0Y-121.0
X121.25Y-59.5
X121.25Y-137.25
X121.45Y-97.75
X121.85Y-76.0
X122.0Y-133.75
X122.175Y-76.5
X122.175Y-84.2
X122.55Y-76.0
X122.6Y-84.75
X122.875Y-76.5
X122.875Y-84.2
X123.0Y-64.33
X123.0Y-65.5
X123.0Y-66.25
X123.0Y-67.0
X123.25Y-76.0
X123.25Y-127.0
X123.25Y-127.75
X123.25Y-128.75
X123.25Y-130.24
X123.3Y-84.75
X123.575Y-76.5
X123.575Y-84.2
X124.0Y-84.75
X124.25Y-134.5
X124.25Y-136.25
X124.5Y-137.25
X124.75Y-64.25
X126.0Y-61.75
X126.122Y-64.208
X126.122Y-65.5
X126.122Y-66.25
X126.122Y-67.0
X126.25Y-127.0
X126.378Y-127.75
X126.378Y-128.75
X126.378Y-130.368
X126.5Y-137.25
X127.0Y-134.5
X127.0Y-136.25
X127.75Y-64.5
X127.85Y-76.0
X128.175Y-76.5
X128.175Y-84.2
X128.55Y-76.0
X128.6Y-84.75
X128.875Y-76.5
X128.875Y-84.2
X129.198Y-64.132
X129.198Y-65.5
X129.198Y-66.25
X129.198Y-67.198
X129.25Y-76.0
X129.25Y-127.0
X129.25Y-137.25
X129.3Y-84.75
X129.378Y-127.75
X129.378Y-128.75
X129.378Y-130.25
X129.5Y-134.75
X129.5Y-136.25
X129.575Y-76.5
X129.575Y-84.2
X130.0Y-84.75
X131.05Y-97.25
X131.25Y-64.25
X131.25Y-68.5
X131.25Y-102.375
X131.25Y-108.25
X131.25Y-111.5
X131.25Y-114.5
X131.25Y-119.0
X131.25Y-122.0
X131.25Y-125.0
X131.5Y-67.0
X131.5Y-90.75
X131.75Y-134.75
X131.75Y-136.25
X132.0Y-70.5
X132.25Y-60.25
X132.75Y-71.25
X133.0Y-68.75
X133.5Y-64.25
X133.5Y-97.5
X133.5Y-108.25
X133.5Y-111.5
X133.5Y-114.5
X133.5Y-118.25
X133.5Y-122.0
X133.5Y-125.0
X134.0Y-134.75
X134.0Y-136.25
X134.175Y-76.5
X134.175Y-84.2
X134.25Y-137.25
X134.6Y-76.0
X134.6Y-84.75
X134.875Y-76.5
X134.875Y-84.2
X135.122Y-64.132
X135.122Y-65.5
X135.122Y-66.25
X135.122Y-67.0
X135.3Y-76.0
X135.3Y-84.75
X135.302Y-127.75
X135.302Y-128.75
X135.302Y-130.368
X135.5Y-127.0
X135.575Y-76.5
X135.575Y-84.2
X136.0Y-76.0
X136.0Y-84.75
X136.0Y-134.75
X136.0Y-136.25
X136.25Y-137.25
X136.5Y-64.25
X137.75Y-134.25
X137.75Y-136.25
X137.75Y-137.25
X138.122Y-64.132
X138.122Y-65.5
X138.122Y-66.25
X138.122Y-67.0
X138.302Y-127.75
X138.302Y-128.75
X138.302Y-130.368
X138.5Y-127.0
X139.75Y-64.5
X139.75Y-134.25
X139.85Y-84.75
X140.0Y-136.25
X140.0Y-137.25
X140.175Y-76.5
X140.175Y-84.2
X140.55Y-84.75
X140.6Y-76.0
X140.875Y-76.5
X140.875Y-84.2
X141.0Y-61.0
X141.245Y-64.255
X141.25Y-84.75
X141.3Y-76.0
X141.46Y-130.21
X141.5Y-65.5
X141.5Y-66.25
X141.5Y-67.0
X141.5Y-127.0
X141.5Y-127.75
X141.5Y-128.75
X141.575Y-76.5
X141.575Y-84.2
X142.0Y-76.0
X142.75Y-63.0
X142.75Y-65.5
X143.0Y-70.75
X143.3Y-101.875
X143.5Y-60.0
X143.5Y-90.0
X143.5Y-98.5
X143.5Y-137.25
X143.75Y-103.875
X144.0Y-108.5
X144.125Y-96.75
X144.25Y-59.75
X144.25Y-71.75
X144.25Y-113.0
X145.0Y-134.25
X145.0Y-136.75
X145.25Y-120.75
X145.25Y-124.0
X145.5Y-66.0
X145.85Y-84.75
X146.0Y-129.0
X146.175Y-76.5
X146.175Y-84.2
X146.24Y-97.5
X146.25Y-62.0
X146.5Y-74.0
X146.5Y-105.723
X146.55Y-84.75
X146.6Y-76.0
X146.75Y-68.5
X146.875Y-76.5
X146.875Y-84.2
X147.0Y-137.25
X147.23Y-97.0
X147.25Y-63.75
X147.25Y-84.75
X147.25Y-109.5
X147.3Y-76.0
X147.5Y-74.5
X147.5Y-122.75
X147.575Y-76.5
X147.575Y-84.2
X147.75Y-103.875
X147.75Y-126.75
X148.0Y-59.75
X148.0Y-76.0
X148.375Y-102.225
X148.48Y-92.02
X148.5Y-74.75
X148.5Y-93.0
X148.75Y-135.5
X149.25Y-79.75
X149.25Y-96.375
X149.25Y-102.25
X149.25Y-131.5
X149.4Y-103.75
X149.5Y-116.5
X149.75Y-62.0
X149.75Y-67.0
X149.875Y-95.375
X150.0Y-98.0
X150.287Y-96.061
X150.5Y-64.25
X150.5Y-97.0
X151.0Y-137.25
X151.25Y-59.75
X151.25Y-121.25
X151.25Y-127.0
X151.75Y-91.0
X152.0Y-84.5
X152.0Y-101.75
X152.25Y-80.35
X152.267Y-72.233
X152.5Y-67.25
X152.5Y-77.35
X152.5Y-92.5
X152.6Y-103.25
X152.625Y-91.0
X152.75Y-74.35
X153.0Y-114.25
X153.5Y-131.25
X154.0Y-61.75
X154.0Y-104.75
X154.0Y-134.25
X154.25Y-137.25
X154.55Y-119.75
X154.75Y-91.0
X154.75Y-92.5
X155.0Y-77.0
X155.0Y-88.25
X155.0Y-89.5
X155.0Y-96.043
X155.027Y-96.864
X155.25Y-137.25
X155.3Y-103.95
X155.5Y-59.75
X155.5Y-69.75
X155.75Y-116.75
X155.813Y-95.844
X156.0Y-101.5
X156.5Y-107.5
X156.75Y-88.75
X157.0Y-60.5
X157.75Y-136.5
X157.753Y-94.753
X157.845Y-113.655
X157.901Y-96.251
X158.0Y-91.0
X158.5Y-101.75
X158.75Y-61.75
X158.75Y-72.25
X159.0Y-93.75
X159.0Y-95.0
X159.0Y-137.25
X159.25Y-69.5
X159.25Y-97.0
X159.5Y-101.5
X159.75Y-59.75
X159.75Y-112.0
X159.85Y-87.132
X160.125Y-73.875
X160.25Y-70.5
X160.25Y-96.0
X160.75Y-88.0
X160.75Y-93.75
X161.0Y-81.5
X161.0Y-108.5
X161.75Y-76.75
X161.75Y-119.25
X162.0Y-63.25
X162.0Y-137.25
X162.75Y-88.0
X162.75Y-94.25
X163.0Y-74.5
X163.0Y-116.0
X163.25Y-69.25
X163.25Y-77.25
X163.25Y-86.75
X163.25Y-100.5
X163.5Y-59.75
X163.5Y-80.0
X163.5Y-132.0
X163.75Y-76.25
X163.75Y-90.75
X163.75Y-92.75
X163.875Y-87.5
X164.0Y-68.5
X164.25Y-136.25
X164.5Y-85.0
X165.25Y-82.5
X165.25Y-116.0
X165.75Y-85.0
X165.75Y-87.75
X165.75Y-107.75
X165.75Y-127.75
X166.25Y-82.5
X166.25Y-123.75
X166.75Y-85.5
X166.75Y-89.0
X166.75Y-100.0
X166.75Y-137.25
X167.75Y-116.25
X168.25Y-107.5
X169.0Y-136.75
X169.25Y-100.0
X169.5Y-78.5
X169.5Y-83.0
X169.5Y-88.25
X169.5Y-90.25
X169.5Y-92.0
X169.5Y-94.25
X169.5Y-96.0
X169.5Y-99.0
X169.5Y-135.0
X169.75Y-66.0
X169.75Y-80.75
X169.75Y-108.25
X169.75Y-114.75
X169.75Y-120.25
X169.75Y-124.25
X169.75Y-128.5
X169.75Y-131.25
X169.851Y-106.565
T2
X115.0Y-124.5
X119.5Y-101.75
X121.25Y-101.75
X132.0Y-75.75
X150.525Y-82.75
X153.0Y-106.25
X157.79Y-108.7
X160.75Y-113.25
X162.101Y-111.899
X164.75Y-96.25
T3
X117.75Y-98.0
X152.425Y-97.444
X153.0Y-108.5
X162.75Y-85.25
X163.0Y-82.25
X164.25Y-82.25
X165.6Y-86.0
X168.0Y-82.0
X169.5Y-97.5
T4
X114.475Y-62.35
X114.475Y-134.35
X115.178Y-60.653
X115.178Y-64.047
X115.178Y-132.653
X115.178Y-136.047
X116.875Y-59.95
X116.875Y-64.75
X116.875Y-131.95
X116.875Y-136.75
X118.572Y-60.653
X118.572Y-64.047
X118.572Y-132.653
X118.572Y-136.047
X119.275Y-62.35
X119.275Y-134.35
X164.475Y-62.35
X165.178Y-60.653
X165.178Y-64.047
X166.875Y-59.95
X166.875Y-64.75
X168.572Y-60.653
X168.572Y-64.047
X169.275Y-62.35
T7
X129.16Y-61.0
X129.34Y-133.5
X131.16Y-61.0
X131.34Y-133.5
X133.16Y-61.0
X133.34Y-133.5
X135.16Y-61.0
X135.34Y-133.5
T8
X157.11Y-121.392
X157.11Y-123.932
X157.11Y-126.472
X157.11Y-129.012
X159.65Y-122.662
X159.65Y-125.203
X159.65Y-127.742
X159.65Y-130.282
T9
X124.66Y-62.67
X124.66Y-65.67
X124.84Y-128.83
X124.84Y-131.83
X127.66Y-62.67
X127.66Y-65.67
X127.84Y-128.83
X127.84Y-131.83
X130.66Y-62.67
X130.66Y-65.67
X130.84Y-128.83
X130.84Y-131.83
X133.66Y-62.67
X133.66Y-65.67
X133.84Y-128.83
X133.84Y-131.83
X136.66Y-62.67
X136.66Y-65.67
X136.84Y-128.83
X136.84Y-131.83
X139.66Y-62.67
X139.66Y-65.67
X139.84Y-128.83
X139.84Y-131.83
T10
X116.875Y-62.35
X116.875Y-134.35
X166.875Y-62.35
T5
X168.3Y-117.972G85X169.6Y-117.972
G05
X168.3Y-133.773G85X169.6Y-133.773
G05
T6
X164.77Y-68.03G85X165.87Y-68.03
G05
X164.77Y-76.67G85X165.87Y-76.67
G05
X169.2Y-68.03G85X169.8Y-68.03
G05
X169.2Y-76.67G85X169.8Y-76.67
G05
M30
