%TF.GenerationSoftware,KiCad,Pcbnew,10.0.3-10.0.3~ubuntu24.04.1*%
%TF.CreationDate,2026-06-06T03:49:15+00:00*%
%TF.ProjectId,12vhpwr-standard-module,31327668-7077-4722-9d73-74616e646172,rev?*%
%TF.SameCoordinates,Original*%
%TF.FileFunction,Legend,Top*%
%TF.FilePolarity,Positive*%
%FSLAX46Y46*%
G04 Gerber Fmt 4.6, Leading zero omitted, Abs format (unit mm)*
G04 Created by KiCad (PCBNEW 10.0.3-10.0.3~ubuntu24.04.1) date 2026-06-06 03:49:15*
%MOMM*%
%LPD*%
G01*
G04 APERTURE LIST*
%ADD10C,0.130000*%
%ADD11C,0.150000*%
%ADD12C,0.120000*%
%ADD13C,0.060000*%
%ADD14C,0.250000*%
%ADD15C,0.152400*%
%ADD16C,0.508000*%
%ADD17C,0.400000*%
G04 APERTURE END LIST*
D10*
X114073882Y-131135715D02*
X114116740Y-131178572D01*
X114116740Y-131178572D02*
X114159597Y-131307144D01*
X114159597Y-131307144D02*
X114159597Y-131392858D01*
X114159597Y-131392858D02*
X114116740Y-131521429D01*
X114116740Y-131521429D02*
X114031025Y-131607144D01*
X114031025Y-131607144D02*
X113945311Y-131650001D01*
X113945311Y-131650001D02*
X113773882Y-131692858D01*
X113773882Y-131692858D02*
X113645311Y-131692858D01*
X113645311Y-131692858D02*
X113473882Y-131650001D01*
X113473882Y-131650001D02*
X113388168Y-131607144D01*
X113388168Y-131607144D02*
X113302454Y-131521429D01*
X113302454Y-131521429D02*
X113259597Y-131392858D01*
X113259597Y-131392858D02*
X113259597Y-131307144D01*
X113259597Y-131307144D02*
X113302454Y-131178572D01*
X113302454Y-131178572D02*
X113345311Y-131135715D01*
X113688168Y-130750001D02*
X113688168Y-130450001D01*
X114159597Y-130321429D02*
X114159597Y-130750001D01*
X114159597Y-130750001D02*
X113259597Y-130750001D01*
X113259597Y-130750001D02*
X113259597Y-130321429D01*
X114073882Y-129421429D02*
X114116740Y-129464286D01*
X114116740Y-129464286D02*
X114159597Y-129592858D01*
X114159597Y-129592858D02*
X114159597Y-129678572D01*
X114159597Y-129678572D02*
X114116740Y-129807143D01*
X114116740Y-129807143D02*
X114031025Y-129892858D01*
X114031025Y-129892858D02*
X113945311Y-129935715D01*
X113945311Y-129935715D02*
X113773882Y-129978572D01*
X113773882Y-129978572D02*
X113645311Y-129978572D01*
X113645311Y-129978572D02*
X113473882Y-129935715D01*
X113473882Y-129935715D02*
X113388168Y-129892858D01*
X113388168Y-129892858D02*
X113302454Y-129807143D01*
X113302454Y-129807143D02*
X113259597Y-129678572D01*
X113259597Y-129678572D02*
X113259597Y-129592858D01*
X113259597Y-129592858D02*
X113302454Y-129464286D01*
X113302454Y-129464286D02*
X113345311Y-129421429D01*
X114159597Y-127878572D02*
X114159597Y-128392858D01*
X114159597Y-128135715D02*
X113259597Y-128135715D01*
X113259597Y-128135715D02*
X113388168Y-128221429D01*
X113388168Y-128221429D02*
X113473882Y-128307144D01*
X113473882Y-128307144D02*
X113516740Y-128392858D01*
X113345311Y-127535715D02*
X113302454Y-127492858D01*
X113302454Y-127492858D02*
X113259597Y-127407144D01*
X113259597Y-127407144D02*
X113259597Y-127192858D01*
X113259597Y-127192858D02*
X113302454Y-127107144D01*
X113302454Y-127107144D02*
X113345311Y-127064286D01*
X113345311Y-127064286D02*
X113431025Y-127021429D01*
X113431025Y-127021429D02*
X113516740Y-127021429D01*
X113516740Y-127021429D02*
X113645311Y-127064286D01*
X113645311Y-127064286D02*
X114159597Y-127578572D01*
X114159597Y-127578572D02*
X114159597Y-127021429D01*
X113259597Y-126764286D02*
X114159597Y-126464286D01*
X114159597Y-126464286D02*
X113259597Y-126164286D01*
X114159597Y-125864286D02*
X113259597Y-125864286D01*
X113688168Y-125864286D02*
X113688168Y-125350000D01*
X114159597Y-125350000D02*
X113259597Y-125350000D01*
X114159597Y-124921429D02*
X113259597Y-124921429D01*
X113259597Y-124921429D02*
X113259597Y-124578572D01*
X113259597Y-124578572D02*
X113302454Y-124492857D01*
X113302454Y-124492857D02*
X113345311Y-124450000D01*
X113345311Y-124450000D02*
X113431025Y-124407143D01*
X113431025Y-124407143D02*
X113559597Y-124407143D01*
X113559597Y-124407143D02*
X113645311Y-124450000D01*
X113645311Y-124450000D02*
X113688168Y-124492857D01*
X113688168Y-124492857D02*
X113731025Y-124578572D01*
X113731025Y-124578572D02*
X113731025Y-124921429D01*
X113259597Y-124107143D02*
X114159597Y-123892857D01*
X114159597Y-123892857D02*
X113516740Y-123721429D01*
X113516740Y-123721429D02*
X114159597Y-123550000D01*
X114159597Y-123550000D02*
X113259597Y-123335715D01*
X114159597Y-122478572D02*
X113731025Y-122778572D01*
X114159597Y-122992858D02*
X113259597Y-122992858D01*
X113259597Y-122992858D02*
X113259597Y-122650001D01*
X113259597Y-122650001D02*
X113302454Y-122564286D01*
X113302454Y-122564286D02*
X113345311Y-122521429D01*
X113345311Y-122521429D02*
X113431025Y-122478572D01*
X113431025Y-122478572D02*
X113559597Y-122478572D01*
X113559597Y-122478572D02*
X113645311Y-122521429D01*
X113645311Y-122521429D02*
X113688168Y-122564286D01*
X113688168Y-122564286D02*
X113731025Y-122650001D01*
X113731025Y-122650001D02*
X113731025Y-122992858D01*
X114116740Y-121450001D02*
X114159597Y-121321430D01*
X114159597Y-121321430D02*
X114159597Y-121107144D01*
X114159597Y-121107144D02*
X114116740Y-121021430D01*
X114116740Y-121021430D02*
X114073882Y-120978572D01*
X114073882Y-120978572D02*
X113988168Y-120935715D01*
X113988168Y-120935715D02*
X113902454Y-120935715D01*
X113902454Y-120935715D02*
X113816740Y-120978572D01*
X113816740Y-120978572D02*
X113773882Y-121021430D01*
X113773882Y-121021430D02*
X113731025Y-121107144D01*
X113731025Y-121107144D02*
X113688168Y-121278572D01*
X113688168Y-121278572D02*
X113645311Y-121364287D01*
X113645311Y-121364287D02*
X113602454Y-121407144D01*
X113602454Y-121407144D02*
X113516740Y-121450001D01*
X113516740Y-121450001D02*
X113431025Y-121450001D01*
X113431025Y-121450001D02*
X113345311Y-121407144D01*
X113345311Y-121407144D02*
X113302454Y-121364287D01*
X113302454Y-121364287D02*
X113259597Y-121278572D01*
X113259597Y-121278572D02*
X113259597Y-121064287D01*
X113259597Y-121064287D02*
X113302454Y-120935715D01*
X113559597Y-120678572D02*
X113559597Y-120335715D01*
X113259597Y-120550001D02*
X114031025Y-120550001D01*
X114031025Y-120550001D02*
X114116740Y-120507144D01*
X114116740Y-120507144D02*
X114159597Y-120421429D01*
X114159597Y-120421429D02*
X114159597Y-120335715D01*
X114159597Y-119650001D02*
X113688168Y-119650001D01*
X113688168Y-119650001D02*
X113602454Y-119692858D01*
X113602454Y-119692858D02*
X113559597Y-119778572D01*
X113559597Y-119778572D02*
X113559597Y-119950001D01*
X113559597Y-119950001D02*
X113602454Y-120035715D01*
X114116740Y-119650001D02*
X114159597Y-119735715D01*
X114159597Y-119735715D02*
X114159597Y-119950001D01*
X114159597Y-119950001D02*
X114116740Y-120035715D01*
X114116740Y-120035715D02*
X114031025Y-120078572D01*
X114031025Y-120078572D02*
X113945311Y-120078572D01*
X113945311Y-120078572D02*
X113859597Y-120035715D01*
X113859597Y-120035715D02*
X113816740Y-119950001D01*
X113816740Y-119950001D02*
X113816740Y-119735715D01*
X113816740Y-119735715D02*
X113773882Y-119650001D01*
X113559597Y-119221429D02*
X114159597Y-119221429D01*
X113645311Y-119221429D02*
X113602454Y-119178572D01*
X113602454Y-119178572D02*
X113559597Y-119092857D01*
X113559597Y-119092857D02*
X113559597Y-118964286D01*
X113559597Y-118964286D02*
X113602454Y-118878572D01*
X113602454Y-118878572D02*
X113688168Y-118835715D01*
X113688168Y-118835715D02*
X114159597Y-118835715D01*
X114159597Y-118021429D02*
X113259597Y-118021429D01*
X114116740Y-118021429D02*
X114159597Y-118107143D01*
X114159597Y-118107143D02*
X114159597Y-118278571D01*
X114159597Y-118278571D02*
X114116740Y-118364286D01*
X114116740Y-118364286D02*
X114073882Y-118407143D01*
X114073882Y-118407143D02*
X113988168Y-118450000D01*
X113988168Y-118450000D02*
X113731025Y-118450000D01*
X113731025Y-118450000D02*
X113645311Y-118407143D01*
X113645311Y-118407143D02*
X113602454Y-118364286D01*
X113602454Y-118364286D02*
X113559597Y-118278571D01*
X113559597Y-118278571D02*
X113559597Y-118107143D01*
X113559597Y-118107143D02*
X113602454Y-118021429D01*
X114159597Y-117207143D02*
X113688168Y-117207143D01*
X113688168Y-117207143D02*
X113602454Y-117250000D01*
X113602454Y-117250000D02*
X113559597Y-117335714D01*
X113559597Y-117335714D02*
X113559597Y-117507143D01*
X113559597Y-117507143D02*
X113602454Y-117592857D01*
X114116740Y-117207143D02*
X114159597Y-117292857D01*
X114159597Y-117292857D02*
X114159597Y-117507143D01*
X114159597Y-117507143D02*
X114116740Y-117592857D01*
X114116740Y-117592857D02*
X114031025Y-117635714D01*
X114031025Y-117635714D02*
X113945311Y-117635714D01*
X113945311Y-117635714D02*
X113859597Y-117592857D01*
X113859597Y-117592857D02*
X113816740Y-117507143D01*
X113816740Y-117507143D02*
X113816740Y-117292857D01*
X113816740Y-117292857D02*
X113773882Y-117207143D01*
X114159597Y-116778571D02*
X113559597Y-116778571D01*
X113731025Y-116778571D02*
X113645311Y-116735714D01*
X113645311Y-116735714D02*
X113602454Y-116692857D01*
X113602454Y-116692857D02*
X113559597Y-116607142D01*
X113559597Y-116607142D02*
X113559597Y-116521428D01*
X114159597Y-115835714D02*
X113259597Y-115835714D01*
X114116740Y-115835714D02*
X114159597Y-115921428D01*
X114159597Y-115921428D02*
X114159597Y-116092856D01*
X114159597Y-116092856D02*
X114116740Y-116178571D01*
X114116740Y-116178571D02*
X114073882Y-116221428D01*
X114073882Y-116221428D02*
X113988168Y-116264285D01*
X113988168Y-116264285D02*
X113731025Y-116264285D01*
X113731025Y-116264285D02*
X113645311Y-116221428D01*
X113645311Y-116221428D02*
X113602454Y-116178571D01*
X113602454Y-116178571D02*
X113559597Y-116092856D01*
X113559597Y-116092856D02*
X113559597Y-115921428D01*
X113559597Y-115921428D02*
X113602454Y-115835714D01*
X114159597Y-114721428D02*
X113259597Y-114721428D01*
X113259597Y-114721428D02*
X113259597Y-114378571D01*
X113259597Y-114378571D02*
X113302454Y-114292856D01*
X113302454Y-114292856D02*
X113345311Y-114249999D01*
X113345311Y-114249999D02*
X113431025Y-114207142D01*
X113431025Y-114207142D02*
X113559597Y-114207142D01*
X113559597Y-114207142D02*
X113645311Y-114249999D01*
X113645311Y-114249999D02*
X113688168Y-114292856D01*
X113688168Y-114292856D02*
X113731025Y-114378571D01*
X113731025Y-114378571D02*
X113731025Y-114721428D01*
X114159597Y-113821428D02*
X113559597Y-113821428D01*
X113731025Y-113821428D02*
X113645311Y-113778571D01*
X113645311Y-113778571D02*
X113602454Y-113735714D01*
X113602454Y-113735714D02*
X113559597Y-113649999D01*
X113559597Y-113649999D02*
X113559597Y-113564285D01*
X114159597Y-113135713D02*
X114116740Y-113221428D01*
X114116740Y-113221428D02*
X114073882Y-113264285D01*
X114073882Y-113264285D02*
X113988168Y-113307142D01*
X113988168Y-113307142D02*
X113731025Y-113307142D01*
X113731025Y-113307142D02*
X113645311Y-113264285D01*
X113645311Y-113264285D02*
X113602454Y-113221428D01*
X113602454Y-113221428D02*
X113559597Y-113135713D01*
X113559597Y-113135713D02*
X113559597Y-113007142D01*
X113559597Y-113007142D02*
X113602454Y-112921428D01*
X113602454Y-112921428D02*
X113645311Y-112878571D01*
X113645311Y-112878571D02*
X113731025Y-112835713D01*
X113731025Y-112835713D02*
X113988168Y-112835713D01*
X113988168Y-112835713D02*
X114073882Y-112878571D01*
X114073882Y-112878571D02*
X114116740Y-112921428D01*
X114116740Y-112921428D02*
X114159597Y-113007142D01*
X114159597Y-113007142D02*
X114159597Y-113135713D01*
X113559597Y-112578570D02*
X113559597Y-112235713D01*
X113259597Y-112449999D02*
X114031025Y-112449999D01*
X114031025Y-112449999D02*
X114116740Y-112407142D01*
X114116740Y-112407142D02*
X114159597Y-112321427D01*
X114159597Y-112321427D02*
X114159597Y-112235713D01*
X114159597Y-111807141D02*
X114116740Y-111892856D01*
X114116740Y-111892856D02*
X114073882Y-111935713D01*
X114073882Y-111935713D02*
X113988168Y-111978570D01*
X113988168Y-111978570D02*
X113731025Y-111978570D01*
X113731025Y-111978570D02*
X113645311Y-111935713D01*
X113645311Y-111935713D02*
X113602454Y-111892856D01*
X113602454Y-111892856D02*
X113559597Y-111807141D01*
X113559597Y-111807141D02*
X113559597Y-111678570D01*
X113559597Y-111678570D02*
X113602454Y-111592856D01*
X113602454Y-111592856D02*
X113645311Y-111549999D01*
X113645311Y-111549999D02*
X113731025Y-111507141D01*
X113731025Y-111507141D02*
X113988168Y-111507141D01*
X113988168Y-111507141D02*
X114073882Y-111549999D01*
X114073882Y-111549999D02*
X114116740Y-111592856D01*
X114116740Y-111592856D02*
X114159597Y-111678570D01*
X114159597Y-111678570D02*
X114159597Y-111807141D01*
X113559597Y-111249998D02*
X113559597Y-110907141D01*
X113259597Y-111121427D02*
X114031025Y-111121427D01*
X114031025Y-111121427D02*
X114116740Y-111078570D01*
X114116740Y-111078570D02*
X114159597Y-110992855D01*
X114159597Y-110992855D02*
X114159597Y-110907141D01*
X113559597Y-110692855D02*
X114159597Y-110478569D01*
X113559597Y-110264284D02*
X114159597Y-110478569D01*
X114159597Y-110478569D02*
X114373882Y-110564284D01*
X114373882Y-110564284D02*
X114416740Y-110607141D01*
X114416740Y-110607141D02*
X114459597Y-110692855D01*
X113559597Y-109921427D02*
X114459597Y-109921427D01*
X113602454Y-109921427D02*
X113559597Y-109835713D01*
X113559597Y-109835713D02*
X113559597Y-109664284D01*
X113559597Y-109664284D02*
X113602454Y-109578570D01*
X113602454Y-109578570D02*
X113645311Y-109535713D01*
X113645311Y-109535713D02*
X113731025Y-109492855D01*
X113731025Y-109492855D02*
X113988168Y-109492855D01*
X113988168Y-109492855D02*
X114073882Y-109535713D01*
X114073882Y-109535713D02*
X114116740Y-109578570D01*
X114116740Y-109578570D02*
X114159597Y-109664284D01*
X114159597Y-109664284D02*
X114159597Y-109835713D01*
X114159597Y-109835713D02*
X114116740Y-109921427D01*
X114116740Y-108764284D02*
X114159597Y-108849998D01*
X114159597Y-108849998D02*
X114159597Y-109021427D01*
X114159597Y-109021427D02*
X114116740Y-109107141D01*
X114116740Y-109107141D02*
X114031025Y-109149998D01*
X114031025Y-109149998D02*
X113688168Y-109149998D01*
X113688168Y-109149998D02*
X113602454Y-109107141D01*
X113602454Y-109107141D02*
X113559597Y-109021427D01*
X113559597Y-109021427D02*
X113559597Y-108849998D01*
X113559597Y-108849998D02*
X113602454Y-108764284D01*
X113602454Y-108764284D02*
X113688168Y-108721427D01*
X113688168Y-108721427D02*
X113773882Y-108721427D01*
X113773882Y-108721427D02*
X113859597Y-109149998D01*
X113259597Y-107778569D02*
X114159597Y-107478569D01*
X114159597Y-107478569D02*
X113259597Y-107178569D01*
X114159597Y-106407140D02*
X114159597Y-106921426D01*
X114159597Y-106664283D02*
X113259597Y-106664283D01*
X113259597Y-106664283D02*
X113388168Y-106749997D01*
X113388168Y-106749997D02*
X113473882Y-106835712D01*
X113473882Y-106835712D02*
X113516740Y-106921426D01*
X114116740Y-105378569D02*
X114159597Y-105249998D01*
X114159597Y-105249998D02*
X114159597Y-105035712D01*
X114159597Y-105035712D02*
X114116740Y-104949998D01*
X114116740Y-104949998D02*
X114073882Y-104907140D01*
X114073882Y-104907140D02*
X113988168Y-104864283D01*
X113988168Y-104864283D02*
X113902454Y-104864283D01*
X113902454Y-104864283D02*
X113816740Y-104907140D01*
X113816740Y-104907140D02*
X113773882Y-104949998D01*
X113773882Y-104949998D02*
X113731025Y-105035712D01*
X113731025Y-105035712D02*
X113688168Y-105207140D01*
X113688168Y-105207140D02*
X113645311Y-105292855D01*
X113645311Y-105292855D02*
X113602454Y-105335712D01*
X113602454Y-105335712D02*
X113516740Y-105378569D01*
X113516740Y-105378569D02*
X113431025Y-105378569D01*
X113431025Y-105378569D02*
X113345311Y-105335712D01*
X113345311Y-105335712D02*
X113302454Y-105292855D01*
X113302454Y-105292855D02*
X113259597Y-105207140D01*
X113259597Y-105207140D02*
X113259597Y-104992855D01*
X113259597Y-104992855D02*
X113302454Y-104864283D01*
X113559597Y-104478569D02*
X114459597Y-104478569D01*
X113602454Y-104478569D02*
X113559597Y-104392855D01*
X113559597Y-104392855D02*
X113559597Y-104221426D01*
X113559597Y-104221426D02*
X113602454Y-104135712D01*
X113602454Y-104135712D02*
X113645311Y-104092855D01*
X113645311Y-104092855D02*
X113731025Y-104049997D01*
X113731025Y-104049997D02*
X113988168Y-104049997D01*
X113988168Y-104049997D02*
X114073882Y-104092855D01*
X114073882Y-104092855D02*
X114116740Y-104135712D01*
X114116740Y-104135712D02*
X114159597Y-104221426D01*
X114159597Y-104221426D02*
X114159597Y-104392855D01*
X114159597Y-104392855D02*
X114116740Y-104478569D01*
X114159597Y-103664283D02*
X113559597Y-103664283D01*
X113259597Y-103664283D02*
X113302454Y-103707140D01*
X113302454Y-103707140D02*
X113345311Y-103664283D01*
X113345311Y-103664283D02*
X113302454Y-103621426D01*
X113302454Y-103621426D02*
X113259597Y-103664283D01*
X113259597Y-103664283D02*
X113345311Y-103664283D01*
X113559597Y-103235712D02*
X114159597Y-103235712D01*
X113645311Y-103235712D02*
X113602454Y-103192855D01*
X113602454Y-103192855D02*
X113559597Y-103107140D01*
X113559597Y-103107140D02*
X113559597Y-102978569D01*
X113559597Y-102978569D02*
X113602454Y-102892855D01*
X113602454Y-102892855D02*
X113688168Y-102849998D01*
X113688168Y-102849998D02*
X114159597Y-102849998D01*
D11*
X138204819Y-83342857D02*
X137728628Y-83676190D01*
X138204819Y-83914285D02*
X137204819Y-83914285D01*
X137204819Y-83914285D02*
X137204819Y-83533333D01*
X137204819Y-83533333D02*
X137252438Y-83438095D01*
X137252438Y-83438095D02*
X137300057Y-83390476D01*
X137300057Y-83390476D02*
X137395295Y-83342857D01*
X137395295Y-83342857D02*
X137538152Y-83342857D01*
X137538152Y-83342857D02*
X137633390Y-83390476D01*
X137633390Y-83390476D02*
X137681009Y-83438095D01*
X137681009Y-83438095D02*
X137728628Y-83533333D01*
X137728628Y-83533333D02*
X137728628Y-83914285D01*
X138157200Y-82961904D02*
X138204819Y-82819047D01*
X138204819Y-82819047D02*
X138204819Y-82580952D01*
X138204819Y-82580952D02*
X138157200Y-82485714D01*
X138157200Y-82485714D02*
X138109580Y-82438095D01*
X138109580Y-82438095D02*
X138014342Y-82390476D01*
X138014342Y-82390476D02*
X137919104Y-82390476D01*
X137919104Y-82390476D02*
X137823866Y-82438095D01*
X137823866Y-82438095D02*
X137776247Y-82485714D01*
X137776247Y-82485714D02*
X137728628Y-82580952D01*
X137728628Y-82580952D02*
X137681009Y-82771428D01*
X137681009Y-82771428D02*
X137633390Y-82866666D01*
X137633390Y-82866666D02*
X137585771Y-82914285D01*
X137585771Y-82914285D02*
X137490533Y-82961904D01*
X137490533Y-82961904D02*
X137395295Y-82961904D01*
X137395295Y-82961904D02*
X137300057Y-82914285D01*
X137300057Y-82914285D02*
X137252438Y-82866666D01*
X137252438Y-82866666D02*
X137204819Y-82771428D01*
X137204819Y-82771428D02*
X137204819Y-82533333D01*
X137204819Y-82533333D02*
X137252438Y-82390476D01*
X137538152Y-81533333D02*
X138204819Y-81533333D01*
X137157200Y-81771428D02*
X137871485Y-82009523D01*
X137871485Y-82009523D02*
X137871485Y-81390476D01*
X132704819Y-79152380D02*
X132704819Y-79723808D01*
X132704819Y-79438094D02*
X131704819Y-79438094D01*
X131704819Y-79438094D02*
X131847676Y-79533332D01*
X131847676Y-79533332D02*
X131942914Y-79628570D01*
X131942914Y-79628570D02*
X131990533Y-79723808D01*
X132704819Y-78723808D02*
X132038152Y-78723808D01*
X132133390Y-78723808D02*
X132085771Y-78676189D01*
X132085771Y-78676189D02*
X132038152Y-78580951D01*
X132038152Y-78580951D02*
X132038152Y-78438094D01*
X132038152Y-78438094D02*
X132085771Y-78342856D01*
X132085771Y-78342856D02*
X132181009Y-78295237D01*
X132181009Y-78295237D02*
X132704819Y-78295237D01*
X132181009Y-78295237D02*
X132085771Y-78247618D01*
X132085771Y-78247618D02*
X132038152Y-78152380D01*
X132038152Y-78152380D02*
X132038152Y-78009523D01*
X132038152Y-78009523D02*
X132085771Y-77914284D01*
X132085771Y-77914284D02*
X132181009Y-77866665D01*
X132181009Y-77866665D02*
X132704819Y-77866665D01*
X132704819Y-77438094D02*
X132704819Y-77199999D01*
X132704819Y-77199999D02*
X132514342Y-77199999D01*
X132514342Y-77199999D02*
X132466723Y-77295237D01*
X132466723Y-77295237D02*
X132371485Y-77390475D01*
X132371485Y-77390475D02*
X132228628Y-77438094D01*
X132228628Y-77438094D02*
X131990533Y-77438094D01*
X131990533Y-77438094D02*
X131847676Y-77390475D01*
X131847676Y-77390475D02*
X131752438Y-77295237D01*
X131752438Y-77295237D02*
X131704819Y-77152380D01*
X131704819Y-77152380D02*
X131704819Y-76961904D01*
X131704819Y-76961904D02*
X131752438Y-76819047D01*
X131752438Y-76819047D02*
X131847676Y-76723809D01*
X131847676Y-76723809D02*
X131990533Y-76676190D01*
X131990533Y-76676190D02*
X132228628Y-76676190D01*
X132228628Y-76676190D02*
X132371485Y-76723809D01*
X132371485Y-76723809D02*
X132466723Y-76819047D01*
X132466723Y-76819047D02*
X132514342Y-76914285D01*
X132514342Y-76914285D02*
X132704819Y-76914285D01*
X132704819Y-76914285D02*
X132704819Y-76676190D01*
X138704819Y-88869047D02*
X138228628Y-89202380D01*
X138704819Y-89440475D02*
X137704819Y-89440475D01*
X137704819Y-89440475D02*
X137704819Y-89059523D01*
X137704819Y-89059523D02*
X137752438Y-88964285D01*
X137752438Y-88964285D02*
X137800057Y-88916666D01*
X137800057Y-88916666D02*
X137895295Y-88869047D01*
X137895295Y-88869047D02*
X138038152Y-88869047D01*
X138038152Y-88869047D02*
X138133390Y-88916666D01*
X138133390Y-88916666D02*
X138181009Y-88964285D01*
X138181009Y-88964285D02*
X138228628Y-89059523D01*
X138228628Y-89059523D02*
X138228628Y-89440475D01*
X138181009Y-88107142D02*
X138181009Y-88440475D01*
X138704819Y-88440475D02*
X137704819Y-88440475D01*
X137704819Y-88440475D02*
X137704819Y-87964285D01*
X138704819Y-87583332D02*
X137704819Y-87583332D01*
X138181009Y-87583332D02*
X138181009Y-87011904D01*
X138704819Y-87011904D02*
X137704819Y-87011904D01*
X137704819Y-86059523D02*
X137704819Y-86535713D01*
X137704819Y-86535713D02*
X138181009Y-86583332D01*
X138181009Y-86583332D02*
X138133390Y-86535713D01*
X138133390Y-86535713D02*
X138085771Y-86440475D01*
X138085771Y-86440475D02*
X138085771Y-86202380D01*
X138085771Y-86202380D02*
X138133390Y-86107142D01*
X138133390Y-86107142D02*
X138181009Y-86059523D01*
X138181009Y-86059523D02*
X138276247Y-86011904D01*
X138276247Y-86011904D02*
X138514342Y-86011904D01*
X138514342Y-86011904D02*
X138609580Y-86059523D01*
X138609580Y-86059523D02*
X138657200Y-86107142D01*
X138657200Y-86107142D02*
X138704819Y-86202380D01*
X138704819Y-86202380D02*
X138704819Y-86440475D01*
X138704819Y-86440475D02*
X138657200Y-86535713D01*
X138657200Y-86535713D02*
X138609580Y-86583332D01*
X156875595Y-101004819D02*
X156875595Y-101814342D01*
X156875595Y-101814342D02*
X156923214Y-101909580D01*
X156923214Y-101909580D02*
X156970833Y-101957200D01*
X156970833Y-101957200D02*
X157066071Y-102004819D01*
X157066071Y-102004819D02*
X157256547Y-102004819D01*
X157256547Y-102004819D02*
X157351785Y-101957200D01*
X157351785Y-101957200D02*
X157399404Y-101909580D01*
X157399404Y-101909580D02*
X157447023Y-101814342D01*
X157447023Y-101814342D02*
X157447023Y-101004819D01*
X157827976Y-101004819D02*
X158447023Y-101004819D01*
X158447023Y-101004819D02*
X158113690Y-101385771D01*
X158113690Y-101385771D02*
X158256547Y-101385771D01*
X158256547Y-101385771D02*
X158351785Y-101433390D01*
X158351785Y-101433390D02*
X158399404Y-101481009D01*
X158399404Y-101481009D02*
X158447023Y-101576247D01*
X158447023Y-101576247D02*
X158447023Y-101814342D01*
X158447023Y-101814342D02*
X158399404Y-101909580D01*
X158399404Y-101909580D02*
X158351785Y-101957200D01*
X158351785Y-101957200D02*
X158256547Y-102004819D01*
X158256547Y-102004819D02*
X157970833Y-102004819D01*
X157970833Y-102004819D02*
X157875595Y-101957200D01*
X157875595Y-101957200D02*
X157827976Y-101909580D01*
X153369047Y-106954819D02*
X152892857Y-106954819D01*
X152892857Y-106954819D02*
X152892857Y-105954819D01*
X153702381Y-106954819D02*
X153702381Y-105954819D01*
X153702381Y-105954819D02*
X154083333Y-105954819D01*
X154083333Y-105954819D02*
X154178571Y-106002438D01*
X154178571Y-106002438D02*
X154226190Y-106050057D01*
X154226190Y-106050057D02*
X154273809Y-106145295D01*
X154273809Y-106145295D02*
X154273809Y-106288152D01*
X154273809Y-106288152D02*
X154226190Y-106383390D01*
X154226190Y-106383390D02*
X154178571Y-106431009D01*
X154178571Y-106431009D02*
X154083333Y-106478628D01*
X154083333Y-106478628D02*
X153702381Y-106478628D01*
X155178571Y-105954819D02*
X154702381Y-105954819D01*
X154702381Y-105954819D02*
X154654762Y-106431009D01*
X154654762Y-106431009D02*
X154702381Y-106383390D01*
X154702381Y-106383390D02*
X154797619Y-106335771D01*
X154797619Y-106335771D02*
X155035714Y-106335771D01*
X155035714Y-106335771D02*
X155130952Y-106383390D01*
X155130952Y-106383390D02*
X155178571Y-106431009D01*
X155178571Y-106431009D02*
X155226190Y-106526247D01*
X155226190Y-106526247D02*
X155226190Y-106764342D01*
X155226190Y-106764342D02*
X155178571Y-106859580D01*
X155178571Y-106859580D02*
X155130952Y-106907200D01*
X155130952Y-106907200D02*
X155035714Y-106954819D01*
X155035714Y-106954819D02*
X154797619Y-106954819D01*
X154797619Y-106954819D02*
X154702381Y-106907200D01*
X154702381Y-106907200D02*
X154654762Y-106859580D01*
X155702381Y-106954819D02*
X155892857Y-106954819D01*
X155892857Y-106954819D02*
X155988095Y-106907200D01*
X155988095Y-106907200D02*
X156035714Y-106859580D01*
X156035714Y-106859580D02*
X156130952Y-106716723D01*
X156130952Y-106716723D02*
X156178571Y-106526247D01*
X156178571Y-106526247D02*
X156178571Y-106145295D01*
X156178571Y-106145295D02*
X156130952Y-106050057D01*
X156130952Y-106050057D02*
X156083333Y-106002438D01*
X156083333Y-106002438D02*
X155988095Y-105954819D01*
X155988095Y-105954819D02*
X155797619Y-105954819D01*
X155797619Y-105954819D02*
X155702381Y-106002438D01*
X155702381Y-106002438D02*
X155654762Y-106050057D01*
X155654762Y-106050057D02*
X155607143Y-106145295D01*
X155607143Y-106145295D02*
X155607143Y-106383390D01*
X155607143Y-106383390D02*
X155654762Y-106478628D01*
X155654762Y-106478628D02*
X155702381Y-106526247D01*
X155702381Y-106526247D02*
X155797619Y-106573866D01*
X155797619Y-106573866D02*
X155988095Y-106573866D01*
X155988095Y-106573866D02*
X156083333Y-106526247D01*
X156083333Y-106526247D02*
X156130952Y-106478628D01*
X156130952Y-106478628D02*
X156178571Y-106383390D01*
X156797619Y-105954819D02*
X156892857Y-105954819D01*
X156892857Y-105954819D02*
X156988095Y-106002438D01*
X156988095Y-106002438D02*
X157035714Y-106050057D01*
X157035714Y-106050057D02*
X157083333Y-106145295D01*
X157083333Y-106145295D02*
X157130952Y-106335771D01*
X157130952Y-106335771D02*
X157130952Y-106573866D01*
X157130952Y-106573866D02*
X157083333Y-106764342D01*
X157083333Y-106764342D02*
X157035714Y-106859580D01*
X157035714Y-106859580D02*
X156988095Y-106907200D01*
X156988095Y-106907200D02*
X156892857Y-106954819D01*
X156892857Y-106954819D02*
X156797619Y-106954819D01*
X156797619Y-106954819D02*
X156702381Y-106907200D01*
X156702381Y-106907200D02*
X156654762Y-106859580D01*
X156654762Y-106859580D02*
X156607143Y-106764342D01*
X156607143Y-106764342D02*
X156559524Y-106573866D01*
X156559524Y-106573866D02*
X156559524Y-106335771D01*
X156559524Y-106335771D02*
X156607143Y-106145295D01*
X156607143Y-106145295D02*
X156654762Y-106050057D01*
X156654762Y-106050057D02*
X156702381Y-106002438D01*
X156702381Y-106002438D02*
X156797619Y-105954819D01*
X157464286Y-105954819D02*
X158130952Y-105954819D01*
X158130952Y-105954819D02*
X157702381Y-106954819D01*
X158511905Y-106954819D02*
X158511905Y-105954819D01*
X158511905Y-105954819D02*
X158845238Y-106669104D01*
X158845238Y-106669104D02*
X159178571Y-105954819D01*
X159178571Y-105954819D02*
X159178571Y-106954819D01*
X159988095Y-106431009D02*
X159654762Y-106431009D01*
X159654762Y-106954819D02*
X159654762Y-105954819D01*
X159654762Y-105954819D02*
X160130952Y-105954819D01*
X160416667Y-105954819D02*
X161083333Y-106954819D01*
X161083333Y-105954819D02*
X160416667Y-106954819D01*
X161464286Y-106573866D02*
X162226191Y-106573866D01*
X162607143Y-105954819D02*
X163226190Y-105954819D01*
X163226190Y-105954819D02*
X162892857Y-106335771D01*
X162892857Y-106335771D02*
X163035714Y-106335771D01*
X163035714Y-106335771D02*
X163130952Y-106383390D01*
X163130952Y-106383390D02*
X163178571Y-106431009D01*
X163178571Y-106431009D02*
X163226190Y-106526247D01*
X163226190Y-106526247D02*
X163226190Y-106764342D01*
X163226190Y-106764342D02*
X163178571Y-106859580D01*
X163178571Y-106859580D02*
X163130952Y-106907200D01*
X163130952Y-106907200D02*
X163035714Y-106954819D01*
X163035714Y-106954819D02*
X162750000Y-106954819D01*
X162750000Y-106954819D02*
X162654762Y-106907200D01*
X162654762Y-106907200D02*
X162607143Y-106859580D01*
X163654762Y-106859580D02*
X163702381Y-106907200D01*
X163702381Y-106907200D02*
X163654762Y-106954819D01*
X163654762Y-106954819D02*
X163607143Y-106907200D01*
X163607143Y-106907200D02*
X163654762Y-106859580D01*
X163654762Y-106859580D02*
X163654762Y-106954819D01*
X164035714Y-105954819D02*
X164654761Y-105954819D01*
X164654761Y-105954819D02*
X164321428Y-106335771D01*
X164321428Y-106335771D02*
X164464285Y-106335771D01*
X164464285Y-106335771D02*
X164559523Y-106383390D01*
X164559523Y-106383390D02*
X164607142Y-106431009D01*
X164607142Y-106431009D02*
X164654761Y-106526247D01*
X164654761Y-106526247D02*
X164654761Y-106764342D01*
X164654761Y-106764342D02*
X164607142Y-106859580D01*
X164607142Y-106859580D02*
X164559523Y-106907200D01*
X164559523Y-106907200D02*
X164464285Y-106954819D01*
X164464285Y-106954819D02*
X164178571Y-106954819D01*
X164178571Y-106954819D02*
X164083333Y-106907200D01*
X164083333Y-106907200D02*
X164035714Y-106859580D01*
X162359580Y-101916666D02*
X162407200Y-101964285D01*
X162407200Y-101964285D02*
X162454819Y-102107142D01*
X162454819Y-102107142D02*
X162454819Y-102202380D01*
X162454819Y-102202380D02*
X162407200Y-102345237D01*
X162407200Y-102345237D02*
X162311961Y-102440475D01*
X162311961Y-102440475D02*
X162216723Y-102488094D01*
X162216723Y-102488094D02*
X162026247Y-102535713D01*
X162026247Y-102535713D02*
X161883390Y-102535713D01*
X161883390Y-102535713D02*
X161692914Y-102488094D01*
X161692914Y-102488094D02*
X161597676Y-102440475D01*
X161597676Y-102440475D02*
X161502438Y-102345237D01*
X161502438Y-102345237D02*
X161454819Y-102202380D01*
X161454819Y-102202380D02*
X161454819Y-102107142D01*
X161454819Y-102107142D02*
X161502438Y-101964285D01*
X161502438Y-101964285D02*
X161550057Y-101916666D01*
X161550057Y-101535713D02*
X161502438Y-101488094D01*
X161502438Y-101488094D02*
X161454819Y-101392856D01*
X161454819Y-101392856D02*
X161454819Y-101154761D01*
X161454819Y-101154761D02*
X161502438Y-101059523D01*
X161502438Y-101059523D02*
X161550057Y-101011904D01*
X161550057Y-101011904D02*
X161645295Y-100964285D01*
X161645295Y-100964285D02*
X161740533Y-100964285D01*
X161740533Y-100964285D02*
X161883390Y-101011904D01*
X161883390Y-101011904D02*
X162454819Y-101583332D01*
X162454819Y-101583332D02*
X162454819Y-100964285D01*
X123357142Y-91359580D02*
X123309523Y-91407200D01*
X123309523Y-91407200D02*
X123166666Y-91454819D01*
X123166666Y-91454819D02*
X123071428Y-91454819D01*
X123071428Y-91454819D02*
X122928571Y-91407200D01*
X122928571Y-91407200D02*
X122833333Y-91311961D01*
X122833333Y-91311961D02*
X122785714Y-91216723D01*
X122785714Y-91216723D02*
X122738095Y-91026247D01*
X122738095Y-91026247D02*
X122738095Y-90883390D01*
X122738095Y-90883390D02*
X122785714Y-90692914D01*
X122785714Y-90692914D02*
X122833333Y-90597676D01*
X122833333Y-90597676D02*
X122928571Y-90502438D01*
X122928571Y-90502438D02*
X123071428Y-90454819D01*
X123071428Y-90454819D02*
X123166666Y-90454819D01*
X123166666Y-90454819D02*
X123309523Y-90502438D01*
X123309523Y-90502438D02*
X123357142Y-90550057D01*
X124309523Y-91454819D02*
X123738095Y-91454819D01*
X124023809Y-91454819D02*
X124023809Y-90454819D01*
X124023809Y-90454819D02*
X123928571Y-90597676D01*
X123928571Y-90597676D02*
X123833333Y-90692914D01*
X123833333Y-90692914D02*
X123738095Y-90740533D01*
X125261904Y-91454819D02*
X124690476Y-91454819D01*
X124976190Y-91454819D02*
X124976190Y-90454819D01*
X124976190Y-90454819D02*
X124880952Y-90597676D01*
X124880952Y-90597676D02*
X124785714Y-90692914D01*
X124785714Y-90692914D02*
X124690476Y-90740533D01*
X120704819Y-88869047D02*
X120228628Y-89202380D01*
X120704819Y-89440475D02*
X119704819Y-89440475D01*
X119704819Y-89440475D02*
X119704819Y-89059523D01*
X119704819Y-89059523D02*
X119752438Y-88964285D01*
X119752438Y-88964285D02*
X119800057Y-88916666D01*
X119800057Y-88916666D02*
X119895295Y-88869047D01*
X119895295Y-88869047D02*
X120038152Y-88869047D01*
X120038152Y-88869047D02*
X120133390Y-88916666D01*
X120133390Y-88916666D02*
X120181009Y-88964285D01*
X120181009Y-88964285D02*
X120228628Y-89059523D01*
X120228628Y-89059523D02*
X120228628Y-89440475D01*
X120181009Y-88107142D02*
X120181009Y-88440475D01*
X120704819Y-88440475D02*
X119704819Y-88440475D01*
X119704819Y-88440475D02*
X119704819Y-87964285D01*
X120704819Y-87583332D02*
X119704819Y-87583332D01*
X120181009Y-87583332D02*
X120181009Y-87011904D01*
X120704819Y-87011904D02*
X119704819Y-87011904D01*
X119800057Y-86583332D02*
X119752438Y-86535713D01*
X119752438Y-86535713D02*
X119704819Y-86440475D01*
X119704819Y-86440475D02*
X119704819Y-86202380D01*
X119704819Y-86202380D02*
X119752438Y-86107142D01*
X119752438Y-86107142D02*
X119800057Y-86059523D01*
X119800057Y-86059523D02*
X119895295Y-86011904D01*
X119895295Y-86011904D02*
X119990533Y-86011904D01*
X119990533Y-86011904D02*
X120133390Y-86059523D01*
X120133390Y-86059523D02*
X120704819Y-86630951D01*
X120704819Y-86630951D02*
X120704819Y-86011904D01*
X130714286Y-75204819D02*
X131285714Y-75204819D01*
X131000000Y-76204819D02*
X131000000Y-75204819D01*
X131619048Y-76204819D02*
X131619048Y-75204819D01*
X131619048Y-75681009D02*
X132190476Y-75681009D01*
X132190476Y-76204819D02*
X132190476Y-75204819D01*
X133190476Y-76204819D02*
X132619048Y-76204819D01*
X132904762Y-76204819D02*
X132904762Y-75204819D01*
X132904762Y-75204819D02*
X132809524Y-75347676D01*
X132809524Y-75347676D02*
X132714286Y-75442914D01*
X132714286Y-75442914D02*
X132619048Y-75490533D01*
X114359580Y-92545238D02*
X114407200Y-92592857D01*
X114407200Y-92592857D02*
X114454819Y-92735714D01*
X114454819Y-92735714D02*
X114454819Y-92830952D01*
X114454819Y-92830952D02*
X114407200Y-92973809D01*
X114407200Y-92973809D02*
X114311961Y-93069047D01*
X114311961Y-93069047D02*
X114216723Y-93116666D01*
X114216723Y-93116666D02*
X114026247Y-93164285D01*
X114026247Y-93164285D02*
X113883390Y-93164285D01*
X113883390Y-93164285D02*
X113692914Y-93116666D01*
X113692914Y-93116666D02*
X113597676Y-93069047D01*
X113597676Y-93069047D02*
X113502438Y-92973809D01*
X113502438Y-92973809D02*
X113454819Y-92830952D01*
X113454819Y-92830952D02*
X113454819Y-92735714D01*
X113454819Y-92735714D02*
X113502438Y-92592857D01*
X113502438Y-92592857D02*
X113550057Y-92545238D01*
X113931009Y-91783333D02*
X113931009Y-92116666D01*
X114454819Y-92116666D02*
X113454819Y-92116666D01*
X113454819Y-92116666D02*
X113454819Y-91640476D01*
X114454819Y-90735714D02*
X114454819Y-91307142D01*
X114454819Y-91021428D02*
X113454819Y-91021428D01*
X113454819Y-91021428D02*
X113597676Y-91116666D01*
X113597676Y-91116666D02*
X113692914Y-91211904D01*
X113692914Y-91211904D02*
X113740533Y-91307142D01*
X172907200Y-112833332D02*
X172954819Y-112690475D01*
X172954819Y-112690475D02*
X172954819Y-112452380D01*
X172954819Y-112452380D02*
X172907200Y-112357142D01*
X172907200Y-112357142D02*
X172859580Y-112309523D01*
X172859580Y-112309523D02*
X172764342Y-112261904D01*
X172764342Y-112261904D02*
X172669104Y-112261904D01*
X172669104Y-112261904D02*
X172573866Y-112309523D01*
X172573866Y-112309523D02*
X172526247Y-112357142D01*
X172526247Y-112357142D02*
X172478628Y-112452380D01*
X172478628Y-112452380D02*
X172431009Y-112642856D01*
X172431009Y-112642856D02*
X172383390Y-112738094D01*
X172383390Y-112738094D02*
X172335771Y-112785713D01*
X172335771Y-112785713D02*
X172240533Y-112833332D01*
X172240533Y-112833332D02*
X172145295Y-112833332D01*
X172145295Y-112833332D02*
X172050057Y-112785713D01*
X172050057Y-112785713D02*
X172002438Y-112738094D01*
X172002438Y-112738094D02*
X171954819Y-112642856D01*
X171954819Y-112642856D02*
X171954819Y-112404761D01*
X171954819Y-112404761D02*
X172002438Y-112261904D01*
X171954819Y-111928570D02*
X172954819Y-111690475D01*
X172954819Y-111690475D02*
X172240533Y-111499999D01*
X172240533Y-111499999D02*
X172954819Y-111309523D01*
X172954819Y-111309523D02*
X171954819Y-111071428D01*
X172050057Y-110738094D02*
X172002438Y-110690475D01*
X172002438Y-110690475D02*
X171954819Y-110595237D01*
X171954819Y-110595237D02*
X171954819Y-110357142D01*
X171954819Y-110357142D02*
X172002438Y-110261904D01*
X172002438Y-110261904D02*
X172050057Y-110214285D01*
X172050057Y-110214285D02*
X172145295Y-110166666D01*
X172145295Y-110166666D02*
X172240533Y-110166666D01*
X172240533Y-110166666D02*
X172383390Y-110214285D01*
X172383390Y-110214285D02*
X172954819Y-110785713D01*
X172954819Y-110785713D02*
X172954819Y-110166666D01*
X172907200Y-104833332D02*
X172954819Y-104690475D01*
X172954819Y-104690475D02*
X172954819Y-104452380D01*
X172954819Y-104452380D02*
X172907200Y-104357142D01*
X172907200Y-104357142D02*
X172859580Y-104309523D01*
X172859580Y-104309523D02*
X172764342Y-104261904D01*
X172764342Y-104261904D02*
X172669104Y-104261904D01*
X172669104Y-104261904D02*
X172573866Y-104309523D01*
X172573866Y-104309523D02*
X172526247Y-104357142D01*
X172526247Y-104357142D02*
X172478628Y-104452380D01*
X172478628Y-104452380D02*
X172431009Y-104642856D01*
X172431009Y-104642856D02*
X172383390Y-104738094D01*
X172383390Y-104738094D02*
X172335771Y-104785713D01*
X172335771Y-104785713D02*
X172240533Y-104833332D01*
X172240533Y-104833332D02*
X172145295Y-104833332D01*
X172145295Y-104833332D02*
X172050057Y-104785713D01*
X172050057Y-104785713D02*
X172002438Y-104738094D01*
X172002438Y-104738094D02*
X171954819Y-104642856D01*
X171954819Y-104642856D02*
X171954819Y-104404761D01*
X171954819Y-104404761D02*
X172002438Y-104261904D01*
X171954819Y-103928570D02*
X172954819Y-103690475D01*
X172954819Y-103690475D02*
X172240533Y-103499999D01*
X172240533Y-103499999D02*
X172954819Y-103309523D01*
X172954819Y-103309523D02*
X171954819Y-103071428D01*
X172954819Y-102166666D02*
X172954819Y-102738094D01*
X172954819Y-102452380D02*
X171954819Y-102452380D01*
X171954819Y-102452380D02*
X172097676Y-102547618D01*
X172097676Y-102547618D02*
X172192914Y-102642856D01*
X172192914Y-102642856D02*
X172240533Y-102738094D01*
X142666666Y-56547419D02*
X142666666Y-57261704D01*
X142666666Y-57261704D02*
X142619047Y-57404561D01*
X142619047Y-57404561D02*
X142523809Y-57499800D01*
X142523809Y-57499800D02*
X142380952Y-57547419D01*
X142380952Y-57547419D02*
X142285714Y-57547419D01*
X143047619Y-56547419D02*
X143666666Y-56547419D01*
X143666666Y-56547419D02*
X143333333Y-56928371D01*
X143333333Y-56928371D02*
X143476190Y-56928371D01*
X143476190Y-56928371D02*
X143571428Y-56975990D01*
X143571428Y-56975990D02*
X143619047Y-57023609D01*
X143619047Y-57023609D02*
X143666666Y-57118847D01*
X143666666Y-57118847D02*
X143666666Y-57356942D01*
X143666666Y-57356942D02*
X143619047Y-57452180D01*
X143619047Y-57452180D02*
X143571428Y-57499800D01*
X143571428Y-57499800D02*
X143476190Y-57547419D01*
X143476190Y-57547419D02*
X143190476Y-57547419D01*
X143190476Y-57547419D02*
X143095238Y-57499800D01*
X143095238Y-57499800D02*
X143047619Y-57452180D01*
X128261904Y-68047419D02*
X127690476Y-68047419D01*
X127976190Y-68047419D02*
X127976190Y-67047419D01*
X127976190Y-67047419D02*
X127880952Y-67190276D01*
X127880952Y-67190276D02*
X127785714Y-67285514D01*
X127785714Y-67285514D02*
X127690476Y-67333133D01*
X128642857Y-67142657D02*
X128690476Y-67095038D01*
X128690476Y-67095038D02*
X128785714Y-67047419D01*
X128785714Y-67047419D02*
X129023809Y-67047419D01*
X129023809Y-67047419D02*
X129119047Y-67095038D01*
X129119047Y-67095038D02*
X129166666Y-67142657D01*
X129166666Y-67142657D02*
X129214285Y-67237895D01*
X129214285Y-67237895D02*
X129214285Y-67333133D01*
X129214285Y-67333133D02*
X129166666Y-67475990D01*
X129166666Y-67475990D02*
X128595238Y-68047419D01*
X128595238Y-68047419D02*
X129214285Y-68047419D01*
X129500000Y-67047419D02*
X129833333Y-68047419D01*
X129833333Y-68047419D02*
X130166666Y-67047419D01*
X130500000Y-67666466D02*
X131261905Y-67666466D01*
X131690476Y-67142657D02*
X131738095Y-67095038D01*
X131738095Y-67095038D02*
X131833333Y-67047419D01*
X131833333Y-67047419D02*
X132071428Y-67047419D01*
X132071428Y-67047419D02*
X132166666Y-67095038D01*
X132166666Y-67095038D02*
X132214285Y-67142657D01*
X132214285Y-67142657D02*
X132261904Y-67237895D01*
X132261904Y-67237895D02*
X132261904Y-67333133D01*
X132261904Y-67333133D02*
X132214285Y-67475990D01*
X132214285Y-67475990D02*
X131642857Y-68047419D01*
X131642857Y-68047419D02*
X132261904Y-68047419D01*
X132595238Y-68047419D02*
X133119047Y-67380752D01*
X132595238Y-67380752D02*
X133119047Y-68047419D01*
X133928571Y-67047419D02*
X133738095Y-67047419D01*
X133738095Y-67047419D02*
X133642857Y-67095038D01*
X133642857Y-67095038D02*
X133595238Y-67142657D01*
X133595238Y-67142657D02*
X133500000Y-67285514D01*
X133500000Y-67285514D02*
X133452381Y-67475990D01*
X133452381Y-67475990D02*
X133452381Y-67856942D01*
X133452381Y-67856942D02*
X133500000Y-67952180D01*
X133500000Y-67952180D02*
X133547619Y-67999800D01*
X133547619Y-67999800D02*
X133642857Y-68047419D01*
X133642857Y-68047419D02*
X133833333Y-68047419D01*
X133833333Y-68047419D02*
X133928571Y-67999800D01*
X133928571Y-67999800D02*
X133976190Y-67952180D01*
X133976190Y-67952180D02*
X134023809Y-67856942D01*
X134023809Y-67856942D02*
X134023809Y-67618847D01*
X134023809Y-67618847D02*
X133976190Y-67523609D01*
X133976190Y-67523609D02*
X133928571Y-67475990D01*
X133928571Y-67475990D02*
X133833333Y-67428371D01*
X133833333Y-67428371D02*
X133642857Y-67428371D01*
X133642857Y-67428371D02*
X133547619Y-67475990D01*
X133547619Y-67475990D02*
X133500000Y-67523609D01*
X133500000Y-67523609D02*
X133452381Y-67618847D01*
X135214286Y-68047419D02*
X135214286Y-67047419D01*
X135690476Y-68047419D02*
X135690476Y-67047419D01*
X135690476Y-67047419D02*
X136261904Y-68047419D01*
X136261904Y-68047419D02*
X136261904Y-67047419D01*
X146204819Y-106511904D02*
X147014342Y-106511904D01*
X147014342Y-106511904D02*
X147109580Y-106464285D01*
X147109580Y-106464285D02*
X147157200Y-106416666D01*
X147157200Y-106416666D02*
X147204819Y-106321428D01*
X147204819Y-106321428D02*
X147204819Y-106130952D01*
X147204819Y-106130952D02*
X147157200Y-106035714D01*
X147157200Y-106035714D02*
X147109580Y-105988095D01*
X147109580Y-105988095D02*
X147014342Y-105940476D01*
X147014342Y-105940476D02*
X146204819Y-105940476D01*
X146538152Y-105035714D02*
X147204819Y-105035714D01*
X146157200Y-105273809D02*
X146871485Y-105511904D01*
X146871485Y-105511904D02*
X146871485Y-104892857D01*
X150359580Y-87916666D02*
X150407200Y-87964285D01*
X150407200Y-87964285D02*
X150454819Y-88107142D01*
X150454819Y-88107142D02*
X150454819Y-88202380D01*
X150454819Y-88202380D02*
X150407200Y-88345237D01*
X150407200Y-88345237D02*
X150311961Y-88440475D01*
X150311961Y-88440475D02*
X150216723Y-88488094D01*
X150216723Y-88488094D02*
X150026247Y-88535713D01*
X150026247Y-88535713D02*
X149883390Y-88535713D01*
X149883390Y-88535713D02*
X149692914Y-88488094D01*
X149692914Y-88488094D02*
X149597676Y-88440475D01*
X149597676Y-88440475D02*
X149502438Y-88345237D01*
X149502438Y-88345237D02*
X149454819Y-88202380D01*
X149454819Y-88202380D02*
X149454819Y-88107142D01*
X149454819Y-88107142D02*
X149502438Y-87964285D01*
X149502438Y-87964285D02*
X149550057Y-87916666D01*
X149454819Y-87583332D02*
X149454819Y-86916666D01*
X149454819Y-86916666D02*
X150454819Y-87345237D01*
X151488095Y-97954819D02*
X151488095Y-98764342D01*
X151488095Y-98764342D02*
X151535714Y-98859580D01*
X151535714Y-98859580D02*
X151583333Y-98907200D01*
X151583333Y-98907200D02*
X151678571Y-98954819D01*
X151678571Y-98954819D02*
X151869047Y-98954819D01*
X151869047Y-98954819D02*
X151964285Y-98907200D01*
X151964285Y-98907200D02*
X152011904Y-98859580D01*
X152011904Y-98859580D02*
X152059523Y-98764342D01*
X152059523Y-98764342D02*
X152059523Y-97954819D01*
X153059523Y-98954819D02*
X152488095Y-98954819D01*
X152773809Y-98954819D02*
X152773809Y-97954819D01*
X152773809Y-97954819D02*
X152678571Y-98097676D01*
X152678571Y-98097676D02*
X152583333Y-98192914D01*
X152583333Y-98192914D02*
X152488095Y-98240533D01*
X170181009Y-101095236D02*
X170181009Y-100761903D01*
X170704819Y-100619046D02*
X170704819Y-101095236D01*
X170704819Y-101095236D02*
X169704819Y-101095236D01*
X169704819Y-101095236D02*
X169704819Y-100619046D01*
X170657200Y-100238093D02*
X170704819Y-100095236D01*
X170704819Y-100095236D02*
X170704819Y-99857141D01*
X170704819Y-99857141D02*
X170657200Y-99761903D01*
X170657200Y-99761903D02*
X170609580Y-99714284D01*
X170609580Y-99714284D02*
X170514342Y-99666665D01*
X170514342Y-99666665D02*
X170419104Y-99666665D01*
X170419104Y-99666665D02*
X170323866Y-99714284D01*
X170323866Y-99714284D02*
X170276247Y-99761903D01*
X170276247Y-99761903D02*
X170228628Y-99857141D01*
X170228628Y-99857141D02*
X170181009Y-100047617D01*
X170181009Y-100047617D02*
X170133390Y-100142855D01*
X170133390Y-100142855D02*
X170085771Y-100190474D01*
X170085771Y-100190474D02*
X169990533Y-100238093D01*
X169990533Y-100238093D02*
X169895295Y-100238093D01*
X169895295Y-100238093D02*
X169800057Y-100190474D01*
X169800057Y-100190474D02*
X169752438Y-100142855D01*
X169752438Y-100142855D02*
X169704819Y-100047617D01*
X169704819Y-100047617D02*
X169704819Y-99809522D01*
X169704819Y-99809522D02*
X169752438Y-99666665D01*
X170704819Y-99238093D02*
X169704819Y-99238093D01*
X169704819Y-99238093D02*
X169704819Y-98857141D01*
X169704819Y-98857141D02*
X169752438Y-98761903D01*
X169752438Y-98761903D02*
X169800057Y-98714284D01*
X169800057Y-98714284D02*
X169895295Y-98666665D01*
X169895295Y-98666665D02*
X170038152Y-98666665D01*
X170038152Y-98666665D02*
X170133390Y-98714284D01*
X170133390Y-98714284D02*
X170181009Y-98761903D01*
X170181009Y-98761903D02*
X170228628Y-98857141D01*
X170228628Y-98857141D02*
X170228628Y-99238093D01*
X169704819Y-98333331D02*
X169704819Y-97714284D01*
X169704819Y-97714284D02*
X170085771Y-98047617D01*
X170085771Y-98047617D02*
X170085771Y-97904760D01*
X170085771Y-97904760D02*
X170133390Y-97809522D01*
X170133390Y-97809522D02*
X170181009Y-97761903D01*
X170181009Y-97761903D02*
X170276247Y-97714284D01*
X170276247Y-97714284D02*
X170514342Y-97714284D01*
X170514342Y-97714284D02*
X170609580Y-97761903D01*
X170609580Y-97761903D02*
X170657200Y-97809522D01*
X170657200Y-97809522D02*
X170704819Y-97904760D01*
X170704819Y-97904760D02*
X170704819Y-98190474D01*
X170704819Y-98190474D02*
X170657200Y-98285712D01*
X170657200Y-98285712D02*
X170609580Y-98333331D01*
X169800057Y-97333331D02*
X169752438Y-97285712D01*
X169752438Y-97285712D02*
X169704819Y-97190474D01*
X169704819Y-97190474D02*
X169704819Y-96952379D01*
X169704819Y-96952379D02*
X169752438Y-96857141D01*
X169752438Y-96857141D02*
X169800057Y-96809522D01*
X169800057Y-96809522D02*
X169895295Y-96761903D01*
X169895295Y-96761903D02*
X169990533Y-96761903D01*
X169990533Y-96761903D02*
X170133390Y-96809522D01*
X170133390Y-96809522D02*
X170704819Y-97380950D01*
X170704819Y-97380950D02*
X170704819Y-96761903D01*
X170323866Y-96333331D02*
X170323866Y-95571427D01*
X170657200Y-95142855D02*
X170704819Y-94999998D01*
X170704819Y-94999998D02*
X170704819Y-94761903D01*
X170704819Y-94761903D02*
X170657200Y-94666665D01*
X170657200Y-94666665D02*
X170609580Y-94619046D01*
X170609580Y-94619046D02*
X170514342Y-94571427D01*
X170514342Y-94571427D02*
X170419104Y-94571427D01*
X170419104Y-94571427D02*
X170323866Y-94619046D01*
X170323866Y-94619046D02*
X170276247Y-94666665D01*
X170276247Y-94666665D02*
X170228628Y-94761903D01*
X170228628Y-94761903D02*
X170181009Y-94952379D01*
X170181009Y-94952379D02*
X170133390Y-95047617D01*
X170133390Y-95047617D02*
X170085771Y-95095236D01*
X170085771Y-95095236D02*
X169990533Y-95142855D01*
X169990533Y-95142855D02*
X169895295Y-95142855D01*
X169895295Y-95142855D02*
X169800057Y-95095236D01*
X169800057Y-95095236D02*
X169752438Y-95047617D01*
X169752438Y-95047617D02*
X169704819Y-94952379D01*
X169704819Y-94952379D02*
X169704819Y-94714284D01*
X169704819Y-94714284D02*
X169752438Y-94571427D01*
X169704819Y-94238093D02*
X169704819Y-93619046D01*
X169704819Y-93619046D02*
X170085771Y-93952379D01*
X170085771Y-93952379D02*
X170085771Y-93809522D01*
X170085771Y-93809522D02*
X170133390Y-93714284D01*
X170133390Y-93714284D02*
X170181009Y-93666665D01*
X170181009Y-93666665D02*
X170276247Y-93619046D01*
X170276247Y-93619046D02*
X170514342Y-93619046D01*
X170514342Y-93619046D02*
X170609580Y-93666665D01*
X170609580Y-93666665D02*
X170657200Y-93714284D01*
X170657200Y-93714284D02*
X170704819Y-93809522D01*
X170704819Y-93809522D02*
X170704819Y-94095236D01*
X170704819Y-94095236D02*
X170657200Y-94190474D01*
X170657200Y-94190474D02*
X170609580Y-94238093D01*
X170323866Y-93190474D02*
X170323866Y-92428570D01*
X170704819Y-91952379D02*
X169704819Y-91952379D01*
X169704819Y-91952379D02*
X170419104Y-91619046D01*
X170419104Y-91619046D02*
X169704819Y-91285713D01*
X169704819Y-91285713D02*
X170704819Y-91285713D01*
X170704819Y-90809522D02*
X169704819Y-90809522D01*
X170704819Y-90333332D02*
X169704819Y-90333332D01*
X169704819Y-90333332D02*
X170704819Y-89761904D01*
X170704819Y-89761904D02*
X169704819Y-89761904D01*
X170704819Y-89285713D02*
X169704819Y-89285713D01*
X170323866Y-88809523D02*
X170323866Y-88047619D01*
X170704819Y-87047619D02*
X170704819Y-87619047D01*
X170704819Y-87333333D02*
X169704819Y-87333333D01*
X169704819Y-87333333D02*
X169847676Y-87428571D01*
X169847676Y-87428571D02*
X169942914Y-87523809D01*
X169942914Y-87523809D02*
X169990533Y-87619047D01*
X170323866Y-86619047D02*
X170323866Y-85857143D01*
X170704819Y-85380952D02*
X169704819Y-85380952D01*
X169704819Y-85380952D02*
X170704819Y-84809524D01*
X170704819Y-84809524D02*
X169704819Y-84809524D01*
X170038152Y-83904762D02*
X170704819Y-83904762D01*
X169657200Y-84142857D02*
X170371485Y-84380952D01*
X170371485Y-84380952D02*
X170371485Y-83761905D01*
X170704819Y-82809524D02*
X170228628Y-83142857D01*
X170704819Y-83380952D02*
X169704819Y-83380952D01*
X169704819Y-83380952D02*
X169704819Y-83000000D01*
X169704819Y-83000000D02*
X169752438Y-82904762D01*
X169752438Y-82904762D02*
X169800057Y-82857143D01*
X169800057Y-82857143D02*
X169895295Y-82809524D01*
X169895295Y-82809524D02*
X170038152Y-82809524D01*
X170038152Y-82809524D02*
X170133390Y-82857143D01*
X170133390Y-82857143D02*
X170181009Y-82904762D01*
X170181009Y-82904762D02*
X170228628Y-83000000D01*
X170228628Y-83000000D02*
X170228628Y-83380952D01*
X169800057Y-82428571D02*
X169752438Y-82380952D01*
X169752438Y-82380952D02*
X169704819Y-82285714D01*
X169704819Y-82285714D02*
X169704819Y-82047619D01*
X169704819Y-82047619D02*
X169752438Y-81952381D01*
X169752438Y-81952381D02*
X169800057Y-81904762D01*
X169800057Y-81904762D02*
X169895295Y-81857143D01*
X169895295Y-81857143D02*
X169990533Y-81857143D01*
X169990533Y-81857143D02*
X170133390Y-81904762D01*
X170133390Y-81904762D02*
X170704819Y-82476190D01*
X170704819Y-82476190D02*
X170704819Y-81857143D01*
X114988095Y-130454819D02*
X114988095Y-129454819D01*
X114988095Y-129931009D02*
X115559523Y-129931009D01*
X115559523Y-130454819D02*
X115559523Y-129454819D01*
X115940476Y-129454819D02*
X116559523Y-129454819D01*
X116559523Y-129454819D02*
X116226190Y-129835771D01*
X116226190Y-129835771D02*
X116369047Y-129835771D01*
X116369047Y-129835771D02*
X116464285Y-129883390D01*
X116464285Y-129883390D02*
X116511904Y-129931009D01*
X116511904Y-129931009D02*
X116559523Y-130026247D01*
X116559523Y-130026247D02*
X116559523Y-130264342D01*
X116559523Y-130264342D02*
X116511904Y-130359580D01*
X116511904Y-130359580D02*
X116464285Y-130407200D01*
X116464285Y-130407200D02*
X116369047Y-130454819D01*
X116369047Y-130454819D02*
X116083333Y-130454819D01*
X116083333Y-130454819D02*
X115988095Y-130407200D01*
X115988095Y-130407200D02*
X115940476Y-130359580D01*
X113738095Y-66954819D02*
X113738095Y-65954819D01*
X113738095Y-66431009D02*
X114309523Y-66431009D01*
X114309523Y-66954819D02*
X114309523Y-65954819D01*
X115309523Y-66954819D02*
X114738095Y-66954819D01*
X115023809Y-66954819D02*
X115023809Y-65954819D01*
X115023809Y-65954819D02*
X114928571Y-66097676D01*
X114928571Y-66097676D02*
X114833333Y-66192914D01*
X114833333Y-66192914D02*
X114738095Y-66240533D01*
X150232142Y-76634819D02*
X149898809Y-76158628D01*
X149660714Y-76634819D02*
X149660714Y-75634819D01*
X149660714Y-75634819D02*
X150041666Y-75634819D01*
X150041666Y-75634819D02*
X150136904Y-75682438D01*
X150136904Y-75682438D02*
X150184523Y-75730057D01*
X150184523Y-75730057D02*
X150232142Y-75825295D01*
X150232142Y-75825295D02*
X150232142Y-75968152D01*
X150232142Y-75968152D02*
X150184523Y-76063390D01*
X150184523Y-76063390D02*
X150136904Y-76111009D01*
X150136904Y-76111009D02*
X150041666Y-76158628D01*
X150041666Y-76158628D02*
X149660714Y-76158628D01*
X151184523Y-76634819D02*
X150613095Y-76634819D01*
X150898809Y-76634819D02*
X150898809Y-75634819D01*
X150898809Y-75634819D02*
X150803571Y-75777676D01*
X150803571Y-75777676D02*
X150708333Y-75872914D01*
X150708333Y-75872914D02*
X150613095Y-75920533D01*
X151565476Y-75730057D02*
X151613095Y-75682438D01*
X151613095Y-75682438D02*
X151708333Y-75634819D01*
X151708333Y-75634819D02*
X151946428Y-75634819D01*
X151946428Y-75634819D02*
X152041666Y-75682438D01*
X152041666Y-75682438D02*
X152089285Y-75730057D01*
X152089285Y-75730057D02*
X152136904Y-75825295D01*
X152136904Y-75825295D02*
X152136904Y-75920533D01*
X152136904Y-75920533D02*
X152089285Y-76063390D01*
X152089285Y-76063390D02*
X151517857Y-76634819D01*
X151517857Y-76634819D02*
X152136904Y-76634819D01*
X153309523Y-76954819D02*
X152738095Y-76954819D01*
X153023809Y-76954819D02*
X153023809Y-75954819D01*
X153023809Y-75954819D02*
X152928571Y-76097676D01*
X152928571Y-76097676D02*
X152833333Y-76192914D01*
X152833333Y-76192914D02*
X152738095Y-76240533D01*
X153738095Y-76954819D02*
X153738095Y-75954819D01*
X153833333Y-76573866D02*
X154119047Y-76954819D01*
X154119047Y-76288152D02*
X153738095Y-76669104D01*
X154500000Y-76954819D02*
X154738095Y-76954819D01*
X154738095Y-76954819D02*
X154738095Y-76764342D01*
X154738095Y-76764342D02*
X154642857Y-76716723D01*
X154642857Y-76716723D02*
X154547619Y-76621485D01*
X154547619Y-76621485D02*
X154500000Y-76478628D01*
X154500000Y-76478628D02*
X154500000Y-76240533D01*
X154500000Y-76240533D02*
X154547619Y-76097676D01*
X154547619Y-76097676D02*
X154642857Y-76002438D01*
X154642857Y-76002438D02*
X154785714Y-75954819D01*
X154785714Y-75954819D02*
X154976190Y-75954819D01*
X154976190Y-75954819D02*
X155119047Y-76002438D01*
X155119047Y-76002438D02*
X155214285Y-76097676D01*
X155214285Y-76097676D02*
X155261904Y-76240533D01*
X155261904Y-76240533D02*
X155261904Y-76478628D01*
X155261904Y-76478628D02*
X155214285Y-76621485D01*
X155214285Y-76621485D02*
X155119047Y-76716723D01*
X155119047Y-76716723D02*
X155023809Y-76764342D01*
X155023809Y-76764342D02*
X155023809Y-76954819D01*
X155023809Y-76954819D02*
X155261904Y-76954819D01*
X147704819Y-88250000D02*
X147228628Y-88583333D01*
X147704819Y-88821428D02*
X146704819Y-88821428D01*
X146704819Y-88821428D02*
X146704819Y-88440476D01*
X146704819Y-88440476D02*
X146752438Y-88345238D01*
X146752438Y-88345238D02*
X146800057Y-88297619D01*
X146800057Y-88297619D02*
X146895295Y-88250000D01*
X146895295Y-88250000D02*
X147038152Y-88250000D01*
X147038152Y-88250000D02*
X147133390Y-88297619D01*
X147133390Y-88297619D02*
X147181009Y-88345238D01*
X147181009Y-88345238D02*
X147228628Y-88440476D01*
X147228628Y-88440476D02*
X147228628Y-88821428D01*
X147181009Y-87488095D02*
X147181009Y-87821428D01*
X147704819Y-87821428D02*
X146704819Y-87821428D01*
X146704819Y-87821428D02*
X146704819Y-87345238D01*
X147704819Y-86488095D02*
X147704819Y-86964285D01*
X147704819Y-86964285D02*
X146704819Y-86964285D01*
X146704819Y-85726190D02*
X146704819Y-85916666D01*
X146704819Y-85916666D02*
X146752438Y-86011904D01*
X146752438Y-86011904D02*
X146800057Y-86059523D01*
X146800057Y-86059523D02*
X146942914Y-86154761D01*
X146942914Y-86154761D02*
X147133390Y-86202380D01*
X147133390Y-86202380D02*
X147514342Y-86202380D01*
X147514342Y-86202380D02*
X147609580Y-86154761D01*
X147609580Y-86154761D02*
X147657200Y-86107142D01*
X147657200Y-86107142D02*
X147704819Y-86011904D01*
X147704819Y-86011904D02*
X147704819Y-85821428D01*
X147704819Y-85821428D02*
X147657200Y-85726190D01*
X147657200Y-85726190D02*
X147609580Y-85678571D01*
X147609580Y-85678571D02*
X147514342Y-85630952D01*
X147514342Y-85630952D02*
X147276247Y-85630952D01*
X147276247Y-85630952D02*
X147181009Y-85678571D01*
X147181009Y-85678571D02*
X147133390Y-85726190D01*
X147133390Y-85726190D02*
X147085771Y-85821428D01*
X147085771Y-85821428D02*
X147085771Y-86011904D01*
X147085771Y-86011904D02*
X147133390Y-86107142D01*
X147133390Y-86107142D02*
X147181009Y-86154761D01*
X147181009Y-86154761D02*
X147276247Y-86202380D01*
X144454819Y-103738094D02*
X145264342Y-103738094D01*
X145264342Y-103738094D02*
X145359580Y-103690475D01*
X145359580Y-103690475D02*
X145407200Y-103642856D01*
X145407200Y-103642856D02*
X145454819Y-103547618D01*
X145454819Y-103547618D02*
X145454819Y-103357142D01*
X145454819Y-103357142D02*
X145407200Y-103261904D01*
X145407200Y-103261904D02*
X145359580Y-103214285D01*
X145359580Y-103214285D02*
X145264342Y-103166666D01*
X145264342Y-103166666D02*
X144454819Y-103166666D01*
X145454819Y-102166666D02*
X145454819Y-102738094D01*
X145454819Y-102452380D02*
X144454819Y-102452380D01*
X144454819Y-102452380D02*
X144597676Y-102547618D01*
X144597676Y-102547618D02*
X144692914Y-102642856D01*
X144692914Y-102642856D02*
X144740533Y-102738094D01*
X144454819Y-101261904D02*
X144454819Y-101738094D01*
X144454819Y-101738094D02*
X144931009Y-101785713D01*
X144931009Y-101785713D02*
X144883390Y-101738094D01*
X144883390Y-101738094D02*
X144835771Y-101642856D01*
X144835771Y-101642856D02*
X144835771Y-101404761D01*
X144835771Y-101404761D02*
X144883390Y-101309523D01*
X144883390Y-101309523D02*
X144931009Y-101261904D01*
X144931009Y-101261904D02*
X145026247Y-101214285D01*
X145026247Y-101214285D02*
X145264342Y-101214285D01*
X145264342Y-101214285D02*
X145359580Y-101261904D01*
X145359580Y-101261904D02*
X145407200Y-101309523D01*
X145407200Y-101309523D02*
X145454819Y-101404761D01*
X145454819Y-101404761D02*
X145454819Y-101642856D01*
X145454819Y-101642856D02*
X145407200Y-101738094D01*
X145407200Y-101738094D02*
X145359580Y-101785713D01*
X153679580Y-102166666D02*
X153727200Y-102214285D01*
X153727200Y-102214285D02*
X153774819Y-102357142D01*
X153774819Y-102357142D02*
X153774819Y-102452380D01*
X153774819Y-102452380D02*
X153727200Y-102595237D01*
X153727200Y-102595237D02*
X153631961Y-102690475D01*
X153631961Y-102690475D02*
X153536723Y-102738094D01*
X153536723Y-102738094D02*
X153346247Y-102785713D01*
X153346247Y-102785713D02*
X153203390Y-102785713D01*
X153203390Y-102785713D02*
X153012914Y-102738094D01*
X153012914Y-102738094D02*
X152917676Y-102690475D01*
X152917676Y-102690475D02*
X152822438Y-102595237D01*
X152822438Y-102595237D02*
X152774819Y-102452380D01*
X152774819Y-102452380D02*
X152774819Y-102357142D01*
X152774819Y-102357142D02*
X152822438Y-102214285D01*
X152822438Y-102214285D02*
X152870057Y-102166666D01*
X153774819Y-101214285D02*
X153774819Y-101785713D01*
X153774819Y-101499999D02*
X152774819Y-101499999D01*
X152774819Y-101499999D02*
X152917676Y-101595237D01*
X152917676Y-101595237D02*
X153012914Y-101690475D01*
X153012914Y-101690475D02*
X153060533Y-101785713D01*
X161333333Y-75374819D02*
X161000000Y-74898628D01*
X160761905Y-75374819D02*
X160761905Y-74374819D01*
X160761905Y-74374819D02*
X161142857Y-74374819D01*
X161142857Y-74374819D02*
X161238095Y-74422438D01*
X161238095Y-74422438D02*
X161285714Y-74470057D01*
X161285714Y-74470057D02*
X161333333Y-74565295D01*
X161333333Y-74565295D02*
X161333333Y-74708152D01*
X161333333Y-74708152D02*
X161285714Y-74803390D01*
X161285714Y-74803390D02*
X161238095Y-74851009D01*
X161238095Y-74851009D02*
X161142857Y-74898628D01*
X161142857Y-74898628D02*
X160761905Y-74898628D01*
X161904762Y-74803390D02*
X161809524Y-74755771D01*
X161809524Y-74755771D02*
X161761905Y-74708152D01*
X161761905Y-74708152D02*
X161714286Y-74612914D01*
X161714286Y-74612914D02*
X161714286Y-74565295D01*
X161714286Y-74565295D02*
X161761905Y-74470057D01*
X161761905Y-74470057D02*
X161809524Y-74422438D01*
X161809524Y-74422438D02*
X161904762Y-74374819D01*
X161904762Y-74374819D02*
X162095238Y-74374819D01*
X162095238Y-74374819D02*
X162190476Y-74422438D01*
X162190476Y-74422438D02*
X162238095Y-74470057D01*
X162238095Y-74470057D02*
X162285714Y-74565295D01*
X162285714Y-74565295D02*
X162285714Y-74612914D01*
X162285714Y-74612914D02*
X162238095Y-74708152D01*
X162238095Y-74708152D02*
X162190476Y-74755771D01*
X162190476Y-74755771D02*
X162095238Y-74803390D01*
X162095238Y-74803390D02*
X161904762Y-74803390D01*
X161904762Y-74803390D02*
X161809524Y-74851009D01*
X161809524Y-74851009D02*
X161761905Y-74898628D01*
X161761905Y-74898628D02*
X161714286Y-74993866D01*
X161714286Y-74993866D02*
X161714286Y-75184342D01*
X161714286Y-75184342D02*
X161761905Y-75279580D01*
X161761905Y-75279580D02*
X161809524Y-75327200D01*
X161809524Y-75327200D02*
X161904762Y-75374819D01*
X161904762Y-75374819D02*
X162095238Y-75374819D01*
X162095238Y-75374819D02*
X162190476Y-75327200D01*
X162190476Y-75327200D02*
X162238095Y-75279580D01*
X162238095Y-75279580D02*
X162285714Y-75184342D01*
X162285714Y-75184342D02*
X162285714Y-74993866D01*
X162285714Y-74993866D02*
X162238095Y-74898628D01*
X162238095Y-74898628D02*
X162190476Y-74851009D01*
X162190476Y-74851009D02*
X162095238Y-74803390D01*
X156797619Y-73204819D02*
X156321429Y-73204819D01*
X156321429Y-73204819D02*
X156273810Y-73681009D01*
X156273810Y-73681009D02*
X156321429Y-73633390D01*
X156321429Y-73633390D02*
X156416667Y-73585771D01*
X156416667Y-73585771D02*
X156654762Y-73585771D01*
X156654762Y-73585771D02*
X156750000Y-73633390D01*
X156750000Y-73633390D02*
X156797619Y-73681009D01*
X156797619Y-73681009D02*
X156845238Y-73776247D01*
X156845238Y-73776247D02*
X156845238Y-74014342D01*
X156845238Y-74014342D02*
X156797619Y-74109580D01*
X156797619Y-74109580D02*
X156750000Y-74157200D01*
X156750000Y-74157200D02*
X156654762Y-74204819D01*
X156654762Y-74204819D02*
X156416667Y-74204819D01*
X156416667Y-74204819D02*
X156321429Y-74157200D01*
X156321429Y-74157200D02*
X156273810Y-74109580D01*
X157273810Y-74109580D02*
X157321429Y-74157200D01*
X157321429Y-74157200D02*
X157273810Y-74204819D01*
X157273810Y-74204819D02*
X157226191Y-74157200D01*
X157226191Y-74157200D02*
X157273810Y-74109580D01*
X157273810Y-74109580D02*
X157273810Y-74204819D01*
X158273809Y-74204819D02*
X157702381Y-74204819D01*
X157988095Y-74204819D02*
X157988095Y-73204819D01*
X157988095Y-73204819D02*
X157892857Y-73347676D01*
X157892857Y-73347676D02*
X157797619Y-73442914D01*
X157797619Y-73442914D02*
X157702381Y-73490533D01*
X158702381Y-74204819D02*
X158702381Y-73204819D01*
X158797619Y-73823866D02*
X159083333Y-74204819D01*
X159083333Y-73538152D02*
X158702381Y-73919104D01*
X159464286Y-74204819D02*
X159702381Y-74204819D01*
X159702381Y-74204819D02*
X159702381Y-74014342D01*
X159702381Y-74014342D02*
X159607143Y-73966723D01*
X159607143Y-73966723D02*
X159511905Y-73871485D01*
X159511905Y-73871485D02*
X159464286Y-73728628D01*
X159464286Y-73728628D02*
X159464286Y-73490533D01*
X159464286Y-73490533D02*
X159511905Y-73347676D01*
X159511905Y-73347676D02*
X159607143Y-73252438D01*
X159607143Y-73252438D02*
X159750000Y-73204819D01*
X159750000Y-73204819D02*
X159940476Y-73204819D01*
X159940476Y-73204819D02*
X160083333Y-73252438D01*
X160083333Y-73252438D02*
X160178571Y-73347676D01*
X160178571Y-73347676D02*
X160226190Y-73490533D01*
X160226190Y-73490533D02*
X160226190Y-73728628D01*
X160226190Y-73728628D02*
X160178571Y-73871485D01*
X160178571Y-73871485D02*
X160083333Y-73966723D01*
X160083333Y-73966723D02*
X159988095Y-74014342D01*
X159988095Y-74014342D02*
X159988095Y-74204819D01*
X159988095Y-74204819D02*
X160226190Y-74204819D01*
X144704819Y-88869047D02*
X144228628Y-89202380D01*
X144704819Y-89440475D02*
X143704819Y-89440475D01*
X143704819Y-89440475D02*
X143704819Y-89059523D01*
X143704819Y-89059523D02*
X143752438Y-88964285D01*
X143752438Y-88964285D02*
X143800057Y-88916666D01*
X143800057Y-88916666D02*
X143895295Y-88869047D01*
X143895295Y-88869047D02*
X144038152Y-88869047D01*
X144038152Y-88869047D02*
X144133390Y-88916666D01*
X144133390Y-88916666D02*
X144181009Y-88964285D01*
X144181009Y-88964285D02*
X144228628Y-89059523D01*
X144228628Y-89059523D02*
X144228628Y-89440475D01*
X144181009Y-88107142D02*
X144181009Y-88440475D01*
X144704819Y-88440475D02*
X143704819Y-88440475D01*
X143704819Y-88440475D02*
X143704819Y-87964285D01*
X144704819Y-87583332D02*
X143704819Y-87583332D01*
X144181009Y-87583332D02*
X144181009Y-87011904D01*
X144704819Y-87011904D02*
X143704819Y-87011904D01*
X143704819Y-86107142D02*
X143704819Y-86297618D01*
X143704819Y-86297618D02*
X143752438Y-86392856D01*
X143752438Y-86392856D02*
X143800057Y-86440475D01*
X143800057Y-86440475D02*
X143942914Y-86535713D01*
X143942914Y-86535713D02*
X144133390Y-86583332D01*
X144133390Y-86583332D02*
X144514342Y-86583332D01*
X144514342Y-86583332D02*
X144609580Y-86535713D01*
X144609580Y-86535713D02*
X144657200Y-86488094D01*
X144657200Y-86488094D02*
X144704819Y-86392856D01*
X144704819Y-86392856D02*
X144704819Y-86202380D01*
X144704819Y-86202380D02*
X144657200Y-86107142D01*
X144657200Y-86107142D02*
X144609580Y-86059523D01*
X144609580Y-86059523D02*
X144514342Y-86011904D01*
X144514342Y-86011904D02*
X144276247Y-86011904D01*
X144276247Y-86011904D02*
X144181009Y-86059523D01*
X144181009Y-86059523D02*
X144133390Y-86107142D01*
X144133390Y-86107142D02*
X144085771Y-86202380D01*
X144085771Y-86202380D02*
X144085771Y-86392856D01*
X144085771Y-86392856D02*
X144133390Y-86488094D01*
X144133390Y-86488094D02*
X144181009Y-86535713D01*
X144181009Y-86535713D02*
X144276247Y-86583332D01*
X120204819Y-83342857D02*
X119728628Y-83676190D01*
X120204819Y-83914285D02*
X119204819Y-83914285D01*
X119204819Y-83914285D02*
X119204819Y-83533333D01*
X119204819Y-83533333D02*
X119252438Y-83438095D01*
X119252438Y-83438095D02*
X119300057Y-83390476D01*
X119300057Y-83390476D02*
X119395295Y-83342857D01*
X119395295Y-83342857D02*
X119538152Y-83342857D01*
X119538152Y-83342857D02*
X119633390Y-83390476D01*
X119633390Y-83390476D02*
X119681009Y-83438095D01*
X119681009Y-83438095D02*
X119728628Y-83533333D01*
X119728628Y-83533333D02*
X119728628Y-83914285D01*
X120157200Y-82961904D02*
X120204819Y-82819047D01*
X120204819Y-82819047D02*
X120204819Y-82580952D01*
X120204819Y-82580952D02*
X120157200Y-82485714D01*
X120157200Y-82485714D02*
X120109580Y-82438095D01*
X120109580Y-82438095D02*
X120014342Y-82390476D01*
X120014342Y-82390476D02*
X119919104Y-82390476D01*
X119919104Y-82390476D02*
X119823866Y-82438095D01*
X119823866Y-82438095D02*
X119776247Y-82485714D01*
X119776247Y-82485714D02*
X119728628Y-82580952D01*
X119728628Y-82580952D02*
X119681009Y-82771428D01*
X119681009Y-82771428D02*
X119633390Y-82866666D01*
X119633390Y-82866666D02*
X119585771Y-82914285D01*
X119585771Y-82914285D02*
X119490533Y-82961904D01*
X119490533Y-82961904D02*
X119395295Y-82961904D01*
X119395295Y-82961904D02*
X119300057Y-82914285D01*
X119300057Y-82914285D02*
X119252438Y-82866666D01*
X119252438Y-82866666D02*
X119204819Y-82771428D01*
X119204819Y-82771428D02*
X119204819Y-82533333D01*
X119204819Y-82533333D02*
X119252438Y-82390476D01*
X120204819Y-81438095D02*
X120204819Y-82009523D01*
X120204819Y-81723809D02*
X119204819Y-81723809D01*
X119204819Y-81723809D02*
X119347676Y-81819047D01*
X119347676Y-81819047D02*
X119442914Y-81914285D01*
X119442914Y-81914285D02*
X119490533Y-82009523D01*
X114704819Y-79152380D02*
X114704819Y-79723808D01*
X114704819Y-79438094D02*
X113704819Y-79438094D01*
X113704819Y-79438094D02*
X113847676Y-79533332D01*
X113847676Y-79533332D02*
X113942914Y-79628570D01*
X113942914Y-79628570D02*
X113990533Y-79723808D01*
X114704819Y-78723808D02*
X114038152Y-78723808D01*
X114133390Y-78723808D02*
X114085771Y-78676189D01*
X114085771Y-78676189D02*
X114038152Y-78580951D01*
X114038152Y-78580951D02*
X114038152Y-78438094D01*
X114038152Y-78438094D02*
X114085771Y-78342856D01*
X114085771Y-78342856D02*
X114181009Y-78295237D01*
X114181009Y-78295237D02*
X114704819Y-78295237D01*
X114181009Y-78295237D02*
X114085771Y-78247618D01*
X114085771Y-78247618D02*
X114038152Y-78152380D01*
X114038152Y-78152380D02*
X114038152Y-78009523D01*
X114038152Y-78009523D02*
X114085771Y-77914284D01*
X114085771Y-77914284D02*
X114181009Y-77866665D01*
X114181009Y-77866665D02*
X114704819Y-77866665D01*
X114704819Y-77438094D02*
X114704819Y-77199999D01*
X114704819Y-77199999D02*
X114514342Y-77199999D01*
X114514342Y-77199999D02*
X114466723Y-77295237D01*
X114466723Y-77295237D02*
X114371485Y-77390475D01*
X114371485Y-77390475D02*
X114228628Y-77438094D01*
X114228628Y-77438094D02*
X113990533Y-77438094D01*
X113990533Y-77438094D02*
X113847676Y-77390475D01*
X113847676Y-77390475D02*
X113752438Y-77295237D01*
X113752438Y-77295237D02*
X113704819Y-77152380D01*
X113704819Y-77152380D02*
X113704819Y-76961904D01*
X113704819Y-76961904D02*
X113752438Y-76819047D01*
X113752438Y-76819047D02*
X113847676Y-76723809D01*
X113847676Y-76723809D02*
X113990533Y-76676190D01*
X113990533Y-76676190D02*
X114228628Y-76676190D01*
X114228628Y-76676190D02*
X114371485Y-76723809D01*
X114371485Y-76723809D02*
X114466723Y-76819047D01*
X114466723Y-76819047D02*
X114514342Y-76914285D01*
X114514342Y-76914285D02*
X114704819Y-76914285D01*
X114704819Y-76914285D02*
X114704819Y-76676190D01*
X150232142Y-70634819D02*
X149898809Y-70158628D01*
X149660714Y-70634819D02*
X149660714Y-69634819D01*
X149660714Y-69634819D02*
X150041666Y-69634819D01*
X150041666Y-69634819D02*
X150136904Y-69682438D01*
X150136904Y-69682438D02*
X150184523Y-69730057D01*
X150184523Y-69730057D02*
X150232142Y-69825295D01*
X150232142Y-69825295D02*
X150232142Y-69968152D01*
X150232142Y-69968152D02*
X150184523Y-70063390D01*
X150184523Y-70063390D02*
X150136904Y-70111009D01*
X150136904Y-70111009D02*
X150041666Y-70158628D01*
X150041666Y-70158628D02*
X149660714Y-70158628D01*
X151184523Y-70634819D02*
X150613095Y-70634819D01*
X150898809Y-70634819D02*
X150898809Y-69634819D01*
X150898809Y-69634819D02*
X150803571Y-69777676D01*
X150803571Y-69777676D02*
X150708333Y-69872914D01*
X150708333Y-69872914D02*
X150613095Y-69920533D01*
X151803571Y-69634819D02*
X151898809Y-69634819D01*
X151898809Y-69634819D02*
X151994047Y-69682438D01*
X151994047Y-69682438D02*
X152041666Y-69730057D01*
X152041666Y-69730057D02*
X152089285Y-69825295D01*
X152089285Y-69825295D02*
X152136904Y-70015771D01*
X152136904Y-70015771D02*
X152136904Y-70253866D01*
X152136904Y-70253866D02*
X152089285Y-70444342D01*
X152089285Y-70444342D02*
X152041666Y-70539580D01*
X152041666Y-70539580D02*
X151994047Y-70587200D01*
X151994047Y-70587200D02*
X151898809Y-70634819D01*
X151898809Y-70634819D02*
X151803571Y-70634819D01*
X151803571Y-70634819D02*
X151708333Y-70587200D01*
X151708333Y-70587200D02*
X151660714Y-70539580D01*
X151660714Y-70539580D02*
X151613095Y-70444342D01*
X151613095Y-70444342D02*
X151565476Y-70253866D01*
X151565476Y-70253866D02*
X151565476Y-70015771D01*
X151565476Y-70015771D02*
X151613095Y-69825295D01*
X151613095Y-69825295D02*
X151660714Y-69730057D01*
X151660714Y-69730057D02*
X151708333Y-69682438D01*
X151708333Y-69682438D02*
X151803571Y-69634819D01*
X147809523Y-71954819D02*
X147238095Y-71954819D01*
X147523809Y-71954819D02*
X147523809Y-70954819D01*
X147523809Y-70954819D02*
X147428571Y-71097676D01*
X147428571Y-71097676D02*
X147333333Y-71192914D01*
X147333333Y-71192914D02*
X147238095Y-71240533D01*
X148238095Y-71954819D02*
X148238095Y-70954819D01*
X148333333Y-71573866D02*
X148619047Y-71954819D01*
X148619047Y-71288152D02*
X148238095Y-71669104D01*
X149000000Y-71954819D02*
X149238095Y-71954819D01*
X149238095Y-71954819D02*
X149238095Y-71764342D01*
X149238095Y-71764342D02*
X149142857Y-71716723D01*
X149142857Y-71716723D02*
X149047619Y-71621485D01*
X149047619Y-71621485D02*
X149000000Y-71478628D01*
X149000000Y-71478628D02*
X149000000Y-71240533D01*
X149000000Y-71240533D02*
X149047619Y-71097676D01*
X149047619Y-71097676D02*
X149142857Y-71002438D01*
X149142857Y-71002438D02*
X149285714Y-70954819D01*
X149285714Y-70954819D02*
X149476190Y-70954819D01*
X149476190Y-70954819D02*
X149619047Y-71002438D01*
X149619047Y-71002438D02*
X149714285Y-71097676D01*
X149714285Y-71097676D02*
X149761904Y-71240533D01*
X149761904Y-71240533D02*
X149761904Y-71478628D01*
X149761904Y-71478628D02*
X149714285Y-71621485D01*
X149714285Y-71621485D02*
X149619047Y-71716723D01*
X149619047Y-71716723D02*
X149523809Y-71764342D01*
X149523809Y-71764342D02*
X149523809Y-71954819D01*
X149523809Y-71954819D02*
X149761904Y-71954819D01*
X150607142Y-96859580D02*
X150559523Y-96907200D01*
X150559523Y-96907200D02*
X150416666Y-96954819D01*
X150416666Y-96954819D02*
X150321428Y-96954819D01*
X150321428Y-96954819D02*
X150178571Y-96907200D01*
X150178571Y-96907200D02*
X150083333Y-96811961D01*
X150083333Y-96811961D02*
X150035714Y-96716723D01*
X150035714Y-96716723D02*
X149988095Y-96526247D01*
X149988095Y-96526247D02*
X149988095Y-96383390D01*
X149988095Y-96383390D02*
X150035714Y-96192914D01*
X150035714Y-96192914D02*
X150083333Y-96097676D01*
X150083333Y-96097676D02*
X150178571Y-96002438D01*
X150178571Y-96002438D02*
X150321428Y-95954819D01*
X150321428Y-95954819D02*
X150416666Y-95954819D01*
X150416666Y-95954819D02*
X150559523Y-96002438D01*
X150559523Y-96002438D02*
X150607142Y-96050057D01*
X150988095Y-96050057D02*
X151035714Y-96002438D01*
X151035714Y-96002438D02*
X151130952Y-95954819D01*
X151130952Y-95954819D02*
X151369047Y-95954819D01*
X151369047Y-95954819D02*
X151464285Y-96002438D01*
X151464285Y-96002438D02*
X151511904Y-96050057D01*
X151511904Y-96050057D02*
X151559523Y-96145295D01*
X151559523Y-96145295D02*
X151559523Y-96240533D01*
X151559523Y-96240533D02*
X151511904Y-96383390D01*
X151511904Y-96383390D02*
X150940476Y-96954819D01*
X150940476Y-96954819D02*
X151559523Y-96954819D01*
X152416666Y-96288152D02*
X152416666Y-96954819D01*
X152178571Y-95907200D02*
X151940476Y-96621485D01*
X151940476Y-96621485D02*
X152559523Y-96621485D01*
X150232142Y-73634819D02*
X149898809Y-73158628D01*
X149660714Y-73634819D02*
X149660714Y-72634819D01*
X149660714Y-72634819D02*
X150041666Y-72634819D01*
X150041666Y-72634819D02*
X150136904Y-72682438D01*
X150136904Y-72682438D02*
X150184523Y-72730057D01*
X150184523Y-72730057D02*
X150232142Y-72825295D01*
X150232142Y-72825295D02*
X150232142Y-72968152D01*
X150232142Y-72968152D02*
X150184523Y-73063390D01*
X150184523Y-73063390D02*
X150136904Y-73111009D01*
X150136904Y-73111009D02*
X150041666Y-73158628D01*
X150041666Y-73158628D02*
X149660714Y-73158628D01*
X151184523Y-73634819D02*
X150613095Y-73634819D01*
X150898809Y-73634819D02*
X150898809Y-72634819D01*
X150898809Y-72634819D02*
X150803571Y-72777676D01*
X150803571Y-72777676D02*
X150708333Y-72872914D01*
X150708333Y-72872914D02*
X150613095Y-72920533D01*
X152136904Y-73634819D02*
X151565476Y-73634819D01*
X151851190Y-73634819D02*
X151851190Y-72634819D01*
X151851190Y-72634819D02*
X151755952Y-72777676D01*
X151755952Y-72777676D02*
X151660714Y-72872914D01*
X151660714Y-72872914D02*
X151565476Y-72920533D01*
X147809523Y-74954819D02*
X147238095Y-74954819D01*
X147523809Y-74954819D02*
X147523809Y-73954819D01*
X147523809Y-73954819D02*
X147428571Y-74097676D01*
X147428571Y-74097676D02*
X147333333Y-74192914D01*
X147333333Y-74192914D02*
X147238095Y-74240533D01*
X148238095Y-74954819D02*
X148238095Y-73954819D01*
X148333333Y-74573866D02*
X148619047Y-74954819D01*
X148619047Y-74288152D02*
X148238095Y-74669104D01*
X149000000Y-74954819D02*
X149238095Y-74954819D01*
X149238095Y-74954819D02*
X149238095Y-74764342D01*
X149238095Y-74764342D02*
X149142857Y-74716723D01*
X149142857Y-74716723D02*
X149047619Y-74621485D01*
X149047619Y-74621485D02*
X149000000Y-74478628D01*
X149000000Y-74478628D02*
X149000000Y-74240533D01*
X149000000Y-74240533D02*
X149047619Y-74097676D01*
X149047619Y-74097676D02*
X149142857Y-74002438D01*
X149142857Y-74002438D02*
X149285714Y-73954819D01*
X149285714Y-73954819D02*
X149476190Y-73954819D01*
X149476190Y-73954819D02*
X149619047Y-74002438D01*
X149619047Y-74002438D02*
X149714285Y-74097676D01*
X149714285Y-74097676D02*
X149761904Y-74240533D01*
X149761904Y-74240533D02*
X149761904Y-74478628D01*
X149761904Y-74478628D02*
X149714285Y-74621485D01*
X149714285Y-74621485D02*
X149619047Y-74716723D01*
X149619047Y-74716723D02*
X149523809Y-74764342D01*
X149523809Y-74764342D02*
X149523809Y-74954819D01*
X149523809Y-74954819D02*
X149761904Y-74954819D01*
X132704819Y-103738094D02*
X133514342Y-103738094D01*
X133514342Y-103738094D02*
X133609580Y-103690475D01*
X133609580Y-103690475D02*
X133657200Y-103642856D01*
X133657200Y-103642856D02*
X133704819Y-103547618D01*
X133704819Y-103547618D02*
X133704819Y-103357142D01*
X133704819Y-103357142D02*
X133657200Y-103261904D01*
X133657200Y-103261904D02*
X133609580Y-103214285D01*
X133609580Y-103214285D02*
X133514342Y-103166666D01*
X133514342Y-103166666D02*
X132704819Y-103166666D01*
X133704819Y-102166666D02*
X133704819Y-102738094D01*
X133704819Y-102452380D02*
X132704819Y-102452380D01*
X132704819Y-102452380D02*
X132847676Y-102547618D01*
X132847676Y-102547618D02*
X132942914Y-102642856D01*
X132942914Y-102642856D02*
X132990533Y-102738094D01*
X132704819Y-101833332D02*
X132704819Y-101214285D01*
X132704819Y-101214285D02*
X133085771Y-101547618D01*
X133085771Y-101547618D02*
X133085771Y-101404761D01*
X133085771Y-101404761D02*
X133133390Y-101309523D01*
X133133390Y-101309523D02*
X133181009Y-101261904D01*
X133181009Y-101261904D02*
X133276247Y-101214285D01*
X133276247Y-101214285D02*
X133514342Y-101214285D01*
X133514342Y-101214285D02*
X133609580Y-101261904D01*
X133609580Y-101261904D02*
X133657200Y-101309523D01*
X133657200Y-101309523D02*
X133704819Y-101404761D01*
X133704819Y-101404761D02*
X133704819Y-101690475D01*
X133704819Y-101690475D02*
X133657200Y-101785713D01*
X133657200Y-101785713D02*
X133609580Y-101833332D01*
X129357142Y-91359580D02*
X129309523Y-91407200D01*
X129309523Y-91407200D02*
X129166666Y-91454819D01*
X129166666Y-91454819D02*
X129071428Y-91454819D01*
X129071428Y-91454819D02*
X128928571Y-91407200D01*
X128928571Y-91407200D02*
X128833333Y-91311961D01*
X128833333Y-91311961D02*
X128785714Y-91216723D01*
X128785714Y-91216723D02*
X128738095Y-91026247D01*
X128738095Y-91026247D02*
X128738095Y-90883390D01*
X128738095Y-90883390D02*
X128785714Y-90692914D01*
X128785714Y-90692914D02*
X128833333Y-90597676D01*
X128833333Y-90597676D02*
X128928571Y-90502438D01*
X128928571Y-90502438D02*
X129071428Y-90454819D01*
X129071428Y-90454819D02*
X129166666Y-90454819D01*
X129166666Y-90454819D02*
X129309523Y-90502438D01*
X129309523Y-90502438D02*
X129357142Y-90550057D01*
X130309523Y-91454819D02*
X129738095Y-91454819D01*
X130023809Y-91454819D02*
X130023809Y-90454819D01*
X130023809Y-90454819D02*
X129928571Y-90597676D01*
X129928571Y-90597676D02*
X129833333Y-90692914D01*
X129833333Y-90692914D02*
X129738095Y-90740533D01*
X130690476Y-90550057D02*
X130738095Y-90502438D01*
X130738095Y-90502438D02*
X130833333Y-90454819D01*
X130833333Y-90454819D02*
X131071428Y-90454819D01*
X131071428Y-90454819D02*
X131166666Y-90502438D01*
X131166666Y-90502438D02*
X131214285Y-90550057D01*
X131214285Y-90550057D02*
X131261904Y-90645295D01*
X131261904Y-90645295D02*
X131261904Y-90740533D01*
X131261904Y-90740533D02*
X131214285Y-90883390D01*
X131214285Y-90883390D02*
X130642857Y-91454819D01*
X130642857Y-91454819D02*
X131261904Y-91454819D01*
X125954819Y-103738094D02*
X126764342Y-103738094D01*
X126764342Y-103738094D02*
X126859580Y-103690475D01*
X126859580Y-103690475D02*
X126907200Y-103642856D01*
X126907200Y-103642856D02*
X126954819Y-103547618D01*
X126954819Y-103547618D02*
X126954819Y-103357142D01*
X126954819Y-103357142D02*
X126907200Y-103261904D01*
X126907200Y-103261904D02*
X126859580Y-103214285D01*
X126859580Y-103214285D02*
X126764342Y-103166666D01*
X126764342Y-103166666D02*
X125954819Y-103166666D01*
X126954819Y-102166666D02*
X126954819Y-102738094D01*
X126954819Y-102452380D02*
X125954819Y-102452380D01*
X125954819Y-102452380D02*
X126097676Y-102547618D01*
X126097676Y-102547618D02*
X126192914Y-102642856D01*
X126192914Y-102642856D02*
X126240533Y-102738094D01*
X126050057Y-101785713D02*
X126002438Y-101738094D01*
X126002438Y-101738094D02*
X125954819Y-101642856D01*
X125954819Y-101642856D02*
X125954819Y-101404761D01*
X125954819Y-101404761D02*
X126002438Y-101309523D01*
X126002438Y-101309523D02*
X126050057Y-101261904D01*
X126050057Y-101261904D02*
X126145295Y-101214285D01*
X126145295Y-101214285D02*
X126240533Y-101214285D01*
X126240533Y-101214285D02*
X126383390Y-101261904D01*
X126383390Y-101261904D02*
X126954819Y-101833332D01*
X126954819Y-101833332D02*
X126954819Y-101214285D01*
X141954819Y-88750000D02*
X141478628Y-89083333D01*
X141954819Y-89321428D02*
X140954819Y-89321428D01*
X140954819Y-89321428D02*
X140954819Y-88940476D01*
X140954819Y-88940476D02*
X141002438Y-88845238D01*
X141002438Y-88845238D02*
X141050057Y-88797619D01*
X141050057Y-88797619D02*
X141145295Y-88750000D01*
X141145295Y-88750000D02*
X141288152Y-88750000D01*
X141288152Y-88750000D02*
X141383390Y-88797619D01*
X141383390Y-88797619D02*
X141431009Y-88845238D01*
X141431009Y-88845238D02*
X141478628Y-88940476D01*
X141478628Y-88940476D02*
X141478628Y-89321428D01*
X141431009Y-87988095D02*
X141431009Y-88321428D01*
X141954819Y-88321428D02*
X140954819Y-88321428D01*
X140954819Y-88321428D02*
X140954819Y-87845238D01*
X141954819Y-86988095D02*
X141954819Y-87464285D01*
X141954819Y-87464285D02*
X140954819Y-87464285D01*
X140954819Y-86178571D02*
X140954819Y-86654761D01*
X140954819Y-86654761D02*
X141431009Y-86702380D01*
X141431009Y-86702380D02*
X141383390Y-86654761D01*
X141383390Y-86654761D02*
X141335771Y-86559523D01*
X141335771Y-86559523D02*
X141335771Y-86321428D01*
X141335771Y-86321428D02*
X141383390Y-86226190D01*
X141383390Y-86226190D02*
X141431009Y-86178571D01*
X141431009Y-86178571D02*
X141526247Y-86130952D01*
X141526247Y-86130952D02*
X141764342Y-86130952D01*
X141764342Y-86130952D02*
X141859580Y-86178571D01*
X141859580Y-86178571D02*
X141907200Y-86226190D01*
X141907200Y-86226190D02*
X141954819Y-86321428D01*
X141954819Y-86321428D02*
X141954819Y-86559523D01*
X141954819Y-86559523D02*
X141907200Y-86654761D01*
X141907200Y-86654761D02*
X141859580Y-86702380D01*
X153333333Y-127359580D02*
X153285714Y-127407200D01*
X153285714Y-127407200D02*
X153142857Y-127454819D01*
X153142857Y-127454819D02*
X153047619Y-127454819D01*
X153047619Y-127454819D02*
X152904762Y-127407200D01*
X152904762Y-127407200D02*
X152809524Y-127311961D01*
X152809524Y-127311961D02*
X152761905Y-127216723D01*
X152761905Y-127216723D02*
X152714286Y-127026247D01*
X152714286Y-127026247D02*
X152714286Y-126883390D01*
X152714286Y-126883390D02*
X152761905Y-126692914D01*
X152761905Y-126692914D02*
X152809524Y-126597676D01*
X152809524Y-126597676D02*
X152904762Y-126502438D01*
X152904762Y-126502438D02*
X153047619Y-126454819D01*
X153047619Y-126454819D02*
X153142857Y-126454819D01*
X153142857Y-126454819D02*
X153285714Y-126502438D01*
X153285714Y-126502438D02*
X153333333Y-126550057D01*
X154190476Y-126454819D02*
X154000000Y-126454819D01*
X154000000Y-126454819D02*
X153904762Y-126502438D01*
X153904762Y-126502438D02*
X153857143Y-126550057D01*
X153857143Y-126550057D02*
X153761905Y-126692914D01*
X153761905Y-126692914D02*
X153714286Y-126883390D01*
X153714286Y-126883390D02*
X153714286Y-127264342D01*
X153714286Y-127264342D02*
X153761905Y-127359580D01*
X153761905Y-127359580D02*
X153809524Y-127407200D01*
X153809524Y-127407200D02*
X153904762Y-127454819D01*
X153904762Y-127454819D02*
X154095238Y-127454819D01*
X154095238Y-127454819D02*
X154190476Y-127407200D01*
X154190476Y-127407200D02*
X154238095Y-127359580D01*
X154238095Y-127359580D02*
X154285714Y-127264342D01*
X154285714Y-127264342D02*
X154285714Y-127026247D01*
X154285714Y-127026247D02*
X154238095Y-126931009D01*
X154238095Y-126931009D02*
X154190476Y-126883390D01*
X154190476Y-126883390D02*
X154095238Y-126835771D01*
X154095238Y-126835771D02*
X153904762Y-126835771D01*
X153904762Y-126835771D02*
X153809524Y-126883390D01*
X153809524Y-126883390D02*
X153761905Y-126931009D01*
X153761905Y-126931009D02*
X153714286Y-127026247D01*
X132034819Y-72882857D02*
X131558628Y-73216190D01*
X132034819Y-73454285D02*
X131034819Y-73454285D01*
X131034819Y-73454285D02*
X131034819Y-73073333D01*
X131034819Y-73073333D02*
X131082438Y-72978095D01*
X131082438Y-72978095D02*
X131130057Y-72930476D01*
X131130057Y-72930476D02*
X131225295Y-72882857D01*
X131225295Y-72882857D02*
X131368152Y-72882857D01*
X131368152Y-72882857D02*
X131463390Y-72930476D01*
X131463390Y-72930476D02*
X131511009Y-72978095D01*
X131511009Y-72978095D02*
X131558628Y-73073333D01*
X131558628Y-73073333D02*
X131558628Y-73454285D01*
X131130057Y-72501904D02*
X131082438Y-72454285D01*
X131082438Y-72454285D02*
X131034819Y-72359047D01*
X131034819Y-72359047D02*
X131034819Y-72120952D01*
X131034819Y-72120952D02*
X131082438Y-72025714D01*
X131082438Y-72025714D02*
X131130057Y-71978095D01*
X131130057Y-71978095D02*
X131225295Y-71930476D01*
X131225295Y-71930476D02*
X131320533Y-71930476D01*
X131320533Y-71930476D02*
X131463390Y-71978095D01*
X131463390Y-71978095D02*
X132034819Y-72549523D01*
X132034819Y-72549523D02*
X132034819Y-71930476D01*
X131034819Y-71311428D02*
X131034819Y-71216190D01*
X131034819Y-71216190D02*
X131082438Y-71120952D01*
X131082438Y-71120952D02*
X131130057Y-71073333D01*
X131130057Y-71073333D02*
X131225295Y-71025714D01*
X131225295Y-71025714D02*
X131415771Y-70978095D01*
X131415771Y-70978095D02*
X131653866Y-70978095D01*
X131653866Y-70978095D02*
X131844342Y-71025714D01*
X131844342Y-71025714D02*
X131939580Y-71073333D01*
X131939580Y-71073333D02*
X131987200Y-71120952D01*
X131987200Y-71120952D02*
X132034819Y-71216190D01*
X132034819Y-71216190D02*
X132034819Y-71311428D01*
X132034819Y-71311428D02*
X131987200Y-71406666D01*
X131987200Y-71406666D02*
X131939580Y-71454285D01*
X131939580Y-71454285D02*
X131844342Y-71501904D01*
X131844342Y-71501904D02*
X131653866Y-71549523D01*
X131653866Y-71549523D02*
X131415771Y-71549523D01*
X131415771Y-71549523D02*
X131225295Y-71501904D01*
X131225295Y-71501904D02*
X131130057Y-71454285D01*
X131130057Y-71454285D02*
X131082438Y-71406666D01*
X131082438Y-71406666D02*
X131034819Y-71311428D01*
X153833333Y-117359580D02*
X153785714Y-117407200D01*
X153785714Y-117407200D02*
X153642857Y-117454819D01*
X153642857Y-117454819D02*
X153547619Y-117454819D01*
X153547619Y-117454819D02*
X153404762Y-117407200D01*
X153404762Y-117407200D02*
X153309524Y-117311961D01*
X153309524Y-117311961D02*
X153261905Y-117216723D01*
X153261905Y-117216723D02*
X153214286Y-117026247D01*
X153214286Y-117026247D02*
X153214286Y-116883390D01*
X153214286Y-116883390D02*
X153261905Y-116692914D01*
X153261905Y-116692914D02*
X153309524Y-116597676D01*
X153309524Y-116597676D02*
X153404762Y-116502438D01*
X153404762Y-116502438D02*
X153547619Y-116454819D01*
X153547619Y-116454819D02*
X153642857Y-116454819D01*
X153642857Y-116454819D02*
X153785714Y-116502438D01*
X153785714Y-116502438D02*
X153833333Y-116550057D01*
X154404762Y-116883390D02*
X154309524Y-116835771D01*
X154309524Y-116835771D02*
X154261905Y-116788152D01*
X154261905Y-116788152D02*
X154214286Y-116692914D01*
X154214286Y-116692914D02*
X154214286Y-116645295D01*
X154214286Y-116645295D02*
X154261905Y-116550057D01*
X154261905Y-116550057D02*
X154309524Y-116502438D01*
X154309524Y-116502438D02*
X154404762Y-116454819D01*
X154404762Y-116454819D02*
X154595238Y-116454819D01*
X154595238Y-116454819D02*
X154690476Y-116502438D01*
X154690476Y-116502438D02*
X154738095Y-116550057D01*
X154738095Y-116550057D02*
X154785714Y-116645295D01*
X154785714Y-116645295D02*
X154785714Y-116692914D01*
X154785714Y-116692914D02*
X154738095Y-116788152D01*
X154738095Y-116788152D02*
X154690476Y-116835771D01*
X154690476Y-116835771D02*
X154595238Y-116883390D01*
X154595238Y-116883390D02*
X154404762Y-116883390D01*
X154404762Y-116883390D02*
X154309524Y-116931009D01*
X154309524Y-116931009D02*
X154261905Y-116978628D01*
X154261905Y-116978628D02*
X154214286Y-117073866D01*
X154214286Y-117073866D02*
X154214286Y-117264342D01*
X154214286Y-117264342D02*
X154261905Y-117359580D01*
X154261905Y-117359580D02*
X154309524Y-117407200D01*
X154309524Y-117407200D02*
X154404762Y-117454819D01*
X154404762Y-117454819D02*
X154595238Y-117454819D01*
X154595238Y-117454819D02*
X154690476Y-117407200D01*
X154690476Y-117407200D02*
X154738095Y-117359580D01*
X154738095Y-117359580D02*
X154785714Y-117264342D01*
X154785714Y-117264342D02*
X154785714Y-117073866D01*
X154785714Y-117073866D02*
X154738095Y-116978628D01*
X154738095Y-116978628D02*
X154690476Y-116931009D01*
X154690476Y-116931009D02*
X154595238Y-116883390D01*
X114454819Y-88869047D02*
X113978628Y-89202380D01*
X114454819Y-89440475D02*
X113454819Y-89440475D01*
X113454819Y-89440475D02*
X113454819Y-89059523D01*
X113454819Y-89059523D02*
X113502438Y-88964285D01*
X113502438Y-88964285D02*
X113550057Y-88916666D01*
X113550057Y-88916666D02*
X113645295Y-88869047D01*
X113645295Y-88869047D02*
X113788152Y-88869047D01*
X113788152Y-88869047D02*
X113883390Y-88916666D01*
X113883390Y-88916666D02*
X113931009Y-88964285D01*
X113931009Y-88964285D02*
X113978628Y-89059523D01*
X113978628Y-89059523D02*
X113978628Y-89440475D01*
X113931009Y-88107142D02*
X113931009Y-88440475D01*
X114454819Y-88440475D02*
X113454819Y-88440475D01*
X113454819Y-88440475D02*
X113454819Y-87964285D01*
X114454819Y-87583332D02*
X113454819Y-87583332D01*
X113931009Y-87583332D02*
X113931009Y-87011904D01*
X114454819Y-87011904D02*
X113454819Y-87011904D01*
X114454819Y-86011904D02*
X114454819Y-86583332D01*
X114454819Y-86297618D02*
X113454819Y-86297618D01*
X113454819Y-86297618D02*
X113597676Y-86392856D01*
X113597676Y-86392856D02*
X113692914Y-86488094D01*
X113692914Y-86488094D02*
X113740533Y-86583332D01*
X152564819Y-126205833D02*
X153279104Y-126205833D01*
X153279104Y-126205833D02*
X153421961Y-126253452D01*
X153421961Y-126253452D02*
X153517200Y-126348690D01*
X153517200Y-126348690D02*
X153564819Y-126491547D01*
X153564819Y-126491547D02*
X153564819Y-126586785D01*
X153564819Y-125205833D02*
X153564819Y-125777261D01*
X153564819Y-125491547D02*
X152564819Y-125491547D01*
X152564819Y-125491547D02*
X152707676Y-125586785D01*
X152707676Y-125586785D02*
X152802914Y-125682023D01*
X152802914Y-125682023D02*
X152850533Y-125777261D01*
X170109580Y-80916666D02*
X170157200Y-80964285D01*
X170157200Y-80964285D02*
X170204819Y-81107142D01*
X170204819Y-81107142D02*
X170204819Y-81202380D01*
X170204819Y-81202380D02*
X170157200Y-81345237D01*
X170157200Y-81345237D02*
X170061961Y-81440475D01*
X170061961Y-81440475D02*
X169966723Y-81488094D01*
X169966723Y-81488094D02*
X169776247Y-81535713D01*
X169776247Y-81535713D02*
X169633390Y-81535713D01*
X169633390Y-81535713D02*
X169442914Y-81488094D01*
X169442914Y-81488094D02*
X169347676Y-81440475D01*
X169347676Y-81440475D02*
X169252438Y-81345237D01*
X169252438Y-81345237D02*
X169204819Y-81202380D01*
X169204819Y-81202380D02*
X169204819Y-81107142D01*
X169204819Y-81107142D02*
X169252438Y-80964285D01*
X169252438Y-80964285D02*
X169300057Y-80916666D01*
X169204819Y-80011904D02*
X169204819Y-80488094D01*
X169204819Y-80488094D02*
X169681009Y-80535713D01*
X169681009Y-80535713D02*
X169633390Y-80488094D01*
X169633390Y-80488094D02*
X169585771Y-80392856D01*
X169585771Y-80392856D02*
X169585771Y-80154761D01*
X169585771Y-80154761D02*
X169633390Y-80059523D01*
X169633390Y-80059523D02*
X169681009Y-80011904D01*
X169681009Y-80011904D02*
X169776247Y-79964285D01*
X169776247Y-79964285D02*
X170014342Y-79964285D01*
X170014342Y-79964285D02*
X170109580Y-80011904D01*
X170109580Y-80011904D02*
X170157200Y-80059523D01*
X170157200Y-80059523D02*
X170204819Y-80154761D01*
X170204819Y-80154761D02*
X170204819Y-80392856D01*
X170204819Y-80392856D02*
X170157200Y-80488094D01*
X170157200Y-80488094D02*
X170109580Y-80535713D01*
X135954819Y-88750000D02*
X135478628Y-89083333D01*
X135954819Y-89321428D02*
X134954819Y-89321428D01*
X134954819Y-89321428D02*
X134954819Y-88940476D01*
X134954819Y-88940476D02*
X135002438Y-88845238D01*
X135002438Y-88845238D02*
X135050057Y-88797619D01*
X135050057Y-88797619D02*
X135145295Y-88750000D01*
X135145295Y-88750000D02*
X135288152Y-88750000D01*
X135288152Y-88750000D02*
X135383390Y-88797619D01*
X135383390Y-88797619D02*
X135431009Y-88845238D01*
X135431009Y-88845238D02*
X135478628Y-88940476D01*
X135478628Y-88940476D02*
X135478628Y-89321428D01*
X135431009Y-87988095D02*
X135431009Y-88321428D01*
X135954819Y-88321428D02*
X134954819Y-88321428D01*
X134954819Y-88321428D02*
X134954819Y-87845238D01*
X135954819Y-86988095D02*
X135954819Y-87464285D01*
X135954819Y-87464285D02*
X134954819Y-87464285D01*
X135288152Y-86226190D02*
X135954819Y-86226190D01*
X134907200Y-86464285D02*
X135621485Y-86702380D01*
X135621485Y-86702380D02*
X135621485Y-86083333D01*
X153607142Y-100109580D02*
X153559523Y-100157200D01*
X153559523Y-100157200D02*
X153416666Y-100204819D01*
X153416666Y-100204819D02*
X153321428Y-100204819D01*
X153321428Y-100204819D02*
X153178571Y-100157200D01*
X153178571Y-100157200D02*
X153083333Y-100061961D01*
X153083333Y-100061961D02*
X153035714Y-99966723D01*
X153035714Y-99966723D02*
X152988095Y-99776247D01*
X152988095Y-99776247D02*
X152988095Y-99633390D01*
X152988095Y-99633390D02*
X153035714Y-99442914D01*
X153035714Y-99442914D02*
X153083333Y-99347676D01*
X153083333Y-99347676D02*
X153178571Y-99252438D01*
X153178571Y-99252438D02*
X153321428Y-99204819D01*
X153321428Y-99204819D02*
X153416666Y-99204819D01*
X153416666Y-99204819D02*
X153559523Y-99252438D01*
X153559523Y-99252438D02*
X153607142Y-99300057D01*
X153988095Y-99300057D02*
X154035714Y-99252438D01*
X154035714Y-99252438D02*
X154130952Y-99204819D01*
X154130952Y-99204819D02*
X154369047Y-99204819D01*
X154369047Y-99204819D02*
X154464285Y-99252438D01*
X154464285Y-99252438D02*
X154511904Y-99300057D01*
X154511904Y-99300057D02*
X154559523Y-99395295D01*
X154559523Y-99395295D02*
X154559523Y-99490533D01*
X154559523Y-99490533D02*
X154511904Y-99633390D01*
X154511904Y-99633390D02*
X153940476Y-100204819D01*
X153940476Y-100204819D02*
X154559523Y-100204819D01*
X155178571Y-99204819D02*
X155273809Y-99204819D01*
X155273809Y-99204819D02*
X155369047Y-99252438D01*
X155369047Y-99252438D02*
X155416666Y-99300057D01*
X155416666Y-99300057D02*
X155464285Y-99395295D01*
X155464285Y-99395295D02*
X155511904Y-99585771D01*
X155511904Y-99585771D02*
X155511904Y-99823866D01*
X155511904Y-99823866D02*
X155464285Y-100014342D01*
X155464285Y-100014342D02*
X155416666Y-100109580D01*
X155416666Y-100109580D02*
X155369047Y-100157200D01*
X155369047Y-100157200D02*
X155273809Y-100204819D01*
X155273809Y-100204819D02*
X155178571Y-100204819D01*
X155178571Y-100204819D02*
X155083333Y-100157200D01*
X155083333Y-100157200D02*
X155035714Y-100109580D01*
X155035714Y-100109580D02*
X154988095Y-100014342D01*
X154988095Y-100014342D02*
X154940476Y-99823866D01*
X154940476Y-99823866D02*
X154940476Y-99585771D01*
X154940476Y-99585771D02*
X154988095Y-99395295D01*
X154988095Y-99395295D02*
X155035714Y-99300057D01*
X155035714Y-99300057D02*
X155083333Y-99252438D01*
X155083333Y-99252438D02*
X155178571Y-99204819D01*
X118607142Y-122954819D02*
X118273809Y-122478628D01*
X118035714Y-122954819D02*
X118035714Y-121954819D01*
X118035714Y-121954819D02*
X118416666Y-121954819D01*
X118416666Y-121954819D02*
X118511904Y-122002438D01*
X118511904Y-122002438D02*
X118559523Y-122050057D01*
X118559523Y-122050057D02*
X118607142Y-122145295D01*
X118607142Y-122145295D02*
X118607142Y-122288152D01*
X118607142Y-122288152D02*
X118559523Y-122383390D01*
X118559523Y-122383390D02*
X118511904Y-122431009D01*
X118511904Y-122431009D02*
X118416666Y-122478628D01*
X118416666Y-122478628D02*
X118035714Y-122478628D01*
X118988095Y-122050057D02*
X119035714Y-122002438D01*
X119035714Y-122002438D02*
X119130952Y-121954819D01*
X119130952Y-121954819D02*
X119369047Y-121954819D01*
X119369047Y-121954819D02*
X119464285Y-122002438D01*
X119464285Y-122002438D02*
X119511904Y-122050057D01*
X119511904Y-122050057D02*
X119559523Y-122145295D01*
X119559523Y-122145295D02*
X119559523Y-122240533D01*
X119559523Y-122240533D02*
X119511904Y-122383390D01*
X119511904Y-122383390D02*
X118940476Y-122954819D01*
X118940476Y-122954819D02*
X119559523Y-122954819D01*
X120511904Y-122954819D02*
X119940476Y-122954819D01*
X120226190Y-122954819D02*
X120226190Y-121954819D01*
X120226190Y-121954819D02*
X120130952Y-122097676D01*
X120130952Y-122097676D02*
X120035714Y-122192914D01*
X120035714Y-122192914D02*
X119940476Y-122240533D01*
X153607142Y-108109580D02*
X153559523Y-108157200D01*
X153559523Y-108157200D02*
X153416666Y-108204819D01*
X153416666Y-108204819D02*
X153321428Y-108204819D01*
X153321428Y-108204819D02*
X153178571Y-108157200D01*
X153178571Y-108157200D02*
X153083333Y-108061961D01*
X153083333Y-108061961D02*
X153035714Y-107966723D01*
X153035714Y-107966723D02*
X152988095Y-107776247D01*
X152988095Y-107776247D02*
X152988095Y-107633390D01*
X152988095Y-107633390D02*
X153035714Y-107442914D01*
X153035714Y-107442914D02*
X153083333Y-107347676D01*
X153083333Y-107347676D02*
X153178571Y-107252438D01*
X153178571Y-107252438D02*
X153321428Y-107204819D01*
X153321428Y-107204819D02*
X153416666Y-107204819D01*
X153416666Y-107204819D02*
X153559523Y-107252438D01*
X153559523Y-107252438D02*
X153607142Y-107300057D01*
X153988095Y-107300057D02*
X154035714Y-107252438D01*
X154035714Y-107252438D02*
X154130952Y-107204819D01*
X154130952Y-107204819D02*
X154369047Y-107204819D01*
X154369047Y-107204819D02*
X154464285Y-107252438D01*
X154464285Y-107252438D02*
X154511904Y-107300057D01*
X154511904Y-107300057D02*
X154559523Y-107395295D01*
X154559523Y-107395295D02*
X154559523Y-107490533D01*
X154559523Y-107490533D02*
X154511904Y-107633390D01*
X154511904Y-107633390D02*
X153940476Y-108204819D01*
X153940476Y-108204819D02*
X154559523Y-108204819D01*
X154892857Y-107204819D02*
X155511904Y-107204819D01*
X155511904Y-107204819D02*
X155178571Y-107585771D01*
X155178571Y-107585771D02*
X155321428Y-107585771D01*
X155321428Y-107585771D02*
X155416666Y-107633390D01*
X155416666Y-107633390D02*
X155464285Y-107681009D01*
X155464285Y-107681009D02*
X155511904Y-107776247D01*
X155511904Y-107776247D02*
X155511904Y-108014342D01*
X155511904Y-108014342D02*
X155464285Y-108109580D01*
X155464285Y-108109580D02*
X155416666Y-108157200D01*
X155416666Y-108157200D02*
X155321428Y-108204819D01*
X155321428Y-108204819D02*
X155035714Y-108204819D01*
X155035714Y-108204819D02*
X154940476Y-108157200D01*
X154940476Y-108157200D02*
X154892857Y-108109580D01*
X149954819Y-83342857D02*
X149478628Y-83676190D01*
X149954819Y-83914285D02*
X148954819Y-83914285D01*
X148954819Y-83914285D02*
X148954819Y-83533333D01*
X148954819Y-83533333D02*
X149002438Y-83438095D01*
X149002438Y-83438095D02*
X149050057Y-83390476D01*
X149050057Y-83390476D02*
X149145295Y-83342857D01*
X149145295Y-83342857D02*
X149288152Y-83342857D01*
X149288152Y-83342857D02*
X149383390Y-83390476D01*
X149383390Y-83390476D02*
X149431009Y-83438095D01*
X149431009Y-83438095D02*
X149478628Y-83533333D01*
X149478628Y-83533333D02*
X149478628Y-83914285D01*
X149907200Y-82961904D02*
X149954819Y-82819047D01*
X149954819Y-82819047D02*
X149954819Y-82580952D01*
X149954819Y-82580952D02*
X149907200Y-82485714D01*
X149907200Y-82485714D02*
X149859580Y-82438095D01*
X149859580Y-82438095D02*
X149764342Y-82390476D01*
X149764342Y-82390476D02*
X149669104Y-82390476D01*
X149669104Y-82390476D02*
X149573866Y-82438095D01*
X149573866Y-82438095D02*
X149526247Y-82485714D01*
X149526247Y-82485714D02*
X149478628Y-82580952D01*
X149478628Y-82580952D02*
X149431009Y-82771428D01*
X149431009Y-82771428D02*
X149383390Y-82866666D01*
X149383390Y-82866666D02*
X149335771Y-82914285D01*
X149335771Y-82914285D02*
X149240533Y-82961904D01*
X149240533Y-82961904D02*
X149145295Y-82961904D01*
X149145295Y-82961904D02*
X149050057Y-82914285D01*
X149050057Y-82914285D02*
X149002438Y-82866666D01*
X149002438Y-82866666D02*
X148954819Y-82771428D01*
X148954819Y-82771428D02*
X148954819Y-82533333D01*
X148954819Y-82533333D02*
X149002438Y-82390476D01*
X148954819Y-81533333D02*
X148954819Y-81723809D01*
X148954819Y-81723809D02*
X149002438Y-81819047D01*
X149002438Y-81819047D02*
X149050057Y-81866666D01*
X149050057Y-81866666D02*
X149192914Y-81961904D01*
X149192914Y-81961904D02*
X149383390Y-82009523D01*
X149383390Y-82009523D02*
X149764342Y-82009523D01*
X149764342Y-82009523D02*
X149859580Y-81961904D01*
X149859580Y-81961904D02*
X149907200Y-81914285D01*
X149907200Y-81914285D02*
X149954819Y-81819047D01*
X149954819Y-81819047D02*
X149954819Y-81628571D01*
X149954819Y-81628571D02*
X149907200Y-81533333D01*
X149907200Y-81533333D02*
X149859580Y-81485714D01*
X149859580Y-81485714D02*
X149764342Y-81438095D01*
X149764342Y-81438095D02*
X149526247Y-81438095D01*
X149526247Y-81438095D02*
X149431009Y-81485714D01*
X149431009Y-81485714D02*
X149383390Y-81533333D01*
X149383390Y-81533333D02*
X149335771Y-81628571D01*
X149335771Y-81628571D02*
X149335771Y-81819047D01*
X149335771Y-81819047D02*
X149383390Y-81914285D01*
X149383390Y-81914285D02*
X149431009Y-81961904D01*
X149431009Y-81961904D02*
X149526247Y-82009523D01*
X144704819Y-79152380D02*
X144704819Y-79723808D01*
X144704819Y-79438094D02*
X143704819Y-79438094D01*
X143704819Y-79438094D02*
X143847676Y-79533332D01*
X143847676Y-79533332D02*
X143942914Y-79628570D01*
X143942914Y-79628570D02*
X143990533Y-79723808D01*
X144704819Y-78723808D02*
X144038152Y-78723808D01*
X144133390Y-78723808D02*
X144085771Y-78676189D01*
X144085771Y-78676189D02*
X144038152Y-78580951D01*
X144038152Y-78580951D02*
X144038152Y-78438094D01*
X144038152Y-78438094D02*
X144085771Y-78342856D01*
X144085771Y-78342856D02*
X144181009Y-78295237D01*
X144181009Y-78295237D02*
X144704819Y-78295237D01*
X144181009Y-78295237D02*
X144085771Y-78247618D01*
X144085771Y-78247618D02*
X144038152Y-78152380D01*
X144038152Y-78152380D02*
X144038152Y-78009523D01*
X144038152Y-78009523D02*
X144085771Y-77914284D01*
X144085771Y-77914284D02*
X144181009Y-77866665D01*
X144181009Y-77866665D02*
X144704819Y-77866665D01*
X144704819Y-77438094D02*
X144704819Y-77199999D01*
X144704819Y-77199999D02*
X144514342Y-77199999D01*
X144514342Y-77199999D02*
X144466723Y-77295237D01*
X144466723Y-77295237D02*
X144371485Y-77390475D01*
X144371485Y-77390475D02*
X144228628Y-77438094D01*
X144228628Y-77438094D02*
X143990533Y-77438094D01*
X143990533Y-77438094D02*
X143847676Y-77390475D01*
X143847676Y-77390475D02*
X143752438Y-77295237D01*
X143752438Y-77295237D02*
X143704819Y-77152380D01*
X143704819Y-77152380D02*
X143704819Y-76961904D01*
X143704819Y-76961904D02*
X143752438Y-76819047D01*
X143752438Y-76819047D02*
X143847676Y-76723809D01*
X143847676Y-76723809D02*
X143990533Y-76676190D01*
X143990533Y-76676190D02*
X144228628Y-76676190D01*
X144228628Y-76676190D02*
X144371485Y-76723809D01*
X144371485Y-76723809D02*
X144466723Y-76819047D01*
X144466723Y-76819047D02*
X144514342Y-76914285D01*
X144514342Y-76914285D02*
X144704819Y-76914285D01*
X144704819Y-76914285D02*
X144704819Y-76676190D01*
X114704819Y-103738094D02*
X115514342Y-103738094D01*
X115514342Y-103738094D02*
X115609580Y-103690475D01*
X115609580Y-103690475D02*
X115657200Y-103642856D01*
X115657200Y-103642856D02*
X115704819Y-103547618D01*
X115704819Y-103547618D02*
X115704819Y-103357142D01*
X115704819Y-103357142D02*
X115657200Y-103261904D01*
X115657200Y-103261904D02*
X115609580Y-103214285D01*
X115609580Y-103214285D02*
X115514342Y-103166666D01*
X115514342Y-103166666D02*
X114704819Y-103166666D01*
X115704819Y-102166666D02*
X115704819Y-102738094D01*
X115704819Y-102452380D02*
X114704819Y-102452380D01*
X114704819Y-102452380D02*
X114847676Y-102547618D01*
X114847676Y-102547618D02*
X114942914Y-102642856D01*
X114942914Y-102642856D02*
X114990533Y-102738094D01*
X114704819Y-101547618D02*
X114704819Y-101452380D01*
X114704819Y-101452380D02*
X114752438Y-101357142D01*
X114752438Y-101357142D02*
X114800057Y-101309523D01*
X114800057Y-101309523D02*
X114895295Y-101261904D01*
X114895295Y-101261904D02*
X115085771Y-101214285D01*
X115085771Y-101214285D02*
X115323866Y-101214285D01*
X115323866Y-101214285D02*
X115514342Y-101261904D01*
X115514342Y-101261904D02*
X115609580Y-101309523D01*
X115609580Y-101309523D02*
X115657200Y-101357142D01*
X115657200Y-101357142D02*
X115704819Y-101452380D01*
X115704819Y-101452380D02*
X115704819Y-101547618D01*
X115704819Y-101547618D02*
X115657200Y-101642856D01*
X115657200Y-101642856D02*
X115609580Y-101690475D01*
X115609580Y-101690475D02*
X115514342Y-101738094D01*
X115514342Y-101738094D02*
X115323866Y-101785713D01*
X115323866Y-101785713D02*
X115085771Y-101785713D01*
X115085771Y-101785713D02*
X114895295Y-101738094D01*
X114895295Y-101738094D02*
X114800057Y-101690475D01*
X114800057Y-101690475D02*
X114752438Y-101642856D01*
X114752438Y-101642856D02*
X114704819Y-101547618D01*
X119859580Y-92595238D02*
X119907200Y-92642857D01*
X119907200Y-92642857D02*
X119954819Y-92785714D01*
X119954819Y-92785714D02*
X119954819Y-92880952D01*
X119954819Y-92880952D02*
X119907200Y-93023809D01*
X119907200Y-93023809D02*
X119811961Y-93119047D01*
X119811961Y-93119047D02*
X119716723Y-93166666D01*
X119716723Y-93166666D02*
X119526247Y-93214285D01*
X119526247Y-93214285D02*
X119383390Y-93214285D01*
X119383390Y-93214285D02*
X119192914Y-93166666D01*
X119192914Y-93166666D02*
X119097676Y-93119047D01*
X119097676Y-93119047D02*
X119002438Y-93023809D01*
X119002438Y-93023809D02*
X118954819Y-92880952D01*
X118954819Y-92880952D02*
X118954819Y-92785714D01*
X118954819Y-92785714D02*
X119002438Y-92642857D01*
X119002438Y-92642857D02*
X119050057Y-92595238D01*
X119431009Y-91833333D02*
X119431009Y-92166666D01*
X119954819Y-92166666D02*
X118954819Y-92166666D01*
X118954819Y-92166666D02*
X118954819Y-91690476D01*
X119050057Y-91357142D02*
X119002438Y-91309523D01*
X119002438Y-91309523D02*
X118954819Y-91214285D01*
X118954819Y-91214285D02*
X118954819Y-90976190D01*
X118954819Y-90976190D02*
X119002438Y-90880952D01*
X119002438Y-90880952D02*
X119050057Y-90833333D01*
X119050057Y-90833333D02*
X119145295Y-90785714D01*
X119145295Y-90785714D02*
X119240533Y-90785714D01*
X119240533Y-90785714D02*
X119383390Y-90833333D01*
X119383390Y-90833333D02*
X119954819Y-91404761D01*
X119954819Y-91404761D02*
X119954819Y-90785714D01*
X135357142Y-91359580D02*
X135309523Y-91407200D01*
X135309523Y-91407200D02*
X135166666Y-91454819D01*
X135166666Y-91454819D02*
X135071428Y-91454819D01*
X135071428Y-91454819D02*
X134928571Y-91407200D01*
X134928571Y-91407200D02*
X134833333Y-91311961D01*
X134833333Y-91311961D02*
X134785714Y-91216723D01*
X134785714Y-91216723D02*
X134738095Y-91026247D01*
X134738095Y-91026247D02*
X134738095Y-90883390D01*
X134738095Y-90883390D02*
X134785714Y-90692914D01*
X134785714Y-90692914D02*
X134833333Y-90597676D01*
X134833333Y-90597676D02*
X134928571Y-90502438D01*
X134928571Y-90502438D02*
X135071428Y-90454819D01*
X135071428Y-90454819D02*
X135166666Y-90454819D01*
X135166666Y-90454819D02*
X135309523Y-90502438D01*
X135309523Y-90502438D02*
X135357142Y-90550057D01*
X136309523Y-91454819D02*
X135738095Y-91454819D01*
X136023809Y-91454819D02*
X136023809Y-90454819D01*
X136023809Y-90454819D02*
X135928571Y-90597676D01*
X135928571Y-90597676D02*
X135833333Y-90692914D01*
X135833333Y-90692914D02*
X135738095Y-90740533D01*
X136642857Y-90454819D02*
X137261904Y-90454819D01*
X137261904Y-90454819D02*
X136928571Y-90835771D01*
X136928571Y-90835771D02*
X137071428Y-90835771D01*
X137071428Y-90835771D02*
X137166666Y-90883390D01*
X137166666Y-90883390D02*
X137214285Y-90931009D01*
X137214285Y-90931009D02*
X137261904Y-91026247D01*
X137261904Y-91026247D02*
X137261904Y-91264342D01*
X137261904Y-91264342D02*
X137214285Y-91359580D01*
X137214285Y-91359580D02*
X137166666Y-91407200D01*
X137166666Y-91407200D02*
X137071428Y-91454819D01*
X137071428Y-91454819D02*
X136785714Y-91454819D01*
X136785714Y-91454819D02*
X136690476Y-91407200D01*
X136690476Y-91407200D02*
X136642857Y-91359580D01*
X150534819Y-94666666D02*
X150058628Y-94999999D01*
X150534819Y-95238094D02*
X149534819Y-95238094D01*
X149534819Y-95238094D02*
X149534819Y-94857142D01*
X149534819Y-94857142D02*
X149582438Y-94761904D01*
X149582438Y-94761904D02*
X149630057Y-94714285D01*
X149630057Y-94714285D02*
X149725295Y-94666666D01*
X149725295Y-94666666D02*
X149868152Y-94666666D01*
X149868152Y-94666666D02*
X149963390Y-94714285D01*
X149963390Y-94714285D02*
X150011009Y-94761904D01*
X150011009Y-94761904D02*
X150058628Y-94857142D01*
X150058628Y-94857142D02*
X150058628Y-95238094D01*
X149534819Y-93761904D02*
X149534819Y-94238094D01*
X149534819Y-94238094D02*
X150011009Y-94285713D01*
X150011009Y-94285713D02*
X149963390Y-94238094D01*
X149963390Y-94238094D02*
X149915771Y-94142856D01*
X149915771Y-94142856D02*
X149915771Y-93904761D01*
X149915771Y-93904761D02*
X149963390Y-93809523D01*
X149963390Y-93809523D02*
X150011009Y-93761904D01*
X150011009Y-93761904D02*
X150106247Y-93714285D01*
X150106247Y-93714285D02*
X150344342Y-93714285D01*
X150344342Y-93714285D02*
X150439580Y-93761904D01*
X150439580Y-93761904D02*
X150487200Y-93809523D01*
X150487200Y-93809523D02*
X150534819Y-93904761D01*
X150534819Y-93904761D02*
X150534819Y-94142856D01*
X150534819Y-94142856D02*
X150487200Y-94238094D01*
X150487200Y-94238094D02*
X150439580Y-94285713D01*
X150232142Y-79634819D02*
X149898809Y-79158628D01*
X149660714Y-79634819D02*
X149660714Y-78634819D01*
X149660714Y-78634819D02*
X150041666Y-78634819D01*
X150041666Y-78634819D02*
X150136904Y-78682438D01*
X150136904Y-78682438D02*
X150184523Y-78730057D01*
X150184523Y-78730057D02*
X150232142Y-78825295D01*
X150232142Y-78825295D02*
X150232142Y-78968152D01*
X150232142Y-78968152D02*
X150184523Y-79063390D01*
X150184523Y-79063390D02*
X150136904Y-79111009D01*
X150136904Y-79111009D02*
X150041666Y-79158628D01*
X150041666Y-79158628D02*
X149660714Y-79158628D01*
X151184523Y-79634819D02*
X150613095Y-79634819D01*
X150898809Y-79634819D02*
X150898809Y-78634819D01*
X150898809Y-78634819D02*
X150803571Y-78777676D01*
X150803571Y-78777676D02*
X150708333Y-78872914D01*
X150708333Y-78872914D02*
X150613095Y-78920533D01*
X151517857Y-78634819D02*
X152136904Y-78634819D01*
X152136904Y-78634819D02*
X151803571Y-79015771D01*
X151803571Y-79015771D02*
X151946428Y-79015771D01*
X151946428Y-79015771D02*
X152041666Y-79063390D01*
X152041666Y-79063390D02*
X152089285Y-79111009D01*
X152089285Y-79111009D02*
X152136904Y-79206247D01*
X152136904Y-79206247D02*
X152136904Y-79444342D01*
X152136904Y-79444342D02*
X152089285Y-79539580D01*
X152089285Y-79539580D02*
X152041666Y-79587200D01*
X152041666Y-79587200D02*
X151946428Y-79634819D01*
X151946428Y-79634819D02*
X151660714Y-79634819D01*
X151660714Y-79634819D02*
X151565476Y-79587200D01*
X151565476Y-79587200D02*
X151517857Y-79539580D01*
X150449580Y-85416666D02*
X150497200Y-85464285D01*
X150497200Y-85464285D02*
X150544819Y-85607142D01*
X150544819Y-85607142D02*
X150544819Y-85702380D01*
X150544819Y-85702380D02*
X150497200Y-85845237D01*
X150497200Y-85845237D02*
X150401961Y-85940475D01*
X150401961Y-85940475D02*
X150306723Y-85988094D01*
X150306723Y-85988094D02*
X150116247Y-86035713D01*
X150116247Y-86035713D02*
X149973390Y-86035713D01*
X149973390Y-86035713D02*
X149782914Y-85988094D01*
X149782914Y-85988094D02*
X149687676Y-85940475D01*
X149687676Y-85940475D02*
X149592438Y-85845237D01*
X149592438Y-85845237D02*
X149544819Y-85702380D01*
X149544819Y-85702380D02*
X149544819Y-85607142D01*
X149544819Y-85607142D02*
X149592438Y-85464285D01*
X149592438Y-85464285D02*
X149640057Y-85416666D01*
X149544819Y-85083332D02*
X149544819Y-84464285D01*
X149544819Y-84464285D02*
X149925771Y-84797618D01*
X149925771Y-84797618D02*
X149925771Y-84654761D01*
X149925771Y-84654761D02*
X149973390Y-84559523D01*
X149973390Y-84559523D02*
X150021009Y-84511904D01*
X150021009Y-84511904D02*
X150116247Y-84464285D01*
X150116247Y-84464285D02*
X150354342Y-84464285D01*
X150354342Y-84464285D02*
X150449580Y-84511904D01*
X150449580Y-84511904D02*
X150497200Y-84559523D01*
X150497200Y-84559523D02*
X150544819Y-84654761D01*
X150544819Y-84654761D02*
X150544819Y-84940475D01*
X150544819Y-84940475D02*
X150497200Y-85035713D01*
X150497200Y-85035713D02*
X150449580Y-85083332D01*
X161833333Y-70204819D02*
X161500000Y-69728628D01*
X161261905Y-70204819D02*
X161261905Y-69204819D01*
X161261905Y-69204819D02*
X161642857Y-69204819D01*
X161642857Y-69204819D02*
X161738095Y-69252438D01*
X161738095Y-69252438D02*
X161785714Y-69300057D01*
X161785714Y-69300057D02*
X161833333Y-69395295D01*
X161833333Y-69395295D02*
X161833333Y-69538152D01*
X161833333Y-69538152D02*
X161785714Y-69633390D01*
X161785714Y-69633390D02*
X161738095Y-69681009D01*
X161738095Y-69681009D02*
X161642857Y-69728628D01*
X161642857Y-69728628D02*
X161261905Y-69728628D01*
X162309524Y-70204819D02*
X162500000Y-70204819D01*
X162500000Y-70204819D02*
X162595238Y-70157200D01*
X162595238Y-70157200D02*
X162642857Y-70109580D01*
X162642857Y-70109580D02*
X162738095Y-69966723D01*
X162738095Y-69966723D02*
X162785714Y-69776247D01*
X162785714Y-69776247D02*
X162785714Y-69395295D01*
X162785714Y-69395295D02*
X162738095Y-69300057D01*
X162738095Y-69300057D02*
X162690476Y-69252438D01*
X162690476Y-69252438D02*
X162595238Y-69204819D01*
X162595238Y-69204819D02*
X162404762Y-69204819D01*
X162404762Y-69204819D02*
X162309524Y-69252438D01*
X162309524Y-69252438D02*
X162261905Y-69300057D01*
X162261905Y-69300057D02*
X162214286Y-69395295D01*
X162214286Y-69395295D02*
X162214286Y-69633390D01*
X162214286Y-69633390D02*
X162261905Y-69728628D01*
X162261905Y-69728628D02*
X162309524Y-69776247D01*
X162309524Y-69776247D02*
X162404762Y-69823866D01*
X162404762Y-69823866D02*
X162595238Y-69823866D01*
X162595238Y-69823866D02*
X162690476Y-69776247D01*
X162690476Y-69776247D02*
X162738095Y-69728628D01*
X162738095Y-69728628D02*
X162785714Y-69633390D01*
X156797619Y-70204819D02*
X156321429Y-70204819D01*
X156321429Y-70204819D02*
X156273810Y-70681009D01*
X156273810Y-70681009D02*
X156321429Y-70633390D01*
X156321429Y-70633390D02*
X156416667Y-70585771D01*
X156416667Y-70585771D02*
X156654762Y-70585771D01*
X156654762Y-70585771D02*
X156750000Y-70633390D01*
X156750000Y-70633390D02*
X156797619Y-70681009D01*
X156797619Y-70681009D02*
X156845238Y-70776247D01*
X156845238Y-70776247D02*
X156845238Y-71014342D01*
X156845238Y-71014342D02*
X156797619Y-71109580D01*
X156797619Y-71109580D02*
X156750000Y-71157200D01*
X156750000Y-71157200D02*
X156654762Y-71204819D01*
X156654762Y-71204819D02*
X156416667Y-71204819D01*
X156416667Y-71204819D02*
X156321429Y-71157200D01*
X156321429Y-71157200D02*
X156273810Y-71109580D01*
X157273810Y-71109580D02*
X157321429Y-71157200D01*
X157321429Y-71157200D02*
X157273810Y-71204819D01*
X157273810Y-71204819D02*
X157226191Y-71157200D01*
X157226191Y-71157200D02*
X157273810Y-71109580D01*
X157273810Y-71109580D02*
X157273810Y-71204819D01*
X158273809Y-71204819D02*
X157702381Y-71204819D01*
X157988095Y-71204819D02*
X157988095Y-70204819D01*
X157988095Y-70204819D02*
X157892857Y-70347676D01*
X157892857Y-70347676D02*
X157797619Y-70442914D01*
X157797619Y-70442914D02*
X157702381Y-70490533D01*
X158702381Y-71204819D02*
X158702381Y-70204819D01*
X158797619Y-70823866D02*
X159083333Y-71204819D01*
X159083333Y-70538152D02*
X158702381Y-70919104D01*
X159464286Y-71204819D02*
X159702381Y-71204819D01*
X159702381Y-71204819D02*
X159702381Y-71014342D01*
X159702381Y-71014342D02*
X159607143Y-70966723D01*
X159607143Y-70966723D02*
X159511905Y-70871485D01*
X159511905Y-70871485D02*
X159464286Y-70728628D01*
X159464286Y-70728628D02*
X159464286Y-70490533D01*
X159464286Y-70490533D02*
X159511905Y-70347676D01*
X159511905Y-70347676D02*
X159607143Y-70252438D01*
X159607143Y-70252438D02*
X159750000Y-70204819D01*
X159750000Y-70204819D02*
X159940476Y-70204819D01*
X159940476Y-70204819D02*
X160083333Y-70252438D01*
X160083333Y-70252438D02*
X160178571Y-70347676D01*
X160178571Y-70347676D02*
X160226190Y-70490533D01*
X160226190Y-70490533D02*
X160226190Y-70728628D01*
X160226190Y-70728628D02*
X160178571Y-70871485D01*
X160178571Y-70871485D02*
X160083333Y-70966723D01*
X160083333Y-70966723D02*
X159988095Y-71014342D01*
X159988095Y-71014342D02*
X159988095Y-71204819D01*
X159988095Y-71204819D02*
X160226190Y-71204819D01*
X162376666Y-71804819D02*
X162376666Y-72519104D01*
X162376666Y-72519104D02*
X162329047Y-72661961D01*
X162329047Y-72661961D02*
X162233809Y-72757200D01*
X162233809Y-72757200D02*
X162090952Y-72804819D01*
X162090952Y-72804819D02*
X161995714Y-72804819D01*
X163329047Y-71804819D02*
X162852857Y-71804819D01*
X162852857Y-71804819D02*
X162805238Y-72281009D01*
X162805238Y-72281009D02*
X162852857Y-72233390D01*
X162852857Y-72233390D02*
X162948095Y-72185771D01*
X162948095Y-72185771D02*
X163186190Y-72185771D01*
X163186190Y-72185771D02*
X163281428Y-72233390D01*
X163281428Y-72233390D02*
X163329047Y-72281009D01*
X163329047Y-72281009D02*
X163376666Y-72376247D01*
X163376666Y-72376247D02*
X163376666Y-72614342D01*
X163376666Y-72614342D02*
X163329047Y-72709580D01*
X163329047Y-72709580D02*
X163281428Y-72757200D01*
X163281428Y-72757200D02*
X163186190Y-72804819D01*
X163186190Y-72804819D02*
X162948095Y-72804819D01*
X162948095Y-72804819D02*
X162852857Y-72757200D01*
X162852857Y-72757200D02*
X162805238Y-72709580D01*
X152107142Y-104109580D02*
X152059523Y-104157200D01*
X152059523Y-104157200D02*
X151916666Y-104204819D01*
X151916666Y-104204819D02*
X151821428Y-104204819D01*
X151821428Y-104204819D02*
X151678571Y-104157200D01*
X151678571Y-104157200D02*
X151583333Y-104061961D01*
X151583333Y-104061961D02*
X151535714Y-103966723D01*
X151535714Y-103966723D02*
X151488095Y-103776247D01*
X151488095Y-103776247D02*
X151488095Y-103633390D01*
X151488095Y-103633390D02*
X151535714Y-103442914D01*
X151535714Y-103442914D02*
X151583333Y-103347676D01*
X151583333Y-103347676D02*
X151678571Y-103252438D01*
X151678571Y-103252438D02*
X151821428Y-103204819D01*
X151821428Y-103204819D02*
X151916666Y-103204819D01*
X151916666Y-103204819D02*
X152059523Y-103252438D01*
X152059523Y-103252438D02*
X152107142Y-103300057D01*
X152488095Y-103300057D02*
X152535714Y-103252438D01*
X152535714Y-103252438D02*
X152630952Y-103204819D01*
X152630952Y-103204819D02*
X152869047Y-103204819D01*
X152869047Y-103204819D02*
X152964285Y-103252438D01*
X152964285Y-103252438D02*
X153011904Y-103300057D01*
X153011904Y-103300057D02*
X153059523Y-103395295D01*
X153059523Y-103395295D02*
X153059523Y-103490533D01*
X153059523Y-103490533D02*
X153011904Y-103633390D01*
X153011904Y-103633390D02*
X152440476Y-104204819D01*
X152440476Y-104204819D02*
X153059523Y-104204819D01*
X153440476Y-103300057D02*
X153488095Y-103252438D01*
X153488095Y-103252438D02*
X153583333Y-103204819D01*
X153583333Y-103204819D02*
X153821428Y-103204819D01*
X153821428Y-103204819D02*
X153916666Y-103252438D01*
X153916666Y-103252438D02*
X153964285Y-103300057D01*
X153964285Y-103300057D02*
X154011904Y-103395295D01*
X154011904Y-103395295D02*
X154011904Y-103490533D01*
X154011904Y-103490533D02*
X153964285Y-103633390D01*
X153964285Y-103633390D02*
X153392857Y-104204819D01*
X153392857Y-104204819D02*
X154011904Y-104204819D01*
X141357142Y-91359580D02*
X141309523Y-91407200D01*
X141309523Y-91407200D02*
X141166666Y-91454819D01*
X141166666Y-91454819D02*
X141071428Y-91454819D01*
X141071428Y-91454819D02*
X140928571Y-91407200D01*
X140928571Y-91407200D02*
X140833333Y-91311961D01*
X140833333Y-91311961D02*
X140785714Y-91216723D01*
X140785714Y-91216723D02*
X140738095Y-91026247D01*
X140738095Y-91026247D02*
X140738095Y-90883390D01*
X140738095Y-90883390D02*
X140785714Y-90692914D01*
X140785714Y-90692914D02*
X140833333Y-90597676D01*
X140833333Y-90597676D02*
X140928571Y-90502438D01*
X140928571Y-90502438D02*
X141071428Y-90454819D01*
X141071428Y-90454819D02*
X141166666Y-90454819D01*
X141166666Y-90454819D02*
X141309523Y-90502438D01*
X141309523Y-90502438D02*
X141357142Y-90550057D01*
X142309523Y-91454819D02*
X141738095Y-91454819D01*
X142023809Y-91454819D02*
X142023809Y-90454819D01*
X142023809Y-90454819D02*
X141928571Y-90597676D01*
X141928571Y-90597676D02*
X141833333Y-90692914D01*
X141833333Y-90692914D02*
X141738095Y-90740533D01*
X143166666Y-90788152D02*
X143166666Y-91454819D01*
X142928571Y-90407200D02*
X142690476Y-91121485D01*
X142690476Y-91121485D02*
X143309523Y-91121485D01*
X123954819Y-89000000D02*
X123478628Y-89333333D01*
X123954819Y-89571428D02*
X122954819Y-89571428D01*
X122954819Y-89571428D02*
X122954819Y-89190476D01*
X122954819Y-89190476D02*
X123002438Y-89095238D01*
X123002438Y-89095238D02*
X123050057Y-89047619D01*
X123050057Y-89047619D02*
X123145295Y-89000000D01*
X123145295Y-89000000D02*
X123288152Y-89000000D01*
X123288152Y-89000000D02*
X123383390Y-89047619D01*
X123383390Y-89047619D02*
X123431009Y-89095238D01*
X123431009Y-89095238D02*
X123478628Y-89190476D01*
X123478628Y-89190476D02*
X123478628Y-89571428D01*
X123431009Y-88238095D02*
X123431009Y-88571428D01*
X123954819Y-88571428D02*
X122954819Y-88571428D01*
X122954819Y-88571428D02*
X122954819Y-88095238D01*
X123954819Y-87238095D02*
X123954819Y-87714285D01*
X123954819Y-87714285D02*
X122954819Y-87714285D01*
X123050057Y-86952380D02*
X123002438Y-86904761D01*
X123002438Y-86904761D02*
X122954819Y-86809523D01*
X122954819Y-86809523D02*
X122954819Y-86571428D01*
X122954819Y-86571428D02*
X123002438Y-86476190D01*
X123002438Y-86476190D02*
X123050057Y-86428571D01*
X123050057Y-86428571D02*
X123145295Y-86380952D01*
X123145295Y-86380952D02*
X123240533Y-86380952D01*
X123240533Y-86380952D02*
X123383390Y-86428571D01*
X123383390Y-86428571D02*
X123954819Y-86999999D01*
X123954819Y-86999999D02*
X123954819Y-86380952D01*
X144359580Y-92595238D02*
X144407200Y-92642857D01*
X144407200Y-92642857D02*
X144454819Y-92785714D01*
X144454819Y-92785714D02*
X144454819Y-92880952D01*
X144454819Y-92880952D02*
X144407200Y-93023809D01*
X144407200Y-93023809D02*
X144311961Y-93119047D01*
X144311961Y-93119047D02*
X144216723Y-93166666D01*
X144216723Y-93166666D02*
X144026247Y-93214285D01*
X144026247Y-93214285D02*
X143883390Y-93214285D01*
X143883390Y-93214285D02*
X143692914Y-93166666D01*
X143692914Y-93166666D02*
X143597676Y-93119047D01*
X143597676Y-93119047D02*
X143502438Y-93023809D01*
X143502438Y-93023809D02*
X143454819Y-92880952D01*
X143454819Y-92880952D02*
X143454819Y-92785714D01*
X143454819Y-92785714D02*
X143502438Y-92642857D01*
X143502438Y-92642857D02*
X143550057Y-92595238D01*
X143931009Y-91833333D02*
X143931009Y-92166666D01*
X144454819Y-92166666D02*
X143454819Y-92166666D01*
X143454819Y-92166666D02*
X143454819Y-91690476D01*
X143454819Y-90880952D02*
X143454819Y-91071428D01*
X143454819Y-91071428D02*
X143502438Y-91166666D01*
X143502438Y-91166666D02*
X143550057Y-91214285D01*
X143550057Y-91214285D02*
X143692914Y-91309523D01*
X143692914Y-91309523D02*
X143883390Y-91357142D01*
X143883390Y-91357142D02*
X144264342Y-91357142D01*
X144264342Y-91357142D02*
X144359580Y-91309523D01*
X144359580Y-91309523D02*
X144407200Y-91261904D01*
X144407200Y-91261904D02*
X144454819Y-91166666D01*
X144454819Y-91166666D02*
X144454819Y-90976190D01*
X144454819Y-90976190D02*
X144407200Y-90880952D01*
X144407200Y-90880952D02*
X144359580Y-90833333D01*
X144359580Y-90833333D02*
X144264342Y-90785714D01*
X144264342Y-90785714D02*
X144026247Y-90785714D01*
X144026247Y-90785714D02*
X143931009Y-90833333D01*
X143931009Y-90833333D02*
X143883390Y-90880952D01*
X143883390Y-90880952D02*
X143835771Y-90976190D01*
X143835771Y-90976190D02*
X143835771Y-91166666D01*
X143835771Y-91166666D02*
X143883390Y-91261904D01*
X143883390Y-91261904D02*
X143931009Y-91309523D01*
X143931009Y-91309523D02*
X144026247Y-91357142D01*
X132359580Y-92595238D02*
X132407200Y-92642857D01*
X132407200Y-92642857D02*
X132454819Y-92785714D01*
X132454819Y-92785714D02*
X132454819Y-92880952D01*
X132454819Y-92880952D02*
X132407200Y-93023809D01*
X132407200Y-93023809D02*
X132311961Y-93119047D01*
X132311961Y-93119047D02*
X132216723Y-93166666D01*
X132216723Y-93166666D02*
X132026247Y-93214285D01*
X132026247Y-93214285D02*
X131883390Y-93214285D01*
X131883390Y-93214285D02*
X131692914Y-93166666D01*
X131692914Y-93166666D02*
X131597676Y-93119047D01*
X131597676Y-93119047D02*
X131502438Y-93023809D01*
X131502438Y-93023809D02*
X131454819Y-92880952D01*
X131454819Y-92880952D02*
X131454819Y-92785714D01*
X131454819Y-92785714D02*
X131502438Y-92642857D01*
X131502438Y-92642857D02*
X131550057Y-92595238D01*
X131931009Y-91833333D02*
X131931009Y-92166666D01*
X132454819Y-92166666D02*
X131454819Y-92166666D01*
X131454819Y-92166666D02*
X131454819Y-91690476D01*
X131788152Y-90880952D02*
X132454819Y-90880952D01*
X131407200Y-91119047D02*
X132121485Y-91357142D01*
X132121485Y-91357142D02*
X132121485Y-90738095D01*
X161083333Y-63609580D02*
X161035714Y-63657200D01*
X161035714Y-63657200D02*
X160892857Y-63704819D01*
X160892857Y-63704819D02*
X160797619Y-63704819D01*
X160797619Y-63704819D02*
X160654762Y-63657200D01*
X160654762Y-63657200D02*
X160559524Y-63561961D01*
X160559524Y-63561961D02*
X160511905Y-63466723D01*
X160511905Y-63466723D02*
X160464286Y-63276247D01*
X160464286Y-63276247D02*
X160464286Y-63133390D01*
X160464286Y-63133390D02*
X160511905Y-62942914D01*
X160511905Y-62942914D02*
X160559524Y-62847676D01*
X160559524Y-62847676D02*
X160654762Y-62752438D01*
X160654762Y-62752438D02*
X160797619Y-62704819D01*
X160797619Y-62704819D02*
X160892857Y-62704819D01*
X160892857Y-62704819D02*
X161035714Y-62752438D01*
X161035714Y-62752438D02*
X161083333Y-62800057D01*
X161559524Y-63704819D02*
X161750000Y-63704819D01*
X161750000Y-63704819D02*
X161845238Y-63657200D01*
X161845238Y-63657200D02*
X161892857Y-63609580D01*
X161892857Y-63609580D02*
X161988095Y-63466723D01*
X161988095Y-63466723D02*
X162035714Y-63276247D01*
X162035714Y-63276247D02*
X162035714Y-62895295D01*
X162035714Y-62895295D02*
X161988095Y-62800057D01*
X161988095Y-62800057D02*
X161940476Y-62752438D01*
X161940476Y-62752438D02*
X161845238Y-62704819D01*
X161845238Y-62704819D02*
X161654762Y-62704819D01*
X161654762Y-62704819D02*
X161559524Y-62752438D01*
X161559524Y-62752438D02*
X161511905Y-62800057D01*
X161511905Y-62800057D02*
X161464286Y-62895295D01*
X161464286Y-62895295D02*
X161464286Y-63133390D01*
X161464286Y-63133390D02*
X161511905Y-63228628D01*
X161511905Y-63228628D02*
X161559524Y-63276247D01*
X161559524Y-63276247D02*
X161654762Y-63323866D01*
X161654762Y-63323866D02*
X161845238Y-63323866D01*
X161845238Y-63323866D02*
X161940476Y-63276247D01*
X161940476Y-63276247D02*
X161988095Y-63228628D01*
X161988095Y-63228628D02*
X162035714Y-63133390D01*
X169954819Y-78916666D02*
X169478628Y-79249999D01*
X169954819Y-79488094D02*
X168954819Y-79488094D01*
X168954819Y-79488094D02*
X168954819Y-79107142D01*
X168954819Y-79107142D02*
X169002438Y-79011904D01*
X169002438Y-79011904D02*
X169050057Y-78964285D01*
X169050057Y-78964285D02*
X169145295Y-78916666D01*
X169145295Y-78916666D02*
X169288152Y-78916666D01*
X169288152Y-78916666D02*
X169383390Y-78964285D01*
X169383390Y-78964285D02*
X169431009Y-79011904D01*
X169431009Y-79011904D02*
X169478628Y-79107142D01*
X169478628Y-79107142D02*
X169478628Y-79488094D01*
X169050057Y-78535713D02*
X169002438Y-78488094D01*
X169002438Y-78488094D02*
X168954819Y-78392856D01*
X168954819Y-78392856D02*
X168954819Y-78154761D01*
X168954819Y-78154761D02*
X169002438Y-78059523D01*
X169002438Y-78059523D02*
X169050057Y-78011904D01*
X169050057Y-78011904D02*
X169145295Y-77964285D01*
X169145295Y-77964285D02*
X169240533Y-77964285D01*
X169240533Y-77964285D02*
X169383390Y-78011904D01*
X169383390Y-78011904D02*
X169954819Y-78583332D01*
X169954819Y-78583332D02*
X169954819Y-77964285D01*
X126704819Y-89119047D02*
X126228628Y-89452380D01*
X126704819Y-89690475D02*
X125704819Y-89690475D01*
X125704819Y-89690475D02*
X125704819Y-89309523D01*
X125704819Y-89309523D02*
X125752438Y-89214285D01*
X125752438Y-89214285D02*
X125800057Y-89166666D01*
X125800057Y-89166666D02*
X125895295Y-89119047D01*
X125895295Y-89119047D02*
X126038152Y-89119047D01*
X126038152Y-89119047D02*
X126133390Y-89166666D01*
X126133390Y-89166666D02*
X126181009Y-89214285D01*
X126181009Y-89214285D02*
X126228628Y-89309523D01*
X126228628Y-89309523D02*
X126228628Y-89690475D01*
X126181009Y-88357142D02*
X126181009Y-88690475D01*
X126704819Y-88690475D02*
X125704819Y-88690475D01*
X125704819Y-88690475D02*
X125704819Y-88214285D01*
X126704819Y-87833332D02*
X125704819Y-87833332D01*
X126181009Y-87833332D02*
X126181009Y-87261904D01*
X126704819Y-87261904D02*
X125704819Y-87261904D01*
X125704819Y-86880951D02*
X125704819Y-86261904D01*
X125704819Y-86261904D02*
X126085771Y-86595237D01*
X126085771Y-86595237D02*
X126085771Y-86452380D01*
X126085771Y-86452380D02*
X126133390Y-86357142D01*
X126133390Y-86357142D02*
X126181009Y-86309523D01*
X126181009Y-86309523D02*
X126276247Y-86261904D01*
X126276247Y-86261904D02*
X126514342Y-86261904D01*
X126514342Y-86261904D02*
X126609580Y-86309523D01*
X126609580Y-86309523D02*
X126657200Y-86357142D01*
X126657200Y-86357142D02*
X126704819Y-86452380D01*
X126704819Y-86452380D02*
X126704819Y-86738094D01*
X126704819Y-86738094D02*
X126657200Y-86833332D01*
X126657200Y-86833332D02*
X126609580Y-86880951D01*
X161583333Y-108609580D02*
X161535714Y-108657200D01*
X161535714Y-108657200D02*
X161392857Y-108704819D01*
X161392857Y-108704819D02*
X161297619Y-108704819D01*
X161297619Y-108704819D02*
X161154762Y-108657200D01*
X161154762Y-108657200D02*
X161059524Y-108561961D01*
X161059524Y-108561961D02*
X161011905Y-108466723D01*
X161011905Y-108466723D02*
X160964286Y-108276247D01*
X160964286Y-108276247D02*
X160964286Y-108133390D01*
X160964286Y-108133390D02*
X161011905Y-107942914D01*
X161011905Y-107942914D02*
X161059524Y-107847676D01*
X161059524Y-107847676D02*
X161154762Y-107752438D01*
X161154762Y-107752438D02*
X161297619Y-107704819D01*
X161297619Y-107704819D02*
X161392857Y-107704819D01*
X161392857Y-107704819D02*
X161535714Y-107752438D01*
X161535714Y-107752438D02*
X161583333Y-107800057D01*
X162440476Y-108038152D02*
X162440476Y-108704819D01*
X162202381Y-107657200D02*
X161964286Y-108371485D01*
X161964286Y-108371485D02*
X162583333Y-108371485D01*
X138454819Y-103738094D02*
X139264342Y-103738094D01*
X139264342Y-103738094D02*
X139359580Y-103690475D01*
X139359580Y-103690475D02*
X139407200Y-103642856D01*
X139407200Y-103642856D02*
X139454819Y-103547618D01*
X139454819Y-103547618D02*
X139454819Y-103357142D01*
X139454819Y-103357142D02*
X139407200Y-103261904D01*
X139407200Y-103261904D02*
X139359580Y-103214285D01*
X139359580Y-103214285D02*
X139264342Y-103166666D01*
X139264342Y-103166666D02*
X138454819Y-103166666D01*
X139454819Y-102166666D02*
X139454819Y-102738094D01*
X139454819Y-102452380D02*
X138454819Y-102452380D01*
X138454819Y-102452380D02*
X138597676Y-102547618D01*
X138597676Y-102547618D02*
X138692914Y-102642856D01*
X138692914Y-102642856D02*
X138740533Y-102738094D01*
X138788152Y-101309523D02*
X139454819Y-101309523D01*
X138407200Y-101547618D02*
X139121485Y-101785713D01*
X139121485Y-101785713D02*
X139121485Y-101166666D01*
X132704819Y-88869047D02*
X132228628Y-89202380D01*
X132704819Y-89440475D02*
X131704819Y-89440475D01*
X131704819Y-89440475D02*
X131704819Y-89059523D01*
X131704819Y-89059523D02*
X131752438Y-88964285D01*
X131752438Y-88964285D02*
X131800057Y-88916666D01*
X131800057Y-88916666D02*
X131895295Y-88869047D01*
X131895295Y-88869047D02*
X132038152Y-88869047D01*
X132038152Y-88869047D02*
X132133390Y-88916666D01*
X132133390Y-88916666D02*
X132181009Y-88964285D01*
X132181009Y-88964285D02*
X132228628Y-89059523D01*
X132228628Y-89059523D02*
X132228628Y-89440475D01*
X132181009Y-88107142D02*
X132181009Y-88440475D01*
X132704819Y-88440475D02*
X131704819Y-88440475D01*
X131704819Y-88440475D02*
X131704819Y-87964285D01*
X132704819Y-87583332D02*
X131704819Y-87583332D01*
X132181009Y-87583332D02*
X132181009Y-87011904D01*
X132704819Y-87011904D02*
X131704819Y-87011904D01*
X132038152Y-86107142D02*
X132704819Y-86107142D01*
X131657200Y-86345237D02*
X132371485Y-86583332D01*
X132371485Y-86583332D02*
X132371485Y-85964285D01*
X115394286Y-125704819D02*
X115965714Y-125704819D01*
X115680000Y-126704819D02*
X115680000Y-125704819D01*
X116299048Y-126704819D02*
X116299048Y-125704819D01*
X116299048Y-126181009D02*
X116870476Y-126181009D01*
X116870476Y-126704819D02*
X116870476Y-125704819D01*
X117299048Y-125800057D02*
X117346667Y-125752438D01*
X117346667Y-125752438D02*
X117441905Y-125704819D01*
X117441905Y-125704819D02*
X117680000Y-125704819D01*
X117680000Y-125704819D02*
X117775238Y-125752438D01*
X117775238Y-125752438D02*
X117822857Y-125800057D01*
X117822857Y-125800057D02*
X117870476Y-125895295D01*
X117870476Y-125895295D02*
X117870476Y-125990533D01*
X117870476Y-125990533D02*
X117822857Y-126133390D01*
X117822857Y-126133390D02*
X117251429Y-126704819D01*
X117251429Y-126704819D02*
X117870476Y-126704819D01*
X152761905Y-123554819D02*
X152761905Y-122554819D01*
X152761905Y-122554819D02*
X153000000Y-122554819D01*
X153000000Y-122554819D02*
X153142857Y-122602438D01*
X153142857Y-122602438D02*
X153238095Y-122697676D01*
X153238095Y-122697676D02*
X153285714Y-122792914D01*
X153285714Y-122792914D02*
X153333333Y-122983390D01*
X153333333Y-122983390D02*
X153333333Y-123126247D01*
X153333333Y-123126247D02*
X153285714Y-123316723D01*
X153285714Y-123316723D02*
X153238095Y-123411961D01*
X153238095Y-123411961D02*
X153142857Y-123507200D01*
X153142857Y-123507200D02*
X153000000Y-123554819D01*
X153000000Y-123554819D02*
X152761905Y-123554819D01*
X154285714Y-123554819D02*
X153714286Y-123554819D01*
X154000000Y-123554819D02*
X154000000Y-122554819D01*
X154000000Y-122554819D02*
X153904762Y-122697676D01*
X153904762Y-122697676D02*
X153809524Y-122792914D01*
X153809524Y-122792914D02*
X153714286Y-122840533D01*
X117704819Y-88750000D02*
X117228628Y-89083333D01*
X117704819Y-89321428D02*
X116704819Y-89321428D01*
X116704819Y-89321428D02*
X116704819Y-88940476D01*
X116704819Y-88940476D02*
X116752438Y-88845238D01*
X116752438Y-88845238D02*
X116800057Y-88797619D01*
X116800057Y-88797619D02*
X116895295Y-88750000D01*
X116895295Y-88750000D02*
X117038152Y-88750000D01*
X117038152Y-88750000D02*
X117133390Y-88797619D01*
X117133390Y-88797619D02*
X117181009Y-88845238D01*
X117181009Y-88845238D02*
X117228628Y-88940476D01*
X117228628Y-88940476D02*
X117228628Y-89321428D01*
X117181009Y-87988095D02*
X117181009Y-88321428D01*
X117704819Y-88321428D02*
X116704819Y-88321428D01*
X116704819Y-88321428D02*
X116704819Y-87845238D01*
X117704819Y-86988095D02*
X117704819Y-87464285D01*
X117704819Y-87464285D02*
X116704819Y-87464285D01*
X117704819Y-86130952D02*
X117704819Y-86702380D01*
X117704819Y-86416666D02*
X116704819Y-86416666D01*
X116704819Y-86416666D02*
X116847676Y-86511904D01*
X116847676Y-86511904D02*
X116942914Y-86607142D01*
X116942914Y-86607142D02*
X116990533Y-86702380D01*
X132204819Y-83342857D02*
X131728628Y-83676190D01*
X132204819Y-83914285D02*
X131204819Y-83914285D01*
X131204819Y-83914285D02*
X131204819Y-83533333D01*
X131204819Y-83533333D02*
X131252438Y-83438095D01*
X131252438Y-83438095D02*
X131300057Y-83390476D01*
X131300057Y-83390476D02*
X131395295Y-83342857D01*
X131395295Y-83342857D02*
X131538152Y-83342857D01*
X131538152Y-83342857D02*
X131633390Y-83390476D01*
X131633390Y-83390476D02*
X131681009Y-83438095D01*
X131681009Y-83438095D02*
X131728628Y-83533333D01*
X131728628Y-83533333D02*
X131728628Y-83914285D01*
X132157200Y-82961904D02*
X132204819Y-82819047D01*
X132204819Y-82819047D02*
X132204819Y-82580952D01*
X132204819Y-82580952D02*
X132157200Y-82485714D01*
X132157200Y-82485714D02*
X132109580Y-82438095D01*
X132109580Y-82438095D02*
X132014342Y-82390476D01*
X132014342Y-82390476D02*
X131919104Y-82390476D01*
X131919104Y-82390476D02*
X131823866Y-82438095D01*
X131823866Y-82438095D02*
X131776247Y-82485714D01*
X131776247Y-82485714D02*
X131728628Y-82580952D01*
X131728628Y-82580952D02*
X131681009Y-82771428D01*
X131681009Y-82771428D02*
X131633390Y-82866666D01*
X131633390Y-82866666D02*
X131585771Y-82914285D01*
X131585771Y-82914285D02*
X131490533Y-82961904D01*
X131490533Y-82961904D02*
X131395295Y-82961904D01*
X131395295Y-82961904D02*
X131300057Y-82914285D01*
X131300057Y-82914285D02*
X131252438Y-82866666D01*
X131252438Y-82866666D02*
X131204819Y-82771428D01*
X131204819Y-82771428D02*
X131204819Y-82533333D01*
X131204819Y-82533333D02*
X131252438Y-82390476D01*
X131204819Y-82057142D02*
X131204819Y-81438095D01*
X131204819Y-81438095D02*
X131585771Y-81771428D01*
X131585771Y-81771428D02*
X131585771Y-81628571D01*
X131585771Y-81628571D02*
X131633390Y-81533333D01*
X131633390Y-81533333D02*
X131681009Y-81485714D01*
X131681009Y-81485714D02*
X131776247Y-81438095D01*
X131776247Y-81438095D02*
X132014342Y-81438095D01*
X132014342Y-81438095D02*
X132109580Y-81485714D01*
X132109580Y-81485714D02*
X132157200Y-81533333D01*
X132157200Y-81533333D02*
X132204819Y-81628571D01*
X132204819Y-81628571D02*
X132204819Y-81914285D01*
X132204819Y-81914285D02*
X132157200Y-82009523D01*
X132157200Y-82009523D02*
X132109580Y-82057142D01*
X126699819Y-79152380D02*
X126699819Y-79723808D01*
X126699819Y-79438094D02*
X125699819Y-79438094D01*
X125699819Y-79438094D02*
X125842676Y-79533332D01*
X125842676Y-79533332D02*
X125937914Y-79628570D01*
X125937914Y-79628570D02*
X125985533Y-79723808D01*
X126699819Y-78723808D02*
X126033152Y-78723808D01*
X126128390Y-78723808D02*
X126080771Y-78676189D01*
X126080771Y-78676189D02*
X126033152Y-78580951D01*
X126033152Y-78580951D02*
X126033152Y-78438094D01*
X126033152Y-78438094D02*
X126080771Y-78342856D01*
X126080771Y-78342856D02*
X126176009Y-78295237D01*
X126176009Y-78295237D02*
X126699819Y-78295237D01*
X126176009Y-78295237D02*
X126080771Y-78247618D01*
X126080771Y-78247618D02*
X126033152Y-78152380D01*
X126033152Y-78152380D02*
X126033152Y-78009523D01*
X126033152Y-78009523D02*
X126080771Y-77914284D01*
X126080771Y-77914284D02*
X126176009Y-77866665D01*
X126176009Y-77866665D02*
X126699819Y-77866665D01*
X126699819Y-77438094D02*
X126699819Y-77199999D01*
X126699819Y-77199999D02*
X126509342Y-77199999D01*
X126509342Y-77199999D02*
X126461723Y-77295237D01*
X126461723Y-77295237D02*
X126366485Y-77390475D01*
X126366485Y-77390475D02*
X126223628Y-77438094D01*
X126223628Y-77438094D02*
X125985533Y-77438094D01*
X125985533Y-77438094D02*
X125842676Y-77390475D01*
X125842676Y-77390475D02*
X125747438Y-77295237D01*
X125747438Y-77295237D02*
X125699819Y-77152380D01*
X125699819Y-77152380D02*
X125699819Y-76961904D01*
X125699819Y-76961904D02*
X125747438Y-76819047D01*
X125747438Y-76819047D02*
X125842676Y-76723809D01*
X125842676Y-76723809D02*
X125985533Y-76676190D01*
X125985533Y-76676190D02*
X126223628Y-76676190D01*
X126223628Y-76676190D02*
X126366485Y-76723809D01*
X126366485Y-76723809D02*
X126461723Y-76819047D01*
X126461723Y-76819047D02*
X126509342Y-76914285D01*
X126509342Y-76914285D02*
X126699819Y-76914285D01*
X126699819Y-76914285D02*
X126699819Y-76676190D01*
X158607142Y-100109580D02*
X158559523Y-100157200D01*
X158559523Y-100157200D02*
X158416666Y-100204819D01*
X158416666Y-100204819D02*
X158321428Y-100204819D01*
X158321428Y-100204819D02*
X158178571Y-100157200D01*
X158178571Y-100157200D02*
X158083333Y-100061961D01*
X158083333Y-100061961D02*
X158035714Y-99966723D01*
X158035714Y-99966723D02*
X157988095Y-99776247D01*
X157988095Y-99776247D02*
X157988095Y-99633390D01*
X157988095Y-99633390D02*
X158035714Y-99442914D01*
X158035714Y-99442914D02*
X158083333Y-99347676D01*
X158083333Y-99347676D02*
X158178571Y-99252438D01*
X158178571Y-99252438D02*
X158321428Y-99204819D01*
X158321428Y-99204819D02*
X158416666Y-99204819D01*
X158416666Y-99204819D02*
X158559523Y-99252438D01*
X158559523Y-99252438D02*
X158607142Y-99300057D01*
X158988095Y-99300057D02*
X159035714Y-99252438D01*
X159035714Y-99252438D02*
X159130952Y-99204819D01*
X159130952Y-99204819D02*
X159369047Y-99204819D01*
X159369047Y-99204819D02*
X159464285Y-99252438D01*
X159464285Y-99252438D02*
X159511904Y-99300057D01*
X159511904Y-99300057D02*
X159559523Y-99395295D01*
X159559523Y-99395295D02*
X159559523Y-99490533D01*
X159559523Y-99490533D02*
X159511904Y-99633390D01*
X159511904Y-99633390D02*
X158940476Y-100204819D01*
X158940476Y-100204819D02*
X159559523Y-100204819D01*
X160511904Y-100204819D02*
X159940476Y-100204819D01*
X160226190Y-100204819D02*
X160226190Y-99204819D01*
X160226190Y-99204819D02*
X160130952Y-99347676D01*
X160130952Y-99347676D02*
X160035714Y-99442914D01*
X160035714Y-99442914D02*
X159940476Y-99490533D01*
X162738095Y-114204819D02*
X162738095Y-115014342D01*
X162738095Y-115014342D02*
X162785714Y-115109580D01*
X162785714Y-115109580D02*
X162833333Y-115157200D01*
X162833333Y-115157200D02*
X162928571Y-115204819D01*
X162928571Y-115204819D02*
X163119047Y-115204819D01*
X163119047Y-115204819D02*
X163214285Y-115157200D01*
X163214285Y-115157200D02*
X163261904Y-115109580D01*
X163261904Y-115109580D02*
X163309523Y-115014342D01*
X163309523Y-115014342D02*
X163309523Y-114204819D01*
X163738095Y-114300057D02*
X163785714Y-114252438D01*
X163785714Y-114252438D02*
X163880952Y-114204819D01*
X163880952Y-114204819D02*
X164119047Y-114204819D01*
X164119047Y-114204819D02*
X164214285Y-114252438D01*
X164214285Y-114252438D02*
X164261904Y-114300057D01*
X164261904Y-114300057D02*
X164309523Y-114395295D01*
X164309523Y-114395295D02*
X164309523Y-114490533D01*
X164309523Y-114490533D02*
X164261904Y-114633390D01*
X164261904Y-114633390D02*
X163690476Y-115204819D01*
X163690476Y-115204819D02*
X164309523Y-115204819D01*
X155704819Y-116880952D02*
X155704819Y-116309524D01*
X156704819Y-116595238D02*
X155704819Y-116595238D01*
X155704819Y-115690476D02*
X156419104Y-115690476D01*
X156419104Y-115690476D02*
X156561961Y-115738095D01*
X156561961Y-115738095D02*
X156657200Y-115833333D01*
X156657200Y-115833333D02*
X156704819Y-115976190D01*
X156704819Y-115976190D02*
X156704819Y-116071428D01*
X156419104Y-115261904D02*
X156419104Y-114785714D01*
X156704819Y-115357142D02*
X155704819Y-115023809D01*
X155704819Y-115023809D02*
X156704819Y-114690476D01*
X156704819Y-113833333D02*
X156704819Y-114404761D01*
X156704819Y-114119047D02*
X155704819Y-114119047D01*
X155704819Y-114119047D02*
X155847676Y-114214285D01*
X155847676Y-114214285D02*
X155942914Y-114309523D01*
X155942914Y-114309523D02*
X155990533Y-114404761D01*
X155704819Y-113214285D02*
X155704819Y-113119047D01*
X155704819Y-113119047D02*
X155752438Y-113023809D01*
X155752438Y-113023809D02*
X155800057Y-112976190D01*
X155800057Y-112976190D02*
X155895295Y-112928571D01*
X155895295Y-112928571D02*
X156085771Y-112880952D01*
X156085771Y-112880952D02*
X156323866Y-112880952D01*
X156323866Y-112880952D02*
X156514342Y-112928571D01*
X156514342Y-112928571D02*
X156609580Y-112976190D01*
X156609580Y-112976190D02*
X156657200Y-113023809D01*
X156657200Y-113023809D02*
X156704819Y-113119047D01*
X156704819Y-113119047D02*
X156704819Y-113214285D01*
X156704819Y-113214285D02*
X156657200Y-113309523D01*
X156657200Y-113309523D02*
X156609580Y-113357142D01*
X156609580Y-113357142D02*
X156514342Y-113404761D01*
X156514342Y-113404761D02*
X156323866Y-113452380D01*
X156323866Y-113452380D02*
X156085771Y-113452380D01*
X156085771Y-113452380D02*
X155895295Y-113404761D01*
X155895295Y-113404761D02*
X155800057Y-113357142D01*
X155800057Y-113357142D02*
X155752438Y-113309523D01*
X155752438Y-113309523D02*
X155704819Y-113214285D01*
X155704819Y-111976190D02*
X155704819Y-112452380D01*
X155704819Y-112452380D02*
X156181009Y-112499999D01*
X156181009Y-112499999D02*
X156133390Y-112452380D01*
X156133390Y-112452380D02*
X156085771Y-112357142D01*
X156085771Y-112357142D02*
X156085771Y-112119047D01*
X156085771Y-112119047D02*
X156133390Y-112023809D01*
X156133390Y-112023809D02*
X156181009Y-111976190D01*
X156181009Y-111976190D02*
X156276247Y-111928571D01*
X156276247Y-111928571D02*
X156514342Y-111928571D01*
X156514342Y-111928571D02*
X156609580Y-111976190D01*
X156609580Y-111976190D02*
X156657200Y-112023809D01*
X156657200Y-112023809D02*
X156704819Y-112119047D01*
X156704819Y-112119047D02*
X156704819Y-112357142D01*
X156704819Y-112357142D02*
X156657200Y-112452380D01*
X156657200Y-112452380D02*
X156609580Y-112499999D01*
X156704819Y-110976190D02*
X156704819Y-111547618D01*
X156704819Y-111261904D02*
X155704819Y-111261904D01*
X155704819Y-111261904D02*
X155847676Y-111357142D01*
X155847676Y-111357142D02*
X155942914Y-111452380D01*
X155942914Y-111452380D02*
X155990533Y-111547618D01*
X155704819Y-110690475D02*
X155704819Y-110119047D01*
X156704819Y-110404761D02*
X155704819Y-110404761D01*
X155657200Y-109071428D02*
X156942914Y-109928570D01*
X155704819Y-108833332D02*
X155704819Y-108214285D01*
X155704819Y-108214285D02*
X156085771Y-108547618D01*
X156085771Y-108547618D02*
X156085771Y-108404761D01*
X156085771Y-108404761D02*
X156133390Y-108309523D01*
X156133390Y-108309523D02*
X156181009Y-108261904D01*
X156181009Y-108261904D02*
X156276247Y-108214285D01*
X156276247Y-108214285D02*
X156514342Y-108214285D01*
X156514342Y-108214285D02*
X156609580Y-108261904D01*
X156609580Y-108261904D02*
X156657200Y-108309523D01*
X156657200Y-108309523D02*
X156704819Y-108404761D01*
X156704819Y-108404761D02*
X156704819Y-108690475D01*
X156704819Y-108690475D02*
X156657200Y-108785713D01*
X156657200Y-108785713D02*
X156609580Y-108833332D01*
X167988095Y-66704819D02*
X167988095Y-65704819D01*
X167988095Y-66181009D02*
X168559523Y-66181009D01*
X168559523Y-66704819D02*
X168559523Y-65704819D01*
X168988095Y-65800057D02*
X169035714Y-65752438D01*
X169035714Y-65752438D02*
X169130952Y-65704819D01*
X169130952Y-65704819D02*
X169369047Y-65704819D01*
X169369047Y-65704819D02*
X169464285Y-65752438D01*
X169464285Y-65752438D02*
X169511904Y-65800057D01*
X169511904Y-65800057D02*
X169559523Y-65895295D01*
X169559523Y-65895295D02*
X169559523Y-65990533D01*
X169559523Y-65990533D02*
X169511904Y-66133390D01*
X169511904Y-66133390D02*
X168940476Y-66704819D01*
X168940476Y-66704819D02*
X169559523Y-66704819D01*
X126204819Y-83342857D02*
X125728628Y-83676190D01*
X126204819Y-83914285D02*
X125204819Y-83914285D01*
X125204819Y-83914285D02*
X125204819Y-83533333D01*
X125204819Y-83533333D02*
X125252438Y-83438095D01*
X125252438Y-83438095D02*
X125300057Y-83390476D01*
X125300057Y-83390476D02*
X125395295Y-83342857D01*
X125395295Y-83342857D02*
X125538152Y-83342857D01*
X125538152Y-83342857D02*
X125633390Y-83390476D01*
X125633390Y-83390476D02*
X125681009Y-83438095D01*
X125681009Y-83438095D02*
X125728628Y-83533333D01*
X125728628Y-83533333D02*
X125728628Y-83914285D01*
X126157200Y-82961904D02*
X126204819Y-82819047D01*
X126204819Y-82819047D02*
X126204819Y-82580952D01*
X126204819Y-82580952D02*
X126157200Y-82485714D01*
X126157200Y-82485714D02*
X126109580Y-82438095D01*
X126109580Y-82438095D02*
X126014342Y-82390476D01*
X126014342Y-82390476D02*
X125919104Y-82390476D01*
X125919104Y-82390476D02*
X125823866Y-82438095D01*
X125823866Y-82438095D02*
X125776247Y-82485714D01*
X125776247Y-82485714D02*
X125728628Y-82580952D01*
X125728628Y-82580952D02*
X125681009Y-82771428D01*
X125681009Y-82771428D02*
X125633390Y-82866666D01*
X125633390Y-82866666D02*
X125585771Y-82914285D01*
X125585771Y-82914285D02*
X125490533Y-82961904D01*
X125490533Y-82961904D02*
X125395295Y-82961904D01*
X125395295Y-82961904D02*
X125300057Y-82914285D01*
X125300057Y-82914285D02*
X125252438Y-82866666D01*
X125252438Y-82866666D02*
X125204819Y-82771428D01*
X125204819Y-82771428D02*
X125204819Y-82533333D01*
X125204819Y-82533333D02*
X125252438Y-82390476D01*
X125300057Y-82009523D02*
X125252438Y-81961904D01*
X125252438Y-81961904D02*
X125204819Y-81866666D01*
X125204819Y-81866666D02*
X125204819Y-81628571D01*
X125204819Y-81628571D02*
X125252438Y-81533333D01*
X125252438Y-81533333D02*
X125300057Y-81485714D01*
X125300057Y-81485714D02*
X125395295Y-81438095D01*
X125395295Y-81438095D02*
X125490533Y-81438095D01*
X125490533Y-81438095D02*
X125633390Y-81485714D01*
X125633390Y-81485714D02*
X126204819Y-82057142D01*
X126204819Y-82057142D02*
X126204819Y-81438095D01*
X120699819Y-79152380D02*
X120699819Y-79723808D01*
X120699819Y-79438094D02*
X119699819Y-79438094D01*
X119699819Y-79438094D02*
X119842676Y-79533332D01*
X119842676Y-79533332D02*
X119937914Y-79628570D01*
X119937914Y-79628570D02*
X119985533Y-79723808D01*
X120699819Y-78723808D02*
X120033152Y-78723808D01*
X120128390Y-78723808D02*
X120080771Y-78676189D01*
X120080771Y-78676189D02*
X120033152Y-78580951D01*
X120033152Y-78580951D02*
X120033152Y-78438094D01*
X120033152Y-78438094D02*
X120080771Y-78342856D01*
X120080771Y-78342856D02*
X120176009Y-78295237D01*
X120176009Y-78295237D02*
X120699819Y-78295237D01*
X120176009Y-78295237D02*
X120080771Y-78247618D01*
X120080771Y-78247618D02*
X120033152Y-78152380D01*
X120033152Y-78152380D02*
X120033152Y-78009523D01*
X120033152Y-78009523D02*
X120080771Y-77914284D01*
X120080771Y-77914284D02*
X120176009Y-77866665D01*
X120176009Y-77866665D02*
X120699819Y-77866665D01*
X120699819Y-77438094D02*
X120699819Y-77199999D01*
X120699819Y-77199999D02*
X120509342Y-77199999D01*
X120509342Y-77199999D02*
X120461723Y-77295237D01*
X120461723Y-77295237D02*
X120366485Y-77390475D01*
X120366485Y-77390475D02*
X120223628Y-77438094D01*
X120223628Y-77438094D02*
X119985533Y-77438094D01*
X119985533Y-77438094D02*
X119842676Y-77390475D01*
X119842676Y-77390475D02*
X119747438Y-77295237D01*
X119747438Y-77295237D02*
X119699819Y-77152380D01*
X119699819Y-77152380D02*
X119699819Y-76961904D01*
X119699819Y-76961904D02*
X119747438Y-76819047D01*
X119747438Y-76819047D02*
X119842676Y-76723809D01*
X119842676Y-76723809D02*
X119985533Y-76676190D01*
X119985533Y-76676190D02*
X120223628Y-76676190D01*
X120223628Y-76676190D02*
X120366485Y-76723809D01*
X120366485Y-76723809D02*
X120461723Y-76819047D01*
X120461723Y-76819047D02*
X120509342Y-76914285D01*
X120509342Y-76914285D02*
X120699819Y-76914285D01*
X120699819Y-76914285D02*
X120699819Y-76676190D01*
X144204819Y-83342857D02*
X143728628Y-83676190D01*
X144204819Y-83914285D02*
X143204819Y-83914285D01*
X143204819Y-83914285D02*
X143204819Y-83533333D01*
X143204819Y-83533333D02*
X143252438Y-83438095D01*
X143252438Y-83438095D02*
X143300057Y-83390476D01*
X143300057Y-83390476D02*
X143395295Y-83342857D01*
X143395295Y-83342857D02*
X143538152Y-83342857D01*
X143538152Y-83342857D02*
X143633390Y-83390476D01*
X143633390Y-83390476D02*
X143681009Y-83438095D01*
X143681009Y-83438095D02*
X143728628Y-83533333D01*
X143728628Y-83533333D02*
X143728628Y-83914285D01*
X144157200Y-82961904D02*
X144204819Y-82819047D01*
X144204819Y-82819047D02*
X144204819Y-82580952D01*
X144204819Y-82580952D02*
X144157200Y-82485714D01*
X144157200Y-82485714D02*
X144109580Y-82438095D01*
X144109580Y-82438095D02*
X144014342Y-82390476D01*
X144014342Y-82390476D02*
X143919104Y-82390476D01*
X143919104Y-82390476D02*
X143823866Y-82438095D01*
X143823866Y-82438095D02*
X143776247Y-82485714D01*
X143776247Y-82485714D02*
X143728628Y-82580952D01*
X143728628Y-82580952D02*
X143681009Y-82771428D01*
X143681009Y-82771428D02*
X143633390Y-82866666D01*
X143633390Y-82866666D02*
X143585771Y-82914285D01*
X143585771Y-82914285D02*
X143490533Y-82961904D01*
X143490533Y-82961904D02*
X143395295Y-82961904D01*
X143395295Y-82961904D02*
X143300057Y-82914285D01*
X143300057Y-82914285D02*
X143252438Y-82866666D01*
X143252438Y-82866666D02*
X143204819Y-82771428D01*
X143204819Y-82771428D02*
X143204819Y-82533333D01*
X143204819Y-82533333D02*
X143252438Y-82390476D01*
X143204819Y-81485714D02*
X143204819Y-81961904D01*
X143204819Y-81961904D02*
X143681009Y-82009523D01*
X143681009Y-82009523D02*
X143633390Y-81961904D01*
X143633390Y-81961904D02*
X143585771Y-81866666D01*
X143585771Y-81866666D02*
X143585771Y-81628571D01*
X143585771Y-81628571D02*
X143633390Y-81533333D01*
X143633390Y-81533333D02*
X143681009Y-81485714D01*
X143681009Y-81485714D02*
X143776247Y-81438095D01*
X143776247Y-81438095D02*
X144014342Y-81438095D01*
X144014342Y-81438095D02*
X144109580Y-81485714D01*
X144109580Y-81485714D02*
X144157200Y-81533333D01*
X144157200Y-81533333D02*
X144204819Y-81628571D01*
X144204819Y-81628571D02*
X144204819Y-81866666D01*
X144204819Y-81866666D02*
X144157200Y-81961904D01*
X144157200Y-81961904D02*
X144109580Y-82009523D01*
X138704819Y-79152380D02*
X138704819Y-79723808D01*
X138704819Y-79438094D02*
X137704819Y-79438094D01*
X137704819Y-79438094D02*
X137847676Y-79533332D01*
X137847676Y-79533332D02*
X137942914Y-79628570D01*
X137942914Y-79628570D02*
X137990533Y-79723808D01*
X138704819Y-78723808D02*
X138038152Y-78723808D01*
X138133390Y-78723808D02*
X138085771Y-78676189D01*
X138085771Y-78676189D02*
X138038152Y-78580951D01*
X138038152Y-78580951D02*
X138038152Y-78438094D01*
X138038152Y-78438094D02*
X138085771Y-78342856D01*
X138085771Y-78342856D02*
X138181009Y-78295237D01*
X138181009Y-78295237D02*
X138704819Y-78295237D01*
X138181009Y-78295237D02*
X138085771Y-78247618D01*
X138085771Y-78247618D02*
X138038152Y-78152380D01*
X138038152Y-78152380D02*
X138038152Y-78009523D01*
X138038152Y-78009523D02*
X138085771Y-77914284D01*
X138085771Y-77914284D02*
X138181009Y-77866665D01*
X138181009Y-77866665D02*
X138704819Y-77866665D01*
X138704819Y-77438094D02*
X138704819Y-77199999D01*
X138704819Y-77199999D02*
X138514342Y-77199999D01*
X138514342Y-77199999D02*
X138466723Y-77295237D01*
X138466723Y-77295237D02*
X138371485Y-77390475D01*
X138371485Y-77390475D02*
X138228628Y-77438094D01*
X138228628Y-77438094D02*
X137990533Y-77438094D01*
X137990533Y-77438094D02*
X137847676Y-77390475D01*
X137847676Y-77390475D02*
X137752438Y-77295237D01*
X137752438Y-77295237D02*
X137704819Y-77152380D01*
X137704819Y-77152380D02*
X137704819Y-76961904D01*
X137704819Y-76961904D02*
X137752438Y-76819047D01*
X137752438Y-76819047D02*
X137847676Y-76723809D01*
X137847676Y-76723809D02*
X137990533Y-76676190D01*
X137990533Y-76676190D02*
X138228628Y-76676190D01*
X138228628Y-76676190D02*
X138371485Y-76723809D01*
X138371485Y-76723809D02*
X138466723Y-76819047D01*
X138466723Y-76819047D02*
X138514342Y-76914285D01*
X138514342Y-76914285D02*
X138704819Y-76914285D01*
X138704819Y-76914285D02*
X138704819Y-76676190D01*
X129954819Y-89000000D02*
X129478628Y-89333333D01*
X129954819Y-89571428D02*
X128954819Y-89571428D01*
X128954819Y-89571428D02*
X128954819Y-89190476D01*
X128954819Y-89190476D02*
X129002438Y-89095238D01*
X129002438Y-89095238D02*
X129050057Y-89047619D01*
X129050057Y-89047619D02*
X129145295Y-89000000D01*
X129145295Y-89000000D02*
X129288152Y-89000000D01*
X129288152Y-89000000D02*
X129383390Y-89047619D01*
X129383390Y-89047619D02*
X129431009Y-89095238D01*
X129431009Y-89095238D02*
X129478628Y-89190476D01*
X129478628Y-89190476D02*
X129478628Y-89571428D01*
X129431009Y-88238095D02*
X129431009Y-88571428D01*
X129954819Y-88571428D02*
X128954819Y-88571428D01*
X128954819Y-88571428D02*
X128954819Y-88095238D01*
X129954819Y-87238095D02*
X129954819Y-87714285D01*
X129954819Y-87714285D02*
X128954819Y-87714285D01*
X128954819Y-86999999D02*
X128954819Y-86380952D01*
X128954819Y-86380952D02*
X129335771Y-86714285D01*
X129335771Y-86714285D02*
X129335771Y-86571428D01*
X129335771Y-86571428D02*
X129383390Y-86476190D01*
X129383390Y-86476190D02*
X129431009Y-86428571D01*
X129431009Y-86428571D02*
X129526247Y-86380952D01*
X129526247Y-86380952D02*
X129764342Y-86380952D01*
X129764342Y-86380952D02*
X129859580Y-86428571D01*
X129859580Y-86428571D02*
X129907200Y-86476190D01*
X129907200Y-86476190D02*
X129954819Y-86571428D01*
X129954819Y-86571428D02*
X129954819Y-86857142D01*
X129954819Y-86857142D02*
X129907200Y-86952380D01*
X129907200Y-86952380D02*
X129859580Y-86999999D01*
X151284819Y-100416666D02*
X150808628Y-100749999D01*
X151284819Y-100988094D02*
X150284819Y-100988094D01*
X150284819Y-100988094D02*
X150284819Y-100607142D01*
X150284819Y-100607142D02*
X150332438Y-100511904D01*
X150332438Y-100511904D02*
X150380057Y-100464285D01*
X150380057Y-100464285D02*
X150475295Y-100416666D01*
X150475295Y-100416666D02*
X150618152Y-100416666D01*
X150618152Y-100416666D02*
X150713390Y-100464285D01*
X150713390Y-100464285D02*
X150761009Y-100511904D01*
X150761009Y-100511904D02*
X150808628Y-100607142D01*
X150808628Y-100607142D02*
X150808628Y-100988094D01*
X150284819Y-100083332D02*
X150284819Y-99416666D01*
X150284819Y-99416666D02*
X151284819Y-99845237D01*
X138609580Y-92545238D02*
X138657200Y-92592857D01*
X138657200Y-92592857D02*
X138704819Y-92735714D01*
X138704819Y-92735714D02*
X138704819Y-92830952D01*
X138704819Y-92830952D02*
X138657200Y-92973809D01*
X138657200Y-92973809D02*
X138561961Y-93069047D01*
X138561961Y-93069047D02*
X138466723Y-93116666D01*
X138466723Y-93116666D02*
X138276247Y-93164285D01*
X138276247Y-93164285D02*
X138133390Y-93164285D01*
X138133390Y-93164285D02*
X137942914Y-93116666D01*
X137942914Y-93116666D02*
X137847676Y-93069047D01*
X137847676Y-93069047D02*
X137752438Y-92973809D01*
X137752438Y-92973809D02*
X137704819Y-92830952D01*
X137704819Y-92830952D02*
X137704819Y-92735714D01*
X137704819Y-92735714D02*
X137752438Y-92592857D01*
X137752438Y-92592857D02*
X137800057Y-92545238D01*
X138181009Y-91783333D02*
X138181009Y-92116666D01*
X138704819Y-92116666D02*
X137704819Y-92116666D01*
X137704819Y-92116666D02*
X137704819Y-91640476D01*
X137704819Y-90783333D02*
X137704819Y-91259523D01*
X137704819Y-91259523D02*
X138181009Y-91307142D01*
X138181009Y-91307142D02*
X138133390Y-91259523D01*
X138133390Y-91259523D02*
X138085771Y-91164285D01*
X138085771Y-91164285D02*
X138085771Y-90926190D01*
X138085771Y-90926190D02*
X138133390Y-90830952D01*
X138133390Y-90830952D02*
X138181009Y-90783333D01*
X138181009Y-90783333D02*
X138276247Y-90735714D01*
X138276247Y-90735714D02*
X138514342Y-90735714D01*
X138514342Y-90735714D02*
X138609580Y-90783333D01*
X138609580Y-90783333D02*
X138657200Y-90830952D01*
X138657200Y-90830952D02*
X138704819Y-90926190D01*
X138704819Y-90926190D02*
X138704819Y-91164285D01*
X138704819Y-91164285D02*
X138657200Y-91259523D01*
X138657200Y-91259523D02*
X138609580Y-91307142D01*
X130881265Y-139804819D02*
X130881265Y-140519104D01*
X130881265Y-140519104D02*
X130833646Y-140661961D01*
X130833646Y-140661961D02*
X130738408Y-140757200D01*
X130738408Y-140757200D02*
X130595551Y-140804819D01*
X130595551Y-140804819D02*
X130500313Y-140804819D01*
X131786027Y-140138152D02*
X131786027Y-140804819D01*
X131547932Y-139757200D02*
X131309837Y-140471485D01*
X131309837Y-140471485D02*
X131928884Y-140471485D01*
X125333332Y-126862218D02*
X124761904Y-126862218D01*
X125047618Y-126862218D02*
X125047618Y-125862218D01*
X125047618Y-125862218D02*
X124952380Y-126005075D01*
X124952380Y-126005075D02*
X124857142Y-126100313D01*
X124857142Y-126100313D02*
X124761904Y-126147932D01*
X125714285Y-125957456D02*
X125761904Y-125909837D01*
X125761904Y-125909837D02*
X125857142Y-125862218D01*
X125857142Y-125862218D02*
X126095237Y-125862218D01*
X126095237Y-125862218D02*
X126190475Y-125909837D01*
X126190475Y-125909837D02*
X126238094Y-125957456D01*
X126238094Y-125957456D02*
X126285713Y-126052694D01*
X126285713Y-126052694D02*
X126285713Y-126147932D01*
X126285713Y-126147932D02*
X126238094Y-126290789D01*
X126238094Y-126290789D02*
X125666666Y-126862218D01*
X125666666Y-126862218D02*
X126285713Y-126862218D01*
X126571428Y-125862218D02*
X126904761Y-126862218D01*
X126904761Y-126862218D02*
X127238094Y-125862218D01*
X127571428Y-126481265D02*
X128333333Y-126481265D01*
X128761904Y-125957456D02*
X128809523Y-125909837D01*
X128809523Y-125909837D02*
X128904761Y-125862218D01*
X128904761Y-125862218D02*
X129142856Y-125862218D01*
X129142856Y-125862218D02*
X129238094Y-125909837D01*
X129238094Y-125909837D02*
X129285713Y-125957456D01*
X129285713Y-125957456D02*
X129333332Y-126052694D01*
X129333332Y-126052694D02*
X129333332Y-126147932D01*
X129333332Y-126147932D02*
X129285713Y-126290789D01*
X129285713Y-126290789D02*
X128714285Y-126862218D01*
X128714285Y-126862218D02*
X129333332Y-126862218D01*
X129666666Y-126862218D02*
X130190475Y-126195551D01*
X129666666Y-126195551D02*
X130190475Y-126862218D01*
X130999999Y-125862218D02*
X130809523Y-125862218D01*
X130809523Y-125862218D02*
X130714285Y-125909837D01*
X130714285Y-125909837D02*
X130666666Y-125957456D01*
X130666666Y-125957456D02*
X130571428Y-126100313D01*
X130571428Y-126100313D02*
X130523809Y-126290789D01*
X130523809Y-126290789D02*
X130523809Y-126671741D01*
X130523809Y-126671741D02*
X130571428Y-126766979D01*
X130571428Y-126766979D02*
X130619047Y-126814599D01*
X130619047Y-126814599D02*
X130714285Y-126862218D01*
X130714285Y-126862218D02*
X130904761Y-126862218D01*
X130904761Y-126862218D02*
X130999999Y-126814599D01*
X130999999Y-126814599D02*
X131047618Y-126766979D01*
X131047618Y-126766979D02*
X131095237Y-126671741D01*
X131095237Y-126671741D02*
X131095237Y-126433646D01*
X131095237Y-126433646D02*
X131047618Y-126338408D01*
X131047618Y-126338408D02*
X130999999Y-126290789D01*
X130999999Y-126290789D02*
X130904761Y-126243170D01*
X130904761Y-126243170D02*
X130714285Y-126243170D01*
X130714285Y-126243170D02*
X130619047Y-126290789D01*
X130619047Y-126290789D02*
X130571428Y-126338408D01*
X130571428Y-126338408D02*
X130523809Y-126433646D01*
X132476190Y-125862218D02*
X132666666Y-125862218D01*
X132666666Y-125862218D02*
X132761904Y-125909837D01*
X132761904Y-125909837D02*
X132857142Y-126005075D01*
X132857142Y-126005075D02*
X132904761Y-126195551D01*
X132904761Y-126195551D02*
X132904761Y-126528884D01*
X132904761Y-126528884D02*
X132857142Y-126719360D01*
X132857142Y-126719360D02*
X132761904Y-126814599D01*
X132761904Y-126814599D02*
X132666666Y-126862218D01*
X132666666Y-126862218D02*
X132476190Y-126862218D01*
X132476190Y-126862218D02*
X132380952Y-126814599D01*
X132380952Y-126814599D02*
X132285714Y-126719360D01*
X132285714Y-126719360D02*
X132238095Y-126528884D01*
X132238095Y-126528884D02*
X132238095Y-126195551D01*
X132238095Y-126195551D02*
X132285714Y-126005075D01*
X132285714Y-126005075D02*
X132380952Y-125909837D01*
X132380952Y-125909837D02*
X132476190Y-125862218D01*
X133333333Y-125862218D02*
X133333333Y-126671741D01*
X133333333Y-126671741D02*
X133380952Y-126766979D01*
X133380952Y-126766979D02*
X133428571Y-126814599D01*
X133428571Y-126814599D02*
X133523809Y-126862218D01*
X133523809Y-126862218D02*
X133714285Y-126862218D01*
X133714285Y-126862218D02*
X133809523Y-126814599D01*
X133809523Y-126814599D02*
X133857142Y-126766979D01*
X133857142Y-126766979D02*
X133904761Y-126671741D01*
X133904761Y-126671741D02*
X133904761Y-125862218D01*
X134238095Y-125862218D02*
X134809523Y-125862218D01*
X134523809Y-126862218D02*
X134523809Y-125862218D01*
X135904762Y-126195551D02*
X135904762Y-127195551D01*
X135904762Y-126243170D02*
X136000000Y-126195551D01*
X136000000Y-126195551D02*
X136190476Y-126195551D01*
X136190476Y-126195551D02*
X136285714Y-126243170D01*
X136285714Y-126243170D02*
X136333333Y-126290789D01*
X136333333Y-126290789D02*
X136380952Y-126386027D01*
X136380952Y-126386027D02*
X136380952Y-126671741D01*
X136380952Y-126671741D02*
X136333333Y-126766979D01*
X136333333Y-126766979D02*
X136285714Y-126814599D01*
X136285714Y-126814599D02*
X136190476Y-126862218D01*
X136190476Y-126862218D02*
X136000000Y-126862218D01*
X136000000Y-126862218D02*
X135904762Y-126814599D01*
X136809524Y-126862218D02*
X136809524Y-126195551D01*
X136809524Y-125862218D02*
X136761905Y-125909837D01*
X136761905Y-125909837D02*
X136809524Y-125957456D01*
X136809524Y-125957456D02*
X136857143Y-125909837D01*
X136857143Y-125909837D02*
X136809524Y-125862218D01*
X136809524Y-125862218D02*
X136809524Y-125957456D01*
X137714285Y-126195551D02*
X137714285Y-127005075D01*
X137714285Y-127005075D02*
X137666666Y-127100313D01*
X137666666Y-127100313D02*
X137619047Y-127147932D01*
X137619047Y-127147932D02*
X137523809Y-127195551D01*
X137523809Y-127195551D02*
X137380952Y-127195551D01*
X137380952Y-127195551D02*
X137285714Y-127147932D01*
X137714285Y-126814599D02*
X137619047Y-126862218D01*
X137619047Y-126862218D02*
X137428571Y-126862218D01*
X137428571Y-126862218D02*
X137333333Y-126814599D01*
X137333333Y-126814599D02*
X137285714Y-126766979D01*
X137285714Y-126766979D02*
X137238095Y-126671741D01*
X137238095Y-126671741D02*
X137238095Y-126386027D01*
X137238095Y-126386027D02*
X137285714Y-126290789D01*
X137285714Y-126290789D02*
X137333333Y-126243170D01*
X137333333Y-126243170D02*
X137428571Y-126195551D01*
X137428571Y-126195551D02*
X137619047Y-126195551D01*
X137619047Y-126195551D02*
X137714285Y-126243170D01*
X138047619Y-126195551D02*
X138428571Y-126195551D01*
X138190476Y-125862218D02*
X138190476Y-126719360D01*
X138190476Y-126719360D02*
X138238095Y-126814599D01*
X138238095Y-126814599D02*
X138333333Y-126862218D01*
X138333333Y-126862218D02*
X138428571Y-126862218D01*
X139190476Y-126862218D02*
X139190476Y-126338408D01*
X139190476Y-126338408D02*
X139142857Y-126243170D01*
X139142857Y-126243170D02*
X139047619Y-126195551D01*
X139047619Y-126195551D02*
X138857143Y-126195551D01*
X138857143Y-126195551D02*
X138761905Y-126243170D01*
X139190476Y-126814599D02*
X139095238Y-126862218D01*
X139095238Y-126862218D02*
X138857143Y-126862218D01*
X138857143Y-126862218D02*
X138761905Y-126814599D01*
X138761905Y-126814599D02*
X138714286Y-126719360D01*
X138714286Y-126719360D02*
X138714286Y-126624122D01*
X138714286Y-126624122D02*
X138761905Y-126528884D01*
X138761905Y-126528884D02*
X138857143Y-126481265D01*
X138857143Y-126481265D02*
X139095238Y-126481265D01*
X139095238Y-126481265D02*
X139190476Y-126433646D01*
X139666667Y-126862218D02*
X139666667Y-126195551D01*
X139666667Y-125862218D02*
X139619048Y-125909837D01*
X139619048Y-125909837D02*
X139666667Y-125957456D01*
X139666667Y-125957456D02*
X139714286Y-125909837D01*
X139714286Y-125909837D02*
X139666667Y-125862218D01*
X139666667Y-125862218D02*
X139666667Y-125957456D01*
X140285714Y-126862218D02*
X140190476Y-126814599D01*
X140190476Y-126814599D02*
X140142857Y-126719360D01*
X140142857Y-126719360D02*
X140142857Y-125862218D01*
X158511905Y-64704819D02*
X158511905Y-63704819D01*
X158511905Y-63704819D02*
X158750000Y-63704819D01*
X158750000Y-63704819D02*
X158892857Y-63752438D01*
X158892857Y-63752438D02*
X158988095Y-63847676D01*
X158988095Y-63847676D02*
X159035714Y-63942914D01*
X159035714Y-63942914D02*
X159083333Y-64133390D01*
X159083333Y-64133390D02*
X159083333Y-64276247D01*
X159083333Y-64276247D02*
X159035714Y-64466723D01*
X159035714Y-64466723D02*
X158988095Y-64561961D01*
X158988095Y-64561961D02*
X158892857Y-64657200D01*
X158892857Y-64657200D02*
X158750000Y-64704819D01*
X158750000Y-64704819D02*
X158511905Y-64704819D01*
X159464286Y-63800057D02*
X159511905Y-63752438D01*
X159511905Y-63752438D02*
X159607143Y-63704819D01*
X159607143Y-63704819D02*
X159845238Y-63704819D01*
X159845238Y-63704819D02*
X159940476Y-63752438D01*
X159940476Y-63752438D02*
X159988095Y-63800057D01*
X159988095Y-63800057D02*
X160035714Y-63895295D01*
X160035714Y-63895295D02*
X160035714Y-63990533D01*
X160035714Y-63990533D02*
X159988095Y-64133390D01*
X159988095Y-64133390D02*
X159416667Y-64704819D01*
X159416667Y-64704819D02*
X160035714Y-64704819D01*
X152785714Y-64657200D02*
X152928571Y-64704819D01*
X152928571Y-64704819D02*
X153166666Y-64704819D01*
X153166666Y-64704819D02*
X153261904Y-64657200D01*
X153261904Y-64657200D02*
X153309523Y-64609580D01*
X153309523Y-64609580D02*
X153357142Y-64514342D01*
X153357142Y-64514342D02*
X153357142Y-64419104D01*
X153357142Y-64419104D02*
X153309523Y-64323866D01*
X153309523Y-64323866D02*
X153261904Y-64276247D01*
X153261904Y-64276247D02*
X153166666Y-64228628D01*
X153166666Y-64228628D02*
X152976190Y-64181009D01*
X152976190Y-64181009D02*
X152880952Y-64133390D01*
X152880952Y-64133390D02*
X152833333Y-64085771D01*
X152833333Y-64085771D02*
X152785714Y-63990533D01*
X152785714Y-63990533D02*
X152785714Y-63895295D01*
X152785714Y-63895295D02*
X152833333Y-63800057D01*
X152833333Y-63800057D02*
X152880952Y-63752438D01*
X152880952Y-63752438D02*
X152976190Y-63704819D01*
X152976190Y-63704819D02*
X153214285Y-63704819D01*
X153214285Y-63704819D02*
X153357142Y-63752438D01*
X153738095Y-64657200D02*
X153880952Y-64704819D01*
X153880952Y-64704819D02*
X154119047Y-64704819D01*
X154119047Y-64704819D02*
X154214285Y-64657200D01*
X154214285Y-64657200D02*
X154261904Y-64609580D01*
X154261904Y-64609580D02*
X154309523Y-64514342D01*
X154309523Y-64514342D02*
X154309523Y-64419104D01*
X154309523Y-64419104D02*
X154261904Y-64323866D01*
X154261904Y-64323866D02*
X154214285Y-64276247D01*
X154214285Y-64276247D02*
X154119047Y-64228628D01*
X154119047Y-64228628D02*
X153928571Y-64181009D01*
X153928571Y-64181009D02*
X153833333Y-64133390D01*
X153833333Y-64133390D02*
X153785714Y-64085771D01*
X153785714Y-64085771D02*
X153738095Y-63990533D01*
X153738095Y-63990533D02*
X153738095Y-63895295D01*
X153738095Y-63895295D02*
X153785714Y-63800057D01*
X153785714Y-63800057D02*
X153833333Y-63752438D01*
X153833333Y-63752438D02*
X153928571Y-63704819D01*
X153928571Y-63704819D02*
X154166666Y-63704819D01*
X154166666Y-63704819D02*
X154309523Y-63752438D01*
X154642857Y-63704819D02*
X155261904Y-63704819D01*
X155261904Y-63704819D02*
X154928571Y-64085771D01*
X154928571Y-64085771D02*
X155071428Y-64085771D01*
X155071428Y-64085771D02*
X155166666Y-64133390D01*
X155166666Y-64133390D02*
X155214285Y-64181009D01*
X155214285Y-64181009D02*
X155261904Y-64276247D01*
X155261904Y-64276247D02*
X155261904Y-64514342D01*
X155261904Y-64514342D02*
X155214285Y-64609580D01*
X155214285Y-64609580D02*
X155166666Y-64657200D01*
X155166666Y-64657200D02*
X155071428Y-64704819D01*
X155071428Y-64704819D02*
X154785714Y-64704819D01*
X154785714Y-64704819D02*
X154690476Y-64657200D01*
X154690476Y-64657200D02*
X154642857Y-64609580D01*
X156119047Y-64038152D02*
X156119047Y-64704819D01*
X155880952Y-63657200D02*
X155642857Y-64371485D01*
X155642857Y-64371485D02*
X156261904Y-64371485D01*
X150333333Y-103374819D02*
X150000000Y-102898628D01*
X149761905Y-103374819D02*
X149761905Y-102374819D01*
X149761905Y-102374819D02*
X150142857Y-102374819D01*
X150142857Y-102374819D02*
X150238095Y-102422438D01*
X150238095Y-102422438D02*
X150285714Y-102470057D01*
X150285714Y-102470057D02*
X150333333Y-102565295D01*
X150333333Y-102565295D02*
X150333333Y-102708152D01*
X150333333Y-102708152D02*
X150285714Y-102803390D01*
X150285714Y-102803390D02*
X150238095Y-102851009D01*
X150238095Y-102851009D02*
X150142857Y-102898628D01*
X150142857Y-102898628D02*
X149761905Y-102898628D01*
X151285714Y-103374819D02*
X150714286Y-103374819D01*
X151000000Y-103374819D02*
X151000000Y-102374819D01*
X151000000Y-102374819D02*
X150904762Y-102517676D01*
X150904762Y-102517676D02*
X150809524Y-102612914D01*
X150809524Y-102612914D02*
X150714286Y-102660533D01*
X120704819Y-103738094D02*
X121514342Y-103738094D01*
X121514342Y-103738094D02*
X121609580Y-103690475D01*
X121609580Y-103690475D02*
X121657200Y-103642856D01*
X121657200Y-103642856D02*
X121704819Y-103547618D01*
X121704819Y-103547618D02*
X121704819Y-103357142D01*
X121704819Y-103357142D02*
X121657200Y-103261904D01*
X121657200Y-103261904D02*
X121609580Y-103214285D01*
X121609580Y-103214285D02*
X121514342Y-103166666D01*
X121514342Y-103166666D02*
X120704819Y-103166666D01*
X121704819Y-102166666D02*
X121704819Y-102738094D01*
X121704819Y-102452380D02*
X120704819Y-102452380D01*
X120704819Y-102452380D02*
X120847676Y-102547618D01*
X120847676Y-102547618D02*
X120942914Y-102642856D01*
X120942914Y-102642856D02*
X120990533Y-102738094D01*
X121704819Y-101214285D02*
X121704819Y-101785713D01*
X121704819Y-101499999D02*
X120704819Y-101499999D01*
X120704819Y-101499999D02*
X120847676Y-101595237D01*
X120847676Y-101595237D02*
X120942914Y-101690475D01*
X120942914Y-101690475D02*
X120990533Y-101785713D01*
X147357142Y-91359580D02*
X147309523Y-91407200D01*
X147309523Y-91407200D02*
X147166666Y-91454819D01*
X147166666Y-91454819D02*
X147071428Y-91454819D01*
X147071428Y-91454819D02*
X146928571Y-91407200D01*
X146928571Y-91407200D02*
X146833333Y-91311961D01*
X146833333Y-91311961D02*
X146785714Y-91216723D01*
X146785714Y-91216723D02*
X146738095Y-91026247D01*
X146738095Y-91026247D02*
X146738095Y-90883390D01*
X146738095Y-90883390D02*
X146785714Y-90692914D01*
X146785714Y-90692914D02*
X146833333Y-90597676D01*
X146833333Y-90597676D02*
X146928571Y-90502438D01*
X146928571Y-90502438D02*
X147071428Y-90454819D01*
X147071428Y-90454819D02*
X147166666Y-90454819D01*
X147166666Y-90454819D02*
X147309523Y-90502438D01*
X147309523Y-90502438D02*
X147357142Y-90550057D01*
X148309523Y-91454819D02*
X147738095Y-91454819D01*
X148023809Y-91454819D02*
X148023809Y-90454819D01*
X148023809Y-90454819D02*
X147928571Y-90597676D01*
X147928571Y-90597676D02*
X147833333Y-90692914D01*
X147833333Y-90692914D02*
X147738095Y-90740533D01*
X149214285Y-90454819D02*
X148738095Y-90454819D01*
X148738095Y-90454819D02*
X148690476Y-90931009D01*
X148690476Y-90931009D02*
X148738095Y-90883390D01*
X148738095Y-90883390D02*
X148833333Y-90835771D01*
X148833333Y-90835771D02*
X149071428Y-90835771D01*
X149071428Y-90835771D02*
X149166666Y-90883390D01*
X149166666Y-90883390D02*
X149214285Y-90931009D01*
X149214285Y-90931009D02*
X149261904Y-91026247D01*
X149261904Y-91026247D02*
X149261904Y-91264342D01*
X149261904Y-91264342D02*
X149214285Y-91359580D01*
X149214285Y-91359580D02*
X149166666Y-91407200D01*
X149166666Y-91407200D02*
X149071428Y-91454819D01*
X149071428Y-91454819D02*
X148833333Y-91454819D01*
X148833333Y-91454819D02*
X148738095Y-91407200D01*
X148738095Y-91407200D02*
X148690476Y-91359580D01*
X150784819Y-92416666D02*
X150308628Y-92749999D01*
X150784819Y-92988094D02*
X149784819Y-92988094D01*
X149784819Y-92988094D02*
X149784819Y-92607142D01*
X149784819Y-92607142D02*
X149832438Y-92511904D01*
X149832438Y-92511904D02*
X149880057Y-92464285D01*
X149880057Y-92464285D02*
X149975295Y-92416666D01*
X149975295Y-92416666D02*
X150118152Y-92416666D01*
X150118152Y-92416666D02*
X150213390Y-92464285D01*
X150213390Y-92464285D02*
X150261009Y-92511904D01*
X150261009Y-92511904D02*
X150308628Y-92607142D01*
X150308628Y-92607142D02*
X150308628Y-92988094D01*
X149784819Y-91559523D02*
X149784819Y-91749999D01*
X149784819Y-91749999D02*
X149832438Y-91845237D01*
X149832438Y-91845237D02*
X149880057Y-91892856D01*
X149880057Y-91892856D02*
X150022914Y-91988094D01*
X150022914Y-91988094D02*
X150213390Y-92035713D01*
X150213390Y-92035713D02*
X150594342Y-92035713D01*
X150594342Y-92035713D02*
X150689580Y-91988094D01*
X150689580Y-91988094D02*
X150737200Y-91940475D01*
X150737200Y-91940475D02*
X150784819Y-91845237D01*
X150784819Y-91845237D02*
X150784819Y-91654761D01*
X150784819Y-91654761D02*
X150737200Y-91559523D01*
X150737200Y-91559523D02*
X150689580Y-91511904D01*
X150689580Y-91511904D02*
X150594342Y-91464285D01*
X150594342Y-91464285D02*
X150356247Y-91464285D01*
X150356247Y-91464285D02*
X150261009Y-91511904D01*
X150261009Y-91511904D02*
X150213390Y-91559523D01*
X150213390Y-91559523D02*
X150165771Y-91654761D01*
X150165771Y-91654761D02*
X150165771Y-91845237D01*
X150165771Y-91845237D02*
X150213390Y-91940475D01*
X150213390Y-91940475D02*
X150261009Y-91988094D01*
X150261009Y-91988094D02*
X150356247Y-92035713D01*
X116857142Y-90609580D02*
X116809523Y-90657200D01*
X116809523Y-90657200D02*
X116666666Y-90704819D01*
X116666666Y-90704819D02*
X116571428Y-90704819D01*
X116571428Y-90704819D02*
X116428571Y-90657200D01*
X116428571Y-90657200D02*
X116333333Y-90561961D01*
X116333333Y-90561961D02*
X116285714Y-90466723D01*
X116285714Y-90466723D02*
X116238095Y-90276247D01*
X116238095Y-90276247D02*
X116238095Y-90133390D01*
X116238095Y-90133390D02*
X116285714Y-89942914D01*
X116285714Y-89942914D02*
X116333333Y-89847676D01*
X116333333Y-89847676D02*
X116428571Y-89752438D01*
X116428571Y-89752438D02*
X116571428Y-89704819D01*
X116571428Y-89704819D02*
X116666666Y-89704819D01*
X116666666Y-89704819D02*
X116809523Y-89752438D01*
X116809523Y-89752438D02*
X116857142Y-89800057D01*
X117809523Y-90704819D02*
X117238095Y-90704819D01*
X117523809Y-90704819D02*
X117523809Y-89704819D01*
X117523809Y-89704819D02*
X117428571Y-89847676D01*
X117428571Y-89847676D02*
X117333333Y-89942914D01*
X117333333Y-89942914D02*
X117238095Y-89990533D01*
X118428571Y-89704819D02*
X118523809Y-89704819D01*
X118523809Y-89704819D02*
X118619047Y-89752438D01*
X118619047Y-89752438D02*
X118666666Y-89800057D01*
X118666666Y-89800057D02*
X118714285Y-89895295D01*
X118714285Y-89895295D02*
X118761904Y-90085771D01*
X118761904Y-90085771D02*
X118761904Y-90323866D01*
X118761904Y-90323866D02*
X118714285Y-90514342D01*
X118714285Y-90514342D02*
X118666666Y-90609580D01*
X118666666Y-90609580D02*
X118619047Y-90657200D01*
X118619047Y-90657200D02*
X118523809Y-90704819D01*
X118523809Y-90704819D02*
X118428571Y-90704819D01*
X118428571Y-90704819D02*
X118333333Y-90657200D01*
X118333333Y-90657200D02*
X118285714Y-90609580D01*
X118285714Y-90609580D02*
X118238095Y-90514342D01*
X118238095Y-90514342D02*
X118190476Y-90323866D01*
X118190476Y-90323866D02*
X118190476Y-90085771D01*
X118190476Y-90085771D02*
X118238095Y-89895295D01*
X118238095Y-89895295D02*
X118285714Y-89800057D01*
X118285714Y-89800057D02*
X118333333Y-89752438D01*
X118333333Y-89752438D02*
X118428571Y-89704819D01*
X126609580Y-92595238D02*
X126657200Y-92642857D01*
X126657200Y-92642857D02*
X126704819Y-92785714D01*
X126704819Y-92785714D02*
X126704819Y-92880952D01*
X126704819Y-92880952D02*
X126657200Y-93023809D01*
X126657200Y-93023809D02*
X126561961Y-93119047D01*
X126561961Y-93119047D02*
X126466723Y-93166666D01*
X126466723Y-93166666D02*
X126276247Y-93214285D01*
X126276247Y-93214285D02*
X126133390Y-93214285D01*
X126133390Y-93214285D02*
X125942914Y-93166666D01*
X125942914Y-93166666D02*
X125847676Y-93119047D01*
X125847676Y-93119047D02*
X125752438Y-93023809D01*
X125752438Y-93023809D02*
X125704819Y-92880952D01*
X125704819Y-92880952D02*
X125704819Y-92785714D01*
X125704819Y-92785714D02*
X125752438Y-92642857D01*
X125752438Y-92642857D02*
X125800057Y-92595238D01*
X126181009Y-91833333D02*
X126181009Y-92166666D01*
X126704819Y-92166666D02*
X125704819Y-92166666D01*
X125704819Y-92166666D02*
X125704819Y-91690476D01*
X125704819Y-91404761D02*
X125704819Y-90785714D01*
X125704819Y-90785714D02*
X126085771Y-91119047D01*
X126085771Y-91119047D02*
X126085771Y-90976190D01*
X126085771Y-90976190D02*
X126133390Y-90880952D01*
X126133390Y-90880952D02*
X126181009Y-90833333D01*
X126181009Y-90833333D02*
X126276247Y-90785714D01*
X126276247Y-90785714D02*
X126514342Y-90785714D01*
X126514342Y-90785714D02*
X126609580Y-90833333D01*
X126609580Y-90833333D02*
X126657200Y-90880952D01*
X126657200Y-90880952D02*
X126704819Y-90976190D01*
X126704819Y-90976190D02*
X126704819Y-91261904D01*
X126704819Y-91261904D02*
X126657200Y-91357142D01*
X126657200Y-91357142D02*
X126609580Y-91404761D01*
%TO.C,RS4*%
D12*
X133165000Y-78172936D02*
X133165000Y-82527064D01*
X136585000Y-78172936D02*
X136585000Y-82527064D01*
%TO.C,RFH5*%
X138895000Y-88196359D02*
X138895000Y-88503641D01*
X139655000Y-88196359D02*
X139655000Y-88503641D01*
%TO.C,U3*%
X156727500Y-102390000D02*
X158547500Y-102390000D01*
X156727500Y-102440000D02*
X156727500Y-102390000D01*
X156727500Y-105510000D02*
X156727500Y-105460000D01*
X158547500Y-102390000D02*
X158547500Y-102440000D01*
X158547500Y-103560000D02*
X158547500Y-104340000D01*
X158547500Y-105460000D02*
X158547500Y-105510000D01*
X158547500Y-105510000D02*
X156727500Y-105510000D01*
X156187500Y-102440000D02*
X155947500Y-102110000D01*
X156427500Y-102110000D01*
X156187500Y-102440000D01*
G36*
X156187500Y-102440000D02*
G01*
X155947500Y-102110000D01*
X156427500Y-102110000D01*
X156187500Y-102440000D01*
G37*
%TO.C,C2*%
X159990000Y-102140580D02*
X159990000Y-101859420D01*
X161010000Y-102140580D02*
X161010000Y-101859420D01*
%TO.C,C11*%
X123140000Y-92607836D02*
X123140000Y-92392164D01*
X123860000Y-92607836D02*
X123860000Y-92392164D01*
%TO.C,RFH2*%
X120895000Y-88196359D02*
X120895000Y-88503641D01*
X121655000Y-88196359D02*
X121655000Y-88503641D01*
%TO.C,TH1*%
D11*
X131060000Y-74000000D02*
X131770000Y-74000000D01*
X131060000Y-75000000D02*
X131060000Y-74000000D01*
X131770000Y-75000000D02*
X131060000Y-75000000D01*
X132230000Y-75000000D02*
X132940000Y-75000000D01*
X132940000Y-74000000D02*
X132230000Y-74000000D01*
X132940000Y-75000000D02*
X132940000Y-74000000D01*
D13*
X131530000Y-74750000D02*
G75*
G02*
X131470000Y-74750000I-30000J0D01*
G01*
X131470000Y-74750000D02*
G75*
G02*
X131530000Y-74750000I30000J0D01*
G01*
%TO.C,CF1*%
D12*
X114990000Y-91809420D02*
X114990000Y-92090580D01*
X116010000Y-91809420D02*
X116010000Y-92090580D01*
%TO.C,SW2*%
D11*
X166960000Y-109470000D02*
X167390000Y-109470000D01*
X166960000Y-113530000D02*
X166960000Y-109470000D01*
X167390000Y-113530000D02*
X166960000Y-113530000D01*
X170040000Y-109470000D02*
X169610000Y-109470000D01*
X170040000Y-113530000D02*
X169610000Y-113530000D01*
X170040000Y-113530000D02*
X170040000Y-109470000D01*
D14*
X169400000Y-111500000D02*
G75*
G02*
X167600000Y-111500000I-900000J0D01*
G01*
X167600000Y-111500000D02*
G75*
G02*
X169400000Y-111500000I900000J0D01*
G01*
D13*
X170000000Y-114000000D02*
G75*
G02*
X169940000Y-114000000I-30000J0D01*
G01*
X169940000Y-114000000D02*
G75*
G02*
X170000000Y-114000000I30000J0D01*
G01*
%TO.C,SW1*%
D11*
X166960000Y-101470000D02*
X167390000Y-101470000D01*
X166960000Y-105530000D02*
X166960000Y-101470000D01*
X167390000Y-105530000D02*
X166960000Y-105530000D01*
X170040000Y-101470000D02*
X169610000Y-101470000D01*
X170040000Y-105530000D02*
X169610000Y-105530000D01*
X170040000Y-105530000D02*
X170040000Y-101470000D01*
D14*
X169400000Y-103500000D02*
G75*
G02*
X167600000Y-103500000I-900000J0D01*
G01*
X167600000Y-103500000D02*
G75*
G02*
X169400000Y-103500000I900000J0D01*
G01*
D13*
X170000000Y-106000000D02*
G75*
G02*
X169940000Y-106000000I-30000J0D01*
G01*
X169940000Y-106000000D02*
G75*
G02*
X170000000Y-106000000I30000J0D01*
G01*
%TO.C,J3*%
D15*
X122610000Y-53881000D02*
X122610000Y-63787000D01*
X122610000Y-63787000D02*
X141710800Y-63787000D01*
X141710800Y-63787000D02*
X141710800Y-53881000D01*
D16*
X122102000Y-61000000D02*
G75*
G02*
X121340000Y-61000000I-381000J0D01*
G01*
X121340000Y-61000000D02*
G75*
G02*
X122102000Y-61000000I381000J0D01*
G01*
%TO.C,U4*%
D15*
X148684150Y-104226000D02*
X148684150Y-105137860D01*
X148684150Y-106362140D02*
X148684150Y-107274000D01*
X148684150Y-107274000D02*
X149583566Y-107274000D01*
X149583566Y-104226000D02*
X148684150Y-104226000D01*
X150081150Y-106087861D02*
X150081150Y-105412139D01*
%TO.C,C7*%
D12*
X151015000Y-87738748D02*
X151015000Y-88261252D01*
X152485000Y-87738748D02*
X152485000Y-88261252D01*
%TO.C,U1*%
X152800000Y-77750000D02*
X152800000Y-80200000D01*
X152800000Y-77750000D02*
X155250000Y-77750000D01*
X153075000Y-78000000D02*
X168675000Y-78000000D01*
X153075000Y-98700000D02*
X153075000Y-78000000D01*
X168675000Y-78000000D02*
X168675000Y-98700000D01*
X168675000Y-98700000D02*
X153075000Y-98700000D01*
X152900000Y-84950000D02*
X152564000Y-85190000D01*
X152564000Y-84710000D01*
X152900000Y-84950000D01*
G36*
X152900000Y-84950000D02*
G01*
X152564000Y-85190000D01*
X152564000Y-84710000D01*
X152900000Y-84950000D01*
G37*
%TO.C,R12*%
X150721359Y-76970000D02*
X151028641Y-76970000D01*
X150721359Y-77730000D02*
X151028641Y-77730000D01*
%TO.C,RFL6*%
X148095000Y-88196359D02*
X148095000Y-88503641D01*
X148855000Y-88196359D02*
X148855000Y-88503641D01*
%TO.C,U15*%
X144315000Y-95290000D02*
X144410000Y-95290000D01*
X144315000Y-99410000D02*
X144315000Y-95290000D01*
X144410000Y-99410000D02*
X144315000Y-99410000D01*
X149340000Y-95290000D02*
X149435000Y-95290000D01*
X149435000Y-95290000D02*
X149435000Y-99410000D01*
X149435000Y-99410000D02*
X149340000Y-99410000D01*
X144405000Y-99950000D02*
X144075000Y-100190000D01*
X144075000Y-99710000D01*
X144405000Y-99950000D01*
G36*
X144405000Y-99950000D02*
G01*
X144075000Y-100190000D01*
X144075000Y-99710000D01*
X144405000Y-99950000D01*
G37*
%TO.C,C1*%
X154240000Y-102140580D02*
X154240000Y-101859420D01*
X155260000Y-102140580D02*
X155260000Y-101859420D01*
%TO.C,R8*%
X161653641Y-73370000D02*
X161346359Y-73370000D01*
X161653641Y-74130000D02*
X161346359Y-74130000D01*
%TO.C,RFH6*%
X144895000Y-88196359D02*
X144895000Y-88503641D01*
X145655000Y-88196359D02*
X145655000Y-88503641D01*
%TO.C,RS1*%
X115165000Y-78172936D02*
X115165000Y-82527064D01*
X118585000Y-78172936D02*
X118585000Y-82527064D01*
%TO.C,R10*%
X150721359Y-70970000D02*
X151028641Y-70970000D01*
X150721359Y-71730000D02*
X151028641Y-71730000D01*
%TO.C,C24*%
X151890000Y-94392164D02*
X151890000Y-94607836D01*
X152610000Y-94392164D02*
X152610000Y-94607836D01*
%TO.C,R11*%
X150721359Y-73970000D02*
X151028641Y-73970000D01*
X150721359Y-74730000D02*
X151028641Y-74730000D01*
%TO.C,U13*%
X132315000Y-95290000D02*
X132410000Y-95290000D01*
X132315000Y-99410000D02*
X132315000Y-95290000D01*
X132410000Y-99410000D02*
X132315000Y-99410000D01*
X137340000Y-95290000D02*
X137435000Y-95290000D01*
X137435000Y-95290000D02*
X137435000Y-99410000D01*
X137435000Y-99410000D02*
X137340000Y-99410000D01*
X132405000Y-99950000D02*
X132075000Y-100190000D01*
X132075000Y-99710000D01*
X132405000Y-99950000D01*
G36*
X132405000Y-99950000D02*
G01*
X132075000Y-100190000D01*
X132075000Y-99710000D01*
X132405000Y-99950000D01*
G37*
%TO.C,C12*%
X129140000Y-92607836D02*
X129140000Y-92392164D01*
X129860000Y-92607836D02*
X129860000Y-92392164D01*
%TO.C,U12*%
X126315000Y-95290000D02*
X126410000Y-95290000D01*
X126315000Y-99410000D02*
X126315000Y-95290000D01*
X126410000Y-99410000D02*
X126315000Y-99410000D01*
X131340000Y-95290000D02*
X131435000Y-95290000D01*
X131435000Y-95290000D02*
X131435000Y-99410000D01*
X131435000Y-99410000D02*
X131340000Y-99410000D01*
X126405000Y-99950000D02*
X126075000Y-100190000D01*
X126075000Y-99710000D01*
X126405000Y-99950000D01*
G36*
X126405000Y-99950000D02*
G01*
X126075000Y-100190000D01*
X126075000Y-99710000D01*
X126405000Y-99950000D01*
G37*
%TO.C,RFL5*%
X142095000Y-88196359D02*
X142095000Y-88503641D01*
X142855000Y-88196359D02*
X142855000Y-88503641D01*
%TO.C,C6*%
X153761252Y-128015000D02*
X153238748Y-128015000D01*
X153761252Y-129485000D02*
X153238748Y-129485000D01*
%TO.C,R20*%
X132370000Y-72903641D02*
X132370000Y-72596359D01*
X133130000Y-72903641D02*
X133130000Y-72596359D01*
%TO.C,C8*%
X157107836Y-116640000D02*
X156892164Y-116640000D01*
X157107836Y-117360000D02*
X156892164Y-117360000D01*
%TO.C,RFH1*%
X114895000Y-88196359D02*
X114895000Y-88503641D01*
X115655000Y-88196359D02*
X115655000Y-88503641D01*
%TO.C,J1*%
D14*
X155500000Y-117872500D02*
X155500000Y-133872500D01*
X155500000Y-117872500D02*
X167470000Y-117872500D01*
X155500000Y-133872500D02*
X167470000Y-133872500D01*
X170420000Y-117822500D02*
X174000000Y-117822500D01*
X173950000Y-133872500D02*
X170430000Y-133872500D01*
X174000000Y-117822500D02*
X174000000Y-133822500D01*
D13*
X155480000Y-117872500D02*
G75*
G02*
X155420000Y-117872500I-30000J0D01*
G01*
X155420000Y-117872500D02*
G75*
G02*
X155480000Y-117872500I30000J0D01*
G01*
D17*
X159800000Y-131592500D02*
G75*
G02*
X159400000Y-131592500I-200000J0D01*
G01*
X159400000Y-131592500D02*
G75*
G02*
X159800000Y-131592500I200000J0D01*
G01*
%TO.C,C5*%
D12*
X169140000Y-84607836D02*
X169140000Y-84392164D01*
X169860000Y-84607836D02*
X169860000Y-84392164D01*
%TO.C,RFL4*%
X136095000Y-88196359D02*
X136095000Y-88503641D01*
X136855000Y-88196359D02*
X136855000Y-88503641D01*
%TO.C,C20*%
X155890000Y-99892164D02*
X155890000Y-100107836D01*
X156610000Y-99892164D02*
X156610000Y-100107836D01*
%TO.C,R21*%
X116870000Y-123153641D02*
X116870000Y-122846359D01*
X117630000Y-123153641D02*
X117630000Y-122846359D01*
%TO.C,C23*%
X151890000Y-107142164D02*
X151890000Y-107357836D01*
X152610000Y-107142164D02*
X152610000Y-107357836D01*
%TO.C,RS6*%
X145165000Y-78172936D02*
X145165000Y-82527064D01*
X148585000Y-78172936D02*
X148585000Y-82527064D01*
%TO.C,U10*%
X114315000Y-95290000D02*
X114410000Y-95290000D01*
X114315000Y-99410000D02*
X114315000Y-95290000D01*
X114410000Y-99410000D02*
X114315000Y-99410000D01*
X119340000Y-95290000D02*
X119435000Y-95290000D01*
X119435000Y-95290000D02*
X119435000Y-99410000D01*
X119435000Y-99410000D02*
X119340000Y-99410000D01*
X114405000Y-99950000D02*
X114075000Y-100190000D01*
X114075000Y-99710000D01*
X114405000Y-99950000D01*
G36*
X114405000Y-99950000D02*
G01*
X114075000Y-100190000D01*
X114075000Y-99710000D01*
X114405000Y-99950000D01*
G37*
%TO.C,CF2*%
X120490000Y-91859420D02*
X120490000Y-92140580D01*
X121510000Y-91859420D02*
X121510000Y-92140580D01*
%TO.C,C13*%
X135140000Y-92607836D02*
X135140000Y-92392164D01*
X135860000Y-92607836D02*
X135860000Y-92392164D01*
%TO.C,R5*%
X150870000Y-94653641D02*
X150870000Y-94346359D01*
X151630000Y-94653641D02*
X151630000Y-94346359D01*
%TO.C,R13*%
X150721359Y-79970000D02*
X151028641Y-79970000D01*
X150721359Y-80730000D02*
X151028641Y-80730000D01*
%TO.C,C3*%
X150890000Y-85357836D02*
X150890000Y-85142164D01*
X151610000Y-85357836D02*
X151610000Y-85142164D01*
%TO.C,R9*%
X161653641Y-70370000D02*
X161346359Y-70370000D01*
X161653641Y-71130000D02*
X161346359Y-71130000D01*
%TO.C,J5*%
X166575000Y-76930000D02*
X168495000Y-76930000D01*
X168495000Y-67770000D02*
X166575000Y-67770000D01*
X170505000Y-67770000D02*
X172210000Y-67770000D01*
X172210000Y-67770000D02*
X172210000Y-76930000D01*
X172210000Y-76930000D02*
X170505000Y-76930000D01*
%TO.C,C22*%
X152392164Y-104390000D02*
X152607836Y-104390000D01*
X152392164Y-105110000D02*
X152607836Y-105110000D01*
%TO.C,C14*%
X141140000Y-92607836D02*
X141140000Y-92392164D01*
X141860000Y-92607836D02*
X141860000Y-92392164D01*
%TO.C,RFL2*%
X124095000Y-88196359D02*
X124095000Y-88503641D01*
X124855000Y-88196359D02*
X124855000Y-88503641D01*
%TO.C,CF6*%
X144990000Y-91859420D02*
X144990000Y-92140580D01*
X146010000Y-91859420D02*
X146010000Y-92140580D01*
%TO.C,CF4*%
X132990000Y-91809420D02*
X132990000Y-92090580D01*
X134010000Y-91809420D02*
X134010000Y-92090580D01*
%TO.C,C9*%
X161515000Y-66011252D02*
X161515000Y-65488748D01*
X162985000Y-66011252D02*
X162985000Y-65488748D01*
%TO.C,R2*%
X169120000Y-86653641D02*
X169120000Y-86346359D01*
X169880000Y-86653641D02*
X169880000Y-86346359D01*
%TO.C,RFH3*%
X126895000Y-88196359D02*
X126895000Y-88503641D01*
X127655000Y-88196359D02*
X127655000Y-88503641D01*
%TO.C,C4*%
X159642164Y-108140000D02*
X159857836Y-108140000D01*
X159642164Y-108860000D02*
X159857836Y-108860000D01*
%TO.C,U14*%
X138315000Y-95290000D02*
X138410000Y-95290000D01*
X138315000Y-99410000D02*
X138315000Y-95290000D01*
X138410000Y-99410000D02*
X138315000Y-99410000D01*
X143340000Y-95290000D02*
X143435000Y-95290000D01*
X143435000Y-95290000D02*
X143435000Y-99410000D01*
X143435000Y-99410000D02*
X143340000Y-99410000D01*
X138405000Y-99950000D02*
X138075000Y-100190000D01*
X138075000Y-99710000D01*
X138405000Y-99950000D01*
G36*
X138405000Y-99950000D02*
G01*
X138075000Y-100190000D01*
X138075000Y-99710000D01*
X138405000Y-99950000D01*
G37*
%TO.C,RFH4*%
X132895000Y-88196359D02*
X132895000Y-88503641D01*
X133655000Y-88196359D02*
X133655000Y-88503641D01*
%TO.C,TH2*%
D11*
X115740000Y-124250000D02*
X116450000Y-124250000D01*
X115740000Y-125250000D02*
X115740000Y-124250000D01*
X116450000Y-125250000D02*
X115740000Y-125250000D01*
X116910000Y-125250000D02*
X117620000Y-125250000D01*
X117620000Y-124250000D02*
X116910000Y-124250000D01*
X117620000Y-125250000D02*
X117620000Y-124250000D01*
D13*
X116210000Y-125000000D02*
G75*
G02*
X116150000Y-125000000I-30000J0D01*
G01*
X116150000Y-125000000D02*
G75*
G02*
X116210000Y-125000000I30000J0D01*
G01*
%TO.C,D1*%
D12*
X155110000Y-120400000D02*
X152450000Y-120400000D01*
X155110000Y-122100000D02*
X152450000Y-122100000D01*
X155110000Y-122100000D02*
X155110000Y-120400000D01*
%TO.C,RFL1*%
X118095000Y-88196359D02*
X118095000Y-88503641D01*
X118855000Y-88196359D02*
X118855000Y-88503641D01*
%TO.C,RS3*%
X127165000Y-78172936D02*
X127165000Y-82527064D01*
X130585000Y-78172936D02*
X130585000Y-82527064D01*
%TO.C,C21*%
X156890000Y-99912164D02*
X156890000Y-100127836D01*
X157610000Y-99912164D02*
X157610000Y-100127836D01*
%TO.C,U2*%
X157190000Y-110690000D02*
X157285000Y-110690000D01*
X157190000Y-114810000D02*
X157190000Y-110690000D01*
X157285000Y-114810000D02*
X157190000Y-114810000D01*
X162215000Y-110690000D02*
X162310000Y-110690000D01*
X162310000Y-110690000D02*
X162310000Y-114810000D01*
X162310000Y-114810000D02*
X162215000Y-114810000D01*
X162220000Y-110150000D02*
X162550000Y-109910000D01*
X162550000Y-110390000D01*
X162220000Y-110150000D01*
G36*
X162550000Y-110390000D02*
G01*
X162220000Y-110150000D01*
X162550000Y-109910000D01*
X162550000Y-110390000D01*
G37*
%TO.C,RS2*%
X121165000Y-78172936D02*
X121165000Y-82527064D01*
X124585000Y-78172936D02*
X124585000Y-82527064D01*
%TO.C,RS5*%
X139165000Y-78172936D02*
X139165000Y-82527064D01*
X142585000Y-78172936D02*
X142585000Y-82527064D01*
%TO.C,RFL3*%
X130095000Y-88196359D02*
X130095000Y-88503641D01*
X130855000Y-88196359D02*
X130855000Y-88503641D01*
%TO.C,R7*%
X151620000Y-100403641D02*
X151620000Y-100096359D01*
X152380000Y-100403641D02*
X152380000Y-100096359D01*
%TO.C,CF5*%
X138990000Y-91809420D02*
X138990000Y-92090580D01*
X140010000Y-91809420D02*
X140010000Y-92090580D01*
%TO.C,J4*%
D15*
X122789200Y-130713000D02*
X122789200Y-140619000D01*
X141890000Y-130713000D02*
X122789200Y-130713000D01*
X141890000Y-140619000D02*
X141890000Y-130713000D01*
D16*
X143160000Y-133500000D02*
G75*
G02*
X142398000Y-133500000I-381000J0D01*
G01*
X142398000Y-133500000D02*
G75*
G02*
X143160000Y-133500000I381000J0D01*
G01*
%TO.C,D2*%
D12*
X153490000Y-65100000D02*
X153490000Y-68400000D01*
X153490000Y-65100000D02*
X159000000Y-65100000D01*
X153490000Y-68400000D02*
X159000000Y-68400000D01*
%TO.C,R1*%
X150903641Y-101370000D02*
X150596359Y-101370000D01*
X150903641Y-102130000D02*
X150596359Y-102130000D01*
%TO.C,U11*%
X120315000Y-95290000D02*
X120410000Y-95290000D01*
X120315000Y-99410000D02*
X120315000Y-95290000D01*
X120410000Y-99410000D02*
X120315000Y-99410000D01*
X125340000Y-95290000D02*
X125435000Y-95290000D01*
X125435000Y-95290000D02*
X125435000Y-99410000D01*
X125435000Y-99410000D02*
X125340000Y-99410000D01*
X120405000Y-99950000D02*
X120075000Y-100190000D01*
X120075000Y-99710000D01*
X120405000Y-99950000D01*
G36*
X120405000Y-99950000D02*
G01*
X120075000Y-100190000D01*
X120075000Y-99710000D01*
X120405000Y-99950000D01*
G37*
%TO.C,C15*%
X147140000Y-92607836D02*
X147140000Y-92392164D01*
X147860000Y-92607836D02*
X147860000Y-92392164D01*
%TO.C,R6*%
X151120000Y-92403641D02*
X151120000Y-92096359D01*
X151880000Y-92403641D02*
X151880000Y-92096359D01*
%TO.C,C10*%
X117140000Y-92607836D02*
X117140000Y-92392164D01*
X117860000Y-92607836D02*
X117860000Y-92392164D01*
%TO.C,CF3*%
X126990000Y-91859420D02*
X126990000Y-92140580D01*
X128010000Y-91859420D02*
X128010000Y-92140580D01*
%TD*%
M02*
