%TF.GenerationSoftware,KiCad,Pcbnew,10.0.3-10.0.3~ubuntu24.04.1*%
%TF.CreationDate,2026-06-06T03:49:15+00:00*%
%TF.ProjectId,12vhpwr-standard-module,31327668-7077-4722-9d73-74616e646172,rev?*%
%TF.SameCoordinates,Original*%
%TF.FileFunction,AssemblyDrawing,Top*%
%FSLAX46Y46*%
G04 Gerber Fmt 4.6, Leading zero omitted, Abs format (unit mm)*
G04 Created by KiCad (PCBNEW 10.0.3-10.0.3~ubuntu24.04.1) date 2026-06-06 03:49:15*
%MOMM*%
%LPD*%
G01*
G04 APERTURE LIST*
%ADD10C,0.150000*%
%ADD11C,0.040000*%
%ADD12C,0.110000*%
%ADD13C,0.060000*%
%ADD14C,0.080000*%
%ADD15C,0.100000*%
%ADD16C,0.025400*%
%ADD17C,0.508000*%
%ADD18C,0.300000*%
G04 APERTURE END LIST*
D10*
X134232142Y-80804819D02*
X133898809Y-80328628D01*
X133660714Y-80804819D02*
X133660714Y-79804819D01*
X133660714Y-79804819D02*
X134041666Y-79804819D01*
X134041666Y-79804819D02*
X134136904Y-79852438D01*
X134136904Y-79852438D02*
X134184523Y-79900057D01*
X134184523Y-79900057D02*
X134232142Y-79995295D01*
X134232142Y-79995295D02*
X134232142Y-80138152D01*
X134232142Y-80138152D02*
X134184523Y-80233390D01*
X134184523Y-80233390D02*
X134136904Y-80281009D01*
X134136904Y-80281009D02*
X134041666Y-80328628D01*
X134041666Y-80328628D02*
X133660714Y-80328628D01*
X134613095Y-80757200D02*
X134755952Y-80804819D01*
X134755952Y-80804819D02*
X134994047Y-80804819D01*
X134994047Y-80804819D02*
X135089285Y-80757200D01*
X135089285Y-80757200D02*
X135136904Y-80709580D01*
X135136904Y-80709580D02*
X135184523Y-80614342D01*
X135184523Y-80614342D02*
X135184523Y-80519104D01*
X135184523Y-80519104D02*
X135136904Y-80423866D01*
X135136904Y-80423866D02*
X135089285Y-80376247D01*
X135089285Y-80376247D02*
X134994047Y-80328628D01*
X134994047Y-80328628D02*
X134803571Y-80281009D01*
X134803571Y-80281009D02*
X134708333Y-80233390D01*
X134708333Y-80233390D02*
X134660714Y-80185771D01*
X134660714Y-80185771D02*
X134613095Y-80090533D01*
X134613095Y-80090533D02*
X134613095Y-79995295D01*
X134613095Y-79995295D02*
X134660714Y-79900057D01*
X134660714Y-79900057D02*
X134708333Y-79852438D01*
X134708333Y-79852438D02*
X134803571Y-79804819D01*
X134803571Y-79804819D02*
X135041666Y-79804819D01*
X135041666Y-79804819D02*
X135184523Y-79852438D01*
X136041666Y-80138152D02*
X136041666Y-80804819D01*
X135803571Y-79757200D02*
X135565476Y-80471485D01*
X135565476Y-80471485D02*
X136184523Y-80471485D01*
D11*
X138984048Y-88468200D02*
X138897381Y-88344391D01*
X138835476Y-88468200D02*
X138835476Y-88208200D01*
X138835476Y-88208200D02*
X138934524Y-88208200D01*
X138934524Y-88208200D02*
X138959286Y-88220581D01*
X138959286Y-88220581D02*
X138971667Y-88232962D01*
X138971667Y-88232962D02*
X138984048Y-88257724D01*
X138984048Y-88257724D02*
X138984048Y-88294867D01*
X138984048Y-88294867D02*
X138971667Y-88319629D01*
X138971667Y-88319629D02*
X138959286Y-88332010D01*
X138959286Y-88332010D02*
X138934524Y-88344391D01*
X138934524Y-88344391D02*
X138835476Y-88344391D01*
X139182143Y-88332010D02*
X139095476Y-88332010D01*
X139095476Y-88468200D02*
X139095476Y-88208200D01*
X139095476Y-88208200D02*
X139219286Y-88208200D01*
X139318333Y-88468200D02*
X139318333Y-88208200D01*
X139318333Y-88332010D02*
X139466905Y-88332010D01*
X139466905Y-88468200D02*
X139466905Y-88208200D01*
X139714524Y-88208200D02*
X139590714Y-88208200D01*
X139590714Y-88208200D02*
X139578333Y-88332010D01*
X139578333Y-88332010D02*
X139590714Y-88319629D01*
X139590714Y-88319629D02*
X139615476Y-88307248D01*
X139615476Y-88307248D02*
X139677381Y-88307248D01*
X139677381Y-88307248D02*
X139702143Y-88319629D01*
X139702143Y-88319629D02*
X139714524Y-88332010D01*
X139714524Y-88332010D02*
X139726905Y-88356772D01*
X139726905Y-88356772D02*
X139726905Y-88418677D01*
X139726905Y-88418677D02*
X139714524Y-88443439D01*
X139714524Y-88443439D02*
X139702143Y-88455820D01*
X139702143Y-88455820D02*
X139677381Y-88468200D01*
X139677381Y-88468200D02*
X139615476Y-88468200D01*
X139615476Y-88468200D02*
X139590714Y-88455820D01*
X139590714Y-88455820D02*
X139578333Y-88443439D01*
D12*
X157244865Y-104498571D02*
X157827722Y-104498571D01*
X157827722Y-104498571D02*
X157896294Y-104464285D01*
X157896294Y-104464285D02*
X157930580Y-104430000D01*
X157930580Y-104430000D02*
X157964865Y-104361428D01*
X157964865Y-104361428D02*
X157964865Y-104224285D01*
X157964865Y-104224285D02*
X157930580Y-104155714D01*
X157930580Y-104155714D02*
X157896294Y-104121428D01*
X157896294Y-104121428D02*
X157827722Y-104087142D01*
X157827722Y-104087142D02*
X157244865Y-104087142D01*
X157244865Y-103812856D02*
X157244865Y-103367142D01*
X157244865Y-103367142D02*
X157519151Y-103607142D01*
X157519151Y-103607142D02*
X157519151Y-103504285D01*
X157519151Y-103504285D02*
X157553437Y-103435714D01*
X157553437Y-103435714D02*
X157587722Y-103401428D01*
X157587722Y-103401428D02*
X157656294Y-103367142D01*
X157656294Y-103367142D02*
X157827722Y-103367142D01*
X157827722Y-103367142D02*
X157896294Y-103401428D01*
X157896294Y-103401428D02*
X157930580Y-103435714D01*
X157930580Y-103435714D02*
X157964865Y-103504285D01*
X157964865Y-103504285D02*
X157964865Y-103709999D01*
X157964865Y-103709999D02*
X157930580Y-103778571D01*
X157930580Y-103778571D02*
X157896294Y-103812856D01*
D13*
X160643832Y-102066666D02*
X160662880Y-102085714D01*
X160662880Y-102085714D02*
X160681927Y-102142856D01*
X160681927Y-102142856D02*
X160681927Y-102180952D01*
X160681927Y-102180952D02*
X160662880Y-102238095D01*
X160662880Y-102238095D02*
X160624784Y-102276190D01*
X160624784Y-102276190D02*
X160586689Y-102295237D01*
X160586689Y-102295237D02*
X160510499Y-102314285D01*
X160510499Y-102314285D02*
X160453356Y-102314285D01*
X160453356Y-102314285D02*
X160377165Y-102295237D01*
X160377165Y-102295237D02*
X160339070Y-102276190D01*
X160339070Y-102276190D02*
X160300975Y-102238095D01*
X160300975Y-102238095D02*
X160281927Y-102180952D01*
X160281927Y-102180952D02*
X160281927Y-102142856D01*
X160281927Y-102142856D02*
X160300975Y-102085714D01*
X160300975Y-102085714D02*
X160320022Y-102066666D01*
X160320022Y-101914285D02*
X160300975Y-101895237D01*
X160300975Y-101895237D02*
X160281927Y-101857142D01*
X160281927Y-101857142D02*
X160281927Y-101761904D01*
X160281927Y-101761904D02*
X160300975Y-101723809D01*
X160300975Y-101723809D02*
X160320022Y-101704761D01*
X160320022Y-101704761D02*
X160358118Y-101685714D01*
X160358118Y-101685714D02*
X160396213Y-101685714D01*
X160396213Y-101685714D02*
X160453356Y-101704761D01*
X160453356Y-101704761D02*
X160681927Y-101933333D01*
X160681927Y-101933333D02*
X160681927Y-101685714D01*
D11*
X123589765Y-92660714D02*
X123601670Y-92672618D01*
X123601670Y-92672618D02*
X123613574Y-92708333D01*
X123613574Y-92708333D02*
X123613574Y-92732142D01*
X123613574Y-92732142D02*
X123601670Y-92767856D01*
X123601670Y-92767856D02*
X123577860Y-92791666D01*
X123577860Y-92791666D02*
X123554050Y-92803571D01*
X123554050Y-92803571D02*
X123506431Y-92815475D01*
X123506431Y-92815475D02*
X123470717Y-92815475D01*
X123470717Y-92815475D02*
X123423098Y-92803571D01*
X123423098Y-92803571D02*
X123399289Y-92791666D01*
X123399289Y-92791666D02*
X123375479Y-92767856D01*
X123375479Y-92767856D02*
X123363574Y-92732142D01*
X123363574Y-92732142D02*
X123363574Y-92708333D01*
X123363574Y-92708333D02*
X123375479Y-92672618D01*
X123375479Y-92672618D02*
X123387384Y-92660714D01*
X123613574Y-92422618D02*
X123613574Y-92565475D01*
X123613574Y-92494047D02*
X123363574Y-92494047D01*
X123363574Y-92494047D02*
X123399289Y-92517856D01*
X123399289Y-92517856D02*
X123423098Y-92541666D01*
X123423098Y-92541666D02*
X123435003Y-92565475D01*
X123613574Y-92184523D02*
X123613574Y-92327380D01*
X123613574Y-92255952D02*
X123363574Y-92255952D01*
X123363574Y-92255952D02*
X123399289Y-92279761D01*
X123399289Y-92279761D02*
X123423098Y-92303571D01*
X123423098Y-92303571D02*
X123435003Y-92327380D01*
X120984048Y-88468200D02*
X120897381Y-88344391D01*
X120835476Y-88468200D02*
X120835476Y-88208200D01*
X120835476Y-88208200D02*
X120934524Y-88208200D01*
X120934524Y-88208200D02*
X120959286Y-88220581D01*
X120959286Y-88220581D02*
X120971667Y-88232962D01*
X120971667Y-88232962D02*
X120984048Y-88257724D01*
X120984048Y-88257724D02*
X120984048Y-88294867D01*
X120984048Y-88294867D02*
X120971667Y-88319629D01*
X120971667Y-88319629D02*
X120959286Y-88332010D01*
X120959286Y-88332010D02*
X120934524Y-88344391D01*
X120934524Y-88344391D02*
X120835476Y-88344391D01*
X121182143Y-88332010D02*
X121095476Y-88332010D01*
X121095476Y-88468200D02*
X121095476Y-88208200D01*
X121095476Y-88208200D02*
X121219286Y-88208200D01*
X121318333Y-88468200D02*
X121318333Y-88208200D01*
X121318333Y-88332010D02*
X121466905Y-88332010D01*
X121466905Y-88468200D02*
X121466905Y-88208200D01*
X121578333Y-88232962D02*
X121590714Y-88220581D01*
X121590714Y-88220581D02*
X121615476Y-88208200D01*
X121615476Y-88208200D02*
X121677381Y-88208200D01*
X121677381Y-88208200D02*
X121702143Y-88220581D01*
X121702143Y-88220581D02*
X121714524Y-88232962D01*
X121714524Y-88232962D02*
X121726905Y-88257724D01*
X121726905Y-88257724D02*
X121726905Y-88282486D01*
X121726905Y-88282486D02*
X121714524Y-88319629D01*
X121714524Y-88319629D02*
X121565952Y-88468200D01*
X121565952Y-88468200D02*
X121726905Y-88468200D01*
D13*
X115261905Y-92093832D02*
X115242857Y-92112880D01*
X115242857Y-92112880D02*
X115185715Y-92131927D01*
X115185715Y-92131927D02*
X115147619Y-92131927D01*
X115147619Y-92131927D02*
X115090476Y-92112880D01*
X115090476Y-92112880D02*
X115052381Y-92074784D01*
X115052381Y-92074784D02*
X115033334Y-92036689D01*
X115033334Y-92036689D02*
X115014286Y-91960499D01*
X115014286Y-91960499D02*
X115014286Y-91903356D01*
X115014286Y-91903356D02*
X115033334Y-91827165D01*
X115033334Y-91827165D02*
X115052381Y-91789070D01*
X115052381Y-91789070D02*
X115090476Y-91750975D01*
X115090476Y-91750975D02*
X115147619Y-91731927D01*
X115147619Y-91731927D02*
X115185715Y-91731927D01*
X115185715Y-91731927D02*
X115242857Y-91750975D01*
X115242857Y-91750975D02*
X115261905Y-91770022D01*
X115566667Y-91922403D02*
X115433334Y-91922403D01*
X115433334Y-92131927D02*
X115433334Y-91731927D01*
X115433334Y-91731927D02*
X115623810Y-91731927D01*
X115985714Y-92131927D02*
X115757143Y-92131927D01*
X115871429Y-92131927D02*
X115871429Y-91731927D01*
X115871429Y-91731927D02*
X115833333Y-91789070D01*
X115833333Y-91789070D02*
X115795238Y-91827165D01*
X115795238Y-91827165D02*
X115757143Y-91846213D01*
D10*
X164954819Y-112952381D02*
X164478628Y-113285714D01*
X164954819Y-113523809D02*
X163954819Y-113523809D01*
X163954819Y-113523809D02*
X163954819Y-113142857D01*
X163954819Y-113142857D02*
X164002438Y-113047619D01*
X164002438Y-113047619D02*
X164050057Y-113000000D01*
X164050057Y-113000000D02*
X164145295Y-112952381D01*
X164145295Y-112952381D02*
X164288152Y-112952381D01*
X164288152Y-112952381D02*
X164383390Y-113000000D01*
X164383390Y-113000000D02*
X164431009Y-113047619D01*
X164431009Y-113047619D02*
X164478628Y-113142857D01*
X164478628Y-113142857D02*
X164478628Y-113523809D01*
X164431009Y-112523809D02*
X164431009Y-112190476D01*
X164954819Y-112047619D02*
X164954819Y-112523809D01*
X164954819Y-112523809D02*
X163954819Y-112523809D01*
X163954819Y-112523809D02*
X163954819Y-112047619D01*
X164907200Y-111666666D02*
X164954819Y-111523809D01*
X164954819Y-111523809D02*
X164954819Y-111285714D01*
X164954819Y-111285714D02*
X164907200Y-111190476D01*
X164907200Y-111190476D02*
X164859580Y-111142857D01*
X164859580Y-111142857D02*
X164764342Y-111095238D01*
X164764342Y-111095238D02*
X164669104Y-111095238D01*
X164669104Y-111095238D02*
X164573866Y-111142857D01*
X164573866Y-111142857D02*
X164526247Y-111190476D01*
X164526247Y-111190476D02*
X164478628Y-111285714D01*
X164478628Y-111285714D02*
X164431009Y-111476190D01*
X164431009Y-111476190D02*
X164383390Y-111571428D01*
X164383390Y-111571428D02*
X164335771Y-111619047D01*
X164335771Y-111619047D02*
X164240533Y-111666666D01*
X164240533Y-111666666D02*
X164145295Y-111666666D01*
X164145295Y-111666666D02*
X164050057Y-111619047D01*
X164050057Y-111619047D02*
X164002438Y-111571428D01*
X164002438Y-111571428D02*
X163954819Y-111476190D01*
X163954819Y-111476190D02*
X163954819Y-111238095D01*
X163954819Y-111238095D02*
X164002438Y-111095238D01*
X164431009Y-110666666D02*
X164431009Y-110333333D01*
X164954819Y-110190476D02*
X164954819Y-110666666D01*
X164954819Y-110666666D02*
X163954819Y-110666666D01*
X163954819Y-110666666D02*
X163954819Y-110190476D01*
X163954819Y-109904761D02*
X163954819Y-109333333D01*
X164954819Y-109619047D02*
X163954819Y-109619047D01*
X168907200Y-112833332D02*
X168954819Y-112690475D01*
X168954819Y-112690475D02*
X168954819Y-112452380D01*
X168954819Y-112452380D02*
X168907200Y-112357142D01*
X168907200Y-112357142D02*
X168859580Y-112309523D01*
X168859580Y-112309523D02*
X168764342Y-112261904D01*
X168764342Y-112261904D02*
X168669104Y-112261904D01*
X168669104Y-112261904D02*
X168573866Y-112309523D01*
X168573866Y-112309523D02*
X168526247Y-112357142D01*
X168526247Y-112357142D02*
X168478628Y-112452380D01*
X168478628Y-112452380D02*
X168431009Y-112642856D01*
X168431009Y-112642856D02*
X168383390Y-112738094D01*
X168383390Y-112738094D02*
X168335771Y-112785713D01*
X168335771Y-112785713D02*
X168240533Y-112833332D01*
X168240533Y-112833332D02*
X168145295Y-112833332D01*
X168145295Y-112833332D02*
X168050057Y-112785713D01*
X168050057Y-112785713D02*
X168002438Y-112738094D01*
X168002438Y-112738094D02*
X167954819Y-112642856D01*
X167954819Y-112642856D02*
X167954819Y-112404761D01*
X167954819Y-112404761D02*
X168002438Y-112261904D01*
X167954819Y-111928570D02*
X168954819Y-111690475D01*
X168954819Y-111690475D02*
X168240533Y-111499999D01*
X168240533Y-111499999D02*
X168954819Y-111309523D01*
X168954819Y-111309523D02*
X167954819Y-111071428D01*
X168050057Y-110738094D02*
X168002438Y-110690475D01*
X168002438Y-110690475D02*
X167954819Y-110595237D01*
X167954819Y-110595237D02*
X167954819Y-110357142D01*
X167954819Y-110357142D02*
X168002438Y-110261904D01*
X168002438Y-110261904D02*
X168050057Y-110214285D01*
X168050057Y-110214285D02*
X168145295Y-110166666D01*
X168145295Y-110166666D02*
X168240533Y-110166666D01*
X168240533Y-110166666D02*
X168383390Y-110214285D01*
X168383390Y-110214285D02*
X168954819Y-110785713D01*
X168954819Y-110785713D02*
X168954819Y-110166666D01*
X164431009Y-104857142D02*
X164478628Y-104714285D01*
X164478628Y-104714285D02*
X164526247Y-104666666D01*
X164526247Y-104666666D02*
X164621485Y-104619047D01*
X164621485Y-104619047D02*
X164764342Y-104619047D01*
X164764342Y-104619047D02*
X164859580Y-104666666D01*
X164859580Y-104666666D02*
X164907200Y-104714285D01*
X164907200Y-104714285D02*
X164954819Y-104809523D01*
X164954819Y-104809523D02*
X164954819Y-105190475D01*
X164954819Y-105190475D02*
X163954819Y-105190475D01*
X163954819Y-105190475D02*
X163954819Y-104857142D01*
X163954819Y-104857142D02*
X164002438Y-104761904D01*
X164002438Y-104761904D02*
X164050057Y-104714285D01*
X164050057Y-104714285D02*
X164145295Y-104666666D01*
X164145295Y-104666666D02*
X164240533Y-104666666D01*
X164240533Y-104666666D02*
X164335771Y-104714285D01*
X164335771Y-104714285D02*
X164383390Y-104761904D01*
X164383390Y-104761904D02*
X164431009Y-104857142D01*
X164431009Y-104857142D02*
X164431009Y-105190475D01*
X163954819Y-103999999D02*
X163954819Y-103809523D01*
X163954819Y-103809523D02*
X164002438Y-103714285D01*
X164002438Y-103714285D02*
X164097676Y-103619047D01*
X164097676Y-103619047D02*
X164288152Y-103571428D01*
X164288152Y-103571428D02*
X164621485Y-103571428D01*
X164621485Y-103571428D02*
X164811961Y-103619047D01*
X164811961Y-103619047D02*
X164907200Y-103714285D01*
X164907200Y-103714285D02*
X164954819Y-103809523D01*
X164954819Y-103809523D02*
X164954819Y-103999999D01*
X164954819Y-103999999D02*
X164907200Y-104095237D01*
X164907200Y-104095237D02*
X164811961Y-104190475D01*
X164811961Y-104190475D02*
X164621485Y-104238094D01*
X164621485Y-104238094D02*
X164288152Y-104238094D01*
X164288152Y-104238094D02*
X164097676Y-104190475D01*
X164097676Y-104190475D02*
X164002438Y-104095237D01*
X164002438Y-104095237D02*
X163954819Y-103999999D01*
X163954819Y-102952380D02*
X163954819Y-102761904D01*
X163954819Y-102761904D02*
X164002438Y-102666666D01*
X164002438Y-102666666D02*
X164097676Y-102571428D01*
X164097676Y-102571428D02*
X164288152Y-102523809D01*
X164288152Y-102523809D02*
X164621485Y-102523809D01*
X164621485Y-102523809D02*
X164811961Y-102571428D01*
X164811961Y-102571428D02*
X164907200Y-102666666D01*
X164907200Y-102666666D02*
X164954819Y-102761904D01*
X164954819Y-102761904D02*
X164954819Y-102952380D01*
X164954819Y-102952380D02*
X164907200Y-103047618D01*
X164907200Y-103047618D02*
X164811961Y-103142856D01*
X164811961Y-103142856D02*
X164621485Y-103190475D01*
X164621485Y-103190475D02*
X164288152Y-103190475D01*
X164288152Y-103190475D02*
X164097676Y-103142856D01*
X164097676Y-103142856D02*
X164002438Y-103047618D01*
X164002438Y-103047618D02*
X163954819Y-102952380D01*
X163954819Y-102238094D02*
X163954819Y-101666666D01*
X164954819Y-101952380D02*
X163954819Y-101952380D01*
X168907200Y-104833332D02*
X168954819Y-104690475D01*
X168954819Y-104690475D02*
X168954819Y-104452380D01*
X168954819Y-104452380D02*
X168907200Y-104357142D01*
X168907200Y-104357142D02*
X168859580Y-104309523D01*
X168859580Y-104309523D02*
X168764342Y-104261904D01*
X168764342Y-104261904D02*
X168669104Y-104261904D01*
X168669104Y-104261904D02*
X168573866Y-104309523D01*
X168573866Y-104309523D02*
X168526247Y-104357142D01*
X168526247Y-104357142D02*
X168478628Y-104452380D01*
X168478628Y-104452380D02*
X168431009Y-104642856D01*
X168431009Y-104642856D02*
X168383390Y-104738094D01*
X168383390Y-104738094D02*
X168335771Y-104785713D01*
X168335771Y-104785713D02*
X168240533Y-104833332D01*
X168240533Y-104833332D02*
X168145295Y-104833332D01*
X168145295Y-104833332D02*
X168050057Y-104785713D01*
X168050057Y-104785713D02*
X168002438Y-104738094D01*
X168002438Y-104738094D02*
X167954819Y-104642856D01*
X167954819Y-104642856D02*
X167954819Y-104404761D01*
X167954819Y-104404761D02*
X168002438Y-104261904D01*
X167954819Y-103928570D02*
X168954819Y-103690475D01*
X168954819Y-103690475D02*
X168240533Y-103499999D01*
X168240533Y-103499999D02*
X168954819Y-103309523D01*
X168954819Y-103309523D02*
X167954819Y-103071428D01*
X168954819Y-102166666D02*
X168954819Y-102738094D01*
X168954819Y-102452380D02*
X167954819Y-102452380D01*
X167954819Y-102452380D02*
X168097676Y-102547618D01*
X168097676Y-102547618D02*
X168192914Y-102642856D01*
X168192914Y-102642856D02*
X168240533Y-102738094D01*
X121327067Y-64454819D02*
X121327067Y-65169104D01*
X121327067Y-65169104D02*
X121279448Y-65311961D01*
X121279448Y-65311961D02*
X121184210Y-65407200D01*
X121184210Y-65407200D02*
X121041353Y-65454819D01*
X121041353Y-65454819D02*
X120946115Y-65454819D01*
X121708020Y-64454819D02*
X122327067Y-64454819D01*
X122327067Y-64454819D02*
X121993734Y-64835771D01*
X121993734Y-64835771D02*
X122136591Y-64835771D01*
X122136591Y-64835771D02*
X122231829Y-64883390D01*
X122231829Y-64883390D02*
X122279448Y-64931009D01*
X122279448Y-64931009D02*
X122327067Y-65026247D01*
X122327067Y-65026247D02*
X122327067Y-65264342D01*
X122327067Y-65264342D02*
X122279448Y-65359580D01*
X122279448Y-65359580D02*
X122231829Y-65407200D01*
X122231829Y-65407200D02*
X122136591Y-65454819D01*
X122136591Y-65454819D02*
X121850877Y-65454819D01*
X121850877Y-65454819D02*
X121755639Y-65407200D01*
X121755639Y-65407200D02*
X121708020Y-65359580D01*
D14*
X151929530Y-88083333D02*
X151953340Y-88107142D01*
X151953340Y-88107142D02*
X151977149Y-88178571D01*
X151977149Y-88178571D02*
X151977149Y-88226190D01*
X151977149Y-88226190D02*
X151953340Y-88297618D01*
X151953340Y-88297618D02*
X151905720Y-88345237D01*
X151905720Y-88345237D02*
X151858101Y-88369047D01*
X151858101Y-88369047D02*
X151762863Y-88392856D01*
X151762863Y-88392856D02*
X151691435Y-88392856D01*
X151691435Y-88392856D02*
X151596197Y-88369047D01*
X151596197Y-88369047D02*
X151548578Y-88345237D01*
X151548578Y-88345237D02*
X151500959Y-88297618D01*
X151500959Y-88297618D02*
X151477149Y-88226190D01*
X151477149Y-88226190D02*
X151477149Y-88178571D01*
X151477149Y-88178571D02*
X151500959Y-88107142D01*
X151500959Y-88107142D02*
X151524768Y-88083333D01*
X151477149Y-87916666D02*
X151477149Y-87583333D01*
X151477149Y-87583333D02*
X151977149Y-87797618D01*
D10*
X164928571Y-133481009D02*
X164595238Y-133481009D01*
X164595238Y-134004819D02*
X164595238Y-133004819D01*
X164595238Y-133004819D02*
X165071428Y-133004819D01*
X165452381Y-134004819D02*
X165452381Y-133004819D01*
X165928571Y-134004819D02*
X165928571Y-133004819D01*
X165928571Y-133004819D02*
X166166666Y-133004819D01*
X166166666Y-133004819D02*
X166309523Y-133052438D01*
X166309523Y-133052438D02*
X166404761Y-133147676D01*
X166404761Y-133147676D02*
X166452380Y-133242914D01*
X166452380Y-133242914D02*
X166499999Y-133433390D01*
X166499999Y-133433390D02*
X166499999Y-133576247D01*
X166499999Y-133576247D02*
X166452380Y-133766723D01*
X166452380Y-133766723D02*
X166404761Y-133861961D01*
X166404761Y-133861961D02*
X166309523Y-133957200D01*
X166309523Y-133957200D02*
X166166666Y-134004819D01*
X166166666Y-134004819D02*
X165928571Y-134004819D01*
X166880952Y-133100057D02*
X166928571Y-133052438D01*
X166928571Y-133052438D02*
X167023809Y-133004819D01*
X167023809Y-133004819D02*
X167261904Y-133004819D01*
X167261904Y-133004819D02*
X167357142Y-133052438D01*
X167357142Y-133052438D02*
X167404761Y-133100057D01*
X167404761Y-133100057D02*
X167452380Y-133195295D01*
X167452380Y-133195295D02*
X167452380Y-133290533D01*
X167452380Y-133290533D02*
X167404761Y-133433390D01*
X167404761Y-133433390D02*
X166833333Y-134004819D01*
X166833333Y-134004819D02*
X167452380Y-134004819D01*
D14*
X165464286Y-135465244D02*
X165297619Y-135465244D01*
X165297619Y-135727149D02*
X165297619Y-135227149D01*
X165297619Y-135227149D02*
X165535714Y-135227149D01*
X165726190Y-135727149D02*
X165726190Y-135227149D01*
X165964285Y-135727149D02*
X165964285Y-135227149D01*
X165964285Y-135227149D02*
X166083333Y-135227149D01*
X166083333Y-135227149D02*
X166154761Y-135250959D01*
X166154761Y-135250959D02*
X166202380Y-135298578D01*
X166202380Y-135298578D02*
X166226190Y-135346197D01*
X166226190Y-135346197D02*
X166249999Y-135441435D01*
X166249999Y-135441435D02*
X166249999Y-135512863D01*
X166249999Y-135512863D02*
X166226190Y-135608101D01*
X166226190Y-135608101D02*
X166202380Y-135655720D01*
X166202380Y-135655720D02*
X166154761Y-135703340D01*
X166154761Y-135703340D02*
X166083333Y-135727149D01*
X166083333Y-135727149D02*
X165964285Y-135727149D01*
X166440476Y-135274768D02*
X166464285Y-135250959D01*
X166464285Y-135250959D02*
X166511904Y-135227149D01*
X166511904Y-135227149D02*
X166630952Y-135227149D01*
X166630952Y-135227149D02*
X166678571Y-135250959D01*
X166678571Y-135250959D02*
X166702380Y-135274768D01*
X166702380Y-135274768D02*
X166726190Y-135322387D01*
X166726190Y-135322387D02*
X166726190Y-135370006D01*
X166726190Y-135370006D02*
X166702380Y-135441435D01*
X166702380Y-135441435D02*
X166416666Y-135727149D01*
X166416666Y-135727149D02*
X166726190Y-135727149D01*
D10*
X160113095Y-92854819D02*
X160113095Y-93664342D01*
X160113095Y-93664342D02*
X160160714Y-93759580D01*
X160160714Y-93759580D02*
X160208333Y-93807200D01*
X160208333Y-93807200D02*
X160303571Y-93854819D01*
X160303571Y-93854819D02*
X160494047Y-93854819D01*
X160494047Y-93854819D02*
X160589285Y-93807200D01*
X160589285Y-93807200D02*
X160636904Y-93759580D01*
X160636904Y-93759580D02*
X160684523Y-93664342D01*
X160684523Y-93664342D02*
X160684523Y-92854819D01*
X161684523Y-93854819D02*
X161113095Y-93854819D01*
X161398809Y-93854819D02*
X161398809Y-92854819D01*
X161398809Y-92854819D02*
X161303571Y-92997676D01*
X161303571Y-92997676D02*
X161208333Y-93092914D01*
X161208333Y-93092914D02*
X161113095Y-93140533D01*
X116113095Y-134804819D02*
X116113095Y-133804819D01*
X116113095Y-134281009D02*
X116684523Y-134281009D01*
X116684523Y-134804819D02*
X116684523Y-133804819D01*
X117065476Y-133804819D02*
X117684523Y-133804819D01*
X117684523Y-133804819D02*
X117351190Y-134185771D01*
X117351190Y-134185771D02*
X117494047Y-134185771D01*
X117494047Y-134185771D02*
X117589285Y-134233390D01*
X117589285Y-134233390D02*
X117636904Y-134281009D01*
X117636904Y-134281009D02*
X117684523Y-134376247D01*
X117684523Y-134376247D02*
X117684523Y-134614342D01*
X117684523Y-134614342D02*
X117636904Y-134709580D01*
X117636904Y-134709580D02*
X117589285Y-134757200D01*
X117589285Y-134757200D02*
X117494047Y-134804819D01*
X117494047Y-134804819D02*
X117208333Y-134804819D01*
X117208333Y-134804819D02*
X117113095Y-134757200D01*
X117113095Y-134757200D02*
X117065476Y-134709580D01*
X116113095Y-62804819D02*
X116113095Y-61804819D01*
X116113095Y-62281009D02*
X116684523Y-62281009D01*
X116684523Y-62804819D02*
X116684523Y-61804819D01*
X117684523Y-62804819D02*
X117113095Y-62804819D01*
X117398809Y-62804819D02*
X117398809Y-61804819D01*
X117398809Y-61804819D02*
X117303571Y-61947676D01*
X117303571Y-61947676D02*
X117208333Y-62042914D01*
X117208333Y-62042914D02*
X117113095Y-62090533D01*
D11*
X150707857Y-77468200D02*
X150621190Y-77344391D01*
X150559285Y-77468200D02*
X150559285Y-77208200D01*
X150559285Y-77208200D02*
X150658333Y-77208200D01*
X150658333Y-77208200D02*
X150683095Y-77220581D01*
X150683095Y-77220581D02*
X150695476Y-77232962D01*
X150695476Y-77232962D02*
X150707857Y-77257724D01*
X150707857Y-77257724D02*
X150707857Y-77294867D01*
X150707857Y-77294867D02*
X150695476Y-77319629D01*
X150695476Y-77319629D02*
X150683095Y-77332010D01*
X150683095Y-77332010D02*
X150658333Y-77344391D01*
X150658333Y-77344391D02*
X150559285Y-77344391D01*
X150955476Y-77468200D02*
X150806904Y-77468200D01*
X150881190Y-77468200D02*
X150881190Y-77208200D01*
X150881190Y-77208200D02*
X150856428Y-77245343D01*
X150856428Y-77245343D02*
X150831666Y-77270105D01*
X150831666Y-77270105D02*
X150806904Y-77282486D01*
X151054523Y-77232962D02*
X151066904Y-77220581D01*
X151066904Y-77220581D02*
X151091666Y-77208200D01*
X151091666Y-77208200D02*
X151153571Y-77208200D01*
X151153571Y-77208200D02*
X151178333Y-77220581D01*
X151178333Y-77220581D02*
X151190714Y-77232962D01*
X151190714Y-77232962D02*
X151203095Y-77257724D01*
X151203095Y-77257724D02*
X151203095Y-77282486D01*
X151203095Y-77282486D02*
X151190714Y-77319629D01*
X151190714Y-77319629D02*
X151042142Y-77468200D01*
X151042142Y-77468200D02*
X151203095Y-77468200D01*
X148215000Y-88468200D02*
X148128333Y-88344391D01*
X148066428Y-88468200D02*
X148066428Y-88208200D01*
X148066428Y-88208200D02*
X148165476Y-88208200D01*
X148165476Y-88208200D02*
X148190238Y-88220581D01*
X148190238Y-88220581D02*
X148202619Y-88232962D01*
X148202619Y-88232962D02*
X148215000Y-88257724D01*
X148215000Y-88257724D02*
X148215000Y-88294867D01*
X148215000Y-88294867D02*
X148202619Y-88319629D01*
X148202619Y-88319629D02*
X148190238Y-88332010D01*
X148190238Y-88332010D02*
X148165476Y-88344391D01*
X148165476Y-88344391D02*
X148066428Y-88344391D01*
X148413095Y-88332010D02*
X148326428Y-88332010D01*
X148326428Y-88468200D02*
X148326428Y-88208200D01*
X148326428Y-88208200D02*
X148450238Y-88208200D01*
X148673095Y-88468200D02*
X148549285Y-88468200D01*
X148549285Y-88468200D02*
X148549285Y-88208200D01*
X148871190Y-88208200D02*
X148821666Y-88208200D01*
X148821666Y-88208200D02*
X148796904Y-88220581D01*
X148796904Y-88220581D02*
X148784523Y-88232962D01*
X148784523Y-88232962D02*
X148759761Y-88270105D01*
X148759761Y-88270105D02*
X148747380Y-88319629D01*
X148747380Y-88319629D02*
X148747380Y-88418677D01*
X148747380Y-88418677D02*
X148759761Y-88443439D01*
X148759761Y-88443439D02*
X148772142Y-88455820D01*
X148772142Y-88455820D02*
X148796904Y-88468200D01*
X148796904Y-88468200D02*
X148846428Y-88468200D01*
X148846428Y-88468200D02*
X148871190Y-88455820D01*
X148871190Y-88455820D02*
X148883571Y-88443439D01*
X148883571Y-88443439D02*
X148895952Y-88418677D01*
X148895952Y-88418677D02*
X148895952Y-88356772D01*
X148895952Y-88356772D02*
X148883571Y-88332010D01*
X148883571Y-88332010D02*
X148871190Y-88319629D01*
X148871190Y-88319629D02*
X148846428Y-88307248D01*
X148846428Y-88307248D02*
X148796904Y-88307248D01*
X148796904Y-88307248D02*
X148772142Y-88319629D01*
X148772142Y-88319629D02*
X148759761Y-88332010D01*
X148759761Y-88332010D02*
X148747380Y-88356772D01*
D10*
X146329819Y-98588094D02*
X147139342Y-98588094D01*
X147139342Y-98588094D02*
X147234580Y-98540475D01*
X147234580Y-98540475D02*
X147282200Y-98492856D01*
X147282200Y-98492856D02*
X147329819Y-98397618D01*
X147329819Y-98397618D02*
X147329819Y-98207142D01*
X147329819Y-98207142D02*
X147282200Y-98111904D01*
X147282200Y-98111904D02*
X147234580Y-98064285D01*
X147234580Y-98064285D02*
X147139342Y-98016666D01*
X147139342Y-98016666D02*
X146329819Y-98016666D01*
X147329819Y-97016666D02*
X147329819Y-97588094D01*
X147329819Y-97302380D02*
X146329819Y-97302380D01*
X146329819Y-97302380D02*
X146472676Y-97397618D01*
X146472676Y-97397618D02*
X146567914Y-97492856D01*
X146567914Y-97492856D02*
X146615533Y-97588094D01*
X146329819Y-96111904D02*
X146329819Y-96588094D01*
X146329819Y-96588094D02*
X146806009Y-96635713D01*
X146806009Y-96635713D02*
X146758390Y-96588094D01*
X146758390Y-96588094D02*
X146710771Y-96492856D01*
X146710771Y-96492856D02*
X146710771Y-96254761D01*
X146710771Y-96254761D02*
X146758390Y-96159523D01*
X146758390Y-96159523D02*
X146806009Y-96111904D01*
X146806009Y-96111904D02*
X146901247Y-96064285D01*
X146901247Y-96064285D02*
X147139342Y-96064285D01*
X147139342Y-96064285D02*
X147234580Y-96111904D01*
X147234580Y-96111904D02*
X147282200Y-96159523D01*
X147282200Y-96159523D02*
X147329819Y-96254761D01*
X147329819Y-96254761D02*
X147329819Y-96492856D01*
X147329819Y-96492856D02*
X147282200Y-96588094D01*
X147282200Y-96588094D02*
X147234580Y-96635713D01*
D13*
X154893832Y-102066666D02*
X154912880Y-102085714D01*
X154912880Y-102085714D02*
X154931927Y-102142856D01*
X154931927Y-102142856D02*
X154931927Y-102180952D01*
X154931927Y-102180952D02*
X154912880Y-102238095D01*
X154912880Y-102238095D02*
X154874784Y-102276190D01*
X154874784Y-102276190D02*
X154836689Y-102295237D01*
X154836689Y-102295237D02*
X154760499Y-102314285D01*
X154760499Y-102314285D02*
X154703356Y-102314285D01*
X154703356Y-102314285D02*
X154627165Y-102295237D01*
X154627165Y-102295237D02*
X154589070Y-102276190D01*
X154589070Y-102276190D02*
X154550975Y-102238095D01*
X154550975Y-102238095D02*
X154531927Y-102180952D01*
X154531927Y-102180952D02*
X154531927Y-102142856D01*
X154531927Y-102142856D02*
X154550975Y-102085714D01*
X154550975Y-102085714D02*
X154570022Y-102066666D01*
X154931927Y-101685714D02*
X154931927Y-101914285D01*
X154931927Y-101799999D02*
X154531927Y-101799999D01*
X154531927Y-101799999D02*
X154589070Y-101838095D01*
X154589070Y-101838095D02*
X154627165Y-101876190D01*
X154627165Y-101876190D02*
X154646213Y-101914285D01*
D11*
X161456667Y-73868200D02*
X161370000Y-73744391D01*
X161308095Y-73868200D02*
X161308095Y-73608200D01*
X161308095Y-73608200D02*
X161407143Y-73608200D01*
X161407143Y-73608200D02*
X161431905Y-73620581D01*
X161431905Y-73620581D02*
X161444286Y-73632962D01*
X161444286Y-73632962D02*
X161456667Y-73657724D01*
X161456667Y-73657724D02*
X161456667Y-73694867D01*
X161456667Y-73694867D02*
X161444286Y-73719629D01*
X161444286Y-73719629D02*
X161431905Y-73732010D01*
X161431905Y-73732010D02*
X161407143Y-73744391D01*
X161407143Y-73744391D02*
X161308095Y-73744391D01*
X161605238Y-73719629D02*
X161580476Y-73707248D01*
X161580476Y-73707248D02*
X161568095Y-73694867D01*
X161568095Y-73694867D02*
X161555714Y-73670105D01*
X161555714Y-73670105D02*
X161555714Y-73657724D01*
X161555714Y-73657724D02*
X161568095Y-73632962D01*
X161568095Y-73632962D02*
X161580476Y-73620581D01*
X161580476Y-73620581D02*
X161605238Y-73608200D01*
X161605238Y-73608200D02*
X161654762Y-73608200D01*
X161654762Y-73608200D02*
X161679524Y-73620581D01*
X161679524Y-73620581D02*
X161691905Y-73632962D01*
X161691905Y-73632962D02*
X161704286Y-73657724D01*
X161704286Y-73657724D02*
X161704286Y-73670105D01*
X161704286Y-73670105D02*
X161691905Y-73694867D01*
X161691905Y-73694867D02*
X161679524Y-73707248D01*
X161679524Y-73707248D02*
X161654762Y-73719629D01*
X161654762Y-73719629D02*
X161605238Y-73719629D01*
X161605238Y-73719629D02*
X161580476Y-73732010D01*
X161580476Y-73732010D02*
X161568095Y-73744391D01*
X161568095Y-73744391D02*
X161555714Y-73769153D01*
X161555714Y-73769153D02*
X161555714Y-73818677D01*
X161555714Y-73818677D02*
X161568095Y-73843439D01*
X161568095Y-73843439D02*
X161580476Y-73855820D01*
X161580476Y-73855820D02*
X161605238Y-73868200D01*
X161605238Y-73868200D02*
X161654762Y-73868200D01*
X161654762Y-73868200D02*
X161679524Y-73855820D01*
X161679524Y-73855820D02*
X161691905Y-73843439D01*
X161691905Y-73843439D02*
X161704286Y-73818677D01*
X161704286Y-73818677D02*
X161704286Y-73769153D01*
X161704286Y-73769153D02*
X161691905Y-73744391D01*
X161691905Y-73744391D02*
X161679524Y-73732010D01*
X161679524Y-73732010D02*
X161654762Y-73719629D01*
X144984048Y-88468200D02*
X144897381Y-88344391D01*
X144835476Y-88468200D02*
X144835476Y-88208200D01*
X144835476Y-88208200D02*
X144934524Y-88208200D01*
X144934524Y-88208200D02*
X144959286Y-88220581D01*
X144959286Y-88220581D02*
X144971667Y-88232962D01*
X144971667Y-88232962D02*
X144984048Y-88257724D01*
X144984048Y-88257724D02*
X144984048Y-88294867D01*
X144984048Y-88294867D02*
X144971667Y-88319629D01*
X144971667Y-88319629D02*
X144959286Y-88332010D01*
X144959286Y-88332010D02*
X144934524Y-88344391D01*
X144934524Y-88344391D02*
X144835476Y-88344391D01*
X145182143Y-88332010D02*
X145095476Y-88332010D01*
X145095476Y-88468200D02*
X145095476Y-88208200D01*
X145095476Y-88208200D02*
X145219286Y-88208200D01*
X145318333Y-88468200D02*
X145318333Y-88208200D01*
X145318333Y-88332010D02*
X145466905Y-88332010D01*
X145466905Y-88468200D02*
X145466905Y-88208200D01*
X145702143Y-88208200D02*
X145652619Y-88208200D01*
X145652619Y-88208200D02*
X145627857Y-88220581D01*
X145627857Y-88220581D02*
X145615476Y-88232962D01*
X145615476Y-88232962D02*
X145590714Y-88270105D01*
X145590714Y-88270105D02*
X145578333Y-88319629D01*
X145578333Y-88319629D02*
X145578333Y-88418677D01*
X145578333Y-88418677D02*
X145590714Y-88443439D01*
X145590714Y-88443439D02*
X145603095Y-88455820D01*
X145603095Y-88455820D02*
X145627857Y-88468200D01*
X145627857Y-88468200D02*
X145677381Y-88468200D01*
X145677381Y-88468200D02*
X145702143Y-88455820D01*
X145702143Y-88455820D02*
X145714524Y-88443439D01*
X145714524Y-88443439D02*
X145726905Y-88418677D01*
X145726905Y-88418677D02*
X145726905Y-88356772D01*
X145726905Y-88356772D02*
X145714524Y-88332010D01*
X145714524Y-88332010D02*
X145702143Y-88319629D01*
X145702143Y-88319629D02*
X145677381Y-88307248D01*
X145677381Y-88307248D02*
X145627857Y-88307248D01*
X145627857Y-88307248D02*
X145603095Y-88319629D01*
X145603095Y-88319629D02*
X145590714Y-88332010D01*
X145590714Y-88332010D02*
X145578333Y-88356772D01*
D10*
X116232142Y-80804819D02*
X115898809Y-80328628D01*
X115660714Y-80804819D02*
X115660714Y-79804819D01*
X115660714Y-79804819D02*
X116041666Y-79804819D01*
X116041666Y-79804819D02*
X116136904Y-79852438D01*
X116136904Y-79852438D02*
X116184523Y-79900057D01*
X116184523Y-79900057D02*
X116232142Y-79995295D01*
X116232142Y-79995295D02*
X116232142Y-80138152D01*
X116232142Y-80138152D02*
X116184523Y-80233390D01*
X116184523Y-80233390D02*
X116136904Y-80281009D01*
X116136904Y-80281009D02*
X116041666Y-80328628D01*
X116041666Y-80328628D02*
X115660714Y-80328628D01*
X116613095Y-80757200D02*
X116755952Y-80804819D01*
X116755952Y-80804819D02*
X116994047Y-80804819D01*
X116994047Y-80804819D02*
X117089285Y-80757200D01*
X117089285Y-80757200D02*
X117136904Y-80709580D01*
X117136904Y-80709580D02*
X117184523Y-80614342D01*
X117184523Y-80614342D02*
X117184523Y-80519104D01*
X117184523Y-80519104D02*
X117136904Y-80423866D01*
X117136904Y-80423866D02*
X117089285Y-80376247D01*
X117089285Y-80376247D02*
X116994047Y-80328628D01*
X116994047Y-80328628D02*
X116803571Y-80281009D01*
X116803571Y-80281009D02*
X116708333Y-80233390D01*
X116708333Y-80233390D02*
X116660714Y-80185771D01*
X116660714Y-80185771D02*
X116613095Y-80090533D01*
X116613095Y-80090533D02*
X116613095Y-79995295D01*
X116613095Y-79995295D02*
X116660714Y-79900057D01*
X116660714Y-79900057D02*
X116708333Y-79852438D01*
X116708333Y-79852438D02*
X116803571Y-79804819D01*
X116803571Y-79804819D02*
X117041666Y-79804819D01*
X117041666Y-79804819D02*
X117184523Y-79852438D01*
X118136904Y-80804819D02*
X117565476Y-80804819D01*
X117851190Y-80804819D02*
X117851190Y-79804819D01*
X117851190Y-79804819D02*
X117755952Y-79947676D01*
X117755952Y-79947676D02*
X117660714Y-80042914D01*
X117660714Y-80042914D02*
X117565476Y-80090533D01*
D11*
X150707857Y-71468200D02*
X150621190Y-71344391D01*
X150559285Y-71468200D02*
X150559285Y-71208200D01*
X150559285Y-71208200D02*
X150658333Y-71208200D01*
X150658333Y-71208200D02*
X150683095Y-71220581D01*
X150683095Y-71220581D02*
X150695476Y-71232962D01*
X150695476Y-71232962D02*
X150707857Y-71257724D01*
X150707857Y-71257724D02*
X150707857Y-71294867D01*
X150707857Y-71294867D02*
X150695476Y-71319629D01*
X150695476Y-71319629D02*
X150683095Y-71332010D01*
X150683095Y-71332010D02*
X150658333Y-71344391D01*
X150658333Y-71344391D02*
X150559285Y-71344391D01*
X150955476Y-71468200D02*
X150806904Y-71468200D01*
X150881190Y-71468200D02*
X150881190Y-71208200D01*
X150881190Y-71208200D02*
X150856428Y-71245343D01*
X150856428Y-71245343D02*
X150831666Y-71270105D01*
X150831666Y-71270105D02*
X150806904Y-71282486D01*
X151116428Y-71208200D02*
X151141190Y-71208200D01*
X151141190Y-71208200D02*
X151165952Y-71220581D01*
X151165952Y-71220581D02*
X151178333Y-71232962D01*
X151178333Y-71232962D02*
X151190714Y-71257724D01*
X151190714Y-71257724D02*
X151203095Y-71307248D01*
X151203095Y-71307248D02*
X151203095Y-71369153D01*
X151203095Y-71369153D02*
X151190714Y-71418677D01*
X151190714Y-71418677D02*
X151178333Y-71443439D01*
X151178333Y-71443439D02*
X151165952Y-71455820D01*
X151165952Y-71455820D02*
X151141190Y-71468200D01*
X151141190Y-71468200D02*
X151116428Y-71468200D01*
X151116428Y-71468200D02*
X151091666Y-71455820D01*
X151091666Y-71455820D02*
X151079285Y-71443439D01*
X151079285Y-71443439D02*
X151066904Y-71418677D01*
X151066904Y-71418677D02*
X151054523Y-71369153D01*
X151054523Y-71369153D02*
X151054523Y-71307248D01*
X151054523Y-71307248D02*
X151066904Y-71257724D01*
X151066904Y-71257724D02*
X151079285Y-71232962D01*
X151079285Y-71232962D02*
X151091666Y-71220581D01*
X151091666Y-71220581D02*
X151116428Y-71208200D01*
X152339765Y-94660714D02*
X152351670Y-94672618D01*
X152351670Y-94672618D02*
X152363574Y-94708333D01*
X152363574Y-94708333D02*
X152363574Y-94732142D01*
X152363574Y-94732142D02*
X152351670Y-94767856D01*
X152351670Y-94767856D02*
X152327860Y-94791666D01*
X152327860Y-94791666D02*
X152304050Y-94803571D01*
X152304050Y-94803571D02*
X152256431Y-94815475D01*
X152256431Y-94815475D02*
X152220717Y-94815475D01*
X152220717Y-94815475D02*
X152173098Y-94803571D01*
X152173098Y-94803571D02*
X152149289Y-94791666D01*
X152149289Y-94791666D02*
X152125479Y-94767856D01*
X152125479Y-94767856D02*
X152113574Y-94732142D01*
X152113574Y-94732142D02*
X152113574Y-94708333D01*
X152113574Y-94708333D02*
X152125479Y-94672618D01*
X152125479Y-94672618D02*
X152137384Y-94660714D01*
X152137384Y-94565475D02*
X152125479Y-94553571D01*
X152125479Y-94553571D02*
X152113574Y-94529761D01*
X152113574Y-94529761D02*
X152113574Y-94470237D01*
X152113574Y-94470237D02*
X152125479Y-94446428D01*
X152125479Y-94446428D02*
X152137384Y-94434523D01*
X152137384Y-94434523D02*
X152161193Y-94422618D01*
X152161193Y-94422618D02*
X152185003Y-94422618D01*
X152185003Y-94422618D02*
X152220717Y-94434523D01*
X152220717Y-94434523D02*
X152363574Y-94577380D01*
X152363574Y-94577380D02*
X152363574Y-94422618D01*
X152196908Y-94208333D02*
X152363574Y-94208333D01*
X152101670Y-94267857D02*
X152280241Y-94327380D01*
X152280241Y-94327380D02*
X152280241Y-94172619D01*
X150707857Y-74468200D02*
X150621190Y-74344391D01*
X150559285Y-74468200D02*
X150559285Y-74208200D01*
X150559285Y-74208200D02*
X150658333Y-74208200D01*
X150658333Y-74208200D02*
X150683095Y-74220581D01*
X150683095Y-74220581D02*
X150695476Y-74232962D01*
X150695476Y-74232962D02*
X150707857Y-74257724D01*
X150707857Y-74257724D02*
X150707857Y-74294867D01*
X150707857Y-74294867D02*
X150695476Y-74319629D01*
X150695476Y-74319629D02*
X150683095Y-74332010D01*
X150683095Y-74332010D02*
X150658333Y-74344391D01*
X150658333Y-74344391D02*
X150559285Y-74344391D01*
X150955476Y-74468200D02*
X150806904Y-74468200D01*
X150881190Y-74468200D02*
X150881190Y-74208200D01*
X150881190Y-74208200D02*
X150856428Y-74245343D01*
X150856428Y-74245343D02*
X150831666Y-74270105D01*
X150831666Y-74270105D02*
X150806904Y-74282486D01*
X151203095Y-74468200D02*
X151054523Y-74468200D01*
X151128809Y-74468200D02*
X151128809Y-74208200D01*
X151128809Y-74208200D02*
X151104047Y-74245343D01*
X151104047Y-74245343D02*
X151079285Y-74270105D01*
X151079285Y-74270105D02*
X151054523Y-74282486D01*
D10*
X134329819Y-98588094D02*
X135139342Y-98588094D01*
X135139342Y-98588094D02*
X135234580Y-98540475D01*
X135234580Y-98540475D02*
X135282200Y-98492856D01*
X135282200Y-98492856D02*
X135329819Y-98397618D01*
X135329819Y-98397618D02*
X135329819Y-98207142D01*
X135329819Y-98207142D02*
X135282200Y-98111904D01*
X135282200Y-98111904D02*
X135234580Y-98064285D01*
X135234580Y-98064285D02*
X135139342Y-98016666D01*
X135139342Y-98016666D02*
X134329819Y-98016666D01*
X135329819Y-97016666D02*
X135329819Y-97588094D01*
X135329819Y-97302380D02*
X134329819Y-97302380D01*
X134329819Y-97302380D02*
X134472676Y-97397618D01*
X134472676Y-97397618D02*
X134567914Y-97492856D01*
X134567914Y-97492856D02*
X134615533Y-97588094D01*
X134329819Y-96683332D02*
X134329819Y-96064285D01*
X134329819Y-96064285D02*
X134710771Y-96397618D01*
X134710771Y-96397618D02*
X134710771Y-96254761D01*
X134710771Y-96254761D02*
X134758390Y-96159523D01*
X134758390Y-96159523D02*
X134806009Y-96111904D01*
X134806009Y-96111904D02*
X134901247Y-96064285D01*
X134901247Y-96064285D02*
X135139342Y-96064285D01*
X135139342Y-96064285D02*
X135234580Y-96111904D01*
X135234580Y-96111904D02*
X135282200Y-96159523D01*
X135282200Y-96159523D02*
X135329819Y-96254761D01*
X135329819Y-96254761D02*
X135329819Y-96540475D01*
X135329819Y-96540475D02*
X135282200Y-96635713D01*
X135282200Y-96635713D02*
X135234580Y-96683332D01*
D11*
X129589765Y-92660714D02*
X129601670Y-92672618D01*
X129601670Y-92672618D02*
X129613574Y-92708333D01*
X129613574Y-92708333D02*
X129613574Y-92732142D01*
X129613574Y-92732142D02*
X129601670Y-92767856D01*
X129601670Y-92767856D02*
X129577860Y-92791666D01*
X129577860Y-92791666D02*
X129554050Y-92803571D01*
X129554050Y-92803571D02*
X129506431Y-92815475D01*
X129506431Y-92815475D02*
X129470717Y-92815475D01*
X129470717Y-92815475D02*
X129423098Y-92803571D01*
X129423098Y-92803571D02*
X129399289Y-92791666D01*
X129399289Y-92791666D02*
X129375479Y-92767856D01*
X129375479Y-92767856D02*
X129363574Y-92732142D01*
X129363574Y-92732142D02*
X129363574Y-92708333D01*
X129363574Y-92708333D02*
X129375479Y-92672618D01*
X129375479Y-92672618D02*
X129387384Y-92660714D01*
X129613574Y-92422618D02*
X129613574Y-92565475D01*
X129613574Y-92494047D02*
X129363574Y-92494047D01*
X129363574Y-92494047D02*
X129399289Y-92517856D01*
X129399289Y-92517856D02*
X129423098Y-92541666D01*
X129423098Y-92541666D02*
X129435003Y-92565475D01*
X129387384Y-92327380D02*
X129375479Y-92315476D01*
X129375479Y-92315476D02*
X129363574Y-92291666D01*
X129363574Y-92291666D02*
X129363574Y-92232142D01*
X129363574Y-92232142D02*
X129375479Y-92208333D01*
X129375479Y-92208333D02*
X129387384Y-92196428D01*
X129387384Y-92196428D02*
X129411193Y-92184523D01*
X129411193Y-92184523D02*
X129435003Y-92184523D01*
X129435003Y-92184523D02*
X129470717Y-92196428D01*
X129470717Y-92196428D02*
X129613574Y-92339285D01*
X129613574Y-92339285D02*
X129613574Y-92184523D01*
D10*
X128329819Y-98588094D02*
X129139342Y-98588094D01*
X129139342Y-98588094D02*
X129234580Y-98540475D01*
X129234580Y-98540475D02*
X129282200Y-98492856D01*
X129282200Y-98492856D02*
X129329819Y-98397618D01*
X129329819Y-98397618D02*
X129329819Y-98207142D01*
X129329819Y-98207142D02*
X129282200Y-98111904D01*
X129282200Y-98111904D02*
X129234580Y-98064285D01*
X129234580Y-98064285D02*
X129139342Y-98016666D01*
X129139342Y-98016666D02*
X128329819Y-98016666D01*
X129329819Y-97016666D02*
X129329819Y-97588094D01*
X129329819Y-97302380D02*
X128329819Y-97302380D01*
X128329819Y-97302380D02*
X128472676Y-97397618D01*
X128472676Y-97397618D02*
X128567914Y-97492856D01*
X128567914Y-97492856D02*
X128615533Y-97588094D01*
X128425057Y-96635713D02*
X128377438Y-96588094D01*
X128377438Y-96588094D02*
X128329819Y-96492856D01*
X128329819Y-96492856D02*
X128329819Y-96254761D01*
X128329819Y-96254761D02*
X128377438Y-96159523D01*
X128377438Y-96159523D02*
X128425057Y-96111904D01*
X128425057Y-96111904D02*
X128520295Y-96064285D01*
X128520295Y-96064285D02*
X128615533Y-96064285D01*
X128615533Y-96064285D02*
X128758390Y-96111904D01*
X128758390Y-96111904D02*
X129329819Y-96683332D01*
X129329819Y-96683332D02*
X129329819Y-96064285D01*
D11*
X142215000Y-88468200D02*
X142128333Y-88344391D01*
X142066428Y-88468200D02*
X142066428Y-88208200D01*
X142066428Y-88208200D02*
X142165476Y-88208200D01*
X142165476Y-88208200D02*
X142190238Y-88220581D01*
X142190238Y-88220581D02*
X142202619Y-88232962D01*
X142202619Y-88232962D02*
X142215000Y-88257724D01*
X142215000Y-88257724D02*
X142215000Y-88294867D01*
X142215000Y-88294867D02*
X142202619Y-88319629D01*
X142202619Y-88319629D02*
X142190238Y-88332010D01*
X142190238Y-88332010D02*
X142165476Y-88344391D01*
X142165476Y-88344391D02*
X142066428Y-88344391D01*
X142413095Y-88332010D02*
X142326428Y-88332010D01*
X142326428Y-88468200D02*
X142326428Y-88208200D01*
X142326428Y-88208200D02*
X142450238Y-88208200D01*
X142673095Y-88468200D02*
X142549285Y-88468200D01*
X142549285Y-88468200D02*
X142549285Y-88208200D01*
X142883571Y-88208200D02*
X142759761Y-88208200D01*
X142759761Y-88208200D02*
X142747380Y-88332010D01*
X142747380Y-88332010D02*
X142759761Y-88319629D01*
X142759761Y-88319629D02*
X142784523Y-88307248D01*
X142784523Y-88307248D02*
X142846428Y-88307248D01*
X142846428Y-88307248D02*
X142871190Y-88319629D01*
X142871190Y-88319629D02*
X142883571Y-88332010D01*
X142883571Y-88332010D02*
X142895952Y-88356772D01*
X142895952Y-88356772D02*
X142895952Y-88418677D01*
X142895952Y-88418677D02*
X142883571Y-88443439D01*
X142883571Y-88443439D02*
X142871190Y-88455820D01*
X142871190Y-88455820D02*
X142846428Y-88468200D01*
X142846428Y-88468200D02*
X142784523Y-88468200D01*
X142784523Y-88468200D02*
X142759761Y-88455820D01*
X142759761Y-88455820D02*
X142747380Y-88443439D01*
D14*
X153416666Y-128929530D02*
X153392857Y-128953340D01*
X153392857Y-128953340D02*
X153321428Y-128977149D01*
X153321428Y-128977149D02*
X153273809Y-128977149D01*
X153273809Y-128977149D02*
X153202381Y-128953340D01*
X153202381Y-128953340D02*
X153154762Y-128905720D01*
X153154762Y-128905720D02*
X153130952Y-128858101D01*
X153130952Y-128858101D02*
X153107143Y-128762863D01*
X153107143Y-128762863D02*
X153107143Y-128691435D01*
X153107143Y-128691435D02*
X153130952Y-128596197D01*
X153130952Y-128596197D02*
X153154762Y-128548578D01*
X153154762Y-128548578D02*
X153202381Y-128500959D01*
X153202381Y-128500959D02*
X153273809Y-128477149D01*
X153273809Y-128477149D02*
X153321428Y-128477149D01*
X153321428Y-128477149D02*
X153392857Y-128500959D01*
X153392857Y-128500959D02*
X153416666Y-128524768D01*
X153845238Y-128477149D02*
X153750000Y-128477149D01*
X153750000Y-128477149D02*
X153702381Y-128500959D01*
X153702381Y-128500959D02*
X153678571Y-128524768D01*
X153678571Y-128524768D02*
X153630952Y-128596197D01*
X153630952Y-128596197D02*
X153607143Y-128691435D01*
X153607143Y-128691435D02*
X153607143Y-128881911D01*
X153607143Y-128881911D02*
X153630952Y-128929530D01*
X153630952Y-128929530D02*
X153654762Y-128953340D01*
X153654762Y-128953340D02*
X153702381Y-128977149D01*
X153702381Y-128977149D02*
X153797619Y-128977149D01*
X153797619Y-128977149D02*
X153845238Y-128953340D01*
X153845238Y-128953340D02*
X153869047Y-128929530D01*
X153869047Y-128929530D02*
X153892857Y-128881911D01*
X153892857Y-128881911D02*
X153892857Y-128762863D01*
X153892857Y-128762863D02*
X153869047Y-128715244D01*
X153869047Y-128715244D02*
X153845238Y-128691435D01*
X153845238Y-128691435D02*
X153797619Y-128667625D01*
X153797619Y-128667625D02*
X153702381Y-128667625D01*
X153702381Y-128667625D02*
X153654762Y-128691435D01*
X153654762Y-128691435D02*
X153630952Y-128715244D01*
X153630952Y-128715244D02*
X153607143Y-128762863D01*
D11*
X132868200Y-72917142D02*
X132744391Y-73003809D01*
X132868200Y-73065714D02*
X132608200Y-73065714D01*
X132608200Y-73065714D02*
X132608200Y-72966666D01*
X132608200Y-72966666D02*
X132620581Y-72941904D01*
X132620581Y-72941904D02*
X132632962Y-72929523D01*
X132632962Y-72929523D02*
X132657724Y-72917142D01*
X132657724Y-72917142D02*
X132694867Y-72917142D01*
X132694867Y-72917142D02*
X132719629Y-72929523D01*
X132719629Y-72929523D02*
X132732010Y-72941904D01*
X132732010Y-72941904D02*
X132744391Y-72966666D01*
X132744391Y-72966666D02*
X132744391Y-73065714D01*
X132632962Y-72818095D02*
X132620581Y-72805714D01*
X132620581Y-72805714D02*
X132608200Y-72780952D01*
X132608200Y-72780952D02*
X132608200Y-72719047D01*
X132608200Y-72719047D02*
X132620581Y-72694285D01*
X132620581Y-72694285D02*
X132632962Y-72681904D01*
X132632962Y-72681904D02*
X132657724Y-72669523D01*
X132657724Y-72669523D02*
X132682486Y-72669523D01*
X132682486Y-72669523D02*
X132719629Y-72681904D01*
X132719629Y-72681904D02*
X132868200Y-72830476D01*
X132868200Y-72830476D02*
X132868200Y-72669523D01*
X132608200Y-72508571D02*
X132608200Y-72483809D01*
X132608200Y-72483809D02*
X132620581Y-72459047D01*
X132620581Y-72459047D02*
X132632962Y-72446666D01*
X132632962Y-72446666D02*
X132657724Y-72434285D01*
X132657724Y-72434285D02*
X132707248Y-72421904D01*
X132707248Y-72421904D02*
X132769153Y-72421904D01*
X132769153Y-72421904D02*
X132818677Y-72434285D01*
X132818677Y-72434285D02*
X132843439Y-72446666D01*
X132843439Y-72446666D02*
X132855820Y-72459047D01*
X132855820Y-72459047D02*
X132868200Y-72483809D01*
X132868200Y-72483809D02*
X132868200Y-72508571D01*
X132868200Y-72508571D02*
X132855820Y-72533333D01*
X132855820Y-72533333D02*
X132843439Y-72545714D01*
X132843439Y-72545714D02*
X132818677Y-72558095D01*
X132818677Y-72558095D02*
X132769153Y-72570476D01*
X132769153Y-72570476D02*
X132707248Y-72570476D01*
X132707248Y-72570476D02*
X132657724Y-72558095D01*
X132657724Y-72558095D02*
X132632962Y-72545714D01*
X132632962Y-72545714D02*
X132620581Y-72533333D01*
X132620581Y-72533333D02*
X132608200Y-72508571D01*
X156958333Y-117089765D02*
X156946429Y-117101670D01*
X156946429Y-117101670D02*
X156910714Y-117113574D01*
X156910714Y-117113574D02*
X156886905Y-117113574D01*
X156886905Y-117113574D02*
X156851191Y-117101670D01*
X156851191Y-117101670D02*
X156827381Y-117077860D01*
X156827381Y-117077860D02*
X156815476Y-117054050D01*
X156815476Y-117054050D02*
X156803572Y-117006431D01*
X156803572Y-117006431D02*
X156803572Y-116970717D01*
X156803572Y-116970717D02*
X156815476Y-116923098D01*
X156815476Y-116923098D02*
X156827381Y-116899289D01*
X156827381Y-116899289D02*
X156851191Y-116875479D01*
X156851191Y-116875479D02*
X156886905Y-116863574D01*
X156886905Y-116863574D02*
X156910714Y-116863574D01*
X156910714Y-116863574D02*
X156946429Y-116875479D01*
X156946429Y-116875479D02*
X156958333Y-116887384D01*
X157101191Y-116970717D02*
X157077381Y-116958812D01*
X157077381Y-116958812D02*
X157065476Y-116946908D01*
X157065476Y-116946908D02*
X157053572Y-116923098D01*
X157053572Y-116923098D02*
X157053572Y-116911193D01*
X157053572Y-116911193D02*
X157065476Y-116887384D01*
X157065476Y-116887384D02*
X157077381Y-116875479D01*
X157077381Y-116875479D02*
X157101191Y-116863574D01*
X157101191Y-116863574D02*
X157148810Y-116863574D01*
X157148810Y-116863574D02*
X157172619Y-116875479D01*
X157172619Y-116875479D02*
X157184524Y-116887384D01*
X157184524Y-116887384D02*
X157196429Y-116911193D01*
X157196429Y-116911193D02*
X157196429Y-116923098D01*
X157196429Y-116923098D02*
X157184524Y-116946908D01*
X157184524Y-116946908D02*
X157172619Y-116958812D01*
X157172619Y-116958812D02*
X157148810Y-116970717D01*
X157148810Y-116970717D02*
X157101191Y-116970717D01*
X157101191Y-116970717D02*
X157077381Y-116982622D01*
X157077381Y-116982622D02*
X157065476Y-116994527D01*
X157065476Y-116994527D02*
X157053572Y-117018336D01*
X157053572Y-117018336D02*
X157053572Y-117065955D01*
X157053572Y-117065955D02*
X157065476Y-117089765D01*
X157065476Y-117089765D02*
X157077381Y-117101670D01*
X157077381Y-117101670D02*
X157101191Y-117113574D01*
X157101191Y-117113574D02*
X157148810Y-117113574D01*
X157148810Y-117113574D02*
X157172619Y-117101670D01*
X157172619Y-117101670D02*
X157184524Y-117089765D01*
X157184524Y-117089765D02*
X157196429Y-117065955D01*
X157196429Y-117065955D02*
X157196429Y-117018336D01*
X157196429Y-117018336D02*
X157184524Y-116994527D01*
X157184524Y-116994527D02*
X157172619Y-116982622D01*
X157172619Y-116982622D02*
X157148810Y-116970717D01*
X114984048Y-88468200D02*
X114897381Y-88344391D01*
X114835476Y-88468200D02*
X114835476Y-88208200D01*
X114835476Y-88208200D02*
X114934524Y-88208200D01*
X114934524Y-88208200D02*
X114959286Y-88220581D01*
X114959286Y-88220581D02*
X114971667Y-88232962D01*
X114971667Y-88232962D02*
X114984048Y-88257724D01*
X114984048Y-88257724D02*
X114984048Y-88294867D01*
X114984048Y-88294867D02*
X114971667Y-88319629D01*
X114971667Y-88319629D02*
X114959286Y-88332010D01*
X114959286Y-88332010D02*
X114934524Y-88344391D01*
X114934524Y-88344391D02*
X114835476Y-88344391D01*
X115182143Y-88332010D02*
X115095476Y-88332010D01*
X115095476Y-88468200D02*
X115095476Y-88208200D01*
X115095476Y-88208200D02*
X115219286Y-88208200D01*
X115318333Y-88468200D02*
X115318333Y-88208200D01*
X115318333Y-88332010D02*
X115466905Y-88332010D01*
X115466905Y-88468200D02*
X115466905Y-88208200D01*
X115726905Y-88468200D02*
X115578333Y-88468200D01*
X115652619Y-88468200D02*
X115652619Y-88208200D01*
X115652619Y-88208200D02*
X115627857Y-88245343D01*
X115627857Y-88245343D02*
X115603095Y-88270105D01*
X115603095Y-88270105D02*
X115578333Y-88282486D01*
D10*
X172404819Y-128848689D02*
X172404819Y-128277261D01*
X173404819Y-128562975D02*
X172404819Y-128562975D01*
X172404819Y-127753451D02*
X172404819Y-127562975D01*
X172404819Y-127562975D02*
X172452438Y-127467737D01*
X172452438Y-127467737D02*
X172547676Y-127372499D01*
X172547676Y-127372499D02*
X172738152Y-127324880D01*
X172738152Y-127324880D02*
X173071485Y-127324880D01*
X173071485Y-127324880D02*
X173261961Y-127372499D01*
X173261961Y-127372499D02*
X173357200Y-127467737D01*
X173357200Y-127467737D02*
X173404819Y-127562975D01*
X173404819Y-127562975D02*
X173404819Y-127753451D01*
X173404819Y-127753451D02*
X173357200Y-127848689D01*
X173357200Y-127848689D02*
X173261961Y-127943927D01*
X173261961Y-127943927D02*
X173071485Y-127991546D01*
X173071485Y-127991546D02*
X172738152Y-127991546D01*
X172738152Y-127991546D02*
X172547676Y-127943927D01*
X172547676Y-127943927D02*
X172452438Y-127848689D01*
X172452438Y-127848689D02*
X172404819Y-127753451D01*
X173023866Y-126896308D02*
X173023866Y-126134404D01*
X173404819Y-125658213D02*
X172404819Y-125658213D01*
X172881009Y-125658213D02*
X172881009Y-125086785D01*
X173404819Y-125086785D02*
X172404819Y-125086785D01*
X172404819Y-124610594D02*
X173214342Y-124610594D01*
X173214342Y-124610594D02*
X173309580Y-124562975D01*
X173309580Y-124562975D02*
X173357200Y-124515356D01*
X173357200Y-124515356D02*
X173404819Y-124420118D01*
X173404819Y-124420118D02*
X173404819Y-124229642D01*
X173404819Y-124229642D02*
X173357200Y-124134404D01*
X173357200Y-124134404D02*
X173309580Y-124086785D01*
X173309580Y-124086785D02*
X173214342Y-124039166D01*
X173214342Y-124039166D02*
X172404819Y-124039166D01*
X172881009Y-123229642D02*
X172928628Y-123086785D01*
X172928628Y-123086785D02*
X172976247Y-123039166D01*
X172976247Y-123039166D02*
X173071485Y-122991547D01*
X173071485Y-122991547D02*
X173214342Y-122991547D01*
X173214342Y-122991547D02*
X173309580Y-123039166D01*
X173309580Y-123039166D02*
X173357200Y-123086785D01*
X173357200Y-123086785D02*
X173404819Y-123182023D01*
X173404819Y-123182023D02*
X173404819Y-123562975D01*
X173404819Y-123562975D02*
X172404819Y-123562975D01*
X172404819Y-123562975D02*
X172404819Y-123229642D01*
X172404819Y-123229642D02*
X172452438Y-123134404D01*
X172452438Y-123134404D02*
X172500057Y-123086785D01*
X172500057Y-123086785D02*
X172595295Y-123039166D01*
X172595295Y-123039166D02*
X172690533Y-123039166D01*
X172690533Y-123039166D02*
X172785771Y-123086785D01*
X172785771Y-123086785D02*
X172833390Y-123134404D01*
X172833390Y-123134404D02*
X172881009Y-123229642D01*
X172881009Y-123229642D02*
X172881009Y-123562975D01*
X162484819Y-126205833D02*
X163199104Y-126205833D01*
X163199104Y-126205833D02*
X163341961Y-126253452D01*
X163341961Y-126253452D02*
X163437200Y-126348690D01*
X163437200Y-126348690D02*
X163484819Y-126491547D01*
X163484819Y-126491547D02*
X163484819Y-126586785D01*
X163484819Y-125205833D02*
X163484819Y-125777261D01*
X163484819Y-125491547D02*
X162484819Y-125491547D01*
X162484819Y-125491547D02*
X162627676Y-125586785D01*
X162627676Y-125586785D02*
X162722914Y-125682023D01*
X162722914Y-125682023D02*
X162770533Y-125777261D01*
D11*
X169589765Y-84541666D02*
X169601670Y-84553570D01*
X169601670Y-84553570D02*
X169613574Y-84589285D01*
X169613574Y-84589285D02*
X169613574Y-84613094D01*
X169613574Y-84613094D02*
X169601670Y-84648808D01*
X169601670Y-84648808D02*
X169577860Y-84672618D01*
X169577860Y-84672618D02*
X169554050Y-84684523D01*
X169554050Y-84684523D02*
X169506431Y-84696427D01*
X169506431Y-84696427D02*
X169470717Y-84696427D01*
X169470717Y-84696427D02*
X169423098Y-84684523D01*
X169423098Y-84684523D02*
X169399289Y-84672618D01*
X169399289Y-84672618D02*
X169375479Y-84648808D01*
X169375479Y-84648808D02*
X169363574Y-84613094D01*
X169363574Y-84613094D02*
X169363574Y-84589285D01*
X169363574Y-84589285D02*
X169375479Y-84553570D01*
X169375479Y-84553570D02*
X169387384Y-84541666D01*
X169363574Y-84315475D02*
X169363574Y-84434523D01*
X169363574Y-84434523D02*
X169482622Y-84446427D01*
X169482622Y-84446427D02*
X169470717Y-84434523D01*
X169470717Y-84434523D02*
X169458812Y-84410713D01*
X169458812Y-84410713D02*
X169458812Y-84351189D01*
X169458812Y-84351189D02*
X169470717Y-84327380D01*
X169470717Y-84327380D02*
X169482622Y-84315475D01*
X169482622Y-84315475D02*
X169506431Y-84303570D01*
X169506431Y-84303570D02*
X169565955Y-84303570D01*
X169565955Y-84303570D02*
X169589765Y-84315475D01*
X169589765Y-84315475D02*
X169601670Y-84327380D01*
X169601670Y-84327380D02*
X169613574Y-84351189D01*
X169613574Y-84351189D02*
X169613574Y-84410713D01*
X169613574Y-84410713D02*
X169601670Y-84434523D01*
X169601670Y-84434523D02*
X169589765Y-84446427D01*
X136215000Y-88468200D02*
X136128333Y-88344391D01*
X136066428Y-88468200D02*
X136066428Y-88208200D01*
X136066428Y-88208200D02*
X136165476Y-88208200D01*
X136165476Y-88208200D02*
X136190238Y-88220581D01*
X136190238Y-88220581D02*
X136202619Y-88232962D01*
X136202619Y-88232962D02*
X136215000Y-88257724D01*
X136215000Y-88257724D02*
X136215000Y-88294867D01*
X136215000Y-88294867D02*
X136202619Y-88319629D01*
X136202619Y-88319629D02*
X136190238Y-88332010D01*
X136190238Y-88332010D02*
X136165476Y-88344391D01*
X136165476Y-88344391D02*
X136066428Y-88344391D01*
X136413095Y-88332010D02*
X136326428Y-88332010D01*
X136326428Y-88468200D02*
X136326428Y-88208200D01*
X136326428Y-88208200D02*
X136450238Y-88208200D01*
X136673095Y-88468200D02*
X136549285Y-88468200D01*
X136549285Y-88468200D02*
X136549285Y-88208200D01*
X136871190Y-88294867D02*
X136871190Y-88468200D01*
X136809285Y-88195820D02*
X136747380Y-88381534D01*
X136747380Y-88381534D02*
X136908333Y-88381534D01*
X156339765Y-100160714D02*
X156351670Y-100172618D01*
X156351670Y-100172618D02*
X156363574Y-100208333D01*
X156363574Y-100208333D02*
X156363574Y-100232142D01*
X156363574Y-100232142D02*
X156351670Y-100267856D01*
X156351670Y-100267856D02*
X156327860Y-100291666D01*
X156327860Y-100291666D02*
X156304050Y-100303571D01*
X156304050Y-100303571D02*
X156256431Y-100315475D01*
X156256431Y-100315475D02*
X156220717Y-100315475D01*
X156220717Y-100315475D02*
X156173098Y-100303571D01*
X156173098Y-100303571D02*
X156149289Y-100291666D01*
X156149289Y-100291666D02*
X156125479Y-100267856D01*
X156125479Y-100267856D02*
X156113574Y-100232142D01*
X156113574Y-100232142D02*
X156113574Y-100208333D01*
X156113574Y-100208333D02*
X156125479Y-100172618D01*
X156125479Y-100172618D02*
X156137384Y-100160714D01*
X156137384Y-100065475D02*
X156125479Y-100053571D01*
X156125479Y-100053571D02*
X156113574Y-100029761D01*
X156113574Y-100029761D02*
X156113574Y-99970237D01*
X156113574Y-99970237D02*
X156125479Y-99946428D01*
X156125479Y-99946428D02*
X156137384Y-99934523D01*
X156137384Y-99934523D02*
X156161193Y-99922618D01*
X156161193Y-99922618D02*
X156185003Y-99922618D01*
X156185003Y-99922618D02*
X156220717Y-99934523D01*
X156220717Y-99934523D02*
X156363574Y-100077380D01*
X156363574Y-100077380D02*
X156363574Y-99922618D01*
X156113574Y-99767857D02*
X156113574Y-99744047D01*
X156113574Y-99744047D02*
X156125479Y-99720238D01*
X156125479Y-99720238D02*
X156137384Y-99708333D01*
X156137384Y-99708333D02*
X156161193Y-99696428D01*
X156161193Y-99696428D02*
X156208812Y-99684523D01*
X156208812Y-99684523D02*
X156268336Y-99684523D01*
X156268336Y-99684523D02*
X156315955Y-99696428D01*
X156315955Y-99696428D02*
X156339765Y-99708333D01*
X156339765Y-99708333D02*
X156351670Y-99720238D01*
X156351670Y-99720238D02*
X156363574Y-99744047D01*
X156363574Y-99744047D02*
X156363574Y-99767857D01*
X156363574Y-99767857D02*
X156351670Y-99791666D01*
X156351670Y-99791666D02*
X156339765Y-99803571D01*
X156339765Y-99803571D02*
X156315955Y-99815476D01*
X156315955Y-99815476D02*
X156268336Y-99827380D01*
X156268336Y-99827380D02*
X156208812Y-99827380D01*
X156208812Y-99827380D02*
X156161193Y-99815476D01*
X156161193Y-99815476D02*
X156137384Y-99803571D01*
X156137384Y-99803571D02*
X156125479Y-99791666D01*
X156125479Y-99791666D02*
X156113574Y-99767857D01*
X117368200Y-123167142D02*
X117244391Y-123253809D01*
X117368200Y-123315714D02*
X117108200Y-123315714D01*
X117108200Y-123315714D02*
X117108200Y-123216666D01*
X117108200Y-123216666D02*
X117120581Y-123191904D01*
X117120581Y-123191904D02*
X117132962Y-123179523D01*
X117132962Y-123179523D02*
X117157724Y-123167142D01*
X117157724Y-123167142D02*
X117194867Y-123167142D01*
X117194867Y-123167142D02*
X117219629Y-123179523D01*
X117219629Y-123179523D02*
X117232010Y-123191904D01*
X117232010Y-123191904D02*
X117244391Y-123216666D01*
X117244391Y-123216666D02*
X117244391Y-123315714D01*
X117132962Y-123068095D02*
X117120581Y-123055714D01*
X117120581Y-123055714D02*
X117108200Y-123030952D01*
X117108200Y-123030952D02*
X117108200Y-122969047D01*
X117108200Y-122969047D02*
X117120581Y-122944285D01*
X117120581Y-122944285D02*
X117132962Y-122931904D01*
X117132962Y-122931904D02*
X117157724Y-122919523D01*
X117157724Y-122919523D02*
X117182486Y-122919523D01*
X117182486Y-122919523D02*
X117219629Y-122931904D01*
X117219629Y-122931904D02*
X117368200Y-123080476D01*
X117368200Y-123080476D02*
X117368200Y-122919523D01*
X117368200Y-122671904D02*
X117368200Y-122820476D01*
X117368200Y-122746190D02*
X117108200Y-122746190D01*
X117108200Y-122746190D02*
X117145343Y-122770952D01*
X117145343Y-122770952D02*
X117170105Y-122795714D01*
X117170105Y-122795714D02*
X117182486Y-122820476D01*
D10*
X156178571Y-60481009D02*
X155845238Y-60481009D01*
X155845238Y-61004819D02*
X155845238Y-60004819D01*
X155845238Y-60004819D02*
X156321428Y-60004819D01*
X156702381Y-61004819D02*
X156702381Y-60004819D01*
X157178571Y-61004819D02*
X157178571Y-60004819D01*
X157178571Y-60004819D02*
X157416666Y-60004819D01*
X157416666Y-60004819D02*
X157559523Y-60052438D01*
X157559523Y-60052438D02*
X157654761Y-60147676D01*
X157654761Y-60147676D02*
X157702380Y-60242914D01*
X157702380Y-60242914D02*
X157749999Y-60433390D01*
X157749999Y-60433390D02*
X157749999Y-60576247D01*
X157749999Y-60576247D02*
X157702380Y-60766723D01*
X157702380Y-60766723D02*
X157654761Y-60861961D01*
X157654761Y-60861961D02*
X157559523Y-60957200D01*
X157559523Y-60957200D02*
X157416666Y-61004819D01*
X157416666Y-61004819D02*
X157178571Y-61004819D01*
X158702380Y-61004819D02*
X158130952Y-61004819D01*
X158416666Y-61004819D02*
X158416666Y-60004819D01*
X158416666Y-60004819D02*
X158321428Y-60147676D01*
X158321428Y-60147676D02*
X158226190Y-60242914D01*
X158226190Y-60242914D02*
X158130952Y-60290533D01*
D14*
X156714286Y-62465244D02*
X156547619Y-62465244D01*
X156547619Y-62727149D02*
X156547619Y-62227149D01*
X156547619Y-62227149D02*
X156785714Y-62227149D01*
X156976190Y-62727149D02*
X156976190Y-62227149D01*
X157214285Y-62727149D02*
X157214285Y-62227149D01*
X157214285Y-62227149D02*
X157333333Y-62227149D01*
X157333333Y-62227149D02*
X157404761Y-62250959D01*
X157404761Y-62250959D02*
X157452380Y-62298578D01*
X157452380Y-62298578D02*
X157476190Y-62346197D01*
X157476190Y-62346197D02*
X157499999Y-62441435D01*
X157499999Y-62441435D02*
X157499999Y-62512863D01*
X157499999Y-62512863D02*
X157476190Y-62608101D01*
X157476190Y-62608101D02*
X157452380Y-62655720D01*
X157452380Y-62655720D02*
X157404761Y-62703340D01*
X157404761Y-62703340D02*
X157333333Y-62727149D01*
X157333333Y-62727149D02*
X157214285Y-62727149D01*
X157976190Y-62727149D02*
X157690476Y-62727149D01*
X157833333Y-62727149D02*
X157833333Y-62227149D01*
X157833333Y-62227149D02*
X157785714Y-62298578D01*
X157785714Y-62298578D02*
X157738095Y-62346197D01*
X157738095Y-62346197D02*
X157690476Y-62370006D01*
D11*
X152339765Y-107410714D02*
X152351670Y-107422618D01*
X152351670Y-107422618D02*
X152363574Y-107458333D01*
X152363574Y-107458333D02*
X152363574Y-107482142D01*
X152363574Y-107482142D02*
X152351670Y-107517856D01*
X152351670Y-107517856D02*
X152327860Y-107541666D01*
X152327860Y-107541666D02*
X152304050Y-107553571D01*
X152304050Y-107553571D02*
X152256431Y-107565475D01*
X152256431Y-107565475D02*
X152220717Y-107565475D01*
X152220717Y-107565475D02*
X152173098Y-107553571D01*
X152173098Y-107553571D02*
X152149289Y-107541666D01*
X152149289Y-107541666D02*
X152125479Y-107517856D01*
X152125479Y-107517856D02*
X152113574Y-107482142D01*
X152113574Y-107482142D02*
X152113574Y-107458333D01*
X152113574Y-107458333D02*
X152125479Y-107422618D01*
X152125479Y-107422618D02*
X152137384Y-107410714D01*
X152137384Y-107315475D02*
X152125479Y-107303571D01*
X152125479Y-107303571D02*
X152113574Y-107279761D01*
X152113574Y-107279761D02*
X152113574Y-107220237D01*
X152113574Y-107220237D02*
X152125479Y-107196428D01*
X152125479Y-107196428D02*
X152137384Y-107184523D01*
X152137384Y-107184523D02*
X152161193Y-107172618D01*
X152161193Y-107172618D02*
X152185003Y-107172618D01*
X152185003Y-107172618D02*
X152220717Y-107184523D01*
X152220717Y-107184523D02*
X152363574Y-107327380D01*
X152363574Y-107327380D02*
X152363574Y-107172618D01*
X152113574Y-107089285D02*
X152113574Y-106934523D01*
X152113574Y-106934523D02*
X152208812Y-107017857D01*
X152208812Y-107017857D02*
X152208812Y-106982142D01*
X152208812Y-106982142D02*
X152220717Y-106958333D01*
X152220717Y-106958333D02*
X152232622Y-106946428D01*
X152232622Y-106946428D02*
X152256431Y-106934523D01*
X152256431Y-106934523D02*
X152315955Y-106934523D01*
X152315955Y-106934523D02*
X152339765Y-106946428D01*
X152339765Y-106946428D02*
X152351670Y-106958333D01*
X152351670Y-106958333D02*
X152363574Y-106982142D01*
X152363574Y-106982142D02*
X152363574Y-107053571D01*
X152363574Y-107053571D02*
X152351670Y-107077380D01*
X152351670Y-107077380D02*
X152339765Y-107089285D01*
D10*
X146232142Y-80804819D02*
X145898809Y-80328628D01*
X145660714Y-80804819D02*
X145660714Y-79804819D01*
X145660714Y-79804819D02*
X146041666Y-79804819D01*
X146041666Y-79804819D02*
X146136904Y-79852438D01*
X146136904Y-79852438D02*
X146184523Y-79900057D01*
X146184523Y-79900057D02*
X146232142Y-79995295D01*
X146232142Y-79995295D02*
X146232142Y-80138152D01*
X146232142Y-80138152D02*
X146184523Y-80233390D01*
X146184523Y-80233390D02*
X146136904Y-80281009D01*
X146136904Y-80281009D02*
X146041666Y-80328628D01*
X146041666Y-80328628D02*
X145660714Y-80328628D01*
X146613095Y-80757200D02*
X146755952Y-80804819D01*
X146755952Y-80804819D02*
X146994047Y-80804819D01*
X146994047Y-80804819D02*
X147089285Y-80757200D01*
X147089285Y-80757200D02*
X147136904Y-80709580D01*
X147136904Y-80709580D02*
X147184523Y-80614342D01*
X147184523Y-80614342D02*
X147184523Y-80519104D01*
X147184523Y-80519104D02*
X147136904Y-80423866D01*
X147136904Y-80423866D02*
X147089285Y-80376247D01*
X147089285Y-80376247D02*
X146994047Y-80328628D01*
X146994047Y-80328628D02*
X146803571Y-80281009D01*
X146803571Y-80281009D02*
X146708333Y-80233390D01*
X146708333Y-80233390D02*
X146660714Y-80185771D01*
X146660714Y-80185771D02*
X146613095Y-80090533D01*
X146613095Y-80090533D02*
X146613095Y-79995295D01*
X146613095Y-79995295D02*
X146660714Y-79900057D01*
X146660714Y-79900057D02*
X146708333Y-79852438D01*
X146708333Y-79852438D02*
X146803571Y-79804819D01*
X146803571Y-79804819D02*
X147041666Y-79804819D01*
X147041666Y-79804819D02*
X147184523Y-79852438D01*
X148041666Y-79804819D02*
X147851190Y-79804819D01*
X147851190Y-79804819D02*
X147755952Y-79852438D01*
X147755952Y-79852438D02*
X147708333Y-79900057D01*
X147708333Y-79900057D02*
X147613095Y-80042914D01*
X147613095Y-80042914D02*
X147565476Y-80233390D01*
X147565476Y-80233390D02*
X147565476Y-80614342D01*
X147565476Y-80614342D02*
X147613095Y-80709580D01*
X147613095Y-80709580D02*
X147660714Y-80757200D01*
X147660714Y-80757200D02*
X147755952Y-80804819D01*
X147755952Y-80804819D02*
X147946428Y-80804819D01*
X147946428Y-80804819D02*
X148041666Y-80757200D01*
X148041666Y-80757200D02*
X148089285Y-80709580D01*
X148089285Y-80709580D02*
X148136904Y-80614342D01*
X148136904Y-80614342D02*
X148136904Y-80376247D01*
X148136904Y-80376247D02*
X148089285Y-80281009D01*
X148089285Y-80281009D02*
X148041666Y-80233390D01*
X148041666Y-80233390D02*
X147946428Y-80185771D01*
X147946428Y-80185771D02*
X147755952Y-80185771D01*
X147755952Y-80185771D02*
X147660714Y-80233390D01*
X147660714Y-80233390D02*
X147613095Y-80281009D01*
X147613095Y-80281009D02*
X147565476Y-80376247D01*
X116329819Y-98588094D02*
X117139342Y-98588094D01*
X117139342Y-98588094D02*
X117234580Y-98540475D01*
X117234580Y-98540475D02*
X117282200Y-98492856D01*
X117282200Y-98492856D02*
X117329819Y-98397618D01*
X117329819Y-98397618D02*
X117329819Y-98207142D01*
X117329819Y-98207142D02*
X117282200Y-98111904D01*
X117282200Y-98111904D02*
X117234580Y-98064285D01*
X117234580Y-98064285D02*
X117139342Y-98016666D01*
X117139342Y-98016666D02*
X116329819Y-98016666D01*
X117329819Y-97016666D02*
X117329819Y-97588094D01*
X117329819Y-97302380D02*
X116329819Y-97302380D01*
X116329819Y-97302380D02*
X116472676Y-97397618D01*
X116472676Y-97397618D02*
X116567914Y-97492856D01*
X116567914Y-97492856D02*
X116615533Y-97588094D01*
X116329819Y-96397618D02*
X116329819Y-96302380D01*
X116329819Y-96302380D02*
X116377438Y-96207142D01*
X116377438Y-96207142D02*
X116425057Y-96159523D01*
X116425057Y-96159523D02*
X116520295Y-96111904D01*
X116520295Y-96111904D02*
X116710771Y-96064285D01*
X116710771Y-96064285D02*
X116948866Y-96064285D01*
X116948866Y-96064285D02*
X117139342Y-96111904D01*
X117139342Y-96111904D02*
X117234580Y-96159523D01*
X117234580Y-96159523D02*
X117282200Y-96207142D01*
X117282200Y-96207142D02*
X117329819Y-96302380D01*
X117329819Y-96302380D02*
X117329819Y-96397618D01*
X117329819Y-96397618D02*
X117282200Y-96492856D01*
X117282200Y-96492856D02*
X117234580Y-96540475D01*
X117234580Y-96540475D02*
X117139342Y-96588094D01*
X117139342Y-96588094D02*
X116948866Y-96635713D01*
X116948866Y-96635713D02*
X116710771Y-96635713D01*
X116710771Y-96635713D02*
X116520295Y-96588094D01*
X116520295Y-96588094D02*
X116425057Y-96540475D01*
X116425057Y-96540475D02*
X116377438Y-96492856D01*
X116377438Y-96492856D02*
X116329819Y-96397618D01*
D13*
X120761905Y-92143832D02*
X120742857Y-92162880D01*
X120742857Y-92162880D02*
X120685715Y-92181927D01*
X120685715Y-92181927D02*
X120647619Y-92181927D01*
X120647619Y-92181927D02*
X120590476Y-92162880D01*
X120590476Y-92162880D02*
X120552381Y-92124784D01*
X120552381Y-92124784D02*
X120533334Y-92086689D01*
X120533334Y-92086689D02*
X120514286Y-92010499D01*
X120514286Y-92010499D02*
X120514286Y-91953356D01*
X120514286Y-91953356D02*
X120533334Y-91877165D01*
X120533334Y-91877165D02*
X120552381Y-91839070D01*
X120552381Y-91839070D02*
X120590476Y-91800975D01*
X120590476Y-91800975D02*
X120647619Y-91781927D01*
X120647619Y-91781927D02*
X120685715Y-91781927D01*
X120685715Y-91781927D02*
X120742857Y-91800975D01*
X120742857Y-91800975D02*
X120761905Y-91820022D01*
X121066667Y-91972403D02*
X120933334Y-91972403D01*
X120933334Y-92181927D02*
X120933334Y-91781927D01*
X120933334Y-91781927D02*
X121123810Y-91781927D01*
X121257143Y-91820022D02*
X121276191Y-91800975D01*
X121276191Y-91800975D02*
X121314286Y-91781927D01*
X121314286Y-91781927D02*
X121409524Y-91781927D01*
X121409524Y-91781927D02*
X121447619Y-91800975D01*
X121447619Y-91800975D02*
X121466667Y-91820022D01*
X121466667Y-91820022D02*
X121485714Y-91858118D01*
X121485714Y-91858118D02*
X121485714Y-91896213D01*
X121485714Y-91896213D02*
X121466667Y-91953356D01*
X121466667Y-91953356D02*
X121238095Y-92181927D01*
X121238095Y-92181927D02*
X121485714Y-92181927D01*
D11*
X135589765Y-92660714D02*
X135601670Y-92672618D01*
X135601670Y-92672618D02*
X135613574Y-92708333D01*
X135613574Y-92708333D02*
X135613574Y-92732142D01*
X135613574Y-92732142D02*
X135601670Y-92767856D01*
X135601670Y-92767856D02*
X135577860Y-92791666D01*
X135577860Y-92791666D02*
X135554050Y-92803571D01*
X135554050Y-92803571D02*
X135506431Y-92815475D01*
X135506431Y-92815475D02*
X135470717Y-92815475D01*
X135470717Y-92815475D02*
X135423098Y-92803571D01*
X135423098Y-92803571D02*
X135399289Y-92791666D01*
X135399289Y-92791666D02*
X135375479Y-92767856D01*
X135375479Y-92767856D02*
X135363574Y-92732142D01*
X135363574Y-92732142D02*
X135363574Y-92708333D01*
X135363574Y-92708333D02*
X135375479Y-92672618D01*
X135375479Y-92672618D02*
X135387384Y-92660714D01*
X135613574Y-92422618D02*
X135613574Y-92565475D01*
X135613574Y-92494047D02*
X135363574Y-92494047D01*
X135363574Y-92494047D02*
X135399289Y-92517856D01*
X135399289Y-92517856D02*
X135423098Y-92541666D01*
X135423098Y-92541666D02*
X135435003Y-92565475D01*
X135363574Y-92339285D02*
X135363574Y-92184523D01*
X135363574Y-92184523D02*
X135458812Y-92267857D01*
X135458812Y-92267857D02*
X135458812Y-92232142D01*
X135458812Y-92232142D02*
X135470717Y-92208333D01*
X135470717Y-92208333D02*
X135482622Y-92196428D01*
X135482622Y-92196428D02*
X135506431Y-92184523D01*
X135506431Y-92184523D02*
X135565955Y-92184523D01*
X135565955Y-92184523D02*
X135589765Y-92196428D01*
X135589765Y-92196428D02*
X135601670Y-92208333D01*
X135601670Y-92208333D02*
X135613574Y-92232142D01*
X135613574Y-92232142D02*
X135613574Y-92303571D01*
X135613574Y-92303571D02*
X135601670Y-92327380D01*
X135601670Y-92327380D02*
X135589765Y-92339285D01*
X151368200Y-94543332D02*
X151244391Y-94629999D01*
X151368200Y-94691904D02*
X151108200Y-94691904D01*
X151108200Y-94691904D02*
X151108200Y-94592856D01*
X151108200Y-94592856D02*
X151120581Y-94568094D01*
X151120581Y-94568094D02*
X151132962Y-94555713D01*
X151132962Y-94555713D02*
X151157724Y-94543332D01*
X151157724Y-94543332D02*
X151194867Y-94543332D01*
X151194867Y-94543332D02*
X151219629Y-94555713D01*
X151219629Y-94555713D02*
X151232010Y-94568094D01*
X151232010Y-94568094D02*
X151244391Y-94592856D01*
X151244391Y-94592856D02*
X151244391Y-94691904D01*
X151108200Y-94308094D02*
X151108200Y-94431904D01*
X151108200Y-94431904D02*
X151232010Y-94444285D01*
X151232010Y-94444285D02*
X151219629Y-94431904D01*
X151219629Y-94431904D02*
X151207248Y-94407142D01*
X151207248Y-94407142D02*
X151207248Y-94345237D01*
X151207248Y-94345237D02*
X151219629Y-94320475D01*
X151219629Y-94320475D02*
X151232010Y-94308094D01*
X151232010Y-94308094D02*
X151256772Y-94295713D01*
X151256772Y-94295713D02*
X151318677Y-94295713D01*
X151318677Y-94295713D02*
X151343439Y-94308094D01*
X151343439Y-94308094D02*
X151355820Y-94320475D01*
X151355820Y-94320475D02*
X151368200Y-94345237D01*
X151368200Y-94345237D02*
X151368200Y-94407142D01*
X151368200Y-94407142D02*
X151355820Y-94431904D01*
X151355820Y-94431904D02*
X151343439Y-94444285D01*
X150707857Y-80468200D02*
X150621190Y-80344391D01*
X150559285Y-80468200D02*
X150559285Y-80208200D01*
X150559285Y-80208200D02*
X150658333Y-80208200D01*
X150658333Y-80208200D02*
X150683095Y-80220581D01*
X150683095Y-80220581D02*
X150695476Y-80232962D01*
X150695476Y-80232962D02*
X150707857Y-80257724D01*
X150707857Y-80257724D02*
X150707857Y-80294867D01*
X150707857Y-80294867D02*
X150695476Y-80319629D01*
X150695476Y-80319629D02*
X150683095Y-80332010D01*
X150683095Y-80332010D02*
X150658333Y-80344391D01*
X150658333Y-80344391D02*
X150559285Y-80344391D01*
X150955476Y-80468200D02*
X150806904Y-80468200D01*
X150881190Y-80468200D02*
X150881190Y-80208200D01*
X150881190Y-80208200D02*
X150856428Y-80245343D01*
X150856428Y-80245343D02*
X150831666Y-80270105D01*
X150831666Y-80270105D02*
X150806904Y-80282486D01*
X151042142Y-80208200D02*
X151203095Y-80208200D01*
X151203095Y-80208200D02*
X151116428Y-80307248D01*
X151116428Y-80307248D02*
X151153571Y-80307248D01*
X151153571Y-80307248D02*
X151178333Y-80319629D01*
X151178333Y-80319629D02*
X151190714Y-80332010D01*
X151190714Y-80332010D02*
X151203095Y-80356772D01*
X151203095Y-80356772D02*
X151203095Y-80418677D01*
X151203095Y-80418677D02*
X151190714Y-80443439D01*
X151190714Y-80443439D02*
X151178333Y-80455820D01*
X151178333Y-80455820D02*
X151153571Y-80468200D01*
X151153571Y-80468200D02*
X151079285Y-80468200D01*
X151079285Y-80468200D02*
X151054523Y-80455820D01*
X151054523Y-80455820D02*
X151042142Y-80443439D01*
X151339765Y-85291666D02*
X151351670Y-85303570D01*
X151351670Y-85303570D02*
X151363574Y-85339285D01*
X151363574Y-85339285D02*
X151363574Y-85363094D01*
X151363574Y-85363094D02*
X151351670Y-85398808D01*
X151351670Y-85398808D02*
X151327860Y-85422618D01*
X151327860Y-85422618D02*
X151304050Y-85434523D01*
X151304050Y-85434523D02*
X151256431Y-85446427D01*
X151256431Y-85446427D02*
X151220717Y-85446427D01*
X151220717Y-85446427D02*
X151173098Y-85434523D01*
X151173098Y-85434523D02*
X151149289Y-85422618D01*
X151149289Y-85422618D02*
X151125479Y-85398808D01*
X151125479Y-85398808D02*
X151113574Y-85363094D01*
X151113574Y-85363094D02*
X151113574Y-85339285D01*
X151113574Y-85339285D02*
X151125479Y-85303570D01*
X151125479Y-85303570D02*
X151137384Y-85291666D01*
X151113574Y-85208332D02*
X151113574Y-85053570D01*
X151113574Y-85053570D02*
X151208812Y-85136904D01*
X151208812Y-85136904D02*
X151208812Y-85101189D01*
X151208812Y-85101189D02*
X151220717Y-85077380D01*
X151220717Y-85077380D02*
X151232622Y-85065475D01*
X151232622Y-85065475D02*
X151256431Y-85053570D01*
X151256431Y-85053570D02*
X151315955Y-85053570D01*
X151315955Y-85053570D02*
X151339765Y-85065475D01*
X151339765Y-85065475D02*
X151351670Y-85077380D01*
X151351670Y-85077380D02*
X151363574Y-85101189D01*
X151363574Y-85101189D02*
X151363574Y-85172618D01*
X151363574Y-85172618D02*
X151351670Y-85196427D01*
X151351670Y-85196427D02*
X151339765Y-85208332D01*
X161456667Y-70868200D02*
X161370000Y-70744391D01*
X161308095Y-70868200D02*
X161308095Y-70608200D01*
X161308095Y-70608200D02*
X161407143Y-70608200D01*
X161407143Y-70608200D02*
X161431905Y-70620581D01*
X161431905Y-70620581D02*
X161444286Y-70632962D01*
X161444286Y-70632962D02*
X161456667Y-70657724D01*
X161456667Y-70657724D02*
X161456667Y-70694867D01*
X161456667Y-70694867D02*
X161444286Y-70719629D01*
X161444286Y-70719629D02*
X161431905Y-70732010D01*
X161431905Y-70732010D02*
X161407143Y-70744391D01*
X161407143Y-70744391D02*
X161308095Y-70744391D01*
X161580476Y-70868200D02*
X161630000Y-70868200D01*
X161630000Y-70868200D02*
X161654762Y-70855820D01*
X161654762Y-70855820D02*
X161667143Y-70843439D01*
X161667143Y-70843439D02*
X161691905Y-70806296D01*
X161691905Y-70806296D02*
X161704286Y-70756772D01*
X161704286Y-70756772D02*
X161704286Y-70657724D01*
X161704286Y-70657724D02*
X161691905Y-70632962D01*
X161691905Y-70632962D02*
X161679524Y-70620581D01*
X161679524Y-70620581D02*
X161654762Y-70608200D01*
X161654762Y-70608200D02*
X161605238Y-70608200D01*
X161605238Y-70608200D02*
X161580476Y-70620581D01*
X161580476Y-70620581D02*
X161568095Y-70632962D01*
X161568095Y-70632962D02*
X161555714Y-70657724D01*
X161555714Y-70657724D02*
X161555714Y-70719629D01*
X161555714Y-70719629D02*
X161568095Y-70744391D01*
X161568095Y-70744391D02*
X161580476Y-70756772D01*
X161580476Y-70756772D02*
X161605238Y-70769153D01*
X161605238Y-70769153D02*
X161654762Y-70769153D01*
X161654762Y-70769153D02*
X161679524Y-70756772D01*
X161679524Y-70756772D02*
X161691905Y-70744391D01*
X161691905Y-70744391D02*
X161704286Y-70719629D01*
D10*
X168091666Y-71804819D02*
X168091666Y-72519104D01*
X168091666Y-72519104D02*
X168044047Y-72661961D01*
X168044047Y-72661961D02*
X167948809Y-72757200D01*
X167948809Y-72757200D02*
X167805952Y-72804819D01*
X167805952Y-72804819D02*
X167710714Y-72804819D01*
X169044047Y-71804819D02*
X168567857Y-71804819D01*
X168567857Y-71804819D02*
X168520238Y-72281009D01*
X168520238Y-72281009D02*
X168567857Y-72233390D01*
X168567857Y-72233390D02*
X168663095Y-72185771D01*
X168663095Y-72185771D02*
X168901190Y-72185771D01*
X168901190Y-72185771D02*
X168996428Y-72233390D01*
X168996428Y-72233390D02*
X169044047Y-72281009D01*
X169044047Y-72281009D02*
X169091666Y-72376247D01*
X169091666Y-72376247D02*
X169091666Y-72614342D01*
X169091666Y-72614342D02*
X169044047Y-72709580D01*
X169044047Y-72709580D02*
X168996428Y-72757200D01*
X168996428Y-72757200D02*
X168901190Y-72804819D01*
X168901190Y-72804819D02*
X168663095Y-72804819D01*
X168663095Y-72804819D02*
X168567857Y-72757200D01*
X168567857Y-72757200D02*
X168520238Y-72709580D01*
D11*
X152339285Y-104839765D02*
X152327381Y-104851670D01*
X152327381Y-104851670D02*
X152291666Y-104863574D01*
X152291666Y-104863574D02*
X152267857Y-104863574D01*
X152267857Y-104863574D02*
X152232143Y-104851670D01*
X152232143Y-104851670D02*
X152208333Y-104827860D01*
X152208333Y-104827860D02*
X152196428Y-104804050D01*
X152196428Y-104804050D02*
X152184524Y-104756431D01*
X152184524Y-104756431D02*
X152184524Y-104720717D01*
X152184524Y-104720717D02*
X152196428Y-104673098D01*
X152196428Y-104673098D02*
X152208333Y-104649289D01*
X152208333Y-104649289D02*
X152232143Y-104625479D01*
X152232143Y-104625479D02*
X152267857Y-104613574D01*
X152267857Y-104613574D02*
X152291666Y-104613574D01*
X152291666Y-104613574D02*
X152327381Y-104625479D01*
X152327381Y-104625479D02*
X152339285Y-104637384D01*
X152434524Y-104637384D02*
X152446428Y-104625479D01*
X152446428Y-104625479D02*
X152470238Y-104613574D01*
X152470238Y-104613574D02*
X152529762Y-104613574D01*
X152529762Y-104613574D02*
X152553571Y-104625479D01*
X152553571Y-104625479D02*
X152565476Y-104637384D01*
X152565476Y-104637384D02*
X152577381Y-104661193D01*
X152577381Y-104661193D02*
X152577381Y-104685003D01*
X152577381Y-104685003D02*
X152565476Y-104720717D01*
X152565476Y-104720717D02*
X152422619Y-104863574D01*
X152422619Y-104863574D02*
X152577381Y-104863574D01*
X152672619Y-104637384D02*
X152684523Y-104625479D01*
X152684523Y-104625479D02*
X152708333Y-104613574D01*
X152708333Y-104613574D02*
X152767857Y-104613574D01*
X152767857Y-104613574D02*
X152791666Y-104625479D01*
X152791666Y-104625479D02*
X152803571Y-104637384D01*
X152803571Y-104637384D02*
X152815476Y-104661193D01*
X152815476Y-104661193D02*
X152815476Y-104685003D01*
X152815476Y-104685003D02*
X152803571Y-104720717D01*
X152803571Y-104720717D02*
X152660714Y-104863574D01*
X152660714Y-104863574D02*
X152815476Y-104863574D01*
X141589765Y-92660714D02*
X141601670Y-92672618D01*
X141601670Y-92672618D02*
X141613574Y-92708333D01*
X141613574Y-92708333D02*
X141613574Y-92732142D01*
X141613574Y-92732142D02*
X141601670Y-92767856D01*
X141601670Y-92767856D02*
X141577860Y-92791666D01*
X141577860Y-92791666D02*
X141554050Y-92803571D01*
X141554050Y-92803571D02*
X141506431Y-92815475D01*
X141506431Y-92815475D02*
X141470717Y-92815475D01*
X141470717Y-92815475D02*
X141423098Y-92803571D01*
X141423098Y-92803571D02*
X141399289Y-92791666D01*
X141399289Y-92791666D02*
X141375479Y-92767856D01*
X141375479Y-92767856D02*
X141363574Y-92732142D01*
X141363574Y-92732142D02*
X141363574Y-92708333D01*
X141363574Y-92708333D02*
X141375479Y-92672618D01*
X141375479Y-92672618D02*
X141387384Y-92660714D01*
X141613574Y-92422618D02*
X141613574Y-92565475D01*
X141613574Y-92494047D02*
X141363574Y-92494047D01*
X141363574Y-92494047D02*
X141399289Y-92517856D01*
X141399289Y-92517856D02*
X141423098Y-92541666D01*
X141423098Y-92541666D02*
X141435003Y-92565475D01*
X141446908Y-92208333D02*
X141613574Y-92208333D01*
X141351670Y-92267857D02*
X141530241Y-92327380D01*
X141530241Y-92327380D02*
X141530241Y-92172619D01*
X124215000Y-88468200D02*
X124128333Y-88344391D01*
X124066428Y-88468200D02*
X124066428Y-88208200D01*
X124066428Y-88208200D02*
X124165476Y-88208200D01*
X124165476Y-88208200D02*
X124190238Y-88220581D01*
X124190238Y-88220581D02*
X124202619Y-88232962D01*
X124202619Y-88232962D02*
X124215000Y-88257724D01*
X124215000Y-88257724D02*
X124215000Y-88294867D01*
X124215000Y-88294867D02*
X124202619Y-88319629D01*
X124202619Y-88319629D02*
X124190238Y-88332010D01*
X124190238Y-88332010D02*
X124165476Y-88344391D01*
X124165476Y-88344391D02*
X124066428Y-88344391D01*
X124413095Y-88332010D02*
X124326428Y-88332010D01*
X124326428Y-88468200D02*
X124326428Y-88208200D01*
X124326428Y-88208200D02*
X124450238Y-88208200D01*
X124673095Y-88468200D02*
X124549285Y-88468200D01*
X124549285Y-88468200D02*
X124549285Y-88208200D01*
X124747380Y-88232962D02*
X124759761Y-88220581D01*
X124759761Y-88220581D02*
X124784523Y-88208200D01*
X124784523Y-88208200D02*
X124846428Y-88208200D01*
X124846428Y-88208200D02*
X124871190Y-88220581D01*
X124871190Y-88220581D02*
X124883571Y-88232962D01*
X124883571Y-88232962D02*
X124895952Y-88257724D01*
X124895952Y-88257724D02*
X124895952Y-88282486D01*
X124895952Y-88282486D02*
X124883571Y-88319629D01*
X124883571Y-88319629D02*
X124734999Y-88468200D01*
X124734999Y-88468200D02*
X124895952Y-88468200D01*
D13*
X145261905Y-92143832D02*
X145242857Y-92162880D01*
X145242857Y-92162880D02*
X145185715Y-92181927D01*
X145185715Y-92181927D02*
X145147619Y-92181927D01*
X145147619Y-92181927D02*
X145090476Y-92162880D01*
X145090476Y-92162880D02*
X145052381Y-92124784D01*
X145052381Y-92124784D02*
X145033334Y-92086689D01*
X145033334Y-92086689D02*
X145014286Y-92010499D01*
X145014286Y-92010499D02*
X145014286Y-91953356D01*
X145014286Y-91953356D02*
X145033334Y-91877165D01*
X145033334Y-91877165D02*
X145052381Y-91839070D01*
X145052381Y-91839070D02*
X145090476Y-91800975D01*
X145090476Y-91800975D02*
X145147619Y-91781927D01*
X145147619Y-91781927D02*
X145185715Y-91781927D01*
X145185715Y-91781927D02*
X145242857Y-91800975D01*
X145242857Y-91800975D02*
X145261905Y-91820022D01*
X145566667Y-91972403D02*
X145433334Y-91972403D01*
X145433334Y-92181927D02*
X145433334Y-91781927D01*
X145433334Y-91781927D02*
X145623810Y-91781927D01*
X145947619Y-91781927D02*
X145871429Y-91781927D01*
X145871429Y-91781927D02*
X145833333Y-91800975D01*
X145833333Y-91800975D02*
X145814286Y-91820022D01*
X145814286Y-91820022D02*
X145776191Y-91877165D01*
X145776191Y-91877165D02*
X145757143Y-91953356D01*
X145757143Y-91953356D02*
X145757143Y-92105737D01*
X145757143Y-92105737D02*
X145776191Y-92143832D01*
X145776191Y-92143832D02*
X145795238Y-92162880D01*
X145795238Y-92162880D02*
X145833333Y-92181927D01*
X145833333Y-92181927D02*
X145909524Y-92181927D01*
X145909524Y-92181927D02*
X145947619Y-92162880D01*
X145947619Y-92162880D02*
X145966667Y-92143832D01*
X145966667Y-92143832D02*
X145985714Y-92105737D01*
X145985714Y-92105737D02*
X145985714Y-92010499D01*
X145985714Y-92010499D02*
X145966667Y-91972403D01*
X145966667Y-91972403D02*
X145947619Y-91953356D01*
X145947619Y-91953356D02*
X145909524Y-91934308D01*
X145909524Y-91934308D02*
X145833333Y-91934308D01*
X145833333Y-91934308D02*
X145795238Y-91953356D01*
X145795238Y-91953356D02*
X145776191Y-91972403D01*
X145776191Y-91972403D02*
X145757143Y-92010499D01*
X133261905Y-92093832D02*
X133242857Y-92112880D01*
X133242857Y-92112880D02*
X133185715Y-92131927D01*
X133185715Y-92131927D02*
X133147619Y-92131927D01*
X133147619Y-92131927D02*
X133090476Y-92112880D01*
X133090476Y-92112880D02*
X133052381Y-92074784D01*
X133052381Y-92074784D02*
X133033334Y-92036689D01*
X133033334Y-92036689D02*
X133014286Y-91960499D01*
X133014286Y-91960499D02*
X133014286Y-91903356D01*
X133014286Y-91903356D02*
X133033334Y-91827165D01*
X133033334Y-91827165D02*
X133052381Y-91789070D01*
X133052381Y-91789070D02*
X133090476Y-91750975D01*
X133090476Y-91750975D02*
X133147619Y-91731927D01*
X133147619Y-91731927D02*
X133185715Y-91731927D01*
X133185715Y-91731927D02*
X133242857Y-91750975D01*
X133242857Y-91750975D02*
X133261905Y-91770022D01*
X133566667Y-91922403D02*
X133433334Y-91922403D01*
X133433334Y-92131927D02*
X133433334Y-91731927D01*
X133433334Y-91731927D02*
X133623810Y-91731927D01*
X133947619Y-91865260D02*
X133947619Y-92131927D01*
X133852381Y-91712880D02*
X133757143Y-91998594D01*
X133757143Y-91998594D02*
X134004762Y-91998594D01*
D14*
X162429530Y-65833333D02*
X162453340Y-65857142D01*
X162453340Y-65857142D02*
X162477149Y-65928571D01*
X162477149Y-65928571D02*
X162477149Y-65976190D01*
X162477149Y-65976190D02*
X162453340Y-66047618D01*
X162453340Y-66047618D02*
X162405720Y-66095237D01*
X162405720Y-66095237D02*
X162358101Y-66119047D01*
X162358101Y-66119047D02*
X162262863Y-66142856D01*
X162262863Y-66142856D02*
X162191435Y-66142856D01*
X162191435Y-66142856D02*
X162096197Y-66119047D01*
X162096197Y-66119047D02*
X162048578Y-66095237D01*
X162048578Y-66095237D02*
X162000959Y-66047618D01*
X162000959Y-66047618D02*
X161977149Y-65976190D01*
X161977149Y-65976190D02*
X161977149Y-65928571D01*
X161977149Y-65928571D02*
X162000959Y-65857142D01*
X162000959Y-65857142D02*
X162024768Y-65833333D01*
X162477149Y-65595237D02*
X162477149Y-65499999D01*
X162477149Y-65499999D02*
X162453340Y-65452380D01*
X162453340Y-65452380D02*
X162429530Y-65428571D01*
X162429530Y-65428571D02*
X162358101Y-65380952D01*
X162358101Y-65380952D02*
X162262863Y-65357142D01*
X162262863Y-65357142D02*
X162072387Y-65357142D01*
X162072387Y-65357142D02*
X162024768Y-65380952D01*
X162024768Y-65380952D02*
X162000959Y-65404761D01*
X162000959Y-65404761D02*
X161977149Y-65452380D01*
X161977149Y-65452380D02*
X161977149Y-65547618D01*
X161977149Y-65547618D02*
X162000959Y-65595237D01*
X162000959Y-65595237D02*
X162024768Y-65619047D01*
X162024768Y-65619047D02*
X162072387Y-65642856D01*
X162072387Y-65642856D02*
X162191435Y-65642856D01*
X162191435Y-65642856D02*
X162239054Y-65619047D01*
X162239054Y-65619047D02*
X162262863Y-65595237D01*
X162262863Y-65595237D02*
X162286673Y-65547618D01*
X162286673Y-65547618D02*
X162286673Y-65452380D01*
X162286673Y-65452380D02*
X162262863Y-65404761D01*
X162262863Y-65404761D02*
X162239054Y-65380952D01*
X162239054Y-65380952D02*
X162191435Y-65357142D01*
D11*
X169618200Y-86543332D02*
X169494391Y-86629999D01*
X169618200Y-86691904D02*
X169358200Y-86691904D01*
X169358200Y-86691904D02*
X169358200Y-86592856D01*
X169358200Y-86592856D02*
X169370581Y-86568094D01*
X169370581Y-86568094D02*
X169382962Y-86555713D01*
X169382962Y-86555713D02*
X169407724Y-86543332D01*
X169407724Y-86543332D02*
X169444867Y-86543332D01*
X169444867Y-86543332D02*
X169469629Y-86555713D01*
X169469629Y-86555713D02*
X169482010Y-86568094D01*
X169482010Y-86568094D02*
X169494391Y-86592856D01*
X169494391Y-86592856D02*
X169494391Y-86691904D01*
X169382962Y-86444285D02*
X169370581Y-86431904D01*
X169370581Y-86431904D02*
X169358200Y-86407142D01*
X169358200Y-86407142D02*
X169358200Y-86345237D01*
X169358200Y-86345237D02*
X169370581Y-86320475D01*
X169370581Y-86320475D02*
X169382962Y-86308094D01*
X169382962Y-86308094D02*
X169407724Y-86295713D01*
X169407724Y-86295713D02*
X169432486Y-86295713D01*
X169432486Y-86295713D02*
X169469629Y-86308094D01*
X169469629Y-86308094D02*
X169618200Y-86456666D01*
X169618200Y-86456666D02*
X169618200Y-86295713D01*
X126984048Y-88468200D02*
X126897381Y-88344391D01*
X126835476Y-88468200D02*
X126835476Y-88208200D01*
X126835476Y-88208200D02*
X126934524Y-88208200D01*
X126934524Y-88208200D02*
X126959286Y-88220581D01*
X126959286Y-88220581D02*
X126971667Y-88232962D01*
X126971667Y-88232962D02*
X126984048Y-88257724D01*
X126984048Y-88257724D02*
X126984048Y-88294867D01*
X126984048Y-88294867D02*
X126971667Y-88319629D01*
X126971667Y-88319629D02*
X126959286Y-88332010D01*
X126959286Y-88332010D02*
X126934524Y-88344391D01*
X126934524Y-88344391D02*
X126835476Y-88344391D01*
X127182143Y-88332010D02*
X127095476Y-88332010D01*
X127095476Y-88468200D02*
X127095476Y-88208200D01*
X127095476Y-88208200D02*
X127219286Y-88208200D01*
X127318333Y-88468200D02*
X127318333Y-88208200D01*
X127318333Y-88332010D02*
X127466905Y-88332010D01*
X127466905Y-88468200D02*
X127466905Y-88208200D01*
X127565952Y-88208200D02*
X127726905Y-88208200D01*
X127726905Y-88208200D02*
X127640238Y-88307248D01*
X127640238Y-88307248D02*
X127677381Y-88307248D01*
X127677381Y-88307248D02*
X127702143Y-88319629D01*
X127702143Y-88319629D02*
X127714524Y-88332010D01*
X127714524Y-88332010D02*
X127726905Y-88356772D01*
X127726905Y-88356772D02*
X127726905Y-88418677D01*
X127726905Y-88418677D02*
X127714524Y-88443439D01*
X127714524Y-88443439D02*
X127702143Y-88455820D01*
X127702143Y-88455820D02*
X127677381Y-88468200D01*
X127677381Y-88468200D02*
X127603095Y-88468200D01*
X127603095Y-88468200D02*
X127578333Y-88455820D01*
X127578333Y-88455820D02*
X127565952Y-88443439D01*
X159708333Y-108589765D02*
X159696429Y-108601670D01*
X159696429Y-108601670D02*
X159660714Y-108613574D01*
X159660714Y-108613574D02*
X159636905Y-108613574D01*
X159636905Y-108613574D02*
X159601191Y-108601670D01*
X159601191Y-108601670D02*
X159577381Y-108577860D01*
X159577381Y-108577860D02*
X159565476Y-108554050D01*
X159565476Y-108554050D02*
X159553572Y-108506431D01*
X159553572Y-108506431D02*
X159553572Y-108470717D01*
X159553572Y-108470717D02*
X159565476Y-108423098D01*
X159565476Y-108423098D02*
X159577381Y-108399289D01*
X159577381Y-108399289D02*
X159601191Y-108375479D01*
X159601191Y-108375479D02*
X159636905Y-108363574D01*
X159636905Y-108363574D02*
X159660714Y-108363574D01*
X159660714Y-108363574D02*
X159696429Y-108375479D01*
X159696429Y-108375479D02*
X159708333Y-108387384D01*
X159922619Y-108446908D02*
X159922619Y-108613574D01*
X159863095Y-108351670D02*
X159803572Y-108530241D01*
X159803572Y-108530241D02*
X159958333Y-108530241D01*
D10*
X140329819Y-98588094D02*
X141139342Y-98588094D01*
X141139342Y-98588094D02*
X141234580Y-98540475D01*
X141234580Y-98540475D02*
X141282200Y-98492856D01*
X141282200Y-98492856D02*
X141329819Y-98397618D01*
X141329819Y-98397618D02*
X141329819Y-98207142D01*
X141329819Y-98207142D02*
X141282200Y-98111904D01*
X141282200Y-98111904D02*
X141234580Y-98064285D01*
X141234580Y-98064285D02*
X141139342Y-98016666D01*
X141139342Y-98016666D02*
X140329819Y-98016666D01*
X141329819Y-97016666D02*
X141329819Y-97588094D01*
X141329819Y-97302380D02*
X140329819Y-97302380D01*
X140329819Y-97302380D02*
X140472676Y-97397618D01*
X140472676Y-97397618D02*
X140567914Y-97492856D01*
X140567914Y-97492856D02*
X140615533Y-97588094D01*
X140663152Y-96159523D02*
X141329819Y-96159523D01*
X140282200Y-96397618D02*
X140996485Y-96635713D01*
X140996485Y-96635713D02*
X140996485Y-96016666D01*
D11*
X132984048Y-88468200D02*
X132897381Y-88344391D01*
X132835476Y-88468200D02*
X132835476Y-88208200D01*
X132835476Y-88208200D02*
X132934524Y-88208200D01*
X132934524Y-88208200D02*
X132959286Y-88220581D01*
X132959286Y-88220581D02*
X132971667Y-88232962D01*
X132971667Y-88232962D02*
X132984048Y-88257724D01*
X132984048Y-88257724D02*
X132984048Y-88294867D01*
X132984048Y-88294867D02*
X132971667Y-88319629D01*
X132971667Y-88319629D02*
X132959286Y-88332010D01*
X132959286Y-88332010D02*
X132934524Y-88344391D01*
X132934524Y-88344391D02*
X132835476Y-88344391D01*
X133182143Y-88332010D02*
X133095476Y-88332010D01*
X133095476Y-88468200D02*
X133095476Y-88208200D01*
X133095476Y-88208200D02*
X133219286Y-88208200D01*
X133318333Y-88468200D02*
X133318333Y-88208200D01*
X133318333Y-88332010D02*
X133466905Y-88332010D01*
X133466905Y-88468200D02*
X133466905Y-88208200D01*
X133702143Y-88294867D02*
X133702143Y-88468200D01*
X133640238Y-88195820D02*
X133578333Y-88381534D01*
X133578333Y-88381534D02*
X133739286Y-88381534D01*
D10*
X146797619Y-119954819D02*
X146797619Y-118954819D01*
X146797619Y-118954819D02*
X147178571Y-118954819D01*
X147178571Y-118954819D02*
X147273809Y-119002438D01*
X147273809Y-119002438D02*
X147321428Y-119050057D01*
X147321428Y-119050057D02*
X147369047Y-119145295D01*
X147369047Y-119145295D02*
X147369047Y-119288152D01*
X147369047Y-119288152D02*
X147321428Y-119383390D01*
X147321428Y-119383390D02*
X147273809Y-119431009D01*
X147273809Y-119431009D02*
X147178571Y-119478628D01*
X147178571Y-119478628D02*
X146797619Y-119478628D01*
X147797619Y-119431009D02*
X148130952Y-119431009D01*
X148273809Y-119954819D02*
X147797619Y-119954819D01*
X147797619Y-119954819D02*
X147797619Y-118954819D01*
X147797619Y-118954819D02*
X148273809Y-118954819D01*
X148654762Y-119907200D02*
X148797619Y-119954819D01*
X148797619Y-119954819D02*
X149035714Y-119954819D01*
X149035714Y-119954819D02*
X149130952Y-119907200D01*
X149130952Y-119907200D02*
X149178571Y-119859580D01*
X149178571Y-119859580D02*
X149226190Y-119764342D01*
X149226190Y-119764342D02*
X149226190Y-119669104D01*
X149226190Y-119669104D02*
X149178571Y-119573866D01*
X149178571Y-119573866D02*
X149130952Y-119526247D01*
X149130952Y-119526247D02*
X149035714Y-119478628D01*
X149035714Y-119478628D02*
X148845238Y-119431009D01*
X148845238Y-119431009D02*
X148750000Y-119383390D01*
X148750000Y-119383390D02*
X148702381Y-119335771D01*
X148702381Y-119335771D02*
X148654762Y-119240533D01*
X148654762Y-119240533D02*
X148654762Y-119145295D01*
X148654762Y-119145295D02*
X148702381Y-119050057D01*
X148702381Y-119050057D02*
X148750000Y-119002438D01*
X148750000Y-119002438D02*
X148845238Y-118954819D01*
X148845238Y-118954819D02*
X149083333Y-118954819D01*
X149083333Y-118954819D02*
X149226190Y-119002438D01*
X149654762Y-119954819D02*
X149654762Y-118954819D01*
X149654762Y-118954819D02*
X149892857Y-118954819D01*
X149892857Y-118954819D02*
X150035714Y-119002438D01*
X150035714Y-119002438D02*
X150130952Y-119097676D01*
X150130952Y-119097676D02*
X150178571Y-119192914D01*
X150178571Y-119192914D02*
X150226190Y-119383390D01*
X150226190Y-119383390D02*
X150226190Y-119526247D01*
X150226190Y-119526247D02*
X150178571Y-119716723D01*
X150178571Y-119716723D02*
X150130952Y-119811961D01*
X150130952Y-119811961D02*
X150035714Y-119907200D01*
X150035714Y-119907200D02*
X149892857Y-119954819D01*
X149892857Y-119954819D02*
X149654762Y-119954819D01*
X151130952Y-118954819D02*
X150654762Y-118954819D01*
X150654762Y-118954819D02*
X150607143Y-119431009D01*
X150607143Y-119431009D02*
X150654762Y-119383390D01*
X150654762Y-119383390D02*
X150750000Y-119335771D01*
X150750000Y-119335771D02*
X150988095Y-119335771D01*
X150988095Y-119335771D02*
X151083333Y-119383390D01*
X151083333Y-119383390D02*
X151130952Y-119431009D01*
X151130952Y-119431009D02*
X151178571Y-119526247D01*
X151178571Y-119526247D02*
X151178571Y-119764342D01*
X151178571Y-119764342D02*
X151130952Y-119859580D01*
X151130952Y-119859580D02*
X151083333Y-119907200D01*
X151083333Y-119907200D02*
X150988095Y-119954819D01*
X150988095Y-119954819D02*
X150750000Y-119954819D01*
X150750000Y-119954819D02*
X150654762Y-119907200D01*
X150654762Y-119907200D02*
X150607143Y-119859580D01*
X151464286Y-118954819D02*
X151797619Y-119954819D01*
X151797619Y-119954819D02*
X152130952Y-118954819D01*
X152654762Y-118954819D02*
X152750000Y-118954819D01*
X152750000Y-118954819D02*
X152845238Y-119002438D01*
X152845238Y-119002438D02*
X152892857Y-119050057D01*
X152892857Y-119050057D02*
X152940476Y-119145295D01*
X152940476Y-119145295D02*
X152988095Y-119335771D01*
X152988095Y-119335771D02*
X152988095Y-119573866D01*
X152988095Y-119573866D02*
X152940476Y-119764342D01*
X152940476Y-119764342D02*
X152892857Y-119859580D01*
X152892857Y-119859580D02*
X152845238Y-119907200D01*
X152845238Y-119907200D02*
X152750000Y-119954819D01*
X152750000Y-119954819D02*
X152654762Y-119954819D01*
X152654762Y-119954819D02*
X152559524Y-119907200D01*
X152559524Y-119907200D02*
X152511905Y-119859580D01*
X152511905Y-119859580D02*
X152464286Y-119764342D01*
X152464286Y-119764342D02*
X152416667Y-119573866D01*
X152416667Y-119573866D02*
X152416667Y-119335771D01*
X152416667Y-119335771D02*
X152464286Y-119145295D01*
X152464286Y-119145295D02*
X152511905Y-119050057D01*
X152511905Y-119050057D02*
X152559524Y-119002438D01*
X152559524Y-119002438D02*
X152654762Y-118954819D01*
X153369048Y-119907200D02*
X153511905Y-119954819D01*
X153511905Y-119954819D02*
X153750000Y-119954819D01*
X153750000Y-119954819D02*
X153845238Y-119907200D01*
X153845238Y-119907200D02*
X153892857Y-119859580D01*
X153892857Y-119859580D02*
X153940476Y-119764342D01*
X153940476Y-119764342D02*
X153940476Y-119669104D01*
X153940476Y-119669104D02*
X153892857Y-119573866D01*
X153892857Y-119573866D02*
X153845238Y-119526247D01*
X153845238Y-119526247D02*
X153750000Y-119478628D01*
X153750000Y-119478628D02*
X153559524Y-119431009D01*
X153559524Y-119431009D02*
X153464286Y-119383390D01*
X153464286Y-119383390D02*
X153416667Y-119335771D01*
X153416667Y-119335771D02*
X153369048Y-119240533D01*
X153369048Y-119240533D02*
X153369048Y-119145295D01*
X153369048Y-119145295D02*
X153416667Y-119050057D01*
X153416667Y-119050057D02*
X153464286Y-119002438D01*
X153464286Y-119002438D02*
X153559524Y-118954819D01*
X153559524Y-118954819D02*
X153797619Y-118954819D01*
X153797619Y-118954819D02*
X153940476Y-119002438D01*
X154892857Y-119954819D02*
X154321429Y-119954819D01*
X154607143Y-119954819D02*
X154607143Y-118954819D01*
X154607143Y-118954819D02*
X154511905Y-119097676D01*
X154511905Y-119097676D02*
X154416667Y-119192914D01*
X154416667Y-119192914D02*
X154321429Y-119240533D01*
X155654762Y-119431009D02*
X155797619Y-119478628D01*
X155797619Y-119478628D02*
X155845238Y-119526247D01*
X155845238Y-119526247D02*
X155892857Y-119621485D01*
X155892857Y-119621485D02*
X155892857Y-119764342D01*
X155892857Y-119764342D02*
X155845238Y-119859580D01*
X155845238Y-119859580D02*
X155797619Y-119907200D01*
X155797619Y-119907200D02*
X155702381Y-119954819D01*
X155702381Y-119954819D02*
X155321429Y-119954819D01*
X155321429Y-119954819D02*
X155321429Y-118954819D01*
X155321429Y-118954819D02*
X155654762Y-118954819D01*
X155654762Y-118954819D02*
X155750000Y-119002438D01*
X155750000Y-119002438D02*
X155797619Y-119050057D01*
X155797619Y-119050057D02*
X155845238Y-119145295D01*
X155845238Y-119145295D02*
X155845238Y-119240533D01*
X155845238Y-119240533D02*
X155797619Y-119335771D01*
X155797619Y-119335771D02*
X155750000Y-119383390D01*
X155750000Y-119383390D02*
X155654762Y-119431009D01*
X155654762Y-119431009D02*
X155321429Y-119431009D01*
X156273810Y-119669104D02*
X156750000Y-119669104D01*
X156178572Y-119954819D02*
X156511905Y-118954819D01*
X156511905Y-118954819D02*
X156845238Y-119954819D01*
X152761905Y-123554819D02*
X152761905Y-122554819D01*
X152761905Y-122554819D02*
X153000000Y-122554819D01*
X153000000Y-122554819D02*
X153142857Y-122602438D01*
X153142857Y-122602438D02*
X153238095Y-122697676D01*
X153238095Y-122697676D02*
X153285714Y-122792914D01*
X153285714Y-122792914D02*
X153333333Y-122983390D01*
X153333333Y-122983390D02*
X153333333Y-123126247D01*
X153333333Y-123126247D02*
X153285714Y-123316723D01*
X153285714Y-123316723D02*
X153238095Y-123411961D01*
X153238095Y-123411961D02*
X153142857Y-123507200D01*
X153142857Y-123507200D02*
X153000000Y-123554819D01*
X153000000Y-123554819D02*
X152761905Y-123554819D01*
X154285714Y-123554819D02*
X153714286Y-123554819D01*
X154000000Y-123554819D02*
X154000000Y-122554819D01*
X154000000Y-122554819D02*
X153904762Y-122697676D01*
X153904762Y-122697676D02*
X153809524Y-122792914D01*
X153809524Y-122792914D02*
X153714286Y-122840533D01*
D11*
X118215000Y-88468200D02*
X118128333Y-88344391D01*
X118066428Y-88468200D02*
X118066428Y-88208200D01*
X118066428Y-88208200D02*
X118165476Y-88208200D01*
X118165476Y-88208200D02*
X118190238Y-88220581D01*
X118190238Y-88220581D02*
X118202619Y-88232962D01*
X118202619Y-88232962D02*
X118215000Y-88257724D01*
X118215000Y-88257724D02*
X118215000Y-88294867D01*
X118215000Y-88294867D02*
X118202619Y-88319629D01*
X118202619Y-88319629D02*
X118190238Y-88332010D01*
X118190238Y-88332010D02*
X118165476Y-88344391D01*
X118165476Y-88344391D02*
X118066428Y-88344391D01*
X118413095Y-88332010D02*
X118326428Y-88332010D01*
X118326428Y-88468200D02*
X118326428Y-88208200D01*
X118326428Y-88208200D02*
X118450238Y-88208200D01*
X118673095Y-88468200D02*
X118549285Y-88468200D01*
X118549285Y-88468200D02*
X118549285Y-88208200D01*
X118895952Y-88468200D02*
X118747380Y-88468200D01*
X118821666Y-88468200D02*
X118821666Y-88208200D01*
X118821666Y-88208200D02*
X118796904Y-88245343D01*
X118796904Y-88245343D02*
X118772142Y-88270105D01*
X118772142Y-88270105D02*
X118747380Y-88282486D01*
D10*
X128232142Y-80804819D02*
X127898809Y-80328628D01*
X127660714Y-80804819D02*
X127660714Y-79804819D01*
X127660714Y-79804819D02*
X128041666Y-79804819D01*
X128041666Y-79804819D02*
X128136904Y-79852438D01*
X128136904Y-79852438D02*
X128184523Y-79900057D01*
X128184523Y-79900057D02*
X128232142Y-79995295D01*
X128232142Y-79995295D02*
X128232142Y-80138152D01*
X128232142Y-80138152D02*
X128184523Y-80233390D01*
X128184523Y-80233390D02*
X128136904Y-80281009D01*
X128136904Y-80281009D02*
X128041666Y-80328628D01*
X128041666Y-80328628D02*
X127660714Y-80328628D01*
X128613095Y-80757200D02*
X128755952Y-80804819D01*
X128755952Y-80804819D02*
X128994047Y-80804819D01*
X128994047Y-80804819D02*
X129089285Y-80757200D01*
X129089285Y-80757200D02*
X129136904Y-80709580D01*
X129136904Y-80709580D02*
X129184523Y-80614342D01*
X129184523Y-80614342D02*
X129184523Y-80519104D01*
X129184523Y-80519104D02*
X129136904Y-80423866D01*
X129136904Y-80423866D02*
X129089285Y-80376247D01*
X129089285Y-80376247D02*
X128994047Y-80328628D01*
X128994047Y-80328628D02*
X128803571Y-80281009D01*
X128803571Y-80281009D02*
X128708333Y-80233390D01*
X128708333Y-80233390D02*
X128660714Y-80185771D01*
X128660714Y-80185771D02*
X128613095Y-80090533D01*
X128613095Y-80090533D02*
X128613095Y-79995295D01*
X128613095Y-79995295D02*
X128660714Y-79900057D01*
X128660714Y-79900057D02*
X128708333Y-79852438D01*
X128708333Y-79852438D02*
X128803571Y-79804819D01*
X128803571Y-79804819D02*
X129041666Y-79804819D01*
X129041666Y-79804819D02*
X129184523Y-79852438D01*
X129517857Y-79804819D02*
X130136904Y-79804819D01*
X130136904Y-79804819D02*
X129803571Y-80185771D01*
X129803571Y-80185771D02*
X129946428Y-80185771D01*
X129946428Y-80185771D02*
X130041666Y-80233390D01*
X130041666Y-80233390D02*
X130089285Y-80281009D01*
X130089285Y-80281009D02*
X130136904Y-80376247D01*
X130136904Y-80376247D02*
X130136904Y-80614342D01*
X130136904Y-80614342D02*
X130089285Y-80709580D01*
X130089285Y-80709580D02*
X130041666Y-80757200D01*
X130041666Y-80757200D02*
X129946428Y-80804819D01*
X129946428Y-80804819D02*
X129660714Y-80804819D01*
X129660714Y-80804819D02*
X129565476Y-80757200D01*
X129565476Y-80757200D02*
X129517857Y-80709580D01*
D11*
X157339765Y-100180714D02*
X157351670Y-100192618D01*
X157351670Y-100192618D02*
X157363574Y-100228333D01*
X157363574Y-100228333D02*
X157363574Y-100252142D01*
X157363574Y-100252142D02*
X157351670Y-100287856D01*
X157351670Y-100287856D02*
X157327860Y-100311666D01*
X157327860Y-100311666D02*
X157304050Y-100323571D01*
X157304050Y-100323571D02*
X157256431Y-100335475D01*
X157256431Y-100335475D02*
X157220717Y-100335475D01*
X157220717Y-100335475D02*
X157173098Y-100323571D01*
X157173098Y-100323571D02*
X157149289Y-100311666D01*
X157149289Y-100311666D02*
X157125479Y-100287856D01*
X157125479Y-100287856D02*
X157113574Y-100252142D01*
X157113574Y-100252142D02*
X157113574Y-100228333D01*
X157113574Y-100228333D02*
X157125479Y-100192618D01*
X157125479Y-100192618D02*
X157137384Y-100180714D01*
X157137384Y-100085475D02*
X157125479Y-100073571D01*
X157125479Y-100073571D02*
X157113574Y-100049761D01*
X157113574Y-100049761D02*
X157113574Y-99990237D01*
X157113574Y-99990237D02*
X157125479Y-99966428D01*
X157125479Y-99966428D02*
X157137384Y-99954523D01*
X157137384Y-99954523D02*
X157161193Y-99942618D01*
X157161193Y-99942618D02*
X157185003Y-99942618D01*
X157185003Y-99942618D02*
X157220717Y-99954523D01*
X157220717Y-99954523D02*
X157363574Y-100097380D01*
X157363574Y-100097380D02*
X157363574Y-99942618D01*
X157363574Y-99704523D02*
X157363574Y-99847380D01*
X157363574Y-99775952D02*
X157113574Y-99775952D01*
X157113574Y-99775952D02*
X157149289Y-99799761D01*
X157149289Y-99799761D02*
X157173098Y-99823571D01*
X157173098Y-99823571D02*
X157185003Y-99847380D01*
D10*
X158988095Y-112204819D02*
X158988095Y-113014342D01*
X158988095Y-113014342D02*
X159035714Y-113109580D01*
X159035714Y-113109580D02*
X159083333Y-113157200D01*
X159083333Y-113157200D02*
X159178571Y-113204819D01*
X159178571Y-113204819D02*
X159369047Y-113204819D01*
X159369047Y-113204819D02*
X159464285Y-113157200D01*
X159464285Y-113157200D02*
X159511904Y-113109580D01*
X159511904Y-113109580D02*
X159559523Y-113014342D01*
X159559523Y-113014342D02*
X159559523Y-112204819D01*
X159988095Y-112300057D02*
X160035714Y-112252438D01*
X160035714Y-112252438D02*
X160130952Y-112204819D01*
X160130952Y-112204819D02*
X160369047Y-112204819D01*
X160369047Y-112204819D02*
X160464285Y-112252438D01*
X160464285Y-112252438D02*
X160511904Y-112300057D01*
X160511904Y-112300057D02*
X160559523Y-112395295D01*
X160559523Y-112395295D02*
X160559523Y-112490533D01*
X160559523Y-112490533D02*
X160511904Y-112633390D01*
X160511904Y-112633390D02*
X159940476Y-113204819D01*
X159940476Y-113204819D02*
X160559523Y-113204819D01*
X166113095Y-62804819D02*
X166113095Y-61804819D01*
X166113095Y-62281009D02*
X166684523Y-62281009D01*
X166684523Y-62804819D02*
X166684523Y-61804819D01*
X167113095Y-61900057D02*
X167160714Y-61852438D01*
X167160714Y-61852438D02*
X167255952Y-61804819D01*
X167255952Y-61804819D02*
X167494047Y-61804819D01*
X167494047Y-61804819D02*
X167589285Y-61852438D01*
X167589285Y-61852438D02*
X167636904Y-61900057D01*
X167636904Y-61900057D02*
X167684523Y-61995295D01*
X167684523Y-61995295D02*
X167684523Y-62090533D01*
X167684523Y-62090533D02*
X167636904Y-62233390D01*
X167636904Y-62233390D02*
X167065476Y-62804819D01*
X167065476Y-62804819D02*
X167684523Y-62804819D01*
X122232142Y-80804819D02*
X121898809Y-80328628D01*
X121660714Y-80804819D02*
X121660714Y-79804819D01*
X121660714Y-79804819D02*
X122041666Y-79804819D01*
X122041666Y-79804819D02*
X122136904Y-79852438D01*
X122136904Y-79852438D02*
X122184523Y-79900057D01*
X122184523Y-79900057D02*
X122232142Y-79995295D01*
X122232142Y-79995295D02*
X122232142Y-80138152D01*
X122232142Y-80138152D02*
X122184523Y-80233390D01*
X122184523Y-80233390D02*
X122136904Y-80281009D01*
X122136904Y-80281009D02*
X122041666Y-80328628D01*
X122041666Y-80328628D02*
X121660714Y-80328628D01*
X122613095Y-80757200D02*
X122755952Y-80804819D01*
X122755952Y-80804819D02*
X122994047Y-80804819D01*
X122994047Y-80804819D02*
X123089285Y-80757200D01*
X123089285Y-80757200D02*
X123136904Y-80709580D01*
X123136904Y-80709580D02*
X123184523Y-80614342D01*
X123184523Y-80614342D02*
X123184523Y-80519104D01*
X123184523Y-80519104D02*
X123136904Y-80423866D01*
X123136904Y-80423866D02*
X123089285Y-80376247D01*
X123089285Y-80376247D02*
X122994047Y-80328628D01*
X122994047Y-80328628D02*
X122803571Y-80281009D01*
X122803571Y-80281009D02*
X122708333Y-80233390D01*
X122708333Y-80233390D02*
X122660714Y-80185771D01*
X122660714Y-80185771D02*
X122613095Y-80090533D01*
X122613095Y-80090533D02*
X122613095Y-79995295D01*
X122613095Y-79995295D02*
X122660714Y-79900057D01*
X122660714Y-79900057D02*
X122708333Y-79852438D01*
X122708333Y-79852438D02*
X122803571Y-79804819D01*
X122803571Y-79804819D02*
X123041666Y-79804819D01*
X123041666Y-79804819D02*
X123184523Y-79852438D01*
X123565476Y-79900057D02*
X123613095Y-79852438D01*
X123613095Y-79852438D02*
X123708333Y-79804819D01*
X123708333Y-79804819D02*
X123946428Y-79804819D01*
X123946428Y-79804819D02*
X124041666Y-79852438D01*
X124041666Y-79852438D02*
X124089285Y-79900057D01*
X124089285Y-79900057D02*
X124136904Y-79995295D01*
X124136904Y-79995295D02*
X124136904Y-80090533D01*
X124136904Y-80090533D02*
X124089285Y-80233390D01*
X124089285Y-80233390D02*
X123517857Y-80804819D01*
X123517857Y-80804819D02*
X124136904Y-80804819D01*
X140232142Y-80804819D02*
X139898809Y-80328628D01*
X139660714Y-80804819D02*
X139660714Y-79804819D01*
X139660714Y-79804819D02*
X140041666Y-79804819D01*
X140041666Y-79804819D02*
X140136904Y-79852438D01*
X140136904Y-79852438D02*
X140184523Y-79900057D01*
X140184523Y-79900057D02*
X140232142Y-79995295D01*
X140232142Y-79995295D02*
X140232142Y-80138152D01*
X140232142Y-80138152D02*
X140184523Y-80233390D01*
X140184523Y-80233390D02*
X140136904Y-80281009D01*
X140136904Y-80281009D02*
X140041666Y-80328628D01*
X140041666Y-80328628D02*
X139660714Y-80328628D01*
X140613095Y-80757200D02*
X140755952Y-80804819D01*
X140755952Y-80804819D02*
X140994047Y-80804819D01*
X140994047Y-80804819D02*
X141089285Y-80757200D01*
X141089285Y-80757200D02*
X141136904Y-80709580D01*
X141136904Y-80709580D02*
X141184523Y-80614342D01*
X141184523Y-80614342D02*
X141184523Y-80519104D01*
X141184523Y-80519104D02*
X141136904Y-80423866D01*
X141136904Y-80423866D02*
X141089285Y-80376247D01*
X141089285Y-80376247D02*
X140994047Y-80328628D01*
X140994047Y-80328628D02*
X140803571Y-80281009D01*
X140803571Y-80281009D02*
X140708333Y-80233390D01*
X140708333Y-80233390D02*
X140660714Y-80185771D01*
X140660714Y-80185771D02*
X140613095Y-80090533D01*
X140613095Y-80090533D02*
X140613095Y-79995295D01*
X140613095Y-79995295D02*
X140660714Y-79900057D01*
X140660714Y-79900057D02*
X140708333Y-79852438D01*
X140708333Y-79852438D02*
X140803571Y-79804819D01*
X140803571Y-79804819D02*
X141041666Y-79804819D01*
X141041666Y-79804819D02*
X141184523Y-79852438D01*
X142089285Y-79804819D02*
X141613095Y-79804819D01*
X141613095Y-79804819D02*
X141565476Y-80281009D01*
X141565476Y-80281009D02*
X141613095Y-80233390D01*
X141613095Y-80233390D02*
X141708333Y-80185771D01*
X141708333Y-80185771D02*
X141946428Y-80185771D01*
X141946428Y-80185771D02*
X142041666Y-80233390D01*
X142041666Y-80233390D02*
X142089285Y-80281009D01*
X142089285Y-80281009D02*
X142136904Y-80376247D01*
X142136904Y-80376247D02*
X142136904Y-80614342D01*
X142136904Y-80614342D02*
X142089285Y-80709580D01*
X142089285Y-80709580D02*
X142041666Y-80757200D01*
X142041666Y-80757200D02*
X141946428Y-80804819D01*
X141946428Y-80804819D02*
X141708333Y-80804819D01*
X141708333Y-80804819D02*
X141613095Y-80757200D01*
X141613095Y-80757200D02*
X141565476Y-80709580D01*
X119178571Y-127181009D02*
X118845238Y-127181009D01*
X118845238Y-127704819D02*
X118845238Y-126704819D01*
X118845238Y-126704819D02*
X119321428Y-126704819D01*
X119702381Y-127704819D02*
X119702381Y-126704819D01*
X120178571Y-127704819D02*
X120178571Y-126704819D01*
X120178571Y-126704819D02*
X120416666Y-126704819D01*
X120416666Y-126704819D02*
X120559523Y-126752438D01*
X120559523Y-126752438D02*
X120654761Y-126847676D01*
X120654761Y-126847676D02*
X120702380Y-126942914D01*
X120702380Y-126942914D02*
X120749999Y-127133390D01*
X120749999Y-127133390D02*
X120749999Y-127276247D01*
X120749999Y-127276247D02*
X120702380Y-127466723D01*
X120702380Y-127466723D02*
X120654761Y-127561961D01*
X120654761Y-127561961D02*
X120559523Y-127657200D01*
X120559523Y-127657200D02*
X120416666Y-127704819D01*
X120416666Y-127704819D02*
X120178571Y-127704819D01*
X121083333Y-126704819D02*
X121702380Y-126704819D01*
X121702380Y-126704819D02*
X121369047Y-127085771D01*
X121369047Y-127085771D02*
X121511904Y-127085771D01*
X121511904Y-127085771D02*
X121607142Y-127133390D01*
X121607142Y-127133390D02*
X121654761Y-127181009D01*
X121654761Y-127181009D02*
X121702380Y-127276247D01*
X121702380Y-127276247D02*
X121702380Y-127514342D01*
X121702380Y-127514342D02*
X121654761Y-127609580D01*
X121654761Y-127609580D02*
X121607142Y-127657200D01*
X121607142Y-127657200D02*
X121511904Y-127704819D01*
X121511904Y-127704819D02*
X121226190Y-127704819D01*
X121226190Y-127704819D02*
X121130952Y-127657200D01*
X121130952Y-127657200D02*
X121083333Y-127609580D01*
D14*
X118214286Y-129215244D02*
X118047619Y-129215244D01*
X118047619Y-129477149D02*
X118047619Y-128977149D01*
X118047619Y-128977149D02*
X118285714Y-128977149D01*
X118476190Y-129477149D02*
X118476190Y-128977149D01*
X118714285Y-129477149D02*
X118714285Y-128977149D01*
X118714285Y-128977149D02*
X118833333Y-128977149D01*
X118833333Y-128977149D02*
X118904761Y-129000959D01*
X118904761Y-129000959D02*
X118952380Y-129048578D01*
X118952380Y-129048578D02*
X118976190Y-129096197D01*
X118976190Y-129096197D02*
X118999999Y-129191435D01*
X118999999Y-129191435D02*
X118999999Y-129262863D01*
X118999999Y-129262863D02*
X118976190Y-129358101D01*
X118976190Y-129358101D02*
X118952380Y-129405720D01*
X118952380Y-129405720D02*
X118904761Y-129453340D01*
X118904761Y-129453340D02*
X118833333Y-129477149D01*
X118833333Y-129477149D02*
X118714285Y-129477149D01*
X119166666Y-128977149D02*
X119476190Y-128977149D01*
X119476190Y-128977149D02*
X119309523Y-129167625D01*
X119309523Y-129167625D02*
X119380952Y-129167625D01*
X119380952Y-129167625D02*
X119428571Y-129191435D01*
X119428571Y-129191435D02*
X119452380Y-129215244D01*
X119452380Y-129215244D02*
X119476190Y-129262863D01*
X119476190Y-129262863D02*
X119476190Y-129381911D01*
X119476190Y-129381911D02*
X119452380Y-129429530D01*
X119452380Y-129429530D02*
X119428571Y-129453340D01*
X119428571Y-129453340D02*
X119380952Y-129477149D01*
X119380952Y-129477149D02*
X119238095Y-129477149D01*
X119238095Y-129477149D02*
X119190476Y-129453340D01*
X119190476Y-129453340D02*
X119166666Y-129429530D01*
D11*
X130215000Y-88468200D02*
X130128333Y-88344391D01*
X130066428Y-88468200D02*
X130066428Y-88208200D01*
X130066428Y-88208200D02*
X130165476Y-88208200D01*
X130165476Y-88208200D02*
X130190238Y-88220581D01*
X130190238Y-88220581D02*
X130202619Y-88232962D01*
X130202619Y-88232962D02*
X130215000Y-88257724D01*
X130215000Y-88257724D02*
X130215000Y-88294867D01*
X130215000Y-88294867D02*
X130202619Y-88319629D01*
X130202619Y-88319629D02*
X130190238Y-88332010D01*
X130190238Y-88332010D02*
X130165476Y-88344391D01*
X130165476Y-88344391D02*
X130066428Y-88344391D01*
X130413095Y-88332010D02*
X130326428Y-88332010D01*
X130326428Y-88468200D02*
X130326428Y-88208200D01*
X130326428Y-88208200D02*
X130450238Y-88208200D01*
X130673095Y-88468200D02*
X130549285Y-88468200D01*
X130549285Y-88468200D02*
X130549285Y-88208200D01*
X130734999Y-88208200D02*
X130895952Y-88208200D01*
X130895952Y-88208200D02*
X130809285Y-88307248D01*
X130809285Y-88307248D02*
X130846428Y-88307248D01*
X130846428Y-88307248D02*
X130871190Y-88319629D01*
X130871190Y-88319629D02*
X130883571Y-88332010D01*
X130883571Y-88332010D02*
X130895952Y-88356772D01*
X130895952Y-88356772D02*
X130895952Y-88418677D01*
X130895952Y-88418677D02*
X130883571Y-88443439D01*
X130883571Y-88443439D02*
X130871190Y-88455820D01*
X130871190Y-88455820D02*
X130846428Y-88468200D01*
X130846428Y-88468200D02*
X130772142Y-88468200D01*
X130772142Y-88468200D02*
X130747380Y-88455820D01*
X130747380Y-88455820D02*
X130734999Y-88443439D01*
X152118200Y-100293332D02*
X151994391Y-100379999D01*
X152118200Y-100441904D02*
X151858200Y-100441904D01*
X151858200Y-100441904D02*
X151858200Y-100342856D01*
X151858200Y-100342856D02*
X151870581Y-100318094D01*
X151870581Y-100318094D02*
X151882962Y-100305713D01*
X151882962Y-100305713D02*
X151907724Y-100293332D01*
X151907724Y-100293332D02*
X151944867Y-100293332D01*
X151944867Y-100293332D02*
X151969629Y-100305713D01*
X151969629Y-100305713D02*
X151982010Y-100318094D01*
X151982010Y-100318094D02*
X151994391Y-100342856D01*
X151994391Y-100342856D02*
X151994391Y-100441904D01*
X151858200Y-100206666D02*
X151858200Y-100033332D01*
X151858200Y-100033332D02*
X152118200Y-100144761D01*
D13*
X139261905Y-92093832D02*
X139242857Y-92112880D01*
X139242857Y-92112880D02*
X139185715Y-92131927D01*
X139185715Y-92131927D02*
X139147619Y-92131927D01*
X139147619Y-92131927D02*
X139090476Y-92112880D01*
X139090476Y-92112880D02*
X139052381Y-92074784D01*
X139052381Y-92074784D02*
X139033334Y-92036689D01*
X139033334Y-92036689D02*
X139014286Y-91960499D01*
X139014286Y-91960499D02*
X139014286Y-91903356D01*
X139014286Y-91903356D02*
X139033334Y-91827165D01*
X139033334Y-91827165D02*
X139052381Y-91789070D01*
X139052381Y-91789070D02*
X139090476Y-91750975D01*
X139090476Y-91750975D02*
X139147619Y-91731927D01*
X139147619Y-91731927D02*
X139185715Y-91731927D01*
X139185715Y-91731927D02*
X139242857Y-91750975D01*
X139242857Y-91750975D02*
X139261905Y-91770022D01*
X139566667Y-91922403D02*
X139433334Y-91922403D01*
X139433334Y-92131927D02*
X139433334Y-91731927D01*
X139433334Y-91731927D02*
X139623810Y-91731927D01*
X139966667Y-91731927D02*
X139776191Y-91731927D01*
X139776191Y-91731927D02*
X139757143Y-91922403D01*
X139757143Y-91922403D02*
X139776191Y-91903356D01*
X139776191Y-91903356D02*
X139814286Y-91884308D01*
X139814286Y-91884308D02*
X139909524Y-91884308D01*
X139909524Y-91884308D02*
X139947619Y-91903356D01*
X139947619Y-91903356D02*
X139966667Y-91922403D01*
X139966667Y-91922403D02*
X139985714Y-91960499D01*
X139985714Y-91960499D02*
X139985714Y-92055737D01*
X139985714Y-92055737D02*
X139966667Y-92093832D01*
X139966667Y-92093832D02*
X139947619Y-92112880D01*
X139947619Y-92112880D02*
X139909524Y-92131927D01*
X139909524Y-92131927D02*
X139814286Y-92131927D01*
X139814286Y-92131927D02*
X139776191Y-92112880D01*
X139776191Y-92112880D02*
X139757143Y-92093832D01*
D10*
X142506265Y-128954819D02*
X142506265Y-129669104D01*
X142506265Y-129669104D02*
X142458646Y-129811961D01*
X142458646Y-129811961D02*
X142363408Y-129907200D01*
X142363408Y-129907200D02*
X142220551Y-129954819D01*
X142220551Y-129954819D02*
X142125313Y-129954819D01*
X143411027Y-129288152D02*
X143411027Y-129954819D01*
X143172932Y-128907200D02*
X142934837Y-129621485D01*
X142934837Y-129621485D02*
X143553884Y-129621485D01*
D11*
X150706667Y-101868200D02*
X150620000Y-101744391D01*
X150558095Y-101868200D02*
X150558095Y-101608200D01*
X150558095Y-101608200D02*
X150657143Y-101608200D01*
X150657143Y-101608200D02*
X150681905Y-101620581D01*
X150681905Y-101620581D02*
X150694286Y-101632962D01*
X150694286Y-101632962D02*
X150706667Y-101657724D01*
X150706667Y-101657724D02*
X150706667Y-101694867D01*
X150706667Y-101694867D02*
X150694286Y-101719629D01*
X150694286Y-101719629D02*
X150681905Y-101732010D01*
X150681905Y-101732010D02*
X150657143Y-101744391D01*
X150657143Y-101744391D02*
X150558095Y-101744391D01*
X150954286Y-101868200D02*
X150805714Y-101868200D01*
X150880000Y-101868200D02*
X150880000Y-101608200D01*
X150880000Y-101608200D02*
X150855238Y-101645343D01*
X150855238Y-101645343D02*
X150830476Y-101670105D01*
X150830476Y-101670105D02*
X150805714Y-101682486D01*
D10*
X122329819Y-98588094D02*
X123139342Y-98588094D01*
X123139342Y-98588094D02*
X123234580Y-98540475D01*
X123234580Y-98540475D02*
X123282200Y-98492856D01*
X123282200Y-98492856D02*
X123329819Y-98397618D01*
X123329819Y-98397618D02*
X123329819Y-98207142D01*
X123329819Y-98207142D02*
X123282200Y-98111904D01*
X123282200Y-98111904D02*
X123234580Y-98064285D01*
X123234580Y-98064285D02*
X123139342Y-98016666D01*
X123139342Y-98016666D02*
X122329819Y-98016666D01*
X123329819Y-97016666D02*
X123329819Y-97588094D01*
X123329819Y-97302380D02*
X122329819Y-97302380D01*
X122329819Y-97302380D02*
X122472676Y-97397618D01*
X122472676Y-97397618D02*
X122567914Y-97492856D01*
X122567914Y-97492856D02*
X122615533Y-97588094D01*
X123329819Y-96064285D02*
X123329819Y-96635713D01*
X123329819Y-96349999D02*
X122329819Y-96349999D01*
X122329819Y-96349999D02*
X122472676Y-96445237D01*
X122472676Y-96445237D02*
X122567914Y-96540475D01*
X122567914Y-96540475D02*
X122615533Y-96635713D01*
D11*
X147589765Y-92660714D02*
X147601670Y-92672618D01*
X147601670Y-92672618D02*
X147613574Y-92708333D01*
X147613574Y-92708333D02*
X147613574Y-92732142D01*
X147613574Y-92732142D02*
X147601670Y-92767856D01*
X147601670Y-92767856D02*
X147577860Y-92791666D01*
X147577860Y-92791666D02*
X147554050Y-92803571D01*
X147554050Y-92803571D02*
X147506431Y-92815475D01*
X147506431Y-92815475D02*
X147470717Y-92815475D01*
X147470717Y-92815475D02*
X147423098Y-92803571D01*
X147423098Y-92803571D02*
X147399289Y-92791666D01*
X147399289Y-92791666D02*
X147375479Y-92767856D01*
X147375479Y-92767856D02*
X147363574Y-92732142D01*
X147363574Y-92732142D02*
X147363574Y-92708333D01*
X147363574Y-92708333D02*
X147375479Y-92672618D01*
X147375479Y-92672618D02*
X147387384Y-92660714D01*
X147613574Y-92422618D02*
X147613574Y-92565475D01*
X147613574Y-92494047D02*
X147363574Y-92494047D01*
X147363574Y-92494047D02*
X147399289Y-92517856D01*
X147399289Y-92517856D02*
X147423098Y-92541666D01*
X147423098Y-92541666D02*
X147435003Y-92565475D01*
X147363574Y-92196428D02*
X147363574Y-92315476D01*
X147363574Y-92315476D02*
X147482622Y-92327380D01*
X147482622Y-92327380D02*
X147470717Y-92315476D01*
X147470717Y-92315476D02*
X147458812Y-92291666D01*
X147458812Y-92291666D02*
X147458812Y-92232142D01*
X147458812Y-92232142D02*
X147470717Y-92208333D01*
X147470717Y-92208333D02*
X147482622Y-92196428D01*
X147482622Y-92196428D02*
X147506431Y-92184523D01*
X147506431Y-92184523D02*
X147565955Y-92184523D01*
X147565955Y-92184523D02*
X147589765Y-92196428D01*
X147589765Y-92196428D02*
X147601670Y-92208333D01*
X147601670Y-92208333D02*
X147613574Y-92232142D01*
X147613574Y-92232142D02*
X147613574Y-92291666D01*
X147613574Y-92291666D02*
X147601670Y-92315476D01*
X147601670Y-92315476D02*
X147589765Y-92327380D01*
X151618200Y-92293332D02*
X151494391Y-92379999D01*
X151618200Y-92441904D02*
X151358200Y-92441904D01*
X151358200Y-92441904D02*
X151358200Y-92342856D01*
X151358200Y-92342856D02*
X151370581Y-92318094D01*
X151370581Y-92318094D02*
X151382962Y-92305713D01*
X151382962Y-92305713D02*
X151407724Y-92293332D01*
X151407724Y-92293332D02*
X151444867Y-92293332D01*
X151444867Y-92293332D02*
X151469629Y-92305713D01*
X151469629Y-92305713D02*
X151482010Y-92318094D01*
X151482010Y-92318094D02*
X151494391Y-92342856D01*
X151494391Y-92342856D02*
X151494391Y-92441904D01*
X151358200Y-92070475D02*
X151358200Y-92119999D01*
X151358200Y-92119999D02*
X151370581Y-92144761D01*
X151370581Y-92144761D02*
X151382962Y-92157142D01*
X151382962Y-92157142D02*
X151420105Y-92181904D01*
X151420105Y-92181904D02*
X151469629Y-92194285D01*
X151469629Y-92194285D02*
X151568677Y-92194285D01*
X151568677Y-92194285D02*
X151593439Y-92181904D01*
X151593439Y-92181904D02*
X151605820Y-92169523D01*
X151605820Y-92169523D02*
X151618200Y-92144761D01*
X151618200Y-92144761D02*
X151618200Y-92095237D01*
X151618200Y-92095237D02*
X151605820Y-92070475D01*
X151605820Y-92070475D02*
X151593439Y-92058094D01*
X151593439Y-92058094D02*
X151568677Y-92045713D01*
X151568677Y-92045713D02*
X151506772Y-92045713D01*
X151506772Y-92045713D02*
X151482010Y-92058094D01*
X151482010Y-92058094D02*
X151469629Y-92070475D01*
X151469629Y-92070475D02*
X151457248Y-92095237D01*
X151457248Y-92095237D02*
X151457248Y-92144761D01*
X151457248Y-92144761D02*
X151469629Y-92169523D01*
X151469629Y-92169523D02*
X151482010Y-92181904D01*
X151482010Y-92181904D02*
X151506772Y-92194285D01*
X117589765Y-92660714D02*
X117601670Y-92672618D01*
X117601670Y-92672618D02*
X117613574Y-92708333D01*
X117613574Y-92708333D02*
X117613574Y-92732142D01*
X117613574Y-92732142D02*
X117601670Y-92767856D01*
X117601670Y-92767856D02*
X117577860Y-92791666D01*
X117577860Y-92791666D02*
X117554050Y-92803571D01*
X117554050Y-92803571D02*
X117506431Y-92815475D01*
X117506431Y-92815475D02*
X117470717Y-92815475D01*
X117470717Y-92815475D02*
X117423098Y-92803571D01*
X117423098Y-92803571D02*
X117399289Y-92791666D01*
X117399289Y-92791666D02*
X117375479Y-92767856D01*
X117375479Y-92767856D02*
X117363574Y-92732142D01*
X117363574Y-92732142D02*
X117363574Y-92708333D01*
X117363574Y-92708333D02*
X117375479Y-92672618D01*
X117375479Y-92672618D02*
X117387384Y-92660714D01*
X117613574Y-92422618D02*
X117613574Y-92565475D01*
X117613574Y-92494047D02*
X117363574Y-92494047D01*
X117363574Y-92494047D02*
X117399289Y-92517856D01*
X117399289Y-92517856D02*
X117423098Y-92541666D01*
X117423098Y-92541666D02*
X117435003Y-92565475D01*
X117363574Y-92267857D02*
X117363574Y-92244047D01*
X117363574Y-92244047D02*
X117375479Y-92220238D01*
X117375479Y-92220238D02*
X117387384Y-92208333D01*
X117387384Y-92208333D02*
X117411193Y-92196428D01*
X117411193Y-92196428D02*
X117458812Y-92184523D01*
X117458812Y-92184523D02*
X117518336Y-92184523D01*
X117518336Y-92184523D02*
X117565955Y-92196428D01*
X117565955Y-92196428D02*
X117589765Y-92208333D01*
X117589765Y-92208333D02*
X117601670Y-92220238D01*
X117601670Y-92220238D02*
X117613574Y-92244047D01*
X117613574Y-92244047D02*
X117613574Y-92267857D01*
X117613574Y-92267857D02*
X117601670Y-92291666D01*
X117601670Y-92291666D02*
X117589765Y-92303571D01*
X117589765Y-92303571D02*
X117565955Y-92315476D01*
X117565955Y-92315476D02*
X117518336Y-92327380D01*
X117518336Y-92327380D02*
X117458812Y-92327380D01*
X117458812Y-92327380D02*
X117411193Y-92315476D01*
X117411193Y-92315476D02*
X117387384Y-92303571D01*
X117387384Y-92303571D02*
X117375479Y-92291666D01*
X117375479Y-92291666D02*
X117363574Y-92267857D01*
D13*
X127261905Y-92143832D02*
X127242857Y-92162880D01*
X127242857Y-92162880D02*
X127185715Y-92181927D01*
X127185715Y-92181927D02*
X127147619Y-92181927D01*
X127147619Y-92181927D02*
X127090476Y-92162880D01*
X127090476Y-92162880D02*
X127052381Y-92124784D01*
X127052381Y-92124784D02*
X127033334Y-92086689D01*
X127033334Y-92086689D02*
X127014286Y-92010499D01*
X127014286Y-92010499D02*
X127014286Y-91953356D01*
X127014286Y-91953356D02*
X127033334Y-91877165D01*
X127033334Y-91877165D02*
X127052381Y-91839070D01*
X127052381Y-91839070D02*
X127090476Y-91800975D01*
X127090476Y-91800975D02*
X127147619Y-91781927D01*
X127147619Y-91781927D02*
X127185715Y-91781927D01*
X127185715Y-91781927D02*
X127242857Y-91800975D01*
X127242857Y-91800975D02*
X127261905Y-91820022D01*
X127566667Y-91972403D02*
X127433334Y-91972403D01*
X127433334Y-92181927D02*
X127433334Y-91781927D01*
X127433334Y-91781927D02*
X127623810Y-91781927D01*
X127738095Y-91781927D02*
X127985714Y-91781927D01*
X127985714Y-91781927D02*
X127852381Y-91934308D01*
X127852381Y-91934308D02*
X127909524Y-91934308D01*
X127909524Y-91934308D02*
X127947619Y-91953356D01*
X127947619Y-91953356D02*
X127966667Y-91972403D01*
X127966667Y-91972403D02*
X127985714Y-92010499D01*
X127985714Y-92010499D02*
X127985714Y-92105737D01*
X127985714Y-92105737D02*
X127966667Y-92143832D01*
X127966667Y-92143832D02*
X127947619Y-92162880D01*
X127947619Y-92162880D02*
X127909524Y-92181927D01*
X127909524Y-92181927D02*
X127795238Y-92181927D01*
X127795238Y-92181927D02*
X127757143Y-92162880D01*
X127757143Y-92162880D02*
X127738095Y-92143832D01*
%TO.C,RS4*%
D15*
X133275000Y-77200000D02*
X136475000Y-77200000D01*
X136475000Y-83500000D01*
X133275000Y-83500000D01*
X133275000Y-77200000D01*
%TO.C,RFH5*%
X139005000Y-87825000D02*
X139545000Y-87825000D01*
X139545000Y-88875000D01*
X139005000Y-88875000D01*
X139005000Y-87825000D01*
%TO.C,U3*%
X157237500Y-102500000D02*
X158437500Y-102500000D01*
X158437500Y-105400000D01*
X156837500Y-105400000D01*
X156837500Y-102900000D01*
X157237500Y-102500000D01*
%TO.C,C2*%
X160100000Y-101200000D02*
X160900000Y-101200000D01*
X160900000Y-102800000D01*
X160100000Y-102800000D01*
X160100000Y-101200000D01*
%TO.C,C11*%
X123250000Y-92000000D02*
X123750000Y-92000000D01*
X123750000Y-93000000D01*
X123250000Y-93000000D01*
X123250000Y-92000000D01*
%TO.C,RFH2*%
X121005000Y-87825000D02*
X121545000Y-87825000D01*
X121545000Y-88875000D01*
X121005000Y-88875000D01*
X121005000Y-87825000D01*
%TO.C,CF1*%
X115100000Y-91150000D02*
X115900000Y-91150000D01*
X115900000Y-92750000D01*
X115100000Y-92750000D01*
X115100000Y-91150000D01*
%TO.C,J3*%
D16*
X122737000Y-53754000D02*
X122737000Y-63660000D01*
X122737000Y-63660000D02*
X141583800Y-63660000D01*
X141583800Y-53754000D02*
X122737000Y-53754000D01*
X141583800Y-63660000D02*
X141583800Y-53754000D01*
D17*
X129541401Y-61000000D02*
G75*
G02*
X128779401Y-61000000I-381000J0D01*
G01*
X128779401Y-61000000D02*
G75*
G02*
X129541401Y-61000000I381000J0D01*
G01*
%TO.C,U4*%
D16*
X148061850Y-105496000D02*
X148061850Y-106004000D01*
X148061850Y-106004000D02*
X148684150Y-106004000D01*
X148684150Y-104226000D02*
X148684150Y-107274000D01*
X148684150Y-105496000D02*
X148061850Y-105496000D01*
X148684150Y-106004000D02*
X148684150Y-105496000D01*
X148684150Y-107274000D02*
X150081150Y-107274000D01*
X150081150Y-104226000D02*
X148684150Y-104226000D01*
X150081150Y-104546000D02*
X150081150Y-105054000D01*
X150081150Y-105054000D02*
X150703450Y-105054000D01*
X150081150Y-106446000D02*
X150081150Y-106954000D01*
X150081150Y-106954000D02*
X150703450Y-106954000D01*
X150081150Y-107274000D02*
X150081150Y-104226000D01*
X150703450Y-104546000D02*
X150081150Y-104546000D01*
X150703450Y-105054000D02*
X150703450Y-104546000D01*
X150703450Y-106446000D02*
X150081150Y-106446000D01*
X150703450Y-106954000D02*
X150703450Y-106446000D01*
%TO.C,C7*%
D15*
X151125000Y-87000000D02*
X152375000Y-87000000D01*
X152375000Y-89000000D01*
X151125000Y-89000000D01*
X151125000Y-87000000D01*
%TO.C,FID2*%
X167000000Y-135500000D02*
G75*
G02*
X165000000Y-135500000I-1000000J0D01*
G01*
X165000000Y-135500000D02*
G75*
G02*
X167000000Y-135500000I1000000J0D01*
G01*
%TO.C,U1*%
X153175000Y-78600000D02*
X168575000Y-78600000D01*
X153175000Y-83100000D02*
X168575000Y-83100000D01*
X153175000Y-98600000D02*
X153175000Y-78600000D01*
D18*
X153775000Y-79200000D02*
X156775000Y-79200000D01*
X153775000Y-82350000D02*
X153775000Y-79200000D01*
X155275000Y-82350000D02*
X155275000Y-79200000D01*
X156775000Y-79200000D02*
X156775000Y-81400000D01*
X156775000Y-81400000D02*
X159575000Y-81400000D01*
X159575000Y-79200000D02*
X162375000Y-79200000D01*
X159575000Y-81400000D02*
X159575000Y-79200000D01*
X162375000Y-79200000D02*
X162375000Y-81400000D01*
X162375000Y-81400000D02*
X165175000Y-81400000D01*
X165175000Y-79200000D02*
X167975000Y-79200000D01*
X165175000Y-81400000D02*
X165175000Y-79200000D01*
X167975000Y-79200000D02*
X167975000Y-82350000D01*
D15*
X168575000Y-78600000D02*
X168575000Y-98600000D01*
X168575000Y-98600000D02*
X153175000Y-98600000D01*
D10*
X154986803Y-96900000D02*
G75*
G02*
X154763197Y-96900000I-111803J0D01*
G01*
X154763197Y-96900000D02*
G75*
G02*
X154986803Y-96900000I111803J0D01*
G01*
%TO.C,R12*%
D15*
X150350000Y-77080000D02*
X151400000Y-77080000D01*
X151400000Y-77620000D01*
X150350000Y-77620000D01*
X150350000Y-77080000D01*
%TO.C,RFL6*%
X148205000Y-87825000D02*
X148745000Y-87825000D01*
X148745000Y-88875000D01*
X148205000Y-88875000D01*
X148205000Y-87825000D01*
%TO.C,U15*%
X144425000Y-98325000D02*
X144425000Y-95400000D01*
X149325000Y-95400000D01*
X149325000Y-99300000D01*
X145400000Y-99300000D01*
X144425000Y-98325000D01*
%TO.C,C1*%
X154350000Y-101200000D02*
X155150000Y-101200000D01*
X155150000Y-102800000D01*
X154350000Y-102800000D01*
X154350000Y-101200000D01*
%TO.C,R8*%
X160975000Y-73480000D02*
X162025000Y-73480000D01*
X162025000Y-74020000D01*
X160975000Y-74020000D01*
X160975000Y-73480000D01*
%TO.C,RFH6*%
X145005000Y-87825000D02*
X145545000Y-87825000D01*
X145545000Y-88875000D01*
X145005000Y-88875000D01*
X145005000Y-87825000D01*
%TO.C,RS1*%
X115275000Y-77200000D02*
X118475000Y-77200000D01*
X118475000Y-83500000D01*
X115275000Y-83500000D01*
X115275000Y-77200000D01*
%TO.C,R10*%
X150350000Y-71080000D02*
X151400000Y-71080000D01*
X151400000Y-71620000D01*
X150350000Y-71620000D01*
X150350000Y-71080000D01*
%TO.C,C24*%
X152000000Y-94000000D02*
X152500000Y-94000000D01*
X152500000Y-95000000D01*
X152000000Y-95000000D01*
X152000000Y-94000000D01*
%TO.C,R11*%
X150350000Y-74080000D02*
X151400000Y-74080000D01*
X151400000Y-74620000D01*
X150350000Y-74620000D01*
X150350000Y-74080000D01*
%TO.C,U13*%
X132425000Y-98325000D02*
X132425000Y-95400000D01*
X137325000Y-95400000D01*
X137325000Y-99300000D01*
X133400000Y-99300000D01*
X132425000Y-98325000D01*
%TO.C,C12*%
X129250000Y-92000000D02*
X129750000Y-92000000D01*
X129750000Y-93000000D01*
X129250000Y-93000000D01*
X129250000Y-92000000D01*
%TO.C,U12*%
X126425000Y-98325000D02*
X126425000Y-95400000D01*
X131325000Y-95400000D01*
X131325000Y-99300000D01*
X127400000Y-99300000D01*
X126425000Y-98325000D01*
%TO.C,RFL5*%
X142205000Y-87825000D02*
X142745000Y-87825000D01*
X142745000Y-88875000D01*
X142205000Y-88875000D01*
X142205000Y-87825000D01*
%TO.C,C6*%
X152500000Y-128125000D02*
X154500000Y-128125000D01*
X154500000Y-129375000D01*
X152500000Y-129375000D01*
X152500000Y-128125000D01*
%TO.C,R20*%
X132480000Y-72225000D02*
X133020000Y-72225000D01*
X133020000Y-73275000D01*
X132480000Y-73275000D01*
X132480000Y-72225000D01*
%TO.C,C8*%
X156500000Y-116750000D02*
X157500000Y-116750000D01*
X157500000Y-117250000D01*
X156500000Y-117250000D01*
X156500000Y-116750000D01*
%TO.C,RFH1*%
X115005000Y-87825000D02*
X115545000Y-87825000D01*
X115545000Y-88875000D01*
X115005000Y-88875000D01*
X115005000Y-87825000D01*
%TO.C,C5*%
X169250000Y-84000000D02*
X169750000Y-84000000D01*
X169750000Y-85000000D01*
X169250000Y-85000000D01*
X169250000Y-84000000D01*
%TO.C,RFL4*%
X136205000Y-87825000D02*
X136745000Y-87825000D01*
X136745000Y-88875000D01*
X136205000Y-88875000D01*
X136205000Y-87825000D01*
%TO.C,C20*%
X156000000Y-99500000D02*
X156500000Y-99500000D01*
X156500000Y-100500000D01*
X156000000Y-100500000D01*
X156000000Y-99500000D01*
%TO.C,R21*%
X116980000Y-122475000D02*
X117520000Y-122475000D01*
X117520000Y-123525000D01*
X116980000Y-123525000D01*
X116980000Y-122475000D01*
%TO.C,FID1*%
X158250000Y-62500000D02*
G75*
G02*
X156250000Y-62500000I-1000000J0D01*
G01*
X156250000Y-62500000D02*
G75*
G02*
X158250000Y-62500000I1000000J0D01*
G01*
%TO.C,C23*%
X152000000Y-106750000D02*
X152500000Y-106750000D01*
X152500000Y-107750000D01*
X152000000Y-107750000D01*
X152000000Y-106750000D01*
%TO.C,RS6*%
X145275000Y-77200000D02*
X148475000Y-77200000D01*
X148475000Y-83500000D01*
X145275000Y-83500000D01*
X145275000Y-77200000D01*
%TO.C,U10*%
X114425000Y-98325000D02*
X114425000Y-95400000D01*
X119325000Y-95400000D01*
X119325000Y-99300000D01*
X115400000Y-99300000D01*
X114425000Y-98325000D01*
%TO.C,CF2*%
X120600000Y-91200000D02*
X121400000Y-91200000D01*
X121400000Y-92800000D01*
X120600000Y-92800000D01*
X120600000Y-91200000D01*
%TO.C,C13*%
X135250000Y-92000000D02*
X135750000Y-92000000D01*
X135750000Y-93000000D01*
X135250000Y-93000000D01*
X135250000Y-92000000D01*
%TO.C,R5*%
X150980000Y-93975000D02*
X151520000Y-93975000D01*
X151520000Y-95025000D01*
X150980000Y-95025000D01*
X150980000Y-93975000D01*
%TO.C,R13*%
X150350000Y-80080000D02*
X151400000Y-80080000D01*
X151400000Y-80620000D01*
X150350000Y-80620000D01*
X150350000Y-80080000D01*
%TO.C,C3*%
X151000000Y-84750000D02*
X151500000Y-84750000D01*
X151500000Y-85750000D01*
X151000000Y-85750000D01*
X151000000Y-84750000D01*
%TO.C,R9*%
X160975000Y-70480000D02*
X162025000Y-70480000D01*
X162025000Y-71020000D01*
X160975000Y-71020000D01*
X160975000Y-70480000D01*
%TO.C,J5*%
X164750000Y-76820000D02*
X164750000Y-67880000D01*
X164750000Y-76820000D02*
X172100000Y-76820000D01*
X172100000Y-67880000D02*
X164750000Y-67880000D01*
X172100000Y-76820000D02*
X172100000Y-67880000D01*
%TO.C,C22*%
X152000000Y-104500000D02*
X153000000Y-104500000D01*
X153000000Y-105000000D01*
X152000000Y-105000000D01*
X152000000Y-104500000D01*
%TO.C,C14*%
X141250000Y-92000000D02*
X141750000Y-92000000D01*
X141750000Y-93000000D01*
X141250000Y-93000000D01*
X141250000Y-92000000D01*
%TO.C,RFL2*%
X124205000Y-87825000D02*
X124745000Y-87825000D01*
X124745000Y-88875000D01*
X124205000Y-88875000D01*
X124205000Y-87825000D01*
%TO.C,CF6*%
X145100000Y-91200000D02*
X145900000Y-91200000D01*
X145900000Y-92800000D01*
X145100000Y-92800000D01*
X145100000Y-91200000D01*
%TO.C,CF4*%
X133100000Y-91150000D02*
X133900000Y-91150000D01*
X133900000Y-92750000D01*
X133100000Y-92750000D01*
X133100000Y-91150000D01*
%TO.C,C9*%
X161625000Y-64750000D02*
X162875000Y-64750000D01*
X162875000Y-66750000D01*
X161625000Y-66750000D01*
X161625000Y-64750000D01*
%TO.C,R2*%
X169230000Y-85975000D02*
X169770000Y-85975000D01*
X169770000Y-87025000D01*
X169230000Y-87025000D01*
X169230000Y-85975000D01*
%TO.C,RFH3*%
X127005000Y-87825000D02*
X127545000Y-87825000D01*
X127545000Y-88875000D01*
X127005000Y-88875000D01*
X127005000Y-87825000D01*
%TO.C,C4*%
X159250000Y-108250000D02*
X160250000Y-108250000D01*
X160250000Y-108750000D01*
X159250000Y-108750000D01*
X159250000Y-108250000D01*
%TO.C,U14*%
X138425000Y-98325000D02*
X138425000Y-95400000D01*
X143325000Y-95400000D01*
X143325000Y-99300000D01*
X139400000Y-99300000D01*
X138425000Y-98325000D01*
%TO.C,RFH4*%
X133005000Y-87825000D02*
X133545000Y-87825000D01*
X133545000Y-88875000D01*
X133005000Y-88875000D01*
X133005000Y-87825000D01*
%TO.C,D1*%
X152600000Y-120550000D02*
X154400000Y-120550000D01*
X152600000Y-121950000D02*
X152600000Y-120550000D01*
X153300000Y-120900000D02*
X153800000Y-121250000D01*
X153300000Y-121250000D02*
X153050000Y-121250000D01*
X153300000Y-121600000D02*
X153300000Y-120900000D01*
X153800000Y-121250000D02*
X153300000Y-121600000D01*
X153800000Y-121250000D02*
X154000000Y-121250000D01*
X153800000Y-121600000D02*
X153800000Y-120900000D01*
X154400000Y-120550000D02*
X154400000Y-121950000D01*
X154400000Y-121950000D02*
X152600000Y-121950000D01*
%TO.C,RFL1*%
X118205000Y-87825000D02*
X118745000Y-87825000D01*
X118745000Y-88875000D01*
X118205000Y-88875000D01*
X118205000Y-87825000D01*
%TO.C,RS3*%
X127275000Y-77200000D02*
X130475000Y-77200000D01*
X130475000Y-83500000D01*
X127275000Y-83500000D01*
X127275000Y-77200000D01*
%TO.C,C21*%
X157000000Y-99520000D02*
X157500000Y-99520000D01*
X157500000Y-100520000D01*
X157000000Y-100520000D01*
X157000000Y-99520000D01*
%TO.C,U2*%
X162200000Y-111775000D02*
X162200000Y-114700000D01*
X157300000Y-114700000D01*
X157300000Y-110800000D01*
X161225000Y-110800000D01*
X162200000Y-111775000D01*
%TO.C,RS2*%
X121275000Y-77200000D02*
X124475000Y-77200000D01*
X124475000Y-83500000D01*
X121275000Y-83500000D01*
X121275000Y-77200000D01*
%TO.C,RS5*%
X139275000Y-77200000D02*
X142475000Y-77200000D01*
X142475000Y-83500000D01*
X139275000Y-83500000D01*
X139275000Y-77200000D01*
%TO.C,FID3*%
X119750000Y-129250000D02*
G75*
G02*
X117750000Y-129250000I-1000000J0D01*
G01*
X117750000Y-129250000D02*
G75*
G02*
X119750000Y-129250000I1000000J0D01*
G01*
%TO.C,RFL3*%
X130205000Y-87825000D02*
X130745000Y-87825000D01*
X130745000Y-88875000D01*
X130205000Y-88875000D01*
X130205000Y-87825000D01*
%TO.C,R7*%
X151730000Y-99725000D02*
X152270000Y-99725000D01*
X152270000Y-100775000D01*
X151730000Y-100775000D01*
X151730000Y-99725000D01*
%TO.C,CF5*%
X139100000Y-91150000D02*
X139900000Y-91150000D01*
X139900000Y-92750000D01*
X139100000Y-92750000D01*
X139100000Y-91150000D01*
%TO.C,J4*%
D16*
X122916200Y-130840000D02*
X122916200Y-140746000D01*
X122916200Y-140746000D02*
X141763000Y-140746000D01*
X141763000Y-130840000D02*
X122916200Y-130840000D01*
X141763000Y-140746000D02*
X141763000Y-130840000D01*
D17*
X135720599Y-133500000D02*
G75*
G02*
X134958599Y-133500000I-381000J0D01*
G01*
X134958599Y-133500000D02*
G75*
G02*
X135720599Y-133500000I381000J0D01*
G01*
%TO.C,D2*%
D15*
X154700000Y-68250000D02*
X154700000Y-65250000D01*
X156350560Y-65950920D02*
X156350560Y-67551120D01*
X156350560Y-66751020D02*
X155448860Y-66751020D01*
X156350560Y-66751020D02*
X157501180Y-65950920D01*
X156350560Y-66751020D02*
X157501180Y-67500320D01*
X157501180Y-66751020D02*
X158499400Y-66751020D01*
X157501180Y-67500320D02*
X157501180Y-65950920D01*
X159300000Y-65250000D02*
X154700000Y-65250000D01*
X159300000Y-65250000D02*
X159300000Y-68250000D01*
X159300000Y-68250000D02*
X154700000Y-68250000D01*
%TO.C,R1*%
X150225000Y-101480000D02*
X151275000Y-101480000D01*
X151275000Y-102020000D01*
X150225000Y-102020000D01*
X150225000Y-101480000D01*
%TO.C,U11*%
X120425000Y-98325000D02*
X120425000Y-95400000D01*
X125325000Y-95400000D01*
X125325000Y-99300000D01*
X121400000Y-99300000D01*
X120425000Y-98325000D01*
%TO.C,C15*%
X147250000Y-92000000D02*
X147750000Y-92000000D01*
X147750000Y-93000000D01*
X147250000Y-93000000D01*
X147250000Y-92000000D01*
%TO.C,R6*%
X151230000Y-91725000D02*
X151770000Y-91725000D01*
X151770000Y-92775000D01*
X151230000Y-92775000D01*
X151230000Y-91725000D01*
%TO.C,C10*%
X117250000Y-92000000D02*
X117750000Y-92000000D01*
X117750000Y-93000000D01*
X117250000Y-93000000D01*
X117250000Y-92000000D01*
%TO.C,CF3*%
X127100000Y-91200000D02*
X127900000Y-91200000D01*
X127900000Y-92800000D01*
X127100000Y-92800000D01*
X127100000Y-91200000D01*
%TD*%
M02*
