<?xml version="1.0" standalone="no"?>
 <!DOCTYPE svg PUBLIC "-//W3C//DTD SVG 1.1//EN" 
 "http://www.w3.org/Graphics/SVG/1.1/DTD/svg11.dtd"> 
<svg
  xmlns:svg="http://www.w3.org/2000/svg"
  xmlns="http://www.w3.org/2000/svg"
  xmlns:xlink="http://www.w3.org/1999/xlink"
  xmlns:inkscape="http://www.inkscape.org/namespaces/inkscape"
  version="1.1"
  width="95.9866mm" height="36.9824mm" viewBox="0.0000 0.0000 95.9866 36.9824">
<title>SVG Image created as eps-8pin-r117-Edge_Cuts.svg date 2026-06-11T15:12:29 </title>
  <desc>Image generated by PCBNEW </desc>
<g style="fill:#000000; fill-opacity:1.0000;stroke:#000000; stroke-opacity:1.0000;
stroke-linecap:round; stroke-linejoin:round;"
 transform="translate(0 0) scale(1 1)">
</g>
<g style="fill:none; 
stroke:#D0D2CD; stroke-width:0.1000; stroke-opacity:1; 
stroke-linecap:round; stroke-linejoin:round;">
<path d="M0.0000 0.0000
L96.0000 0.0000
" />
<path d="M0.0000 37.0000
L0.0000 0.0000
" />
<path d="M96.0000 0.0000
L96.0000 37.0000
" />
<path d="M96.0000 37.0000
L0.0000 37.0000
" />
</g>
<g style="fill:#000000; fill-opacity:1.0000; stroke:none;">
<circle cx="11.0000" cy="4.0000" r="0.9271" /> 
<circle cx="15.2000" cy="4.0000" r="0.9271" /> 
<circle cx="19.4000" cy="4.0000" r="0.9271" /> 
<circle cx="23.6000" cy="4.0000" r="0.9271" /> 
<circle cx="11.0000" cy="9.5000" r="0.9271" /> 
<circle cx="15.2000" cy="9.5000" r="0.9271" /> 
<circle cx="19.4000" cy="9.5000" r="0.9271" /> 
<circle cx="23.6000" cy="9.5000" r="0.9271" /> 
<circle cx="98.3500" cy="19.2400" r="1.6000" /> 
<circle cx="98.3500" cy="7.9400" r="1.6000" /> 
<circle cx="92.0000" cy="18.0000" r="0.5000" /> 
<circle cx="89.4600" cy="16.7300" r="0.5000" /> 
<circle cx="92.0000" cy="15.4600" r="0.5000" /> 
<circle cx="89.4600" cy="14.1900" r="0.5000" /> 
<circle cx="92.0000" cy="12.9200" r="0.5000" /> 
<circle cx="89.4600" cy="11.6500" r="0.5000" /> 
<circle cx="92.0000" cy="10.3800" r="0.5000" /> 
<circle cx="89.4600" cy="9.1100" r="0.5000" /> 
</g>
<g style="fill:none; 
stroke:#000000; stroke-width:0.6000; stroke-opacity:1; 
stroke-linecap:round; stroke-linejoin:round;">
<path d="M100.6500 21.4900
L101.9500 21.4900
" />
<path d="M100.6500 5.6900
L101.9500 5.6900
" />
</g>
<g style="fill:#000000; fill-opacity:1.0000; stroke:none;">
<circle cx="46.6000" cy="33.0000" r="0.9271" /> 
<circle cx="42.4000" cy="33.0000" r="0.9271" /> 
<circle cx="38.2000" cy="33.0000" r="0.9271" /> 
<circle cx="34.0000" cy="33.0000" r="0.9271" /> 
<circle cx="46.6000" cy="27.5000" r="0.9271" /> 
<circle cx="42.4000" cy="27.5000" r="0.9271" /> 
<circle cx="38.2000" cy="27.5000" r="0.9271" /> 
<circle cx="34.0000" cy="27.5000" r="0.9271" /> 
<circle cx="1.6000" cy="4.5000" r="0.2500" /> 
<circle cx="2.3029" cy="2.8029" r="0.2500" /> 
<circle cx="2.3029" cy="6.1971" r="0.2500" /> 
<circle cx="4.0000" cy="2.1000" r="0.2500" /> 
<circle cx="4.0000" cy="4.5000" r="1.6000" /> 
<circle cx="4.0000" cy="6.9000" r="0.2500" /> 
<circle cx="5.6971" cy="2.8029" r="0.2500" /> 
<circle cx="5.6971" cy="6.1971" r="0.2500" /> 
<circle cx="6.4000" cy="4.5000" r="0.2500" /> 
<circle cx="64.8900" cy="6.6050" r="0.3250" /> 
<circle cx="59.1100" cy="6.6050" r="0.3250" /> 
</g>
<g style="fill:none; 
stroke:#000000; stroke-width:0.6000; stroke-opacity:1; 
stroke-linecap:round; stroke-linejoin:round;">
<path d="M66.3200 7.6550
L66.3200 6.5550
" />
<path d="M66.3200 3.2250
L66.3200 2.6250
" />
<path d="M57.6800 7.6550
L57.6800 6.5550
" />
<path d="M57.6800 3.2250
L57.6800 2.6250
" />
</g>
<g style="fill:#000000; fill-opacity:1.0000; stroke:none;">
<circle cx="1.6000" cy="32.5000" r="0.2500" /> 
<circle cx="2.3029" cy="30.8029" r="0.2500" /> 
<circle cx="2.3029" cy="34.1971" r="0.2500" /> 
<circle cx="4.0000" cy="30.1000" r="0.2500" /> 
<circle cx="4.0000" cy="32.5000" r="1.6000" /> 
<circle cx="4.0000" cy="34.9000" r="0.2500" /> 
<circle cx="5.6971" cy="30.8029" r="0.2500" /> 
<circle cx="5.6971" cy="34.1971" r="0.2500" /> 
<circle cx="6.4000" cy="32.5000" r="0.2500" /> 
<circle cx="89.6000" cy="33.0000" r="0.2500" /> 
<circle cx="90.3029" cy="31.3029" r="0.2500" /> 
<circle cx="90.3029" cy="34.6971" r="0.2500" /> 
<circle cx="92.0000" cy="30.6000" r="0.2500" /> 
<circle cx="92.0000" cy="33.0000" r="1.6000" /> 
<circle cx="92.0000" cy="35.4000" r="0.2500" /> 
<circle cx="93.6971" cy="31.3029" r="0.2500" /> 
<circle cx="93.6971" cy="34.6971" r="0.2500" /> 
<circle cx="94.4000" cy="33.0000" r="0.2500" /> 
<circle cx="34.0000" cy="4.0000" r="0.9271" /> 
<circle cx="38.2000" cy="4.0000" r="0.9271" /> 
<circle cx="42.4000" cy="4.0000" r="0.9271" /> 
<circle cx="46.6000" cy="4.0000" r="0.9271" /> 
<circle cx="34.0000" cy="9.5000" r="0.9271" /> 
<circle cx="38.2000" cy="9.5000" r="0.9271" /> 
<circle cx="42.4000" cy="9.5000" r="0.9271" /> 
<circle cx="46.6000" cy="9.5000" r="0.9271" /> 
<circle cx="23.6000" cy="33.0000" r="0.9271" /> 
<circle cx="19.4000" cy="33.0000" r="0.9271" /> 
<circle cx="15.2000" cy="33.0000" r="0.9271" /> 
<circle cx="11.0000" cy="33.0000" r="0.9271" /> 
<circle cx="23.6000" cy="27.5000" r="0.9271" /> 
<circle cx="19.4000" cy="27.5000" r="0.9271" /> 
<circle cx="15.2000" cy="27.5000" r="0.9271" /> 
<circle cx="11.0000" cy="27.5000" r="0.9271" /> 
</g> 
</svg>
