#VRML V2.0 utf8
# 3D model generated by easyeda2kicad.py (https://github.com/uPesy/easyeda2kicad.py)

Shape{
    appearance Appearance {
        material  Material 	{
            diffuseColor 0.20784313725490197 0.20784313725490197 0.20784313725490197
            specularColor 0.01568627450980392 0.01568627450980392 0.01568627450980392
            ambientIntensity 0.298
            transparency 0.0
            shininess 0.5
        }
    }
    geometry IndexedFaceSet {
        ccw TRUE
        solid FALSE
        coord DEF co Coordinate {
            point [
                1.9665 0.8878 4.2362, 1.9665 0.8878 4.4331, 1.9705 0.8878 4.4331, 0.565 0.8878 1.6337, 0.565 0.8878 1.3533, 0.4459 0.8878 1.3533, 0.2203 0.8878 1.5979, 0.2585 0.8878 1.6029, 0.2741 0.8878 1.5985, -0.038 0.8878 1.5991, -0.0764 0.8878 1.3168, -0.0764 0.8878 1.7717, 0.2788 0.8878 1.3168, 0.4459 0.8878 1.3187, 0.6073 0.8878 1.3187, 0.2589 0.8878 1.6375, 0.2211 0.8878 1.6349, 0.1233 0.8878 1.6337, 0.1847 0.8878 1.5828, 0.1847 0.8878 1.3696, 0.2237 0.8878 1.3541, 0.2656 0.8878 1.3494, -0.0303 0.8878 1.4608, -0.0303 0.8878 1.4954, 0.081 0.8878 1.4954, 0.081 0.8878 1.5991, 0.3448 0.8878 1.5654, 0.3559 0.8878 1.5525, 0.3008 0.8878 1.3576, 0.3644 0.8878 1.5358, 0.3712 0.8878 1.5114, 0.3768 0.8878 1.4728, 0.3694 0.8878 1.4346, 0.323 0.8878 1.3658, 0.4152 0.8878 1.4882, 0.3932 0.8878 1.5604, 0.2964 0.8878 1.3214, 0.3559 0.8878 1.3431, 0.3787 0.8878 1.3586, 0.3923 0.8878 1.374, 1.9705 0.8878 1.3168, 1.5768 0.8878 1.7717, 1.5768 0.8878 4.2362, 0.081 0.8878 1.4608, 0.081 0.8878 1.3533, -0.0457 0.8878 1.3533, -0.0457 0.8878 1.3187, 0.1233 0.8878 1.3187, 0.3258 0.8878 1.5787, 0.3583 0.8878 1.4014, 0.3477 0.8878 1.3846, 0.3379 0.8878 1.375, 0.1847 0.8878 1.625, 0.1847 0.8878 1.335, 0.4029 0.8878 1.3941, 0.4115 0.8878 1.4236, 0.419 0.8878 1.4702, 0.3773 0.8878 1.587, 0.3613 0.8878 1.6029, 0.3402 0.8878 1.6156, 0.3088 0.8878 1.6267, -0.038 0.8878 1.6337, 0.2522 0.8878 1.3168, 0.2714 0.8878 1.3148, -0.0764 0.8878 1.1811, 1.9705 0.8878 1.1811, 0.6073 0.8878 1.6337, -1.9823 0.8878 4.4331, -1.9784 0.8878 4.4331, -1.9784 0.8878 4.2362, -1.5886 0.8878 4.2362, -1.5886 0.8878 1.7717, -0.6219 0.8878 1.3187, -0.668 0.8878 1.3187, -1.9823 0.8878 1.3168, -0.545 0.8878 1.6337, -0.3837 0.8878 1.3187, -0.3311 0.8878 1.3905, -0.3141 0.8878 1.3647, -0.1928 0.8878 1.3187, -0.1072 0.8878 1.3187, -0.1072 0.8878 1.6337, -0.196 0.8878 1.6337, -0.2177 0.8878 1.6293, -0.5028 0.8878 1.6337, -0.2853 0.8878 1.6094, -0.3108 0.8878 1.5943, -0.3264 0.8878 1.579, -0.3388 0.8878 1.5586, -0.3498 0.8878 1.5284, -0.3607 0.8878 1.4801, -0.3558 0.8878 1.4613, -0.2974 0.8878 1.3494, -0.2757 0.8878 1.3375, -0.2437 0.8878 1.3276, -0.4298 0.8878 1.3187, -0.4599 0.8878 1.407, -0.59 0.8878 1.407, -1.9823 0.8878 1.1811, 0.2269 0.8878 1.3193, -0.7185 -0.061 1.0117, -0.2421 0.0807 1.037, -0.2421 -0.061 1.0117, 0.2303 -0.061 1.0117, 1.9705 -0.2146 0.9843, -1.9823 -0.2146 0.9843, -0.7185 0.0807 1.037, -1.1909 0.0807 1.037, -1.1909 -0.061 1.0117, 0.2303 0.0807 1.037, 0.7067 0.0807 1.037, 0.7067 -0.061 1.0117, 1.1791 -0.061 1.0117, 1.1791 0.0807 1.037, 1.9665 0.439 4.37, -1.9784 0.439 4.37, -1.9823 -0.7854 4.1979, 1.9705 -0.7854 4.1979, -1.9823 -0.7854 1.1811, 1.9705 -0.7854 1.1811, -0.2684 -0.7854 2.0492, -0.1916 -0.7854 2.1083, -0.0059 -0.7854 1.4154, -0.102 -0.7854 1.4281, -0.1916 -0.7854 1.4652, 0.1797 -0.7854 2.1083, 0.2566 -0.7854 2.0492, 0.3156 -0.7854 1.9724, 0.3527 -0.7854 1.8828, 0.3654 -0.7854 1.7867, 0.3527 -0.7854 1.6906, 0.3156 -0.7854 1.6011, 0.2566 -0.7854 1.5242, 0.1797 -0.7854 1.4652, 0.0902 -0.7854 1.4281, -0.2684 -0.7854 1.5242, -0.3275 -0.7854 1.6011, -0.3645 -0.7854 1.6906, -0.102 -0.7854 2.1453, -0.0059 -0.7854 2.158, 0.0902 -0.7854 2.1453, -0.3772 -0.7854 1.7867, -0.3645 -0.7854 1.8828, -0.3275 -0.7854 1.9724
            ]
        }
        coordIndex [
            0,1,2,-1,3,4,5,-1,6,7,8,-1,9,10,11,-1,12,13,14,-1,15,16,17,-1,18,6,19,-1,19,6,8,-1,19,8,20,-1,20,8,21,-1,22,10,23,-1,23,10,9,-1,23,9,24,-1,24,9,25,-1,26,27,28,-1,28,27,29,-1,28,29,30,-1,30,31,28,-1,28,31,32,-1,28,32,33,-1,34,35,3,-1,12,36,13,-1,13,36,37,-1,13,37,5,-1,5,37,38,-1,5,38,39,-1,2,40,0,-1,0,40,41,-1,0,41,42,-1,43,44,22,-1,22,44,45,-1,22,45,10,-1,10,45,46,-1,10,46,47,-1,21,8,28,-1,28,8,48,-1,28,48,26,-1,49,50,32,-1,32,50,51,-1,32,51,33,-1,16,52,17,-1,17,52,18,-1,17,18,47,-1,47,18,19,-1,47,19,53,-1,39,54,5,-1,5,54,55,-1,5,55,3,-1,3,55,56,-1,3,56,34,-1,35,57,3,-1,3,57,58,-1,3,58,59,-1,59,60,3,-1,3,60,15,-1,3,15,41,-1,41,15,17,-1,41,17,11,-1,11,17,61,-1,11,61,9,-1,62,63,64,-1,64,63,65,-1,65,63,12,-1,65,12,40,-1,40,12,14,-1,40,14,41,-1,41,14,66,-1,41,66,3,-1,67,68,69,-1,69,70,71,-1,72,10,73,-1,73,10,74,-1,73,74,75,-1,76,77,78,-1,79,80,10,-1,10,80,81,-1,10,81,11,-1,11,81,82,-1,11,82,83,-1,67,69,74,-1,74,69,71,-1,74,71,75,-1,75,71,11,-1,75,11,84,-1,84,11,83,-1,84,83,85,-1,85,86,84,-1,84,86,87,-1,84,87,88,-1,88,89,84,-1,84,89,90,-1,84,90,76,-1,76,90,91,-1,76,91,77,-1,78,92,76,-1,76,92,93,-1,76,93,94,-1,94,79,76,-1,76,79,10,-1,76,10,95,-1,95,10,72,-1,95,72,96,-1,96,72,97,-1,98,74,64,-1,64,74,10,-1,64,10,62,-1,62,10,47,-1,62,47,99,-1,99,47,53,-1,100,101,102,-1,103,104,102,-1,102,104,105,-1,102,105,100,-1,64,106,98,-1,98,106,107,-1,98,107,105,-1,105,107,108,-1,105,108,100,-1,100,106,101,-1,101,106,64,-1,101,64,109,-1,109,64,110,-1,109,110,103,-1,103,110,111,-1,103,111,104,-1,104,111,112,-1,104,112,65,-1,65,112,113,-1,65,113,64,-1,64,113,110,-1,2,1,114,-1,68,67,115,-1,115,67,116,-1,115,116,114,-1,114,116,117,-1,114,117,2,-1,98,105,74,-1,74,105,118,-1,74,118,67,-1,67,118,116,-1,2,117,40,-1,40,117,119,-1,40,119,65,-1,65,119,104,-1,120,121,116,-1,119,122,118,-1,118,122,123,-1,118,123,124,-1,125,126,117,-1,117,126,127,-1,117,127,119,-1,119,127,128,-1,119,128,129,-1,129,130,119,-1,119,130,131,-1,119,131,132,-1,132,133,119,-1,119,133,134,-1,119,134,122,-1,124,135,118,-1,118,135,136,-1,118,136,137,-1,121,138,116,-1,116,138,139,-1,116,139,117,-1,117,139,140,-1,117,140,125,-1,137,141,118,-1,118,141,142,-1,118,142,116,-1,116,142,143,-1,116,143,120,-1,104,119,105,-1,105,119,118,-1,
        ]
    }
}
Shape{
    appearance Appearance {
        material  Material 	{
            diffuseColor 0.8313725490196079 0.8313725490196079 0.8196078431372549
            specularColor 0.6666666666666666 0.6666666666666666 0.6549019607843137
            ambientIntensity 0.83
            transparency 0.0
            shininess 0.5
        }
    }
    geometry IndexedFaceSet {
        ccw TRUE
        solid FALSE
        coord DEF co Coordinate {
            point [
                -1.9784 0.8878 4.2362, -1.9784 0.8917 4.2362, -1.5886 0.8878 4.2362, -1.5886 0.8917 4.2362, 1.5768 0.8878 4.2362, 1.5768 0.8917 4.2362, 1.9665 0.8878 4.2362, 1.9665 0.8917 4.2362, 1.5768 0.8878 1.7717, 1.5768 0.8917 1.7717, -1.5886 0.8878 1.7717, -1.5886 0.8917 1.7717, -0.0764 0.8878 1.7717, 0.4862 0.8917 3.8425, 0.4862 0.8878 3.8425, 0.5372 0.8917 3.8492, 0.5372 0.8878 3.8492, 0.5846 0.8917 3.8689, 0.5846 0.8878 3.8689, 0.6254 0.8917 3.9002, 0.6254 0.8878 3.9002, 0.6567 0.8917 3.9409, 0.6567 0.8878 3.9409, 0.6764 0.8917 3.9884, 0.6764 0.8878 3.9884, 0.6831 0.8917 4.0394, 0.6831 0.8878 4.0394, 0.6764 0.8917 4.0903, 0.6764 0.8878 4.0903, 0.6567 0.8917 4.1378, 0.6567 0.8878 4.1378, 0.6254 0.8917 4.1786, 0.6254 0.8878 4.1786, 0.5846 0.8917 4.2099, 0.5846 0.8878 4.2099, 0.5372 0.8917 4.2295, 0.5372 0.8878 4.2295, 0.4862 0.8917 4.2362, 0.4862 0.8878 4.2362, -0.498 0.8917 3.8425, -0.498 0.8878 3.8425, -0.498 0.8917 4.2362, -0.498 0.8878 4.2362, -0.549 0.8917 4.2295, -0.549 0.8878 4.2295, -0.5965 0.8917 4.2099, -0.5965 0.8878 4.2099, -0.6372 0.8917 4.1786, -0.6372 0.8878 4.1786, -0.6685 0.8917 4.1378, -0.6685 0.8878 4.1378, -0.6882 0.8917 4.0903, -0.6882 0.8878 4.0903, -0.6949 0.8917 4.0394, -0.6949 0.8878 4.0394, -0.6882 0.8917 3.9884, -0.6882 0.8878 3.9884, -0.6685 0.8917 3.9409, -0.6685 0.8878 3.9409, -0.6372 0.8917 3.9002, -0.6372 0.8878 3.9002, -0.5965 0.8917 3.8689, -0.5965 0.8878 3.8689, -0.549 0.8917 3.8492, -0.549 0.8878 3.8492, -1.9784 0.8878 4.4331, -1.9784 0.439 4.37, -1.9784 0.439 5.7283, -1.9784 0.8917 5.7283, 1.9665 0.8878 4.4331, 1.9665 0.8917 5.7283, 1.9665 0.439 4.37, 1.9665 0.439 5.7283, 1.9054 0.439 5.7364, 0.2094 0.439 6.4698, 1.8484 0.439 5.76, 1.7995 0.439 5.7975, 1.762 0.439 5.8465, 1.7384 0.439 5.9034, 1.7303 0.439 5.9646, 0.3675 0.439 6.3955, 0.5021 0.439 6.2841, 0.6047 0.439 6.1428, -1.8602 0.439 6.1691, -1.9784 0.439 6.8307, -1.9172 0.439 6.1927, -1.9784 0.439 6.2008, -1.8113 0.439 6.1316, -1.7738 0.439 6.0827, -1.7502 0.439 6.0257, 0.669 0.439 5.9804, 0.6909 0.439 5.8071, 0.669 0.439 5.6338, 1.7384 0.439 6.0257, 1.762 0.439 6.0827, 1.7995 0.439 6.1316, 0.6047 0.439 5.4714, 0.5021 0.439 5.3301, 0.3675 0.439 5.2187, 1.9665 0.439 6.2008, 1.9665 0.439 6.8307, 1.9054 0.439 6.1927, 1.8484 0.439 6.1691, -1.7738 0.439 5.8465, -0.3026 0.439 5.1766, -1.7502 0.439 5.9034, -1.7421 0.439 5.9646, 0.2094 0.439 5.1443, 0.0378 0.439 5.1116, -0.1365 0.439 5.1226, -1.8113 0.439 5.7975, -1.8602 0.439 5.76, -1.9172 0.439 5.7364, -0.4501 0.439 5.2702, -0.5697 0.439 5.3975, -0.6538 0.439 5.5506, -0.3026 0.439 6.4376, -0.4501 0.439 6.344, -0.5697 0.439 6.2167, 0.0378 0.439 6.5026, -0.1365 0.439 6.4916, -0.6973 0.439 5.7198, -0.7028 0.439 5.8071, -0.6973 0.439 5.8944, -0.6538 0.439 6.0636, 1.9665 0.8917 6.8307, -1.7738 0.8917 6.0827, -1.8113 0.8917 6.1316, -0.1365 0.8917 6.4916, 1.7303 0.8917 5.9646, 1.7384 0.8917 5.9034, 1.762 0.8917 5.8465, 1.7995 0.8917 5.7975, 1.9054 0.8917 5.7364, 1.8484 0.8917 5.76, -1.9172 0.8917 5.7364, -0.6973 0.8917 5.7198, -0.6538 0.8917 5.5506, -1.7502 0.8917 5.9034, -1.9784 0.8917 6.2008, -1.9784 0.8917 6.8307, -1.9172 0.8917 6.1927, -1.8602 0.8917 6.1691, 0.6909 0.8917 5.8071, 0.669 0.8917 5.9804, 1.9665 0.8917 6.2008, 1.9054 0.8917 6.1927, 1.8484 0.8917 6.1691, 0.6047 0.8917 6.1428, 0.5021 0.8917 6.2841, 0.3675 0.8917 6.3955, 0.0378 0.8917 6.5026, 0.2094 0.8917 6.4698, -1.8602 0.8917 5.76, -1.8113 0.8917 5.7975, -0.3026 0.8917 5.1766, -1.7738 0.8917 5.8465, -0.4501 0.8917 5.2702, -1.7502 0.8917 6.0257, -0.3026 0.8917 6.4376, -0.4501 0.8917 6.344, 0.5021 0.8917 5.3301, 0.6047 0.8917 5.4714, 0.669 0.8917 5.6338, -0.5697 0.8917 5.3975, -0.5697 0.8917 6.2167, -0.6538 0.8917 6.0636, -1.7421 0.8917 5.9646, -0.6973 0.8917 5.8944, -0.7028 0.8917 5.8071, 0.3675 0.8917 5.2187, -0.1365 0.8917 5.1226, 0.0378 0.8917 5.1116, 0.2094 0.8917 5.1443, 1.7384 0.8917 6.0257, 1.762 0.8917 6.0827, 1.7995 0.8917 6.1316
            ]
        }
        coordIndex [
            0,1,2,-1,2,1,3,-1,4,5,6,-1,6,5,7,-1,8,9,4,-1,4,9,5,-1,10,11,12,-1,12,11,9,-1,12,9,8,-1,2,3,10,-1,10,3,11,-1,13,14,15,-1,15,14,16,-1,15,16,17,-1,17,16,18,-1,17,18,19,-1,19,18,20,-1,19,20,21,-1,21,20,22,-1,21,22,23,-1,23,22,24,-1,23,24,25,-1,25,24,26,-1,25,26,27,-1,27,26,28,-1,27,28,29,-1,29,28,30,-1,29,30,31,-1,31,30,32,-1,31,32,33,-1,33,32,34,-1,33,34,35,-1,35,34,36,-1,35,36,37,-1,37,36,38,-1,13,39,14,-1,14,39,40,-1,41,42,43,-1,43,42,44,-1,43,44,45,-1,45,44,46,-1,45,46,47,-1,47,46,48,-1,47,48,49,-1,49,48,50,-1,49,50,51,-1,51,50,52,-1,51,52,53,-1,53,52,54,-1,53,54,55,-1,55,54,56,-1,55,56,57,-1,57,56,58,-1,57,58,59,-1,59,58,60,-1,59,60,61,-1,61,60,62,-1,61,62,63,-1,63,62,64,-1,63,64,39,-1,39,64,40,-1,41,37,42,-1,42,37,38,-1,65,66,67,-1,67,68,65,-1,65,68,1,-1,65,1,0,-1,6,7,69,-1,69,7,70,-1,69,70,71,-1,71,70,72,-1,71,72,73,-1,74,75,76,-1,76,77,74,-1,74,77,78,-1,74,78,79,-1,74,80,75,-1,75,80,81,-1,75,81,82,-1,83,84,85,-1,85,84,86,-1,83,87,84,-1,84,87,88,-1,84,88,89,-1,82,90,75,-1,75,90,91,-1,75,91,73,-1,73,91,92,-1,73,92,71,-1,79,93,74,-1,74,93,94,-1,74,94,95,-1,92,96,71,-1,71,96,97,-1,71,97,98,-1,99,100,101,-1,101,100,102,-1,103,104,105,-1,105,104,106,-1,98,107,71,-1,71,107,108,-1,71,108,66,-1,66,108,109,-1,66,109,104,-1,103,110,104,-1,104,110,111,-1,104,111,66,-1,66,111,112,-1,66,112,67,-1,104,113,106,-1,106,113,114,-1,106,114,115,-1,116,84,117,-1,117,84,118,-1,95,102,74,-1,74,102,100,-1,74,100,119,-1,119,100,84,-1,119,84,120,-1,120,84,116,-1,115,121,106,-1,106,121,122,-1,106,122,89,-1,89,122,123,-1,89,123,84,-1,84,123,124,-1,84,124,118,-1,35,37,125,-1,59,61,11,-1,9,15,5,-1,5,15,17,-1,5,17,19,-1,126,127,128,-1,129,130,5,-1,5,130,131,-1,5,131,132,-1,70,7,133,-1,133,7,5,-1,133,5,134,-1,134,5,132,-1,19,21,5,-1,5,21,23,-1,5,23,25,-1,1,68,3,-1,3,68,135,-1,136,137,138,-1,139,140,141,-1,141,140,142,-1,143,144,125,-1,145,146,125,-1,125,146,147,-1,144,148,125,-1,125,148,149,-1,125,149,150,-1,127,142,128,-1,128,142,140,-1,128,140,151,-1,151,140,125,-1,151,125,152,-1,152,125,150,-1,51,53,3,-1,3,53,55,-1,3,55,11,-1,11,55,57,-1,11,57,59,-1,61,63,11,-1,11,63,39,-1,11,39,9,-1,9,39,13,-1,9,13,15,-1,135,153,3,-1,3,153,154,-1,3,154,155,-1,155,154,156,-1,155,156,157,-1,45,47,3,-1,3,47,49,-1,3,49,51,-1,126,128,158,-1,158,128,159,-1,158,159,160,-1,161,162,125,-1,125,162,163,-1,125,163,143,-1,138,137,156,-1,156,137,164,-1,156,164,157,-1,160,165,158,-1,158,165,166,-1,158,166,167,-1,167,166,168,-1,167,168,138,-1,138,168,169,-1,138,169,136,-1,37,41,125,-1,125,41,43,-1,125,43,161,-1,161,43,45,-1,161,45,170,-1,155,171,3,-1,3,171,172,-1,3,172,45,-1,45,172,173,-1,45,173,170,-1,174,35,175,-1,175,35,125,-1,175,125,176,-1,176,125,147,-1,25,27,5,-1,5,27,29,-1,5,29,129,-1,129,29,31,-1,129,31,174,-1,174,31,33,-1,174,33,35,-1,68,67,135,-1,135,67,112,-1,135,112,153,-1,153,112,111,-1,153,111,154,-1,154,111,110,-1,154,110,156,-1,156,110,103,-1,156,103,138,-1,138,103,105,-1,138,105,167,-1,167,105,106,-1,167,106,158,-1,158,106,89,-1,158,89,126,-1,126,89,88,-1,126,88,127,-1,127,88,87,-1,127,87,142,-1,142,87,83,-1,142,83,141,-1,141,83,85,-1,141,85,139,-1,139,85,86,-1,84,140,86,-1,86,140,139,-1,100,125,84,-1,84,125,140,-1,99,145,100,-1,100,145,125,-1,145,99,146,-1,146,99,101,-1,146,101,147,-1,147,101,102,-1,147,102,176,-1,176,102,95,-1,176,95,175,-1,175,95,94,-1,175,94,174,-1,174,94,93,-1,174,93,129,-1,129,93,79,-1,129,79,130,-1,130,79,78,-1,130,78,131,-1,131,78,77,-1,131,77,132,-1,132,77,76,-1,132,76,134,-1,134,76,75,-1,134,75,133,-1,133,75,73,-1,133,73,70,-1,70,73,72,-1,143,91,144,-1,144,91,90,-1,144,90,148,-1,148,90,82,-1,148,82,149,-1,149,82,81,-1,149,81,150,-1,150,81,80,-1,150,80,152,-1,152,80,74,-1,152,74,151,-1,151,74,119,-1,151,119,128,-1,128,119,120,-1,128,120,159,-1,159,120,116,-1,159,116,160,-1,160,116,117,-1,160,117,165,-1,165,117,118,-1,165,118,166,-1,166,118,124,-1,166,124,168,-1,168,124,123,-1,168,123,169,-1,169,123,122,-1,169,122,136,-1,136,122,121,-1,136,121,137,-1,137,121,115,-1,137,115,164,-1,164,115,114,-1,164,114,157,-1,157,114,113,-1,157,113,155,-1,155,113,104,-1,155,104,171,-1,171,104,109,-1,171,109,172,-1,172,109,108,-1,172,108,173,-1,173,108,107,-1,173,107,170,-1,170,107,98,-1,170,98,161,-1,161,98,97,-1,161,97,162,-1,162,97,96,-1,162,96,163,-1,163,96,92,-1,163,92,143,-1,143,92,91,-1,
        ]
    }
}
Shape{
    appearance Appearance {
        material  Material 	{
            diffuseColor 0.20784313725490197 0.20784313725490197 0.20784313725490197
            specularColor 0.01568627450980392 0.01568627450980392 0.01568627450980392
            ambientIntensity 0.298
            transparency 0.0
            shininess 0.5
        }
    }
    geometry IndexedFaceSet {
        ccw TRUE
        solid FALSE
        coord DEF co Coordinate {
            point [
                -0.549 0.8878 3.8492, -0.549 0.8878 4.2295, -0.498 0.8878 3.8425, -0.498 0.8878 4.2362, 0.4862 0.8878 3.8425, 0.4862 0.8878 4.2362, 0.5372 0.8878 3.8492, -0.5965 0.8878 3.8689, -0.6372 0.8878 3.9002, -0.6685 0.8878 3.9409, 0.6254 0.8878 4.1786, 0.6567 0.8878 4.1378, 0.6764 0.8878 3.9884, 0.6764 0.8878 4.0903, 0.6831 0.8878 4.0394, 0.5846 0.8878 4.2099, 0.6567 0.8878 3.9409, 0.6254 0.8878 3.9002, 0.5372 0.8878 4.2295, 0.5846 0.8878 3.8689, -0.6882 0.8878 3.9884, -0.6949 0.8878 4.0394, -0.6882 0.8878 4.0903, -0.6685 0.8878 4.1378, -0.6372 0.8878 4.1786, -0.5965 0.8878 4.2099
            ]
        }
        coordIndex [
            0,1,2,-1,2,1,3,-1,2,3,4,-1,4,3,5,-1,4,5,6,-1,0,7,1,-1,1,7,8,-1,1,8,9,-1,10,11,12,-1,12,11,13,-1,12,13,14,-1,10,12,15,-1,15,12,16,-1,15,16,17,-1,5,18,6,-1,6,18,15,-1,6,15,19,-1,19,15,17,-1,9,20,1,-1,1,20,21,-1,1,21,22,-1,22,23,1,-1,1,23,24,-1,1,24,25,-1,
        ]
    }
}
Shape{
    appearance Appearance {
        material  Material 	{
            diffuseColor 0.8313725490196079 0.8313725490196079 0.8196078431372549
            specularColor 0.6666666666666666 0.6666666666666666 0.6549019607843137
            ambientIntensity 0.83
            transparency 0.0
            shininess 0.5
        }
    }
    geometry IndexedFaceSet {
        ccw TRUE
        solid FALSE
        coord DEF co Coordinate {
            point [
                -0.1417 0.0807 -0.3228, -0.1417 0.0807 -1.378, -0.1417 -0.061 -0.3228, -0.1417 -0.061 -1.378, -0.2421 0.0807 -0.3228, -0.2421 -0.061 -0.3228, -0.2421 0.0807 0.1181, -0.2421 -0.061 0.1181, -0.3012 0.0807 0.1181, -0.3012 -0.061 0.1181, -0.3012 0.0807 0.5118, -0.3012 -0.061 0.5118, -0.2421 0.0807 0.5118, -0.2421 -0.061 0.5118, -0.2421 0.0807 1.037, -0.2421 -0.061 1.0117, 0.2303 -0.061 0.5118, 0.2303 0.0807 0.5118, 0.2303 -0.061 1.0117, 0.2303 0.0807 1.037, 0.2894 0.0807 0.5118, 0.2894 -0.061 0.5118, 0.2894 0.0807 0.1181, 0.2894 -0.061 0.1181, 0.2303 0.0807 0.1181, 0.2303 -0.061 0.1181, 0.2303 0.0807 -0.3228, 0.2303 -0.061 -0.3228, 0.1299 0.0807 -0.3228, 0.1299 -0.061 -0.3228, 0.1299 0.0807 -1.378, 0.1299 -0.061 -1.378, -1.0906 0.0807 -0.3228, -1.0906 0.0807 -1.378, -1.0906 -0.061 -0.3228, -1.0906 -0.061 -1.378, -1.1909 0.0807 -0.3228, -1.1909 -0.061 -0.3228, -1.1909 0.0807 0.1181, -1.1909 -0.061 0.1181, -1.25 0.0807 0.1181, -1.25 -0.061 0.1181, -1.25 0.0807 0.5118, -1.25 -0.061 0.5118, -1.1909 0.0807 0.5118, -1.1909 -0.061 0.5118, -1.1909 0.0807 1.037, -1.1909 -0.061 1.0117, -0.7185 -0.061 0.5118, -0.7185 0.0807 0.5118, -0.7185 -0.061 1.0117, -0.7185 0.0807 1.037, -0.6595 0.0807 0.5118, -0.6595 -0.061 0.5118, -0.6595 0.0807 0.1181, -0.6595 -0.061 0.1181, -0.7185 0.0807 0.1181, -0.7185 -0.061 0.1181, -0.7185 0.0807 -0.3228, -0.7185 -0.061 -0.3228, -0.8189 0.0807 -0.3228, -0.8189 -0.061 -0.3228, -0.8189 0.0807 -1.378, -0.8189 -0.061 -1.378, 1.1791 -0.061 0.5118, 1.1791 0.0807 0.5118, 1.1791 -0.061 1.0117, 1.1791 0.0807 1.037, 1.2382 0.0807 0.5118, 1.2382 -0.061 0.5118, 1.2382 0.0807 0.1181, 1.2382 -0.061 0.1181, 1.1791 0.0807 0.1181, 1.1791 -0.061 0.1181, 1.1791 0.0807 -0.3228, 1.1791 -0.061 -0.3228, 1.0787 0.0807 -0.3228, 1.0787 -0.061 -0.3228, 1.0787 0.0807 -1.378, 1.0787 -0.061 -1.378, 0.8071 0.0807 -1.378, 0.8071 -0.061 -1.378, 0.8071 0.0807 -0.3228, 0.8071 -0.061 -0.3228, 0.7067 0.0807 -0.3228, 0.7067 -0.061 -0.3228, 0.7067 0.0807 0.1181, 0.7067 -0.061 0.1181, 0.6476 0.0807 0.1181, 0.6476 -0.061 0.1181, 0.6476 0.0807 0.5118, 0.6476 -0.061 0.5118, 0.7067 0.0807 0.5118, 0.7067 -0.061 0.5118, 0.7067 0.0807 1.037, 0.7067 -0.061 1.0117
            ]
        }
        coordIndex [
            0,1,2,-1,2,1,3,-1,4,0,5,-1,5,0,2,-1,6,4,7,-1,7,4,5,-1,8,6,9,-1,9,6,7,-1,10,8,11,-1,11,8,9,-1,12,10,13,-1,13,10,11,-1,12,13,14,-1,14,13,15,-1,16,17,18,-1,18,17,19,-1,20,17,21,-1,21,17,16,-1,22,20,23,-1,23,20,21,-1,24,22,25,-1,25,22,23,-1,26,24,27,-1,27,24,25,-1,28,26,29,-1,29,26,27,-1,30,28,31,-1,31,28,29,-1,1,30,3,-1,3,30,31,-1,12,14,19,-1,22,24,20,-1,20,24,17,-1,8,10,6,-1,6,10,12,-1,6,12,17,-1,17,12,19,-1,17,24,6,-1,6,24,26,-1,6,26,28,-1,4,6,0,-1,0,6,28,-1,0,28,1,-1,1,28,30,-1,16,18,15,-1,9,7,11,-1,11,7,13,-1,23,21,25,-1,25,21,16,-1,25,16,13,-1,13,16,15,-1,13,7,25,-1,25,7,5,-1,25,5,2,-1,27,25,29,-1,29,25,2,-1,29,2,31,-1,31,2,3,-1,32,33,34,-1,34,33,35,-1,36,32,37,-1,37,32,34,-1,38,36,39,-1,39,36,37,-1,40,38,41,-1,41,38,39,-1,42,40,43,-1,43,40,41,-1,44,42,45,-1,45,42,43,-1,44,45,46,-1,46,45,47,-1,48,49,50,-1,50,49,51,-1,52,49,53,-1,53,49,48,-1,54,52,55,-1,55,52,53,-1,56,54,57,-1,57,54,55,-1,58,56,59,-1,59,56,57,-1,60,58,61,-1,61,58,59,-1,62,60,63,-1,63,60,61,-1,33,62,35,-1,35,62,63,-1,44,46,51,-1,54,56,52,-1,52,56,49,-1,40,42,38,-1,38,42,44,-1,38,44,49,-1,49,44,51,-1,49,56,38,-1,38,56,58,-1,38,58,60,-1,36,38,32,-1,32,38,60,-1,32,60,33,-1,33,60,62,-1,48,50,47,-1,41,39,43,-1,43,39,45,-1,55,53,57,-1,57,53,48,-1,57,48,45,-1,45,48,47,-1,45,39,57,-1,57,39,37,-1,57,37,34,-1,59,57,61,-1,61,57,34,-1,61,34,63,-1,63,34,35,-1,64,65,66,-1,66,65,67,-1,68,65,69,-1,69,65,64,-1,70,68,71,-1,71,68,69,-1,72,70,73,-1,73,70,71,-1,74,72,75,-1,75,72,73,-1,76,74,77,-1,77,74,75,-1,78,76,79,-1,79,76,77,-1,80,78,81,-1,81,78,79,-1,82,80,83,-1,83,80,81,-1,84,82,85,-1,85,82,83,-1,86,84,87,-1,87,84,85,-1,88,86,89,-1,89,86,87,-1,90,88,91,-1,91,88,89,-1,92,90,93,-1,93,90,91,-1,92,93,94,-1,94,93,95,-1,92,94,67,-1,70,72,68,-1,68,72,65,-1,88,90,86,-1,86,90,92,-1,86,92,65,-1,65,92,67,-1,65,72,86,-1,86,72,74,-1,86,74,76,-1,84,86,82,-1,82,86,76,-1,82,76,80,-1,80,76,78,-1,64,66,95,-1,89,87,91,-1,91,87,93,-1,71,69,73,-1,73,69,64,-1,73,64,93,-1,93,64,95,-1,93,87,73,-1,73,87,85,-1,73,85,83,-1,75,73,77,-1,77,73,83,-1,77,83,79,-1,79,83,81,-1,
        ]
    }
}
Shape{
    appearance Appearance {
        material  Material 	{
            diffuseColor 1.0 1.0 1.0
            specularColor 0.8784313725490196 0.8784313725490196 0.8784313725490196
            ambientIntensity 1.0
            transparency 0.0
            shininess 0.5
        }
    }
    geometry IndexedFaceSet {
        ccw TRUE
        solid FALSE
        coord DEF co Coordinate {
            point [
                -0.4599 0.8878 1.407, -0.4599 0.8839 1.407, -0.4298 0.8878 1.3187, -0.4298 0.8839 1.3187, -0.59 0.8878 1.407, -0.59 0.8839 1.407, -0.6219 0.8878 1.3187, -0.6219 0.8839 1.3187, -0.668 0.8878 1.3187, -0.668 0.8839 1.3187, -0.545 0.8878 1.6337, -0.545 0.8839 1.6337, -0.5028 0.8878 1.6337, -0.5028 0.8839 1.6337, -0.3837 0.8878 1.3187, -0.3837 0.8839 1.3187, -0.4705 0.8839 1.4416, -0.5175 0.8839 1.5732, -0.5257 0.8839 1.5843, -0.5225 0.8839 1.5952, -0.5205 0.8839 1.5841, -0.5284 0.8839 1.5732, -0.5758 0.8839 1.4416, -0.4705 0.8878 1.4416, -0.5175 0.8878 1.5732, -0.5758 0.8878 1.4416, -0.5284 0.8878 1.5732, -0.5257 0.8878 1.5843, -0.5225 0.8878 1.5952, -0.5205 0.8878 1.5841, -0.1072 0.8878 1.3187, -0.1072 0.8839 1.3187, -0.1072 0.8878 1.6337, -0.1072 0.8839 1.6337, -0.1928 0.8878 1.3187, -0.1928 0.8839 1.3187, -0.3607 0.8878 1.4801, -0.3607 0.8839 1.4801, -0.3558 0.8839 1.4613, -0.3558 0.8878 1.4613, -0.3311 0.8839 1.3905, -0.3311 0.8878 1.3905, -0.3141 0.8839 1.3647, -0.3141 0.8878 1.3647, -0.2974 0.8839 1.3494, -0.2974 0.8878 1.3494, -0.2757 0.8839 1.3375, -0.2757 0.8878 1.3375, -0.2437 0.8839 1.3276, -0.2437 0.8878 1.3276, -0.196 0.8878 1.6337, -0.196 0.8839 1.6337, -0.2177 0.8839 1.6293, -0.2177 0.8878 1.6293, -0.2853 0.8839 1.6094, -0.2853 0.8878 1.6094, -0.3108 0.8839 1.5943, -0.3108 0.8878 1.5943, -0.3264 0.8839 1.579, -0.3264 0.8878 1.579, -0.3388 0.8839 1.5586, -0.3388 0.8878 1.5586, -0.3498 0.8839 1.5284, -0.3498 0.8878 1.5284, -0.2561 0.8839 1.5868, -0.2721 0.8839 1.5788, -0.2836 0.8839 1.5691, -0.2951 0.8839 1.5531, -0.3079 0.8839 1.5218, -0.3184 0.8839 1.4792, -0.3126 0.8839 1.4414, -0.3057 0.8839 1.4172, -0.2974 0.8839 1.4008, -0.2872 0.8839 1.3888, -0.2707 0.8839 1.377, -0.2383 0.8839 1.3639, -0.2327 0.8839 1.5934, -0.1959 0.8839 1.5991, -0.1494 0.8839 1.5991, -0.1494 0.8839 1.3533, -0.1941 0.8839 1.3533, -0.3184 0.8878 1.4792, -0.3079 0.8878 1.5218, -0.2951 0.8878 1.5531, -0.2836 0.8878 1.5691, -0.2721 0.8878 1.5788, -0.2561 0.8878 1.5868, -0.2327 0.8878 1.5934, -0.1959 0.8878 1.5991, -0.1494 0.8878 1.5991, -0.1494 0.8878 1.3533, -0.1941 0.8878 1.3533, -0.2383 0.8878 1.3639, -0.2707 0.8878 1.377, -0.2872 0.8878 1.3888, -0.2974 0.8878 1.4008, -0.3057 0.8878 1.4172, -0.3126 0.8878 1.4414, -0.0303 0.8878 1.4954, -0.0303 0.8839 1.4954, -0.0303 0.8878 1.4608, -0.0303 0.8839 1.4608, 0.081 0.8878 1.4954, 0.081 0.8839 1.4954, 0.081 0.8878 1.5991, 0.081 0.8839 1.5991, -0.038 0.8878 1.5991, -0.038 0.8839 1.5991, -0.038 0.8878 1.6337, -0.038 0.8839 1.6337, 0.1233 0.8878 1.6337, 0.1233 0.8839 1.6337, 0.1233 0.8878 1.3187, 0.1233 0.8839 1.3187, -0.0457 0.8878 1.3187, -0.0457 0.8839 1.3187, -0.0457 0.8878 1.3533, -0.0457 0.8839 1.3533, 0.081 0.8878 1.3533, 0.081 0.8839 1.3533, 0.081 0.8878 1.4608, 0.081 0.8839 1.4608, 0.1847 0.8878 1.5828, 0.1847 0.8839 1.5828, 0.2203 0.8839 1.5979, 0.2203 0.8878 1.5979, 0.2585 0.8839 1.6029, 0.2585 0.8878 1.6029, 0.1847 0.8878 1.625, 0.1847 0.8839 1.625, 0.2589 0.8878 1.6375, 0.2589 0.8839 1.6375, 0.2211 0.8839 1.6349, 0.2211 0.8878 1.6349, 0.419 0.8878 1.4702, 0.419 0.8839 1.4702, 0.4152 0.8839 1.4882, 0.4152 0.8878 1.4882, 0.3932 0.8839 1.5604, 0.3932 0.8878 1.5604, 0.3773 0.8839 1.587, 0.3773 0.8878 1.587, 0.3613 0.8839 1.6029, 0.3613 0.8878 1.6029, 0.3402 0.8839 1.6156, 0.3402 0.8878 1.6156, 0.3088 0.8839 1.6267, 0.3088 0.8878 1.6267, 0.2788 0.8878 1.3168, 0.2714 0.8878 1.3148, 0.2714 0.8839 1.3148, 0.2964 0.8878 1.3214, 0.2964 0.8839 1.3214, 0.3559 0.8839 1.3431, 0.3559 0.8878 1.3431, 0.3787 0.8839 1.3586, 0.3787 0.8878 1.3586, 0.3923 0.8839 1.374, 0.3923 0.8878 1.374, 0.4029 0.8839 1.3941, 0.4029 0.8878 1.3941, 0.4115 0.8839 1.4236, 0.4115 0.8878 1.4236, 0.2269 0.8878 1.3193, 0.1847 0.8878 1.335, 0.2269 0.8839 1.3193, 0.1847 0.8839 1.335, 0.2522 0.8878 1.3168, 0.1847 0.8878 1.3696, 0.1847 0.8839 1.3696, 0.2656 0.8878 1.3494, 0.2656 0.8839 1.3494, 0.2237 0.8839 1.3541, 0.2237 0.8878 1.3541, 0.3768 0.8878 1.4728, 0.3768 0.8839 1.4728, 0.3694 0.8839 1.4346, 0.3694 0.8878 1.4346, 0.3583 0.8839 1.4014, 0.3583 0.8878 1.4014, 0.3477 0.8839 1.3846, 0.3477 0.8878 1.3846, 0.3379 0.8839 1.375, 0.3379 0.8878 1.375, 0.323 0.8839 1.3658, 0.323 0.8878 1.3658, 0.3008 0.8839 1.3576, 0.3008 0.8878 1.3576, 0.2741 0.8839 1.5985, 0.2741 0.8878 1.5985, 0.3258 0.8839 1.5787, 0.3258 0.8878 1.5787, 0.3448 0.8839 1.5654, 0.3448 0.8878 1.5654, 0.3559 0.8839 1.5525, 0.3559 0.8878 1.5525, 0.3644 0.8839 1.5358, 0.3644 0.8878 1.5358, 0.3712 0.8839 1.5114, 0.3712 0.8878 1.5114, 0.6073 0.8878 1.3187, 0.6073 0.8839 1.3187, 0.6073 0.8878 1.6337, 0.6073 0.8839 1.6337, 0.4459 0.8878 1.3187, 0.4459 0.8839 1.3187, 0.4459 0.8878 1.3533, 0.4459 0.8839 1.3533, 0.565 0.8878 1.3533, 0.565 0.8839 1.3533, 0.565 0.8878 1.6337, 0.565 0.8839 1.6337
            ]
        }
        coordIndex [
            0,1,2,-1,2,1,3,-1,4,5,0,-1,0,5,1,-1,6,7,4,-1,4,7,5,-1,8,9,6,-1,6,9,7,-1,10,11,8,-1,8,11,9,-1,12,13,10,-1,10,13,11,-1,14,15,12,-1,12,15,13,-1,14,2,15,-1,15,2,3,-1,16,17,13,-1,15,3,1,-1,18,11,19,-1,19,11,13,-1,19,13,20,-1,20,13,17,-1,18,21,11,-1,11,21,22,-1,11,22,9,-1,7,9,5,-1,5,9,22,-1,5,22,1,-1,1,22,16,-1,1,16,15,-1,15,16,13,-1,16,23,17,-1,17,23,24,-1,22,25,16,-1,16,25,23,-1,21,26,22,-1,22,26,25,-1,26,21,18,-1,26,18,27,-1,27,18,19,-1,27,19,28,-1,28,19,20,-1,28,20,29,-1,29,20,17,-1,29,17,24,-1,30,31,32,-1,32,31,33,-1,34,35,30,-1,30,35,31,-1,36,37,38,-1,36,38,39,-1,39,38,40,-1,39,40,41,-1,41,40,42,-1,41,42,43,-1,43,42,44,-1,43,44,45,-1,45,44,46,-1,45,46,47,-1,47,46,48,-1,47,48,49,-1,49,48,35,-1,49,35,34,-1,50,51,52,-1,50,52,53,-1,53,52,54,-1,53,54,55,-1,55,54,56,-1,55,56,57,-1,57,56,58,-1,57,58,59,-1,59,58,60,-1,59,60,61,-1,61,60,62,-1,61,62,63,-1,63,62,37,-1,63,37,36,-1,50,32,51,-1,51,32,33,-1,64,65,54,-1,54,65,56,-1,56,65,66,-1,56,66,58,-1,58,66,67,-1,58,67,60,-1,60,67,68,-1,60,68,62,-1,62,68,37,-1,37,68,69,-1,37,69,38,-1,38,69,70,-1,38,70,40,-1,70,71,40,-1,40,71,72,-1,40,72,42,-1,42,72,73,-1,42,73,44,-1,44,73,74,-1,44,74,46,-1,46,74,75,-1,64,54,76,-1,76,54,52,-1,76,52,77,-1,77,52,51,-1,77,51,78,-1,78,51,33,-1,78,33,79,-1,79,33,31,-1,79,31,80,-1,80,31,35,-1,80,35,75,-1,75,35,48,-1,75,48,46,-1,81,69,68,-1,81,68,82,-1,82,68,67,-1,82,67,83,-1,83,67,66,-1,83,66,84,-1,84,66,65,-1,84,65,85,-1,85,65,64,-1,85,64,86,-1,86,64,76,-1,86,76,87,-1,87,76,77,-1,87,77,88,-1,78,89,77,-1,77,89,88,-1,79,90,78,-1,78,90,89,-1,80,91,79,-1,79,91,90,-1,91,80,75,-1,91,75,92,-1,92,75,74,-1,92,74,93,-1,93,74,73,-1,93,73,94,-1,94,73,72,-1,94,72,95,-1,95,72,71,-1,95,71,96,-1,96,71,70,-1,96,70,97,-1,97,70,69,-1,97,69,81,-1,98,99,100,-1,100,99,101,-1,102,103,98,-1,98,103,99,-1,104,105,102,-1,102,105,103,-1,106,107,104,-1,104,107,105,-1,108,109,106,-1,106,109,107,-1,110,111,108,-1,108,111,109,-1,112,113,110,-1,110,113,111,-1,114,115,112,-1,112,115,113,-1,116,117,114,-1,114,117,115,-1,118,119,116,-1,116,119,117,-1,120,121,118,-1,118,121,119,-1,120,100,121,-1,121,100,101,-1,113,115,117,-1,117,119,113,-1,113,119,121,-1,113,121,111,-1,107,109,105,-1,105,109,111,-1,105,111,103,-1,103,111,121,-1,103,121,99,-1,99,121,101,-1,122,123,124,-1,122,124,125,-1,125,124,126,-1,125,126,127,-1,128,129,122,-1,122,129,123,-1,130,131,132,-1,130,132,133,-1,133,132,129,-1,133,129,128,-1,134,135,136,-1,134,136,137,-1,137,136,138,-1,137,138,139,-1,139,138,140,-1,139,140,141,-1,141,140,142,-1,141,142,143,-1,143,142,144,-1,143,144,145,-1,145,144,146,-1,145,146,147,-1,147,146,131,-1,147,131,130,-1,148,149,150,-1,148,150,151,-1,150,152,151,-1,151,152,153,-1,151,153,154,-1,154,153,155,-1,154,155,156,-1,156,155,157,-1,156,157,158,-1,158,157,159,-1,158,159,160,-1,160,159,161,-1,160,161,162,-1,162,161,135,-1,162,135,134,-1,163,164,165,-1,165,164,166,-1,163,165,167,-1,167,165,150,-1,167,150,149,-1,168,169,164,-1,164,169,166,-1,170,171,172,-1,170,172,173,-1,173,172,169,-1,173,169,168,-1,174,175,176,-1,174,176,177,-1,177,176,178,-1,177,178,179,-1,179,178,180,-1,179,180,181,-1,181,180,182,-1,181,182,183,-1,183,182,184,-1,183,184,185,-1,185,184,186,-1,185,186,187,-1,187,186,171,-1,187,171,170,-1,127,126,188,-1,127,188,189,-1,189,188,190,-1,189,190,191,-1,191,190,192,-1,191,192,193,-1,193,192,194,-1,193,194,195,-1,195,194,196,-1,195,196,197,-1,197,196,198,-1,197,198,199,-1,199,198,175,-1,199,175,174,-1,123,129,124,-1,124,129,132,-1,124,132,126,-1,126,132,131,-1,126,131,188,-1,188,131,146,-1,188,146,190,-1,176,159,178,-1,178,159,157,-1,178,157,180,-1,180,157,155,-1,180,155,182,-1,182,155,153,-1,146,144,190,-1,190,144,142,-1,190,142,192,-1,192,142,140,-1,192,140,194,-1,194,140,138,-1,194,138,196,-1,166,169,165,-1,165,169,172,-1,165,172,150,-1,150,172,171,-1,150,171,152,-1,152,171,186,-1,152,186,153,-1,153,186,184,-1,153,184,182,-1,196,138,198,-1,198,138,136,-1,198,136,175,-1,175,136,135,-1,175,135,176,-1,176,135,161,-1,176,161,159,-1,200,201,202,-1,202,201,203,-1,204,205,200,-1,200,205,201,-1,206,207,204,-1,204,207,205,-1,208,209,206,-1,206,209,207,-1,210,211,208,-1,208,211,209,-1,210,202,211,-1,211,202,203,-1,211,203,209,-1,209,203,201,-1,209,201,207,-1,207,201,205,-1,
        ]
    }
}
Shape{
    appearance Appearance {
        material  Material 	{
            diffuseColor 0.20784313725490197 0.20784313725490197 0.20784313725490197
            specularColor 0.01568627450980392 0.01568627450980392 0.01568627450980392
            ambientIntensity 0.298
            transparency 0.0
            shininess 0.5
        }
    }
    geometry IndexedFaceSet {
        ccw TRUE
        solid FALSE
        coord DEF co Coordinate {
            point [
                -0.4705 0.8878 1.4416, -0.5758 0.8878 1.4416, -0.5175 0.8878 1.5732, -0.5284 0.8878 1.5732, -0.5205 0.8878 1.5841, -0.5257 0.8878 1.5843, -0.5225 0.8878 1.5952, -0.1959 0.8878 1.5991, -0.1494 0.8878 1.5991, -0.3126 0.8878 1.4414, -0.3057 0.8878 1.4172, -0.2561 0.8878 1.5868, -0.2327 0.8878 1.5934, -0.3079 0.8878 1.5218, -0.3184 0.8878 1.4792, -0.1494 0.8878 1.3533, -0.1941 0.8878 1.3533, -0.2383 0.8878 1.3639, -0.2707 0.8878 1.377, -0.2872 0.8878 1.3888, -0.2974 0.8878 1.4008, -0.2721 0.8878 1.5788, -0.2951 0.8878 1.5531, -0.2836 0.8878 1.5691, 0.3654 -0.7461 1.7867, 0.3654 -0.7854 1.7867, 0.3527 -0.7461 1.8828, 0.3527 -0.7854 1.8828, 0.3156 -0.7461 1.9724, 0.3156 -0.7854 1.9724, 0.2566 -0.7461 2.0492, 0.2566 -0.7854 2.0492, 0.1797 -0.7461 2.1083, 0.1797 -0.7854 2.1083, 0.0902 -0.7461 2.1453, 0.0902 -0.7854 2.1453, -0.0059 -0.7461 2.158, -0.0059 -0.7854 2.158, -0.102 -0.7461 2.1453, -0.102 -0.7854 2.1453, -0.1916 -0.7461 2.1083, -0.1916 -0.7854 2.1083, -0.2684 -0.7461 2.0492, -0.2684 -0.7854 2.0492, -0.3275 -0.7461 1.9724, -0.3275 -0.7854 1.9724, -0.3645 -0.7461 1.8828, -0.3645 -0.7854 1.8828, -0.3772 -0.7461 1.7867, -0.3772 -0.7854 1.7867, -0.3645 -0.7461 1.6906, -0.3645 -0.7854 1.6906, -0.3275 -0.7461 1.6011, -0.3275 -0.7854 1.6011, -0.2684 -0.7461 1.5242, -0.2684 -0.7854 1.5242, -0.1916 -0.7461 1.4652, -0.1916 -0.7854 1.4652, -0.102 -0.7461 1.4281, -0.102 -0.7854 1.4281, -0.0059 -0.7461 1.4154, -0.0059 -0.7854 1.4154, 0.0902 -0.7461 1.4281, 0.0902 -0.7854 1.4281, 0.1797 -0.7461 1.4652, 0.1797 -0.7854 1.4652, 0.2566 -0.7461 1.5242, 0.2566 -0.7854 1.5242, 0.3156 -0.7461 1.6011, 0.3156 -0.7854 1.6011, 0.3527 -0.7461 1.6906, 0.3527 -0.7854 1.6906, -0.0059 -0.7461 1.7867
            ]
        }
        coordIndex [
            0,1,2,-1,2,1,3,-1,2,3,4,-1,4,3,5,-1,4,5,6,-1,7,8,9,-1,9,8,10,-1,11,12,13,-1,7,9,12,-1,12,9,14,-1,12,14,13,-1,15,16,8,-1,8,16,17,-1,8,17,18,-1,18,19,8,-1,8,19,20,-1,8,20,10,-1,11,13,21,-1,21,13,22,-1,21,22,23,-1,24,25,26,-1,26,25,27,-1,26,27,28,-1,28,27,29,-1,28,29,30,-1,30,29,31,-1,30,31,32,-1,32,31,33,-1,32,33,34,-1,34,33,35,-1,34,35,36,-1,36,35,37,-1,36,37,38,-1,38,37,39,-1,38,39,40,-1,40,39,41,-1,40,41,42,-1,42,41,43,-1,42,43,44,-1,44,43,45,-1,44,45,46,-1,46,45,47,-1,46,47,48,-1,48,47,49,-1,48,49,50,-1,50,49,51,-1,50,51,52,-1,52,51,53,-1,52,53,54,-1,54,53,55,-1,54,55,56,-1,56,55,57,-1,56,57,58,-1,58,57,59,-1,58,59,60,-1,60,59,61,-1,60,61,62,-1,62,61,63,-1,62,63,64,-1,64,63,65,-1,64,65,66,-1,66,65,67,-1,66,67,68,-1,68,67,69,-1,68,69,70,-1,70,69,71,-1,70,71,24,-1,24,71,25,-1,68,70,72,-1,72,70,24,-1,72,24,26,-1,62,64,72,-1,72,64,66,-1,72,66,68,-1,56,58,72,-1,72,58,60,-1,72,60,62,-1,50,52,72,-1,72,52,54,-1,72,54,56,-1,44,46,72,-1,72,46,48,-1,72,48,50,-1,38,40,72,-1,72,40,42,-1,72,42,44,-1,32,34,72,-1,72,34,36,-1,72,36,38,-1,26,28,72,-1,72,28,30,-1,72,30,32,-1,
        ]
    }
}